<svg width="1440" height="120" viewBox="0 0 1440 120" fill="none" xmlns="http://www.w3.org/2000/svg">
<g opacity="0.4" filter="url(#filter0_d_4337_22981)">
<path d="M1345.83 56.8944C1297.81 55.1337 1245.19 57.6432 1202.73 52.0979C1153.45 45.6621 1136.79 30.8273 1095.04 21.9223C1080.63 18.8461 1061.56 16.458 1042.3 17.1461C993.583 18.9271 987.613 37.0203 941.429 41.068C899.535 44.7311 848.231 34.6119 810.749 40.3191C790.733 43.3751 781.464 50.2765 757.866 51.1265C747.585 51.4908 737.344 50.5193 727.974 49.4669C691.221 45.2978 658.09 39.4084 631.193 32.2035C620.264 29.2892 610.125 26.1117 596.282 23.9664C582.459 21.8212 563.556 20.9307 549.389 22.9545C535.486 24.9379 529.131 29.2082 514.276 30.7463C494.847 32.7702 473.434 29.0665 460.037 25.201C446.639 21.3354 433.2 16.6401 412.193 15.8913C401.082 15.4866 389.87 16.3163 378.637 16.3163C347.976 16.3163 323.872 10.3257 295.073 7.85665C256.944 4.59825 210.091 8.44356 188.983 16.5794C176.678 21.3152 171.355 27.5082 151.177 30.4023C123.289 34.4095 88.4178 29.5523 61.4197 25.2212C34.4216 20.8902 -4.8613 17.1461 -27.9736 22.57V158.147C-27.407 160.434 -11.9852 158.147 7.74726 158.147L1454.49 159.038C1496.02 159.24 1489.93 159.119 1489.93 153.999V83.7306C1466.01 69.7661 1409.28 59.2016 1345.85 56.8742L1345.83 56.8944Z" fill="url(#paint0_linear_4337_22981)"/>
</g>
<defs>
<filter id="filter0_d_4337_22981" x="-34.0452" y="0.627677" width="1558.7" height="192.942" filterUnits="userSpaceOnUse" color-interpolation-filters="sRGB">
<feFlood flood-opacity="0" result="BackgroundImageFix"/>
<feColorMatrix in="SourceAlpha" type="matrix" values="0 0 0 0 0 0 0 0 0 0 0 0 0 0 0 0 0 0 127 0" result="hardAlpha"/>
<feOffset dx="14.1669" dy="14.1669"/>
<feGaussianBlur stdDeviation="10.1192"/>
<feColorMatrix type="matrix" values="0 0 0 0 0 0 0 0 0 0 0 0 0 0 0 0 0 0 0.28 0"/>
<feBlend mode="normal" in2="BackgroundImageFix" result="effect1_dropShadow_4337_22981"/>
<feBlend mode="normal" in="SourceGraphic" in2="effect1_dropShadow_4337_22981" result="shape"/>
</filter>
<linearGradient id="paint0_linear_4337_22981" x1="1151.99" y1="-286.815" x2="401.042" y2="385.567" gradientUnits="userSpaceOnUse">
<stop offset="0.34" stop-color="#A290EC"/>
<stop offset="1" stop-color="#5840BA"/>
</linearGradient>
</defs>
</svg>
