<svg width="58" height="58" viewBox="0 0 58 58" fill="none" xmlns="http://www.w3.org/2000/svg">
<path d="M27.1875 36.25H30.8125V43.5H27.1875V36.25ZM36.25 32.625H39.875V43.5H36.25V32.625ZM18.125 25.375H21.75V43.5H18.125V25.375Z" fill="#e3e3e3" />
<path d="M45.3125 9.0625H39.875V7.25C39.875 6.28859 39.4931 5.36656 38.8133 4.68674C38.1334 4.00692 37.2114 3.625 36.25 3.625H21.75C20.7886 3.625 19.8666 4.00692 19.1867 4.68674C18.5069 5.36656 18.125 6.28859 18.125 7.25V9.0625H12.6875C11.7261 9.0625 10.8041 9.44442 10.1242 10.1242C9.44442 10.8041 9.0625 11.7261 9.0625 12.6875V50.75C9.0625 51.7114 9.44442 52.6334 10.1242 53.3133C10.8041 53.9931 11.7261 54.375 12.6875 54.375H45.3125C46.2739 54.375 47.1959 53.9931 47.8758 53.3133C48.5556 52.6334 48.9375 51.7114 48.9375 50.75V12.6875C48.9375 11.7261 48.5556 10.8041 47.8758 10.1242C47.1959 9.44442 46.2739 9.0625 45.3125 9.0625ZM21.75 7.25H36.25V14.5H21.75V7.25ZM45.3125 50.75H12.6875V12.6875H18.125V18.125H39.875V12.6875H45.3125V50.75Z" fill="#e3e3e3" />
</svg>
