<svg width="72" height="72" viewBox="0 0 72 72" fill="none" xmlns="http://www.w3.org/2000/svg">
<g clip-path="url(#clip0_4337_23070)">
<path d="M28.5481 31.6485C26.0717 30.9849 23.9603 29.3648 22.6785 27.1445C21.3966 24.9243 21.0492 22.2857 21.7128 19.8093L23.7143 12.3395C23.847 11.8442 24.171 11.4219 24.6151 11.1655C25.0591 10.9092 25.5869 10.8397 26.0821 10.9724L27.9496 11.4728C28.4449 11.6055 28.9726 11.536 29.4166 11.2796C29.8607 11.0233 30.1847 10.601 30.3174 10.1057C30.4501 9.61042 30.3807 9.08271 30.1243 8.63865C29.8679 8.1946 29.4456 7.87057 28.9504 7.73786L27.0829 7.23748C25.5971 6.83935 24.0139 7.04777 22.6817 7.8169C21.3496 8.58603 20.3775 9.85286 19.9794 11.3387L17.9778 18.8085C17.4149 20.9189 17.3727 23.1344 17.8548 25.2647C18.3368 27.395 19.3287 29.3764 20.7454 31.0389C22.0223 32.9568 22.8963 35.1141 23.3145 37.3799C23.7327 39.6458 23.6862 41.9729 23.178 44.2203C22.249 47.6873 22.7353 51.3813 24.53 54.4897C26.3246 57.598 29.2805 59.8662 32.7475 60.7952C36.2145 61.7242 39.9085 61.2378 43.0168 59.4432C46.1252 57.6486 48.3934 54.6926 49.3224 51.2257L49.8928 49.0968C51.775 49.1139 53.5988 48.4441 55.0224 47.2127C56.446 45.9814 57.3716 44.2731 57.6258 42.4081C57.88 40.5431 57.4453 38.6494 56.4031 37.082C55.361 35.5146 53.783 34.3811 51.9649 33.8939C50.1468 33.4068 48.2134 33.5994 46.5272 34.4358C44.8409 35.2721 43.5176 36.6947 42.8052 38.437C42.0929 40.1792 42.0404 42.1214 42.6576 43.8996C43.2748 45.6778 44.5193 47.1698 46.1579 48.096L45.5875 50.2249C44.9239 52.7013 43.3038 54.8127 41.0835 56.0946C38.8632 57.3764 36.2247 57.7238 33.7483 57.0603C31.2719 56.3967 29.1605 54.7766 27.8786 52.5563C26.5967 50.336 26.2493 47.6975 26.9129 45.2211C27.6019 43.0192 28.7315 40.9805 30.2331 39.2288C31.7347 37.4772 33.5769 36.0493 35.6477 35.0319C37.6999 34.2945 39.5429 33.0707 41.0188 31.4653C42.4947 29.86 43.5596 27.9208 44.1222 25.8139L46.1238 18.3441C46.5219 16.8582 46.3135 15.2751 45.5444 13.9429C44.7752 12.6107 43.5084 11.6387 42.0226 11.2405L40.1551 10.7402C39.6598 10.6075 39.1321 10.6769 38.688 10.9333C38.244 11.1897 37.92 11.612 37.7873 12.1072C37.6545 12.6025 37.724 13.1302 37.9804 13.5743C38.2368 14.0183 38.659 14.3424 39.1543 14.4751L41.0218 14.9755C41.5171 15.1082 41.9393 15.4322 42.1957 15.8762C42.4521 16.3203 42.5216 16.848 42.3889 17.3433L40.3873 24.8131C40.0588 26.0393 39.4919 27.1888 38.7191 28.1959C37.9463 29.203 36.9827 30.0481 35.8834 30.6828C34.784 31.3175 33.5704 31.7295 32.3118 31.8952C31.0532 32.0609 29.7743 31.977 28.5481 31.6485ZM48.9561 45.1229C47.9655 44.8575 47.121 44.2095 46.6082 43.3213C46.0955 42.4332 45.9565 41.3778 46.2219 40.3872C46.4873 39.3967 47.1354 38.5521 48.0235 38.0394C48.9116 37.5266 49.967 37.3877 50.9576 37.6531C51.9482 37.9185 52.7927 38.5666 53.3055 39.4547C53.8182 40.3428 53.9572 41.3982 53.6918 42.3888C53.4263 43.3793 52.7783 44.2239 51.8902 44.7366C51.0021 45.2494 49.9466 45.3883 48.9561 45.1229Z" fill="#e3e3e3" />
</g>
<defs>
<clipPath id="clip0_4337_23070">
<rect width="58" height="58" fill="#e3e3e3" transform="translate(15.0115) rotate(15)"/>
</clipPath>
</defs>
</svg>
