<svg width="48" height="48" viewBox="0 0 48 48" fill="none" xmlns="http://www.w3.org/2000/svg">
<g clip-path="url(#clip0_4337_23076)">
<path d="M30.7575 10.9284C30.4762 11.2096 30.0947 11.3675 29.697 11.3675C29.2992 11.3675 28.9178 11.2096 28.6365 10.9284C28.2253 10.5156 27.7364 10.1885 27.1981 9.96576C26.6597 9.74306 26.0826 9.62923 25.5 9.63086C24.27 9.63086 23.1705 10.1244 22.3635 10.9284C22.2242 11.0676 22.0589 11.1781 21.8769 11.2535C21.695 11.3288 21.4999 11.3676 21.303 11.3676C20.9052 11.3676 20.5237 11.2096 20.2425 10.9284C20.1032 10.7891 19.9927 10.6238 19.9174 10.4418C19.842 10.2598 19.8032 10.0648 19.8032 9.86786C19.8032 9.4701 19.9612 9.08862 20.2425 8.80736C20.9327 8.11671 21.7523 7.56896 22.6545 7.19549C23.5566 6.82201 24.5236 6.63014 25.5 6.63086C26.4764 6.63014 27.4433 6.82201 28.3455 7.19549C29.2477 7.56896 30.0673 8.11671 30.7575 8.80736C31.0387 9.08865 31.1967 9.47011 31.1967 9.86786C31.1967 10.2656 31.0387 10.6471 30.7575 10.9284ZM13.341 9.49586C12.0159 10.2699 10.8175 11.2427 9.78748 12.3804L9.78598 12.3819C8.75249 13.5237 7.90101 14.8178 7.26148 16.2189C6.60493 17.6566 6.18211 19.1899 6.00898 20.7609C5.98731 20.9567 6.00442 21.1548 6.05933 21.344C6.11424 21.5332 6.20588 21.7097 6.32901 21.8635C6.45214 22.0173 6.60435 22.1453 6.77696 22.2402C6.94956 22.3352 7.13918 22.3952 7.33498 22.4169C7.53078 22.4385 7.72893 22.4214 7.91812 22.3665C8.10731 22.3116 8.28383 22.22 8.4376 22.0968C8.59138 21.9737 8.71939 21.8215 8.81434 21.6489C8.90929 21.4763 8.96931 21.2867 8.99098 21.0909C9.13169 19.8368 9.46934 18.6127 9.99148 17.4639C11.0192 15.2128 12.7178 13.3346 14.8545 12.0864C15.0246 11.987 15.1734 11.8551 15.2925 11.6982C15.4117 11.5413 15.4987 11.3624 15.5487 11.1719C15.5987 10.9813 15.6107 10.7828 15.584 10.5876C15.5573 10.3925 15.4924 10.2045 15.393 10.0344C15.2936 9.86427 15.1617 9.71541 15.0048 9.59629C14.8479 9.47718 14.6691 9.39013 14.4785 9.34013C14.0937 9.23914 13.6845 9.29516 13.341 9.49586ZM36 26.2494C36 25.8515 36.158 25.47 36.4393 25.1887C36.7206 24.9074 37.1022 24.7494 37.5 24.7494C37.8978 24.7494 38.2793 24.9074 38.5606 25.1887C38.8419 25.47 39 25.8515 39 26.2494C38.9979 27.6026 38.4724 28.9027 37.5336 29.8773C36.5947 30.852 35.3152 31.4257 33.963 31.4784C34.2975 32.1669 34.5 32.9319 34.5 33.7494C34.5 34.1472 34.3419 34.5287 34.0606 34.81C33.7793 35.0913 33.3978 35.2494 33 35.2494C32.6022 35.2494 32.2206 35.0913 31.9393 34.81C31.658 34.5287 31.5 34.1472 31.5 33.7494C31.5 33.1526 31.2629 32.5803 30.841 32.1584C30.419 31.7364 29.8467 31.4994 29.25 31.4994H19.977C19.5792 31.4994 19.1976 31.3413 18.9163 31.06C18.635 30.7787 18.477 30.3972 18.477 29.9994C18.477 29.6015 18.635 29.22 18.9163 28.9387C19.1976 28.6574 19.5792 28.4994 19.977 28.4994H23.25C23.8464 28.4982 24.418 28.2607 24.8397 27.839C25.2614 27.4173 25.4988 26.8457 25.5 26.2494C25.5 25.8515 25.658 25.47 25.9393 25.1887C26.2206 24.9074 26.6022 24.7494 27 24.7494C27.3978 24.7494 27.7793 24.9074 28.0606 25.1887C28.3419 25.47 28.5 25.8515 28.5 26.2494C28.5 27.0579 28.302 27.8154 27.975 28.4994H33.75C34.3464 28.4982 34.918 28.2607 35.3397 27.839C35.7614 27.4173 35.9988 26.8457 36 26.2494Z" fill="#e3e3e3"/>
<path d="M48 25.0665C48 24.1245 47.9325 23.2125 47.829 22.3275C46.4685 10.6005 36.522 1.503 24.4335 1.5H22.5855C10.11 1.5015 0.0015 11.61 0 24.0855C0 25.2562 0.23058 26.4154 0.678576 27.4969C1.12657 28.5785 1.78321 29.5612 2.611 30.389C4.28279 32.0608 6.55023 33 8.9145 33H10.776C11.2805 35.134 12.4903 37.0354 14.2096 38.3965C15.9289 39.7576 18.0572 40.4987 20.25 40.5H30.906L35.58 45.174C35.7373 45.3311 35.9377 45.4381 36.1558 45.4814C36.3739 45.5248 36.5999 45.5025 36.8054 45.4174C37.0108 45.3324 37.1865 45.1883 37.3101 45.0035C37.4337 44.8187 37.4998 44.6014 37.5 44.379V40.3755C39.8056 40.088 41.9779 39.1366 43.7526 37.637C45.5273 36.1374 46.8279 34.1543 47.496 31.929C47.7105 31.212 47.8335 30.456 47.9115 29.6865L47.916 29.6745C47.958 29.5365 48 29.4 48 29.25C47.999 29.158 47.995 29.067 47.988 28.977L47.9775 28.8045C47.9785 28.7565 47.982 28.71 47.988 28.665C47.996 28.61 48 28.555 48 28.5V25.0665ZM44.622 31.0725C44.0682 32.9292 42.93 34.5576 41.3766 35.7156C39.8232 36.8737 37.9375 37.4995 36 37.5H20.25C18.5668 37.4991 16.9447 36.8695 15.7018 35.7345C14.4589 34.5995 13.6849 33.0412 13.5315 31.365L13.5225 31.269C13.5726 29.3208 14.3831 27.4696 15.7804 26.1112C17.1778 24.7528 19.0512 23.995 21 24C21.3978 24 21.7794 23.842 22.0607 23.5607C22.342 23.2794 22.5 22.8978 22.5 22.5C22.5 22.1022 22.342 21.7206 22.0607 21.4393C21.7794 21.158 21.3978 21 21 21C19.2385 20.9999 17.5053 21.443 15.96 22.2885C15.6651 21.6258 15.2524 21.022 14.742 20.5065C14.4607 20.2252 14.0793 20.0672 13.6815 20.0672C13.2837 20.0672 12.9023 20.2252 12.621 20.5065C12.3397 20.7878 12.1817 21.1692 12.1817 21.567C12.1817 21.9648 12.3397 22.3462 12.621 22.6275C13.047 23.055 13.3365 23.6025 13.446 24.216C11.9216 25.8006 10.9332 27.8237 10.62 30H8.9145C8.1374 30.0012 7.36774 29.8488 6.64977 29.5514C5.93181 29.2541 5.27971 28.8178 4.731 28.2675C4.18118 27.7188 3.74522 27.0669 3.44815 26.3492C3.15109 25.6316 2.99879 24.8622 3 24.0855C3 18.672 5.19 13.785 8.736 10.236C10.552 8.41355 12.7106 6.96847 15.0876 5.98402C17.4645 4.99956 20.0128 4.4952 22.5855 4.5H24.4335C34.4685 4.497 42.8025 11.7 44.61 21.2085C42.9559 19.5954 40.8453 18.5307 38.565 18.159C39.3195 16.776 39.75 15.1875 39.75 13.5C39.75 13.1022 39.592 12.7206 39.3107 12.4393C39.0294 12.158 38.6478 12 38.25 12C37.8522 12 37.4706 12.158 37.1893 12.4393C36.908 12.7206 36.75 13.1022 36.75 13.5C36.7516 14.3867 36.5778 15.2649 36.2385 16.0841C35.8992 16.9033 35.4011 17.6472 34.773 18.273C34.1472 18.9011 33.4033 19.3992 32.5841 19.7385C31.7649 20.0778 30.8867 20.2516 30 20.25C29.6022 20.25 29.2206 20.408 28.9393 20.6893C28.658 20.9706 28.5 21.3522 28.5 21.75C28.5 22.1478 28.658 22.5294 28.9393 22.8107C29.2206 23.092 29.6022 23.25 30 23.25C32.319 23.2514 34.5619 22.4224 36.3225 20.913L36.3465 20.9205C36.4767 20.9654 36.6125 20.9922 36.75 21C39.033 21 41.0865 21.921 42.5835 23.4165C44.0203 24.8547 44.8732 26.7743 44.9775 28.8045C44.9563 29.5726 44.8368 30.3348 44.622 31.0725Z" fill="#e3e3e3" />
</g>
<defs>
<clipPath id="clip0_4337_23076">
<rect width="48" height="48" fill="#e3e3e3"/>
</clipPath>
</defs>
</svg>
