<svg width="72" height="72" viewBox="0 0 72 72" fill="none" xmlns="http://www.w3.org/2000/svg">
<g clip-path="url(#clip0_4337_23059)">
<path d="M24.8706 17.6821L14.3662 20.4968C13.6697 20.6834 13.0759 21.1391 12.7153 21.7635C12.3548 22.388 12.2571 23.1301 12.4437 23.8266L21.8259 58.8414C22.0126 59.5379 22.4682 60.1317 23.0927 60.4922C23.7171 60.8527 24.4592 60.9504 25.1557 60.7638L35.6602 57.9492C36.3566 57.7625 36.9505 57.3069 37.311 56.6824C37.6715 56.058 37.7692 55.3159 37.5826 54.6194L28.2004 19.6046C28.0138 18.9081 27.5581 18.3143 26.9337 17.9537C26.3092 17.5932 25.5671 17.4955 24.8706 17.6821ZM15.8364 29.485L28.0916 26.2013L34.19 48.9609L21.9348 52.2447L15.8364 29.485ZM14.8353 22.2475L25.3397 19.4329C25.5719 19.3707 25.8193 19.4032 26.0274 19.5234C26.2356 19.6436 26.3875 19.8415 26.4497 20.0737L27.6224 24.4505L15.3673 27.7343L14.1945 23.3574C14.1323 23.1253 14.1648 22.8779 14.285 22.6698C14.4052 22.4616 14.6031 22.3097 14.8353 22.2475ZM35.191 56.1984L24.6866 59.0131C24.4544 59.0753 24.2071 59.0427 23.9989 58.9225C23.7908 58.8024 23.6389 58.6044 23.5767 58.3723L22.4039 53.9954L34.6591 50.7116L35.8319 55.0885C35.8941 55.3207 35.8615 55.568 35.7413 55.7762C35.6211 55.9843 35.4232 56.1362 35.191 56.1984ZM61.296 45.3053L44.7789 12.716C44.6178 12.396 44.3951 12.1109 44.1235 11.8773C43.8519 11.6436 43.5369 11.4659 43.1964 11.3545C42.8559 11.243 42.4967 11.1999 42.1395 11.2277C41.7824 11.2555 41.4342 11.3536 41.115 11.5163L31.4603 16.4606C30.8197 16.7936 30.3364 17.3658 30.1152 18.0531C29.894 18.7404 29.9528 19.4871 30.279 20.1313L46.7961 52.7206C46.9572 53.0406 47.1799 53.3256 47.4515 53.5593C47.7231 53.793 48.0382 53.9706 48.3786 54.0821C48.7191 54.1936 49.0783 54.2367 49.4355 54.2089C49.7926 54.1811 50.1408 54.083 50.46 53.9202L60.1141 48.9738C60.7551 48.6418 61.2389 48.07 61.4603 47.3829C61.6817 46.6958 61.6227 45.9491 61.296 45.3053ZM38.086 31.5239L49.3536 25.7535L56.8037 40.427L45.5367 46.1997L38.086 31.5239ZM34.7823 25.0066L46.0514 19.2334L48.5377 24.1355L37.268 29.9066L34.7823 25.0066ZM32.2893 18.075L41.9456 13.128C42.0025 13.0988 42.0624 13.0757 42.1242 13.0591C42.2907 13.015 42.4664 13.0201 42.63 13.0736C42.7458 13.1106 42.853 13.1705 42.9452 13.2498C43.0373 13.3291 43.1126 13.4261 43.1665 13.535L45.2324 17.621L33.9621 23.3898L31.8975 19.3176C31.7849 19.1008 31.7629 18.8482 31.8364 18.6153C31.9099 18.3823 32.0728 18.188 32.2893 18.075ZM59.2879 47.361L49.6294 52.3086C49.4161 52.4173 49.1685 52.4373 48.9406 52.3641C48.8248 52.3271 48.7176 52.2672 48.6255 52.1879C48.5333 52.1087 48.458 52.0117 48.4041 51.9027L46.3426 47.8156L57.6124 42.0446L59.6775 46.119C59.7901 46.3354 59.8123 46.5877 59.7392 46.8205C59.6662 47.0532 59.5039 47.2476 59.2879 47.361Z" fill="#e3e3e3"/>
</g>
<defs>
<clipPath id="clip0_4337_23059">
<rect width="58" height="58" fill="#e3e3e3" transform="translate(0 15.9023) rotate(-15)"/>
</clipPath>
</defs>
</svg>
