<svg xmlns="http://www.w3.org/2000/svg" width="58" height="58" viewBox="0 0 58 58" fill="none">
  <path d="M29.0001 14.1016L28.4327 14.2737L5.77649 21.8645L0.625366 23.5628L3.62505 24.5234V40.3828C2.54299 41.0118 1.81255 42.1591 1.81255 43.5003C1.81255 44.4617 2.19447 45.3838 2.87429 46.0636C3.55411 46.7434 4.47614 47.1253 5.43755 47.1253C6.39896 47.1253 7.321 46.7434 8.00082 46.0636C8.68064 45.3838 9.06255 44.4617 9.06255 43.5003C9.06255 42.1591 8.33212 41.0118 7.25005 40.3828V25.7741L10.8751 26.9613V36.2503C10.8751 37.7366 11.7813 38.9691 12.8579 39.8209C13.9346 40.6674 15.2722 41.2655 16.8781 41.802C20.0934 42.8714 24.3311 43.5003 29.0001 43.5003C33.6691 43.5003 37.9067 42.8732 41.1221 41.8002C42.7279 41.2655 44.0656 40.6674 45.1422 39.8191C46.2188 38.9691 47.1251 37.7366 47.1251 36.2503V26.9613L52.2236 25.2611L57.3747 23.5628L52.2218 21.8627L29.5656 14.2737L29.0001 14.1016ZM29.0001 17.8987L45.9922 23.5628L29.0001 29.2269L12.0079 23.5628L29.0001 17.8987ZM14.5001 28.2083L28.4346 32.8519L29.0001 33.0222L29.5674 32.8501L43.5001 28.2064V36.2503C43.5001 36.2684 43.5073 36.4787 42.9327 36.93C42.36 37.3831 41.3323 37.9541 39.9874 38.4036C37.3013 39.2971 33.341 39.8753 29.0001 39.8753C24.6591 39.8753 20.6988 39.2989 18.0109 38.4018C16.6696 37.9541 15.6401 37.3813 15.0674 36.93C14.491 36.4769 14.5001 36.2684 14.5001 36.2503V28.2083Z" fill="#E3E3E3"/>
</svg>