<svg width="58" height="58" viewBox="0 0 58 58" fill="none" xmlns="http://www.w3.org/2000/svg">
<path d="M29 33.834C26.9861 33.834 25.2743 33.1291 23.8646 31.7194C22.4548 30.3097 21.75 28.5979 21.75 26.584V12.084C21.75 10.0701 22.4548 8.35829 23.8646 6.94857C25.2743 5.53885 26.9861 4.83398 29 4.83398C31.0139 4.83398 32.7257 5.53885 34.1354 6.94857C35.5451 8.35829 36.25 10.0701 36.25 12.084V26.584C36.25 28.5979 35.5451 30.3097 34.1354 31.7194C32.7257 33.1291 31.0139 33.834 29 33.834ZM26.5833 50.7507V43.3194C22.3944 42.7555 18.9305 40.8826 16.1916 37.7007C13.4528 34.5187 12.0833 30.8132 12.0833 26.584H16.9166C16.9166 29.927 18.0952 32.7771 20.4522 35.1342C22.8093 37.4912 25.6585 38.6689 29 38.6673C32.3414 38.6657 35.1915 37.4872 37.5501 35.1317C39.9088 32.7763 41.0865 29.927 41.0833 26.584H45.9166C45.9166 30.8132 44.5472 34.5187 41.8083 37.7007C39.0694 40.8826 35.6055 42.7555 31.4166 43.3194V50.7507H26.5833ZM29 29.0007C29.6847 29.0007 30.2591 28.7687 30.7231 28.3047C31.1871 27.8407 31.4183 27.2671 31.4166 26.584V12.084C31.4166 11.3993 31.1846 10.8257 30.7206 10.3633C30.2566 9.90093 29.6831 9.66893 29 9.66732C28.3169 9.66571 27.7433 9.89771 27.2793 10.3633C26.8153 10.8289 26.5833 11.4025 26.5833 12.084V26.584C26.5833 27.2687 26.8153 27.8431 27.2793 28.3071C27.7433 28.7711 28.3169 29.0023 29 29.0007Z" fill="#E3E3E3"/>
</svg>
