<svg width="58" height="58" viewBox="0 0 58 58" fill="none" xmlns="http://www.w3.org/2000/svg">
<path d="M24.1666 18.1243C24.1666 17.8039 24.2939 17.4965 24.5205 17.2699C24.7471 17.0433 25.0545 16.916 25.375 16.916H35.0416C35.3621 16.916 35.6694 17.0433 35.896 17.2699C36.1227 17.4965 36.25 17.8039 36.25 18.1243C36.25 18.4448 36.1227 18.7522 35.896 18.9788C35.6694 19.2054 35.3621 19.3327 35.0416 19.3327H25.375C25.0545 19.3327 24.7471 19.2054 24.5205 18.9788C24.2939 18.7522 24.1666 18.4448 24.1666 18.1243ZM25.375 21.7493C25.0545 21.7493 24.7471 21.8767 24.5205 22.1033C24.2939 22.3299 24.1666 22.6372 24.1666 22.9577C24.1666 23.2782 24.2939 23.5855 24.5205 23.8121C24.7471 24.0387 25.0545 24.166 25.375 24.166H35.0416C35.3621 24.166 35.6694 24.0387 35.896 23.8121C36.1227 23.5855 36.25 23.2782 36.25 22.9577C36.25 22.6372 36.1227 22.3299 35.896 22.1033C35.6694 21.8767 35.3621 21.7493 35.0416 21.7493H25.375ZM24.1666 33.8327C24.1666 33.5122 24.2939 33.2049 24.5205 32.9783C24.7471 32.7517 25.0545 32.6243 25.375 32.6243H35.0416C35.3621 32.6243 35.6694 32.7517 35.896 32.9783C36.1227 33.2049 36.25 33.5122 36.25 33.8327C36.25 34.1532 36.1227 34.4605 35.896 34.6871C35.6694 34.9137 35.3621 35.041 35.0416 35.041H25.375C25.0545 35.041 24.7471 34.9137 24.5205 34.6871C24.2939 34.4605 24.1666 34.1532 24.1666 33.8327ZM25.375 37.4577C25.0545 37.4577 24.7471 37.585 24.5205 37.8116C24.2939 38.0382 24.1666 38.3455 24.1666 38.666C24.1666 38.9865 24.2939 39.2938 24.5205 39.5204C24.7471 39.747 25.0545 39.8743 25.375 39.8743H35.0416C35.3621 39.8743 35.6694 39.747 35.896 39.5204C36.1227 39.2938 36.25 38.9865 36.25 38.666C36.25 38.3455 36.1227 38.0382 35.896 37.8116C35.6694 37.585 35.3621 37.4577 35.0416 37.4577H25.375Z" fill="#e3e3e3" />
<path fill-rule="evenodd" clip-rule="evenodd" d="M12.0834 32.6243C12.0834 32.3039 12.2107 31.9965 12.4373 31.7699C12.6639 31.5433 12.9712 31.416 13.2917 31.416H19.3334C19.6538 31.416 19.9612 31.5433 20.1878 31.7699C20.4144 31.9965 20.5417 32.3039 20.5417 32.6243V38.666C20.5417 38.9865 20.4144 39.2938 20.1878 39.5204C19.9612 39.747 19.6538 39.8743 19.3334 39.8743H13.2917C12.9712 39.8743 12.6639 39.747 12.4373 39.5204C12.2107 39.2938 12.0834 38.9865 12.0834 38.666V32.6243ZM14.5 33.8327V37.4577H18.125V33.8327H14.5Z" fill="#e3e3e3" />
<path d="M21.3959 18.9794C21.616 18.7515 21.7378 18.4463 21.7351 18.1295C21.7323 17.8127 21.6052 17.5096 21.3812 17.2856C21.1572 17.0615 20.8541 16.9344 20.5373 16.9317C20.2205 16.9289 19.9152 17.0507 19.6873 17.2708L15.7083 21.2499L14.1459 19.6875C13.918 19.4674 13.6128 19.3456 13.296 19.3484C12.9792 19.3511 12.6761 19.4782 12.4521 19.7022C12.228 19.9263 12.1009 20.2293 12.0982 20.5461C12.0954 20.863 12.2172 21.1682 12.4373 21.3961L15.7083 24.667L21.3959 18.9794Z" fill="#e3e3e3" />
<path fill-rule="evenodd" clip-rule="evenodd" d="M12.0833 7.25C10.8015 7.25 9.57208 7.75922 8.66565 8.66565C7.75922 9.57208 7.25 10.8015 7.25 12.0833L7.25 45.9167C7.25 47.1985 7.75922 48.4279 8.66565 49.3344C9.57208 50.2408 10.8015 50.75 12.0833 50.75H36.25C37.5319 50.75 38.7613 50.2408 39.6677 49.3344C40.5741 48.4279 41.0833 47.1985 41.0833 45.9167V12.0833C41.0833 10.8015 40.5741 9.57208 39.6677 8.66565C38.7613 7.75922 37.5319 7.25 36.25 7.25L12.0833 7.25ZM9.66667 12.0833C9.66667 11.4424 9.92128 10.8277 10.3745 10.3745C10.8277 9.92128 11.4424 9.66667 12.0833 9.66667H36.25C36.8909 9.66667 37.5056 9.92128 37.9588 10.3745C38.4121 10.8277 38.6667 11.4424 38.6667 12.0833V45.9167C38.6667 46.5576 38.4121 47.1723 37.9588 47.6255C37.5056 48.0787 36.8909 48.3333 36.25 48.3333H12.0833C11.4424 48.3333 10.8277 48.0787 10.3745 47.6255C9.92128 47.1723 9.66667 46.5576 9.66667 45.9167V12.0833ZM43.5 19.3333C43.5 18.3719 43.8819 17.4499 44.5617 16.7701C45.2416 16.0903 46.1636 15.7083 47.125 15.7083C48.0864 15.7083 49.0084 16.0903 49.6883 16.7701C50.3681 17.4499 50.75 18.3719 50.75 19.3333V43.8661L47.125 49.3036L43.5 43.8661V19.3333ZM47.125 18.125C46.8045 18.125 46.4972 18.2523 46.2706 18.4789C46.044 18.7055 45.9167 19.0129 45.9167 19.3333V21.75H48.3333V19.3333C48.3333 19.0129 48.206 18.7055 47.9794 18.4789C47.7528 18.2523 47.4455 18.125 47.125 18.125ZM47.125 44.9464L45.9167 43.1339V24.1667H48.3333V43.1339L47.125 44.9464Z" fill="#e3e3e3" />
</svg>
