<svg width="25" height="26" viewBox="0 0 25 26" fill="none" xmlns="http://www.w3.org/2000/svg">
<path d="M2.84991 6.10352e-05C1.27598 6.10352e-05 0 1.2339 0 2.75599C0 4.27801 1.27591 5.51191 2.84991 5.51191C2.87892 5.51191 2.9076 5.51065 2.93635 5.50977V19.5013C2.90753 19.5005 2.87885 19.4992 2.84991 19.4992C1.27598 19.4992 0 20.7331 0 22.2551C0 23.7771 1.27598 25.011 2.84991 25.011C3.81027 25.011 4.65897 24.5512 5.17529 23.8473L6.99347 15.2276L5.17535 1.16374C4.65896 0.459833 3.81027 6.10352e-05 2.84991 6.10352e-05Z" fill="white"/>
<path d="M7.50073 19.4992C7.47172 19.4992 7.44304 19.5004 7.4143 19.5013V5.50971C7.44311 5.51052 7.47179 5.51185 7.50073 5.51185C9.07466 5.51185 10.3506 4.27795 10.3506 2.75592C10.3506 1.2339 9.07473 0 7.50073 0C6.54037 0 5.69168 0.459835 5.17535 1.16368V23.8473C5.69168 24.5511 6.54044 25.011 7.50073 25.011C9.07466 25.011 10.3506 23.7771 10.3506 22.255C10.3506 20.733 9.07466 19.4992 7.50073 19.4992Z" fill="#E8E8E8"/>
<path d="M9.63242 10.7086C9.63242 12.2005 10.1182 13.5825 10.945 14.7153L9.63242 17.1566L12.87 16.5191C14.0052 17.2433 15.3647 17.6652 16.8263 17.6652L22.6214 10.7086L16.8263 3.75195C12.8532 3.75202 9.63242 6.86654 9.63242 10.7086Z" fill="#FF9F50"/>
<path d="M16.8262 3.75201V17.6653C20.7993 17.6653 24.0201 14.5507 24.0201 10.7086C24.0201 6.86654 20.7993 3.75201 16.8262 3.75201Z" fill="#F27520"/>
<path d="M15.3861 6.56696V9.31601H12.5434V12.1013H15.3861V14.8503H16.8263L18.6828 10.8037L16.8263 6.56696H15.3861Z" fill="white"/>
<path d="M18.2664 9.31601V6.56696H16.8262V14.8503H18.2664V12.1013H21.1091V9.31601H18.2664Z" fill="#E8E8E8"/>
</svg>
