<svg width="32" height="15" viewBox="0 0 32 15" fill="none" xmlns="http://www.w3.org/2000/svg">
<path d="M6.9041 12.2389H4.35703C1.95454 12.2389 0 10.3488 0 8.0255V7.68411C0 5.36091 1.95454 3.47076 4.35703 3.47076H6.9041V5.36179H4.35703C3.03282 5.36179 1.95552 6.40356 1.95552 7.68411V8.0255C1.95552 9.3061 3.03282 10.3479 4.35703 10.3479H6.9041V12.2389Z" fill="white"/>
<path d="M26.7985 12.2389H24.2515V10.3479H26.7985C28.1227 10.3479 29.2 9.3061 29.2 8.0255V7.68411C29.2 6.40363 28.1227 5.36179 26.7985 5.36179H24.2515V3.47076H26.7985C29.201 3.47076 31.1556 5.36085 31.1556 7.68411V8.0255C31.1555 10.3488 29.201 12.2389 26.7985 12.2389Z" fill="#E5E5E5"/>
<path d="M25.5092 1.68633V3.54584L24.2514 7.40631L25.5092 10.6359V12.4955L20.7788 13.5885C17.3534 14.3795 13.8021 14.3795 10.3767 13.5885L5.6463 12.4955V10.6359L6.5989 7.21412L5.6463 3.54584V1.68633L10.3767 0.593311C13.8021 -0.19777 17.3534 -0.19777 20.7788 0.593311L25.5092 1.68633Z" fill="#99ECFF"/>
<path d="M25.5092 1.68636L20.7788 0.593342C19.0661 0.197801 17.3219 0 15.5777 0V14.1818C17.3219 14.1818 19.0661 13.984 20.7788 13.5885L25.5092 12.4955V10.636L24.2514 7.40634L25.5092 3.54587V1.68636Z" fill="#57CCFF"/>
<path d="M5.6463 3.54584H25.5092V10.6359H5.6463V3.54584Z" fill="#57CCFF"/>
<path d="M15.5777 3.54584H25.5092V10.6359H15.5777V3.54584Z" fill="#299EED"/>
</svg>
