<svg width="23" height="24" viewBox="0 0 23 24" fill="none" xmlns="http://www.w3.org/2000/svg">
<path d="M21.7747 16.2465C20.9978 15.4343 19.8254 15.2103 18.8298 15.5737C18.6174 15.6512 18.3777 15.5991 18.2172 15.4438L17.4876 14.7384C17.2784 14.536 17.1978 14.2432 17.2657 13.9647C17.3741 13.52 17.4316 13.0564 17.4316 12.5798C17.4316 11.6286 17.2033 10.7289 16.7969 9.92922C16.651 9.64204 16.7123 9.29673 16.9463 9.0705L17.2076 8.8178C17.51 8.52538 17.9229 8.37561 18.3505 8.37555C18.8399 8.37549 19.3291 8.17655 19.6776 7.77855C20.2275 7.15048 20.2172 6.20938 19.6549 5.59158C18.9864 4.85698 17.8274 4.83018 17.1231 5.51121C16.7818 5.84126 16.6125 6.27449 16.615 6.70703C16.6175 7.12716 16.4399 7.52957 16.1327 7.82665C15.8543 8.09587 15.4096 8.12373 15.1026 7.88527C14.3812 7.32496 13.5278 6.917 12.5948 6.7117C12.2882 6.64425 12.0699 6.3819 12.0699 6.07782C12.0699 5.6374 12.2974 5.22163 12.6836 4.9884C13.4818 4.50657 14.0099 3.64571 13.998 2.66615C13.9807 1.23906 12.7915 0.0563438 11.3167 0.00200823C9.72591 -0.0565507 8.41721 1.17312 8.41721 2.69849C8.41721 3.6626 8.94018 4.50821 9.72669 4.98531C10.1143 5.22043 10.3456 5.63526 10.3456 6.0777C10.3456 6.38007 10.1302 6.64387 9.82532 6.71069C9.1532 6.85806 8.52242 7.11052 7.95238 7.44939C7.68656 7.60741 7.3463 7.56758 7.125 7.35484C6.58365 6.8343 5.82497 6.52493 4.99211 6.56508C3.61816 6.63139 2.39316 7.81228 2.32054 9.14072C2.24682 10.49 3.18782 11.6392 4.47162 11.9392C4.77342 12.0097 4.98416 12.2738 4.98396 12.574V12.5798C4.98396 13.4627 5.18069 14.3012 5.53392 15.0565C5.60543 15.2094 5.57375 15.3888 5.45107 15.5074L5.14686 15.8016C4.75791 16.1778 4.19693 16.3249 3.65995 16.2096C2.65292 15.9936 1.55352 16.2824 0.793999 17.0764C-0.265307 18.1839 -0.26459 19.9207 0.795694 21.0272C1.96294 22.2455 3.93137 22.2729 5.13461 21.1093C5.88937 20.3794 6.15917 19.3585 5.94458 18.4203C5.82523 17.8983 5.98069 17.3533 6.3716 16.9753C6.53033 16.8218 6.78552 16.8196 6.94913 16.9681C7.72593 17.6734 8.68994 18.1878 9.76144 18.4344C10.1025 18.5129 10.3456 18.804 10.3456 19.1431C10.3456 19.4695 10.1938 19.7788 9.93254 19.9855C9.44777 20.369 9.15118 20.9667 9.1974 21.6293C9.26662 22.6209 10.1177 23.4116 11.145 23.4418C12.2866 23.4753 13.2229 22.5904 13.2229 21.4941C13.2229 20.881 12.93 20.3342 12.4722 19.977C12.2133 19.7749 12.0699 19.465 12.0699 19.1432C12.0699 18.8038 12.3135 18.5129 12.655 18.4343C13.9313 18.1404 15.055 17.4666 15.8914 16.543C16.2126 16.1884 16.7766 16.1702 17.1213 16.5036C17.282 16.659 17.3354 16.8911 17.2553 17.0968C16.8918 18.0289 17.0976 19.1211 17.8733 19.8713C18.9549 20.9171 20.7242 20.8925 21.7733 19.7975C22.7262 18.8029 22.7269 17.2418 21.7747 16.2465Z" fill="#FFE562"/>
<path d="M21.7734 19.7974C20.724 20.8923 18.9549 20.9169 17.8735 19.8712C17.0978 19.1211 16.8918 18.0287 17.2555 17.097C17.2803 17.0334 17.292 16.9672 17.292 16.9016C17.292 16.7548 17.2327 16.6111 17.1212 16.5033C16.7764 16.1704 16.2126 16.1887 15.8912 16.543C15.0549 17.4664 13.9311 18.1403 12.6548 18.434C12.4841 18.4731 12.338 18.5657 12.2344 18.6912C12.1308 18.816 12.0701 18.9736 12.0701 19.1431C12.0701 19.4652 12.2135 19.7747 12.4723 19.9771C12.9299 20.3345 13.2232 20.881 13.2232 21.4943C13.2232 22.5905 12.2865 23.4755 11.1452 23.4421C11.0233 23.4383 10.904 23.4244 10.788 23.3998V0.0305004C10.9594 0.00528668 11.136 -0.00479887 11.3166 0.00213491C12.7917 0.0563444 13.9807 1.23887 13.9983 2.66597C14.01 3.64552 13.482 4.50657 12.6835 4.98815C12.4906 5.10476 12.3374 5.26739 12.2324 5.45524C12.1268 5.64371 12.0701 5.85739 12.0701 6.07801C12.0701 6.38184 12.2885 6.64406 12.5949 6.71151C13.5283 6.917 14.3816 7.32483 15.1025 7.88521C15.2433 7.99426 15.4121 8.04784 15.5816 8.04784C15.7817 8.04784 15.9818 7.97283 16.1331 7.82659C16.4401 7.5297 16.6174 7.12691 16.6154 6.7071C16.6128 6.27468 16.7816 5.84101 17.1232 5.51134C17.8272 4.82994 18.9868 4.85704 19.655 5.59139C20.2175 6.20913 20.2273 7.15023 19.6778 7.77868C19.329 8.17643 18.8401 8.37562 18.3506 8.37562C17.923 8.37562 17.5104 8.52564 17.2079 8.81749L16.9466 9.07025C16.7125 9.29655 16.6513 9.64198 16.7973 9.92941C17.2034 10.7287 17.4315 11.6288 17.4315 12.58C17.4315 13.0565 17.3742 13.5198 17.266 13.9649C17.1982 14.2429 17.2783 14.536 17.4876 14.7383L18.217 15.4437C18.378 15.5987 18.6172 15.651 18.8297 15.5735C19.8257 15.2104 20.9977 15.4342 21.7747 16.2461C22.7271 17.242 22.7264 18.8028 21.7734 19.7974Z" fill="#FFCB26"/>
<path d="M7.29152 11.2211C7.91551 11.2211 8.42135 10.7321 8.42135 10.1288C8.42135 9.52559 7.91551 9.03656 7.29152 9.03656C6.66753 9.03656 6.16168 9.52559 6.16168 10.1288C6.16168 10.7321 6.66753 11.2211 7.29152 11.2211Z" fill="#FF7C51"/>
<path d="M14.5661 12.1606C15.1031 12.1606 15.5385 11.7399 15.5385 11.221C15.5385 10.7021 15.1031 10.2815 14.5661 10.2815C14.0291 10.2815 13.5938 10.7021 13.5938 11.221C13.5938 11.7399 14.0291 12.1606 14.5661 12.1606Z" fill="#FF4D0B"/>
<path d="M13.0819 16.5106C13.8506 16.5106 14.4739 15.9081 14.4739 15.1648C14.4739 14.4216 13.8506 13.8191 13.0819 13.8191C12.3131 13.8191 11.6898 14.4216 11.6898 15.1648C11.6898 15.9081 12.3131 16.5106 13.0819 16.5106Z" fill="#FF4D0B"/>
<path d="M8.12704 15.7388C8.58852 15.7388 8.96263 15.3773 8.96263 14.9314C8.96263 14.4855 8.58852 14.124 8.12704 14.124C7.66555 14.124 7.29144 14.4855 7.29144 14.9314C7.29144 15.3773 7.66555 15.7388 8.12704 15.7388Z" fill="#FF7C51"/>
<path d="M9.7964 13.049C10.0873 13.049 10.3231 12.8212 10.3231 12.5401C10.3231 12.259 10.0873 12.0312 9.7964 12.0312C9.50552 12.0312 9.26971 12.259 9.26971 12.5401C9.26971 12.8212 9.50552 13.049 9.7964 13.049Z" fill="#FF7C51"/>
<path d="M12.1971 9.65022C12.5736 9.65022 12.8788 9.35531 12.8788 8.99152C12.8788 8.62773 12.5736 8.33282 12.1971 8.33282C11.8206 8.33282 11.5154 8.62773 11.5154 8.99152C11.5154 9.35531 11.8206 9.65022 12.1971 9.65022Z" fill="#FF4D0B"/>
</svg>
