<svg width="14" height="24" viewBox="0 0 14 24" fill="none" xmlns="http://www.w3.org/2000/svg">
<path d="M10.1788 16.2645V19.0761H2.90819V16.2645L6.5435 15.5616L10.1788 16.2645Z" fill="#DFE5F2"/>
<path d="M10.1788 16.2645V19.0761H6.5435V15.5616L10.1788 16.2645Z" fill="#C7CDDE"/>
<path d="M5.81644 0H7.27056V6.4215H5.81644V0Z" fill="#DFE5F2"/>
<path d="M6.5435 0H7.27057V6.4215H6.5435V0Z" fill="#C7CDDE"/>
<path d="M10.1788 8.53078V14.8585L6.5435 15.5616L2.90819 14.8585V8.53078H4.36231V5.71844H8.72469V8.53078H10.1788Z" fill="#E27A4E"/>
<path d="M10.1788 8.53078V14.8585L6.5435 15.5616V5.71844H8.72469V8.53078H10.1788Z" fill="#DC455B"/>
<path d="M5.81644 15.5616H7.27056V23.2955H5.81644V15.5616Z" fill="#F1F6FF"/>
<path d="M6.5435 15.5616H7.27057V23.2955H6.5435V15.5616Z" fill="#DFE5F2"/>
<path d="M0 18.3739H13.0871V19.779H0V18.3739Z" fill="#F1F6FF"/>
<path d="M6.5435 18.3739H13.087V19.779H6.5435V18.3739Z" fill="#DFE5F2"/>
<path d="M2.90819 22.5924H10.1788V23.9975H2.90819V22.5924Z" fill="#F1F6FF"/>
<path d="M6.5435 22.5924H10.1788V23.9975H6.5435V22.5924Z" fill="#DFE5F2"/>
<path d="M2.90819 14.8585H10.1788V16.2636H2.90819V14.8585Z" fill="#F1F6FF"/>
<path d="M6.5435 14.8585H10.1788V16.2636H6.5435V14.8585Z" fill="#DFE5F2"/>
</svg>
