<svg width="32" height="32" viewBox="0 0 32 32" fill="none" xmlns="http://www.w3.org/2000/svg">
<path d="M17.8909 12.0097C18.2788 11.8691 18.8994 12.1358 19.2921 12.2618C19.5491 12.3443 19.7721 12.5188 19.966 12.7128C21.4109 13.9249 22.5454 15.6655 22.6957 17.6049C22.7539 18.3467 22.6715 19.0934 22.5842 19.8352C22.4776 20.7661 22.3709 21.697 22.1285 22.5988C21.8667 23.5637 21.4545 24.4752 21.0424 25.3818C20.703 26.1334 20.3588 26.8897 19.8788 27.554C19.6121 27.9225 19.3115 28.2521 19.006 28.5867C18.3079 29.3528 17.5903 30.1334 16.703 30.6425C15.8157 31.1515 14.7103 31.3503 13.7891 30.9091C13.2267 30.6376 12.7806 30.1528 12.3685 29.6679C10.6667 27.6849 9.18302 25.4982 7.9612 23.1612C7.67999 22.6279 7.41332 22.0849 7.21453 21.5128C6.40968 19.2243 6.76362 16.5285 8.1309 14.56C8.53332 13.9782 9.0812 13.4255 9.75999 13.3528C9.92484 13.28 11.5491 13.2218 12.6788 13.154L17.8909 12.0097Z" fill="#FF5659"/>
<path d="M12.3248 19.8255C12.1164 20.3394 11.7964 20.8 11.4036 21.1733C11.2776 21.2897 11.1467 21.4012 11.0691 21.5564C10.8848 21.9248 11.0982 22.3903 10.9624 22.7782C10.5745 22.2788 9.90545 22.1382 9.28969 22.1139C8.99878 22.1042 8.69333 22.1091 8.43151 21.9685C7.89333 21.6824 7.78666 20.9406 7.74302 20.3103C7.69939 19.6703 7.6412 18.9964 7.56363 18.3758L7.58787 18.2352C7.58787 18.2352 8.03878 15.4812 10.6957 15.3794H11.2C11.2 15.3842 11.1903 15.583 11.1709 15.6218C10.9285 16.0436 10.8509 16.5479 11.0109 17.0036C11.0933 17.2364 11.2097 17.44 11.4521 17.5661C11.6267 17.6582 11.8303 17.7115 12 17.8182C12.3054 18.0073 12.4848 18.3758 12.5188 18.7491C12.5576 19.1127 12.4654 19.4861 12.3248 19.8255Z" fill="#ED2F32"/>
<path d="M11.0497 14.0994C11.0497 14.0994 11.137 15.0594 11.2048 15.3794L11.0933 15.394C8.1212 15.1709 7.59757 18.1721 7.59757 18.1721L7.56363 18.3758C7.49575 17.7891 7.40848 17.2024 7.28727 16.6109C6.16242 15.8885 5.69211 14.5164 5.69211 14.5164C5.28969 12.9212 5.79878 11.103 6.95272 10.0218C7.90302 9.12002 9.26545 8.66911 9.92969 7.50547C10.5988 6.33214 10.2351 4.22305 9.66302 3.00123L11.2388 2.15759C11.4424 2.47759 12.097 4.08244 12.1309 4.46547L12.0921 5.36729L11.9951 7.54911L11.8061 11.9758L11.777 12.6546C11.777 12.6546 11.6024 12.9212 11.3842 13.3527C16.2812 15.6946 11.1612 13.8182 11.0497 14.0994Z" fill="#559AFF"/>
<g opacity="0.4">
<path d="M7.09818 13.0376C7.06909 13.0376 7.04 13.0327 7.01091 13.0279C6.81697 12.9794 6.69576 12.7855 6.74424 12.5867C6.94788 11.7382 7.45697 11.0012 8.13091 10.5697C8.30061 10.463 8.52364 10.5115 8.63515 10.6812C8.74182 10.8509 8.69333 11.0739 8.52364 11.1855C8.00485 11.52 7.61212 12.0921 7.45212 12.7612C7.41333 12.9261 7.26303 13.0376 7.09818 13.0376Z" fill="white"/>
</g>
<g opacity="0.4">
<path d="M7.15151 14.5455C7.0303 14.5455 6.90908 14.4824 6.8412 14.3709C6.7006 14.1382 6.6812 13.8861 6.66666 13.6824L6.65696 13.5758C6.63757 13.377 6.78302 13.1976 6.98181 13.1782C7.17575 13.154 7.35999 13.3043 7.37939 13.503L7.38908 13.6146C7.39878 13.76 7.41333 13.9006 7.46181 13.9879C7.56363 14.1624 7.5103 14.3855 7.33575 14.4873C7.27757 14.5261 7.21454 14.5455 7.15151 14.5455Z" fill="white"/>
</g>
<path d="M16.4509 5.56122H14.8509C14.72 5.6194 14.5939 5.67758 14.4727 5.74546C13.8424 6.10425 13.28 6.67637 12.7612 7.23395C12.5091 7.50546 12.2424 7.79637 12.0436 8.08728C11.3455 9.12485 11.3164 10.5939 11.9758 11.6606C12.1261 11.903 12.2036 11.9515 12.2085 11.9515C12.2618 11.9806 12.4073 12.0146 12.64 12.0533" fill="#ED2F32"/>
<path d="M11.8351 8.81942C11.7818 8.81942 11.7285 8.80972 11.68 8.78548C11.5006 8.6982 11.423 8.48002 11.5103 8.30063C11.7333 7.83517 12.0679 7.45699 12.3588 7.13699C12.6691 6.7976 12.9794 6.4679 13.3188 6.1576C13.6582 5.85214 14.0315 5.54669 14.4727 5.3382C14.7055 5.18305 14.9527 5.19275 15.1418 5.1976C15.1903 5.1976 15.2388 5.20245 15.2824 5.1976H15.9709C16.1697 5.1976 16.3345 5.36245 16.3345 5.56123C16.3345 5.76002 16.1697 5.92487 15.9709 5.92487H15.3018C15.2533 5.92972 15.1903 5.92487 15.1224 5.92487C15.0158 5.92002 14.9139 5.92002 14.8703 5.94911C14.8509 5.96366 14.8267 5.9782 14.8024 5.9879C14.4388 6.15275 14.1091 6.42427 13.8036 6.69578C13.4885 6.98669 13.1927 7.30184 12.8921 7.62669C12.5721 7.97093 12.3297 8.27154 12.1648 8.61093C12.1018 8.74669 11.9709 8.81942 11.8351 8.81942Z" fill="white"/>
<path d="M12.1891 12.2958C12.0873 12.2958 11.9854 12.2521 11.9176 12.1697C11.5588 11.7624 11.3115 11.2097 11.2 10.5697C11.1661 10.3709 11.297 10.1818 11.4957 10.1479C11.6897 10.114 11.8836 10.2449 11.9176 10.4437C12.0097 10.9527 12.1988 11.3843 12.4654 11.6897C12.5964 11.84 12.5818 12.0727 12.4315 12.2037C12.3588 12.2667 12.2715 12.2958 12.1891 12.2958Z" fill="white"/>
<path d="M14.9673 4.00003C14.9479 4.01457 14.9285 4.02912 14.9091 4.03397C14.8606 4.04366 14.8073 4.05821 14.7636 4.07275H14.7588C14.5115 4.07275 14.177 3.84972 13.9248 3.48124C13.6436 3.08851 13.5321 2.6473 13.6242 2.38063C13.6242 2.37578 13.6242 2.37578 13.6242 2.37094C13.6485 2.3176 13.6776 2.26427 13.7212 2.23033C13.9588 2.02669 14.4242 2.25942 14.7733 2.74427C15.1079 3.23881 15.2 3.79639 14.9673 4.00003Z" fill="#3A79ED"/>
<path d="M15.0933 4.27154C14.5358 4.42184 13.9976 4.62547 13.4933 4.92123C12.9794 5.21214 12.5139 5.58063 12.0776 5.9879L12.1261 4.90669C12.2764 4.73214 12.3055 4.6982 12.4461 4.51396C12.9988 3.80123 13.2994 3.13699 13.6533 2.3176C13.537 2.62305 13.6873 3.12729 14.0364 3.58305C14.337 3.99032 14.7491 4.2279 15.0933 4.27154Z" fill="#559AFF"/>
<path d="M24.3733 15.3212C24.863 15.5443 25.2606 15.6267 25.7939 15.6897C25.8618 15.6994 25.9345 15.7043 26.0024 15.68C26.1139 15.6412 26.1818 15.5249 26.2206 15.4085C26.3564 14.9964 26.2642 14.6425 26.1527 14.2255L24.7564 13.8618C25.0909 14.0073 25.537 14.1431 25.8957 14.2352C25.9588 14.2497 26.0315 14.2691 26.0945 14.2497C26.177 14.2303 26.24 14.1576 26.2885 14.0849C26.5067 13.7455 26.4776 13.2994 26.3806 12.9067C26.3612 12.8194 26.3321 12.7321 26.2788 12.6691C26.2351 12.6158 26.1721 12.5818 26.1091 12.5479C25.6436 12.3006 25.12 12.1503 24.5915 12.1115L24.3733 15.3212Z" fill="#ED2F32"/>
<path d="M22.5988 17.5903C22.4291 16.9455 22.5406 16.1358 22.6909 15.4812C22.8364 14.8315 22.8897 14.0752 22.463 13.5661C22.1139 13.1491 21.4982 13.0085 20.9794 13.183C20.6448 13.2994 20.3054 13.537 20.0679 13.8376C18.8994 12.9746 17.8909 12.9503 17.8909 12.9503C20.48 10.5843 23.7236 10.5406 23.7236 10.5406C24.3442 11.263 24.6885 12.1746 24.7467 13.183C24.8388 14.8703 23.937 16.5527 22.5988 17.5903Z" fill="#FA4955"/>
<path d="M22.686 15.4812C22.5406 16.1358 22.4242 16.9455 22.5939 17.5903C21.9054 15.6267 20.9406 14.4921 20.063 13.8376C20.2957 13.537 20.6351 13.2994 20.9745 13.1831C21.4885 13.0134 22.1091 13.1491 22.4582 13.5661C22.8897 14.0752 22.8364 14.8315 22.686 15.4812Z" fill="#ED2F32"/>
<path d="M25.9006 4.60123C25.2509 4.74668 24.097 5.12001 23.1758 6.06547L23.1661 6.05092C23.2921 6.54547 23.2388 7.06426 23.1176 7.56365C23.103 7.61698 23.0933 7.67032 23.0788 7.7188C22.9867 8.02426 22.8606 8.31032 22.6036 8.48971C22.3127 8.69335 21.9297 8.6885 21.5806 8.6788C21.023 8.65941 20.4509 8.64001 19.9224 8.48001C19.8158 8.46062 19.7139 8.42183 19.6121 8.38304C19.3551 8.27638 19.1176 8.13092 18.8606 8.0485C18.6327 7.97577 18.3903 7.94183 18.1382 7.93698C17.983 7.92244 17.823 7.92729 17.6679 7.93698C17.0473 7.96123 16.3927 8.01941 15.8351 8.30547C15.1321 8.65941 14.6327 9.34304 14.3854 10.0849C14.2012 10.6376 14.1527 11.2049 14.1479 11.7867L17.7018 12.9164C17.7018 12.9164 20.16 14.303 19.7721 14.463H19.7673C19.7382 14.4776 19.6994 14.4824 19.6412 14.4776C17.3479 14.4 17.1442 16.6352 17.1442 16.6352L16.097 15.0594L12.8679 13.5515C12.7224 13.5418 12.5673 13.5224 12.4121 13.4982C12.2085 13.4643 12.0048 13.4255 11.8109 13.3624C11.8061 13.3624 11.8061 13.3624 11.8061 13.3624C11.6897 13.3237 11.583 13.2703 11.4715 13.2121C11.1661 13.0327 10.9333 12.7418 10.7442 12.4315C9.78424 10.8897 9.82787 8.79032 10.8364 7.28244C11.0885 6.90911 11.3891 6.57456 11.6945 6.24971C11.9758 5.94911 12.2618 5.6485 12.5673 5.37214C12.9309 5.03274 13.3188 4.72729 13.7503 4.48486C14.1721 4.24244 14.623 4.07274 15.0885 3.94668H15.0933C15.1418 3.93214 15.1951 3.91759 15.2485 3.90789C15.6267 3.81577 16.0097 3.75759 16.4024 3.7188H16.3636C16.3782 2.7782 16.2764 2.25456 16.0194 1.51759C15.937 1.27517 16.0873 1.01335 16.3442 0.974559L17.0764 0.858196C17.2655 0.829105 17.4594 0.930923 17.5224 1.11032C17.8036 1.82789 17.9491 2.41456 17.9491 3.20001C17.9491 3.34062 17.9442 3.49092 17.9345 3.65092C18.08 3.65577 18.08 3.66547 18.2351 3.66547C18.5697 3.67517 18.6085 3.66547 18.9479 3.69456L19.0012 3.65577C19.0158 3.64607 19.0206 3.64123 19.0303 3.63153C19.0448 3.62183 19.0448 3.61698 19.0497 3.61698C19.743 3.04971 19.9951 2.09941 20.16 1.19274C20.1988 0.979408 20.3976 0.838802 20.6109 0.872741L22.1964 1.1491C22.4145 1.18789 22.5551 1.39153 22.5212 1.60971C22.3418 2.62304 22.1382 3.34547 21.663 4.33941H21.6533C21.8279 4.43153 21.9976 4.5382 22.1527 4.64971C23.1951 3.40365 24.6691 2.99153 25.3091 2.87032C25.4933 2.83153 25.6679 2.93335 25.7455 3.0982L26.1818 4.0388C26.2885 4.27153 26.1527 4.54304 25.9006 4.60123Z" fill="#FA4955"/>
<path d="M25.2751 7.75759V10.6424C23.1224 10.1964 20.9115 11.0594 19.0206 12.1794C18.4727 12.5043 16.9018 13.9443 16.6691 14.5358C16.4364 15.1321 16.3685 16.4703 16.0388 16.6546L15.7673 16.5915C13.3042 14.9721 12.1261 15.7867 12.1261 15.7867C12.2957 14.914 13.4351 12.3879 14.1139 11.8061C14.7879 11.2291 15.6024 10.8315 16.4364 10.5261C16.5333 10.4873 16.6351 10.4485 16.6885 10.3564C16.7273 10.2836 16.7224 10.1915 16.7127 10.1043C16.6351 9.43516 15.6121 9.1394 15.5394 8.46547C16.32 9.25092 17.4691 9.18789 17.503 8.12607C17.6097 8.54304 18.303 8.82425 18.8073 8.97456C20.7854 7.96607 23.0739 7.44728 25.2751 7.75759Z" fill="#559AFF"/>
<path d="M18.5503 16.2279C18.2351 16.4267 17.8424 16.6109 17.4594 16.6352C17.1055 16.6594 17.4836 16.6158 17.1442 16.6255C17.1442 16.6255 17.3479 14.3903 19.6412 14.4679C19.6994 14.4727 19.7382 14.463 19.7673 14.4533C20.0339 14.9382 18.8606 16.0339 18.5503 16.2279Z" fill="#ED2F32"/>
<path d="M21.6291 19.1612C21.6097 19.5442 21.5224 19.9176 21.4594 20.3491C21.4303 20.5382 21.3964 20.7273 21.3673 20.9164C21.2654 21.4836 21.1976 22.0606 21.0133 22.6036C20.8388 23.1224 20.5576 23.583 20.2861 24.0436C20.0533 24.4315 19.8206 24.8242 19.5879 25.2121C19.3745 25.5758 19.1224 25.9636 18.7394 26.0703C18.3321 26.1867 17.8861 25.9103 17.6776 25.503C17.4691 25.1006 17.4642 24.5964 17.5515 24.1406C17.6388 23.6897 17.823 23.2582 17.9733 22.8267C18.2303 22.0946 18.4145 21.3333 18.5212 20.5576C18.56 20.2909 18.5842 20.0097 18.5406 19.743C18.4873 19.4667 18.3612 19.2146 18.2351 18.9721C17.8473 18.2352 17.6436 17.4546 17.3091 16.6836C17.5903 16.6739 17.5612 16.6691 17.857 16.6497C18.1721 16.6255 18.4921 16.3733 18.7539 16.1891C19.0109 16.0097 19.9854 14.9139 19.7673 14.4679C19.7673 14.4582 19.8351 14.8606 19.8303 14.8509L19.84 14.8703C20.3297 15.7139 20.8291 16.6158 20.8388 17.6146C20.8388 17.8036 20.8194 17.9976 20.863 18.1818C20.9018 18.3661 21.0182 18.5455 21.1879 18.5794C21.1927 18.5794 21.1927 18.5842 21.1976 18.5842C21.4545 18.623 21.6388 18.8703 21.6291 19.1612Z" fill="#ED2F32"/>
<path d="M17.2315 27.8982C17.2606 28.5382 17.0327 29.2315 16.4654 29.5709C15.9079 29.9006 15.1612 29.7843 14.6036 29.4497C14.0509 29.12 13.6436 28.5964 13.2509 28.0921C12.7564 27.4618 12.2618 26.8267 11.7721 26.1964C11.2242 25.4885 10.6521 24.737 10.5454 23.8643C10.5309 23.7624 10.526 23.6558 10.5842 23.5685C10.72 23.3455 11.0739 23.4376 11.2921 23.583C11.5103 23.7285 11.7867 23.9079 12.0145 23.7818C11.9612 22.7443 11.9321 21.6243 12.5624 20.7855C12.7757 20.5043 13.057 20.257 13.183 19.9273C13.2557 19.7285 13.2654 19.5152 13.2751 19.3067C13.3042 18.5988 13.2994 17.8085 12.7854 17.2994C12.6448 17.154 12.4606 17.0279 12.4218 16.8388C12.3394 16.4752 12.286 16.1261 12.126 15.7867C12.126 15.7867 13.5757 17.5224 15.9612 16.6788C16.2521 19.7237 16.0582 23.0643 16.8097 26.0315C16.9697 26.657 17.2024 27.263 17.2315 27.8982Z" fill="#ED2F32"/>
<g opacity="0.4">
<path d="M15.7236 27.937C15.5588 27.937 15.4133 27.8255 15.3697 27.6606C15.3115 27.4279 15.2485 27.2 15.1855 26.9721C15.0545 26.497 14.9188 26.0073 14.8315 25.503C14.7055 24.8485 14.6036 24.1261 14.5261 23.3018C14.5067 23.103 14.6521 22.9237 14.8558 22.9043C15.0545 22.8897 15.2339 23.0303 15.2533 23.234C15.3309 24.034 15.4279 24.7321 15.5491 25.377C15.6267 25.8521 15.7527 26.303 15.8885 26.783C15.9515 27.0206 16.0194 27.2534 16.0776 27.4909C16.1261 27.6849 16.0097 27.8837 15.8109 27.9321C15.7818 27.9321 15.7527 27.937 15.7236 27.937Z" fill="white"/>
</g>
<g opacity="0.4">
<path d="M14.7636 21.9055C14.5697 21.9055 14.4097 21.7552 14.4 21.5564L14.3418 20.2618C14.3321 20.0631 14.4873 19.8934 14.6909 19.8837C14.8703 19.8643 15.0594 20.0291 15.0691 20.2328L15.1273 21.5273C15.137 21.7261 14.9818 21.8958 14.7782 21.9055C14.7782 21.9055 14.7733 21.9055 14.7636 21.9055Z" fill="white"/>
</g>
<path d="M15.9612 16.6788C15.9515 16.6885 15.9418 16.6933 15.9321 16.6933C13.5467 17.537 12.1261 15.7867 12.1261 15.7867C12.1261 15.7867 13.3042 14.977 15.7673 16.5915L15.7721 16.5964C15.7867 16.6061 15.8061 16.6158 15.8206 16.6303C15.8739 16.6643 15.9176 16.6788 15.9612 16.6788Z" fill="#525F70"/>
<path d="M26.08 9.19275C26.08 9.98305 25.7212 10.6473 25.2751 10.6473C24.8291 10.6473 24.4703 9.9879 24.4703 9.19275C24.4703 8.40245 24.8291 7.7576 25.2751 7.7576C25.7164 7.7576 26.08 8.3976 26.08 9.19275Z" fill="#3A79ED"/>
<path d="M11.3697 2.30304C11.5103 2.58425 11.2436 3.00122 10.7782 3.2388C10.3127 3.47152 9.81818 3.43273 9.67757 3.15152C9.53697 2.87031 9.80363 2.45334 10.2691 2.21576C10.7345 1.98304 11.2291 2.02183 11.3697 2.30304Z" fill="#3A79ED"/>
</svg>
