<svg width="32" height="32" viewBox="0 0 32 32" fill="none" xmlns="http://www.w3.org/2000/svg">
<path d="M20.8592 15.3978C20.8592 13.1233 19.0074 10.1273 17.4733 8.53497C13.6101 4.83085 6.91394 6.76472 6.91394 6.76472L3.55044 10.0528C1.99619 11.802 1.05219 14.1054 1.05219 16.6293C1.05219 20.2817 2.423 24.0409 4.89425 26.9277C7.68662 29.7521 11.1687 31.6117 15.2122 31.6117C20.6824 31.6118 20.8592 24.4649 20.8592 15.3978Z" fill="#FF4F4F"/>
<path d="M17.8783 9.30011C19.2858 10.9721 20.1543 13.067 20.1543 15.3415C20.1543 24.4087 20.4211 30.9414 14.9509 30.9414C10.9074 30.9414 7.4707 29.3489 4.8942 26.9278C7.47132 29.9382 11.2453 32 15.9126 32C21.3829 32 21.4422 25.6965 21.4422 16.6294C21.4422 14.8976 20.9388 13.2698 20.0773 11.8535C19.6476 10.8455 19.3254 9.94367 19.3254 9.94367C19.3254 9.94367 18.6891 9.5803 17.8783 9.30011Z" fill="#E70000"/>
<path d="M10.6276 25.316C8.69537 23.8049 7.1443 21.7712 6.13099 19.4554H8.00605C8.27274 19.4554 8.48893 19.2392 8.48893 18.9725C8.48893 18.7058 8.27274 18.4897 8.00605 18.4897H5.74518C5.60743 18.1085 5.4838 17.721 5.37524 17.3281C5.30424 17.0709 5.0383 16.9202 4.78118 16.9912C4.52412 17.0623 4.3733 17.3282 4.44437 17.5853C4.94512 19.3975 5.74555 21.1026 6.7893 22.616V25.2275C6.7893 25.4942 7.00549 25.7103 7.27218 25.7103C7.53887 25.7103 7.75505 25.4942 7.75505 25.2275V23.8795C8.44105 24.6907 9.2038 25.4287 10.0326 26.0768C10.1209 26.1459 10.2257 26.1793 10.3297 26.1793C10.4732 26.1793 10.6152 26.1157 10.7105 25.9939C10.8748 25.7838 10.8377 25.4803 10.6276 25.316Z" fill="#E70000"/>
<path d="M14.5873 25.6352L15.0191 28.6348C16.6742 29.0007 18.4807 28.3115 20.0618 27.3498L20.5281 23.1609C18.7592 24.2697 16.2667 25.436 14.5873 25.6352Z" fill="#E70000"/>
<path d="M23.2903 17.1662L25.5633 18.5868L32 10.9145V9.00047C32 8.79972 31.7573 8.69915 31.6153 8.84109L23.2903 17.1662Z" fill="#B9C3CD"/>
<path d="M25.2674 17.6471L27.5514 17.1662L31.7171 13.0005C31.8982 12.8194 32 12.5737 32 12.3175V10.9146L25.2674 17.6471Z" fill="#A2ABB8"/>
<path d="M23.2902 17.1662L14.6706 25.7858V26.6364C17.1434 26.739 21.6546 23.1757 21.6546 23.1757L22.4954 21.3062L25.7483 17.1662H23.2902Z" fill="#C8D2DC"/>
<path d="M25.7484 17.1662L21.965 20.9497C21.8744 21.0402 21.8236 21.163 21.8236 21.2911V21.7572C21.8026 21.9261 21.7248 22.0827 21.6024 22.2009C20.3036 23.4556 17.0351 26.2276 14.6706 26.508V27.3777C17.0177 27.9061 21.0297 24.5265 22.5038 23.1025C22.6262 22.9842 22.7041 22.8276 22.725 22.6587V21.9926L27.5514 17.1662H25.7484Z" fill="#B9C3CD"/>
<path d="M14.6555 17.6456C14.3888 17.6456 14.1726 17.4294 14.1726 17.1627V16.3295C14.1726 16.0627 14.3888 15.8466 14.6555 15.8466C14.9221 15.8466 15.1383 16.0628 15.1383 16.3295V17.1627C15.1384 17.4294 14.9222 17.6456 14.6555 17.6456Z" fill="#D00000"/>
<path d="M14.6555 20.4106C14.3888 20.4106 14.1726 20.1944 14.1726 19.9277V19.0945C14.1726 18.8277 14.3888 18.6116 14.6555 18.6116C14.9221 18.6116 15.1383 18.8278 15.1383 19.0945V19.9277C15.1384 20.1945 14.9222 20.4106 14.6555 20.4106Z" fill="#D00000"/>
<path d="M14.6555 23.1756C14.3888 23.1756 14.1726 22.9595 14.1726 22.6928V21.8595C14.1726 21.5928 14.3888 21.3766 14.6555 21.3766C14.9221 21.3766 15.1383 21.5928 15.1383 21.8595V22.6928C15.1384 22.9595 14.9222 23.1756 14.6555 23.1756Z" fill="#D00000"/>
<path d="M14.6555 28.917C14.3888 28.917 14.1726 28.7008 14.1726 28.4341V24.6245C14.1726 24.3578 14.3888 24.1417 14.6555 24.1417C14.9221 24.1417 15.1383 24.3579 15.1383 24.6245V28.4341C15.1384 28.7008 14.9222 28.917 14.6555 28.917Z" fill="#D00000"/>
<path d="M8.56919 3.6651H1.54194C0.690375 3.6651 0 4.35548 0 5.20704C0 5.2936 0.0075 5.37841 0.0211875 5.4611L8.56919 6.74898C11.5334 6.74898 13.9449 9.39335 13.9449 12.6439C13.9449 12.7304 13.9524 12.8152 13.9661 12.8979L16 13.648C16 13.648 17.6248 6.43673 8.56919 3.6651Z" fill="#BAE6EF"/>
<path d="M0.0211792 5.46115C0.142367 6.19178 0.776929 6.74903 1.54193 6.74903H8.56918L9.22424 5.46115H0.0211792Z" fill="#94D8E6"/>
<path d="M8.56918 3.6651L9.22425 5.46116C13.0084 5.46116 15.7409 8.52779 15.7409 12.313V12.4151C15.7409 12.6818 15.5247 12.898 15.2581 12.898H13.9661C14.0899 13.6444 14.7494 14.2098 15.5364 14.185C16.3809 14.1585 17.0332 13.4367 17.0286 12.5919C17.0022 7.66473 13.2175 3.6651 8.56918 3.6651Z" fill="#94D8E6"/>
<path d="M11.6979 6.05798C13.3558 6.05373 17.5983 8.20548 17.5983 8.20548L17.8956 6.59354C17.2494 5.84291 16.485 5.20854 15.634 4.72448L16.3126 0.900727C15.827 0.679977 15.2544 0.894289 15.0335 1.37985L13.8531 3.97423C13.452 3.85935 13.0392 3.7751 12.617 3.72398L11.6979 0.00110161C11.1433 -0.0250234 10.6854 0.416914 10.6854 0.965789V3.72398C10.2632 3.7751 9.85049 3.85935 9.44936 3.97423L6.94755 0.921164C6.48505 1.1586 6.30674 1.73123 6.52199 2.20441L7.66849 4.72435C5.02124 6.23023 3.21174 9.18748 3.19186 12.5872C3.19136 12.6707 3.19749 12.753 3.20936 12.8335L4.89424 13.8146C4.89692 13.7399 5.77774 6.0731 11.6979 6.05798Z" fill="#D00000"/>
<path d="M17.8956 6.59347L17.6022 6.88684C17.2688 7.22028 16.7443 7.26303 16.3596 6.9904C15.0359 6.05215 13.3934 5.50009 11.7355 5.50009C7.61995 5.50009 5.31107 8.19709 4.76545 12.4702C4.76532 12.4709 4.76526 12.4717 4.76513 12.4725C4.73907 12.6785 4.56451 12.8335 4.35682 12.8335H3.20932C3.31832 13.5743 3.93007 14.1679 4.69763 14.1854C5.5657 14.2052 6.27557 13.5074 6.27557 12.6438C6.27557 9.5389 8.47601 6.9869 11.2567 6.76472C11.4917 6.7459 11.7282 6.7519 11.9628 6.77522C15.3173 7.10915 18.3879 9.0714 20.0783 11.853C19.9116 9.83565 19.1134 8.0079 17.8956 6.59347Z" fill="#EF0000"/>
<path d="M15.6339 4.72442L16.7917 2.17973C17.0126 1.69417 16.7981 1.12154 16.3126 0.900665L14.9784 3.9556C14.8883 4.16192 14.9794 4.40204 15.1836 4.4971C15.3457 4.57254 15.5239 4.65929 15.6339 4.72442Z" fill="#EF0000"/>
<path d="M12.617 3.72397V0.993036C12.617 0.473036 12.2174 0.0255361 11.6979 0.00109863V3.26916C11.6979 3.48872 11.8691 3.66972 12.0883 3.68272C12.2394 3.69166 12.4227 3.70485 12.617 3.72397Z" fill="#EF0000"/>
<path d="M9.44938 3.97424L8.26901 1.3798C8.04157 0.880047 7.44157 0.66761 6.94763 0.921172L8.35444 3.94192C8.44419 4.13461 8.66501 4.22836 8.86569 4.15836C9.05051 4.09392 9.27438 4.01986 9.44938 3.97424Z" fill="#EF0000"/>
</svg>
