<svg width="32" height="32" viewBox="0 0 32 32" fill="none" xmlns="http://www.w3.org/2000/svg">
<g clip-path="url(#clip0_686_3379)">
<path d="M19.8205 0.0204312C18.5864 0.0204312 17.4798 0.564878 16.7279 1.42639C16.3397 1.87122 15.6493 1.87122 15.2612 1.42639C14.5093 0.564878 13.4026 0.0204312 12.1686 0.0204312C9.7908 0.0140649 8.07863 2.04131 8.07863 4.42718H8.07794C8.07794 4.44304 8.07869 4.45876 8.07875 4.47456C8.09223 6.31455 8.88846 7.97573 9.97161 9.38737C11.7094 11.6522 14.1845 13.2748 15.347 13.9616C15.7536 14.2018 16.2579 14.2051 16.6675 13.9703C17.836 13.3007 20.2854 11.7089 22.0138 9.38737C23.0486 7.99763 23.8241 6.3462 23.9127 4.47456C23.9183 4.35634 23.9221 4.23757 23.9221 4.11767C23.9221 1.85481 22.0857 0.0204312 19.8205 0.0204312Z" fill="#FF405C"/>
<path d="M29.9557 2.63006C28.8689 2.65808 28.0166 3.57876 28.0166 4.66591V13.5548C28.0166 14.1848 27.7253 14.7794 27.2275 15.1655L16.1429 23.7623C16.0588 23.8275 15.9412 23.8275 15.8571 23.7623L4.7725 15.1654C4.27468 14.7793 3.98339 14.1848 3.98339 13.5547V4.597C3.98339 3.47952 3.06314 2.577 1.93911 2.60596C0.85234 2.63399 0 3.55467 0 4.64188V14.3673C0 15.8115 0.410316 17.2261 1.18308 18.4463L6.58872 26.9809C6.91802 27.5008 7.09284 28.1036 7.09284 28.719V29.7127C7.09284 30.4538 7.69359 31.0545 8.4347 31.0545H23.3764C24.2218 31.0545 24.9072 30.3692 24.9072 29.5238V28.7189C24.9072 28.1035 25.082 27.5008 25.4113 26.9808L30.8169 18.4462C31.5897 17.2261 32 15.8115 32 14.3672V4.62103C32 3.50362 31.0798 2.6011 29.9557 2.63006Z" fill="#FFBB9F"/>
<path d="M29.9557 2.63001C28.8689 2.65803 28.0166 3.57872 28.0166 4.66592V13.5548C28.0166 14.1848 27.7253 14.7794 27.2275 15.1655L16.143 23.7623C16.1009 23.7949 16.0505 23.8112 16 23.8112V31.0435L23.3764 31.0546C24.2218 31.0546 24.9072 30.3692 24.9072 29.5238V28.7189C24.9072 28.1035 25.082 27.5008 25.4113 26.9809L30.8169 18.4463C31.5897 17.2261 32 15.8116 32 14.3673V4.62105C32 3.50363 31.0798 2.60111 29.9557 2.63001Z" fill="#FFA27E"/>
<path d="M27.4832 12.8704C26.7646 12.1279 25.5995 12.1279 24.8808 12.8704L17.0754 20.3718C16.4096 21.0598 16 22.5751 16 23.6249L14.9342 24.4341L16 28.3605H16.0483C17.8218 28.3605 19.4733 27.4576 20.4306 25.9647L20.4425 25.9461C21.021 25.0437 21.4335 24.0442 21.65 22.9945C21.8895 21.8333 22.4544 20.7543 23.2909 19.8901L27.4832 15.5589C28.2017 14.8165 28.2017 13.6128 27.4832 12.8704Z" fill="#FFBB9F"/>
<path d="M14.9246 20.3718L7.11919 12.8704C6.40061 12.1279 5.23551 12.1279 4.51686 12.8704C3.79821 13.6128 3.79821 14.8165 4.51686 15.5589L8.70909 19.8901C9.52024 20.7281 10.0759 21.7679 10.3273 22.8888C10.5744 23.9908 11.0012 25.0447 11.6291 25.9834L11.6731 26.0491C12.6392 27.4935 14.2623 28.3605 16 28.3605V23.0624C16 22.0126 15.5904 21.0598 14.9246 20.3718Z" fill="#FFD2C2"/>
<path d="M27.8332 31.9797H4.16682C3.57064 31.9797 3.08736 31.4964 3.08736 30.9002C3.08736 30.304 3.57064 29.8207 4.16682 29.8207H27.8331C28.4293 29.8207 28.9126 30.304 28.9126 30.9002C28.9126 31.4964 28.4293 31.9797 27.8332 31.9797Z" fill="#00DDC1"/>
<path d="M27.8332 29.8207H16V31.9797H27.8332C28.4294 31.9797 28.9126 31.4964 28.9126 30.9002C28.9126 30.3041 28.4293 29.8207 27.8332 29.8207Z" fill="#00B4BC"/>
<path d="M19.8205 0.0203552C18.5864 0.0203552 17.4798 0.564801 16.7279 1.42632C16.5351 1.6472 16.2678 1.75818 16 1.75961V14.1437C16.2301 14.1463 16.4608 14.0886 16.6674 13.9702C17.836 13.3006 20.2853 11.7088 22.0138 9.38729C23.0485 7.99756 23.8241 6.34612 23.9126 4.47448C23.9183 4.35627 23.922 4.23749 23.922 4.11759C23.9221 1.8548 22.0857 0.0203552 19.8205 0.0203552Z" fill="#E20059"/>
<path d="M17.7809 6.07953H17.0027V5.30134C17.0027 4.7476 16.5537 4.29865 16 4.29865C15.4462 4.29865 14.9973 4.7476 14.9973 5.30134V6.07953H14.2191C13.6654 6.07953 13.2164 6.52848 13.2164 7.08223C13.2164 7.63598 13.6654 8.08493 14.2191 8.08493H14.9973V8.86306C14.9973 9.4168 15.4462 9.86575 16 9.86575C16.5537 9.86575 17.0027 9.4168 17.0027 8.86306V8.08493H17.7809C18.3346 8.08493 18.7836 7.63598 18.7836 7.08223C18.7836 6.52848 18.3346 6.07953 17.7809 6.07953Z" fill="white"/>
<path d="M17.0027 8.86306V8.08493H17.7809C18.3346 8.08493 18.7836 7.63598 18.7836 7.08223C18.7836 6.52848 18.3346 6.07953 17.7809 6.07953H17.0027V5.30134C17.0027 4.7476 16.5537 4.29865 16 4.29865V9.86569C16.5538 9.86569 17.0027 9.4168 17.0027 8.86306Z" fill="#ECEAE7"/>
</g>
<defs>
<clipPath id="clip0_686_3379">
<rect width="32" height="32" fill="white"/>
</clipPath>
</defs>
</svg>
