<svg width="34" height="24" viewBox="0 0 34 24" fill="none" xmlns="http://www.w3.org/2000/svg">
<path d="M33.3704 11.686C33.3704 11.686 33.3704 11.686 33.3704 11.686C33.3234 12.2057 32.8811 12.6169 32.0218 12.9369C31.79 13.0233 31.5282 12.9234 31.4174 12.7083C31.4155 12.7046 31.4135 12.7009 31.4116 12.6972C31.2836 12.4494 31.4074 12.1505 31.675 12.0519C32.2166 11.8524 32.3898 11.6758 32.3963 11.6035C32.4105 11.4464 31.7382 10.6721 28.1894 9.75497C25.2039 8.98349 21.1923 8.35831 16.8936 7.99467C14.363 7.78054 11.914 7.67244 9.69962 7.67244C8.15241 7.67244 6.7196 7.7252 5.45333 7.83154C1.7937 8.13883 0.992526 8.78846 0.978381 8.94567C0.974014 8.99389 1.03431 9.10029 1.22263 9.25107C1.57416 9.53264 1.36877 10.0855 0.912154 10.0855C0.799321 10.0855 0.688899 10.0486 0.60253 9.97842C0.165601 9.62379 -0.0311895 9.2551 0.00427067 8.86328C0.0574609 8.27517 0.61661 7.82612 1.71353 7.49065C2.59299 7.22168 3.82282 7.01947 5.36872 6.88968C8.50225 6.62657 12.6254 6.68456 16.9788 7.05281C21.3324 7.42112 25.4033 8.05638 28.4419 8.84166C29.941 9.22907 31.1158 9.6347 31.9336 10.0473C32.9536 10.5618 33.4235 11.0978 33.3704 11.686Z" fill="#232E7A"/>
<path d="M26.6907 11.0384L22.344 22.0722C21.9779 23.0015 20.814 23.3613 19.9583 22.8096C19.571 22.5599 19.3151 22.1595 19.2574 21.7128L18.8423 18.5013C18.8423 18.5013 18.7908 16.8778 18.1202 15.6299C17.5115 14.4971 15.8394 14.4855 15.2545 15.6299C14.7106 16.694 14.5444 18.4092 14.5444 18.4092L14.1173 21.7128C14.0596 22.1595 13.8037 22.5599 13.4163 22.8096C12.5607 23.3612 11.3968 23.0014 11.0307 22.0722L6.68401 11.0383C6.01958 9.35177 5.90603 7.50871 6.35874 5.75781L7.21995 2.42663C7.62207 0.871198 9.2385 -0.0861679 10.8541 0.274388L12.4695 0.634882C13.0946 0.774377 13.7473 0.711532 14.338 0.469543C15.8661 -0.156514 17.5087 -0.156514 19.0368 0.469543C19.6275 0.711532 20.2802 0.774377 20.9053 0.634882L22.5207 0.274388C24.1363 -0.0861049 25.7528 0.871198 26.1549 2.42663L27.0161 5.75781C27.4686 7.50878 27.355 9.35177 26.6907 11.0384Z" fill="#ECECF1"/>
<path d="M13.6584 22.0721C13.7064 22.194 13.7681 22.3061 13.8411 22.4075C13.7279 22.5642 13.5845 22.7012 13.4163 22.8096C12.5606 23.3612 11.3967 23.0014 11.0307 22.0721L6.68394 11.0383C6.01952 9.35175 5.90597 7.50868 6.35868 5.75778L7.21989 2.4266C7.62201 0.871169 9.23844 -0.0861963 10.854 0.27436L11.5935 0.439384C10.7531 0.790612 10.0864 1.50321 9.84765 2.4266L8.98644 5.75778C8.5338 7.50868 8.64735 9.35175 9.31171 11.0383L13.6584 22.0721ZM21.2847 21.7128L20.8696 18.5014C20.8696 18.5014 20.8181 16.8778 20.1476 15.6299C19.7464 14.8833 17.8253 14.5626 16.7029 14.7762C17.262 14.7857 17.8202 15.0717 18.1202 15.6299C18.7908 16.8778 18.8422 18.5014 18.8422 18.5014L19.2573 21.7128C19.315 22.1596 19.5709 22.5599 19.9583 22.8096C20.5697 23.2038 21.3385 23.1326 21.8611 22.7208L21.8612 22.7207C21.5438 22.4701 21.336 22.1098 21.2847 21.7128Z" fill="#D3D3D8"/>
<path d="M13.6887 11.2008V13.3827C13.6887 13.7843 13.3519 14.11 12.9366 14.11H10.6802V16.2919C10.6802 16.6936 10.3435 17.0192 9.92813 17.0192H7.67178C7.25643 17.0192 6.91969 16.6936 6.91969 16.2919V14.11H4.66315C4.24779 14.11 3.91105 13.7843 3.91105 13.3827V11.2008C3.91105 10.799 4.24779 10.4734 4.66315 10.4734H6.91949V8.29147C6.91949 7.88975 7.25623 7.56418 7.67159 7.56418H9.92793C10.3433 7.56418 10.68 7.88981 10.68 8.29147V10.4734H12.9364C13.3519 10.4735 13.6887 10.7991 13.6887 11.2008ZM33.3701 11.6861C33.3169 12.2742 32.7579 12.7232 31.6609 13.0586C30.7815 13.3276 29.5517 13.5298 28.0057 13.6596C26.7131 13.7681 25.2516 13.822 23.6753 13.822C21.4307 13.822 18.9531 13.7128 16.3956 13.4964C15.8513 13.4503 15.3113 13.4001 14.7772 13.3459C14.5287 13.3207 14.3406 13.1174 14.3406 12.8758C14.3406 12.5954 14.5913 12.3765 14.8796 12.4057C15.4079 12.4593 15.9421 12.509 16.4809 12.5545C20.7796 12.9183 24.8424 12.9761 27.9212 12.7177C31.5808 12.4104 32.382 11.7608 32.3962 11.6035C32.4197 11.3435 32.6562 11.1515 32.9258 11.1738C33.1947 11.1967 33.3937 11.4259 33.3701 11.6861ZM2.94379 10.1096C1.33035 9.51288 0.967603 9.06156 0.978098 8.9457C1.00163 8.68562 0.802687 8.45637 0.533673 8.43355C0.26518 8.41105 0.0275838 8.60317 0.00405235 8.86325C-0.0491378 9.45136 0.420839 9.98741 1.44084 10.502C1.76956 10.6679 2.15591 10.8326 2.59786 10.9954C2.91713 11.113 3.25941 10.8834 3.25941 10.553V10.5515C3.25941 10.3552 3.13347 10.1797 2.94379 10.1096Z" fill="#3D4EC6"/>
</svg>
