<svg width="32" height="32" viewBox="0 0 32 32" fill="none" xmlns="http://www.w3.org/2000/svg">
<g clip-path="url(#clip0_686_3406)">
<path d="M25.4897 27.3252C22.6996 26.3542 23.7793 22.0999 24.2273 17.5945C21.1282 17.963 18.0646 16.6695 16.1673 14.1914C14.27 11.7134 13.8206 8.41839 14.9848 5.52275C12.8912 5.545 10.8311 6.05106 8.96551 7.00137C8.77958 6.98482 8.49544 6.99034 8.39724 6.99034C6.78068 7.02344 2.18482 7.60827 1.6331 13.3352C1.08468 19.0521 4.12634 26.048 0.451305 27.3258C0.366514 27.356 0.301813 27.4257 0.277968 27.5125C0.254124 27.5994 0.274136 27.6923 0.33158 27.7616C1.01793 28.5661 1.99834 30.0353 6.98482 30.6759C7.7793 30.7807 8.5793 30.8414 9.3793 30.869V30.8965C9.38112 31.5052 9.87409 31.9982 10.4828 32H15.4483C15.7455 31.9992 16.0299 31.8789 16.2374 31.6661C16.445 31.4534 16.5582 31.1661 16.5517 30.869C17.3572 30.8414 18.1572 30.7807 18.9572 30.6759C23.9432 30.0353 24.9241 28.5661 25.6099 27.7616C25.6676 27.6922 25.6877 27.599 25.6637 27.512C25.6397 27.4251 25.5747 27.3553 25.4897 27.3252Z" fill="#A56A43"/>
<path d="M16.5517 26.1407V30.8965C16.5499 31.5052 16.0569 31.9982 15.4483 32H10.4828C9.87409 31.9982 9.38112 31.5052 9.3793 30.8965V26.1572C11.3981 28.0497 14.5416 28.0424 16.5517 26.1407Z" fill="#F9C795"/>
<path d="M6.82482 21.5448C6.16275 21.4455 4.41379 20.9214 4.41379 18.1848C4.41379 15.5145 5.74344 16.2152 6.3062 16.629C6.27014 18.2829 6.44441 19.9348 6.82482 21.5448Z" fill="#F9C795"/>
<path d="M19.6193 16.9103C19.5741 19.2828 19.3639 21.4345 18.3779 23.531C17.3126 25.8367 15.5459 27.5641 12.9655 27.5641C10.3652 27.5641 8.63945 25.8737 7.53655 23.531C6.5269 21.3429 6.33545 19.0494 6.30621 16.629C6.25103 14.1639 6.50372 11.4306 8.46345 9.93103C8.83862 10.88 9.96414 12.6897 12.9655 12.6897C13.8869 12.6897 14.6317 12.6952 15.2552 12.7283C16.1718 14.5929 17.7174 16.0739 19.6193 16.9103Z" fill="#FDD7AD"/>
<path d="M21.5172 18.1848C21.5172 20.9214 19.7683 21.4455 19.1062 21.5448C19.4669 20.0269 19.6392 18.4704 19.6193 16.9103C20.2158 17.1728 20.8393 17.369 21.4786 17.4952C21.507 17.7239 21.5199 17.9543 21.5172 18.1848Z" fill="#F9C795"/>
<path d="M16 20.4138C16.3047 20.4138 16.5517 20.1668 16.5517 19.8621C16.5517 19.5573 16.3047 19.3103 16 19.3103C15.6953 19.3103 15.4483 19.5573 15.4483 19.8621C15.4483 20.1668 15.6953 20.4138 16 20.4138Z" fill="#FB7B76"/>
<path d="M14.8965 22.0689C15.2013 22.0689 15.4483 21.8219 15.4483 21.5172C15.4483 21.2125 15.2013 20.9655 14.8965 20.9655C14.5918 20.9655 14.3448 21.2125 14.3448 21.5172C14.3448 21.8219 14.5918 22.0689 14.8965 22.0689Z" fill="#FB7B76"/>
<path d="M17.1034 22.0689C17.4081 22.0689 17.6552 21.8219 17.6552 21.5172C17.6552 21.2125 17.4081 20.9655 17.1034 20.9655C16.7987 20.9655 16.5517 21.2125 16.5517 21.5172C16.5517 21.8219 16.7987 22.0689 17.1034 22.0689Z" fill="#FB7B76"/>
<path d="M9.93103 20.4138C10.2357 20.4138 10.4828 20.1668 10.4828 19.8621C10.4828 19.5573 10.2357 19.3103 9.93103 19.3103C9.62632 19.3103 9.3793 19.5573 9.3793 19.8621C9.3793 20.1668 9.62632 20.4138 9.93103 20.4138Z" fill="#FB7B76"/>
<path d="M8.82757 22.0689C9.13228 22.0689 9.3793 21.8219 9.3793 21.5172C9.3793 21.2125 9.13228 20.9655 8.82757 20.9655C8.52286 20.9655 8.27585 21.2125 8.27585 21.5172C8.27585 21.8219 8.52286 22.0689 8.82757 22.0689Z" fill="#FB7B76"/>
<path d="M11.0345 22.0689C11.3392 22.0689 11.5862 21.8219 11.5862 21.5172C11.5862 21.2125 11.3392 20.9655 11.0345 20.9655C10.7298 20.9655 10.4827 21.2125 10.4827 21.5172C10.4827 21.8219 10.7298 22.0689 11.0345 22.0689Z" fill="#FB7B76"/>
<path d="M13.7931 18.7586C13.57 18.7586 13.3689 18.6241 13.2835 18.418C13.1981 18.2119 13.2453 17.9746 13.403 17.8168L16.5368 14.683C16.7533 14.4739 17.0974 14.4769 17.3102 14.6897C17.5231 14.9026 17.526 15.2467 17.317 15.4632L14.1832 18.597C14.0797 18.7004 13.9394 18.7586 13.7931 18.7586Z" fill="#2980BA"/>
<path d="M23.1724 -2.88599e-05C19.5733 -0.00222805 16.3344 2.18399 14.9903 5.52273H14.9848C13.5319 9.12132 14.5997 13.2467 17.616 15.6886C20.6322 18.1305 24.8896 18.3161 28.1069 16.1459C31.3242 13.9757 32.7468 9.95886 31.6126 6.2475C30.4783 2.53614 27.0532 0.000835008 23.1724 -2.88599e-05Z" fill="#3B97D3"/>
<path d="M29.5834 7.17241H28.0386C27.7154 7.17564 27.4077 7.03393 27.2 6.78621C25.2491 4.36248 21.1018 4.35476 19.1448 6.78621C18.9371 7.03393 18.6294 7.17564 18.3062 7.17241H16.7614C17.5153 4.24816 20.1525 2.20465 23.1724 2.20465C26.1923 2.20465 28.8295 4.24816 29.5834 7.17241Z" fill="#FDD7AD"/>
<path d="M29.771 9.37931H28.16C27.1398 9.40641 26.1621 8.97031 25.5007 8.1931C24.901 7.54297 24.0569 7.17318 23.1724 7.17318C22.288 7.17318 21.4438 7.54297 20.8441 8.1931C20.1827 8.97031 19.205 9.40641 18.1848 9.37931H16.5738C16.513 8.63836 16.5764 7.89247 16.7614 7.17241H18.3062C18.6295 7.17564 18.9372 7.03393 19.1448 6.78621C21.0957 4.36248 25.243 4.35476 27.2 6.78621C27.4077 7.03393 27.7154 7.17564 28.0386 7.17241H29.5834C29.7687 7.89242 29.8321 8.63836 29.771 9.37931Z" fill="#F9C795"/>
<path d="M29.771 9.3793C29.4898 12.8149 26.6195 15.4599 23.1724 15.4599C19.7253 15.4599 16.855 12.8149 16.5738 9.3793H18.1848C19.205 9.4064 20.1827 8.97031 20.8441 8.1931C21.4438 7.54297 22.288 7.17317 23.1724 7.17317C24.0569 7.17317 24.901 7.54297 25.5007 8.1931C26.1621 8.97031 27.1398 9.4064 28.16 9.3793H29.771Z" fill="#FB7B76"/>
<path d="M21.5172 10.7586C21.6637 9.95961 22.3601 9.3793 23.1724 9.3793C23.9847 9.3793 24.6811 9.95961 24.8276 10.7586C24.8276 11.2154 24.0866 11.5862 23.1724 11.5862C22.2582 11.5862 21.5172 11.2154 21.5172 10.7586Z" fill="#F5EFCA"/>
<path d="M23.1724 16C19.2112 16 16 12.7888 16 8.82758C16 4.86637 19.2112 1.65517 23.1724 1.65517C27.1336 1.65517 30.3448 4.86637 30.3448 8.82758C30.3403 12.7869 27.1317 15.9954 23.1724 16ZM23.1724 2.75861C19.8206 2.75861 17.1034 5.47578 17.1034 8.82758C17.1034 12.1794 19.8206 14.8965 23.1724 14.8965C26.5242 14.8965 29.2414 12.1794 29.2414 8.82758C29.2374 5.47742 26.5226 2.76257 23.1724 2.75861Z" fill="#285680"/>
</g>
<defs>
<clipPath id="clip0_686_3406">
<rect width="32" height="32" fill="white"/>
</clipPath>
</defs>
</svg>
