<svg width="32" height="32" viewBox="0 0 32 32" fill="none" xmlns="http://www.w3.org/2000/svg">
<g clip-path="url(#clip0_772_1717)">
<path fill-rule="evenodd" clip-rule="evenodd" d="M4.33895 2H27.6583C28.066 2 28.4541 2.1851 28.7422 2.51421C29.0303 2.84332 29.1923 3.28663 29.1923 3.75239V17.3372C29.1923 17.803 29.0303 18.2463 28.7422 18.5754C28.4541 18.9045 28.066 19.0896 27.6583 19.0896H4.33895C3.93121 19.0896 3.54316 18.9045 3.25505 18.5754C2.96694 18.2463 2.8049 17.803 2.8049 17.3372V3.75239C2.8049 3.28663 2.96694 2.84332 3.25505 2.51421C3.54316 2.1851 3.93122 2 4.33895 2Z" fill="#64B5F6"/>
<path d="M4.33895 2.32854H27.6583C28.0014 2.32854 28.3131 2.48863 28.5388 2.74651C28.7646 3.00442 28.9047 3.36046 28.9047 3.75237V17.3372C28.9047 17.7291 28.7646 18.0852 28.5388 18.3431C28.3131 18.601 28.0014 18.7611 27.6583 18.7611H4.33895C3.99586 18.7611 3.68418 18.601 3.45842 18.3431C3.23264 18.0852 3.0925 17.7291 3.0925 17.3372V3.75237C3.0925 3.36046 3.23264 3.00442 3.45842 2.74651C3.68418 2.48863 3.99586 2.32854 4.33895 2.32854Z" fill="#FFFFFE"/>
<path fill-rule="evenodd" clip-rule="evenodd" d="M3.74756 3.04355H28.2497V18.046H3.74756V3.04355Z" fill="#37474F"/>
<path d="M3.74754 3.03812H28.2497L28.2546 18.0461L3.74754 18.0517V3.03812ZM28.2448 3.04926H3.75237V18.0407H28.2448V3.04926Z" fill="#8D6E63"/>
<path d="M3.66943 18.1314V18.0458V16.1704V14.2951V12.4199V10.5446V8.66926V6.79395V4.91863V3.04331V2.95771H3.82569V3.04331V4.91863V6.79395V8.66926V10.5446V12.4199V14.2951V16.1704V18.0458V18.1314H3.66943Z" fill="#8D6E63"/>
<path d="M6.73227 18.1313V18.0457V16.1704V14.2951V12.4199V10.5445V8.66923V6.79392V4.9186V3.04328V2.95768H6.88845V3.04328V4.9186V6.79392V8.66923V10.5445V12.4199V14.2951V16.1704V18.0457V18.1313H6.73227Z" fill="#8D6E63"/>
<path d="M9.79501 18.1313V18.0457V16.1704V14.2951V12.4199V10.5445V8.66923V6.79392V4.9186V3.04328V2.95768H9.95119V3.04328V4.9186V6.79392V8.66923V10.5445V12.4199V14.2951V16.1704V18.0457V18.1313H9.79501Z" fill="#8D6E63"/>
<path d="M12.8577 18.1313V18.0457V16.1704V14.2951V12.4199V10.5445V8.66923V6.79392V4.9186V3.04328V2.95768H13.0139V3.04328V4.9186V6.79392V8.66923V10.5445V12.4199V14.2951V16.1704V18.0457V18.1313H12.8577Z" fill="#8D6E63"/>
<path d="M15.9205 18.1313V18.0457V16.1704V14.2951V12.4199V10.5445V8.66923V6.79392V4.9186V3.04328V2.95768H16.0767V3.04328V4.9186V6.79392V8.66923V10.5445V12.4199V14.2951V16.1704V18.0457V18.1313H15.9205Z" fill="#8D6E63"/>
<path d="M18.9832 18.1313V18.0457V16.1704V14.2951V12.4199V10.5445V8.66923V6.79392V4.9186V3.04328V2.95768H19.1395V3.04328V4.9186V6.79392V8.66923V10.5445V12.4199V14.2951V16.1704V18.0457V18.1313H18.9832Z" fill="#8D6E63"/>
<path d="M22.0461 18.1313V18.0457V16.1704V14.2951V12.4199V10.5445V8.66923V6.79392V4.9186V3.04328V2.95768H22.2023V3.04328V4.9186V6.79392V8.66923V10.5445V12.4199V14.2951V16.1704V18.0457V18.1313H22.0461Z" fill="#8D6E63"/>
<path d="M25.1088 18.1313V18.0457V16.1704V14.2951V12.4199V10.5445V8.66923V6.79392V4.9186V3.04328V2.95768H25.2651V3.04328V4.9186V6.79392V8.66923V10.5445V12.4199V14.2951V16.1704V18.0457V18.1313H25.1088Z" fill="#8D6E63"/>
<path d="M28.1716 18.1313V18.0457V16.1704V14.2951V12.4199V10.5445V8.66923V6.79392V4.9186V3.04328V2.95768H28.3279V3.04328V4.9186V6.79392V8.66923V10.5445V12.4199V14.2951V16.1704V18.0457V18.1313H28.1716Z" fill="#8D6E63"/>
<path d="M3.67245 17.957H3.74731H6.81006H9.87289H12.9356H15.9984H19.0611H22.1239H25.1867H28.2495H28.3244V18.1354H28.2495H25.1867H22.1239H19.0611H15.9984H12.9356H9.87289H6.81006H3.74731H3.67245V17.957Z" fill="#8D6E63"/>
<path d="M3.67245 16.0816H3.74731H6.81006H9.87289H12.9356H15.9984H19.0611H22.1239H25.1867H28.2495H28.3244V16.26H28.2495H25.1867H22.1239H19.0611H15.9984H12.9356H9.87289H6.81006H3.74731H3.67245V16.0816Z" fill="#8D6E63"/>
<path d="M3.67245 14.2062H3.74731H6.81006H9.87289H12.9356H15.9984H19.0611H22.1239H25.1867H28.2495H28.3244V14.3846H28.2495H25.1867H22.1239H19.0611H15.9984H12.9356H9.87289H6.81006H3.74731H3.67245V14.2062Z" fill="#8D6E63"/>
<path d="M3.67245 12.3308H3.74731H6.81006H9.87289H12.9356H15.9984H19.0611H22.1239H25.1867H28.2495H28.3244V12.5092H28.2495H25.1867H22.1239H19.0611H15.9984H12.9356H9.87289H6.81006H3.74731H3.67245V12.3308Z" fill="#8D6E63"/>
<path d="M3.67245 10.4554H3.74731H6.81006H9.87289H12.9356H15.9984H19.0611H22.1239H25.1867H28.2495H28.3244V10.6338H28.2495H25.1867H22.1239H19.0611H15.9984H12.9356H9.87289H6.81006H3.74731H3.67245V10.4554Z" fill="#8D6E63"/>
<path d="M3.67245 8.58054H3.74731H6.81006H9.87289H12.9356H15.9984H19.0611H22.1239H25.1867H28.2495H28.3244V8.75894H28.2495H25.1867H22.1239H19.0611H15.9984H12.9356H9.87289H6.81006H3.74731H3.67245V8.58054Z" fill="#8D6E63"/>
<path d="M3.67245 6.70515H3.74731H6.81006H9.87289H12.9356H15.9984H19.0611H22.1239H25.1867H28.2495H28.3244V6.88356H28.2495H25.1867H22.1239H19.0611H15.9984H12.9356H9.87289H6.81006H3.74731H3.67245V6.70515Z" fill="#8D6E63"/>
<path d="M3.67245 4.82978H3.74731H6.81006H9.87289H12.9356H15.9984H19.0611H22.1239H25.1867H28.2495H28.3244V5.00827H28.2495H25.1867H22.1239H19.0611H15.9984H12.9356H9.87289H6.81006H3.74731H3.67245V4.82978Z" fill="#8D6E63"/>
<path d="M3.6727 2.95441H3.74756H6.8103H9.87313H12.9359H15.9986H19.0614H22.1241H25.187H28.2497H28.3246V3.13291H28.2497H25.187H22.1241H19.0614H15.9986H12.9359H9.87313H6.8103H3.74756H3.6727V2.95441Z" fill="#8D6E63"/>
<path d="M7.71594 9.57683L9.39071 7.41403L9.51533 7.25214C9.65508 7.07156 9.96599 7.00946 10.2081 7.11369C10.3458 7.17296 10.4307 7.27521 10.4569 7.3903L11.9775 14.0795L14.9244 4.80654L14.9853 4.61452C15.0496 4.41224 15.3245 4.28582 15.5958 4.33372C15.794 4.36871 15.9361 4.4884 15.9779 4.63487L17.4906 9.93618L19.2886 7.19125L19.3963 7.02653C19.3982 7.02355 19.4002 7.02061 19.4023 7.0177C19.5264 6.82807 19.8076 6.75548 20.0746 6.85269C20.2075 6.90111 20.2997 6.98959 20.3416 7.09434L21.9203 11.0409L22.1502 10.4738L22.2212 10.2984C22.2203 10.3005 22.2221 10.2963 22.2212 10.2984C22.3038 10.0949 22.5643 9.98074 22.8534 10.0459C22.9124 10.0591 22.961 10.08 23.0112 10.1058L23.5598 10.387L24.2781 9.65403L24.4231 9.50542C24.5187 9.40777 24.6707 9.35038 24.8326 9.35038H28.0516C28.0981 9.35038 28.1431 9.35505 28.1858 9.36377V10.0933C28.1431 10.102 28.0981 10.1067 28.0516 10.1067H25.0894L24.1013 11.1148C24.1029 11.1131 24.0998 11.1165 24.1013 11.1148C23.9427 11.2875 23.6422 11.3456 23.4156 11.2294C23.4074 11.2257 23.3992 11.2217 23.3912 11.2176L23.1887 11.1138L22.9915 11.012L22.4044 12.4598C22.3545 12.5831 22.2283 12.6806 22.0621 12.7176C21.7835 12.7795 21.517 12.6771 21.437 12.477C21.4349 12.4724 21.4329 12.4679 21.4311 12.4633L21.3608 12.2877L19.7376 8.22861L17.7607 11.2467C17.6909 11.3533 17.5635 11.4322 17.4065 11.457C17.1246 11.5017 16.8679 11.3848 16.8099 11.1815C16.8081 11.1763 16.8064 11.1711 16.8049 11.1658L16.7538 10.9866L15.4525 6.42464L12.3908 16.0586C12.3433 16.2082 12.1853 16.325 11.98 16.351C11.6977 16.3867 11.4461 16.2627 11.3997 16.0585C11.398 16.0528 11.3966 16.0471 11.3952 16.0413L11.3542 15.8607L9.69006 8.53814L8.4562 10.1316C8.36266 10.2524 8.1982 10.3331 8.00801 10.3331H3.99935C3.93155 10.3331 3.86687 10.3232 3.80777 10.3052V9.60479C3.86687 9.58677 3.93155 9.57683 3.99935 9.57683L7.71594 9.57683Z" fill="#BF360C"/>
<path fill-rule="evenodd" clip-rule="evenodd" d="M1 20.4642H31V27.9965H1V20.4642Z" fill="#F4511E"/>
<path d="M4.0188 25.7161C5.01282 25.7161 5.81864 24.7956 5.81864 23.6601C5.81864 22.5246 5.01282 21.6041 4.0188 21.6041C3.02478 21.6041 2.21896 22.5246 2.21896 23.6601C2.21896 24.7956 3.02478 25.7161 4.0188 25.7161Z" fill="#009688"/>
<path fill-rule="evenodd" clip-rule="evenodd" d="M7.47125 22.7908H9.54924V24.5197H7.47125V22.7908Z" fill="#C0CA33"/>
<path fill-rule="evenodd" clip-rule="evenodd" d="M11.4718 22.7908H13.5498V24.5197H11.4718V22.7908Z" fill="#C0CA33"/>
<path fill-rule="evenodd" clip-rule="evenodd" d="M15.1778 22.7908H17.2558V24.5197H15.1778V22.7908Z" fill="#C0CA33"/>
<path fill-rule="evenodd" clip-rule="evenodd" d="M1 26.6506H31V27.9963H1V26.6506Z" fill="#C0CA33"/>
<path fill-rule="evenodd" clip-rule="evenodd" d="M8.72296 19.0902H23.2771V20.8938H8.72296V19.0902Z" fill="#F4511E"/>
<path fill-rule="evenodd" clip-rule="evenodd" d="M16.098 20.4661H30.9972V27.9999H16.098V20.4661Z" fill="#C14A25"/>
<path fill-rule="evenodd" clip-rule="evenodd" d="M16.098 22.7893H17.2588V24.5219H16.098V22.7893Z" fill="#9BA235"/>
<path fill-rule="evenodd" clip-rule="evenodd" d="M16.098 26.6545H30.9972V28H16.098V26.6545Z" fill="#9BA235"/>
<path fill-rule="evenodd" clip-rule="evenodd" d="M16.098 20.8953H23.277V19.0897H16.098V20.8953Z" fill="#C14A25"/>
</g>
<defs>
<clipPath id="clip0_772_1717">
<rect width="32" height="32" fill="white"/>
</clipPath>
</defs>
</svg>
