<svg width="25" height="25" viewBox="0 0 25 25" fill="none" xmlns="http://www.w3.org/2000/svg">
<path d="M5.41516 2.52812V6.8188H7.37068V2.52812C7.37068 2.17683 7.66623 1.89103 8.0295 1.89103H12.4176L15.2515 1.08942L12.4176 0H8.0295C6.58795 0 5.41516 1.13411 5.41516 2.52812Z" fill="white"/>
<path d="M16.8056 1.89103C17.1689 1.89103 17.4644 2.17683 17.4644 2.52812V6.8188H19.42V2.52812C19.42 1.13411 18.2472 0 16.8056 0H12.4176V1.89103H16.8056Z" fill="#EAEAEA"/>
<path d="M8.93548 6.58078H3.82343V5.29692C3.82343 4.57493 4.42885 3.98962 5.17567 3.98962H7.58324C8.33005 3.98962 8.93548 4.57493 8.93548 5.29692V6.58078Z" fill="#4C5F9B"/>
<path d="M21.0116 6.58078H15.8996V5.29692C15.8996 4.57493 16.505 3.98962 17.2518 3.98962H19.6594C20.4062 3.98962 21.0116 4.57493 21.0116 5.29692V6.58078Z" fill="#374570"/>
<path d="M2.49603 6.25458C1.11752 6.25458 0 7.33524 0 8.66829V11.2482L1.9258 12.3963L0 13.3707V21.7647C0 23.0977 1.11752 24.1784 2.49603 24.1784H12.4176L22.3159 15.7858L12.4176 6.25458H2.49603Z" fill="#FF5548"/>
<path d="M24.8351 8.66829C24.8351 7.33524 23.7176 6.25458 22.3391 6.25458H12.4176V24.1785H22.3391C23.7176 24.1785 24.8351 23.0978 24.8351 21.7647V13.3707L23.0311 12.3095L24.8351 11.2482V8.66829Z" fill="#E22B4A"/>
<path d="M0 13.3702H12.4176L16.7944 12.3092L12.4176 11.2482H0V13.3702Z" fill="#E22B4A"/>
<path d="M12.4176 11.2482H24.8351V13.3702H12.4176V11.2482Z" fill="#BC1157"/>
<path d="M5.92935 15.2165H5.31362C4.49068 15.2165 3.82352 14.5713 3.82352 13.7755V9.6731H7.41946V13.7755C7.41939 14.5714 6.7523 15.2165 5.92935 15.2165Z" fill="white"/>
<path d="M19.5215 15.2165H18.9058C18.0829 15.2165 17.4157 14.5713 17.4157 13.7755V9.6731H21.0117V13.7755C21.0117 14.5714 20.3445 15.2165 19.5215 15.2165Z" fill="#EAEAEA"/>
<path d="M11.3339 17.4784H9.58362V19.5741H11.3339V21.2667H12.4176L14.0337 18.6506L12.4176 15.7858H11.3339V17.4784Z" fill="white"/>
<path d="M13.5012 21.2667V19.5741H15.2515V17.4784H13.5012V15.7858H12.4176V21.2667H13.5012Z" fill="#EAEAEA"/>
</svg>
