<svg width="32" height="32" viewBox="0 0 32 32" fill="none" xmlns="http://www.w3.org/2000/svg">
<path d="M28.0657 12.4453L28.056 12.2897L18.8972 5.59893L17.2133 6.0228C15.693 6.29509 14.1253 6.0658 12.7467 5.36947C12.0391 5.09992 11.2847 4.97462 10.528 5.00093C9.05426 5.02053 7.62605 5.51444 6.45506 6.40947C2.35679 9.78 3.28253 19.2656 8.67706 29.4024C8.78678 29.8449 9.03725 30.2398 9.39079 30.5276C9.74434 30.8154 10.1818 30.9806 10.6373 30.9983C11.0929 31.0159 11.5418 30.8852 11.9166 30.6256C12.2914 30.3661 12.5718 29.9918 12.7155 29.5592L14.5833 23.9859C14.678 23.699 14.8607 23.4493 15.1055 23.2723C15.3502 23.0953 15.6446 23 15.9467 23H16.0533C16.3556 23.0001 16.6501 23.0955 16.8949 23.2727C17.1398 23.4498 17.3226 23.6997 17.4173 23.9867L19.284 29.5589C19.4261 29.9896 19.7036 30.3627 20.0751 30.6229C20.4465 30.883 20.8921 31.0161 21.3453 31.0024C21.7986 30.9888 22.2353 30.829 22.5904 30.5469C22.9455 30.2649 23.2 29.8756 23.3159 29.4372C26.6267 23.2 28.3581 17.0091 28.0657 12.4453Z" fill="#EDF2FF"/>
<path d="M12.5733 29.4021C12.5984 29.4974 12.6296 29.5909 12.6667 29.6821C12.5127 30.0725 12.2446 30.4074 11.8972 30.6429C11.5499 30.8784 11.1396 31.0036 10.72 31.0021C10.2502 31.0011 9.79434 30.843 9.42472 30.5531C9.05509 30.2632 8.79297 29.8581 8.67999 29.4021C3.27999 19.2688 2.35999 9.77547 6.45333 6.41547C7.62424 5.51468 9.0561 5.01867 10.5333 5.00213C11.2182 4.96802 11.903 5.07232 12.5467 5.3088C11.7416 5.51331 10.9908 5.89098 10.3467 6.41547C6.25333 9.77547 7.17333 19.2688 12.5733 29.4021Z" fill="#DAE3F2"/>
<path d="M24.6667 1C23.1614 0.996577 21.7044 1.5306 20.5579 2.50594C19.4113 3.48127 18.6506 4.83385 18.4127 6.32018C18.1747 7.80652 18.4752 9.32897 19.26 10.6135C20.0447 11.898 21.2622 12.8602 22.6933 13.3268C22.8416 13.3722 22.9771 13.452 23.0885 13.5599L23.9596 14.4309C24.1473 14.6182 24.4016 14.7233 24.6667 14.7233C24.9318 14.7233 25.1861 14.6182 25.3737 14.4309L26.2448 13.5599C26.3565 13.4519 26.4922 13.3718 26.6407 13.3261C28.0717 12.8594 29.289 11.8972 30.0737 10.6127C30.8583 9.32821 31.1587 7.80582 30.9206 6.31958C30.6826 4.83333 29.9219 3.48087 28.7754 2.50565C27.6288 1.53043 26.1718 0.996505 24.6667 1Z" fill="#EDF2FF"/>
<path d="M25.4267 13.56L25.84 13.9733L25.3733 14.4267C25.2806 14.5196 25.1705 14.5934 25.0492 14.6438C24.928 14.6941 24.798 14.72 24.6667 14.72C24.5354 14.72 24.4054 14.6941 24.2841 14.6438C24.1628 14.5934 24.0527 14.5196 23.96 14.4267L23.0933 13.56C22.9833 13.4492 22.8449 13.3708 22.6933 13.3333C21.2621 12.866 20.0445 11.9033 19.2597 10.6183C18.475 9.33339 18.1745 7.81058 18.4124 6.32385C18.6503 4.83712 19.4109 3.48407 20.5574 2.50813C21.7039 1.53219 23.161 0.997406 24.6667 1C25.0609 0.999633 25.454 1.03984 25.84 1.12C24.4584 1.37366 23.2009 2.08079 22.2665 3.12951C21.332 4.17822 20.7739 5.50862 20.6806 6.91016C20.5873 8.31171 20.964 9.70436 21.7511 10.8677C22.5383 12.0311 23.6909 12.8987 25.0267 13.3333C25.1783 13.3708 25.3166 13.4492 25.4267 13.56Z" fill="#C6DBF2"/>
<path d="M28.0345 6.65427C27.9671 6.55518 27.8765 6.47411 27.7705 6.41817C27.6646 6.36222 27.5465 6.33309 27.4267 6.33333H25.6667V3.194C25.6669 3.08152 25.6355 2.97125 25.5761 2.87575C25.5167 2.78025 25.4316 2.70338 25.3306 2.6539C25.2296 2.60443 25.1167 2.58434 25.0048 2.59593C24.893 2.60753 24.7866 2.65033 24.6979 2.71947C23.1452 3.91378 21.9448 5.50608 21.224 7.32747C21.1794 7.43889 21.1628 7.55955 21.1757 7.67887C21.1886 7.79819 21.2306 7.91251 21.298 8.01182C21.3654 8.11112 21.4562 8.19237 21.5623 8.24842C21.6684 8.30448 21.7867 8.33364 21.9067 8.33333H23.6667V11.4727C23.6664 11.5851 23.6978 11.6954 23.7572 11.7909C23.8167 11.8864 23.9017 11.9633 24.0027 12.0128C24.1037 12.0622 24.2166 12.0823 24.3285 12.0707C24.4404 12.0591 24.5468 12.0163 24.6355 11.9472C26.1881 10.7529 27.3885 9.16058 28.1093 7.3392C28.1536 7.22758 28.17 7.10683 28.1569 6.98745C28.1439 6.86808 28.1019 6.7537 28.0345 6.65427Z" fill="#F0E486"/>
<path d="M16 11C13.4363 10.981 10.9739 9.99627 9.10413 8.24213C9.03991 8.18135 9.00247 8.09754 9.00005 8.00915C8.99762 7.92075 9.03041 7.83502 9.0912 7.7708C9.15199 7.70658 9.2358 7.66914 9.32419 7.66672C9.41258 7.66429 9.49831 7.69708 9.56253 7.75787C11.308 9.39555 13.6066 10.3152 16 10.3333C17.0986 10.3224 18.1874 10.1261 19.2207 9.75267C19.2619 9.73787 19.3056 9.73134 19.3493 9.73344C19.3931 9.73554 19.436 9.74623 19.4756 9.76491C19.5152 9.78359 19.5507 9.80988 19.5801 9.84229C19.6096 9.8747 19.6323 9.91259 19.6471 9.9538C19.6619 9.99501 19.6685 10.0387 19.6664 10.0825C19.6643 10.1262 19.6536 10.1691 19.6349 10.2087C19.6162 10.2483 19.5899 10.2838 19.5575 10.3133C19.5251 10.3427 19.4872 10.3655 19.446 10.3803C18.3404 10.7792 17.1753 10.9887 16 11Z" fill="#C6DBF2"/>
</svg>
