<svg width="32" height="32" viewBox="0 0 32 32" fill="none" xmlns="http://www.w3.org/2000/svg">
<g clip-path="url(#clip0_686_3532)">
<path d="M25.7989 28.6493C22.9731 30.8411 19.585 32 16 32C11.7261 32 7.70831 30.3356 4.68606 27.3139C1.66437 24.2917 0 20.2739 0 16C0 13.4851 0.56725 11.0777 1.68625 8.84412L2.91881 8.68144L3.34744 9.82731C2.42481 11.7183 1.93156 13.8179 1.93156 16C1.93156 23.7572 8.24269 30.0684 16 30.0684C19.1524 30.0684 22.1315 29.0499 24.6156 27.1227C25.0366 26.7957 25.6432 26.8723 25.9702 27.294C26.2973 27.7151 26.2207 28.3223 25.7989 28.6493Z" fill="#C8EA73"/>
<path d="M32 16C32 11.7262 30.3357 7.70825 27.3138 4.68631C24.2918 1.66431 20.2738 0 16 0C12.4261 0 9.04582 1.15237 6.22457 3.33256C5.80251 3.65869 5.72476 4.26531 6.05089 4.68731C6.37707 5.10944 6.9837 5.18713 7.40564 4.861C9.88564 2.94456 12.8574 1.93156 16 1.93156C23.7574 1.93156 30.0684 8.24263 30.0684 16C30.0684 19.652 28.6858 23.0766 26.2179 25.6727L26.2404 25.2945C26.2721 24.7621 25.8661 24.3047 25.3336 24.2731C24.8022 24.2416 24.3438 24.6473 24.3122 25.1798L24.1504 27.9C24.135 28.1589 24.2244 28.4132 24.3985 28.6055C24.5726 28.7978 24.8168 28.912 25.0759 28.9224L27.7743 29.0302C27.7874 29.0308 27.8005 29.031 27.8135 29.031C28.3291 29.031 28.7571 28.6236 28.7779 28.1038C28.7992 27.5708 28.3844 27.1214 27.8514 27.1001L27.5321 27.0874C28.6495 25.9237 29.5945 24.593 30.3138 23.1571C31.4327 20.9233 32 18.5153 32 16Z" fill="#B7E445"/>
<path d="M7.85837 4.09819C7.85837 4.09819 7.682 6.82969 7.68194 6.83012C7.65394 7.3025 7.22737 7.75588 6.65625 7.73156C6.12319 7.70881 5.72006 7.23775 5.75481 6.70587L5.77862 6.33112C4.78644 7.3755 3.96937 8.55375 3.34737 9.82731L1.68625 8.84412C1.68819 8.839 1.69075 8.83444 1.69331 8.82931C2.41187 7.398 3.3545 6.07231 4.469 4.91206L4.15094 4.89981C3.61781 4.87988 3.20187 4.43175 3.22181 3.89862C3.24175 3.3655 3.68862 2.95019 4.223 2.9695L6.93044 3.07056C7.19056 3.08019 7.4365 3.19481 7.611 3.38862C7.78556 3.58181 7.87506 3.83806 7.85837 4.09819Z" fill="#C8EA73"/>
<path d="M24.557 17.6929V11.338C24.557 10.6734 24.2024 10.0594 23.6269 9.72713L18.1234 6.54963C17.5479 6.21738 16.8388 6.21738 16.2633 6.54963L10.7597 9.72713C10.1842 10.0594 9.82968 10.6734 9.82968 11.338V17.6929C9.82968 18.3575 10.1842 18.9716 10.7597 19.3038L16.2633 22.4813C16.8388 22.8136 17.5479 22.8136 18.1234 22.4813L23.6269 19.3038C24.2025 18.9716 24.557 18.3575 24.557 17.6929Z" fill="#DD5790"/>
<path d="M24.557 11.338C24.557 10.6734 24.2025 10.0594 23.6269 9.72713L18.1234 6.54963C17.5479 6.21738 16.8388 6.21738 16.2633 6.54963L16.2276 6.57025L21.6954 9.72706C22.2709 10.0593 22.6254 10.6734 22.6254 11.3379V17.6929C22.6254 18.3574 22.2709 18.9715 21.6954 19.3038L16.2276 22.4606L16.2633 22.4812C16.8388 22.8134 17.5479 22.8134 18.1234 22.4812L23.6269 19.3037C24.2024 18.9714 24.557 18.3574 24.557 17.6928V11.338Z" fill="#DA387D"/>
<path d="M19.9191 13.3237H18.5026C18.3602 13.3237 18.245 13.2085 18.245 13.0662V11.6497C18.245 11.5074 18.1297 11.3921 17.9874 11.3921H16.5709C16.4286 11.3921 16.3134 11.5074 16.3134 11.6497V13.0662C16.3134 13.2085 16.1981 13.3237 16.0558 13.3237H14.6394C14.4971 13.3237 14.3818 13.439 14.3818 13.5813V14.9978C14.3818 15.1401 14.4971 15.2554 14.6394 15.2554H16.0559C16.1982 15.2554 16.3134 15.3706 16.3134 15.5129V16.9294C16.3134 17.0718 16.4287 17.187 16.571 17.187H17.9875C18.1298 17.187 18.2451 17.0718 18.2451 16.9294V15.5129C18.2451 15.3706 18.3603 15.2554 18.5026 15.2554H19.9191C20.0614 15.2554 20.1767 15.1401 20.1767 14.9978V13.5813C20.1766 13.439 20.0614 13.3237 19.9191 13.3237Z" fill="#C8EA73"/>
<path d="M13.9417 21.1102V18.0059C13.9417 17.6813 13.7686 17.3814 13.4874 17.2191L10.7991 15.6669C10.5179 15.5046 10.1716 15.5046 9.89043 15.6669L7.20205 17.2191C6.92093 17.3814 6.74774 17.6813 6.74774 18.0059V21.1102C6.74774 21.4348 6.92093 21.7347 7.20205 21.8971L9.89043 23.4492C10.1716 23.6115 10.5179 23.6115 10.7991 23.4492L13.4874 21.8971C13.7686 21.7347 13.9417 21.4348 13.9417 21.1102Z" fill="#6BBEF6"/>
<path d="M13.9417 18.0059C13.9417 17.6813 13.7686 17.3814 13.4874 17.2191L10.7991 15.6669C10.5179 15.5046 10.1716 15.5046 9.89044 15.6669L9.37894 15.9622L11.5558 17.2191C11.8369 17.3814 12.0101 17.6813 12.0101 18.0059V21.1102C12.0101 21.4348 11.8369 21.7347 11.5558 21.8971L9.37894 23.1539L9.89044 23.4492C10.1716 23.6115 10.5179 23.6115 10.7991 23.4492L13.4874 21.8971C13.7686 21.7347 13.9417 21.4348 13.9417 21.1102V18.0059Z" fill="#5EA5EC"/>
</g>
<defs>
<clipPath id="clip0_686_3532">
<rect width="32" height="32" fill="white"/>
</clipPath>
</defs>
</svg>
