<svg width="32" height="32" viewBox="0 0 32 32" fill="none" xmlns="http://www.w3.org/2000/svg">
<g clip-path="url(#clip0_686_3551)">
<path fill-rule="evenodd" clip-rule="evenodd" d="M1.31981 11.2533L1.41456 11.5738C2.24331 11.4226 3.07756 11.9218 3.3235 12.7469L4.64225 17.2004C5.1395 16.9418 5.75331 16.9345 6.26882 17.2369L6.65682 17.4628L4.53288 10.3024C4.27063 9.41719 3.33431 8.909 2.45094 9.17131C1.5675 9.43356 1.0575 10.3698 1.31981 11.2533Z" fill="#FFB09E"/>
<path fill-rule="evenodd" clip-rule="evenodd" d="M10.7478 19.8598L6.26875 17.2368C5.75325 16.9344 5.13944 16.9418 4.64219 17.2004L3.32344 12.7468C3.06113 11.8634 2.12306 11.3534 1.23969 11.6157C0.356251 11.878 -0.151936 12.8143 0.110314 13.6994L2.57481 22.0164L7.24875 26.8379V32H13.0629C13.0629 29.3006 13.0629 26.6011 13.0629 23.9016C13.0629 22.1913 12.2214 20.7231 10.7478 19.8598Z" fill="#FFCEBF"/>
<path fill-rule="evenodd" clip-rule="evenodd" d="M5.94818 28.8197H14.3634V32H5.94818V28.8197Z" fill="#555F70"/>
<path d="M4.64218 17.2004C4.52743 17.3006 4.42906 17.4208 4.35256 17.5519C4.24325 17.7396 4.17587 17.949 4.16493 18.1603C4.154 18.3607 4.19406 18.5629 4.29975 18.7468C4.39987 18.9199 4.55656 19.0801 4.78243 19.2131L7.613 20.8725L7.16125 21.643L4.33062 19.9836C3.95906 19.7669 3.69493 19.4936 3.52193 19.1913C3.327 18.8524 3.25056 18.4809 3.27056 18.1148C3.28881 17.7578 3.39987 17.408 3.58018 17.1002C3.77325 16.7705 4.0465 16.4864 4.37437 16.2933L4.64218 17.2004Z" fill="#FFB09E"/>
<path fill-rule="evenodd" clip-rule="evenodd" d="M30.6786 11.2532L30.5838 11.5738C29.7551 11.4226 28.9208 11.9217 28.6767 12.7469L27.3561 17.2004C26.8607 16.9418 26.2451 16.9345 25.7295 17.2369L25.3434 17.4627L27.4654 10.3025C27.7277 9.41725 28.6658 8.90906 29.5492 9.17137C30.4327 9.43356 30.9409 10.3698 30.6786 11.2532Z" fill="#FFB09E"/>
<path fill-rule="evenodd" clip-rule="evenodd" d="M21.2524 19.8598L25.7296 17.2368C26.2451 16.9344 26.8608 16.9418 27.3562 17.2004L28.6768 12.7468C28.9391 11.8634 29.8753 11.3534 30.7587 11.6157C31.6421 11.878 32.1521 12.8143 31.8898 13.6994L29.4235 22.0164L24.7514 26.8379V32H18.9354C18.9354 29.3006 18.9354 26.6011 18.9354 23.9016C18.9354 22.1913 19.7769 20.7231 21.2524 19.8598Z" fill="#FFCEBF"/>
<path fill-rule="evenodd" clip-rule="evenodd" d="M17.6367 28.8197H26.0501V32H17.6367V28.8197Z" fill="#555F70"/>
<path d="M27.3562 17.2004C27.4709 17.3006 27.5693 17.4208 27.6476 17.5519C27.7569 17.7396 27.8243 17.949 27.8353 18.1603C27.8462 18.3607 27.8043 18.5629 27.6986 18.7468C27.6003 18.9199 27.4418 19.0801 27.2159 19.2131L24.3854 20.8725L24.8389 21.643L27.6695 19.9836C28.0411 19.7669 28.3052 19.4936 28.4764 19.1913C28.6714 18.8524 28.7478 18.4809 28.7278 18.1148C28.7096 17.7578 28.5985 17.408 28.4181 17.1002C28.2251 16.7705 27.9519 16.4864 27.6258 16.2933L27.3562 17.2004Z" fill="#FFB09E"/>
<path fill-rule="evenodd" clip-rule="evenodd" d="M7.45456 1.76325C9.80431 -0.586499 13.6494 -0.586499 15.9992 1.76325C18.3489 -0.586499 22.1941 -0.586499 24.5438 1.76325C26.8935 4.113 26.8936 7.95813 24.5438 10.3079L15.9992 18.8525L7.45456 10.3079C5.10481 7.95813 5.10481 4.113 7.45456 1.76325Z" fill="#EF5350"/>
<path fill-rule="evenodd" clip-rule="evenodd" d="M9.9445 7.23869C11.0319 7.23869 11.919 6.35163 11.919 5.266C11.919 4.17857 11.0319 3.2915 9.9445 3.2915C8.85894 3.2915 7.97182 4.17857 7.97182 5.266C7.97188 6.35157 8.85894 7.23869 9.9445 7.23869Z" fill="#FFE0CC"/>
<path fill-rule="evenodd" clip-rule="evenodd" d="M19.2833 0.0801877C21.1431 -0.224 23.1194 0.337 24.5438 1.76325C26.8936 4.113 26.8936 7.95812 24.5438 10.3079L15.9992 18.8525L15.0119 17.8652L22.5693 10.3079C24.9191 7.95812 24.9191 4.113 22.5693 1.76325C21.6439 0.837938 20.4891 0.27875 19.2833 0.0801877Z" fill="#DB2C29"/>
<path fill-rule="evenodd" clip-rule="evenodd" d="M16.1468 11.4827C17.2324 11.4827 18.1194 10.5957 18.1194 9.50825C18.1194 8.42262 17.2324 7.53556 16.1468 7.53556C15.0593 7.53556 14.1723 8.42262 14.1723 9.50825C14.1723 10.5957 15.0593 11.4827 16.1468 11.4827Z" fill="#FFE0CC"/>
<path fill-rule="evenodd" clip-rule="evenodd" d="M14.4036 12.8033H17.5966C18.1103 12.8033 18.5293 13.2223 18.5293 13.7359V16.3224L15.9992 18.8525L13.4691 16.3224V13.7359C13.4691 13.2223 13.8899 12.8033 14.4036 12.8033Z" fill="#FAC149"/>
<path fill-rule="evenodd" clip-rule="evenodd" d="M8.20319 8.55925H11.3944C11.9081 8.55925 12.3289 8.97819 12.3289 9.49187V15.1822L7.45456 10.3079C7.39081 10.2441 7.32888 10.1786 7.26881 10.113V9.49187C7.26875 8.97819 7.6895 8.55925 8.20319 8.55925Z" fill="#3BBDF3"/>
<path fill-rule="evenodd" clip-rule="evenodd" d="M20.6039 8.55925H23.797C24.3107 8.55925 24.7314 8.97819 24.7314 9.49187V10.113C24.6695 10.1786 24.6076 10.2441 24.5438 10.3079L19.6713 15.1822V9.49187C19.6713 8.97819 20.0902 8.55925 20.6039 8.55925Z" fill="#44C689"/>
<path fill-rule="evenodd" clip-rule="evenodd" d="M18.5292 14.3461V16.3224L15.9992 18.8525L15.0119 17.8652L18.5292 14.3461Z" fill="#EBB238"/>
<path fill-rule="evenodd" clip-rule="evenodd" d="M23.7842 8.55925H23.7969C24.3106 8.55925 24.7314 8.97819 24.7314 9.49187V10.113C24.7114 10.1349 24.6913 10.1567 24.6694 10.1786L24.6403 10.2077C24.6094 10.2423 24.5766 10.2751 24.5438 10.3079L19.6713 15.1822V13.2059L22.5693 10.3079C23.0884 9.78694 23.4946 9.19312 23.7842 8.55925Z" fill="#089664"/>
<path fill-rule="evenodd" clip-rule="evenodd" d="M22.3471 7.23869C23.4345 7.23869 24.3197 6.35163 24.3197 5.266C24.3197 4.17857 23.4345 3.2915 22.3471 3.2915C21.2596 3.2915 20.3744 4.17857 20.3744 5.266C20.3744 6.35157 21.2596 7.23869 22.3471 7.23869Z" fill="#FFE0CC"/>
</g>
<defs>
<clipPath id="clip0_686_3551">
<rect width="32" height="32" fill="white"/>
</clipPath>
</defs>
</svg>
