<svg width="17" height="25" viewBox="0 0 17 25" fill="none" xmlns="http://www.w3.org/2000/svg">
<path d="M8.37916 0.104448C7.75627 0.0363078 7.12333 0 6.48153 0C4.535 0 2.66683 0.323429 0.929932 0.915826V14.7239H8.37916V0.104448Z" fill="#FFBDA9"/>
<path d="M8.37917 14.7239V0.104448C7.75628 0.0363078 7.12334 0 4.91705 0V14.7239H8.37917Z" fill="#F9A58D"/>
<path d="M7.67653 9.367H5.80542L4.91703 9.61618V9.367H6.56456e-05V9.8963L0.177693 10.8419L0 11.634V13.9679L0.0499961 14.4532L0 14.9876V16.0595L0.0608823 16.5281L0 17.0793V19.4132L0.0853263 19.8872L0 20.4329V20.9374L0.0717685 21.6969L0 22.3068C0 23.7048 1.17194 24.8381 2.6176 24.8381L2.65097 24.838L3.23652 24.7566L4.03079 24.835L7.67653 24.8279V9.367Z" fill="#EEF4FF"/>
<path d="M12.1185 16.8278H11.4286L10.9324 16.9539L10.443 16.8278H9.30903V16.7978L9.11348 16.0948L9.30903 15.3179V13.0889L9.17866 12.6029L9.30903 12.115V11.3525L9.17866 10.8576L9.30903 10.3328V9.367H5.80539L4.91699 9.61618V24.8303L10.5295 24.8216L11.0293 24.7567L11.5591 24.8196L12.1184 24.819C12.2977 24.819 12.4744 24.808 12.6476 24.7865L13.6668 24.529C15.1817 23.9365 16.2503 22.5006 16.2503 20.8233C16.2503 19.5034 15.5886 18.3331 14.5684 17.6055L13.6467 17.1098C13.174 16.9279 12.6583 16.8278 12.1185 16.8278Z" fill="#D6E9F8"/>
<path d="M3.19408 9.367L1.14176 10.1684L0 9.8963V11.634L5.80542 9.367H3.19408ZM0 22.3069L2.65104 24.8382L4.03085 24.8353L0 20.9375V22.3069ZM0 14.9876L1.45478 14.4196L6.48151 15.6177V14.6439L3.00336 13.8148L6.48151 12.4566V11.4369L0 13.968V14.9876ZM7.20264 24.8382L7.22989 24.8289L7.19267 24.8289L7.20264 24.8382ZM0 20.4329L1.88291 19.6976L6.48151 24.1446V19.8666L5.88958 18.1331L6.48151 17.9019V16.8822L0 19.4133V20.4329ZM5.39874 18.3247L4.98104 18.4878L6.44351 22.7707L2.8679 19.313L5.39874 18.3247ZM3.15921 14.8258L0 16.0595V17.0793L4.78079 15.2123L3.15921 14.8258Z" fill="#D6E9F8"/>
<path d="M11.4286 16.8277H10.443L9.9977 20.2463L8.87764 16.9662L9.30909 16.7977V15.3178L4.91706 14.271V15.2448L8.49234 16.097L4.91706 17.4931V18.5128L4.98107 18.4878L6.44354 22.7707L4.91699 21.2945V22.6316L7.12523 24.767L7.14642 24.829L8.56912 24.8262L7.98084 24.2573L5.88954 18.1331L7.96904 17.321L10.5294 24.8191H11.5591L10.7109 22.3354L11.4286 16.8277ZM14.4567 17.5294C14.4305 17.512 14.4039 17.4951 14.3773 17.4783C14.3588 17.4666 14.3403 17.4551 14.3216 17.4437C14.2234 17.3838 14.1225 17.3276 14.0189 17.2757C14.0117 17.2721 14.0044 17.2685 13.9971 17.265C13.8834 17.2088 13.7668 17.1574 13.6473 17.1114L12.6476 24.7853C12.7806 24.7688 12.9116 24.7463 13.0402 24.7179C13.0413 24.7177 13.0424 24.7174 13.0436 24.7172C13.171 24.6891 13.2961 24.6552 13.4187 24.616C13.4219 24.6149 13.4251 24.6138 13.4284 24.6128C13.509 24.5868 13.5884 24.5585 13.6666 24.528L14.5683 17.6062C14.5316 17.5799 14.4944 17.5544 14.4567 17.5294ZM9.30909 11.3525V10.3328L6.48154 11.4369L4.91706 12.0479V13.0676L6.48154 12.4566L9.30909 11.3525ZM9.30909 13.0889V12.115L8.09647 11.826L6.5479 12.4308L9.30909 13.0889ZM4.91706 9.367V9.71395L5.80545 9.367H4.91706Z" fill="#B2D7F3"/>
</svg>
