<svg width="32" height="32" viewBox="0 0 32 32" fill="none" xmlns="http://www.w3.org/2000/svg">
<path d="M29.9744 13.1936C29.5859 10.8166 28.3654 8.95424 26.4806 7.4912C25.0227 6.36032 23.4694 6.00576 21.8758 6.45248C21.4342 6.576 20.9882 6.76224 20.5427 7.00928C20.0346 7.29024 19.5526 7.62112 19.0509 7.91424C18.0749 8.48448 16.5978 7.47264 16.3232 5.55392C16.1811 4.55808 16.0813 2.4256 16.0813 2.4256L12.7136 2.41536C12.7034 4.3712 12.7974 6.30848 13.2378 8.23232C13.8272 10.8064 15.7056 11.417 16.6445 12.4506C17.3997 13.2806 17.9603 14.7526 17.6858 16.4448C17.1462 19.1098 15.9904 20.4218 13.3139 20.8774C10.8 21.3056 8.89472 19.8714 6.26496 20.5728C4.66688 20.9997 3.66976 21.8733 3.01952 23.2851C1.88864 25.7414 1.88864 28.921 1.88864 29.5456C2.26816 29.5494 2.91328 29.5571 3.53792 29.5629C4.41792 29.5731 5.25824 29.5827 5.25824 29.5827C5.25824 29.5827 5.44192 27.0586 5.68256 26.151C5.72992 25.9699 5.77728 25.7888 5.84 25.6128C6.47552 23.8362 7.696 23.3357 9.37152 24.2112C9.9744 24.5267 10.5286 24.9414 11.0931 25.3312C12.8698 26.5594 14.7533 27.5642 16.9037 27.9392C20.6886 28.5984 24.7302 26.7322 27.2134 23.911C29.2819 21.5603 30.5491 17.3824 29.9757 13.193L29.9744 13.1936Z" fill="#FFB8D1"/>
<path d="M29.9744 13.1936C29.5859 10.8166 28.3654 8.95424 26.4806 7.4912C25.0227 6.36032 23.4694 6.00576 21.8758 6.45248C23.6794 7.17376 25.1603 8.76544 25.8592 10.6093C26.4448 12.1498 26.551 13.8214 26.32 15.4605C26.1824 16.4454 25.9219 17.4189 25.5725 18.3456C24.9632 19.9533 24.4314 21.0118 23.1405 22.3027C22.3302 23.1142 21.1706 23.872 20.2234 24.1267C18.5971 24.5626 17.4144 24.8608 15.7683 24.5114C14.5926 24.2618 13.6186 23.5654 12.4403 22.9984C11.9936 22.7827 11.5181 22.5862 10.9901 22.4403C9.1424 21.927 7.26528 21.639 5.71584 22.7699C4.51008 23.6499 4.3328 24.5875 3.95328 26.032C3.71392 26.9485 3.59872 28.2925 3.53728 29.5347V29.5648C4.41728 29.575 5.2576 29.5846 5.2576 29.5846C5.2576 29.5846 5.44128 27.0605 5.68192 26.153C5.72928 25.9718 5.77664 25.7907 5.83936 25.6147C6.47488 23.8381 7.69536 23.3376 9.37088 24.2131C9.97376 24.5286 10.528 24.9434 11.0925 25.3331C12.8691 26.5613 14.7526 27.5661 16.903 27.9411C20.688 28.6003 24.7296 26.7341 27.2128 23.913C29.2813 21.5622 30.5485 17.3843 29.975 13.1949L29.9744 13.1936Z" fill="#FF7F9F"/>
<path d="M28.7936 17.0438C28.8499 18.2483 28.3367 20.3955 27.4195 21.9373C26.5018 23.479 24.5735 24.9818 22.9882 25.8234C20.176 27.3152 17.3632 27.319 14.4064 26.1414C13.5463 25.7997 12.1895 24.9542 12.0544 24.039C11.9911 23.6083 12.1632 23.2787 12.4403 22.9978C13.6186 23.5648 14.5927 24.2611 15.7683 24.5107C17.4151 24.8602 18.5971 24.5619 20.2234 24.1261C21.1706 23.8714 22.3303 23.1136 23.1405 22.3021C24.4314 21.0112 24.9632 19.9526 25.5725 18.345C25.9219 17.4189 26.1831 16.4448 26.32 15.4598C26.7322 15.4938 27.1463 15.5757 27.5431 15.6794C27.7626 15.737 28.1024 15.9341 28.2695 16.089C28.489 16.2925 28.7802 16.7443 28.7936 17.0426V17.0438ZM25.8624 21.5642C25.8624 21.3248 25.6691 21.1296 25.4291 21.1296C25.1891 21.1296 24.9959 21.3242 24.9959 21.5642C24.9959 21.8042 25.1891 21.9974 25.4291 21.9974C25.6691 21.9974 25.8624 21.8029 25.8624 21.5642ZM21.7952 25.1629C21.7952 24.7232 21.4394 24.3693 21.0003 24.3693C20.5613 24.3693 20.2067 24.7238 20.2067 25.1629C20.2067 25.6019 20.5626 25.9565 21.0003 25.9565C21.4381 25.9565 21.7952 25.6006 21.7952 25.1629Z" fill="#D8B36E"/>
<path d="M24.423 15.7792C25.0048 15.4771 25.6601 15.4086 26.3193 15.4611C26.1817 16.4461 25.9213 17.4195 25.5718 18.3462C24.9625 19.9539 24.4307 21.0125 23.1398 22.3034C22.3296 23.1149 21.1699 23.8726 20.2227 24.1274C18.5965 24.5632 17.4137 24.8614 15.7677 24.512C14.592 24.2624 13.6179 23.5661 12.4397 22.999C12.6931 22.743 13.0336 22.5261 13.3645 22.3072C14.2867 21.6966 15.3593 21.4586 16.2381 20.7853C16.8787 20.2944 17.76 19.8342 18.4998 17.319C19.0278 15.9021 21.1315 17.353 22.368 16.9382C23.1469 16.6771 23.6921 16.1581 24.4224 15.7798L24.423 15.7792Z" fill="#FFDE89"/>
<path d="M25.4291 21.129C25.6685 21.129 25.8624 21.3235 25.8624 21.5635C25.8624 21.8035 25.6691 21.9968 25.4291 21.9968C25.1891 21.9968 24.9958 21.8022 24.9958 21.5635C24.9958 21.3248 25.1891 21.129 25.4291 21.129Z" fill="#D7D7DF"/>
<path d="M21.0003 24.3686C21.44 24.3686 21.7952 24.7232 21.7952 25.1622C21.7952 25.6013 21.4394 25.9558 21.0003 25.9558C20.5613 25.9558 20.2067 25.6 20.2067 25.1622C20.2067 24.7245 20.5626 24.3686 21.0003 24.3686Z" fill="#D7D7DF"/>
<path d="M23.3562 19.0502C23.7807 19.0502 24.1248 18.7061 24.1248 18.2816C24.1248 17.8571 23.7807 17.513 23.3562 17.513C22.9317 17.513 22.5875 17.8571 22.5875 18.2816C22.5875 18.7061 22.9317 19.0502 23.3562 19.0502Z" fill="#F9EDED"/>
<path d="M21.6857 22.7334C22.387 22.7334 22.9555 22.1649 22.9555 21.4637C22.9555 20.7624 22.387 20.1939 21.6857 20.1939C20.9845 20.1939 20.416 20.7624 20.416 21.4637C20.416 22.1649 20.9845 22.7334 21.6857 22.7334Z" fill="#F9EDED"/>
<path d="M18.7706 21.4637C19.1951 21.4637 19.5392 21.1195 19.5392 20.695C19.5392 20.2705 19.1951 19.9264 18.7706 19.9264C18.3461 19.9264 18.0019 20.2705 18.0019 20.695C18.0019 21.1195 18.3461 21.4637 18.7706 21.4637Z" fill="#F9EDED"/>
<path d="M16.8672 23.4214C16.8672 23.1827 16.6726 22.9882 16.4339 22.9882C16.1952 22.9882 15.9994 23.1827 15.9994 23.4214C15.9994 23.6602 16.1939 23.856 16.4339 23.856C16.6739 23.856 16.8672 23.6614 16.8672 23.4214Z" fill="#F9EDED"/>
</svg>
