<svg width="32" height="32" viewBox="0 0 32 32" fill="none" xmlns="http://www.w3.org/2000/svg">
<path d="M26.3347 7.98848C26.2074 7.23776 25.9097 6.56064 25.5053 5.9232C25.4656 5.88544 25.4195 5.85216 25.3862 5.80928C25.2941 5.69152 25.1981 5.57952 25.1002 5.47392C24.2784 4.58944 23.2454 4.12672 22.0461 4.01152C21.9341 4 21.8214 3.99296 21.7069 3.9872C20.768 3.9488 19.9091 4.26624 19.0726 4.65664C17.6896 5.29984 16.2496 5.5296 14.736 5.2544C13.9366 5.10784 13.2006 4.78848 12.4685 4.45952C11.5098 4.02944 10.5165 3.86944 9.48351 4.06464C9.47711 4.06592 9.47007 4.06656 9.46367 4.06784C7.21983 4.50048 5.62623 6.39104 5.59295 8.6816C5.56479 10.5875 6.01791 12.4166 6.56255 14.2259C6.85823 15.2109 7.28639 16.1478 7.63327 17.1149C8.11263 18.4531 8.17087 19.8266 8.10751 21.2378C8.05759 22.3629 8.10111 23.4822 8.28735 24.583C8.40831 25.3018 8.59007 26.0122 8.84735 26.7098C9.03039 27.207 9.28831 27.6614 9.75615 27.9571C10.1376 28.089 10.4538 27.977 10.7398 27.7146C10.999 27.4778 11.2006 27.1974 11.3888 26.9062C12.032 25.9098 12.5325 24.8326 13.1091 23.799C13.5706 22.969 14.048 22.1478 14.7501 21.4854C15.5667 20.7149 16.4256 20.7117 17.2403 21.4771C17.8682 22.0685 18.3078 22.793 18.7341 23.5296C19.3786 24.6419 19.9027 25.8202 20.6035 26.9005C20.8397 27.2659 21.0816 27.6314 21.4662 27.8675C21.8227 28.0845 22.1344 28.0678 22.4544 27.7984C22.7424 27.5552 22.9306 27.2365 23.0694 26.8915C23.8202 25.017 23.9763 23.0458 23.8778 21.0624C23.8003 19.5027 23.9674 18.0083 24.5651 16.567C25.3421 14.6931 25.943 12.7693 26.2394 10.7552C26.375 9.83488 26.4941 8.92032 26.3366 7.98848H26.3347Z" fill="#F3EDF7"/>
<path d="M12.7373 5.81313C11.9706 5.11233 11.0022 4.28481 9.48288 4.06593C10.5158 3.87073 11.5091 4.03073 12.4678 4.46081C13.2 4.78977 13.9366 5.10913 14.7354 5.25569C16.249 5.53153 17.689 5.30177 19.072 4.65793C19.9085 4.26753 20.7674 3.94945 21.7062 3.98849C21.8214 3.99361 21.9341 4.00129 22.0454 4.01281C21.1155 3.98273 20.3021 4.69569 19.5053 5.22049C18.3802 5.95905 17.0509 6.38081 15.7056 6.42497C16.8192 7.27489 18.3597 7.19297 19.7549 7.07073C19.7549 7.07073 19.7545 7.07137 19.7536 7.07265C19.735 7.09569 19.5219 7.35169 18.8666 7.52193C17.0272 7.74337 15.0374 7.62625 13.5552 6.52545C13.2992 6.33537 13.033 6.08449 12.7373 5.81505C12.7373 5.81505 12.7369 5.81462 12.736 5.81377L12.7373 5.81313Z" fill="#D7D7DF"/>
<path d="M26.3347 7.98848C26.4922 8.92032 26.3731 9.83488 26.2374 10.7552C25.9411 12.7693 25.3402 14.6931 24.5632 16.567C23.9654 18.0083 23.7984 19.5034 23.8758 21.0624C23.9738 23.0458 23.8182 25.017 23.0675 26.8915C22.9286 27.2365 22.7405 27.5546 22.4525 27.7984C22.1331 28.0678 21.8208 28.0845 21.4643 27.8675C21.0797 27.6314 20.8378 27.2659 20.6016 26.9005C19.9008 25.8202 19.3766 24.6426 18.7322 23.5296C18.3059 22.793 17.8662 22.0685 17.2384 21.4771C16.4237 20.7117 15.5648 20.7149 14.7482 21.4854C14.0461 22.1478 13.5686 22.9683 13.1072 23.799C12.5306 24.8333 12.0301 25.9098 11.3869 26.9062C11.1987 27.1974 10.9971 27.4778 10.7386 27.7146C10.4525 27.977 10.1357 28.0883 9.75487 27.9571C9.28703 27.6614 9.02911 27.207 8.84607 26.7098C8.58943 26.0122 8.40767 25.3018 8.28607 24.583L8.35519 24.5715C8.72191 24.5869 9.08735 24.5766 9.43807 24.4774C10.1683 24.2694 10.7398 23.6986 11.1763 23.0778C11.6122 22.4576 11.9469 21.7677 12.407 21.1642C13.1706 20.1626 14.304 19.4144 15.552 19.2557C16.8013 19.097 18.1478 19.5808 18.9005 20.5907C19.2358 21.0406 19.4522 21.5789 19.8323 21.9923C20.2138 22.4051 20.8614 22.6669 21.3408 22.3738C21.7818 22.103 21.8765 21.5142 21.9258 20.999C22.0262 19.9674 22.1261 18.935 22.2266 17.9034C22.2643 17.5117 22.3027 17.1181 22.3987 16.7354C22.5594 16.0877 22.8813 15.4938 23.2179 14.9171C24.2528 13.1488 25.5014 11.3952 25.7114 9.35616C25.8464 8.04224 25.5328 6.72512 25.1014 5.47392C25.1994 5.57952 25.296 5.69088 25.3875 5.80928C25.4208 5.85216 25.4669 5.88544 25.5066 5.9232C25.911 6.56064 26.2086 7.23712 26.336 7.98848H26.3347Z" fill="#D7D7DF"/>
</svg>
