<svg width="32" height="32" viewBox="0 0 32 32" fill="none" xmlns="http://www.w3.org/2000/svg">
<path fill-rule="evenodd" clip-rule="evenodd" d="M6.90493 28.2921H13.4902C13.9667 28.2921 14.3565 28.6819 14.3565 29.1584V30.5102C14.3565 30.9886 13.9667 31.3783 13.4902 31.3766H6.90493C6.42656 31.3766 6.03856 30.9886 6.03856 30.5102V29.1584C6.03856 28.6819 6.42831 28.2921 6.90493 28.2921Z" fill="#4BB3FD"/>
<path fill-rule="evenodd" clip-rule="evenodd" d="M8.18763 28.2921H13.4902C13.9668 28.2921 14.3565 28.6819 14.3565 29.1584V30.5102C14.3565 30.9886 13.9668 31.3783 13.4902 31.3766H8.18588C8.18588 30.6679 8.18763 29.0911 8.18763 28.2921Z" fill="#74C3FC"/>
<path fill-rule="evenodd" clip-rule="evenodd" d="M7.28231 28.2921C7.33543 26.7242 6.29193 26.0935 5.29275 25.1332C3.69118 23.5954 2.304 22.1055 2.09312 20.7218C1.96381 19.8821 2.05412 12.3384 2.60337 10.5206C2.9435 9.39562 3.48562 8.61431 4.31656 8.83931C4.86756 8.95975 5.3565 9.62062 5.34943 10.8431C5.33525 12.9194 5.25906 16.3033 5.77462 18.2964C6.89606 16.3459 11.4722 20.6492 12.2872 21.7582C13.2456 23.0622 13.1889 25.6789 13.1127 28.2921H7.28231Z" fill="#F6B4A8"/>
<path fill-rule="evenodd" clip-rule="evenodd" d="M4.19787 8.81458C4.23687 8.81989 4.2758 8.82876 4.31655 8.83939C4.86755 8.95982 5.35649 9.6207 5.34943 10.8431C5.33524 12.9195 5.25905 16.3034 5.77462 18.2965C6.89605 16.3459 11.4722 20.6493 12.2872 21.7583C13.2456 23.0623 13.1889 25.679 13.1127 28.2922H8.18755V27.8068C8.17337 26.3434 7.16355 25.7251 6.19624 24.7932C4.59468 23.2554 3.20743 21.7655 2.99487 20.3818C2.8673 19.542 2.95768 11.9983 3.50687 10.1823C3.68049 9.60658 3.90724 9.12114 4.1978 8.81464L4.19787 8.81458Z" fill="#F9C9C0"/>
<path fill-rule="evenodd" clip-rule="evenodd" d="M25.0963 28.2921H18.5093C18.0328 28.2921 17.643 28.6819 17.643 29.1584V30.5102C17.643 30.9886 18.0328 31.3783 18.5093 31.3766H25.0963C25.5729 31.3766 25.9627 30.9886 25.9627 30.5102V29.1584C25.9627 28.6819 25.5729 28.2921 25.0963 28.2921Z" fill="#4BB3FD"/>
<path fill-rule="evenodd" clip-rule="evenodd" d="M23.8136 28.2921H18.5093C18.0328 28.2921 17.643 28.6819 17.643 29.1584V30.5102C17.643 30.9886 18.0328 31.3783 18.5093 31.3766H23.8136V28.2921Z" fill="#74C3FC"/>
<path fill-rule="evenodd" clip-rule="evenodd" d="M24.7189 28.2921C24.6657 26.7242 25.7075 26.0935 26.7085 25.1332C28.3083 23.5954 29.6955 22.1055 29.9081 20.7218C30.0357 19.8821 29.9453 12.3384 29.3961 10.5206C29.056 9.39562 28.5156 8.61431 27.6847 8.83931C27.1319 8.95975 26.6429 9.62062 26.6518 10.8431C26.6642 12.9194 26.7404 16.3033 26.2249 18.2964C25.1034 16.3459 20.5272 20.6492 19.7122 21.7582C18.7538 23.0622 18.8123 25.6789 18.8867 28.2921H24.719H24.7189Z" fill="#F6B4A8"/>
<path fill-rule="evenodd" clip-rule="evenodd" d="M27.8016 8.81458C27.7644 8.81989 27.7237 8.82876 27.6847 8.83939C27.1319 8.95982 26.6429 9.6207 26.6518 10.8431C26.6642 12.9195 26.7404 16.3034 26.2249 18.2965C25.1034 16.3459 20.5272 20.6493 19.7122 21.7583C18.7538 23.0623 18.8123 25.679 18.8867 28.2922H23.8137V27.8068C23.8279 26.3434 24.8359 25.7251 25.805 24.7932C27.4048 23.2554 28.7938 21.7655 29.0046 20.3818C29.1322 19.542 29.0418 11.9983 28.4926 10.1823C28.319 9.60658 28.094 9.12114 27.8017 8.81464L27.8016 8.81458Z" fill="#F9C9C0"/>
<path fill-rule="evenodd" clip-rule="evenodd" d="M14.0589 4.13206C13.5238 4.28444 13.0154 4.497 12.5406 4.76275L11.4492 4.13206C11.1835 3.97969 10.8593 4.02219 10.6431 4.23837L9.95749 4.924L9.27187 5.60962C9.05574 5.82756 9.01143 6.15 9.16555 6.41575L9.7963 7.50706C9.53055 7.98187 9.31618 8.49206 9.16555 9.02712L7.94843 9.35312C7.65255 9.43287 7.45412 9.6915 7.45412 9.998V11.9362C7.45412 12.2427 7.65255 12.5031 7.94843 12.5811L9.16555 12.9071C9.31618 13.4421 9.53055 13.9523 9.7963 14.4271L9.16555 15.5184C9.01318 15.7842 9.05574 16.1084 9.27187 16.3246L9.95749 17.0102L10.6431 17.6958C10.8592 17.9119 11.1835 17.9544 11.4492 17.8021L12.5406 17.1714C13.0154 17.4372 13.5256 17.6498 14.0589 17.8021L14.3849 19.0175C14.4646 19.3134 14.7232 19.5136 15.0297 19.5136H16.9697C17.2762 19.5136 17.5348 19.3134 17.6146 19.0175L17.9406 17.8021C18.4756 17.6497 18.9841 17.4372 19.4606 17.1714L20.5519 17.8021C20.8159 17.9545 21.1401 17.912 21.358 17.6958L22.0436 17.0102L22.7292 16.3246C22.9454 16.1084 22.9879 15.7842 22.8338 15.5184L22.2049 14.4271C22.4706 13.9523 22.6832 13.4421 22.8338 12.9071L24.0509 12.5811C24.3468 12.5031 24.5452 12.2427 24.5452 11.9362V9.998C24.5452 9.6915 24.3468 9.43287 24.0509 9.35312L22.8338 9.02712C22.6832 8.49206 22.4706 7.98362 22.2049 7.50706L22.8338 6.41575C22.9879 6.15 22.9454 5.82756 22.7275 5.60962L22.0436 4.924L21.3562 4.23837C21.1401 4.02225 20.8158 3.97969 20.5519 4.13206L19.4606 4.76275C18.984 4.497 18.4755 4.28437 17.9405 4.13206L17.6145 2.91669C17.5347 2.62081 17.2761 2.42062 16.9696 2.42062H15.0297C14.7232 2.42062 14.4646 2.62081 14.3848 2.91669L14.0588 4.13206H14.0589Z" fill="#FA5F17"/>
<path fill-rule="evenodd" clip-rule="evenodd" d="M14.0589 17.8022L14.3849 19.0176C14.4646 19.3134 14.7232 19.5136 15.0297 19.5136H16.9697C17.2762 19.5136 17.5348 19.3134 17.6146 19.0176L17.9406 17.8022C18.4756 17.6498 18.9841 17.4372 19.4606 17.1715L20.5519 17.8022C20.8159 17.9546 21.1401 17.9121 21.358 17.6959L22.0436 17.0102L22.7292 16.3246C22.9454 16.1085 22.9879 15.7842 22.8338 15.5185L22.2049 14.4272C22.4706 13.9524 22.6832 13.4421 22.8338 12.9071L24.0509 12.5811C24.3468 12.5032 24.5452 12.2427 24.5452 11.9362V9.99806C24.5452 9.69156 24.3468 9.43293 24.0509 9.35318L22.8338 9.02718C22.6832 8.49212 22.4706 7.98368 22.2049 7.50712L22.8338 6.41581C22.9879 6.15006 22.9454 5.82762 22.7275 5.60968L22.0436 4.92406L21.3562 4.23844C21.1401 4.02231 20.8158 3.97975 20.5519 4.13212L19.4606 4.76281C18.984 4.49706 18.4755 4.28443 17.9405 4.13212L17.6145 2.91675C17.5347 2.62087 17.2761 2.42068 16.9696 2.42068H15.0297C14.7232 2.42068 14.4646 2.62087 14.3848 2.91675L14.0588 4.13212C16.6578 3.88406 19.1701 5.12956 20.5466 7.34768C21.9232 9.564 21.9232 12.3703 20.5466 14.5867C19.1701 16.8048 16.6579 18.0502 14.0588 17.8022L14.0589 17.8022Z" fill="#F24C00"/>
<path fill-rule="evenodd" clip-rule="evenodd" d="M16.0006 15.6656C18.5872 15.6656 20.6991 13.5555 20.6991 10.9671C20.6991 8.37874 18.5872 6.26868 16.0006 6.26868C13.414 6.26868 11.3022 8.37868 11.3022 10.9671C11.3022 13.5556 13.4122 15.6656 16.0006 15.6656Z" fill="#E1DAE7"/>
<path fill-rule="evenodd" clip-rule="evenodd" d="M15.2264 15.6017C12.9994 15.2332 11.3022 13.2986 11.3022 10.9671C11.3022 8.63561 12.9995 6.70099 15.2264 6.33249C17.4534 6.70099 19.1524 8.63561 19.1524 10.9671C19.1524 13.2986 17.4534 15.2332 15.2264 15.6017Z" fill="#EBE6EF"/>
<path fill-rule="evenodd" clip-rule="evenodd" d="M16.0006 13.575C17.4374 13.575 18.6085 12.4039 18.6085 10.9671C18.6085 9.53032 17.4374 8.35925 16.0006 8.35925C14.5638 8.35925 13.391 9.53032 13.391 10.9671C13.391 12.4039 14.5638 13.575 16.0006 13.575Z" fill="#F24C00"/>
<path fill-rule="evenodd" clip-rule="evenodd" d="M15.315 13.4846C14.2059 13.1834 13.391 12.1701 13.391 10.9671C13.391 9.76418 14.2059 8.7508 15.315 8.44962C16.4223 8.7508 17.2372 9.76418 17.2372 10.9671C17.2372 12.1701 16.4223 13.1834 15.315 13.4846Z" fill="#FA5F17"/>
<path d="M16.2646 11.2329C16.1194 11.3781 15.8819 11.3781 15.7349 11.2329C15.5878 11.0858 15.5878 10.8484 15.7349 10.7014L23.5815 2.85468C23.7286 2.70762 23.9659 2.70762 24.113 2.85468C24.2582 3.00174 24.2582 3.23912 24.113 3.38443L16.2646 11.2329H16.2646Z" fill="#9992A3"/>
<path fill-rule="evenodd" clip-rule="evenodd" d="M24.7366 0.622437L22.6762 2.68287L23.0146 3.95137L24.2849 4.2915L26.3453 2.23112L25.0768 1.89094L24.7366 0.622437Z" fill="#74C3FC"/>
<path fill-rule="evenodd" clip-rule="evenodd" d="M23.0146 3.95137L24.2849 4.29149L26.3453 2.23112L25.0768 1.89093L23.0146 3.95137Z" fill="#4BB3FD"/>
</svg>
