<svg width="32" height="32" viewBox="0 0 32 32" fill="none" xmlns="http://www.w3.org/2000/svg">
<g clip-path="url(#clip0_686_3648)">
<path d="M26.6967 1.84012V15.6866C26.6967 16.7024 25.8724 17.5267 24.8566 17.5267H13.615C12.5985 17.5267 11.7749 16.7024 11.7749 15.6866V1.84012C11.7749 0.824312 12.5985 0 13.615 0H24.8566C25.8724 0 26.6967 0.824312 26.6967 1.84012Z" fill="#D3EDF5"/>
<path d="M26.6967 1.84012V15.6866C26.6967 16.7024 25.8724 17.5267 24.8566 17.5267H23.5511C24.5669 17.5267 25.3912 16.7024 25.3912 15.6866V1.84012C25.3912 0.824312 24.5669 0 23.5511 0H24.8566C25.8724 0 26.6967 0.824312 26.6967 1.84012Z" fill="#B9E5F1"/>
<path d="M26.6967 11.982V15.6866C26.6967 16.7024 25.8724 17.5267 24.8566 17.5267H13.615C12.5985 17.5267 11.7749 16.7024 11.7749 15.6866V11.982H26.6967Z" fill="#B9E5F1"/>
<path d="M29.9256 32H2.07418C1.412 32 0.875183 31.4632 0.875183 30.801V14.3315C0.875183 13.6693 1.412 13.1325 2.07418 13.1325H29.9257C30.5879 13.1325 31.1247 13.6693 31.1247 14.3315V30.801C31.1247 31.4632 30.5878 32 29.9256 32Z" fill="#D5F5FF"/>
<path d="M31.1247 14.3318V30.8013C31.1247 31.4632 30.5881 31.9999 29.9256 31.9999H28.3934C29.0559 31.9999 29.5926 31.4632 29.5926 30.8013V14.3318C29.5926 13.6692 29.0559 13.1326 28.3934 13.1326H29.9256C30.5881 13.1325 31.1247 13.6692 31.1247 14.3318Z" fill="#B9E5F1"/>
<path d="M3.85706 32H2.07418C1.412 32 0.875183 31.4632 0.875183 30.801V14.3315C0.875183 13.6693 1.412 13.1325 2.07418 13.1325H3.85706V32Z" fill="#B9F268"/>
<path d="M20.6914 20.6705H17.9076V17.8867C17.9076 17.5595 17.6424 17.2943 17.3153 17.2943H14.6846C14.3574 17.2943 14.0922 17.5596 14.0922 17.8867V20.6705H11.3084C10.9812 20.6705 10.716 20.9357 10.716 21.2629V23.8936C10.716 24.2207 10.9813 24.4859 11.3084 24.4859H14.0922V27.2697C14.0922 27.5969 14.3574 27.8621 14.6846 27.8621H17.3153C17.6424 27.8621 17.9076 27.5969 17.9076 27.2697V24.4859H20.6914C21.0186 24.4859 21.2838 24.2207 21.2838 23.8936V21.2629C21.2838 20.9357 21.0186 20.6705 20.6914 20.6705Z" fill="#8BCC3F"/>
<path d="M16.3006 6.18075C17.2008 6.18075 17.9306 5.45097 17.9306 4.55075C17.9306 3.65052 17.2008 2.92075 16.3006 2.92075C15.4003 2.92075 14.6706 3.65052 14.6706 4.55075C14.6706 5.45097 15.4003 6.18075 16.3006 6.18075Z" fill="#E9FFB3"/>
<path d="M22.4437 6.18075C23.3439 6.18075 24.0737 5.45097 24.0737 4.55075C24.0737 3.65052 23.3439 2.92075 22.4437 2.92075C21.5435 2.92075 20.8137 3.65052 20.8137 4.55075C20.8137 5.45097 21.5435 6.18075 22.4437 6.18075Z" fill="#E9FFB3"/>
<path d="M16.3006 11.0025C17.2008 11.0025 17.9306 10.2727 17.9306 9.37249C17.9306 8.47227 17.2008 7.74249 16.3006 7.74249C15.4003 7.74249 14.6706 8.47227 14.6706 9.37249C14.6706 10.2727 15.4003 11.0025 16.3006 11.0025Z" fill="#E9FFB3"/>
<path d="M22.4437 11.0025C23.3439 11.0025 24.0737 10.2727 24.0737 9.37249C24.0737 8.47227 23.3439 7.74249 22.4437 7.74249C21.5435 7.74249 20.8137 8.47227 20.8137 9.37249C20.8137 10.2727 21.5435 11.0025 22.4437 11.0025Z" fill="#E9FFB3"/>
<path d="M26.6967 28.3451H25.3617C25.0949 28.3451 24.8788 28.1289 24.8788 27.8622C24.8788 27.5955 25.095 27.3793 25.3617 27.3793H26.6967C26.9634 27.3793 27.1796 27.5955 27.1796 27.8622C27.1796 28.1289 26.9634 28.3451 26.6967 28.3451Z" fill="#B9E5F1"/>
<path d="M26.6967 30.0769H23.3765C23.1097 30.0769 22.8936 29.8607 22.8936 29.5941C22.8936 29.3274 23.1098 29.1112 23.3765 29.1112H26.6967C26.9634 29.1112 27.1796 29.3274 27.1796 29.5941C27.1796 29.8607 26.9634 30.0769 26.6967 30.0769Z" fill="#B9E5F1"/>
</g>
<defs>
<clipPath id="clip0_686_3648">
<rect width="32" height="32" fill="white"/>
</clipPath>
</defs>
</svg>
