<svg width="30" height="29" viewBox="0 0 30 29" fill="none" xmlns="http://www.w3.org/2000/svg">
<path d="M25.6119 6.75627C26.9281 8.02906 27.3639 9.82976 26.922 11.4534C28.4217 12.2993 29.4303 13.8706 29.4303 15.6706C29.4303 17.4707 28.4217 19.042 26.922 19.8879C27.3639 21.5115 26.9281 23.3122 25.6119 24.585C24.2957 25.8578 22.4335 26.2793 20.7545 25.8519C19.8798 27.3022 18.2549 28.2775 16.3935 28.2775C14.5321 28.2775 12.9072 27.3022 12.0324 25.8519C10.3534 26.2793 8.49127 25.8578 7.17507 24.585C5.85888 23.3122 5.42306 21.5115 5.86494 19.8879C4.36519 19.042 3.35666 17.4707 3.35666 15.6706C3.35666 13.8706 4.36519 12.2993 5.86494 11.4534C5.42306 9.82976 5.85888 8.02906 7.17507 6.75627C8.49127 5.48348 10.3534 5.06203 12.0324 5.48934C12.9072 4.03905 14.5321 3.06378 16.3935 3.06378C18.2549 3.06378 19.8798 4.03905 20.7545 5.48928C22.4335 5.06197 24.2957 5.48342 25.6119 6.75627Z" fill="#FD77A6"/>
<path d="M9.51563 11.8144C10.0556 11.8144 10.4934 11.3912 10.4934 10.8692C10.4934 10.3471 10.0556 9.92389 9.51563 9.92389C8.97563 9.92389 8.53787 10.3471 8.53787 10.8692C8.53787 11.3912 8.97563 11.8144 9.51563 11.8144Z" fill="#FE3D97"/>
<path d="M18.475 6.75627C19.1296 6.12328 19.9195 5.70183 20.7545 5.48934C19.8798 4.03905 18.2548 3.06378 16.3935 3.06378C14.5321 3.06378 12.9071 4.03905 12.0324 5.48934C12.8674 5.70183 13.6573 6.12328 14.3119 6.75627C15.6934 8.09228 16.1061 10.0101 15.5504 11.6941C15.3678 12.2473 15.7796 12.8224 16.38 12.824H16.3934H16.4068C17.0072 12.8224 17.4189 12.2473 17.2364 11.6941C16.6808 10.0101 17.0935 8.09228 18.475 6.75627Z" fill="#FE3D97"/>
<path d="M25.6119 17.6836C26.2664 18.3166 26.7023 19.0804 26.922 19.8879C28.4218 19.042 29.4303 17.4707 29.4303 15.6706C29.4303 13.8706 28.4218 12.2993 26.922 11.4534C26.7023 12.2609 26.2664 13.0247 25.6119 13.6577C24.2303 14.9937 22.2471 15.3928 20.5057 14.8554C19.9336 14.6789 19.3388 15.077 19.3372 15.6577V15.6706V15.6835C19.3388 16.2642 19.9336 16.6623 20.5057 16.4858C22.2471 15.9485 24.2303 16.3476 25.6119 17.6836Z" fill="#FE3D97"/>
<path d="M7.17508 17.6836C6.5205 18.3166 6.08468 19.0804 5.86494 19.8879C4.36519 19.042 3.35666 17.4707 3.35666 15.6706C3.35666 13.8706 4.36519 12.2993 5.86494 11.4534C6.08468 12.2609 6.5205 13.0247 7.17508 13.6577C8.55665 14.9937 10.5399 15.3928 12.2813 14.8554C12.8533 14.6789 13.4481 15.077 13.4497 15.6577V15.6706V15.6835C13.4481 16.2642 12.8534 16.6623 12.2813 16.4858C10.5399 15.9485 8.55665 16.3476 7.17508 17.6836Z" fill="#FE3D97"/>
<path d="M18.475 24.585C19.1296 25.218 19.9195 25.6395 20.7545 25.8519C19.8798 27.3022 18.2548 28.2775 16.3935 28.2775C14.5321 28.2775 12.9071 27.3022 12.0324 25.8519C12.8674 25.6395 13.6573 25.218 14.3119 24.585C15.6934 23.249 16.1061 21.3312 15.5504 19.6472C15.3678 19.094 15.7796 18.5188 16.38 18.5173H16.3934H16.4068C17.0072 18.5188 17.4189 19.094 17.2364 19.6472C16.6808 21.3312 17.0935 23.249 18.475 24.585Z" fill="#FE3D97"/>
<path d="M15.2334 15.1095C15.5538 15.1095 15.8134 14.8584 15.8134 14.5487C15.8134 14.239 16.0731 13.9879 16.3934 13.9879C16.7138 13.9879 16.9734 14.239 16.9734 14.5487C16.9734 14.8585 17.2331 15.1095 17.5534 15.1095C17.8737 15.1095 18.1334 15.3605 18.1334 15.6702C18.1334 15.9799 17.8737 16.2309 17.5534 16.2309C17.2331 16.2309 16.9734 16.482 16.9734 16.7917C16.9734 17.1014 16.7137 17.3524 16.3934 17.3524C16.0731 17.3524 15.8134 17.1013 15.8134 16.7917C15.8134 16.482 15.5537 16.2309 15.2334 16.2309C14.913 16.2309 14.6533 15.9799 14.6533 15.6702C14.6534 15.3605 14.9131 15.1095 15.2334 15.1095Z" fill="#FE3D97"/>
<path d="M16.7626 16.0276C16.5587 16.2248 16.2282 16.2248 16.0243 16.0276L10.8564 11.0301C10.6525 10.833 10.6525 10.5134 10.8564 10.3162C11.0603 10.119 11.3908 10.119 11.5947 10.3162L16.7626 15.3137C16.9665 15.5109 16.9665 15.8305 16.7626 16.0276Z" fill="white"/>
<path d="M12.5791 11.9821C12.1714 12.3764 11.5103 12.3764 11.1025 11.9821L8.88773 9.8403L10.3643 8.41245L12.5791 10.5542C12.9868 10.9485 12.9868 11.5877 12.5791 11.9821Z" fill="#E8F8FC"/>
<path d="M11.8408 11.2676C12.1139 11.5316 12.5005 11.6178 12.8486 11.5282C12.8029 11.6941 12.7137 11.8511 12.5791 11.9813C12.1714 12.3755 11.5103 12.3755 11.1025 11.9813L8.88773 9.84011L9.626 9.12637L11.8408 11.2676Z" fill="#ADE9F7"/>
<path d="M0 2.67347L7.65724 10.0782C8.47269 10.8668 9.79482 10.8668 10.6103 10.0782C11.4258 9.28968 11.4258 8.01116 10.6103 7.22254L3.14141 0C1.97651 0.755592 0.920399 1.6556 0 2.67347Z" fill="#ADE9F7"/>
<path d="M0 2.67347L7.65724 10.0782C8.47269 10.8668 9.79488 10.8668 10.6103 10.0782C10.8793 9.8181 11.0591 9.50444 11.1506 9.17282C10.454 9.35259 9.68022 9.17881 9.13378 8.65039L1.47401 1.24323C0.951165 1.68863 0.458635 2.16624 0 2.67347Z" fill="#6AD9FB"/>
<path d="M21.5575 9.34622C22.0975 9.34622 22.5352 8.92301 22.5352 8.40095C22.5352 7.8789 22.0975 7.45569 21.5575 7.45569C21.0175 7.45569 20.5797 7.8789 20.5797 8.40095C20.5797 8.92301 21.0175 9.34622 21.5575 9.34622Z" fill="#FE3D97"/>
<path d="M21.5575 23.4613C22.0975 23.4613 22.5352 23.0381 22.5352 22.516C22.5352 21.9939 22.0975 21.5707 21.5575 21.5707C21.0175 21.5707 20.5797 21.9939 20.5797 22.516C20.5797 23.0381 21.0175 23.4613 21.5575 23.4613Z" fill="#FE3D97"/>
<path d="M10.4934 20.4079C11.0334 20.4079 11.4711 19.9847 11.4711 19.4626C11.4711 18.9405 11.0334 18.5173 10.4934 18.5173C9.95338 18.5173 9.51562 18.9405 9.51562 19.4626C9.51562 19.9847 9.95338 20.4079 10.4934 20.4079Z" fill="#FE3D97"/>
<path d="M27.2857 17.6955C27.8257 17.6955 28.2635 17.2723 28.2635 16.7503C28.2635 16.2282 27.8257 15.805 27.2857 15.805C26.7457 15.805 26.308 16.2282 26.308 16.7503C26.308 17.2723 26.7457 17.6955 27.2857 17.6955Z" fill="#FF0363"/>
<path d="M17.3712 26.747C17.9112 26.747 18.349 26.3238 18.349 25.8018C18.349 25.2797 17.9112 24.8565 17.3712 24.8565C16.8312 24.8565 16.3935 25.2797 16.3935 25.8018C16.3935 26.3238 16.8312 26.747 17.3712 26.747Z" fill="#FF0363"/>
<path d="M24.1256 10.5532C24.4856 10.5532 24.7774 10.2712 24.7774 9.92337C24.7774 9.57551 24.4856 9.29352 24.1256 9.29352C23.7656 9.29352 23.4738 9.57551 23.4738 9.92337C23.4738 10.2712 23.7656 10.5532 24.1256 10.5532Z" fill="#FE3D97"/>
<path d="M25.2375 21.1476C25.5975 21.1476 25.8893 20.8656 25.8893 20.5178C25.8893 20.1699 25.5975 19.8879 25.2375 19.8879C24.8775 19.8879 24.5857 20.1699 24.5857 20.5178C24.5857 20.8656 24.8775 21.1476 25.2375 21.1476Z" fill="#FE3D97"/>
<path d="M21.8834 19.777C22.2434 19.777 22.5352 19.495 22.5352 19.1472C22.5352 18.7993 22.2434 18.5173 21.8834 18.5173C21.5234 18.5173 21.2316 18.7993 21.2316 19.1472C21.2316 19.495 21.5234 19.777 21.8834 19.777Z" fill="#FE3D97"/>
<path d="M8.18028 21.541C8.54028 21.541 8.83212 21.259 8.83212 20.9112C8.83212 20.5633 8.54028 20.2813 8.18028 20.2813C7.82028 20.2813 7.52844 20.5633 7.52844 20.9112C7.52844 21.259 7.82028 21.541 8.18028 21.541Z" fill="#FE3D97"/>
<path d="M27.2857 14.6603C27.6457 14.6603 27.9376 14.3783 27.9376 14.0305C27.9376 13.6826 27.6457 13.4006 27.2857 13.4006C26.9257 13.4006 26.6339 13.6826 26.6339 14.0305C26.6339 14.3783 26.9257 14.6603 27.2857 14.6603Z" fill="#FF0363"/>
<path d="M18.1336 5.51415C18.4936 5.51415 18.7855 5.23216 18.7855 4.88431C18.7855 4.53645 18.4936 4.25446 18.1336 4.25446C17.7736 4.25446 17.4818 4.53645 17.4818 4.88431C17.4818 5.23216 17.7736 5.51415 18.1336 5.51415Z" fill="#FF0363"/>
<path d="M16.0322 6.58578C16.3922 6.58578 16.6841 6.30379 16.6841 5.95593C16.6841 5.60807 16.3922 5.32608 16.0322 5.32608C15.6722 5.32608 15.3804 5.60807 15.3804 5.95593C15.3804 6.30379 15.6722 6.58578 16.0322 6.58578Z" fill="#FF0363"/>
<path d="M5.9435 16.7495C6.3035 16.7495 6.59534 16.4675 6.59534 16.1197C6.59534 15.7718 6.3035 15.4898 5.9435 15.4898C5.5835 15.4898 5.29166 15.7718 5.29166 16.1197C5.29166 16.4675 5.5835 16.7495 5.9435 16.7495Z" fill="#FF0363"/>
<path d="M12.0324 23.7759C12.3924 23.7759 12.6842 23.4939 12.6842 23.1461C12.6842 22.7982 12.3924 22.5162 12.0324 22.5162C11.6724 22.5162 11.3806 22.7982 11.3806 23.1461C11.3806 23.4939 11.6724 23.7759 12.0324 23.7759Z" fill="#FE3D97"/>
</svg>
