<svg width="32" height="32" viewBox="0 0 32 32" fill="none" xmlns="http://www.w3.org/2000/svg">
<path fill-rule="evenodd" clip-rule="evenodd" d="M29 2V27.5C29 29.709 27.209 31.5 25 31.5H16.5C14.291 31.5 12.5 29.709 12.5 27.5V26.5H14.5V27.5C14.5 28.0305 14.7105 28.539 15.086 28.914C15.461 29.2895 15.9695 29.5 16.5 29.5H25C25.5305 29.5 26.039 29.2895 26.414 28.914C26.7895 28.539 27 28.0305 27 27.5C27 21.329 27 2 27 2H29Z" fill="#E23737"/>
<path fill-rule="evenodd" clip-rule="evenodd" d="M28.5 2V27.5C28.5 29.433 26.933 31 25 31H16.5C14.567 31 13 29.433 13 27.5V26.5C13 26.224 12.776 26 12.5 26C12.224 26 12 26.224 12 26.5V27.5C12 29.9855 14.0145 32 16.5 32H25C27.4855 32 29.5 29.9855 29.5 27.5C29.5 19.6535 29.5 2 29.5 2C29.5 1.724 29.276 1.5 29 1.5C28.724 1.5 28.5 1.724 28.5 2ZM14 26.5V27.5C14 28.163 14.2635 28.799 14.732 29.268C15.201 29.7365 15.837 30 16.5 30H25C25.663 30 26.299 29.7365 26.768 29.268C27.2365 28.799 27.5 28.163 27.5 27.5C27.5 21.329 27.5 2 27.5 2C27.5 1.724 27.276 1.5 27 1.5C26.724 1.5 26.5 1.724 26.5 2V27.5C26.5 27.898 26.342 28.2795 26.0605 28.5605C25.7795 28.842 25.398 29 25 29H16.5C16.102 29 15.7205 28.842 15.4395 28.5605C15.158 28.2795 15 27.898 15 27.5V26.5C15 26.224 14.776 26 14.5 26C14.224 26 14 26.224 14 26.5Z" fill="#EAFFFF"/>
<path fill-rule="evenodd" clip-rule="evenodd" d="M10.54 2.5H6.5C5.57 2.5 4.68002 2.8685 4.02502 3.525C3.37002 4.1815 3 5.0715 3 6V19.146C3 20.4715 3.75 21.6835 4.935 22.2765L10 24.809V26C10 26.8285 10.67 27.5 11.5 27.5H15.5C16.33 27.5 17 26.8285 17 26V24.809L22.065 22.2765C23.25 21.6835 24 20.4715 24 19.146C24 16.037 24 9.7455 24 6C24 5.0715 23.63 4.1815 22.975 3.525C22.32 2.8685 21.43 2.5 20.5 2.5H16.46C16.22 1.082 14.985 0 13.5 0C12.015 0 10.78 1.082 10.54 2.5Z" fill="#EAFFFF"/>
<path fill-rule="evenodd" clip-rule="evenodd" d="M14.5 25.0002V23.2497C14.5 23.2497 17.2375 21.881 19.289 20.8557C20.644 20.1777 21.5 18.7932 21.5 17.2775C21.5 15.1362 21.5 11.9982 21.5 9.49999C21.5 8.43949 21.0785 7.42174 20.3285 6.67174C19.5785 5.92174 18.561 5.50024 17.5 5.50024C15.0565 5.50024 11.9435 5.50024 9.5 5.50024C8.439 5.50024 7.4215 5.92174 6.6715 6.67174C5.9215 7.42174 5.5 8.43949 5.5 9.49999V17.2775C5.5 18.7932 6.356 20.1777 7.711 20.8557C9.7625 21.881 12.5 23.2497 12.5 23.2497V25.0002H14.5Z" fill="#CCFFFF"/>
<path d="M13.505 4.01601C14.0576 4.01601 14.5055 3.56808 14.5055 3.01551C14.5055 2.46295 14.0576 2.01501 13.505 2.01501C12.9525 2.01501 12.5045 2.46295 12.5045 3.01551C12.5045 3.56808 12.9525 4.01601 13.505 4.01601Z" fill="#BED4D4"/>
<path fill-rule="evenodd" clip-rule="evenodd" d="M5.5 9.5C7.94 10.4005 10.35 10.488 12.765 10.5C13.005 10.501 13.985 10.5005 14.225 10.5C16.665 10.4965 19.085 10.4115 21.5 9.5V17.278C21.5 18.793 20.645 20.178 19.29 20.8555C17.24 21.881 14.5 23.25 14.5 23.25V25H12.5V23.25C12.5 23.25 9.76502 21.881 7.71002 20.8555C6.35502 20.178 5.5 18.793 5.5 17.278V9.5Z" fill="#E23737"/>
<path fill-rule="evenodd" clip-rule="evenodd" d="M13.895 9.193C13.8 9.0715 13.655 9 13.5 9C13.345 9 13.2 9.0715 13.105 9.193C13.105 9.193 11.6 11.131 10.695 13.046C10.285 13.922 10 14.7975 10 15.5C10 17.4315 11.57 19 13.5 19C15.43 19 17 17.4315 17 15.5C17 14.7975 16.715 13.922 16.305 13.046C15.4 11.131 13.895 9.193 13.895 9.193Z" fill="#F85D70"/>
</svg>
