<svg width="15" height="36" viewBox="0 0 15 36" fill="none" xmlns="http://www.w3.org/2000/svg">
<path fill-rule="evenodd" clip-rule="evenodd" d="M2.62102 34.4412L3.10594 21.3218L11.9881 21.3433L11.393 34.5703H8.17521C8.17521 34.5703 8.96872 27.2674 7.99895 24.8547C7.02923 22.4419 6.72064 25.1563 6.72064 25.1563C6.72064 25.1563 5.61867 32.1361 5.97131 34.4842L2.62102 34.4412Z" fill="#002633"/>
<path fill-rule="evenodd" clip-rule="evenodd" d="M4.54802 10.0592C3.63156 10.5115 2.23837 11.7335 0.440414 14.8773C0.440414 14.8773 -1.51442 15.7678 2.81282 18.5875L2.47118 23.8189L6.15314 23.6704L6.20554 9.26001L5.91788 9.28849C5.76016 9.30407 5.27888 9.69855 4.54802 10.0592Z" fill="#18FFFF"/>
<path fill-rule="evenodd" clip-rule="evenodd" d="M10.5438 10.1062C11.4604 10.5937 12.8207 11.8367 14.5596 14.8772C14.5596 14.8772 16.5144 15.7676 12.1872 18.5874L12.5288 23.8187L8.84686 23.6703L8.80941 9.22651C9.53157 9.36768 9.69763 9.65611 10.5438 10.1062Z" fill="#18FFFF"/>
<path fill-rule="evenodd" clip-rule="evenodd" d="M4.53622 11.015L6.66864 11.2002L6.17102 9.37072L4.53622 11.015Z" fill="#FFD54F"/>
<path fill-rule="evenodd" clip-rule="evenodd" d="M10.4589 10.984L8.32646 11.1694L8.82398 9.33978L10.4589 10.984Z" fill="#FFD54F"/>
<path fill-rule="evenodd" clip-rule="evenodd" d="M6.1875 11.1587L6.15968 21.3292L8.84056 21.3357L8.81263 11.1272L8.32646 11.1694L7.48611 12.3054L6.66864 11.2002L6.1875 11.1587Z" fill="#90CAF9"/>
<path fill-rule="evenodd" clip-rule="evenodd" d="M6.17102 9.37072L6.66864 11.2002L7.48611 12.3054L8.32646 11.1694L8.82398 9.33978C8.38786 9.47905 7.92935 9.55106 7.44566 9.55106C7.0025 9.55106 6.57503 9.48842 6.17102 9.37072Z" fill="#FCDBC1"/>
<path fill-rule="evenodd" clip-rule="evenodd" d="M8.504 34.4014L8.55074 35.9086L9.71895 36L9.60407 35.5132L10.7003 35.6802L11.2494 35.9543L12.9667 35.9315C12.9667 35.9315 13.4807 35.2806 12.0204 34.8239C10.5601 34.3671 10.6739 34.2643 10.6739 34.2643L8.501 34.2757L8.50681 34.4915L8.504 34.4014Z" fill="#78909C"/>
<path fill-rule="evenodd" clip-rule="evenodd" d="M5.5272 34.4014L5.48046 35.9086L4.31221 36L4.40716 35.5979L3.33089 35.6803L2.78182 35.9543L1.0645 35.9315C1.0645 35.9315 0.55047 35.2806 2.01077 34.8239C3.47108 34.3671 3.35726 34.2643 3.35726 34.2643L5.53016 34.2758L5.52439 34.4915L5.5272 34.4014Z" fill="#78909C"/>
<path d="M4.97263 14.4104C4.46149 13.8502 4.07096 12.9005 3.93548 12.0087C3.80936 11.1788 3.90463 10.3919 4.32727 9.99656C5.71417 8.69925 7.73644 8.68023 9.27433 9.29785C9.80687 9.51168 10.2821 9.80209 10.6534 10.1424C11.0288 10.4862 11.299 10.882 11.4171 11.3031C11.6212 12.0309 11.3728 12.8248 10.4322 13.5447L10.3145 13.3975C11.1842 12.7319 11.4169 12.0089 11.2327 11.3521C11.1245 10.9662 10.873 10.5999 10.5223 10.2786C10.1677 9.95372 9.71266 9.67591 9.20164 9.47066C7.72374 8.87716 5.78397 8.89208 4.45915 10.1313C4.08634 10.48 4.00721 11.2061 4.12506 11.9816C4.25556 12.8407 4.62869 13.7521 5.11575 14.2859L4.97263 14.4104Z" fill="#8D6E63"/>
<path d="M7.44651 9.55308C9.90966 9.55308 11.9064 7.60137 11.9064 5.19381C11.9064 2.78625 9.90966 0.834543 7.44651 0.834543C4.98336 0.834543 2.98658 2.78625 2.98658 5.19381C2.98658 7.60137 4.98336 9.55308 7.44651 9.55308Z" fill="#FCC197"/>
<path d="M5.3371 15.3557C5.6755 15.3557 5.94984 15.0875 5.94984 14.7567C5.94984 14.426 5.6755 14.1578 5.3371 14.1578C4.99869 14.1578 4.72436 14.426 4.72436 14.7567C4.72436 15.0875 4.99869 15.3557 5.3371 15.3557Z" fill="#A1887F"/>
<path d="M5.33708 14.9924C5.47023 14.9924 5.57816 14.8869 5.57816 14.7568C5.57816 14.6267 5.47023 14.5212 5.33708 14.5212C5.20394 14.5212 5.09601 14.6267 5.09601 14.7568C5.09601 14.8869 5.20394 14.9924 5.33708 14.9924Z" fill="#5D4037"/>
<path d="M10.5508 13.5079C10.5403 13.5108 6.85409 14.5189 9.8725 16.3199L9.7728 16.4795C6.37843 14.4542 10.4867 13.3309 10.4984 13.3276L10.5508 13.5079Z" fill="#5D4037"/>
<path d="M9.81017 16.7386C9.95937 16.8129 10.1464 16.7462 10.2279 16.5898C10.3094 16.4333 10.2545 16.2463 10.1053 16.1721C9.9561 16.0978 9.76908 16.1644 9.68758 16.3209C9.60608 16.4773 9.66096 16.6643 9.81017 16.7386Z" fill="#6D4C41"/>
<path d="M10.4412 13.3018C10.4529 13.3053 14.5367 14.5101 11.1007 16.4674L11.0048 16.3056C14.0601 14.5651 10.3954 13.4837 10.385 13.4805L10.4412 13.3018Z" fill="#5D4037"/>
<path d="M11.0637 16.7219C10.9129 16.7931 10.7273 16.7228 10.6491 16.5648C10.5709 16.4067 10.6296 16.2208 10.7804 16.1495C10.9311 16.0783 11.1167 16.1486 11.1949 16.3066C11.2732 16.4647 11.2144 16.6506 11.0637 16.7219Z" fill="#6D4C41"/>
<path fill-rule="evenodd" clip-rule="evenodd" d="M12.2836 4.53802C12.8751 5.69571 11.8037 6.4662 11.4325 6.50254C11.563 6.2945 11.7995 4.92321 12.0083 4.57431C12.0625 4.48371 12.2572 4.4863 12.2836 4.53802Z" fill="#FCC197"/>
<path fill-rule="evenodd" clip-rule="evenodd" d="M12.1827 4.82563C12.5977 5.63787 11.846 6.17845 11.5856 6.20392C11.6771 6.05797 11.8431 5.0959 11.9896 4.85115C12.0276 4.78756 12.1642 4.78937 12.1827 4.82563Z" fill="#EABE9E"/>
<path fill-rule="evenodd" clip-rule="evenodd" d="M2.67969 4.53802C2.08814 5.69571 3.15959 6.4662 3.53077 6.50254C3.40031 6.2945 3.16378 4.92321 2.95497 4.57431C2.90075 4.48371 2.7061 4.4863 2.67969 4.53802Z" fill="#FCC197"/>
<path fill-rule="evenodd" clip-rule="evenodd" d="M2.78068 4.82563C2.36568 5.63787 3.11739 6.17845 3.3778 6.20392C3.28629 6.05797 3.12031 5.0959 2.97383 4.85115C2.93579 4.78756 2.79923 4.78937 2.78068 4.82563Z" fill="#EABE9E"/>
<path fill-rule="evenodd" clip-rule="evenodd" d="M3.64137 6.33571C3.61986 6.32113 3.60167 6.30478 3.57782 6.28522C3.2588 6.0238 3.26983 5.11462 3.74269 4.65243C4.24917 4.15735 3.33746 2.90318 5.22842 3.1012C7.11939 3.29923 7.38954 3.62926 8.60516 2.96916C9.82079 2.30906 10.9351 2.47407 10.8676 3.72829C10.8 4.9825 11.5092 5.21354 11.5092 5.21354C11.5092 5.21354 11.9611 5.23762 11.4417 6.01662C10.7667 7.02871 13.868 3.99791 11.3488 1.54997C10.155 0.390035 10.0486 -0.28189 6.53678 0.114165C3.02499 0.510254 2.82238 3.67874 2.82238 3.67874C2.82238 3.67874 2.58894 5.40825 3.47332 6.20522C3.47281 6.20475 3.47384 6.20568 3.47332 6.20522C3.52493 6.2516 3.5819 6.2962 3.64137 6.33571Z" fill="#453234"/>
</svg>
