<svg width="32" height="32" viewBox="0 0 32 32" fill="none" xmlns="http://www.w3.org/2000/svg">
<path d="M22.6069 0H9.39325C8.54519 0 7.79325 0.551625 7.54588 1.36281C7.09763 2.83288 5.94175 3.99231 4.46713 4.44081C3.65638 4.68738 3.10606 5.44031 3.10606 6.28769V18.7921C3.10606 22.7891 5.282 26.4691 8.78419 28.3954L14.6575 31.6257L14.9364 31.6231C15.7103 32.0488 16.4532 31.7518 17.2271 31.3262L22.9536 28.0132C26.4559 26.0869 28.6318 22.4069 28.6318 18.4099L28.6778 6.57638C28.6778 5.729 28.1274 4.97606 27.3167 4.7295C25.8421 4.281 24.7735 3.15756 24.3252 1.68744C24.1091 0.978688 23.5669 0.3615 22.9228 0.0255C22.8196 0.008625 22.714 0 22.6069 0Z" fill="#6289CC"/>
<path d="M28.894 6.28763V18.792C28.894 22.7891 26.7184 26.4694 23.2158 28.3952L17.2427 31.6808C16.4688 32.1064 15.5314 32.1064 14.7574 31.6808L14.6576 31.6254L22.5951 27.2671C25.6863 25.5673 27.6063 22.3197 27.6063 18.792V6.28763C27.6063 6.00563 27.4222 5.75326 27.1582 5.67276C25.2697 5.09845 23.7985 3.62788 23.2222 1.73813C23.1778 1.59263 23.0638 0.753822 22.9228 0.0256348C23.6369 0.143447 24.2382 0.653885 24.4546 1.36276C24.9027 2.8327 26.0584 3.99226 27.5329 4.44107C28.3435 4.68763 28.894 5.44032 28.894 6.28763Z" fill="#4A6BB2"/>
<path d="M10.0269 26.1358C7.34863 24.6627 5.68481 21.8488 5.68481 18.7921V6.87901C5.68481 6.79833 5.73538 6.72701 5.81075 6.69833C7.65294 5.99708 9.07063 4.51445 9.80275 2.70089C9.83238 2.62745 9.90281 2.57883 9.982 2.57883H22.0183C22.0974 2.57883 22.1678 2.62745 22.1974 2.70083C22.9312 4.51351 24.3806 5.96301 26.1934 6.69676C26.2668 6.72645 26.3154 6.79683 26.3154 6.87595V18.7921C26.3154 21.8486 24.6514 24.6628 21.9733 26.1358L16.1242 29.3528C16.0469 29.3953 15.9533 29.3953 15.8759 29.3528L10.0269 26.1358Z" fill="#4A6BB2"/>
<path d="M16.4829 1.80875V29.9127L16.1243 30.121C16.0471 30.1659 15.9531 30.1659 15.8758 30.121L15.5172 29.9127V1.80875H16.4829Z" fill="#6289CC"/>
<path d="M19.992 17.6305C20.8744 15.8657 20.8091 13.9303 20.4494 12.0302C20.3184 12.089 20.0436 11.8924 20.0436 11.8924C19.9559 11.8642 19.8742 11.8144 19.8062 11.7451C19.1366 11.0627 18.2847 10.5601 17.3294 10.3151C17.0751 10.2499 16.8957 10.0235 16.8957 9.76098V9.75967C16.8957 9.10774 17.1148 8.47867 17.4998 7.95255C17.6551 7.74024 17.7794 7.51367 17.7794 7.33198C17.7794 6.67255 17.2037 6.33786 16.0002 6.33786C14.7967 6.33786 14.2209 6.67255 14.2209 7.33198C14.2209 7.51367 14.3452 7.7403 14.5006 7.95255C14.8856 8.47867 15.1047 9.10774 15.1047 9.75967V9.76098C15.1047 10.0235 14.9252 10.2499 14.671 10.3151C13.7157 10.5602 12.8638 11.0627 12.1941 11.7451C12.0101 11.9327 11.7243 11.9755 11.4967 11.8442L11.4955 11.8435C10.9309 11.5175 10.4957 11.0132 10.2325 10.4167C10.1263 10.176 9.99219 9.95511 9.83487 9.8643C9.26375 9.53455 8.68606 9.86586 8.08431 10.9081C7.48256 11.9504 7.4845 12.6164 8.05562 12.946C8.21294 13.0369 8.47137 13.0425 8.73287 13.0142C9.381 12.9438 10.0353 13.0685 10.5999 13.3945C10.8277 13.526 10.9332 13.7951 10.8628 14.0485C10.7363 14.5035 10.6685 14.983 10.6685 15.4784C10.6685 15.9737 10.7363 16.4532 10.8628 16.9082C10.9332 17.1616 10.8277 17.4307 10.5999 17.5622C10.0353 17.8882 9.381 18.0129 8.73287 17.9425C8.47137 17.9142 8.21294 17.9199 8.05562 18.0107C7.4845 18.3404 7.48256 19.0064 8.08431 20.0486C8.68606 21.0909 9.26375 21.4222 9.83487 21.0924C9.99225 21.0015 10.1263 20.7807 10.2325 20.54C10.4956 19.9435 10.9309 19.4392 11.4955 19.1132L11.4967 19.1125C11.7243 18.9812 12.0101 19.024 12.1941 19.2116C12.3182 19.338 12.4485 19.4582 12.5846 19.5717C12.9214 19.8527 13.4416 20.0235 13.8412 20.2155C16.2129 20.0204 18.7812 19.942 19.992 17.6305Z" fill="#70F2A3"/>
<path d="M23.9163 20.0488C23.3143 21.0906 22.7368 21.4222 22.1657 21.0925C22.0073 21.0011 21.8728 20.7789 21.7665 20.5369C21.5044 19.9413 21.0686 19.4384 20.5052 19.1133L20.5039 19.1127C20.2759 18.9813 19.9901 19.0238 19.8059 19.2119C19.1363 19.8944 18.2845 20.3966 17.3296 20.6419C17.0753 20.7069 16.8957 20.9336 16.8957 21.1956V21.1969C16.8957 21.8492 17.1146 22.4782 17.4996 23.0043C17.6548 23.2168 17.7791 23.4434 17.7791 23.6249C17.7791 24.2843 17.2034 24.6191 16.0001 24.6191C14.7967 24.6191 14.2211 24.2843 14.2211 23.6249C14.2211 23.4428 14.346 23.2154 14.5018 23.0023C14.8868 22.4776 15.1044 21.8485 15.1044 21.1969V21.1956C15.1044 20.9336 14.9248 20.7069 14.6705 20.6419C13.8927 20.4423 13.1826 20.0714 12.5844 19.5718C13.2546 19.8441 13.9873 19.9941 14.7555 19.9941C17.9452 19.9941 20.5309 17.4078 20.5309 14.2181C20.5309 13.3907 20.3571 12.6039 20.0436 11.8924C20.1936 11.9408 20.3603 11.9272 20.5039 11.8441L20.5053 11.8435C21.0686 11.5177 21.5045 11.0155 21.7666 10.4193C21.8728 10.1779 22.0074 9.95575 22.1658 9.86431C22.7369 9.53469 23.3144 9.86563 23.9164 10.908C24.5178 11.9504 24.5158 12.6162 23.9447 12.9458C23.7876 13.0366 23.5288 13.0424 23.2674 13.0141C23.1515 13.0012 23.0349 12.9954 22.9184 12.9954C22.3878 12.9954 21.8638 13.1274 21.4001 13.3946C21.1729 13.5259 21.0673 13.7951 21.1374 14.0488C21.2643 14.5033 21.3319 14.983 21.3319 15.4781C21.3319 15.9739 21.2643 16.4529 21.1374 16.9081C21.1233 16.9603 21.1162 17.0131 21.1162 17.0659C21.1162 17.2668 21.2199 17.458 21.4001 17.5623C21.9648 17.8881 22.6196 18.013 23.2673 17.9428C23.5287 17.9145 23.7876 17.9196 23.9446 18.0104C24.5158 18.3407 24.5177 19.0064 23.9163 20.0488Z" fill="#50DD88"/>
<path d="M13.8753 14.9246C14.3722 14.9246 14.7751 14.5218 14.7751 14.0249C14.7751 13.528 14.3722 13.1251 13.8753 13.1251C13.3784 13.1251 12.9756 13.528 12.9756 14.0249C12.9756 14.5218 13.3784 14.9246 13.8753 14.9246Z" fill="#50DD88"/>
<path d="M14.6706 17.1618C14.4039 17.1618 14.1874 16.9456 14.1874 16.679C14.1874 16.4123 14.4033 16.1961 14.6699 16.1961H14.6706C14.9373 16.1961 15.1535 16.4123 15.1535 16.679C15.1534 16.9456 14.9373 17.1618 14.6706 17.1618Z" fill="#50DD88"/>
<path d="M18.0896 12.7559C17.8229 12.7559 17.6064 12.5398 17.6064 12.2731C17.6064 12.0064 17.8223 11.7902 18.0889 11.7902H18.0896C18.3563 11.7902 18.5725 12.0064 18.5725 12.2731C18.5725 12.5398 18.3563 12.7559 18.0896 12.7559Z" fill="#50DD88"/>
<path d="M16.2905 12.7077C16.0238 12.7077 15.8073 12.4915 15.8073 12.2248C15.8073 11.9581 16.0232 11.7419 16.2899 11.7419H16.2906C16.5572 11.7419 16.7734 11.9581 16.7734 12.2248C16.7734 12.4915 16.5572 12.7077 16.2905 12.7077Z" fill="#50DD88"/>
<path d="M12.9602 17.6854C12.6935 17.6854 12.477 17.4693 12.477 17.2026C12.477 16.9359 12.6929 16.7197 12.9596 16.7197H12.9603C13.2269 16.7197 13.4431 16.9359 13.4431 17.2026C13.4431 17.4693 13.2269 17.6854 12.9602 17.6854Z" fill="#50DD88"/>
<path d="M14.2079 18.8928C13.9412 18.8928 13.7247 18.6766 13.7247 18.4099C13.7247 18.1432 13.9406 17.9271 14.2072 17.9271H14.2079C14.4746 17.9271 14.6908 18.1432 14.6908 18.4099C14.6908 18.6766 14.4746 18.8928 14.2079 18.8928Z" fill="#50DD88"/>
<path d="M18.0604 17.888C18.7361 17.888 19.2838 17.3403 19.2838 16.6647C19.2838 15.9891 18.7361 15.4414 18.0604 15.4414C17.3848 15.4414 16.8371 15.9891 16.8371 16.6647C16.8371 17.3403 17.3848 17.888 18.0604 17.888Z" fill="#50DD88"/>
</svg>
