<svg width="32" height="32" viewBox="0 0 32 32" fill="none" xmlns="http://www.w3.org/2000/svg">
<g clip-path="url(#clip0_686_5036)">
<path d="M15.3125 31.3125C23.7694 31.3125 30.625 24.4569 30.625 16C30.625 7.54314 23.7694 0.6875 15.3125 0.6875C6.85564 0.6875 0 7.54314 0 16C0 24.4569 6.85564 31.3125 15.3125 31.3125Z" fill="#FFE5C2"/>
<path d="M28.8597 16.1875C28.1489 16.7187 27.3489 17.128 26.5009 17.3853C26.4176 16.5896 26.2469 15.8064 25.9966 15.0498C25.4564 15.2364 24.8775 15.3392 24.2747 15.3392C21.359 15.3392 18.9869 12.9671 18.9869 10.0514C18.9869 9.35244 19.1244 8.68537 19.3719 8.07406C18.6289 7.78469 17.8556 7.57356 17.0656 7.44931C17.9723 4.93688 20.1127 3.11294 22.6576 2.5625C20.477 1.36775 17.9744 0.6875 15.3125 0.6875C11.313 0.6875 7.67218 2.2215 4.94474 4.73244C5.78518 7.4335 5.32643 10.3794 3.64306 12.6857C1.91587 15.0519 0.891743 17.9636 0.875931 21.1138C2.98087 27.0559 8.64912 31.3125 15.3125 31.3125C21.9761 31.3125 27.6444 27.0556 29.7492 21.1133C29.7405 19.3822 29.4267 17.7235 28.8597 16.1875Z" fill="#FFBD86"/>
<path d="M2.83938 22.9785C2.72176 22.6752 2.66682 22.3504 2.67838 22.0253C2.79451 18.7642 3.89763 15.7546 5.69907 13.2867C7.27394 11.1291 7.87019 8.4604 7.43694 5.88428C7.28513 4.98159 7.66076 4.07053 8.39151 3.51934C10.0586 2.26184 11.9677 1.30822 14.0366 0.740967C10.5414 1.02947 7.37913 2.49128 4.94482 4.73234C5.78526 7.4334 5.32651 10.3793 3.64313 12.6856C1.91594 15.0518 0.89182 17.9635 0.876007 21.1137C1.88913 23.9737 3.72794 26.4428 6.10563 28.2352C4.71351 26.7138 3.59819 24.935 2.83938 22.9785Z" fill="#F6A96C"/>
<path d="M24.2747 2.32593C20.9024 2.32593 18.0353 4.48693 16.9813 7.49949C17.8034 7.62299 18.5962 7.83674 19.3499 8.12943C20.1206 6.16143 22.0368 4.76343 24.2746 4.76343C27.1903 4.76343 29.5624 7.13555 29.5624 10.0512C29.5624 12.385 28.0421 14.3691 25.9403 15.0687C26.1929 15.8351 26.3652 16.6377 26.4462 17.4667C29.6556 16.5284 32 13.5638 32 10.0512C32 5.78468 28.5412 2.32593 24.2747 2.32593Z" fill="#FED2A4"/>
<path d="M24.2747 15.3392C21.359 15.3392 18.9869 12.9671 18.9869 10.0514C18.9869 9.35038 19.1252 8.68144 19.374 8.06869C18.1141 7.58069 16.7447 7.3125 15.3125 7.3125C9.09931 7.3125 4.0625 12.3493 4.0625 18.5625C4.0625 24.7757 9.09931 29.8125 15.3125 29.8125C21.5257 29.8125 26.5625 24.7757 26.5625 18.5625C26.5625 17.3351 26.3652 16.1539 26.0018 15.048C25.4601 15.2358 24.8794 15.3392 24.2747 15.3392Z" fill="#FE5694"/>
<path d="M24.2955 15.3385C24.2885 15.3385 24.2816 15.3391 24.2747 15.3391C21.359 15.3391 18.9869 12.9669 18.9869 10.0513C18.9869 9.9527 18.9901 9.85482 18.9954 9.75757C17.8622 9.28301 16.6181 9.02051 15.3126 9.02051C14.0492 9.02051 12.8435 9.26663 11.7399 9.71257C11.6091 10.1756 11.3454 10.669 10.9641 11.1292L11.0808 11.2459C12.0695 12.2346 12.3658 13.7095 11.8357 15.0033C11.3206 16.2605 11.885 17.6878 13.1207 18.2526L13.4318 18.3949C13.5859 17.9161 14.0423 17.5624 14.5625 17.5624C14.9224 17.5627 15.2583 17.7232 15.4849 18.0028L15.4893 18.0081L17.1373 19.3084C17.2032 19.3604 17.2856 19.389 17.3695 19.389C17.4713 19.389 17.5664 19.349 17.6376 19.2763L18.8209 18.0673C18.9891 17.8876 19.2161 17.7891 19.461 17.7891C19.6837 17.7891 19.8959 17.873 20.0586 18.0253C20.4109 18.3549 20.4293 18.9098 20.0996 19.2621L18.6969 20.7158C18.3533 21.0594 17.8947 21.249 17.4063 21.249C16.9414 21.249 16.499 21.0751 16.1607 20.7593L15.8977 20.5529L14.5506 19.9371C14.2121 19.9338 13.896 19.7887 13.6728 19.5358L13.5357 19.4731C12.8768 19.5761 12.3181 19.9789 12.0361 20.5583L11.3222 22.0258L11.2923 22.0124C11.1179 21.9344 10.9329 21.8949 10.7421 21.8949C10.3683 21.8949 10.0056 22.0545 9.75901 22.3248L9.73969 22.3082C9.48563 22.0897 9.33513 21.7908 9.31594 21.4665C9.29751 21.1551 9.40388 20.8565 9.61551 20.6258C9.84319 20.3777 10.1733 20.2354 10.5213 20.2354C10.8298 20.2354 11.1281 20.3459 11.3614 20.5464L11.4321 20.6073L12.5762 19.3601C12.6486 19.2811 12.7286 19.2088 12.8143 19.1433L12.7309 19.1051C11.0358 18.3303 10.2616 16.3724 10.9682 14.6478C11.3546 13.7046 11.1386 12.6294 10.4179 11.9087L10.2999 11.7907C9.46894 12.4734 8.53232 12.7743 7.86388 12.5991C6.55432 14.2328 5.77057 16.3059 5.77057 18.5624C5.77057 23.8323 10.0426 28.1043 15.3125 28.1043C20.5824 28.1043 24.8544 23.8323 24.8544 18.5624C24.8544 17.4309 24.657 16.3456 24.2955 15.3385Z" fill="#FD3581"/>
<path d="M21.5019 14.5514C20.7233 14.0699 20.0782 13.3925 19.6365 12.588C18.4216 11.7073 16.9279 11.1875 15.3125 11.1875C14.0072 11.1875 12.7814 11.5271 11.7177 12.122C12.1679 13.0037 12.2252 14.0523 11.8356 15.0033C11.3205 16.2605 11.8849 17.6877 13.1206 18.2526L13.4318 18.3949C13.5859 17.9162 14.0423 17.5625 14.5625 17.5625C14.9224 17.5628 15.2583 17.7233 15.4849 18.0029L15.4893 18.0082L17.1373 19.3085C17.2032 19.3605 17.2856 19.3891 17.3695 19.3891C17.4712 19.3891 17.5664 19.3491 17.6376 19.2764L18.8209 18.0674C18.9891 17.8877 19.2161 17.7892 19.461 17.7892C19.6837 17.7892 19.8959 17.8731 20.0586 18.0254C20.4109 18.3551 20.4293 18.9099 20.0996 19.2622L18.6969 20.7159C18.3533 21.0595 17.8947 21.2491 17.4063 21.2491C16.9414 21.2491 16.499 21.0752 16.1607 20.7594L15.8977 20.553L14.5506 19.9372C14.2121 19.9339 13.896 19.7888 13.6728 19.5359L13.5357 19.4732C12.8767 19.5763 12.3181 19.9791 12.0361 20.5584L11.3222 22.0259L11.2923 22.0125C11.1179 21.9345 10.9329 21.895 10.7421 21.895C10.3683 21.895 10.0056 22.0546 9.759 22.3249L9.73969 22.3083C9.48563 22.0898 9.33512 21.7909 9.31594 21.4666C9.2975 21.1552 9.40388 20.8566 9.6155 20.6259C9.84319 20.3778 10.1733 20.2355 10.5212 20.2355C10.8298 20.2355 11.1281 20.346 11.3614 20.5466L11.4321 20.6074L12.5762 19.3602C12.6486 19.2812 12.7286 19.2089 12.8142 19.1434L12.7309 19.1052C11.0358 18.3304 10.2616 16.3725 10.9682 14.6479C11.2395 13.9857 11.2128 13.2591 10.9241 12.6351C9.112 13.9789 7.9375 16.1334 7.9375 18.5625C7.9375 22.6356 11.2394 25.9375 15.3125 25.9375C19.3856 25.9375 22.6875 22.6356 22.6875 18.5625C22.6875 17.0833 22.2517 15.7061 21.5019 14.5514Z" fill="#E30256"/>
<path d="M15.9166 25.8833C14.7438 25.7413 13.6559 25.3241 12.7193 24.698C12.4969 24.8529 12.2274 24.9375 11.9513 24.9375C11.7744 24.9375 11.5949 24.9024 11.4232 24.8292C12.5524 25.5314 13.8849 25.9375 15.3125 25.9375C15.5352 25.9375 15.7556 25.927 15.9733 25.9077C15.9541 25.9001 15.9355 25.8914 15.9166 25.8833Z" fill="#D2024E"/>
<path d="M9.56938 20.5835C9.60638 20.5431 9.64625 20.5068 9.68731 20.4723C9.53575 19.9055 9.45094 19.3115 9.43969 18.6995C9.23763 18.8483 8.98881 18.9373 8.71869 18.9373C8.42225 18.9373 8.15069 18.8312 7.93938 18.6553C7.95975 20.2987 8.51675 21.8127 9.4445 23.0295C9.458 22.8901 9.49469 22.7506 9.55994 22.6165C9.60338 22.5273 9.65725 22.4462 9.71813 22.3721L9.69888 22.3555C9.15713 21.8895 9.09913 21.0961 9.56938 20.5835Z" fill="#D2024E"/>
<path d="M10.9239 12.635C9.61393 13.6065 8.63743 15.0021 8.19675 16.6186C8.35512 16.5433 8.53162 16.4999 8.71868 16.4999C9.07887 16.4999 9.40156 16.6571 9.62468 16.9055C9.88862 15.7568 10.4209 14.7105 11.1519 13.836C11.1757 13.4228 11.0976 13.0103 10.9239 12.635Z" fill="#D2024E"/>
<path d="M9.69894 22.3558L9.76544 22.413C9.99787 22.1304 10.3573 21.9575 10.7421 21.9575C10.924 21.9575 11.1006 21.9953 11.2668 22.0696L11.3519 22.1077L12.0923 20.5858C12.3829 19.9886 12.9845 19.5852 13.6592 19.5186C13.4814 19.3104 13.3829 19.053 13.3764 18.7793C13.0562 18.8815 12.7634 19.0636 12.5301 19.3179L11.4269 20.5205L11.4021 20.4991C10.8603 20.0332 10.0397 20.071 9.56944 20.5837C9.09912 21.0964 9.15713 21.8898 9.69894 22.3558Z" fill="#F6A96C"/>
<path d="M21.5658 18.1133L21.3668 17.0021C21.5327 16.5859 21.625 16.1332 21.625 15.6596V15.1529C21.625 14.9652 21.6106 14.7806 21.5829 14.6003C20.504 13.9594 19.6721 12.9459 19.2644 11.7383C18.8621 11.5849 18.4266 11.5 17.9721 11.5H17.6529C15.6438 11.5001 14 13.1439 14 15.153V15.6597C14 15.6887 14.0018 15.7173 14.0025 15.7462L13.7111 16.1543C13.5256 16.4138 13.654 16.7788 13.9611 16.8651L14.2354 16.9423C14.2751 17.0471 14.3183 17.1501 14.3671 17.2502C14.4197 17.3578 14.4776 17.4624 14.5401 17.5638C14.5476 17.5637 14.555 17.5627 14.5626 17.5627C14.9225 17.563 15.2583 17.7235 15.485 18.0031L15.4894 18.0084L17.1374 19.3088C17.2033 19.3608 17.2857 19.3894 17.3695 19.3894C17.4713 19.3894 17.5665 19.3493 17.6376 19.2766L18.821 18.0676C18.9892 17.8879 19.2161 17.7894 19.4611 17.7894C19.6838 17.7894 19.896 17.8733 20.0587 18.0256C20.411 18.3552 20.4294 18.9101 20.0997 19.2624L18.6969 20.7161C18.3534 21.0597 17.8948 21.2493 17.4064 21.2493C16.9415 21.2493 16.4991 21.0754 16.1608 20.7596L15.0041 19.8519L14.9714 19.8639C14.8381 19.9129 14.7006 19.9377 14.5626 19.9377C14.2336 19.9377 13.9277 19.8062 13.7011 19.5676C13.6688 19.5335 13.6394 19.4976 13.6117 19.4607C12.9313 19.5404 12.3334 19.948 12.0363 20.5588L11.3223 22.0262L11.2924 22.0128C10.6401 21.7209 9.86457 21.9915 9.56013 22.6171C9.25582 23.2427 9.53788 23.9865 10.1902 24.2784L11.4012 24.8202C11.5795 24.9 11.7669 24.9377 11.9514 24.9377C12.4421 24.9377 12.9122 24.6706 13.1334 24.216L13.7171 23.0163C13.7429 22.9631 13.8204 22.9683 13.8384 23.0246C14.0158 23.5766 14.6898 25.4049 15.9779 25.9099C16.548 26.1459 17.2099 26.2103 17.8596 26.1273C19.3909 25.9318 20.6054 24.7379 20.8875 23.2202L21.0182 22.5172C21.6418 21.1311 21.8321 19.6011 21.5658 18.1133Z" fill="#FFBD86"/>
<path d="M20.1013 17.9798C19.7233 17.6259 19.13 17.6456 18.7762 18.0237L17.5929 19.2328C17.4812 19.3469 17.3014 19.3584 17.176 19.2595L15.5335 17.9635C15.3046 17.6812 14.9554 17.5004 14.5636 17.5C13.9061 17.4994 13.3486 18.0261 13.3142 18.6827C13.2765 19.4036 13.8499 20 14.5625 20C14.7139 20 14.8584 19.9717 14.9927 19.9224L16.1179 20.805C16.4797 21.1428 16.9429 21.3116 17.4062 21.3116C17.8898 21.3116 18.3736 21.1275 18.7417 20.7593L20.1452 19.3049C20.499 18.9268 20.4794 18.3336 20.1013 17.9798Z" fill="#FFE5C2"/>
<path d="M17.9816 20.7836C17.5143 20.7836 17.047 20.6133 16.682 20.2726L15.6743 19.4821C15.5995 19.4234 15.502 19.4014 15.4097 19.4242C15.3146 19.4476 15.2152 19.4605 15.1128 19.4605C14.3939 19.4605 13.8154 18.8589 13.8536 18.1316C13.8626 17.9582 13.9086 17.7942 13.9824 17.646C13.6056 17.8466 13.3378 18.2342 13.3142 18.6828C13.2765 19.4036 13.8499 20 14.5625 20C14.7139 20 14.8584 19.9717 14.9927 19.9224L16.1179 20.805C16.4797 21.1427 16.9429 21.3116 17.4062 21.3116C17.8898 21.3116 18.3736 21.1275 18.7417 20.7593L19.0061 20.4853C18.695 20.6839 18.3384 20.7836 17.9816 20.7836Z" fill="#FED2A4"/>
<path d="M15.6328 16.4191C15.3567 16.4191 15.0807 16.314 14.8705 16.1038C14.7484 15.9818 14.7484 15.7839 14.8705 15.6619C14.9925 15.5398 15.1904 15.5398 15.3124 15.6619C15.4891 15.8385 15.7766 15.8385 15.9533 15.6619C16.0753 15.5399 16.2732 15.5398 16.3952 15.6619C16.5172 15.7839 16.5172 15.9818 16.3952 16.1038C16.185 16.3139 15.9089 16.4191 15.6328 16.4191Z" fill="#D88A55"/>
<path d="M24.2747 15.4016C27.2296 15.4016 29.625 13.0061 29.625 10.0512C29.625 7.09634 27.2296 4.70093 24.2747 4.70093C21.3198 4.70093 18.9244 7.09634 18.9244 10.0512C18.9244 13.0061 21.3198 15.4016 24.2747 15.4016Z" fill="#FE0364"/>
<path d="M21.8125 10.0512C21.8125 7.59693 23.4657 5.53012 25.7188 4.89974C25.2592 4.77118 24.7753 4.70093 24.2747 4.70093C21.3198 4.70093 18.9244 7.09636 18.9244 10.0512C18.9244 13.0061 21.3198 15.4016 24.2747 15.4016C24.7753 15.4016 25.2592 15.3313 25.7188 15.2027C23.4657 14.5724 21.8125 12.5056 21.8125 10.0512Z" fill="#E30256"/>
<path d="M25.1586 10.0514L26.5725 8.63749C26.8166 8.39343 26.8166 7.99768 26.5725 7.75356C26.3284 7.50956 25.9327 7.50956 25.6886 7.75356L24.2746 9.16749L22.8607 7.75356C22.6166 7.50956 22.2209 7.50956 21.9767 7.75356C21.7327 7.99762 21.7327 8.39337 21.9767 8.63749L23.3907 10.0514L21.9767 11.4654C21.7327 11.7094 21.7327 12.1052 21.9767 12.3493C22.0988 12.4713 22.2587 12.5324 22.4187 12.5324C22.5786 12.5324 22.7386 12.4713 22.8606 12.3493L24.2746 10.9354L25.6885 12.3493C25.8106 12.4713 25.9705 12.5324 26.1304 12.5324C26.2904 12.5324 26.4503 12.4713 26.5724 12.3493C26.8164 12.1052 26.8164 11.7095 26.5724 11.4654L25.1586 10.0514Z" fill="white"/>
<path d="M8.71875 18.9375C9.39185 18.9375 9.9375 18.3918 9.9375 17.7188C9.9375 17.0457 9.39185 16.5 8.71875 16.5C8.04565 16.5 7.5 17.0457 7.5 17.7188C7.5 18.3918 8.04565 18.9375 8.71875 18.9375Z" fill="#FED2A4"/>
<path d="M22.9062 18.8125C23.4068 18.8125 23.8125 18.4068 23.8125 17.9062C23.8125 17.4057 23.4068 17 22.9062 17C22.4057 17 22 17.4057 22 17.9062C22 18.4068 22.4057 18.8125 22.9062 18.8125Z" fill="#FED2A4"/>
</g>
<defs>
<clipPath id="clip0_686_5036">
<rect width="32" height="32" fill="white"/>
</clipPath>
</defs>
</svg>
