<svg width="22" height="24" viewBox="0 0 22 24" fill="none" xmlns="http://www.w3.org/2000/svg">
<path fill-rule="evenodd" clip-rule="evenodd" d="M10.0536 15.7423C10.2371 15.5677 10.5321 15.5701 10.7127 15.7476C10.8932 15.925 10.8907 16.2104 10.7072 16.385L8.94981 18.0483C8.76632 18.2228 8.47122 18.2204 8.29067 18.043C8.11018 17.8656 8.11265 17.5802 8.29614 17.4057L10.0536 15.7423ZM12.799 16.385C12.6155 16.2104 12.613 15.9251 12.7935 15.7476C12.974 15.5701 13.2691 15.5677 13.4526 15.7423L15.21 17.4056C15.3935 17.5801 15.396 17.8655 15.2155 18.0429C15.035 18.2204 14.7399 18.2228 14.5563 18.0482L12.799 16.385ZM15.2195 19.4701C15.036 19.2956 15.0335 19.0102 15.214 18.8328C15.3945 18.6554 15.6896 18.653 15.8732 18.8275L17.6306 20.4908C17.8141 20.6654 17.8165 20.9507 17.6361 21.1282C17.4556 21.3057 17.1605 21.308 16.9769 21.1335L15.2195 19.4701ZM11.3134 20.2084C11.3154 19.9597 11.5256 19.7597 11.7827 19.7617C12.0398 19.7636 12.2466 19.9668 12.2446 20.2155L12.2181 22.5933C12.2161 22.8419 12.006 23.042 11.7489 23.04C11.4918 23.038 11.285 22.8348 11.287 22.5862L11.3134 20.2084ZM7.68719 18.8275C7.87069 18.653 8.16578 18.6554 8.34627 18.8328C8.52676 19.0102 8.52429 19.2956 8.34079 19.4701L6.58337 21.1334C6.39988 21.308 6.10479 21.3056 5.9243 21.1282C5.74381 20.9507 5.74628 20.6654 5.92977 20.4908L7.68719 18.8275Z" fill="#BD2D43"/>
<path fill-rule="evenodd" clip-rule="evenodd" d="M6.25586 18.0737C6.25586 16.3765 8.46951 15.6318 9.56612 16.9405C10.1714 17.6628 10.9002 17.9237 11.8334 17.9237C12.6896 17.9237 13.4265 17.5839 13.9656 16.9405C15.0623 15.6318 17.2759 16.3765 17.2759 18.0737C17.2759 22.5869 6.25586 22.491 6.25586 18.0737Z" fill="#E33F65"/>
<path fill-rule="evenodd" clip-rule="evenodd" d="M6.25586 18.0735C6.25586 17.0788 7.08982 16.2724 8.11841 16.2724C8.25965 16.2724 8.39722 16.2876 8.52945 16.3164C8.58792 16.3702 8.64278 16.4276 8.69365 16.4883C9.04801 16.9112 9.48782 17.2029 9.99084 17.3532C10.4686 17.728 11.0492 17.9235 11.6984 17.9235H11.8334C12.6896 17.9235 13.4265 17.5837 13.9656 16.9403C14.3071 16.5329 14.8288 16.2723 15.4133 16.2723C15.5547 16.2723 15.6922 16.2876 15.8245 16.3165C16.1811 16.6446 16.4034 17.1079 16.4034 17.6215C16.4034 19.8557 13.7027 20.9605 10.9752 20.9705C9.80074 20.9748 8.62129 20.7761 7.65044 20.3772C6.8018 19.8254 6.25586 19.0565 6.25586 18.0735Z" fill="#FA6E85"/>
<path fill-rule="evenodd" clip-rule="evenodd" d="M7.71724 7.55538C7.75655 7.80111 7.58247 8.03115 7.32836 8.06917C7.07425 8.10719 6.83636 7.93885 6.79704 7.69312L6.41598 5.34386C6.37666 5.09813 6.55074 4.86808 6.80485 4.83007C7.05896 4.79205 7.29685 4.96039 7.33617 5.20612L7.71724 7.55538ZM4.45097 9.60875C4.65869 9.75501 4.70448 10.0364 4.55323 10.2373C4.40197 10.4382 4.11095 10.4825 3.90323 10.3362L1.91593 8.93552C1.70821 8.78926 1.66242 8.50783 1.81367 8.30696C1.96492 8.10609 2.25595 8.06181 2.46367 8.20808L4.45097 9.60875ZM2.80415 13.1131C3.05726 13.0693 3.29922 13.2321 3.34461 13.4769C3.39 13.7216 3.22159 13.9556 2.96848 13.9995L0.547852 14.4184C0.294742 14.4623 0.0527784 14.2995 0.00738943 14.0547C-0.0379995 13.8099 0.130407 13.5759 0.383517 13.5321L2.80415 13.1131ZM6.80705 12.9972C7.06016 12.9533 7.30213 13.1161 7.34752 13.3609C7.39291 13.6056 7.2245 13.8396 6.97139 13.8835L4.55076 14.3024C4.29765 14.3463 4.05568 14.1835 4.01029 13.9387C3.96491 13.6939 4.13331 13.46 4.38642 13.4161L6.80705 12.9972ZM8.94241 11.2093C8.98172 11.455 8.80764 11.685 8.55353 11.7231C8.29942 11.7611 8.06153 11.5927 8.02221 11.347L7.64114 8.99775C7.60183 8.75202 7.77591 8.52197 8.03002 8.48395C8.28413 8.44593 8.52202 8.61427 8.56134 8.86L8.94241 11.2093Z" fill="#BD2D43"/>
<path fill-rule="evenodd" clip-rule="evenodd" d="M9.1831 6.86322C10.6124 7.84808 9.95511 10.0236 8.21658 10.1278C7.25707 10.1854 6.61442 10.6081 6.07295 11.3429C5.57608 12.0173 5.43464 12.7948 5.66365 13.5927C6.12949 15.2158 4.21781 16.5271 2.78839 15.5422C-1.01253 12.9234 5.46281 4.29999 9.1831 6.86322Z" fill="#E33F65"/>
<path fill-rule="evenodd" clip-rule="evenodd" d="M2.42861 15.2471C1.00167 13.859 1.65453 11.3261 3.11799 9.32385C4.58753 7.31327 6.87373 5.83837 8.69096 6.5946C9.27868 7.20773 9.36178 8.15542 8.84034 8.86305C8.50112 9.32346 7.97902 9.5832 7.43775 9.6156C6.58317 9.66692 5.8693 10.0501 5.37249 10.7244L5.29413 10.8307C4.79725 11.5051 4.65581 12.2826 4.88482 13.0805C5.02987 13.5858 4.9465 14.1478 4.60728 14.6083C4.10494 15.2901 3.20156 15.5317 2.42861 15.2471Z" fill="#FA6E85"/>
<path fill-rule="evenodd" clip-rule="evenodd" d="M15.4872 2.84849C15.4066 3.08448 15.1433 3.21254 14.8993 3.1345C14.6553 3.05646 14.5228 2.80195 14.6035 2.56597L15.3777 0.308885C15.4584 0.072901 15.7216 -0.0551606 15.9657 0.0228769C16.2097 0.100914 16.3421 0.355424 16.2614 0.591408L15.4872 2.84849ZM13.6827 6.3057C13.6021 6.54169 13.3388 6.66975 13.0948 6.59171C12.8508 6.51374 12.7183 6.25916 12.799 6.02318L13.5733 3.7661C13.654 3.53011 13.9172 3.40205 14.1613 3.48009C14.4053 3.55812 14.5377 3.81263 14.4571 4.04862L13.6827 6.3057ZM14.2905 8.9755C14.0475 8.89262 13.92 8.63489 14.0057 8.39994C14.0914 8.16498 14.358 8.04164 14.6009 8.12451L16.9178 8.92161C17.1608 9.00448 17.2883 9.26222 17.2026 9.49717C17.1169 9.73219 16.8503 9.85547 16.6074 9.7726L14.2905 8.9755ZM18.1958 9.67771C17.9528 9.59483 17.8253 9.3371 17.911 9.10214C17.9967 8.86713 18.2632 8.74384 18.5062 8.82672L20.823 9.62381C21.066 9.70669 21.1935 9.96443 21.1078 10.1994C21.0221 10.4344 20.7556 10.5577 20.5126 10.4748L18.1958 9.67771ZM17.8855 5.92203C17.6526 6.02834 17.3747 5.93185 17.2648 5.70664C17.1549 5.48137 17.2546 5.2126 17.4875 5.10635L19.7087 4.0858C19.9416 3.97949 20.2195 4.07599 20.3294 4.30119C20.4393 4.52646 20.3396 4.79524 20.1067 4.90154L17.8855 5.92203Z" fill="#BD2D43"/>
<path fill-rule="evenodd" clip-rule="evenodd" d="M18.123 11.2517C16.546 11.9966 14.8825 10.3999 15.6173 8.87273C16.0228 8.02981 15.9454 7.28203 15.5358 6.47119C15.1601 5.72716 14.5209 5.23595 13.6865 5.04993C11.9892 4.67142 11.7097 2.42105 13.2868 1.67624C17.4804 -0.304452 22.2276 9.3132 18.123 11.2517Z" fill="#E33F65"/>
<path fill-rule="evenodd" clip-rule="evenodd" d="M16.9535 11.4025C15.7635 11.18 15.1061 9.9359 15.6173 8.87326C15.9785 8.12251 15.9709 7.33304 15.5951 6.589L15.5359 6.47172C15.1601 5.72768 14.521 5.23648 13.6866 5.05046C13.1581 4.93259 12.6871 4.59359 12.4306 4.08561C11.9791 3.19182 12.3625 2.1133 13.2868 1.67677C13.4289 1.60964 13.5717 1.55626 13.7147 1.51501C15.309 1.68019 16.8269 3.19879 17.7526 5.01418C18.9829 7.42702 19.1673 10.3638 17.0947 11.3427C17.0482 11.3647 17.001 11.3846 16.9535 11.4025Z" fill="#FA6E85"/>
</svg>
