<svg width="32" height="32" viewBox="0 0 32 32" fill="none" xmlns="http://www.w3.org/2000/svg">
<path d="M30.6261 15.8267V28.4877C30.6261 29.9426 29.4064 31.122 27.9019 31.122H15.313C8.45763 31.122 2.56695 27.1238 0 21.4072V15.8268C0 14.7601 0.894195 13.8954 1.99724 13.8954H28.6288C29.7319 13.8953 30.6261 14.76 30.6261 15.8267Z" fill="#FFCD99"/>
<path d="M28.6287 17.7581H1.99737C0.89426 17.7581 0 16.8933 0 15.8266V8.81785C0 7.75112 0.89426 6.88635 1.99737 6.88635H28.6287C29.7318 6.88635 30.6261 7.75112 30.6261 8.81785V15.8266C30.6261 16.8933 29.7318 17.7581 28.6287 17.7581Z" fill="#FFCD99"/>
<path d="M31.2407 10.5878L25.7816 15.867H23.0634L20.2279 15.0242L16.5365 15.867H10.9346L9.94903 14.9139C8.95693 13.9545 8.95693 12.3994 9.94903 11.4407L12.7031 8.7775L21.0355 0.719186C22.0276 -0.239566 23.6357 -0.239566 24.6272 0.719186L31.2407 7.11465C32.2329 8.07403 32.2329 9.62909 31.2407 10.5878Z" fill="#EEEBFF"/>
<path d="M10.8872 15.8212L9.94885 14.9138C8.95675 13.9544 8.95675 12.3998 9.94885 11.4404L21.0356 0.719371C22.0273 -0.23957 23.6353 -0.240011 24.6274 0.719371L25.5658 1.62675C24.5741 0.667809 22.9656 0.667809 21.9739 1.62675L10.8872 12.3478C9.89507 13.3072 9.89553 14.8623 10.8872 15.8212Z" fill="#E5E0FF"/>
<path d="M18.8176 8.41727C17.8237 7.45612 17.8237 5.8923 18.8176 4.93115L20.6732 3.13675C21.6672 2.17561 23.2843 2.17561 24.2782 3.13675C24.7594 3.60207 25.0246 4.22095 25.0249 4.87946C25.0246 5.53868 24.7594 6.15755 24.2782 6.62287L22.4227 8.41727C21.4287 9.37841 19.8115 9.37835 18.8176 8.41727Z" fill="white"/>
<path d="M19.2828 8.77268C19.1174 8.67428 18.9611 8.55571 18.8176 8.41697C17.824 7.45608 17.824 5.89176 18.8176 4.93086L20.6732 3.13646C21.6673 2.17519 23.2846 2.17557 24.2782 3.13646C24.4206 3.27413 24.5439 3.42529 24.6472 3.58665C23.6649 3.00056 22.3572 3.11913 21.5062 3.94198L19.6506 5.73638C18.8004 6.55853 18.6774 7.82275 19.2828 8.77268Z" fill="#F9F6F6"/>
<path d="M22.8379 7.02451L21.9102 7.92161C21.1977 8.61064 20.0425 8.61064 19.33 7.92161C18.6175 7.23259 18.6175 6.11549 19.33 5.42646L20.2577 4.52936L22.134 4.54921L22.8379 7.02451Z" fill="#9DC6FB"/>
<path d="M23.7658 6.12691L22.8379 7.02421L20.2577 4.52906L21.1856 3.63176C21.8981 2.94273 23.0533 2.94273 23.7658 3.63176C24.1222 3.97637 24.3001 4.42789 24.3003 4.87934C24.3001 5.33085 24.1222 5.7823 23.7658 6.12691Z" fill="#F5DE58"/>
<path d="M19.8941 8.29201C19.6894 8.20637 19.4974 8.08248 19.33 7.92065C18.6175 7.2318 18.6175 6.11501 19.33 5.42616L20.2577 4.5293L21.6295 5.03697L20.2785 6.34307C19.7332 6.87015 19.6053 7.64734 19.8941 8.29201Z" fill="#80B4FB"/>
<path d="M24.1502 4.17717C23.4835 3.89775 22.6792 4.02145 22.134 4.54853L21.2061 5.44558L20.2576 4.52868L21.1855 3.63162C21.8981 2.94278 23.0532 2.94278 23.7658 3.63162C23.9332 3.79345 24.0614 3.9791 24.1502 4.17717Z" fill="#EEBD56"/>
<path d="M23.2807 12.7331C22.2867 11.772 22.2867 10.2082 23.2807 9.24701L25.1363 7.45261C26.1302 6.49146 27.7473 6.49146 28.7413 7.45261C29.2224 7.91793 29.4876 8.5368 29.4879 9.19532C29.4876 9.85453 29.2224 10.4734 28.7413 10.9387L26.8857 12.7331C25.8917 13.6943 24.2745 13.6942 23.2807 12.7331Z" fill="white"/>
<path d="M23.7458 13.0885C23.5804 12.9901 23.4241 12.8716 23.2806 12.7328C22.287 11.7719 22.287 10.2076 23.2806 9.24672L25.1362 7.45232C26.1303 6.49105 27.7476 6.49142 28.7412 7.45232C28.8836 7.58999 29.0069 7.74114 29.1102 7.90251C28.1279 7.31642 26.8202 7.43499 25.9692 8.25784L24.1136 10.0522C23.2634 10.8744 23.1404 12.1386 23.7458 13.0885Z" fill="#F9F6F6"/>
<path d="M27.3009 11.3404L26.3732 12.2375C25.6607 12.9265 24.5055 12.9265 23.793 12.2375C23.0805 11.5484 23.0805 10.4313 23.793 9.74232L24.7207 8.84521L26.597 8.86507L27.3009 11.3404Z" fill="#9DC6FB"/>
<path d="M28.2288 10.4428L27.3009 11.3401L24.7207 8.84491L25.6486 7.94762C26.3611 7.25859 27.5163 7.25859 28.2288 7.94762C28.5852 8.29223 28.7631 8.74374 28.7633 9.19519C28.7631 9.64671 28.5852 10.0982 28.2288 10.4428Z" fill="#F5DE58"/>
<path d="M24.3571 12.6079C24.1524 12.5222 23.9604 12.3983 23.7931 12.2365C23.0805 11.5477 23.0805 10.4309 23.7931 9.74202L24.7208 8.84515L26.0925 9.35282L24.7415 10.6589C24.1962 11.186 24.0683 11.9632 24.3571 12.6079Z" fill="#80B4FB"/>
<path d="M28.6132 8.49302C27.9465 8.2136 27.1422 8.33731 26.597 8.86439L25.6691 9.76144L24.7206 8.84454L25.6485 7.94748C26.3611 7.25864 27.5163 7.25864 28.2288 7.94748C28.3962 8.10931 28.5244 8.29496 28.6132 8.49302Z" fill="#EEBD56"/>
<path d="M12.4484 14.5764C11.4545 13.6152 11.4545 12.0514 12.4484 11.0903L14.304 9.29587C15.2979 8.33473 16.9151 8.33473 17.909 9.29587C18.3902 9.76119 18.6553 10.3801 18.6557 11.0386C18.6553 11.6978 18.3902 12.3167 17.909 12.782L16.0534 14.5764C15.0595 15.5375 13.4423 15.5375 12.4484 14.5764Z" fill="white"/>
<path d="M12.9136 14.9318C12.7482 14.8334 12.5919 14.7148 12.4484 14.5761C11.4548 13.6152 11.4548 12.0509 12.4484 11.09L14.304 9.29558C15.2981 8.33431 16.9154 8.33469 17.909 9.29558C18.0514 9.43325 18.1747 9.5844 18.278 9.74577C17.2957 9.15968 15.988 9.27825 15.137 10.1011L13.2814 11.8955C12.4312 12.7177 12.3082 13.9819 12.9136 14.9318Z" fill="#F9F6F6"/>
<path d="M16.4687 13.1836L15.541 14.0807C14.8285 14.7698 13.6733 14.7698 12.9608 14.0807C12.2483 13.3917 12.2483 12.2746 12.9608 11.5856L13.8885 10.6885L15.7648 10.7083L16.4687 13.1836Z" fill="#9DC6FB"/>
<path d="M17.3966 12.2861L16.4687 13.1834L13.8885 10.6882L14.8164 9.79094C15.5289 9.10191 16.6841 9.10191 17.3966 9.79094C17.753 10.1355 17.9309 10.5871 17.9311 11.0385C17.9309 11.49 17.753 11.9414 17.3966 12.2861Z" fill="#F5DE58"/>
<path d="M13.5248 14.4511C13.3201 14.3655 13.1281 14.2416 12.9608 14.0798C12.2483 13.3909 12.2483 12.2741 12.9608 11.5853L13.8885 10.6884L15.2602 11.1961L13.9092 12.5022C13.364 13.0293 13.2361 13.8065 13.5248 14.4511Z" fill="#80B4FB"/>
<path d="M17.781 10.3363C17.1143 10.0569 16.3099 10.1806 15.7647 10.7076L14.8369 11.6047L13.8884 10.6878L14.8163 9.79074C15.5288 9.1019 16.684 9.1019 17.3966 9.79074C17.564 9.95257 17.6922 10.1382 17.781 10.3363Z" fill="#EEBD56"/>
<path d="M23.1188 15.3538C23.1182 15.5277 23.0999 15.6991 23.0634 15.8661H22.3157L19.7234 15.5113L17.4595 15.8661H16.5365C16.6395 15.7022 16.7647 15.5472 16.9113 15.4054L18.7671 13.6113C19.7612 12.6503 21.3784 12.6503 22.3718 13.6113C22.8535 14.0764 23.1182 14.6952 23.1188 15.3538Z" fill="white"/>
<path d="M22.7407 14.0613C21.7584 13.4752 20.4508 13.5937 19.6002 14.4167L18.1003 15.8661H16.5365C16.6402 15.7016 16.7647 15.5472 16.9113 15.4054L18.7671 13.6113C19.7612 12.6503 21.3784 12.6503 22.3718 13.6113C22.5146 13.7487 22.6378 13.8999 22.7407 14.0613Z" fill="#F9F6F6"/>
<path d="M22.394 15.3538C22.394 15.5265 22.3679 15.6991 22.3158 15.8661H19.2436L18.3513 15.0034L19.2795 14.1067C19.9919 13.4179 21.147 13.4179 21.8595 14.1067C22.216 14.4514 22.394 14.9026 22.394 15.3538Z" fill="#F5DE58"/>
<path d="M19.7234 15.5116L19.2436 15.8662H17.4595L18.3513 15.004L19.7234 15.5116Z" fill="#80B4FB"/>
<path d="M22.244 14.6524C21.5772 14.3726 20.7728 14.4968 20.2279 15.0236L19.3557 15.8661H19.2436L18.3513 15.0034L19.2795 14.1067C19.9919 13.4179 21.147 13.4179 21.8595 14.1067C22.027 14.2686 22.1554 14.4539 22.244 14.6524Z" fill="#EEBD56"/>
<path d="M16.9244 3.323V15.8668H15.418L12.9253 15.2352L10.4333 15.8668H8.98364L6.43071 15.4596L3.99902 15.8668H2.49261V3.323C2.49261 1.96651 3.62942 0.867188 5.03219 0.867188H14.3848C15.7876 0.867188 16.9244 1.96651 16.9244 3.323Z" fill="#EEEBFF"/>
<path d="M6.35933 0.867188C4.95657 0.867188 3.81911 1.96714 3.81911 3.323V15.8668H2.49261V3.323C2.49261 1.96714 3.62877 0.867188 5.03219 0.867188H6.35933Z" fill="#E5E0FF"/>
<path d="M6.49132 7.41518C8.03738 7.41518 9.29071 6.20318 9.29071 4.70811C9.29071 3.21304 8.03738 2.00104 6.49132 2.00104C4.94526 2.00104 3.69193 3.21304 3.69193 4.70811C3.69193 6.20318 4.94526 7.41518 6.49132 7.41518Z" fill="white"/>
<path d="M7.11344 7.34806C6.91326 7.39149 6.70499 7.41501 6.49112 7.41501C4.94528 7.41501 3.69193 6.20298 3.69193 4.70812C3.69193 3.2127 4.94528 2.00067 6.49112 2.00067C6.70499 2.00067 6.91326 2.02362 7.11344 2.06761C5.86627 2.34137 4.93596 3.41957 4.93596 4.70818C4.93596 5.99617 5.86633 7.07431 7.11344 7.34806Z" fill="#F9F6F6"/>
<path d="M6.49131 6.57177C7.55641 6.57177 8.41985 5.73703 8.41985 4.70733C8.41985 3.67763 7.55641 2.8429 6.49131 2.8429C5.42621 2.8429 4.56277 3.67763 4.56277 4.70733C4.56277 5.73703 5.42621 6.57177 6.49131 6.57177Z" fill="#DD636E"/>
<path d="M6.91989 6.52559C6.78197 6.55546 6.6385 6.57171 6.49118 6.57171C5.42627 6.57171 4.56277 5.73692 4.56277 4.7074C4.56277 3.67744 5.42627 2.84265 6.49118 2.84265C6.6385 2.84265 6.78203 2.85841 6.91989 2.88878C6.0607 3.07733 5.41981 3.81986 5.41981 4.7074C5.41981 5.59444 6.06077 6.33704 6.91989 6.52559Z" fill="#DA4A54"/>
<path d="M12.9256 7.41518C14.4717 7.41518 15.725 6.20318 15.725 4.70811C15.725 3.21304 14.4717 2.00104 12.9256 2.00104C11.3796 2.00104 10.1263 3.21304 10.1263 4.70811C10.1263 6.20318 11.3796 7.41518 12.9256 7.41518Z" fill="white"/>
<path d="M13.5478 7.34806C13.3476 7.39149 13.1393 7.41501 12.9254 7.41501C11.3796 7.41501 10.1263 6.20298 10.1263 4.70812C10.1263 3.2127 11.3796 2.00067 12.9254 2.00067C13.1393 2.00067 13.3476 2.02362 13.5478 2.06761C12.3006 2.34137 11.3703 3.41957 11.3703 4.70818C11.3703 5.99617 12.3007 7.07431 13.5478 7.34806Z" fill="#F9F6F6"/>
<path d="M12.9256 6.57177C13.9907 6.57177 14.8542 5.73703 14.8542 4.70733C14.8542 3.67763 13.9907 2.8429 12.9256 2.8429C11.8605 2.8429 10.9971 3.67763 10.9971 4.70733C10.9971 5.73703 11.8605 6.57177 12.9256 6.57177Z" fill="#DD636E"/>
<path d="M13.3542 6.52559C13.2163 6.55546 13.0728 6.57171 12.9255 6.57171C11.8606 6.57171 10.9971 5.73692 10.9971 4.7074C10.9971 3.67744 11.8606 2.84265 12.9255 2.84265C13.0728 2.84265 13.2164 2.85841 13.3542 2.88878C12.495 3.07733 11.8541 3.81986 11.8541 4.7074C11.8541 5.59444 12.495 6.33704 13.3542 6.52559Z" fill="#DA4A54"/>
<path d="M6.49132 13.6115C8.03738 13.6115 9.29071 12.3995 9.29071 10.9044C9.29071 9.40932 8.03738 8.19733 6.49132 8.19733C4.94526 8.19733 3.69193 9.40932 3.69193 10.9044C3.69193 12.3995 4.94526 13.6115 6.49132 13.6115Z" fill="white"/>
<path d="M7.11344 13.5444C6.91326 13.5878 6.70499 13.6113 6.49112 13.6113C4.94528 13.6113 3.69193 12.3993 3.69193 10.9044C3.69193 9.40898 4.94528 8.19696 6.49112 8.19696C6.70499 8.19696 6.91326 8.2199 7.11344 8.2639C5.86627 8.53766 4.93596 9.61586 4.93596 10.9045C4.93596 12.1924 5.86633 13.2706 7.11344 13.5444Z" fill="#F9F6F6"/>
<path d="M6.49131 12.7681C7.55641 12.7681 8.41985 11.9333 8.41985 10.9036C8.41985 9.87392 7.55641 9.03918 6.49131 9.03918C5.42621 9.03918 4.56277 9.87392 4.56277 10.9036C4.56277 11.9333 5.42621 12.7681 6.49131 12.7681Z" fill="#DD636E"/>
<path d="M6.91989 12.7218C6.78197 12.7517 6.6385 12.7679 6.49118 12.7679C5.42627 12.7679 4.56277 11.9331 4.56277 10.9036C4.56277 9.87367 5.42627 9.03888 6.49118 9.03888C6.6385 9.03888 6.78203 9.05463 6.91989 9.08501C6.0607 9.27356 5.41981 10.0161 5.41981 10.9036C5.41981 11.7907 6.06077 12.5333 6.91989 12.7218Z" fill="#DA4A54"/>
<path d="M12.9256 13.6115C14.4717 13.6115 15.725 12.3995 15.725 10.9044C15.725 9.40932 14.4717 8.19733 12.9256 8.19733C11.3796 8.19733 10.1263 9.40932 10.1263 10.9044C10.1263 12.3995 11.3796 13.6115 12.9256 13.6115Z" fill="white"/>
<path d="M13.5478 13.5444C13.3476 13.5878 13.1393 13.6113 12.9254 13.6113C11.3796 13.6113 10.1263 12.3993 10.1263 10.9044C10.1263 9.40898 11.3796 8.19696 12.9254 8.19696C13.1393 8.19696 13.3476 8.2199 13.5478 8.2639C12.3006 8.53766 11.3703 9.61586 11.3703 10.9045C11.3703 12.1924 12.3007 13.2706 13.5478 13.5444Z" fill="#F9F6F6"/>
<path d="M12.9256 12.7681C13.9907 12.7681 14.8542 11.9333 14.8542 10.9036C14.8542 9.87392 13.9907 9.03918 12.9256 9.03918C11.8605 9.03918 10.9971 9.87392 10.9971 10.9036C10.9971 11.9333 11.8605 12.7681 12.9256 12.7681Z" fill="#DD636E"/>
<path d="M13.3542 12.7218C13.2163 12.7517 13.0728 12.7679 12.9255 12.7679C11.8606 12.7679 10.9971 11.9331 10.9971 10.9036C10.9971 9.87367 11.8606 9.03888 12.9255 9.03888C13.0728 9.03888 13.2164 9.05463 13.3542 9.08501C12.495 9.27356 11.8541 10.0161 11.8541 10.9036C11.8541 11.7907 12.495 12.5333 13.3542 12.7218Z" fill="#DA4A54"/>
<path d="M8.98362 15.8658H3.99899C4.4631 14.9916 5.40501 14.3939 6.49163 14.3939C7.5776 14.3939 8.51951 14.9916 8.98362 15.8658Z" fill="white"/>
<path d="M7.11349 14.46C6.29608 14.6389 5.61491 15.1636 5.2427 15.8658H3.99899C4.4631 14.9916 5.40501 14.3932 6.49098 14.3932C6.70478 14.3932 6.91337 14.4159 7.11349 14.46Z" fill="#F9F6F6"/>
<path d="M7.9374 15.8666H5.04584C5.39848 15.4797 5.91539 15.2352 6.49162 15.2352C7.06785 15.2352 7.58476 15.4797 7.9374 15.8666Z" fill="#DD636E"/>
<path d="M6.91988 15.2812C6.51835 15.3694 6.1644 15.5786 5.9017 15.8666H5.04584C5.39848 15.4797 5.91539 15.2352 6.49097 15.2352C6.63828 15.2352 6.78169 15.2509 6.91988 15.2812Z" fill="#DA4A54"/>
<path d="M15.4179 15.8658H10.4333C10.8974 14.9916 11.8393 14.3939 12.9253 14.3939C14.0119 14.3939 14.9538 14.9916 15.4179 15.8658Z" fill="white"/>
<path d="M13.5478 14.46C12.7304 14.6389 12.0492 15.1636 11.677 15.8658H10.4333C10.8974 14.9916 11.8393 14.3932 12.9253 14.3932C13.1391 14.3932 13.3477 14.4159 13.5478 14.46Z" fill="#F9F6F6"/>
<path d="M14.3711 15.8666H11.4802C11.8328 15.4797 12.3497 15.2352 12.9253 15.2352C13.5015 15.2352 14.0184 15.4797 14.3711 15.8666Z" fill="#DD636E"/>
</svg>
