<svg width="17" height="29" viewBox="0 0 17 29" fill="none" xmlns="http://www.w3.org/2000/svg">
<path d="M6.50265 15.4673H5.20255C4.66257 15.4673 4.22479 15.044 4.22479 14.5218C4.22479 13.9996 4.66257 13.5763 5.20255 13.5763H6.50265C7.43419 13.5763 8.19202 12.8435 8.19202 11.9426V8.50423C8.19202 7.98205 8.6298 7.55872 9.16979 7.55872C9.70977 7.55872 10.1475 7.98205 10.1475 8.50423V11.9426C10.1475 13.8862 8.5124 15.4673 6.50265 15.4673Z" fill="#FF475A"/>
<path d="M11.164 11.638L9.16966 13.0169L7.17529 11.638V8.50403H11.164V11.638Z" fill="#555A66"/>
<path d="M9.16968 8.50415V13.017L11.164 11.638V8.50415H9.16968Z" fill="#333940"/>
<path d="M15.1163 1.05601C13.269 0.374424 11.2647 0 9.16972 0C7.07477 0 5.0705 0.374424 3.22311 1.05601V3.8345H15.1163V1.05601H15.1163Z" fill="#555A66"/>
<path d="M15.1163 1.05601C13.2689 0.374424 11.2646 0 9.16968 0V3.8345H15.1163V1.05601Z" fill="#333940"/>
<path d="M11.164 9.37198H7.17529L3.22311 3.83447H15.1163L11.164 9.37198Z" fill="#707789"/>
<path d="M8.82637 14.4213C9.60317 14.1521 9.92824 14.0394 10.705 13.7701C10.7118 13.7744 10.7187 13.7787 10.7255 13.783C11.2892 14.1403 12.0251 14.1149 12.5734 13.736L13.9045 12.8158L15.4173 14.8622L13.8437 15.9501C13.3432 16.296 13.083 16.8846 13.1771 17.4726C13.3148 18.3332 13.2385 19.2384 12.9126 20.1156C12.8398 20.3116 12.749 20.5198 12.6432 20.7366C10.8746 20.6917 9.20952 19.2157 8.72136 17.1189C8.49993 16.1679 8.55403 15.2322 8.82637 14.4213Z" fill="#4A7AFF"/>
<path d="M10.3192 16.0905C11.1415 16.1575 11.4856 16.1855 12.3079 16.2526L12.321 16.2726C12.6802 16.824 13.3606 17.0966 14.0221 16.9721L15.6283 16.6697L16.1254 19.1389L14.2267 19.4963C13.6228 19.61 13.1334 20.0409 12.9664 20.6135C12.7219 21.4517 12.2637 22.2444 11.5904 22.9115C11.44 23.0605 11.268 23.2135 11.0786 23.3682C9.48912 22.6171 8.60848 20.6056 9.06503 18.5021C9.27206 17.5481 9.72319 16.7187 10.3192 16.0905Z" fill="#4A7AFF"/>
<path d="M13.0014 18.1122C12.992 18.087 12.9824 18.0618 12.9727 18.0368C12.8176 17.638 12.792 17.2061 12.8745 16.7876C12.9169 16.5731 12.9328 16.3496 12.9187 16.1202C12.8356 14.7677 11.702 13.6742 10.3031 13.5983C9.6145 13.561 8.97674 13.7663 8.47234 14.1338C8.1283 14.3844 7.71249 14.5258 7.28325 14.561C6.81047 14.5998 6.33515 14.6981 5.86746 14.8606C2.96892 15.8678 1.46349 18.9564 2.505 21.7593C3.54651 24.5623 8.14779 29.8055 11.0463 28.7984C13.9447 27.7913 14.0428 20.9152 13.0014 18.1122Z" fill="#F03049"/>
<path d="M13.0014 18.1123C12.992 18.0871 12.9824 18.0619 12.9727 18.0369C12.8176 17.6381 12.792 17.2062 12.8745 16.7877C12.9169 16.5732 12.9328 16.3497 12.9187 16.1203C12.8356 14.7678 11.7019 13.6743 10.3031 13.5984C9.9026 13.5767 9.51958 13.6376 9.16974 13.7642V28.73C9.83462 28.9518 10.4737 28.9975 11.0463 28.7985C13.9447 27.7914 14.0428 20.9153 13.0014 18.1123Z" fill="#BD002F"/>
<path d="M5.9367 14.8374C5.93644 14.8374 5.93625 14.8373 5.93592 14.8372C5.48713 14.9869 5.07106 15.1863 4.69182 15.4267C4.12817 15.7841 3.39218 15.7587 2.84392 15.3797L1.51279 14.4595L0 16.5059L1.57361 17.5937C2.07416 17.9397 2.33431 18.5283 2.24018 19.1163C2.10251 19.9769 2.17884 20.882 2.50476 21.7593C2.57757 21.9553 2.66837 22.1635 2.77417 22.3802C4.54268 22.3354 6.2078 20.8594 6.69597 18.7626C7.0417 17.2782 6.71598 15.8309 5.9367 14.8374Z" fill="#FF636E"/>
</svg>
