<svg width="15" height="25" viewBox="0 0 15 25" fill="none" xmlns="http://www.w3.org/2000/svg">
<path d="M0 5.79916L7.17025 15.7326L10.1342 7.32308L7.17025 0C3.658 0 0.621008 2.45626 0 5.79916Z" fill="#8EC1FF"/>
<path d="M7.17026 15.7326L14.3405 5.79916C13.7195 2.45626 10.6825 0 7.17026 0V15.7326Z" fill="#52A0FF"/>
<path d="M7.17025 2.35059C5.06702 2.35059 3.3227 3.83315 2.99163 5.77631C2.86504 5.69147 2.73056 5.65371 2.59889 5.67615C2.18224 5.74719 1.95168 6.39273 2.08394 7.11794C2.2162 7.84315 2.66114 8.37352 3.0778 8.30248C3.17147 8.28653 3.25562 8.24127 3.3285 8.17288C4.00211 9.57262 5.46856 10.5434 7.17025 10.5434L8.30322 6.44706L7.17025 2.35059Z" fill="#FBE0B8"/>
<path d="M11.7416 5.67615C11.6099 5.65371 11.4755 5.69147 11.3489 5.77631C11.0178 3.83315 9.27347 2.35059 7.17024 2.35059V10.5433C8.87194 10.5433 10.3384 9.57256 11.012 8.17281C11.0849 8.24121 11.169 8.28647 11.2627 8.30241C11.6793 8.37345 12.1243 7.84315 12.2566 7.11787C12.3888 6.39273 12.1583 5.74719 11.7416 5.67615Z" fill="#FCE2AC"/>
<path d="M6.09491 8.5515C6.09491 9.12566 6.57636 9.5911 7.17025 9.5911L7.34227 8.5515L7.17025 7.5119C6.57636 7.5119 6.09491 7.97735 6.09491 8.5515Z" fill="#B6F2F2"/>
<path d="M8.24558 8.5515C8.24558 7.97735 7.76413 7.5119 7.17024 7.5119V9.59117C7.76413 9.5911 8.24558 9.12565 8.24558 8.5515Z" fill="#91D8D5"/>
<path d="M6.46391 2.34631C6.46006 2.34625 6.45634 2.34575 6.4525 2.34575C6.05611 2.34575 5.73476 2.65642 5.73476 3.03963C5.73476 3.42284 6.05611 3.73352 6.4525 3.73352C6.45563 3.73352 6.45863 3.73314 6.46169 3.73308C6.51442 4.066 6.81108 4.32128 7.17024 4.32128L7.6234 3.04669L7.17024 1.77203C6.81609 1.77203 6.52264 2.0202 6.46391 2.34631Z" fill="#555A65"/>
<path d="M7.87879 3.73302C7.88186 3.73308 7.88485 3.73346 7.88798 3.73346C8.28437 3.73346 8.60573 3.42278 8.60573 3.03957C8.60573 2.65636 8.28437 2.34568 7.88798 2.34568C7.88414 2.34568 7.88042 2.34619 7.87658 2.34625C7.81785 2.02014 7.52439 1.77197 7.17024 1.77197V4.32116C7.52934 4.32122 7.82599 4.06594 7.87879 3.73302Z" fill="#333940"/>
<path d="M0 5.79907V17.7756C0 21.605 3.21025 24.7094 7.17025 24.7094L9.04527 17.2454L7.17025 10.4228L0 5.79907Z" fill="#52A0FF"/>
<path d="M14.3405 15.0466V5.79907L7.17026 10.4228V24.7094L14.3405 15.0466Z" fill="#8EC1FF"/>
<path d="M7.17026 24.7094C11.1303 24.7094 14.3405 21.605 14.3405 17.7756V15.0466L7.17026 10.4229V24.7094Z" fill="#73AEF6"/>
</svg>
