<svg width="32" height="32" viewBox="0 0 32 32" fill="none" xmlns="http://www.w3.org/2000/svg">
<path d="M14.4979 27.7245C14.0664 27.7245 13.7166 27.3747 13.7166 26.9433V16.2139C13.7166 14.8107 12.575 13.6691 11.1718 13.6691H8.82782C8.39638 13.6691 8.04657 13.3193 8.04657 12.8878C8.04657 12.4564 8.39638 12.1066 8.82782 12.1066H11.1718C13.4366 12.1066 15.2791 13.9491 15.2791 16.2139V26.9433C15.2791 27.3748 14.9294 27.7245 14.4979 27.7245Z" fill="#6C6CFF"/>
<path d="M14.4979 27.7245C14.0664 27.7245 13.7166 27.3747 13.7166 26.9433V16.2139C13.7166 14.8107 12.575 13.6691 11.1718 13.6691H8.82782C8.39638 13.6691 8.04657 13.3193 8.04657 12.8878C8.04657 12.4564 8.39638 12.1066 8.82782 12.1066H11.1718C13.4366 12.1066 15.2791 13.9491 15.2791 16.2139V26.9433C15.2791 27.3748 14.9294 27.7245 14.4979 27.7245Z" fill="url(#paint0_linear_686_4003)"/>
<path d="M12.0867 8.22208C12.0868 6.90396 11.4612 5.60464 10.2834 4.77233C8.33257 3.39377 5.60576 3.81914 4.19282 5.72246C2.64057 7.81346 1.82007 10.2857 1.82007 12.8719C1.82007 15.4582 2.64057 17.9305 4.19288 20.0215C5.60588 21.9248 8.33269 22.3501 10.2835 20.9715C12.2344 19.5929 12.6701 16.9322 11.2572 15.0291C10.7899 14.3996 10.5428 13.6536 10.5428 12.8719C10.5428 12.0902 10.7898 11.3443 11.2573 10.7147C11.8171 9.96052 12.0866 9.08714 12.0867 8.22208Z" fill="#FF4D4D"/>
<path d="M11.1718 13.6691H8.82782C8.39632 13.6691 8.04657 13.3193 8.04657 12.8879C8.04657 12.4565 8.39632 12.1066 8.82782 12.1066H11.1718C12.575 12.1066 13.7166 10.965 13.7166 9.56183C13.7166 9.13039 14.0664 8.78058 14.4979 8.78058C14.9293 8.78058 15.2791 9.13039 15.2791 9.56183C15.2791 11.8266 13.4366 13.6691 11.1718 13.6691Z" fill="#9494FF"/>
<path d="M9.62351 15.0291C9.15619 14.3996 8.90913 13.6536 8.90913 12.8719C8.90913 12.0902 9.15613 11.3443 9.62357 10.7147H6.25557V15.0292H9.62351V15.0291Z" fill="#FF4D4D"/>
<path d="M8.75726 9.44728C9.67073 9.44728 10.4113 8.70676 10.4113 7.79328C10.4113 6.8798 9.67073 6.13928 8.75726 6.13928C7.84378 6.13928 7.10326 6.8798 7.10326 7.79328C7.10326 8.70676 7.84378 9.44728 8.75726 9.44728Z" fill="#FF6C6C"/>
<path d="M8.24049 10.004C8.38906 9.37553 8 8.7456 7.37151 8.59703C6.74302 8.44847 6.11309 8.83753 5.96453 9.46602C5.81596 10.0945 6.20502 10.7244 6.83351 10.873C7.462 11.0216 8.09193 10.6325 8.24049 10.004Z" fill="#FF9494"/>
<path d="M17.5021 27.7245C17.9336 27.7245 18.2834 27.3747 18.2834 26.9433V16.2139C18.2834 14.8107 19.425 13.6691 20.8282 13.6691H23.1722C23.6036 13.6691 23.9534 13.3193 23.9534 12.8878C23.9534 12.4564 23.6036 12.1066 23.1722 12.1066H20.8282C18.5634 12.1066 16.7209 13.9491 16.7209 16.2139V26.9433C16.7209 27.3748 17.0706 27.7245 17.5021 27.7245Z" fill="#6C6CFF"/>
<path d="M17.5021 27.7245C17.9336 27.7245 18.2834 27.3747 18.2834 26.9433V16.2139C18.2834 14.8107 19.425 13.6691 20.8282 13.6691H23.1722C23.6036 13.6691 23.9534 13.3193 23.9534 12.8878C23.9534 12.4564 23.6036 12.1066 23.1722 12.1066H20.8282C18.5634 12.1066 16.7209 13.9491 16.7209 16.2139V26.9433C16.7209 27.3748 17.0706 27.7245 17.5021 27.7245Z" fill="url(#paint1_linear_686_4003)"/>
<path d="M19.9133 8.22208C19.9132 6.90396 20.5388 5.60464 21.7166 4.77233C23.6675 3.39377 26.3943 3.81914 27.8072 5.72246C29.3595 7.81346 30.18 10.2857 30.18 12.8719C30.18 15.4582 29.3595 17.9305 27.8071 20.0215C26.3941 21.9248 23.6673 22.3501 21.7166 20.9715C19.7657 19.5929 19.3299 16.9322 20.7429 15.0291C21.2102 14.3996 21.4573 13.6536 21.4573 12.8719C21.4573 12.0902 21.2103 11.3443 20.7428 10.7147C20.183 9.96052 19.9134 9.08714 19.9133 8.22208Z" fill="#FF4D4D"/>
<path d="M20.8282 13.6691H23.1722C23.6037 13.6691 23.9534 13.3193 23.9534 12.8879C23.9534 12.4565 23.6037 12.1066 23.1722 12.1066H20.8282C19.425 12.1066 18.2834 10.965 18.2834 9.56183C18.2834 9.13039 17.9336 8.78058 17.5021 8.78058C17.0707 8.78058 16.7209 9.13039 16.7209 9.56183C16.7209 11.8266 18.5634 13.6691 20.8282 13.6691Z" fill="#9494FF"/>
<path d="M22.3765 15.0291C22.8438 14.3996 23.0909 13.6536 23.0909 12.8719C23.0909 12.0902 22.8439 11.3443 22.3765 10.7147H25.7445V15.0292H22.3765V15.0291Z" fill="#FF4D4D"/>
<path d="M9.41345 13.9816L9.25751 13.3566C9.23407 13.1972 9.22164 13.0355 9.22164 12.8718C9.22164 12.7191 9.23257 12.568 9.25301 12.4191L9.40214 11.7941C9.51164 11.4774 9.66964 11.1768 9.87451 10.9009C9.97739 10.7623 9.94845 10.5665 9.80989 10.4637C9.67132 10.3608 9.47557 10.3898 9.3727 10.5283C8.91632 11.1431 8.65407 11.8603 8.60564 12.6158V13.1277C8.65407 13.8833 8.91632 14.6005 9.37264 15.2153C9.43395 15.2978 9.52826 15.3415 9.62382 15.3415C9.68857 15.3415 9.75389 15.3215 9.80989 15.28C9.94845 15.1771 9.97739 14.9814 9.87451 14.8428C9.67651 14.5761 9.52245 14.2865 9.41345 13.9816Z" fill="#FF2C2C"/>
<path d="M22.747 12.4192C22.7674 12.5681 22.7784 12.7192 22.7784 12.8719C22.7784 13.0355 22.7659 13.1973 22.7426 13.3567L22.5866 13.9817C22.4776 14.2866 22.3236 14.5762 22.1256 14.8428C22.0228 14.9814 22.0517 15.1772 22.1903 15.28C22.2463 15.3215 22.3115 15.3415 22.3763 15.3415C22.4718 15.3415 22.5662 15.2979 22.6275 15.2153C23.1351 14.5315 23.4034 13.7211 23.4034 12.8718C23.4034 12.0225 23.1351 11.2122 22.6274 10.5284C22.5246 10.3898 22.3289 10.3608 22.1903 10.4637C22.0517 10.5665 22.0228 10.7623 22.1256 10.9009C22.3305 11.1769 22.4884 11.4774 22.598 11.7941L22.747 12.4192Z" fill="#FF2C2C"/>
<path d="M23.2428 9.44728C24.1563 9.44728 24.8968 8.70676 24.8968 7.79328C24.8968 6.8798 24.1563 6.13928 23.2428 6.13928C22.3293 6.13928 21.5888 6.8798 21.5888 7.79328C21.5888 8.70676 22.3293 9.44728 23.2428 9.44728Z" fill="#FF6C6C"/>
<path d="M25.162 10.8602C25.7905 10.7117 26.1796 10.0817 26.031 9.45326C25.8824 8.82477 25.2525 8.43571 24.624 8.58427C23.9955 8.73284 23.6065 9.36276 23.755 9.99126C23.9036 10.6197 24.5335 11.0088 25.162 10.8602Z" fill="#FF9494"/>
<path d="M8.64139 26.1694C8.46882 26.1694 8.32889 26.0295 8.32889 25.8569C8.32889 25.6386 8.15132 25.4611 7.93307 25.4611C7.76051 25.4611 7.62057 25.3212 7.62057 25.1486C7.62057 24.9759 7.76051 24.8361 7.93307 24.8361C8.15132 24.8361 8.32889 24.6584 8.32889 24.4402C8.32889 24.2676 8.46882 24.1277 8.64139 24.1277C8.81395 24.1277 8.95389 24.2676 8.95389 24.4402C8.95389 24.6584 9.13145 24.8361 9.3497 24.8361C9.52226 24.8361 9.6622 24.9759 9.6622 25.1486C9.6622 25.3212 9.52226 25.4611 9.3497 25.4611C9.13145 25.4611 8.95389 25.6386 8.95389 25.8569C8.95389 26.0295 8.81395 26.1694 8.64139 26.1694Z" fill="#6C6CFF"/>
<path d="M24.8968 25.4949C24.7243 25.4949 24.5843 25.3551 24.5843 25.1824C24.5843 24.9642 24.4068 24.7866 24.1885 24.7866C24.0159 24.7866 23.876 24.6467 23.876 24.4741C23.876 24.3014 24.0159 24.1616 24.1885 24.1616C24.4068 24.1616 24.5843 23.984 24.5843 23.7657C24.5843 23.5931 24.7243 23.4532 24.8968 23.4532C25.0694 23.4532 25.2093 23.5931 25.2093 23.7657C25.2093 23.984 25.3869 24.1616 25.6052 24.1616C25.7778 24.1616 25.9177 24.3014 25.9177 24.4741C25.9177 24.6467 25.7778 24.7866 25.6052 24.7866C25.3869 24.7866 25.2093 24.9642 25.2093 25.1824C25.2093 25.3551 25.0694 25.4949 24.8968 25.4949Z" fill="#FF4D4D"/>
<path d="M16 6.99689C15.8274 6.99689 15.6875 6.85701 15.6875 6.68439C15.6875 6.46614 15.5099 6.28851 15.2917 6.28851C15.1191 6.28851 14.9792 6.14864 14.9792 5.97601C14.9792 5.80339 15.1191 5.66351 15.2917 5.66351C15.5099 5.66351 15.6875 5.48595 15.6875 5.2677C15.6875 5.09508 15.8274 4.9552 16 4.9552C16.1726 4.9552 16.3125 5.09508 16.3125 5.2677C16.3125 5.48595 16.4901 5.66351 16.7083 5.66351C16.8809 5.66351 17.0208 5.80339 17.0208 5.97601C17.0208 6.14864 16.8809 6.28851 16.7083 6.28851C16.4901 6.28851 16.3125 6.46614 16.3125 6.68439C16.3125 6.85701 16.1726 6.99689 16 6.99689Z" fill="#FF4D4D"/>
<path d="M11.1338 22.7508C10.9612 22.7508 10.8213 22.611 10.8213 22.4383V22.429C10.8213 22.2563 10.9612 22.1165 11.1338 22.1165C11.3063 22.1165 11.4463 22.2563 11.4463 22.429V22.4383C11.4463 22.6109 11.3063 22.7508 11.1338 22.7508Z" fill="#FF9D33"/>
<path d="M11.1338 24.4873C10.9612 24.4873 10.8213 24.3475 10.8213 24.1748V24.1655C10.8213 23.9928 10.9612 23.853 11.1338 23.853C11.3063 23.853 11.4463 23.9928 11.4463 24.1655V24.1748C11.4463 24.3475 11.3063 24.4873 11.1338 24.4873Z" fill="#FF9D33"/>
<path d="M10.3856 23.1826C10.3324 23.1826 10.2786 23.1691 10.2293 23.1405L10.2212 23.1358C10.0718 23.0493 10.0208 22.8582 10.1073 22.7088C10.1938 22.5594 10.3849 22.5084 10.5344 22.5949L10.5425 22.5996C10.6919 22.6861 10.7429 22.8773 10.6564 23.0266C10.5984 23.1267 10.4934 23.1826 10.3856 23.1826Z" fill="#FF9D33"/>
<path d="M11.8895 24.0509C11.8365 24.0509 11.7828 24.0374 11.7336 24.0091L11.7255 24.0044C11.576 23.9181 11.5247 23.727 11.611 23.5776C11.6971 23.4281 11.8883 23.3768 12.0378 23.463L12.0459 23.4677C12.1954 23.5539 12.2467 23.7451 12.1605 23.8945C12.1026 23.9948 11.9975 24.0509 11.8895 24.0509Z" fill="#FF9D33"/>
<path d="M10.3781 24.0509C10.2702 24.0509 10.1653 23.995 10.1073 23.8949C10.0208 23.7455 10.0718 23.5544 10.2212 23.4679L10.2293 23.4632C10.3788 23.3767 10.5699 23.4277 10.6564 23.5771C10.7429 23.7265 10.6919 23.9176 10.5425 24.0041L10.5344 24.0088C10.485 24.0374 10.4312 24.0509 10.3781 24.0509Z" fill="#FF9D33"/>
<path d="M11.8819 23.1826C11.7738 23.1826 11.6688 23.1266 11.6109 23.0262C11.5246 22.8767 11.5759 22.6856 11.7254 22.5994L11.7336 22.5947C11.8831 22.5083 12.0742 22.5597 12.1604 22.7093C12.2466 22.8588 12.1953 23.0498 12.0458 23.1361L12.0377 23.1408C11.9886 23.1691 11.9349 23.1826 11.8819 23.1826Z" fill="#FF9D33"/>
<path d="M18.6119 3.85306C18.4394 3.85306 18.2994 3.71319 18.2994 3.54056V3.53119C18.2994 3.35856 18.4394 3.21869 18.6119 3.21869C18.7845 3.21869 18.9244 3.35856 18.9244 3.53119V3.54056C18.9244 3.71319 18.7845 3.85306 18.6119 3.85306Z" fill="#6C6CFF"/>
<path d="M18.6119 5.58964C18.4394 5.58964 18.2994 5.44976 18.2994 5.27714V5.26776C18.2994 5.09514 18.4394 4.95526 18.6119 4.95526C18.7845 4.95526 18.9244 5.09514 18.9244 5.26776V5.27714C18.9244 5.4497 18.7845 5.58964 18.6119 5.58964Z" fill="#6C6CFF"/>
<path d="M17.8638 4.28497C17.8106 4.28497 17.7568 4.2714 17.7075 4.24284L17.6994 4.23815C17.55 4.15165 17.499 3.96053 17.5855 3.81115C17.672 3.66172 17.8631 3.61065 18.0125 3.69728L18.0206 3.70197C18.17 3.78847 18.2209 3.97959 18.1345 4.12897C18.0766 4.22903 17.9716 4.28497 17.8638 4.28497Z" fill="#6C6CFF"/>
<path d="M19.3677 5.15316C19.3153 5.15316 19.2621 5.13997 19.2134 5.11222L19.2053 5.1076C19.0553 5.02222 19.0029 4.83135 19.0883 4.68141C19.1737 4.53141 19.3646 4.47916 19.5144 4.56441L19.5226 4.56904C19.6726 4.65441 19.7249 4.84529 19.6396 4.99522C19.5819 5.09641 19.4763 5.15316 19.3677 5.15316Z" fill="#6C6CFF"/>
<path d="M17.8562 5.15312C17.7477 5.15312 17.6423 5.09655 17.5846 4.99555C17.499 4.84574 17.5511 4.65487 17.7009 4.56924L17.7091 4.56462C17.8589 4.47899 18.0498 4.53099 18.1354 4.68087C18.2211 4.83068 18.169 5.02155 18.0191 5.10718L18.011 5.1118C17.9621 5.1398 17.9088 5.15312 17.8562 5.15312Z" fill="#6C6CFF"/>
<path d="M19.3601 4.28496C19.2521 4.28496 19.147 4.2289 19.0891 4.12852C19.0029 3.97902 19.0542 3.78796 19.2037 3.70171L19.2118 3.69702C19.3613 3.61065 19.5524 3.66202 19.6386 3.81158C19.7249 3.96108 19.6736 4.15215 19.5241 4.2384L19.5159 4.24308C19.4667 4.27146 19.4131 4.28496 19.3601 4.28496Z" fill="#6C6CFF"/>
<defs>
<linearGradient id="paint0_linear_686_4003" x1="11.6629" y1="27.7246" x2="11.6629" y2="12.1066" gradientUnits="userSpaceOnUse">
<stop stop-color="#FF4D4D" stop-opacity="0.4"/>
<stop offset="1" stop-color="#FF4D4D" stop-opacity="0"/>
</linearGradient>
<linearGradient id="paint1_linear_686_4003" x1="20.3372" y1="27.7246" x2="20.3372" y2="12.1066" gradientUnits="userSpaceOnUse">
<stop stop-color="#FF4D4D" stop-opacity="0.4"/>
<stop offset="1" stop-color="#FF4D4D" stop-opacity="0"/>
</linearGradient>
</defs>
</svg>
