<svg width="32" height="32" viewBox="0 0 32 32" fill="none" xmlns="http://www.w3.org/2000/svg">
<path d="M27.2038 19.9597C27.1117 19.3812 26.873 18.8397 26.4768 18.3911C26.2605 18.1466 26.0128 17.9437 25.7414 17.7844L25.7248 17.7748C25.4208 18.3149 24.9811 18.7668 24.4518 19.0874C24.3661 19.1386 24.2797 19.1866 24.1894 19.2314C23.7088 19.4682 23.1693 19.602 22.5978 19.602C21.9578 19.602 21.3568 19.4337 20.8365 19.1405C20.151 19.689 19.2826 20.018 18.336 20.018C17.92 20.018 17.5194 19.954 17.1424 19.8362C17.152 19.8394 17.2269 21.3255 17.7587 22.5204L17.7011 22.5466C17.0054 22.6145 16.249 22.5997 15.465 22.489L15.463 22.505C15.767 23.1316 16.2931 23.8324 17.415 24.4749C19.4176 25.6186 20.5613 25.6762 21.7997 27.6199C23.0394 29.5649 23.9923 29.0497 24.4691 28.9549C24.9453 28.8596 25.8029 28.4788 24.4691 27.1437C23.8739 26.5485 23.6762 25.7453 23.641 25.0369L23.6115 24.9217C24.3226 24.7482 25.0291 24.3898 25.6454 23.8471C26.8621 22.7764 27.4138 21.2711 27.2038 19.9597Z" fill="#F9CC9B"/>
<path d="M17.7587 22.521L17.7011 22.5473C17.0054 22.6151 16.249 22.6004 15.465 22.4897C15.2787 22.4647 15.0912 22.4321 14.9018 22.3956C12.3258 21.89 10.3277 20.5121 9.82465 19.049V19.0362C10.8512 18.9914 11.7766 18.5588 12.4602 17.8829C13.0266 18.4513 13.8086 18.802 14.6733 18.802C14.919 18.802 15.1571 18.7725 15.3856 18.7194C15.8566 19.2333 16.4602 19.6237 17.1424 19.8362C17.152 19.8394 17.2269 21.3255 17.7587 22.5204V22.521Z" fill="#E24374"/>
<path d="M26.0704 8.06338C26.1402 7.82722 26.1779 7.5789 26.1779 7.32098C26.1779 5.8797 25.0093 4.71106 23.568 4.71106C23.2998 4.71106 23.0413 4.75202 22.7981 4.82626C22.3437 3.70562 21.2448 2.91394 19.961 2.91394C19.0803 2.91394 18.288 3.28578 17.7299 3.88098C16.9498 3.37218 16.0192 3.07586 15.0182 3.07586C13.4483 3.07586 12.0506 3.80418 11.1398 4.93954C10.4858 4.57282 9.73184 4.3629 8.92864 4.3629C6.42816 4.3629 4.40064 6.39042 4.40064 8.8909C4.40064 9.21794 4.43584 9.5373 4.50176 9.84578C3.19808 10.5056 2.30336 11.8573 2.30336 13.4189C2.30336 15.4035 3.74656 17.0509 5.64032 17.3671C5.85728 17.4035 6.08 17.4227 6.30656 17.4227C6.34624 17.4227 6.38464 17.4208 6.42432 17.4195C7.15328 18.4045 8.3232 19.0426 9.64352 19.0426C9.70432 19.0426 9.76384 19.0413 9.82336 19.0381C10.8499 18.9933 11.7754 18.5607 12.4589 17.8848C13.0253 18.4531 13.8074 18.8039 14.672 18.8039C14.9178 18.8039 15.1558 18.7744 15.3843 18.7213C15.8554 19.2352 16.4589 19.6256 17.1411 19.8381C17.5181 19.9559 17.9194 20.0199 18.3347 20.0199C19.2813 20.0199 20.1498 19.6909 20.8352 19.1424C21.3555 19.4362 21.9558 19.6039 22.5965 19.6039C23.168 19.6039 23.7075 19.4701 24.1882 19.2333C24.2778 19.1885 24.3648 19.1405 24.4506 19.0893C24.9798 18.7687 25.4202 18.3162 25.7235 17.7767C25.7677 17.7005 25.8074 17.6211 25.8445 17.5405C25.8445 17.5405 25.9603 17.545 25.9866 17.5405C26.6752 17.408 27.3088 17.0112 27.7286 16.4512C28.1485 15.8906 28.3514 15.1706 28.2842 14.473C28.2854 14.4256 28.3258 14.4019 28.3258 14.4019L28.3526 14.3738C28.8038 13.9155 29.136 13.3408 29.3011 12.6995V12.6983C29.3786 12.4007 29.4189 12.0896 29.4189 11.7677C29.4189 9.83746 27.9494 8.2509 26.0678 8.06466L26.0704 8.06338Z" fill="#FF7F9F"/>
<path d="M24.1888 19.232C23.7082 19.4688 23.1686 19.6026 22.5971 19.6026C21.9571 19.6026 21.3562 19.4343 20.8358 19.1412C20.1504 19.6896 19.2819 20.0186 18.3354 20.0186C17.9194 20.0186 17.5187 19.9546 17.1418 19.8368C16.4595 19.625 15.856 19.234 15.385 18.72C15.1565 18.7732 14.9178 18.8026 14.6726 18.8026C13.808 18.8026 13.0253 18.4519 12.4595 17.8836C11.7766 18.5594 10.8512 18.992 9.824 19.0368C9.76448 19.04 9.70496 19.0413 9.64416 19.0413C8.32384 19.0413 7.15392 18.4032 6.42496 17.4183L6.51456 17.3658C7.00992 17.9194 7.8016 18.1709 8.55232 18.1588C9.37984 18.1453 10.1754 17.8592 10.9472 17.5584C11.6499 17.2839 12.3814 16.9716 12.8461 16.3764C13.449 17.2493 14.6278 17.6788 15.6506 17.3978C15.751 17.3696 15.8592 17.337 15.9558 17.3767C16.0352 17.41 16.0864 17.4861 16.1389 17.5552C16.6118 18.1914 17.4528 18.4954 18.2413 18.4231C19.031 18.3501 19.7632 17.9386 20.3283 17.3837C20.7546 17.7287 21.3235 17.858 21.8714 17.8368C23.3011 17.7844 24.1651 17.3645 25.127 16.5543C25.5834 16.1696 25.9469 15.6487 26.057 15.0637C26.1408 15.3664 26.1856 15.6864 26.1856 16.0154C26.1856 16.5607 26.0646 17.0778 25.8464 17.5392C25.8086 17.6199 25.769 17.6992 25.7254 17.7754C25.4214 18.3156 24.9818 18.7674 24.4525 19.088C24.3667 19.1392 24.2803 19.1872 24.1901 19.232H24.1888Z" fill="#FC648D"/>
<path d="M25.9821 17.5386C26.6707 17.4061 27.3043 17.0093 27.7242 16.4493C28.144 15.8886 28.3469 15.1686 28.2797 14.471C28.2752 14.423 28.3309 14.3904 28.3213 14.4C29.1495 14.9472 29.696 15.8861 29.696 16.9536C29.696 18.4422 28.633 19.6826 27.2224 19.9565L27.1975 19.9597C27.1053 19.3811 26.8666 18.8397 26.4704 18.391C26.2541 18.1466 26.0064 17.9437 25.7351 17.7843L25.7184 17.7747C25.7626 17.6986 25.8023 17.6192 25.8394 17.5386C25.8394 17.5386 25.9552 17.543 25.9815 17.5386H25.9821Z" fill="#FC648D"/>
<path d="M27.2038 19.9597C27.1117 19.3812 26.873 18.8397 26.4768 18.3911C26.2605 18.1466 26.0128 17.9437 25.7414 17.7844L25.7248 17.7748C25.4208 18.3149 24.9811 18.7668 24.4518 19.0874C24.3661 19.1386 24.2797 19.1866 24.1894 19.2314C24.6323 19.1303 25.0637 19.4874 25.2621 19.897C25.5693 20.5319 25.4963 21.3146 25.1494 21.9265C24.8019 22.5396 24.2042 22.9889 23.5462 23.2391C22.887 23.49 22.1696 23.5546 21.4656 23.5181C21.1002 23.4996 20.7302 23.4535 20.3962 23.305C19.943 23.1047 19.5763 22.7137 19.4029 22.249L19.3786 22.2509C19.4496 22.8884 19.696 23.4868 20.1274 23.9777C20.1773 24.034 20.2285 24.0884 20.2822 24.1409L20.281 24.1421C19.9392 24.0596 19.5782 24.098 19.2378 24.0148C19.0131 23.9604 18.8019 23.8529 18.6266 23.7025L18.633 23.6941C18.2528 23.4234 17.9699 22.9953 17.7587 22.521L17.7011 22.5473C17.0054 22.6151 16.249 22.6004 15.465 22.4897L15.463 22.5057C15.767 23.1322 16.2931 23.833 17.415 24.4756C19.4176 25.6193 20.5613 25.6769 21.7997 27.6205C23.0394 29.5655 23.9923 29.0503 24.4691 28.9556C24.9453 28.8602 25.8029 28.4794 24.4691 27.1444C23.8739 26.5492 23.6762 25.746 23.641 25.0375L23.6115 24.9223C24.3226 24.7489 25.0291 24.3905 25.6454 23.8477C26.8621 22.777 27.4138 21.2717 27.2038 19.9604V19.9597Z" fill="#D8A36F"/>
<path d="M21.4266 21.0746C20.9165 21.0746 20.5843 21.0279 20.5728 21.0266C20.5158 21.0183 20.4762 20.9652 20.4851 20.9082C20.4934 20.8513 20.5472 20.8129 20.6035 20.8199C20.6387 20.825 24.1606 21.3165 25.9315 18.9889C25.9667 18.9428 26.032 18.9338 26.0781 18.969C26.1242 19.0042 26.1331 19.0695 26.0979 19.1156C24.8026 20.818 22.6246 21.0753 21.4259 21.0753L21.4266 21.0746Z" fill="#93653B"/>
<path d="M21.6211 22.4442C21.1033 22.4442 20.7648 22.3949 20.7437 22.3923C20.6867 22.384 20.647 22.3309 20.656 22.2739C20.6643 22.217 20.7174 22.1779 20.7744 22.1856C20.7821 22.1869 21.5635 22.2995 22.5638 22.1799C22.6208 22.1722 22.6733 22.2138 22.6797 22.2714C22.6867 22.3283 22.6457 22.3808 22.5881 22.3872C22.2285 22.4301 21.8989 22.4442 21.6211 22.4442Z" fill="#93653B"/>
<path d="M24.1651 22.0026C24.1235 22.0026 24.0839 21.977 24.0679 21.9361C24.0467 21.8823 24.0736 21.8215 24.1274 21.801C24.9498 21.4823 25.6141 20.9959 26.1024 20.354C26.1376 20.3079 26.2029 20.2989 26.249 20.3341C26.2951 20.3693 26.304 20.4346 26.2688 20.4807C25.7568 21.1533 25.0618 21.6634 24.2035 21.9962C24.1914 22.0007 24.1786 22.0033 24.1658 22.0033L24.1651 22.0026Z" fill="#93653B"/>
<path d="M21.687 23.7287C21.5968 23.7287 21.511 23.7274 21.431 23.7249C21.3734 23.7229 21.328 23.6749 21.3299 23.6173C21.3318 23.5597 21.3798 23.5143 21.4374 23.5162C22.4352 23.5476 24.313 23.417 25.6525 22.1959C25.6954 22.1569 25.7613 22.1601 25.8003 22.2029C25.8394 22.2458 25.8362 22.3117 25.7933 22.3508C24.5075 23.5226 22.7597 23.7293 21.687 23.7293V23.7287Z" fill="#93653B"/>
<path d="M16.7347 21.6589C12.505 21.6589 10.857 19.2275 10.6784 18.9414C10.6682 18.9267 10.6618 18.9095 10.6598 18.8909C10.6547 18.8333 10.6976 18.7827 10.7552 18.7783C10.7949 18.7751 10.8346 18.7981 10.855 18.8314C11.033 19.1162 12.7226 21.609 17.1507 21.4426C17.2083 21.4381 17.257 21.4854 17.2589 21.543C17.2608 21.6006 17.216 21.6493 17.1584 21.6512C17.0144 21.6563 16.873 21.6595 16.7347 21.6595V21.6589Z" fill="#913C57"/>
<path d="M16.2995 20.5728C16.2995 20.5728 16.2957 20.5728 16.2938 20.5728C13.0272 20.4038 11.7338 18.569 11.68 18.4909C11.6474 18.4435 11.6595 18.3782 11.7069 18.3456C11.7543 18.313 11.8195 18.3251 11.8522 18.3725C11.865 18.391 13.1469 20.2003 16.3047 20.3642C16.3623 20.3674 16.4064 20.416 16.4039 20.4736C16.4007 20.5293 16.3546 20.5728 16.2995 20.5728Z" fill="#913C57"/>
<path d="M16.985 19.8887C16.9734 19.8887 16.9613 19.8868 16.9498 19.8823C16.3456 19.6653 15.7933 19.3037 15.3498 18.8346C15.1264 18.8826 14.8986 18.9069 14.6726 18.9069C13.8426 18.9069 13.0605 18.5959 12.4595 18.0282C11.7677 18.6797 10.871 19.072 9.92448 19.136C9.86752 19.1399 9.81696 19.0964 9.81312 19.0388C9.80928 18.9812 9.8528 18.9312 9.9104 18.9274C10.8416 18.8647 11.721 18.4672 12.3866 17.8087C12.4275 17.7684 12.4934 17.7684 12.5344 17.8087C13.1046 18.3821 13.8643 18.6976 14.6733 18.6976C14.9037 18.6976 15.1354 18.6708 15.3626 18.6176C15.3997 18.6093 15.4374 18.6208 15.463 18.649C15.8906 19.1149 16.4294 19.4733 17.0208 19.6852C17.0752 19.7044 17.1034 19.7645 17.0835 19.8189C17.0682 19.8618 17.0278 19.888 16.985 19.888V19.8887Z" fill="#913C57"/>
<path d="M19.0208 14.1293L19.0407 14.1511C18.7232 14.4365 18.4967 14.7892 18.4141 15.1297L18.3731 15.1847C17.5834 14.6113 16.496 14.5319 15.6096 15.0689C15.5917 15.0791 15.5744 15.0906 15.5565 15.1021L15.5533 15.0977C15.4938 14.898 15.408 14.7028 15.2954 14.5172C15.2512 14.4442 15.2045 14.3751 15.1546 14.3085L15.2243 14.2625C15.4125 14.0193 15.7101 13.8887 16.0045 13.801C16.6074 13.6212 17.2519 13.5809 17.872 13.6839C18.2816 13.7517 18.6867 13.8842 19.0208 14.1287V14.1293Z" fill="#FC648D"/>
<path d="M14.7456 10.9811L14.7174 10.9331C14.7456 10.7533 14.7603 10.5683 14.7603 10.3815C14.7603 9.85218 14.6432 9.35042 14.4333 8.9005C15.1475 7.69602 17.0522 7.57634 17.0522 7.57634C16.0128 7.36002 14.9664 7.67042 14.1235 8.28866C14.1107 8.29826 14.1005 8.3085 14.0909 8.31874C13.4528 7.44002 12.4179 6.86914 11.2486 6.86914C10.2221 6.86914 9.29857 7.3101 8.65601 8.01154C8.65601 8.01154 10.6227 6.79234 12.5498 7.8957C14.4768 8.99842 14.2438 11.353 14.2438 11.353C14.1939 11.3978 14.1446 11.4439 14.0979 11.4906C13.6416 11.945 13.3299 12.5056 13.177 13.1053L13.1738 13.3133C13.3786 13.3146 13.5834 13.3415 13.7805 13.3927L14.032 13.3133C14.032 13.3133 14.5754 11.9751 15.911 11.4343C17.223 10.9037 18.8147 11.3037 18.8755 11.3184C17.7434 10.3379 16.071 10.1683 14.7456 10.9811Z" fill="#FFB8D1"/>
<path d="M14.0435 11.4387L14.0979 11.4912C13.6416 11.9456 13.3299 12.5062 13.177 13.1059L13.1738 13.3139C12.7264 13.3107 12.2746 13.4265 11.8637 13.6755C11.3056 14.014 10.9267 14.5363 10.7584 15.118L10.7482 15.1168C10.7597 15.0214 10.7661 14.9248 10.7661 14.8275C10.7661 13.4476 9.64736 12.3289 8.26752 12.3289C7.49568 12.3289 6.80512 12.679 6.34752 13.2294L6.28992 13.1795C6.70656 12.528 7.31968 12.0032 8.0288 11.6934C8.22848 11.6057 8.4352 11.5347 8.6464 11.4822C9.68384 11.2262 10.8294 11.4508 11.6941 12.0787C11.7517 12.1203 11.8144 12.1651 11.8861 12.1625C11.9526 12.158 12.0083 12.1126 12.0608 12.0697C12.6099 11.6198 13.335 11.3888 14.0435 11.44V11.4387Z" fill="#FC648D"/>
<path d="M26.0704 8.06277C26.1402 7.82661 26.1779 7.57829 26.1779 7.32037C26.1779 5.87909 25.0093 4.71045 23.568 4.71045C23.2998 4.71045 23.0413 4.75141 22.7981 4.82565C22.3437 3.70501 21.2448 2.91333 19.961 2.91333C19.0803 2.91333 18.288 3.28517 17.7299 3.88037C16.9498 3.37157 16.0192 3.07525 15.0182 3.07525C13.4483 3.07525 12.0506 3.80357 11.1398 4.93893C10.4858 4.57221 9.73184 4.36229 8.92864 4.36229C6.42816 4.36229 4.40064 6.38981 4.40064 8.89029C4.40064 9.21733 4.43584 9.53669 4.50176 9.84517C3.19808 10.505 2.30336 11.8567 2.30336 13.4183C2.30336 15.4029 3.74656 17.0503 5.64032 17.3665V17.3652C3.89056 16.3834 3.16288 14.8461 3.376 12.8173C3.58912 10.7892 5.89248 10.0096 5.89248 10.0096C5.96992 5.59685 10.8499 5.38757 10.8499 5.38757C10.8787 5.33637 10.6586 5.76133 10.5606 6.05701C10.6272 5.99557 13.0227 3.81253 15.4624 4.33861C17.9366 4.87109 19.4022 6.21253 20.0038 8.28869L19.8176 6.99461C20.3904 7.09125 24.4774 7.94437 23.7158 12.5812L23.6992 12.6605C24.0218 12.7284 24.2246 12.8161 24.2246 12.8161C24.4557 12.2727 24.5837 11.6743 24.5837 11.0458C24.5837 11.0458 26.135 10.6791 26.9158 12.4154C27.0413 11.6833 26.7885 10.905 26.1824 10.3873C25.6979 9.97253 25.0848 9.80741 24.4979 9.87973L24.4365 9.89637C23.927 7.95269 22.1587 6.51845 20.0557 6.51845C19.9533 6.51845 19.8522 6.52293 19.7504 6.52997C19.5277 5.83429 19.1558 5.20581 18.6726 4.68037C18.6726 4.68037 20.9766 3.51045 22.151 6.05829C22.151 6.05829 25.175 5.49829 25.1821 8.90245C25.1821 8.90245 28.7616 8.90245 29.3024 12.697C29.3798 12.3994 29.4202 12.0884 29.4202 11.7665C29.4202 9.83621 27.9507 8.24965 26.0691 8.06341L26.0704 8.06277Z" fill="#FFB8D1"/>
<path d="M18.4134 15.234C18.4051 15.234 18.3968 15.2327 18.3885 15.2308C18.3328 15.2173 18.2982 15.1604 18.3117 15.1047C18.4512 14.5338 18.9472 13.9681 19.5757 13.6634C19.6275 13.6385 19.6902 13.6602 19.7152 13.7121C19.7402 13.7639 19.719 13.8266 19.6666 13.8516C19.1002 14.1261 18.6374 14.6497 18.5139 15.154C18.5024 15.202 18.4595 15.234 18.4128 15.234H18.4134Z" fill="#BC5972"/>
<path d="M21.776 12.921C21.7357 12.921 21.6973 12.8973 21.68 12.8583C21.6569 12.8052 21.6813 12.7437 21.7344 12.7207C22.9824 12.1792 24.2137 12.6983 24.2656 12.7207C24.3187 12.7437 24.343 12.8052 24.32 12.8576C24.2969 12.9108 24.2361 12.9351 24.183 12.912C24.1715 12.9069 22.9811 12.4071 21.8176 12.912C21.8041 12.9178 21.7901 12.921 21.776 12.921Z" fill="#BC5972"/>
<path d="M10.759 15.2218C10.7494 15.2218 10.7398 15.2205 10.7302 15.2173C10.6746 15.2013 10.6426 15.1431 10.6592 15.088C10.841 14.4589 11.2499 13.9252 11.8106 13.586C13.0381 12.8429 14.6413 13.2365 15.385 14.464C15.5002 14.6541 15.5904 14.8576 15.6538 15.0688C15.6704 15.1239 15.639 15.1821 15.5834 15.1988C15.5283 15.2154 15.4701 15.184 15.4534 15.1284C15.3952 14.9344 15.3126 14.7469 15.2064 14.5722C14.5229 13.4432 13.0477 13.081 11.9187 13.7645C11.4029 14.0768 11.0272 14.5677 10.8595 15.1463C10.8461 15.1917 10.8045 15.2218 10.759 15.2218Z" fill="#BC5972"/>
<path d="M18.6726 23.8278C18.6528 23.8278 18.6323 23.8221 18.6144 23.8099C17.4867 23.0515 17.1469 21.0406 17.0445 19.9098C17.0419 19.8854 17.0406 19.8675 17.04 19.8586C17.0355 19.84 17.0368 19.8195 17.0438 19.8003C17.0637 19.7459 17.1238 19.7184 17.1776 19.7382C17.241 19.7613 17.2448 19.8074 17.2525 19.8912C17.3325 20.7718 17.6358 22.9005 18.7309 23.6371C18.7789 23.6691 18.7917 23.7344 18.759 23.7824C18.7386 23.8125 18.7059 23.8285 18.672 23.8285L18.6726 23.8278Z" fill="#93653B"/>
</svg>
