<svg width="26" height="33" viewBox="0 0 26 33" fill="none" xmlns="http://www.w3.org/2000/svg">
<path d="M2.14114 10.5868L11.7183 11.8475V2.30807C11.7183 1.03332 10.6497 0 9.33153 0C8.0811 0 7.05602 0.930008 6.95381 2.1136C6.4092 2.18773 5.88394 2.42707 5.46507 2.83213C4.96146 3.31914 4.70581 3.95484 4.69694 4.59312C3.63979 5.00058 2.89232 5.99866 2.89232 7.16625C2.89232 7.49768 2.95268 7.81544 3.0631 8.11C2.48329 8.65512 2.1225 9.41714 2.1225 10.261C2.1225 10.3712 2.12921 10.4798 2.14114 10.5868Z" fill="#FD77A6"/>
<path d="M9.53984 0.00880168C8.19673 -0.101319 7.06161 0.865123 6.9538 2.11383C7.74233 2.00655 8.5716 2.24595 9.17801 2.83236C9.36828 3.01636 9.52322 3.22166 9.64277 3.4402C10.003 4.09897 10.9592 4.15274 11.364 3.51862C11.6075 3.13726 11.7393 2.68215 11.7156 2.1959C11.6595 1.05196 10.7199 0.105559 9.53984 0.00880168Z" fill="#FE3D97"/>
<path d="M5.22533 7.25982C5.9067 7.25982 6.53651 7.47226 7.04814 7.83234C7.72019 8.30529 8.66451 7.80014 8.61555 6.99792C8.61477 6.98469 8.61386 6.97146 8.61282 6.95822C8.51015 5.59755 7.36989 4.49852 5.96211 4.40355C4.28733 4.29056 2.8924 5.57058 2.8924 7.16555C2.8924 7.4969 2.95276 7.81457 3.06318 8.10905C3.622 7.5838 4.38433 7.25982 5.22533 7.25982Z" fill="#FE3D97"/>
<path d="M22.9628 10.5868C22.9747 10.4797 22.9814 10.3712 22.9814 10.261C22.9814 9.41708 22.6207 8.65512 22.0407 8.10993C22.1511 7.81537 22.2115 7.49762 22.2115 7.16618C22.2115 5.9986 21.464 5.00051 20.4069 4.59306C20.398 3.95477 20.1424 3.31907 19.6388 2.83207C19.2199 2.42701 18.6947 2.18761 18.15 2.11354C18.0479 0.930009 17.0227 0 15.7724 0C14.4542 0 13.3856 1.03332 13.3856 2.30807V11.8476L22.9628 10.5868Z" fill="#FEA2C8"/>
<path d="M15.564 0.00880168C16.9071 -0.101319 18.0423 0.865123 18.1501 2.11383C17.3615 2.00655 16.5323 2.24595 15.9259 2.83236C15.7356 3.01636 15.5806 3.22166 15.4611 3.4402C15.1008 4.09897 14.1447 4.15274 13.7398 3.51862C13.4964 3.13726 13.3645 2.68215 13.3883 2.1959C13.4444 1.05196 14.3839 0.105559 15.564 0.00880168Z" fill="#FD77A6"/>
<path d="M19.8786 7.25982C19.1972 7.25982 18.5674 7.47226 18.0558 7.83234C17.3837 8.30529 16.4394 7.80014 16.4883 6.99792C16.4891 6.98469 16.49 6.97146 16.4911 6.95822C16.5937 5.59755 17.734 4.49852 19.1418 4.40355C20.8166 4.29056 22.2115 5.57058 22.2115 7.16555C22.2115 7.4969 22.1511 7.81457 22.0407 8.10905C21.4819 7.5838 20.7196 7.25982 19.8786 7.25982Z" fill="#FD77A6"/>
<path d="M13.6792 11.8472V1.41328C13.6792 0.810542 13.1739 0.321899 12.5506 0.321899C11.9273 0.321899 11.422 0.810542 11.422 1.41328V11.8472H13.6792Z" fill="#FCD4E7"/>
<path d="M13.1149 0.469085C12.9487 0.376046 12.7563 0.321899 12.5506 0.321899C11.9273 0.321899 11.422 0.810542 11.422 1.41328V11.8472H12.5506V1.41328C12.5506 1.00954 12.7779 0.657872 13.1149 0.469085Z" fill="#FEA2C8"/>
<path d="M7.20099 31.3843C8.87394 31.9596 10.6749 32.2737 12.5519 32.2737C14.429 32.2737 16.23 31.9596 17.9029 31.3843V24.1505H7.20099V31.3843Z" fill="#FC9460"/>
<path d="M23.704 10.4279C23.6306 10.1497 23.3696 9.95642 23.0728 9.95642H12.5519H2.03111C1.73433 9.95642 1.47333 10.1497 1.39993 10.4279C1.01919 11.8702 0.81308 13.4329 0.81308 15.0878V17.2398L3.6141 21.3394C5.20251 26.3847 8.60766 30.6911 12.552 30.6911C16.4964 30.6911 19.9015 26.3847 21.4899 21.3394L24.2909 17.2398V15.0878C24.2909 13.433 24.0848 11.8702 23.704 10.4279Z" fill="#FFC7AB"/>
<path d="M6.68538 14.5151C6.68538 12.8832 6.91098 11.3523 7.32386 9.95642H2.03111C1.73433 9.95642 1.47333 10.1497 1.39993 10.4279C1.01919 11.8702 0.81308 13.4329 0.81308 15.0878V17.2398L3.6173 21.3494C5.20707 26.3904 8.61027 30.6911 12.552 30.6911C13.3434 30.6911 14.1128 30.5167 14.8505 30.1988C10.1792 28.3219 6.68538 20.939 6.68538 14.5151Z" fill="#FFAA7B"/>
<path d="M2.66018 15.3862C2.66018 15.2508 2.66239 15.1165 2.66565 14.9826C2.16875 14.6351 1.54768 14.44 0.813056 14.6652C-1.03595 15.2321 0.425863 19.978 3.61102 21.3277C3.00154 19.3884 2.66018 17.3406 2.66018 15.3862Z" fill="#FC9460"/>
<path d="M24.2909 14.6652C23.5563 14.44 22.9351 14.6351 22.4383 14.9826C22.4415 15.1165 22.4438 15.2508 22.4438 15.3862C22.4438 17.3406 22.1024 19.3884 21.493 21.3277C24.6781 19.978 26.1399 15.2321 24.2909 14.6652Z" fill="#FFAA7B"/>
<path d="M6.74726 14.7831C4.7903 12.8907 3.69084 10.3242 3.69058 7.64791C3.69058 7.47035 3.7632 7.29984 3.89311 7.17421C4.1631 6.91312 4.60088 6.91312 4.87087 7.17421L21.1259 22.8932L19.7432 24.2304L16.2507 20.853C15.8052 20.4223 15.0829 20.4223 14.6375 20.853C14.192 21.2838 13.4697 21.2838 13.0242 20.853L6.74726 14.7831Z" fill="white"/>
<path d="M15.3288 18.4016C14.8833 18.8324 14.161 18.8324 13.7156 18.4016L8.36044 13.2231C6.80789 11.7218 5.79577 9.796 5.44332 7.7279L4.87075 7.17421C4.60076 6.91312 4.16298 6.91312 3.89299 7.17421C3.76314 7.29977 3.69046 7.47028 3.69046 7.64791C3.69072 10.3242 4.79018 12.8907 6.74714 14.7831L13.0241 20.8531C13.4696 21.2839 14.1919 21.2839 14.6373 20.8531C15.0828 20.4223 15.8051 20.4223 16.2506 20.8531L19.7431 24.2304L21.1258 22.8933L15.905 17.8445L15.3288 18.4016Z" fill="#F9F2F2"/>
<path d="M24.1439 24.4745L23.5061 24.4227L23.4525 23.8059L22.7611 23.1373L22.1233 23.0855L22.0697 22.4687L18.0787 18.6094C17.82 18.3592 17.4005 18.3592 17.1419 18.6094C17.0008 18.7458 16.9308 18.9364 16.9514 19.1283L17.5389 24.6201C17.5851 25.0521 17.7837 25.4555 18.1013 25.7627L18.3824 26.0345L19.0201 26.0863L19.0738 26.7031L19.7652 27.3717L20.4029 27.4235L20.4566 28.0403L21.8495 29.3873C23.2706 28.4015 24.5175 27.1958 25.5369 25.8215L24.1439 24.4745Z" fill="#F9F2F2"/>
<path d="M19.484 24.4256C19.1664 24.1185 18.9678 23.715 18.9216 23.283L18.4612 18.9793L18.0787 18.6095C17.82 18.3593 17.4005 18.3593 17.1419 18.6095C17.0008 18.7459 16.9308 18.9365 16.9514 19.1283L17.5389 24.6202C17.5851 25.0522 17.7837 25.4556 18.1013 25.7627L18.3824 26.0345L19.0201 26.0864L19.0738 26.7031L19.7652 27.3717L20.4029 27.4236L20.4566 28.0403L21.8495 29.3873C22.383 29.0172 22.8918 28.616 23.3734 28.1866L19.484 24.4256Z" fill="#EDE3DD"/>
<path d="M13.408 17.4355C13.5989 17.2509 13.5989 16.9516 13.408 16.7669L8.5683 12.0869C8.37738 11.9023 8.06782 11.9023 7.8769 12.0869C7.68597 12.2715 7.68597 12.5709 7.8769 12.7555L12.7166 17.4355C12.9075 17.6202 13.217 17.6202 13.408 17.4355Z" fill="#FFC7AB"/>
<path d="M22.7662 23.1377L19.0799 26.7025L18.3887 26.0341L22.075 22.4693L22.7662 23.1377Z" fill="#EDE3DD"/>
<path d="M18.3773 26.0342L19.7593 24.6977L20.4503 25.366L19.0683 26.7024L18.3773 26.0342Z" fill="#DDD1CC"/>
<path d="M24.1493 24.4749L20.4629 28.0397L19.7717 27.3713L23.4581 23.8065L24.1493 24.4749Z" fill="#EDE3DD"/>
<path d="M19.7597 27.3714L21.1417 26.035L21.8327 26.7032L20.4507 28.0396L19.7597 27.3714Z" fill="#DDD1CC"/>
</svg>
