<svg width="32" height="32" viewBox="0 0 32 32" fill="none" xmlns="http://www.w3.org/2000/svg">
<g clip-path="url(#clip0_686_4106)">
<path d="M15.9998 29.1339C22.6286 29.1339 28.0023 23.7602 28.0023 17.1315C28.0023 10.5027 22.6286 5.12903 15.9998 5.12903C9.37105 5.12903 3.99738 10.5027 3.99738 17.1315C3.99738 23.7602 9.37105 29.1339 15.9998 29.1339Z" fill="#FFE1A1"/>
<path d="M18.7992 5.45728C22.3768 7.53509 24.7824 11.4084 24.7824 15.8435C24.7824 22.4723 19.4087 27.846 12.78 27.846C11.8161 27.846 10.8788 27.7323 9.98071 27.5178C11.7502 28.5455 13.8063 29.134 16 29.134C22.6287 29.134 28.0024 23.7603 28.0024 17.1315C28.0023 11.4666 24.0777 6.71834 18.7992 5.45728Z" fill="#FFC05A"/>
<path d="M23.8402 3.55205L20.1591 9.92742C20.0721 10.078 19.8819 10.1311 19.7281 10.0499C18.6147 9.46236 17.3461 9.12998 16.0001 9.12998C14.6535 9.12998 13.3849 9.46236 12.2714 10.0499C12.1176 10.1311 11.9274 10.0781 11.8404 9.92742L8.15975 3.55205C8.06937 3.39555 8.12556 3.19548 8.28381 3.10823C10.5723 1.84592 13.2022 1.1283 16 1.1283C18.7977 1.1283 21.4277 1.84592 23.7162 3.10817C23.8744 3.19548 23.9306 3.39555 23.8402 3.55205Z" fill="#017297"/>
<path d="M11.8406 24.3352L8.15998 30.7107C8.06948 30.8674 7.86773 30.9186 7.71291 30.8247C3.17504 28.0733 0.114727 23.1289 -2.26903e-05 17.4619C-0.00371019 17.2809 0.141165 17.1316 0.322227 17.1316H7.68285C7.85641 17.1316 7.9976 17.2693 8.00423 17.4428C8.10829 20.1629 9.57029 22.5352 11.7318 23.9011C11.8785 23.9939 11.9274 24.1848 11.8406 24.3352Z" fill="#017297"/>
<path d="M31.6777 17.1317C31.8587 17.1317 32.0036 17.2809 31.9999 17.462C31.8852 23.1289 28.8249 28.0727 24.287 30.8248C24.1323 30.9187 23.9304 30.8675 23.8399 30.7107L20.1588 24.3353C20.0719 24.1849 20.1208 23.9939 20.2676 23.9012C22.429 22.5358 23.8916 20.1637 23.9958 17.4431C24.0024 17.2695 24.1434 17.1316 24.3171 17.1316L31.6777 17.1317Z" fill="#017297"/>
<path d="M23.7162 3.10817C21.4277 1.84592 18.7978 1.1283 16 1.1283C15.6211 1.1283 15.2453 1.14148 14.873 1.16736C16.3541 1.27036 17.7796 1.57486 19.1225 2.0538C20.5586 2.56598 21.1824 4.25155 20.42 5.57192L18.1903 9.43348C18.7285 9.58636 19.2435 9.79411 19.7291 10.0505C19.8826 10.1315 20.0723 10.0777 20.1591 9.92742L23.8402 3.55205C23.9306 3.39555 23.8745 3.19548 23.7162 3.10817Z" fill="#025F80"/>
<path d="M11.7319 23.9011C9.57046 22.5352 8.10839 20.1628 8.00433 17.4428C7.99771 17.2693 7.85652 17.1316 7.68296 17.1316H5.42896C5.60252 17.1316 5.7437 17.2693 5.75033 17.4428C5.82602 19.4212 6.62014 21.2157 7.87927 22.5728C8.88371 23.6553 9.04352 25.276 8.3052 26.555L6.36714 29.912C6.79908 30.238 7.24802 30.5427 7.71246 30.8243C7.86746 30.9183 8.06946 30.8675 8.16008 30.7105L11.8407 24.3351C11.9275 24.1848 11.8786 23.9938 11.7319 23.9011Z" fill="#025F80"/>
<path d="M31.6777 17.1316H29.4237C29.6048 17.1316 29.7496 17.2808 29.7459 17.4619C29.6429 22.5487 27.1667 27.0527 23.3788 29.912L23.8399 30.7107C23.9304 30.8674 24.1322 30.9186 24.2869 30.8247C28.8249 28.0727 31.8852 23.1289 31.9999 17.4619C32.0036 17.2808 31.8588 17.1316 31.6777 17.1316Z" fill="#025F80"/>
<path d="M15.9998 23.1327C19.3142 23.1327 22.0011 20.4459 22.0011 17.1315C22.0011 13.8171 19.3142 11.1302 15.9998 11.1302C12.6854 11.1302 9.99857 13.8171 9.99857 17.1315C9.99857 20.4459 12.6854 23.1327 15.9998 23.1327Z" fill="#80D261"/>
<path d="M12.9992 18.6318H14.3386C14.4275 18.6318 14.4996 18.7038 14.4996 18.7928V20.1321C14.4996 20.3099 14.6437 20.4541 14.8216 20.4541H17.1782C17.356 20.4541 17.5002 20.3099 17.5002 20.1321V18.7928C17.5002 18.7038 17.5722 18.6318 17.6612 18.6318H19.0005C19.1783 18.6318 19.3225 18.4876 19.3225 18.3098V15.9532C19.3225 15.7753 19.1783 15.6312 19.0005 15.6312H17.6612C17.5722 15.6312 17.5002 15.5591 17.5002 15.4701V14.1308C17.5002 13.953 17.356 13.8088 17.1782 13.8088H14.8216C14.6437 13.8088 14.4996 13.953 14.4996 14.1308V15.4701C14.4996 15.5591 14.4275 15.6312 14.3386 15.6312H12.9992C12.8214 15.6312 12.6772 15.7753 12.6772 15.9532V18.3098C12.6772 18.4876 12.8214 18.6318 12.9992 18.6318Z" fill="#EAF9FA"/>
</g>
<defs>
<clipPath id="clip0_686_4106">
<rect width="32" height="32" fill="white"/>
</clipPath>
</defs>
</svg>
