<svg width="33" height="33" viewBox="0 0 33 33" fill="none" xmlns="http://www.w3.org/2000/svg">
<path d="M27.4251 16.1864C27.4251 21.4156 23.6434 25.7908 18.5807 26.8936C17.7746 27.0697 16.9358 27.1625 16.0747 27.1625C9.80608 27.1625 4.72427 22.2483 4.72427 16.1864C4.72427 10.1238 9.80608 5.20959 16.0747 5.20959C16.9358 5.20959 17.7746 5.30218 18.5807 5.47848C23.6434 6.58133 27.4251 10.9565 27.4251 16.1864Z" fill="#C9700E"/>
<path d="M25.6104 14.3445C25.6104 19.5737 21.8287 23.9489 16.766 25.0517C11.7038 23.9482 7.92209 19.5737 7.92209 14.3445C7.92209 9.11467 11.7038 4.73994 16.766 3.6366C21.8287 4.73945 25.6104 9.11467 25.6104 14.3445Z" fill="#EA9228"/>
<path d="M28.2821 25.9588C26.8636 27.998 25.151 29.6399 23.3287 30.9235C21.283 31.7919 19.0225 32.2735 16.645 32.2735C13.1493 32.2735 9.90535 31.2325 7.22746 29.4527C8.13062 28.6239 9.39025 27.7609 10.7018 26.7558C13.2852 24.8466 16.0571 22.4136 18.3441 19.2363C20.6467 16.069 22.0591 12.7164 23.029 9.71465C24.0411 6.76238 24.6092 4.16173 26.2187 3.62396C26.4478 3.53729 26.7134 3.51612 27.0016 3.56093C27.0464 3.56807 27.092 3.57669 27.1384 3.58728C28.4955 3.88817 30.3028 5.57458 31.3468 8.60392C31.4405 8.87477 31.5276 9.15596 31.6078 9.44798C32.8379 13.6925 32.5015 20.347 28.2821 25.9588Z" fill="#FFE161"/>
<path d="M27.2838 4.71106C26.2316 4.67043 27.2015 13.1732 21.5669 20.1756C17.5454 25.1726 12.0674 28.1054 9.99091 30.9353C9.01773 30.526 8.09344 30.0277 7.22746 29.4527C8.13062 28.6239 9.39025 27.7609 10.7018 26.7558C13.2852 24.8466 16.0571 22.4136 18.3441 19.2363C20.6467 16.069 22.0591 12.7164 23.029 9.71465C24.0411 6.76238 24.6092 4.16173 26.2187 3.62396C26.4478 3.53729 26.7134 3.51612 27.0016 3.56093H27.0024C27.0472 3.56807 27.0928 3.57669 27.1384 3.58728L27.1498 3.67592L27.2838 4.71106Z" fill="#FFB43B"/>
<path d="M27.7098 0.91223L29.0843 4.78145L27.2838 4.71103L25.0093 4.62165L24.6591 1.56892C24.58 0.877019 25.0571 0.240029 25.7619 0.0977089L26.1029 0.0287652C26.7921 -0.1106 27.4812 0.268098 27.7098 0.91223Z" fill="#5AD199"/>
<path d="M27.2838 4.71131L25.0093 4.62193L24.6591 1.56895C24.58 0.877051 25.0571 0.240307 25.7619 0.0977408L26.025 0.0445557L27.2838 4.71131Z" fill="#2BAB8D"/>
<path d="M12.7477 10.3193C10.1595 12.2576 6.87329 12.7183 3.96981 11.8388C3.81678 8.90029 5.10085 5.93866 7.68886 4.0011C10.2779 2.06279 13.5641 1.6021 16.4676 2.48163C16.6203 5.42011 15.3365 8.38173 12.7477 10.3193Z" fill="#5AD199"/>
<path d="M12.043 15.9188L11.5569 16.9L10.6871 18.6549L10.8019 15.872C10.8936 14.2183 10.4526 12.463 9.78037 10.8275C9.56623 10.307 9.7987 9.71482 10.3186 9.46786C10.477 9.39226 10.6436 9.3573 10.8065 9.3573C10.9445 9.3573 11.0797 9.38242 11.2063 9.42969C11.521 9.54739 11.7792 9.801 11.8744 10.1467C12.3964 12.0343 12.4522 14.012 12.043 15.9188Z" fill="#873E1F"/>
<path d="M12.043 15.9186L11.5569 16.8999L11.5992 15.8719C11.6908 14.2182 11.2498 12.4628 10.5776 10.8274C10.3635 10.3069 10.5959 9.7147 11.1159 9.46773C11.1457 9.4532 11.1757 9.44065 11.2063 9.42957C11.521 9.54726 11.7792 9.80088 11.8744 10.1466C12.3964 12.0342 12.4522 14.0119 12.043 15.9186Z" fill="#A35F31"/>
<path d="M18.0213 32.2192C17.5673 32.2551 17.1085 32.2736 16.6451 32.2736C14.2791 32.2736 12.0287 31.7971 9.99097 30.9353C9.37249 30.6751 8.77386 30.3794 8.19739 30.0502C7.86638 29.8615 7.54275 29.6623 7.22753 29.4528C2.98089 26.6318 0.155576 21.9567 0 16.6357V16.6349C0.39696 15.7424 0.925561 15.0162 1.56314 14.5272C2.62009 13.7154 3.69945 13.4566 4.74799 13.5098C6.65997 13.6056 8.47061 14.7382 9.85908 15.4479H9.85984C10.5056 15.7778 11.0601 16.0164 11.4917 16.0164C13.3581 16.0164 17.5381 11.5471 21.4203 14.5272C24.9341 17.2227 25.1597 27.1444 18.0213 32.2192Z" fill="#F73E5D"/>
<path d="M8.19739 30.0502C7.86638 29.8616 7.54275 29.6624 7.22753 29.4528C2.98089 26.6318 0.155576 21.9562 0 16.635C0.39696 15.7424 0.925561 15.0163 1.56314 14.5272C2.62009 13.7154 3.69945 13.4566 4.74799 13.5098C6.65997 13.6056 8.47061 14.7383 9.85908 15.4479C2.47674 15.4479 4.81394 25.1781 8.19739 30.0502Z" fill="#E02B2B"/>
<path d="M16.4676 2.48163L3.96981 11.8388C3.81678 8.90029 5.10085 5.93866 7.68886 4.0011C10.2779 2.06279 13.5641 1.6021 16.4676 2.48163Z" fill="#2BAB8D"/>
<path d="M21.7551 7.23216C21.7551 7.63394 21.418 7.95968 21.0022 7.95968C20.5864 7.95968 20.2492 7.63394 20.2492 7.23216C20.2492 6.83039 20.5864 6.50488 21.0022 6.50488C21.418 6.50488 21.7551 6.83039 21.7551 7.23216Z" fill="#C9700E"/>
<path d="M19.6883 5.75869C19.6883 6.01482 19.4737 6.22222 19.2086 6.22222C18.9435 6.22222 18.7289 6.01482 18.7289 5.75869C18.7289 5.50257 18.9435 5.29517 19.2086 5.29517C19.4737 5.29517 19.6883 5.50257 19.6883 5.75869Z" fill="#C9700E"/>
<path d="M19.5781 7.79774C19.5781 8.16605 19.2689 8.46474 18.8878 8.46474C18.5063 8.46474 18.1975 8.16605 18.1975 7.79774C18.1975 7.42918 18.5063 7.13074 18.8878 7.13074C19.2689 7.13074 19.5781 7.42918 19.5781 7.79774Z" fill="#C9700E"/>
<path d="M9.16695 13.5601C9.16695 13.9284 8.85784 14.2268 8.47667 14.2268C8.09549 14.2268 7.78638 13.9284 7.78638 13.5601C7.78638 13.1915 8.09549 12.8931 8.47667 12.8931C8.85784 12.8931 9.16695 13.1915 9.16695 13.5601Z" fill="#C9700E"/>
</svg>
