<svg width="32" height="32" viewBox="0 0 32 32" fill="none" xmlns="http://www.w3.org/2000/svg">
<g clip-path="url(#clip0_686_4139)">
<path d="M28.6897 4.96552V29.2414C28.6897 30.7649 27.4546 32 25.931 32H8.27587C6.75233 32 5.51725 30.7649 5.51725 29.2414V5.82345C5.51728 5.26085 5.37391 4.70753 5.1007 4.21572L3.45105 1.63917C3.26141 1.2977 3.26643 0.881409 3.46425 0.544606C3.66207 0.207804 4.0232 0.000678014 4.4138 0H27.5862C28.1956 0 28.6897 0.494031 28.6897 1.10345V4.96552Z" fill="#2980BA"/>
<path d="M28.1545 0.159941C24.7945 1.22477 6.71449 7.96684 5.57794 29.8096C5.53809 29.6228 5.51775 29.4323 5.51725 29.2413V5.82063C5.51625 5.25921 5.37395 4.70707 5.10345 4.21511L3.44828 1.63856C3.25868 1.29669 3.26412 0.880025 3.46257 0.54322C3.66103 0.206414 4.02287 -0.000248546 4.4138 -5.85871e-05H27.5862C27.7871 -0.00226863 27.9843 0.0532674 28.1545 0.159941Z" fill="#3B97D3"/>
<path d="M10.4828 30.3447H8.27587C7.66645 30.3447 7.17242 29.8507 7.17242 29.2413V27.0344C7.17242 26.7297 7.41944 26.4827 7.72415 26.4827C8.02886 26.4827 8.27587 26.7297 8.27587 27.0344V29.2413H10.4828C10.7875 29.2413 11.0345 29.4883 11.0345 29.793C11.0345 30.0977 10.7875 30.3447 10.4828 30.3447Z" fill="white"/>
<path d="M8.82759 3.31024H7.17242C6.86771 3.31024 6.6207 3.06322 6.6207 2.75851C6.6207 2.4538 6.86771 2.20679 7.17242 2.20679H8.82759C9.1323 2.20679 9.37932 2.4538 9.37932 2.75851C9.37932 3.06322 9.1323 3.31024 8.82759 3.31024Z" fill="white"/>
<path d="M25.931 3.31024H11.0345C10.7298 3.31024 10.4828 3.06322 10.4828 2.75851C10.4828 2.4538 10.7298 2.20679 11.0345 2.20679H25.931C26.2358 2.20679 26.4828 2.4538 26.4828 2.75851C26.4828 3.06322 26.2358 3.31024 25.931 3.31024Z" fill="white"/>
<path d="M25.3881 21.5172C24.8916 23.0123 23.9426 24.9544 20.9192 23.2882C20.7463 23.1935 20.536 23.1983 20.3675 23.3007C20.1991 23.4031 20.0981 23.5877 20.1026 23.7847C20.1137 25.4013 19.4792 27.5861 16.0088 27.5861C10.4916 27.5861 9.38814 20.4137 9.93987 18.7585C10.4916 17.1034 7.18125 14.3447 9.93987 11.5861C11.1078 10.4035 12.908 10.1154 14.3868 10.8744C15.0112 11.1842 15.5282 11.6743 15.8709 12.2813C16.0969 12.7214 16.1853 13.2193 16.1247 13.7103C16.0269 14.1362 15.9678 14.5702 15.9481 15.0068C15.9589 15.2442 16.0482 15.4712 16.2019 15.6523C16.3509 15.8068 16.5606 15.8896 16.6709 16.0882C16.761 16.3458 16.722 16.6311 16.5661 16.8551C15.8862 17.9589 14.7147 18.6659 13.4212 18.753H13.4157C11.3026 18.5654 10.4916 21.7599 14.3537 22.6206C15.3112 22.8939 16.3326 22.8395 17.2557 22.4661C17.6585 21.462 18.2599 20.4578 19.0819 20.1985C19.5382 20.0608 20.0324 20.1401 20.4226 20.4137C22.1606 21.4565 22.8061 21.1861 23.2916 20.3034C23.4546 19.9959 23.7524 19.7826 24.096 19.7273C24.4397 19.6721 24.7893 19.7811 25.0406 20.022C25.4518 20.4021 25.5896 20.9946 25.3881 21.5172Z" fill="#FDD7AD"/>
<path d="M17.4864 21.0786L21.973 18.2068C23.5243 17.2477 24.0848 15.2618 23.264 13.633C23.0982 13.3055 23.1858 12.9065 23.4737 12.6786L24.0585 12.2041C24.9007 11.5366 25.3907 10.5201 25.3882 9.44545V5.51718C25.3882 5.21247 25.1411 4.96545 24.8364 4.96545H23.1813C22.8765 4.96545 22.6295 5.21247 22.6295 5.51718V9.44214C22.6295 9.67934 22.522 9.90375 22.3371 10.0524L21.7468 10.5268C20.4307 11.5573 20.0324 13.3774 20.7978 14.8634C21.4373 16.0253 19.5288 16.8788 17.8069 17.5939L17.4864 21.0786Z" fill="#F09372"/>
<path d="M19.435 17.1145C19.2967 16.5993 18.8957 16.1962 18.3812 16.0552C18.0739 15.9755 17.7469 16.045 17.4985 16.2427C16.9578 16.7117 17.1123 17.5779 17.1123 18.2069C17.1217 18.6487 16.9504 19.0752 16.6379 19.3877C16.3254 19.7001 15.8989 19.8715 15.4571 19.8621C14.931 19.2632 14.2097 18.8703 13.4212 18.7531H13.4157C11.3026 18.5655 10.4916 21.76 14.3537 22.6207C14.8925 22.7489 15.4469 22.7996 16 22.7713C15.7759 23.4103 15.5978 24.0644 15.467 24.7288C15.4227 24.9264 15.4901 25.1324 15.6426 25.2655C15.7952 25.3986 16.0085 25.4375 16.1982 25.3667C16.3879 25.2959 16.5236 25.1269 16.5517 24.9263C16.7151 24.0875 16.9508 23.2643 17.2563 22.4662C17.659 21.4621 18.2604 20.4579 19.0825 20.1986C19.2315 19.7021 19.3197 19.1779 19.4246 18.6648C19.5549 18.1567 19.5585 17.6243 19.435 17.1145Z" fill="#F9C795"/>
</g>
<defs>
<clipPath id="clip0_686_4139">
<rect width="32" height="32" fill="white"/>
</clipPath>
</defs>
</svg>
