<svg width="32" height="32" viewBox="0 0 32 32" fill="none" xmlns="http://www.w3.org/2000/svg">
<g clip-path="url(#clip0_686_4958)">
<path d="M26.5458 19.0093C23.3578 15.8213 22.7189 10.885 24.9904 6.99043L27.5753 2.55831C28.2367 1.42419 27.4186 0 26.1057 0H12.9366C10.2579 0 8.03062 2.13271 7.9946 4.81111C7.98011 5.88794 8.3158 6.88508 8.89336 7.69838C8.00822 8.2134 7.17716 8.8566 6.42823 9.62962C2.14789 14.0475 2.15931 21.1321 6.45327 25.5368C7.20301 26.3058 8.03426 26.9454 8.91928 27.4571C9.08605 27.5535 9.15231 27.7604 9.07194 27.9356L7.87131 30.5502C7.56016 31.2279 8.05522 32 8.80088 32H21.0747C25.2915 32 28.8055 28.5498 28.7744 24.3331C28.7592 22.2544 27.9104 20.374 26.5458 19.0093Z" fill="url(#paint0_linear_686_4958)"/>
<path d="M28.7745 24.3331C28.7592 22.2544 27.9104 20.3739 26.5458 19.0093C26.3955 18.859 26.2508 18.7047 26.1119 18.5469L20.9625 13.3975L8.09595 22.7881L17.3077 32H21.0747C25.2916 32 28.8055 28.5498 28.7745 24.3331Z" fill="url(#paint1_linear_686_4958)"/>
<path d="M12.8722 9.75611C15.5663 9.75611 17.7503 7.57213 17.7503 4.87806C17.7503 2.18398 15.5663 0 12.8722 0C10.1782 0 7.99417 2.18398 7.99417 4.87806C7.99417 7.57213 10.1782 9.75611 12.8722 9.75611Z" fill="url(#paint2_linear_686_4958)"/>
<path d="M6.45326 25.5367C7.203 26.3058 8.03425 26.9454 8.91927 27.4571C9.08605 27.5535 9.1523 27.7604 9.07193 27.9355L7.8713 30.5502C7.56015 31.2278 8.05521 31.9999 8.80087 31.9999H21.0747C25.2915 31.9999 28.8055 28.5497 28.7744 24.333C28.7677 23.4311 28.604 22.5667 28.3096 21.7654H4.01712C4.5551 23.1363 5.36689 24.4223 6.45326 25.5367Z" fill="url(#paint3_linear_686_4958)"/>
<path d="M13.7751 26.3033C13.4621 26.3033 13.1486 26.2292 12.8684 26.089C12.0218 25.6654 10.3686 24.7569 8.80911 23.4325C6.78037 21.7096 5.57792 19.8603 5.23502 17.936C4.96873 16.4412 5.34896 14.9151 6.27816 13.7492C7.13877 12.6694 8.35822 12.0385 9.71201 11.9725C9.79163 11.9686 9.87226 11.9666 9.95169 11.9666C11.22 11.9666 12.4174 12.4554 13.3232 13.3429C13.4868 13.5032 13.6377 13.6733 13.775 13.8519C13.9125 13.6733 14.0633 13.5032 14.2269 13.3429C15.1326 12.4553 16.33 11.9666 17.5984 11.9666C17.6778 11.9666 17.7585 11.9685 17.8381 11.9724C19.1919 12.0384 20.4114 12.6694 21.272 13.7492C22.2013 14.9151 22.5815 16.4412 22.3151 17.9359C21.9723 19.8602 20.7698 21.7095 18.7411 23.4324C17.1816 24.7568 15.5285 25.6653 14.6818 26.089C14.4016 26.2292 14.088 26.3033 13.7751 26.3033Z" fill="url(#paint4_linear_686_4958)"/>
<path d="M15.0192 25.9159C15.9232 25.4416 17.3683 24.5982 18.741 23.4324C20.4244 22.0028 21.5383 20.4862 22.0648 18.912L18.675 15.5222H15.7264L14.2521 17.9939L11.3251 16.0209L8.38928 18.8768L11.7573 22.2448L11.737 22.6337L15.0192 25.9159Z" fill="url(#paint5_linear_686_4958)"/>
<path d="M7.1978 12.8834C7.0073 13.0739 7.00724 13.3828 7.1978 13.5732C8.38863 14.7641 9.97195 15.4199 11.656 15.4199H12.4307C13.2481 15.4199 13.913 16.0848 13.913 16.9021C13.913 17.7194 13.2482 18.3844 12.4307 18.3843H12.3042C11.4995 18.3843 10.8449 19.039 10.8448 19.8437C10.8449 20.6484 11.4995 21.3031 12.3042 21.3031H13.286C13.5553 21.3031 13.7738 21.0847 13.7737 20.8153C13.7737 20.5459 13.5553 20.3274 13.2859 20.3274H12.3042C12.0375 20.3274 11.8204 20.1104 11.8204 19.8436C11.8205 19.577 12.0375 19.36 12.3042 19.3599H12.4307C13.786 19.3599 14.8885 18.2573 14.8886 16.9021C14.8886 16.2455 14.6329 15.6283 14.1687 15.1641C13.7045 14.6998 13.0872 14.4442 12.4307 14.4441H11.656C10.2325 14.4441 8.89417 13.8899 7.88762 12.8832C7.69712 12.6929 7.38829 12.6929 7.1978 12.8834Z" fill="url(#paint6_linear_686_4958)"/>
<path d="M12.3994 19.3858C12.8376 19.3858 13.1929 19.0306 13.1929 18.5923V16.7552C13.1929 16.0301 12.76 15.3824 12.0902 15.1049C11.4202 14.8274 10.6561 14.9794 10.1434 15.4921L9.21362 16.4219C8.90373 16.7318 8.90373 17.2342 9.21362 17.5441C9.52352 17.854 10.0259 17.854 10.3358 17.5441L11.2656 16.6142C11.3281 16.5517 11.4012 16.5371 11.4828 16.5711C11.5644 16.6049 11.6058 16.6668 11.6058 16.7552V18.5923C11.6059 19.0306 11.9611 19.3858 12.3994 19.3858Z" fill="url(#paint7_linear_686_4958)"/>
<path d="M8.38928 17.7545L9.3191 16.8247C9.83179 16.312 10.5959 16.16 11.2658 16.4375C11.8099 16.6629 12.1976 17.1325 12.324 17.6895C12.9393 17.3269 13.652 17.1926 14.3393 17.2871C14.3393 17.2871 14.3393 17.2867 14.3393 17.2865C14.3393 15.8909 15.4706 14.7595 16.8662 14.7595C18.2679 14.7595 19.4033 15.9036 19.3932 17.3052C19.3849 18.4495 18.6159 19.413 17.5668 19.715C17.2543 19.8049 17.0423 20.0919 17.0392 20.4169C17.0315 21.2125 16.7222 22.0057 16.1112 22.6103C14.883 23.8256 12.8789 23.8075 11.6719 22.5712C11.045 21.9292 10.7496 21.0843 10.7854 20.251C10.7912 20.1146 10.7964 19.9782 10.7954 19.8416L10.7816 18.0878C10.7816 17.9979 10.7387 17.9352 10.654 17.9019C10.5807 17.8729 10.4969 17.8914 10.4412 17.9471L9.51154 18.8767C9.20171 19.1866 8.69931 19.1866 8.38941 18.8767C8.07945 18.5668 8.07945 18.0644 8.38928 17.7545Z" fill="url(#paint8_linear_686_4958)"/>
<path d="M16.8663 19.8134C18.2618 19.8134 19.3932 18.682 19.3932 17.2865C19.3932 15.8909 18.2618 14.7595 16.8663 14.7595C15.4707 14.7595 14.3393 15.8909 14.3393 17.2865C14.3393 18.682 15.4707 19.8134 16.8663 19.8134Z" fill="url(#paint9_linear_686_4958)"/>
<path d="M18.2726 19.3857C18.0582 19.5296 17.8207 19.6419 17.5667 19.715C17.2543 19.8049 17.0423 20.0919 17.0391 20.417C17.0314 21.2126 16.7221 22.0057 16.1111 22.6103C14.8829 23.8256 12.8788 23.8075 11.6718 22.5712C11.045 21.9292 10.7495 21.0843 10.7853 20.2511C10.7912 20.1147 10.7964 19.9782 10.7953 19.8416L10.7917 19.3857H18.2726Z" fill="url(#paint10_linear_686_4958)"/>
<path d="M14.6778 19.6487H14.7472C15.1855 19.6487 15.5407 19.2935 15.5407 18.8553C15.5407 18.4171 15.1855 18.0618 14.7472 18.0618H14.6778C14.2329 18.0618 13.8709 17.6998 13.8709 17.2548V16.4915C13.8709 16.0533 13.5156 15.698 13.0774 15.698C12.6392 15.698 12.2839 16.0533 12.2839 16.4915V17.2548C12.2839 18.5748 13.3578 19.6487 14.6778 19.6487Z" fill="url(#paint11_linear_686_4958)"/>
<path d="M15.0928 28.9753C13.0751 29.0573 11.0393 28.6065 9.21542 27.623L7.87092 30.551C7.56058 31.2284 8.05552 31.9999 8.80087 31.9999H21.0747C21.0909 31.9999 21.107 31.9994 21.1232 31.9993C18.6594 31.9861 16.4725 30.8026 15.0928 28.9753Z" fill="url(#paint12_linear_686_4958)"/>
</g>
<defs>
<linearGradient id="paint0_linear_686_4958" x1="5.20784" y1="6.18604" x2="27.2794" y2="23.7045" gradientUnits="userSpaceOnUse">
<stop stop-color="#AEFFD1"/>
<stop offset="1" stop-color="#60B7FF"/>
</linearGradient>
<linearGradient id="paint1_linear_686_4958" x1="19.673" y1="24.5193" x2="11.0439" y2="10.5131" gradientUnits="userSpaceOnUse">
<stop stop-color="#1F3596" stop-opacity="0"/>
<stop offset="0.4068" stop-color="#1D3290" stop-opacity="0.407"/>
<stop offset="0.9508" stop-color="#192B7F" stop-opacity="0.951"/>
<stop offset="1" stop-color="#192A7D"/>
</linearGradient>
<linearGradient id="paint2_linear_686_4958" x1="13.0458" y1="4.63511" x2="3.28967" y2="18.2936" gradientUnits="userSpaceOnUse">
<stop stop-color="#1F3596" stop-opacity="0"/>
<stop offset="0.4068" stop-color="#1D3290" stop-opacity="0.407"/>
<stop offset="0.9508" stop-color="#192B7F" stop-opacity="0.951"/>
<stop offset="1" stop-color="#192A7D"/>
</linearGradient>
<linearGradient id="paint3_linear_686_4958" x1="16.3959" y1="28.4971" x2="16.3959" y2="33.384" gradientUnits="userSpaceOnUse">
<stop stop-color="#1F3596" stop-opacity="0"/>
<stop offset="0.4068" stop-color="#1D3290" stop-opacity="0.407"/>
<stop offset="0.9508" stop-color="#192B7F" stop-opacity="0.951"/>
<stop offset="1" stop-color="#192A7D"/>
</linearGradient>
<linearGradient id="paint4_linear_686_4958" x1="9.53651" y1="13.1012" x2="18.9614" y2="22.5261" gradientUnits="userSpaceOnUse">
<stop stop-color="#FEAEE1"/>
<stop offset="1" stop-color="#FE5694"/>
</linearGradient>
<linearGradient id="paint5_linear_686_4958" x1="18.5204" y1="24.8031" x2="12.6231" y2="14.2226" gradientUnits="userSpaceOnUse">
<stop stop-color="#FD3581" stop-opacity="0"/>
<stop offset="0.2774" stop-color="#F62C78" stop-opacity="0.277"/>
<stop offset="0.7284" stop-color="#E11460" stop-opacity="0.728"/>
<stop offset="1" stop-color="#D2024E"/>
</linearGradient>
<linearGradient id="paint6_linear_686_4958" x1="7.39216" y1="12.694" x2="14.746" y2="20.0478" gradientUnits="userSpaceOnUse">
<stop stop-color="#FD4755"/>
<stop offset="1" stop-color="#CA2E43"/>
</linearGradient>
<linearGradient id="paint7_linear_686_4958" x1="11.255" y1="15.4018" x2="11.1057" y2="17.5229" gradientUnits="userSpaceOnUse">
<stop stop-color="#FFEEE6"/>
<stop offset="1" stop-color="#FFB09E"/>
</linearGradient>
<linearGradient id="paint8_linear_686_4958" x1="12.9733" y1="15.3502" x2="16.0503" y2="24.1929" gradientUnits="userSpaceOnUse">
<stop stop-color="#FFEEE6"/>
<stop offset="1" stop-color="#FFB09E"/>
</linearGradient>
<linearGradient id="paint9_linear_686_4958" x1="16.2502" y1="16.7637" x2="21.1794" y2="20.9461" gradientUnits="userSpaceOnUse">
<stop stop-color="#F89580" stop-opacity="0"/>
<stop offset="0.2908" stop-color="#EE8D78" stop-opacity="0.292"/>
<stop offset="0.7831" stop-color="#D37A64" stop-opacity="0.785"/>
<stop offset="0.9972" stop-color="#C5715A"/>
</linearGradient>
<linearGradient id="paint10_linear_686_4958" x1="14.5275" y1="20.4444" x2="14.5275" y2="23.676" gradientUnits="userSpaceOnUse">
<stop stop-color="#F89580" stop-opacity="0"/>
<stop offset="0.2908" stop-color="#EE8D78" stop-opacity="0.292"/>
<stop offset="0.7831" stop-color="#D37A64" stop-opacity="0.785"/>
<stop offset="0.9972" stop-color="#C5715A"/>
</linearGradient>
<linearGradient id="paint11_linear_686_4958" x1="14.1512" y1="17.0779" x2="12.6501" y2="20.8196" gradientUnits="userSpaceOnUse">
<stop stop-color="#FFEEE6"/>
<stop offset="1" stop-color="#FFB09E"/>
</linearGradient>
<linearGradient id="paint12_linear_686_4958" x1="12.8868" y1="29.889" x2="9.08165" y2="25.5311" gradientUnits="userSpaceOnUse">
<stop stop-color="#1F3596" stop-opacity="0"/>
<stop offset="0.4068" stop-color="#1D3290" stop-opacity="0.407"/>
<stop offset="0.9508" stop-color="#192B7F" stop-opacity="0.951"/>
<stop offset="1" stop-color="#192A7D"/>
</linearGradient>
<clipPath id="clip0_686_4958">
<rect width="32" height="32" fill="white"/>
</clipPath>
</defs>
</svg>
