<svg width="23" height="21" viewBox="0 0 23 21" fill="none" xmlns="http://www.w3.org/2000/svg">
<path d="M18.1382 4.31803H16.575V2.07929C16.575 1.76675 16.3112 1.51163 15.988 1.51163H6.16698C5.84379 1.51163 5.57996 1.76675 5.57996 2.07929V4.31803H4.01678V0.810028C4.01678 0.363556 4.39274 0 4.85444 0H17.3071C17.7688 0 18.1448 0.363556 18.1448 0.810028V4.31803H18.1382Z" fill="#CED5E0"/>
<path d="M21.1986 20.1679H0.949825C0.778337 20.1679 0.646423 20.0339 0.646423 19.8745V9.14636H21.5086V19.8681C21.502 20.0339 21.3701 20.1679 21.1986 20.1679Z" fill="#2C9984"/>
<path d="M21.9769 4.73901H0.171488C0.0791483 4.73901 0 4.80917 0 4.90485V9.14633H22.1418V4.90485C22.1418 4.81555 22.0692 4.73901 21.9769 4.73901Z" fill="white"/>
<path d="M6.11423 4.73818H3.47595V3.70573C3.47595 3.66749 3.50893 3.63562 3.5485 3.63562H6.04168C6.08125 3.63562 6.11423 3.66749 6.11423 3.70573V4.73818Z" fill="#ACB3BA"/>
<path d="M18.6724 4.73818H16.0341V3.70573C16.0341 3.66749 16.0671 3.63562 16.1067 3.63562H18.5999C18.6394 3.63562 18.6724 3.66749 18.6724 3.70573V4.73818Z" fill="#ACB3BA"/>
<path d="M12.5252 10.8494V7.45624C12.5252 7.11182 12.235 6.83118 11.8788 6.83118H10.2629C9.9067 6.83118 9.61649 7.11182 9.61649 7.45624V10.8494C9.61649 11.1939 9.9067 11.4745 10.2629 11.4745H11.8788C12.2416 11.4745 12.5252 11.1939 12.5252 10.8494Z" fill="#2B3B4E"/>
<path d="M11.0741 18.9624C13.0303 18.9624 14.616 17.4318 14.616 15.5437C14.616 13.6556 13.0303 12.125 11.0741 12.125C9.11802 12.125 7.53226 13.6556 7.53226 15.5437C7.53226 17.4318 9.11802 18.9624 11.0741 18.9624Z" fill="white"/>
<path d="M13.8641 14.8676H11.7733V12.8457H10.375V14.8676H8.28418V16.2134H10.375V18.2353H11.7733V16.2134H13.8641V14.8676Z" fill="#F1543F"/>
</svg>
