<svg width="56" height="56" viewBox="0 0 56 56" fill="none" xmlns="http://www.w3.org/2000/svg">
<path d="M33.876 38.2528C33.876 38.2528 38.9066 40.828 40.9033 43.9253L42.4791 42.7289C42.4791 42.7289 38.9403 38.0677 38.7534 34.5496L33.876 38.2528Z" fill="#EF4C3B"/>
<path d="M44.4698 42.6759C43.5679 41.4877 41.8733 41.2557 40.6851 42.1578C39.497 43.06 39.265 44.7544 40.1671 45.9426C41.0691 47.1308 42.7637 47.3628 43.9519 46.4607C45.1401 45.5586 45.372 43.8642 44.4698 42.6759Z" fill="#EF4C3B"/>
<path d="M35.6211 16.9728C35.6211 16.9728 35.6354 11.3214 37.4908 8.13738L35.71 7.27539C35.71 7.27539 33.16 12.543 30.1091 14.3047L35.6211 16.9728Z" fill="#EF4C3B"/>
<path d="M34.76 5.5248C34.11 6.86747 34.6716 8.48307 36.0144 9.13297C37.3572 9.78303 38.9727 9.22143 39.6227 7.8786C40.2728 6.53578 39.7112 4.92034 38.3684 4.27044C37.0255 3.62054 35.4101 4.18214 34.76 5.5248Z" fill="#EF4C3B"/>
<path d="M23.7583 38.2866C23.7583 38.2866 18.9252 41.2158 17.1558 44.4485L15.4983 43.3681C15.4983 43.3681 18.6938 38.4653 18.628 34.9429L23.7583 38.2866Z" fill="#EF4C3B"/>
<path d="M13.5086 43.458C14.3232 42.2083 15.9966 41.8554 17.2465 42.6699C18.4964 43.4845 18.8491 45.1581 18.0346 46.4078C17.22 47.6576 15.5466 48.0104 14.2967 47.1957C13.0469 46.3813 12.694 44.7079 13.5086 43.458Z" fill="#EF4C3B"/>
<path d="M40.6912 26.1433C40.6912 26.1433 44.5198 21.9862 48.0387 20.8921L47.308 19.0535C47.308 19.0535 41.8694 21.2146 38.4297 20.4523L40.6912 26.1433Z" fill="#F9BECD"/>
<path d="M47.7901 17.121C46.4037 17.6719 45.7264 19.2424 46.2774 20.6287C46.8282 22.015 48.3987 22.6924 49.7852 22.1414C51.1715 21.5906 51.8489 20.0201 51.298 18.6337C50.7469 17.2476 49.1764 16.5702 47.7901 17.121Z" fill="#F9BECD"/>
<path d="M14.9289 25.032C14.9289 25.032 11.389 20.6265 7.95166 19.298L8.80433 17.5127C8.80433 17.5127 14.0851 20.0351 17.5682 19.5061L14.9289 25.032Z" fill="#EF4C3B"/>
<path d="M8.45338 15.5525C9.79958 16.1955 10.3695 17.8079 9.72669 19.1541C9.08369 20.5003 7.47114 21.0704 6.1251 20.4274C4.7789 19.7844 4.2088 18.172 4.85179 16.8258C5.49479 15.4796 7.10718 14.9095 8.45338 15.5525Z" fill="#EF4C3B"/>
<path d="M19.2716 17.6761C19.2716 17.6761 19.7006 12.0409 18.1006 8.7212L19.9435 8.00146C19.9435 8.00146 22.0724 13.4527 24.9757 15.4483L19.2716 17.6761Z" fill="#F9BECD"/>
<path d="M21.0279 6.33075C21.5706 7.72046 20.8841 9.28693 19.4945 9.82958C18.105 10.3724 16.5385 9.68573 15.9958 8.29618C15.4532 6.90648 16.1397 5.34017 17.5292 4.79735C18.9188 4.2547 20.4853 4.94121 21.0279 6.33075Z" fill="#F9BECD"/>
<path d="M17.044 33.3729C17.044 33.3729 11.5619 31.9991 8.0199 33.0157L7.62158 31.0777C7.62158 31.0777 13.354 29.8995 15.811 27.3745L17.044 33.3729Z" fill="#F9BECD"/>
<path d="M6.15786 29.7272C7.61917 29.4269 9.04725 30.368 9.34764 31.8293C9.64802 33.2905 8.70689 34.7187 7.24558 35.0191C5.78427 35.3195 4.35619 34.3783 4.05581 32.917C3.75558 31.4557 4.69671 30.0276 6.15786 29.7272Z" fill="#F9BECD"/>
<path d="M33.1023 38.8672C33.1023 38.8672 31.0628 44.138 31.635 47.7784L29.6627 47.9346C29.6627 47.9346 29.2001 42.1006 26.9976 39.3511L33.1023 38.8672Z" fill="#F9BECD"/>
<path d="M28.1417 49.2207C28.0237 47.7336 29.1337 46.4325 30.6208 46.3145C32.108 46.1966 33.4093 47.3067 33.5271 48.7938C33.6449 50.281 32.5351 51.5821 31.0477 51.7001C29.5607 51.8179 28.2597 50.7079 28.1417 49.2207Z" fill="#F9BECD"/>
<path d="M38.928 34.0543C38.928 34.0543 44.4534 32.8672 47.959 34.0036L48.4228 32.0803C48.4228 32.0803 42.7336 30.7081 40.3638 28.1013L38.928 34.0543Z" fill="#EF4C3B"/>
<path d="M49.9314 30.7798C48.4812 30.43 47.022 31.3221 46.6721 32.7724C46.3223 34.2226 47.2145 35.6818 48.6647 36.0316C50.1149 36.3815 51.5742 35.4893 51.924 34.0391C52.2737 32.5889 51.3817 31.1296 49.9314 30.7798Z" fill="#EF4C3B"/>
<path d="M40.5649 34.1862C40.256 34.7305 39.9156 35.2477 39.5481 35.7369C39.3176 36.0444 39.0761 36.3391 38.824 36.6236C38.707 36.7559 38.588 36.8855 38.4671 37.0126C38.327 37.1591 38.1851 37.3028 38.0391 37.4431C37.9364 37.5426 37.8315 37.6402 37.7253 37.7356C36.4012 38.9384 34.8725 39.8741 33.2296 40.5107C32.9794 40.6078 32.7269 40.6979 32.4715 40.7804C31.0991 41.227 29.6591 41.4687 28.1999 41.4891C27.9623 41.4926 27.7237 41.4899 27.4852 41.4813C25.6063 41.4136 23.7097 40.9758 21.8989 40.1294C20.9675 39.6941 20.1035 39.1712 19.3137 38.577C18.7744 38.171 18.2689 37.7313 17.8001 37.2607C16.7978 36.259 15.9592 35.1233 15.2995 33.8979C15.1316 33.5862 14.9759 33.2687 14.8315 32.946C14.2595 31.667 13.8739 30.3078 13.6907 28.9133C13.6714 28.7683 13.6546 28.6234 13.6401 28.4774C13.6282 28.3601 13.618 28.2422 13.609 28.1245C13.4272 25.7322 13.8408 23.261 14.9287 20.9331C15.8155 19.0357 17.0619 17.4213 18.5484 16.1333C18.549 16.1332 18.5494 16.1324 18.5498 16.1322C18.8001 15.9158 19.057 15.7082 19.3205 15.5102C19.634 15.2739 19.957 15.0516 20.2875 14.8424C21.1472 14.2991 22.0607 13.8489 23.0118 13.4987C23.3109 13.3876 23.6147 13.2867 23.9215 13.1964C27.1843 12.231 30.7997 12.4091 34.1251 13.9627C36.8117 15.2179 38.9307 17.1946 40.3595 19.5541C40.4018 19.6238 40.4435 19.6941 40.4844 19.7646C40.6413 20.0327 40.789 20.3063 40.9272 20.5839C41.5628 21.8564 42.0098 23.2188 42.2497 24.6236C42.299 24.9091 42.3391 25.1964 42.3709 25.4848C42.6496 28.0258 42.2569 30.6732 41.0955 33.159C40.9301 33.5117 40.753 33.8537 40.5649 34.1862Z" fill="#F9BECD"/>
<path d="M33.2298 40.5106C32.9797 40.6078 32.7271 40.6979 32.4717 40.7804C32.4717 40.7804 32.5507 39.5339 33.3422 38.6729C33.3422 38.6729 33.032 39.649 33.2298 40.5106Z" fill="#EF4C3B"/>
<path d="M28.2 41.489C27.9623 41.4925 27.7238 41.4898 27.4852 41.4813C27.5448 40.5019 26.8894 39.572 26.8894 39.572C27.9015 40.1946 28.2 41.489 28.2 41.489Z" fill="#EF4C3B"/>
<path d="M25.0729 15.1567C23.9149 14.9171 23.0115 13.5029 23.0115 13.5029C23.0116 13.5016 23.0115 13.5001 23.0116 13.4988C23.3107 13.3877 23.6145 13.2868 23.9213 13.1965C24.1687 14.4204 25.0729 15.1567 25.0729 15.1567Z" fill="#EF4C3B"/>
<path d="M19.0065 18.0363C19.0065 18.0363 18.896 16.8206 18.5481 16.1333C18.5487 16.1332 18.5491 16.1324 18.5495 16.1322C18.7998 15.9158 19.0567 15.7082 19.3202 15.5103C19.3202 15.5103 19.417 17.1506 19.0065 18.0363Z" fill="#EF4C3B"/>
<path d="M42.3706 25.4847C41.6504 25.7517 40.8452 26.4008 40.8452 26.4008C41.4548 25.4049 42.2301 24.6423 42.2494 24.6235C42.2987 24.909 42.3388 25.1964 42.3706 25.4847Z" fill="#EF4C3B"/>
<path d="M40.9268 20.5839C40.9268 20.5839 39.5813 20.7339 38.3611 20.2983C38.3611 20.2983 39.5771 20.3393 40.484 19.7646C40.6409 20.0328 40.7886 20.3062 40.9268 20.5839Z" fill="#EF4C3B"/>
<path d="M17.4318 33.72C17.4318 33.72 16.1872 33.5504 15.2995 33.8977C15.1316 33.5861 14.9759 33.2685 14.8315 32.9458C14.8315 32.9458 16.447 33.0538 17.4318 33.72Z" fill="#EF4C3B"/>
<path d="M15.704 27.4724C15.0976 28.2849 13.6906 28.913 13.6906 28.913C13.6713 28.768 13.6545 28.6231 13.64 28.4771C13.6282 28.3598 13.6179 28.2419 13.6089 28.1242C14.6399 28.0867 15.6702 27.4994 15.704 27.4724Z" fill="#EF4C3B"/>
<path d="M31.9182 38.4429C38.1264 36.2438 41.3763 29.4284 39.1772 23.2202C36.9781 17.0121 30.1626 13.7621 23.9545 15.9612C17.7463 18.1604 14.4964 24.9758 16.6955 31.184C18.8946 37.3921 25.7101 40.6421 31.9182 38.4429Z" fill="#EF4C3B"/>
<path d="M33.5084 27.8904C35.3498 29.5072 37.8403 27.6927 38.0265 25.4841C38.1436 24.0951 37.7834 22.5257 36.4376 20.8453C33.5453 17.2341 31.3479 17.7011 30.6837 18.1349C29.7657 18.7344 29.3227 20.7976 31.2196 21.7824C33.7718 23.1074 35.3633 22.6904 35.8008 24.1844C36.2382 25.6784 33.194 25.0293 32.9233 26.6708C32.8517 27.1041 33.0951 27.5276 33.5084 27.8904Z" fill="#F9BECD"/>
<path d="M34.3884 29.6491C34.2812 29.5929 34.1706 29.5388 34.0572 29.4873C33.2021 29.0983 32.2202 29.14 31.3741 29.5481C31.115 29.6732 30.831 29.7753 30.5221 29.8512C26.6227 30.8083 25.2129 36.0744 30.5977 36.4361C32.292 36.5499 33.7788 35.9472 34.9922 34.9151C36.7043 33.4587 36.4075 30.7236 34.4233 29.6677C34.4117 29.6613 34.4 29.6552 34.3884 29.6491Z" fill="#F9BECD"/>
<path d="M26.3094 22.6482C27.2332 22.5196 28.1774 22.5868 29.0622 22.8826C30.2982 23.296 31.6276 24.2037 31.039 26.1871C30.1327 29.2409 25.73 26.5951 23.915 28.9855C21.7808 31.7965 17.358 29.8629 18.3989 26.8853C19.4981 23.7399 24.2568 22.9339 26.3094 22.6482Z" fill="#F9BECD"/>
<path d="M21.6834 31.459C23.1062 31.1616 24.5916 31.7595 25.3162 33.0195C25.7439 33.7632 25.9042 34.7125 25.1693 35.7662C23.4395 38.2452 19.4919 34.183 20.0657 32.5936C20.3069 31.9257 20.9818 31.6055 21.6834 31.459Z" fill="#F9BECD"/>
<path d="M26.3046 16.8398C26.9752 16.8392 27.6309 17.0762 28.1209 17.5341C28.6997 18.0749 29.1311 18.9673 28.1904 20.2615C26.4803 22.6146 23.0479 19.359 23.7134 17.9348C24.1491 17.0025 25.4545 16.8405 26.3046 16.8398Z" fill="#F9BECD"/>
<path d="M21.8111 22.9019C21.3234 23.106 20.7746 23.1328 20.2792 22.9483C19.6938 22.7306 19.1093 22.2125 19.4005 20.9856C19.9302 18.7547 23.415 20.0808 23.3635 21.3188C23.3296 22.1291 22.4293 22.6433 21.8111 22.9019Z" fill="#F9BECD"/>
</svg>
