<svg width="32" height="32" viewBox="0 0 32 32" fill="none" xmlns="http://www.w3.org/2000/svg">
<g clip-path="url(#clip0_686_4162)">
<path d="M30.2095 25.4137L16 29.9804L1.7905 25.4137C2.01775 23.1897 3.24856 21.1639 5.16181 19.5663H26.8382C28.7514 21.1639 29.9822 23.1897 30.2095 25.4137Z" fill="#FBF3F3"/>
<path d="M30.2095 25.4137L16 29.9804V19.5663H26.8382C28.7514 21.1639 29.9822 23.1897 30.2095 25.4137Z" fill="#E8E3F0"/>
<path d="M26.8382 19.5663C24.0848 22.374 20.2459 24.1161 16 24.1161C11.7541 24.1161 7.91518 22.374 5.1618 19.5663C6.72755 18.2593 8.74968 17.2392 11.0523 16.631H20.9477C23.2503 17.2392 25.2724 18.2593 26.8382 19.5663Z" fill="#ADCFFF"/>
<path d="M26.8382 19.5663C24.0848 22.374 20.2459 24.1161 16 24.1161V16.631H20.9477C23.2503 17.2392 25.2724 18.2593 26.8382 19.5663Z" fill="#6AA8FF"/>
<path d="M20.9477 16.631C20.1732 18.6025 18.25 19.9988 16 19.9988C13.75 19.9988 11.8267 18.6025 11.0523 16.631C12.593 16.2241 14.2602 16.0016 16 16.0016C17.7398 16.0016 19.407 16.2241 20.9477 16.631Z" fill="#363671"/>
<path d="M16 19.9988V16.0016C17.7398 16.0016 19.407 16.2241 20.9477 16.631C20.1732 18.6025 18.25 19.9988 16 19.9988Z" fill="#16164D"/>
<path d="M16 29.9805L0.697438 23.8693L0 25.6101L16 32.0001L16.7594 30.8455L16 29.9805Z" fill="#FF7C48"/>
<path d="M32 25.6101L16 32.0001V29.9805L31.3026 23.8693L32 25.6101Z" fill="#FF3939"/>
<path d="M0 1.84814H32V3.72314H0V1.84814Z" fill="#4E4E88"/>
<path d="M16 1.84814H32V3.72314H16V1.84814Z" fill="#363671"/>
<path d="M13.1875 10.8885H15.0625V13.6956H13.1875V10.8885Z" fill="#4E4E88"/>
<path d="M16.9375 10.8885H18.8125V13.6956H16.9375V10.8885Z" fill="#363671"/>
<path d="M21.8856 5.57629L16 11.8263H11.32L10.1144 5.57629H21.8856Z" fill="#363671"/>
<path d="M16 5.57629H21.8856L20.68 11.8263H16V5.57629Z" fill="#16164D"/>
<path d="M8.65189 0H16V7.45125H8.65189V0Z" fill="#9BDC05"/>
<path d="M16 0H23.3481V7.45125H16V0Z" fill="#00CB76"/>
</g>
<defs>
<clipPath id="clip0_686_4162">
<rect width="32" height="32" fill="white"/>
</clipPath>
</defs>
</svg>
