<svg width="32" height="32" viewBox="0 0 32 32" fill="none" xmlns="http://www.w3.org/2000/svg">
<path d="M27.807 19.8814C25.1031 17.1774 21.5081 15.6884 17.6841 15.6884H14.316C10.4921 15.6884 6.89706 17.1775 4.19312 19.8814C1.48912 22.5853 0 26.1804 0 30.0043V30.9496H32V30.0043C32 26.1804 30.5109 22.5853 27.807 19.8814Z" fill="#00CCB2"/>
<path d="M27.807 19.8814C25.1031 17.1774 21.5081 15.6884 17.6841 15.6884H16.0168V30.9497H32V30.0044C32 26.1804 30.5109 22.5853 27.807 19.8814Z" fill="#00AB94"/>
<path d="M17.6841 15.6884H14.3159C11.711 15.6884 9.21262 16.38 7.0295 17.6754L15.9942 30.9497H16.0072L24.9705 17.6754C22.7874 16.38 20.289 15.6884 17.6841 15.6884Z" fill="#FFF2B4"/>
<path d="M16.0167 30.9356L24.9706 17.6754C22.7874 16.38 20.289 15.6884 17.6841 15.6884H16.0167V30.9356Z" fill="#FFDF8E"/>
<path d="M28.1636 25.9709H22.9327V27.8616H28.1636V25.9709Z" fill="#00AB94"/>
<path d="M14.7929 18.6878L12.9348 21.18L14.5979 28.8819L15.9943 30.9495H16.0073L17.4273 28.8467L19.0646 21.1788L17.2158 18.6992L18.8576 15.8337L18.6605 15.7208C18.3371 15.6991 18.0115 15.6882 17.6843 15.6882H14.3161C13.9913 15.6882 13.6681 15.699 13.347 15.7204L13.1449 15.8372L14.7929 18.6878Z" fill="#E63950"/>
<path d="M28.1636 25.9709H22.9327V27.8616H28.1636V25.9709Z" fill="#087263"/>
<path d="M17.2157 18.6993L18.8574 15.8339L18.6604 15.7209C18.3369 15.6992 18.0114 15.6884 17.6841 15.6884H16.0168V30.9356L17.4272 28.8468L19.0645 21.1789L17.2157 18.6993Z" fill="#AE2538"/>
<path d="M16 1.05042C11.443 1.05042 7.73569 4.75779 7.73569 9.31473C7.73569 13.8717 11.443 17.579 16 17.579C20.557 17.579 24.2643 13.8717 24.2643 9.31473C24.2643 4.75779 20.557 1.05042 16 1.05042Z" fill="#FCCED3"/>
<path d="M16.0167 1.05066V17.5788C20.566 17.5697 24.2643 13.866 24.2643 9.31472C24.2643 4.76341 20.566 1.05972 16.0167 1.05066Z" fill="#FBC0C8"/>
<path d="M16.0078 8.46418C17.208 8.46418 18.181 7.49118 18.181 6.29093C18.181 5.09067 17.208 4.11768 16.0078 4.11768C14.8075 4.11768 13.8345 5.09067 13.8345 6.29093C13.8345 7.49118 14.8075 8.46418 16.0078 8.46418Z" fill="#00CCB2"/>
<path d="M16.0167 4.11804V8.4641C17.2127 8.45904 18.1807 7.48829 18.1807 6.2911C18.1807 5.09392 17.2127 4.1231 16.0167 4.11804Z" fill="#00AB94"/>
<path d="M16 9.74286C17.5755 9.74286 18.9069 8.68142 19.3191 7.23636H23.9994C23.8262 6.56992 23.5714 5.93598 23.2468 5.34567H19.3191C18.9069 3.90067 17.5755 2.83923 16 2.83923C14.4245 2.83923 13.0931 3.90067 12.6809 5.34567H8.75313C8.4285 5.93598 8.17382 6.56986 8.0005 7.23636H12.6809C13.0931 8.68142 14.4245 9.74286 16 9.74286ZM16 4.72992C16.8608 4.72992 17.5611 5.43023 17.5611 6.29105C17.5611 7.15186 16.8608 7.85217 16 7.85217C15.1392 7.85217 14.4389 7.15186 14.4389 6.29105C14.4389 5.43023 15.1393 4.72992 16 4.72992Z" fill="#00AB94"/>
<path d="M23.2469 5.3456H19.3191C18.9084 3.90573 17.5849 2.84698 16.0168 2.83948V4.73023C16.8698 4.73923 17.5612 5.43573 17.5612 6.29092C17.5612 7.1461 16.8699 7.8426 16.0168 7.8516V9.74235C17.5849 9.73485 18.9084 8.67617 19.3191 7.23623H23.9995C23.8261 6.56985 23.5715 5.93598 23.2469 5.3456Z" fill="#008877"/>
</svg>
