<svg width="30" height="30" viewBox="0 0 30 30" fill="none" xmlns="http://www.w3.org/2000/svg">
<path d="M19.9383 9.46871C19.8104 9.47343 19.3984 9.50721 19.2265 9.74504C19.1516 9.84877 19.1335 9.97272 19.1727 10.1141L19.0245 10.2565L19.4988 10.715C19.7153 10.9243 19.9137 11.1488 20.0945 11.3844L21.1572 10.3571L20.1092 9.34399L19.9383 9.46871Z" fill="#FFC839"/>
<path d="M19.9721 9.56204L20.1789 9.41105L19.0598 8.3291L18.0158 9.33826C18.2014 9.48062 18.3798 9.63281 18.5484 9.79577L19.0236 10.2552L19.0937 10.3229L19.2838 10.1401C19.0688 9.56576 19.9721 9.56204 19.9721 9.56204Z" fill="#FFB332"/>
<path d="M20.3458 11.5322C20.1711 11.1229 19.9146 10.751 19.5908 10.4379L19.2838 10.141L19.1547 10.0161C19.1575 10.0479 19.1633 10.0806 19.1727 10.1144L12.4479 16.5797C12.2115 16.8069 12.1494 17.1453 12.2932 17.4216C12.3904 17.6085 12.5601 17.7348 12.798 17.7979C12.7795 17.9383 12.772 18.2059 12.9341 18.4069C13.0649 18.5689 13.2733 18.6511 13.5536 18.6511C13.6727 18.6511 13.9567 18.8127 14.3333 19.1107L20.5197 13.1284C20.7371 12.9182 20.8023 12.6021 20.6851 12.3273L20.3458 11.5322Z" fill="#FFDD40"/>
<path d="M29.5753 0.188488C29.3154 -0.0628295 28.8939 -0.0628295 28.6341 0.188488L23.6295 5.02801C23.3696 5.27946 23.3696 5.68691 23.6295 5.93835C23.8894 6.18967 24.3109 6.18967 24.5707 5.93835L29.5753 1.09883C29.8353 0.847386 29.8353 0.439932 29.5753 0.188488Z" fill="#E9EFFF"/>
<path d="M22.3726 6.02746L23.537 7.15321C23.625 7.23834 23.6926 7.33539 23.7421 7.43861L24.878 6.35049C25.1334 6.10359 25.1334 5.70324 24.878 5.4564L24.1381 4.74109C23.8827 4.49418 23.4687 4.49418 23.2133 4.74109L22.0774 5.82921C22.1841 5.87704 22.2846 5.94239 22.3726 6.02746Z" fill="#73C3F9"/>
<path d="M1.50236 26.6492L9.77128 18.6529L7.9638 16.905L0 24.6062C0.360729 25.2036 0.762588 25.7747 1.2003 26.3174L1.50236 26.6492Z" fill="#D3DCFB"/>
<path d="M10.4489 19.3081L2.13689 27.346L2.46444 27.7057C2.96029 28.189 3.48822 28.6415 4.04619 29.0584L12.289 21.0874L10.4489 19.3081Z" fill="#E9EFFF"/>
<path d="M2.48401 27.7274L10.8196 19.6667L9.43309 18.3259L1.18561 26.3014C1.58831 26.8022 2.02179 27.2786 2.48401 27.7274Z" fill="#BEC8F7"/>
<path d="M23.5999 7.09308L22.4354 5.96704C22.0335 5.57837 21.3818 5.57837 20.9798 5.96704L19.0876 7.79686L21.7076 10.3305L23.5999 8.50064C24.0018 8.11191 24.0018 7.48175 23.5999 7.09308Z" fill="#49B1F7"/>
<path d="M22.3733 10.3303C22.3733 10.1656 22.3084 10.0009 22.1783 9.87517L19.5583 7.34156C19.2984 7.09025 18.8769 7.09025 18.617 7.34156C18.357 7.59307 18.3571 8.00053 18.617 8.25191L21.2371 10.7855C21.497 11.0368 21.9184 11.0368 22.1783 10.7855C22.3083 10.6598 22.3733 10.495 22.3733 10.3303Z" fill="#73C3F9"/>
<path d="M12.9103 17.726C12.6161 17.6718 12.4603 17.5323 12.3806 17.379C12.2538 17.1355 12.3169 16.8389 12.5169 16.6466L19.2839 10.1409L18.9768 9.84398C18.6531 9.53089 18.2685 9.28278 17.8453 9.11398L17.023 8.78588C16.7388 8.67249 16.412 8.73558 16.1946 8.9458L7.92337 16.9442L12.2486 21.1267L14.4049 19.0416C14.0122 18.7303 13.7043 18.5565 13.5537 18.5565C12.6952 18.5565 12.9103 17.726 12.9103 17.726Z" fill="#FFC839"/>
<path d="M15.2765 10.3916L14.6989 9.8336C14.4389 9.58248 14.0175 9.58248 13.7575 9.83366C13.4977 10.0847 13.4978 10.492 13.7576 10.7432L14.3352 11.3013C14.5952 11.5524 15.0166 11.5524 15.2765 11.3012C15.5364 11.05 15.5363 10.6429 15.2765 10.3916Z" fill="#FFE98D"/>
<path d="M13.0853 12.5101L12.5077 11.952C12.2477 11.7009 11.8263 11.7009 11.5664 11.9521C11.3065 12.2032 11.3066 12.6104 11.5664 12.8616L12.144 13.4196C12.404 13.6707 12.8254 13.6707 13.0853 13.4196C13.3452 13.1685 13.3452 12.7613 13.0853 12.5101Z" fill="#FFE98D"/>
<path d="M10.8942 14.6294L10.3166 14.0713C10.0566 13.82 9.63523 13.82 9.37528 14.0712C9.11539 14.3224 9.11532 14.7296 9.37521 14.9807L9.95281 15.5389C10.2128 15.7901 10.6342 15.7901 10.8941 15.5389C11.154 15.2878 11.1542 14.8806 10.8942 14.6294Z" fill="#FFE98D"/>
<path d="M8.70292 16.7483L8.12539 16.1903C7.8655 15.9392 7.44402 15.9392 7.18413 16.1903C6.92424 16.4415 6.92424 16.8487 7.18413 17.0999L7.76166 17.658C8.02155 17.9091 8.44303 17.9091 8.70292 17.658C8.96287 17.4067 8.96287 16.9996 8.70292 16.7483Z" fill="#FFE98D"/>
<path d="M6.5119 18.8672L5.93431 18.309C5.67435 18.0578 5.25294 18.0578 4.99298 18.309C4.7331 18.5602 4.73303 18.9674 4.99292 19.2185L5.57051 19.7767C5.83047 20.0279 6.25188 20.0279 6.51184 19.7767C6.77166 19.5256 6.77186 19.1183 6.5119 18.8672Z" fill="#E9EFFF"/>
<path d="M4.32066 20.9859L3.74306 20.4278C3.48311 20.1767 3.0617 20.1767 2.80174 20.4279C2.54185 20.679 2.54192 21.0862 2.80181 21.3374L3.3794 21.8954C3.63936 22.1466 4.06077 22.1466 4.32072 21.8954C4.58061 21.6443 4.58061 21.2371 4.32066 20.9859Z" fill="#E9EFFF"/>
<path d="M2.12952 23.1048L1.55192 22.5467C1.29197 22.2956 0.870555 22.2956 0.610601 22.5468C0.350712 22.7979 0.350842 23.2052 0.610666 23.4564L1.18826 24.0144C1.44822 24.2655 1.86963 24.2655 2.12958 24.0143C2.38947 23.7632 2.38947 23.356 2.12952 23.1048Z" fill="#E9EFFF"/>
<path d="M18.2886 18.5167C17.9226 18.6639 17.5305 18.7278 17.1418 18.7086C16.9328 18.9164 16.2939 19.6082 15.9404 20.6239C15.252 22.6013 16.207 24.2198 17.1546 25.2452C17.4236 25.2065 17.7088 25.2952 17.9016 25.5135C18.1081 25.7474 18.2862 26.0995 18.2862 26.6188C18.2862 27.189 18.2161 28.0888 18.1406 28.8934C18.8289 28.8067 19.4841 28.6186 20.0892 28.3437C20.1926 28.0653 20.2819 27.755 20.3503 27.4079C20.8942 24.6462 20.2687 24.7382 21.955 22.0619C23.2728 19.97 21.14 17.3694 18.2886 18.5167Z" fill="#E9EFFF"/>
<path d="M22.4096 8.61066C22.8486 8.61066 23.2044 8.26682 23.2044 7.84268C23.2044 7.41854 22.8486 7.07471 22.4096 7.07471C21.9707 7.07471 21.6148 7.41854 21.6148 7.84268C21.6148 8.26682 21.9707 8.61066 22.4096 8.61066Z" fill="#73C3F9"/>
<path d="M17.2768 18.712C16.9327 18.712 16.5886 18.6469 16.2649 18.5167C13.4135 17.3694 11.2807 19.97 12.5987 22.0618C14.285 24.7382 13.6594 24.6461 14.2034 27.4078C14.2717 27.7549 14.361 28.0653 14.4644 28.3437C15.0695 28.6185 15.7247 28.8066 16.413 28.8933C16.3375 28.0888 16.2674 27.1889 16.2674 26.6187C16.2674 26.0995 16.4455 25.7473 16.6521 25.5134C16.8158 25.3281 17.0463 25.2353 17.2768 25.2353C13.9599 21.7162 17.2768 18.712 17.2768 18.712Z" fill="#D3DCFB"/>
</svg>
