<svg width="28" height="30" viewBox="0 0 28 30" fill="none" xmlns="http://www.w3.org/2000/svg">
<path d="M14.4961 15.277C14.4193 15.2765 14.3429 15.2754 14.2658 15.2754C6.38706 15.2754 0 17.6751 0 20.6353C0 21.6051 0.213021 22.1642 0.607646 22.6553L15.0219 19.2464L14.4961 15.277Z" fill="#B2FDFD"/>
<path d="M14.4961 15.2769C13.5144 15.7681 11.8466 16.9185 13.883 18.38L19.9817 21.2583L26.5252 20.9961C26.7811 20.1109 26.9568 19.1934 27.0457 18.2516C24.7426 16.5119 19.9978 15.3096 14.4961 15.2769Z" fill="#E3FCFB"/>
<path d="M5.28592 19.5735C3.09632 20.2409 1.44312 21.147 0.607788 22.1866C4.15178 28.3572 17.3903 27.4989 17.3903 27.4989L17.9878 21.2585L5.28592 19.5735Z" fill="#5DE9FD"/>
<path d="M14.2659 18.3782C14.1378 18.3782 14.0103 18.3791 13.8831 18.3803C16.6154 20.3413 14.0025 22.887 14.0025 22.887L15.1292 23.9691C15.1292 23.9691 13.6866 25.4525 16.9096 25.9031L20.2041 26.7294C20.2041 26.7294 23.5122 26.3037 25.264 24.0491C25.7909 23.0872 26.2161 22.0654 26.5251 20.9965C24.0362 19.4286 19.4779 18.3782 14.2659 18.3782Z" fill="#B2FDFD"/>
<path d="M13.883 18.3801C10.6282 18.4123 7.64529 18.8541 5.28569 19.5734C5.073 19.8137 4.95697 20.072 4.95697 20.3411C4.95697 21.6192 7.56681 22.6554 10.7862 22.6554C14.0056 22.6554 16.6154 21.6193 16.6154 20.3411C16.6154 19.5147 15.5243 18.7895 13.883 18.3801Z" fill="#EE6262"/>
<path d="M11.4345 16.2154C11.0166 15.7358 10.6458 15.1997 10.3682 14.6074C10.211 14.2721 9.71237 14.2721 9.55521 14.6074C9.27759 15.1998 8.90676 15.7358 8.48886 16.2154C7.445 17.4133 8.34181 19.2462 9.96169 19.2462C11.5816 19.2462 12.4784 17.4133 11.4345 16.2154Z" fill="#FF5454"/>
<path d="M16.2759 7.63257L13.0926 9.10165L12.1478 10.0153C11.7131 10.4356 11.4158 10.9702 11.2928 11.5525C11.2599 11.7083 11.1805 11.8513 11.0642 11.9637L9.53404 13.4433C9.20655 13.76 9.20655 14.2735 9.53404 14.5902C9.86152 14.9069 10.3925 14.9069 10.72 14.5902L12.2501 13.1105C12.3663 12.9981 12.5142 12.9212 12.6753 12.8894C13.2775 12.7704 13.8302 12.4829 14.2649 12.0626L17.3903 9.04031L16.2759 7.63257Z" fill="#F67F7F"/>
<path d="M22.4161 1.7911L20.2587 1.57495L17.7747 3.97694L18.5288 6.13965L20.5089 6.62091L22.8937 4.3148L22.4161 1.7911Z" fill="#E51E82"/>
<path d="M23.4123 1.42604V0.138504C22.7159 -0.136074 21.8902 -0.00256724 21.3285 0.540537L20.2587 1.57499C20.2273 1.72426 20.2106 1.87876 20.2106 2.03703C20.2106 3.30598 21.2744 4.33464 22.5866 4.33464C22.6908 4.33464 22.7931 4.32745 22.8937 4.31491L24.0626 3.18457C24.2092 3.04281 24.3265 2.8834 24.4155 2.71358L23.4123 1.42604Z" fill="#FE3D97"/>
<path d="M15.2953 8.99633C15.9461 8.59889 16.7206 8.74551 17.3903 9.04001L19.4593 7.0393L17.3421 4.99194L13.0926 9.10134C13.471 9.34074 14.2496 9.6348 15.2953 8.99633Z" fill="#E3FCFB"/>
<path d="M20.706 6.81158L17.5777 3.7865C17.2406 3.46049 16.6889 3.46049 16.3517 3.7865C16.0145 4.11258 16.0145 4.64604 16.3517 4.97211L19.48 7.99726C19.8171 8.32327 20.3689 8.32327 20.706 7.99726C21.0432 7.67118 21.0432 7.13766 20.706 6.81158Z" fill="#FD77A6"/>
<path d="M23.4123 0.138428C23.0946 0.407765 22.8937 0.802759 22.8937 1.24338C22.8937 2.05492 23.5743 2.71282 24.4137 2.71282C24.4143 2.71282 24.4149 2.71276 24.4155 2.71276C24.7809 2.01484 24.6596 1.13732 24.0523 0.550247C23.8632 0.367497 23.645 0.230181 23.4123 0.138428Z" fill="#FD77A6"/>
<path d="M14.7254 24.5419C16.7382 24.5419 18.3699 23.8964 18.3699 23.1003C18.3699 22.3041 16.7382 21.6587 14.7254 21.6587C12.7126 21.6587 11.0809 22.3041 11.0809 23.1003C11.0809 23.8964 12.7126 24.5419 14.7254 24.5419Z" fill="#FF5454"/>
<path d="M5.19223 24.7654C2.07799 23.8066 0.00012207 22.3522 0.00012207 20.6353V24.116C0.00012207 25.8203 2.11769 27.3388 5.41789 28.3205L6.48281 26.5217L5.19223 24.7654Z" fill="#FE3D97"/>
<path d="M16.9096 25.9027C16.0527 25.963 15.1694 25.9951 14.2659 25.9951C10.929 25.9951 7.71948 25.5434 5.19223 24.7654C4.5048 25.4234 3.56452 26.7942 5.41783 28.3205C7.84959 29.0438 10.9233 29.4759 14.2659 29.4759C15.031 29.4759 15.7817 29.4529 16.5142 29.4092L18.7483 27.5394L16.9096 25.9027Z" fill="#FD77A6"/>
<path d="M16.9096 25.9028C16.9096 25.9028 14.4573 27.8393 16.5142 29.4094C18.2088 29.3085 19.8044 29.0957 21.2451 28.7915C22.8901 27.4908 24.2611 25.8789 25.2635 24.0491C23.1812 24.9952 20.2505 25.6675 16.9096 25.9028Z" fill="#FCCAE0"/>
</svg>
