<svg width="32" height="32" viewBox="0 0 32 32" fill="none" xmlns="http://www.w3.org/2000/svg">
<mask id="mask0_686_4262" style="mask-type:luminance" maskUnits="userSpaceOnUse" x="0" y="0" width="32" height="32">
<path d="M0 1.90735e-06H32V32H0V1.90735e-06Z" fill="white"/>
</mask>
<g mask="url(#mask0_686_4262)">
<path d="M31.9999 10.3662V20.829C31.9999 24.385 29.1172 27.2676 25.5613 27.2676H6.4385C2.88257 27.2676 -0.00012207 24.385 -0.00012207 20.829V10.3662H31.9999Z" fill="#546370"/>
<path d="M28.1369 24.6921H16.9015C8.9895 24.6921 2.57556 18.2782 2.57556 10.3662H0.00012207V20.829C0.00012207 24.3849 2.88281 27.2676 6.43875 27.2676H25.5615C28.0017 27.2676 30.1248 25.91 31.2169 23.909C30.302 24.4083 29.2526 24.6921 28.1369 24.6921Z" fill="#3D4751"/>
<path d="M2.57545 4.73238H8.0912C9.51358 4.73238 10.6666 5.88544 10.6666 7.30781V13.4245C10.6666 14.8469 9.51358 16 8.0912 16H2.57545C1.15308 16 1.52588e-05 14.8469 1.52588e-05 13.4245V7.30781C1.52588e-05 5.88544 1.15308 4.73238 2.57545 4.73238Z" fill="#EFE6E6"/>
<path d="M2.57545 5.33331V4.73238C1.15308 4.73238 1.52588e-05 5.88544 1.52588e-05 7.30781V13.4245C1.52588e-05 14.8469 1.15308 16 2.57545 16H8.0912C9.51358 16 10.6666 14.8469 10.6666 13.4245C6.19801 13.4245 2.57545 9.80194 2.57545 5.33331Z" fill="#E2D7D7"/>
<path d="M13.2421 4.73238H18.7579C20.1802 4.73238 21.3333 5.88544 21.3333 7.30781V13.4245C21.3333 14.8469 20.1802 16 18.7579 16H13.2421C11.8197 16 10.6667 14.8469 10.6667 13.4245V7.30781C10.6667 5.88544 11.8197 4.73238 13.2421 4.73238Z" fill="#EFE6E6"/>
<path d="M13.2421 5.33331V4.73238C11.8197 4.73238 10.6667 5.88544 10.6667 7.30781V13.4245C10.6667 14.8469 11.8197 16 13.2421 16H18.7579C20.1802 16 21.3334 14.8469 21.3334 13.4245H21.3333C16.8647 13.4245 13.2421 9.80194 13.2421 5.33331Z" fill="#E2D7D7"/>
<path d="M23.9088 4.73238H29.4245C30.8469 4.73238 32 5.88544 32 7.30781V13.4245C32 14.8469 30.8469 16 29.4245 16H23.9088C22.4864 16 21.3333 14.8469 21.3333 13.4245V7.30781C21.3333 5.88544 22.4864 4.73238 23.9088 4.73238Z" fill="#EFE6E6"/>
<path d="M23.9088 5.33331V4.73238C22.4864 4.73238 21.3333 5.88544 21.3333 7.30781V13.4245C21.3333 14.8469 22.4864 16 23.9088 16H29.4245C30.8469 16 32 14.8469 32 13.4245C27.5313 13.4245 23.9088 9.80194 23.9088 5.33331Z" fill="#E2D7D7"/>
<path d="M2.57545 10.3017C2.57545 9.59054 3.15202 9.01398 3.8632 9.01398H28.1368C28.848 9.01398 29.4246 9.59054 29.4246 10.3017C29.4246 11.0129 28.848 11.5895 28.1368 11.5895H3.8632C3.15202 11.5895 2.57545 11.0129 2.57545 10.3017Z" fill="#00C5FD"/>
<path d="M6.54912 27.2676H25.4509C24.1254 23.319 20.395 20.4743 16 20.4743C11.605 20.4743 7.87456 23.319 6.54912 27.2676Z" fill="#FF8A98"/>
<path d="M16.9014 24.6921C14.2658 24.6921 11.7968 23.9796 9.67538 22.7378C8.2467 23.9123 7.15038 25.4763 6.54913 27.2676H25.4509C25.1398 26.3408 24.6961 25.4748 24.1425 24.6921H16.9014Z" fill="#FD5C6F"/>
<path d="M5.33333 12.7592C4.62214 12.7592 4.04558 12.1826 4.04558 11.4714V9.13203C4.04558 8.42084 4.62214 7.84434 5.33333 7.84434C6.04452 7.84434 6.62108 8.42084 6.62108 9.13203V11.4714C6.62108 12.1826 6.04452 12.7592 5.33333 12.7592Z" fill="#5AD6FF"/>
<path d="M5.33333 10.1837V7.84434C4.62214 7.84434 4.04558 8.42091 4.04558 9.13209V11.4715C4.04558 12.1827 4.62214 12.7592 5.33333 12.7592C6.04452 12.7592 6.62108 12.1827 6.62108 11.4715C5.90989 11.4715 5.33333 10.8949 5.33333 10.1837Z" fill="#00C5FD"/>
<path d="M16 12.7592C15.2888 12.7592 14.7122 12.1826 14.7122 11.4714V9.13203C14.7122 8.42084 15.2888 7.84434 16 7.84434C16.7112 7.84434 17.2877 8.42084 17.2877 9.13203V11.4714C17.2877 12.1826 16.7112 12.7592 16 12.7592Z" fill="#5AD6FF"/>
<path d="M16 10.1837V7.84434C15.2888 7.84434 14.7122 8.42091 14.7122 9.13209V11.4715C14.7122 12.1827 15.2888 12.7592 16 12.7592C16.7112 12.7592 17.2877 12.1827 17.2877 11.4715C16.5766 11.4715 16 10.8949 16 10.1837Z" fill="#00C5FD"/>
<path d="M26.6667 12.7592C25.9555 12.7592 25.3789 12.1826 25.3789 11.4714V9.13203C25.3789 8.42084 25.9555 7.84434 26.6667 7.84434C27.3778 7.84434 27.9544 8.42084 27.9544 9.13203V11.4714C27.9544 12.1826 27.3778 12.7592 26.6667 12.7592Z" fill="#5AD6FF"/>
<path d="M26.6667 10.1837V7.84434C25.9555 7.84434 25.3789 8.42091 25.3789 9.13209V11.4715C25.3789 12.1827 25.9555 12.7592 26.6667 12.7592C27.3778 12.7592 27.9544 12.1827 27.9544 11.4715C27.2432 11.4715 26.6667 10.8949 26.6667 10.1837Z" fill="#00C5FD"/>
</g>
</svg>
