<svg width="56" height="56" viewBox="0 0 56 56" fill="none" xmlns="http://www.w3.org/2000/svg">
<path d="M20.8049 12.7153C17.0326 12.4551 14.6913 9.4634 14.6913 9.4634L13 10.2437C13 10.2437 15.9918 24.4224 16.7723 29.2354C17.5527 34.0483 17.8129 37.6907 17.2926 40.5524C16.7723 43.4142 14.9511 49.0077 14.9511 49.0077L16.902 49.3985C16.902 49.3985 23.7966 43.6745 28.4794 44.9752C33.1622 46.276 37.9749 52 37.9749 52L39.4062 51.9995C39.4062 51.9995 39.5363 40.1622 40.5769 36.6501C41.6175 33.1379 42.1378 28.5852 41.3573 22.6015C40.5769 16.6178 36.024 4 36.024 4L34.4635 4.39023C34.4635 4.39023 35.3738 7.51203 32.9023 10.3738C30.4308 13.2356 24.5772 12.9754 20.8049 12.7153Z" fill="#D8778E"/>
<path d="M20.775 48.421C26.1656 47.5758 31.0205 48.8707 34.1873 50.1337C36.5528 51.0756 37.9751 51.9998 37.9751 51.9998C37.9751 51.9998 38.4956 38.2109 39.4069 35.4795C40.3169 32.747 40.7076 27.1545 39.5367 20.5197C38.3658 13.8861 34.4635 4.39014 34.4635 4.39014C34.4635 4.39014 33.7235 5.78886 31.7841 7.53933C31.2848 7.98904 30.7065 8.46354 30.0408 8.94277C27.7225 10.6118 22.8937 11.1571 18.8982 10.626C17.2882 10.4123 15.8127 10.024 14.6914 9.46331C16.5127 17.6585 17.6824 26.8936 18.334 29.8858C18.9844 32.878 20.1541 42.5038 16.9022 49.3983C18.2124 48.9356 19.5084 48.6193 20.775 48.421Z" fill="#B14A5D"/>
<path d="M34.1873 50.1336C34.9829 46.229 36.4501 38.4056 36.5445 33.3974C36.6614 27.2017 34.257 14.1741 31.7841 7.53931C31.2848 7.98902 30.7065 8.46353 30.0408 8.94275C27.7225 10.6118 22.8937 11.1571 18.8982 10.6259C20.0361 15.6035 20.638 22.2572 21.0653 26.6339C21.5505 31.6044 22.261 39.2885 20.775 48.4209C26.1656 47.5758 31.0204 48.8706 34.1873 50.1336Z" fill="#91364A"/>
<path d="M21.96 26.352C22.5266 27.3518 23.6043 28.0517 24.9676 28.3244C27.5691 28.8449 26.528 25.7229 30.0407 26.6341C33.5523 27.5442 34.9841 27.4143 36.1538 24.8128C37.3247 22.2113 34.0728 19.8695 31.862 17.6587C29.65 15.4467 29.5202 6.47127 29.5202 6.47127C29.5202 6.47127 28.4803 6.14903 26.8715 6.23756C25.4161 6.31782 23.4945 6.73449 21.4548 8.03288C21.4548 8.03288 23.1463 12.8452 23.2761 16.6176C23.406 20.39 22.8866 20.2602 21.8455 22.9915C21.3498 24.2911 21.4442 25.4443 21.96 26.352Z" fill="#EFEEDA"/>
<path d="M31.3414 24.683C29.5201 24.4221 27.8948 23.4389 26.5279 24.9427C24.9474 26.6825 23.3658 27.2207 21.96 26.352C22.5265 27.3518 23.6042 28.0517 24.9675 28.3244C27.569 28.8449 26.5279 25.7229 30.0407 26.6341C33.5522 27.5442 34.984 27.4143 36.1537 24.8128C37.3247 22.2113 34.0728 19.8695 31.862 17.6587C29.65 15.4467 29.5201 6.47127 29.5201 6.47127C29.5201 6.47127 28.4802 6.14903 26.8714 6.23756C26.934 7.56428 27.0933 9.38439 27.4392 11.8053C28.3492 18.1792 31.9918 20.7807 33.0329 21.8206C34.0728 22.8617 33.1627 24.9427 31.3414 24.683Z" fill="#D3D1BA"/>
<path d="M25.2275 23.642C26.3982 22.6014 26.2681 20.7802 26.138 18.9592C26.008 17.138 25.6177 12.3251 25.2275 10.2438C24.8373 8.16246 24.1686 7.14003 23.0161 8.29253C21.9755 9.33313 23.6665 12.0648 24.1868 14.9266C24.7071 17.7884 24.0567 20.2599 23.5364 22.081C23.0162 23.9021 24.0568 24.6827 25.2275 23.642Z" fill="white"/>
<path d="M36.935 33.5285C37.1947 30.7959 37.0649 30.4064 35.7641 29.3653C34.7832 28.5804 34.1222 28.2169 33.4955 28.159C32.7849 28.0941 32.1192 28.4222 31.0816 28.9746C29.1293 30.0157 28.2193 30.0157 26.2681 29.4952C24.317 28.9746 23.1461 29.756 22.4957 31.5773C21.8453 33.3974 22.105 34.6982 24.1872 36.5195C26.2681 38.3408 26.5278 39.5117 25.6178 42.6337C24.7077 45.7558 23.5368 49.658 23.5368 49.658C23.5368 49.658 25.6083 51.6398 29.304 51.4781C30.0476 51.4474 30.8585 51.3282 31.732 51.0886C31.601 44.3252 31.0816 40.2919 32.6421 38.8613C34.2025 37.4307 36.6742 36.2598 36.935 33.5285Z" fill="#EFEEDA"/>
<path d="M31.3413 37.3008C29.3902 38.4705 29.3902 41.2031 29.2603 44.4549C29.1824 46.386 29.2426 49.3711 29.304 51.478C30.0476 51.4474 30.8585 51.3281 31.732 51.0885C31.601 44.3251 31.0816 40.2918 32.6421 38.8612C34.2025 37.4306 36.6742 36.2597 36.935 33.5284C37.1947 30.7959 37.0649 30.4063 35.7641 29.3653C34.7832 28.5803 34.1222 28.2168 33.4955 28.1589C34.7596 29.1575 35.5516 30.5409 35.3734 32.2276C35.1137 34.6981 33.2924 36.1299 31.3413 37.3008Z" fill="#D3D1BA"/>
<path d="M27.5689 35.089C29.1298 34.6988 31.4713 33.6582 31.3412 31.837C31.2111 30.0159 30.1705 30.6664 28.9997 31.1867C27.8291 31.707 27.1787 30.5363 26.138 30.6664C24.5837 30.8606 24.0566 31.707 24.0566 32.8778C24.0568 34.0483 26.0079 35.4793 27.5689 35.089Z" fill="white"/>
</svg>
