<svg width="32" height="32" viewBox="0 0 32 32" fill="none" xmlns="http://www.w3.org/2000/svg">
<path d="M16.9 1.56146C14.9837 1.78375 13.1805 2.58446 11.7306 3.857C10.2807 5.12954 9.25271 6.81354 8.78362 8.6848C8.31453 10.5561 8.42654 12.5258 9.10473 14.3318C9.78293 16.1379 10.9951 17.6945 12.58 18.7945C13.1634 19.1866 13.643 19.7145 13.9774 20.3329C14.3118 20.9512 14.4912 21.6415 14.5 22.3445V22.5C14.5 23.826 15.0268 25.0978 15.9645 26.0355C16.9021 26.9732 18.1739 27.5 19.5 27.5C21.6217 27.5 23.6566 26.6571 25.1568 25.1568C26.6571 23.6565 27.5 21.6217 27.5 19.5V11C27.4999 9.65951 27.2161 8.33425 26.6675 7.11124C26.1188 5.88822 25.3176 4.79511 24.3165 3.90371C23.3154 3.01231 22.1371 2.34278 20.8589 1.9391C19.5806 1.53542 18.2315 1.40672 16.9 1.56146Z" fill="#F9DBAF"/>
<path d="M24.5 18.5C18.15 18.5 13 12.6795 13 5.49999C12.9999 4.58619 13.0853 3.67439 13.255 2.77649C11.8679 3.57412 10.7051 4.70969 9.87493 6.07751C9.04471 7.44534 8.57401 9.00097 8.50664 10.5996C8.43927 12.1983 8.77743 13.788 9.48963 15.2208C10.2018 16.6536 11.2649 17.883 12.58 18.7945C13.1634 19.1867 13.6429 19.7146 13.9773 20.333C14.3117 20.9513 14.4911 21.6416 14.5 22.3445V22.5C14.5 23.8261 15.0268 25.0978 15.9645 26.0355C16.9021 26.9732 18.1739 27.5 19.5 27.5C21.6217 27.5 23.6566 26.6571 25.1569 25.1568C26.6571 23.6566 27.5 21.6217 27.5 19.5V18.05C26.5278 18.3477 25.5168 18.4994 24.5 18.5Z" fill="#EDB88E"/>
<path d="M23.224 12.4085C23.08 12.7889 22.7979 13.1012 22.434 13.283L21.8945 13.553C21.6258 13.6874 21.3997 13.8939 21.2417 14.1495C21.0838 14.405 21.0001 14.6995 21 15C21.0001 15.3005 21.0838 15.595 21.2417 15.8505C21.3997 16.1061 21.6258 16.3126 21.8945 16.447L22.1055 16.553C22.3743 16.6874 22.6003 16.8939 22.7583 17.1495C22.9163 17.405 23 17.6995 23 18V20C23 20.663 22.7366 21.2989 22.2678 21.7678C21.7989 22.2366 21.1631 22.5 20.5 22.5C20.1682 22.4986 19.84 22.4315 19.5343 22.3025C19.2285 22.1735 18.9514 21.9852 18.719 21.7485C18.4865 21.5117 18.3032 21.2312 18.1798 20.9232C18.0564 20.6152 17.9953 20.2858 18 19.954V18.7C17.99 18.1504 17.8233 17.6151 17.5196 17.157C17.2159 16.6988 16.7878 16.3368 16.2855 16.1135C15.4652 15.7241 14.8019 15.0672 14.4044 14.2508C14.007 13.4344 13.8992 12.5071 14.0986 11.6212C14.2981 10.7354 14.7931 9.94382 15.5021 9.37658C16.2111 8.80934 17.092 8.50021 18 8.5L17.45 9.231C16.7695 10.1383 16.4391 11.2606 16.5195 12.3919C16.5998 13.5232 17.0856 14.5875 17.8875 15.3895C18.6084 16.1102 19.0759 17.0454 19.22 18.0545L19.3115 18.6935C19.3325 18.8431 19.3888 18.9855 19.4757 19.1089C19.5627 19.2324 19.6779 19.3333 19.8117 19.4033C19.9455 19.4734 20.094 19.5105 20.245 19.5117C20.3961 19.5128 20.5452 19.478 20.68 19.41C20.9004 19.3001 21.0696 19.1089 21.1518 18.8768C21.2339 18.6446 21.2227 18.3896 21.1205 18.1655L19.5975 14.8155C19.4218 14.3458 19.3684 13.839 19.4425 13.343C19.5166 12.8469 19.7157 12.3779 20.021 11.98C20.3112 11.6899 20.6805 11.492 21.0828 11.411C21.485 11.3299 21.9022 11.3694 22.282 11.5245L23.224 12.4085Z" fill="#EDB88E"/>
<path d="M20 13.75C20 14.9925 20.4405 16 19.75 16C19.0595 16 17.5 14.9925 17.5 13.75C17.5 12.5075 19.6755 11.117 20.25 11.5C21 12 20 12.5075 20 13.75Z" fill="#DA9367"/>
<path d="M23.224 12.4085L23.6615 11.252C23.9242 10.5587 24.031 9.81613 23.9744 9.07695C23.9178 8.33777 23.6992 7.62012 23.334 6.97495C22.7932 6.01732 21.9545 5.26241 20.9455 4.82495L19.991 4.41095C19.4972 4.18774 18.9683 4.05237 18.428 4.01095C17.0092 3.92347 15.5974 4.27003 14.3803 5.00452C13.1633 5.73901 12.1987 6.82663 11.6149 8.12271C11.031 9.41879 10.8556 10.8619 11.112 12.2601C11.3684 13.6583 12.0443 14.9453 13.05 15.95L12.3255 13.3C12.0194 12.2135 12.035 11.0617 12.3704 9.98393C12.7058 8.9062 13.3465 7.94887 14.215 7.22795L14.257 7.19395L14.8005 6.75945C15.4719 6.22204 16.2703 5.86645 17.119 5.72687C17.9676 5.58729 18.8378 5.66842 19.646 5.96245C20.5066 6.27538 21.2651 6.81799 21.8391 7.53141C22.4132 8.24484 22.781 9.10184 22.9025 10.0095L23.224 12.4085Z" fill="#EDB88E"/>
<path d="M23 18.385V20C23.0008 20.4951 22.8544 20.9793 22.5793 21.391C22.3042 21.8026 21.9129 22.1232 21.4552 22.3118C20.9974 22.5005 20.4939 22.5488 20.0086 22.4505C19.5234 22.3523 19.0783 22.1119 18.73 21.76C18.2575 21.2786 17.995 20.6296 18 19.955V18.7C17.9894 18.1507 17.8224 17.6158 17.5187 17.158C17.2149 16.7001 16.787 16.3383 16.285 16.115C15.6011 15.7904 15.0233 15.2784 14.6188 14.6385C14.2143 13.9986 13.9998 13.257 14 12.5C14.0005 12.0807 14.0663 11.6641 14.195 11.265C15.1636 13.5447 16.7916 15.4827 18.87 16.83C19.0439 17.2198 19.1617 17.6322 19.22 18.055L19.315 18.695C19.3497 18.9323 19.4729 19.1477 19.6598 19.298C19.8467 19.4482 20.0835 19.5222 20.3227 19.5051C20.5619 19.4881 20.7858 19.3811 20.9494 19.2058C21.1131 19.0305 21.2044 18.7998 21.205 18.56C21.2062 18.4237 21.1772 18.2888 21.12 18.165L20.99 17.88C21.6402 18.119 22.314 18.2883 23 18.385Z" fill="#DA9367"/>
<path d="M12.325 13.3L13.05 15.95C11.7435 14.6441 11.0066 12.8744 11 11.0272C10.9935 9.17996 11.7178 7.40512 13.015 6.08997C13.0403 6.81029 13.1222 7.5275 13.26 8.23497C12.7306 8.95323 12.3714 9.78239 12.2094 10.6598C12.0474 11.5373 12.0869 12.44 12.325 13.3Z" fill="#DA9367"/>
<path d="M6.5 15H9.5V20H6.5V15Z" fill="#D0D8DA"/>
<path d="M8 17C8 16.7348 8.10536 16.4804 8.29289 16.2929C8.48043 16.1054 8.73478 16 9 16H9.5V15H6.5V20H9.5V18.5C9.10218 18.5 8.72064 18.342 8.43934 18.0607C8.15804 17.7794 8 17.3978 8 17Z" fill="#B8BEBF"/>
<path d="M7 19.5H9C9.53043 19.5 10.0391 19.7107 10.4142 20.0858C10.7893 20.4609 11 20.9696 11 21.5V30.5H5V21.5C5 20.9696 5.21071 20.4609 5.58579 20.0858C5.96086 19.7107 6.46957 19.5 7 19.5Z" fill="#E9F1F2"/>
<path d="M10.5 28C9.70435 28 8.94129 27.6839 8.37868 27.1213C7.81607 26.5587 7.5 25.7956 7.5 25V19.5H7C6.46957 19.5 5.96086 19.7107 5.58579 20.0858C5.21071 20.4609 5 20.9696 5 21.5V30.5H11V28H10.5Z" fill="#D0D8DA"/>
<path d="M6 9H11.5V15H6V9Z" fill="#E9F1F2"/>
<path d="M11.5 15L14 13V11L11.5 9V15Z" fill="#ADE8F4"/>
<path d="M18.45 12.6045L14 13V11L18.45 11.3955C18.601 11.409 18.7415 11.4785 18.8439 11.5904C18.9462 11.7023 19.003 11.8484 19.003 12C19.003 12.1516 18.9462 12.2977 18.8439 12.4096C18.7415 12.5215 18.601 12.591 18.45 12.6045Z" fill="#ADE8F4"/>
<path d="M4 7C4.53043 7 5.03914 7.21071 5.41421 7.58579C5.78929 7.96086 6 8.46957 6 9V15C6 15.2652 5.89464 15.5196 5.70711 15.7071C5.51957 15.8946 5.26522 16 5 16H4V7Z" fill="#ADE8F4"/>
<path d="M7 21.5H9V24.5H7V21.5Z" fill="#ADE8F4"/>
<path d="M11.5 11.77V15H6V9H8.42C8.70531 9.6552 9.12791 10.2415 9.65925 10.7194C10.1906 11.1973 10.8183 11.5555 11.5 11.77Z" fill="#D0D8DA"/>
<path d="M14 12V13L11.5 15V11.77C11.9852 11.9233 12.4912 12.0008 13 12H14Z" fill="#48CAE4"/>
<path d="M19.005 12C19.0047 12.1519 18.9476 12.2982 18.8449 12.4102C18.7422 12.5222 18.6013 12.5916 18.45 12.605L14 13V12H19.005Z" fill="#48CAE4"/>
<path d="M7 21.5H7.5V24.5H7V21.5Z" fill="#48CAE4"/>
<path d="M4 15V16H5C5.26522 16 5.51957 15.8946 5.70711 15.7071C5.89464 15.5196 6 15.2652 6 15V9L5.1645 14.0135C5.11857 14.2892 4.97634 14.5396 4.7631 14.7202C4.54987 14.9009 4.27946 15 4 15Z" fill="#48CAE4"/>
<path d="M9 27H7C6.86739 27 6.74021 26.9473 6.64645 26.8536C6.55268 26.7598 6.5 26.6326 6.5 26.5C6.5 26.3674 6.55268 26.2402 6.64645 26.1464C6.74021 26.0527 6.86739 26 7 26H9C9.13261 26 9.25979 26.0527 9.35355 26.1464C9.44732 26.2402 9.5 26.3674 9.5 26.5C9.5 26.6326 9.44732 26.7598 9.35355 26.8536C9.25979 26.9473 9.13261 27 9 27Z" fill="#48CAE4"/>
<path d="M9 29H7C6.86739 29 6.74021 28.9473 6.64645 28.8536C6.55268 28.7598 6.5 28.6326 6.5 28.5C6.5 28.3674 6.55268 28.2402 6.64645 28.1464C6.74021 28.0527 6.86739 28 7 28H9C9.13261 28 9.25979 28.0527 9.35355 28.1464C9.44732 28.2402 9.5 28.3674 9.5 28.5C9.5 28.6326 9.44732 28.7598 9.35355 28.8536C9.25979 28.9473 9.13261 29 9 29Z" fill="#00B4D8"/>
<path d="M7 27H8.2685C8.00692 26.7088 7.8051 26.369 7.6745 26H7C6.86739 26 6.74021 26.0527 6.64645 26.1464C6.55268 26.2402 6.5 26.3674 6.5 26.5C6.5 26.6326 6.55268 26.7598 6.64645 26.8536C6.74021 26.9473 6.86739 27 7 27Z" fill="#00B4D8"/>
</svg>
