<svg width="32" height="32" viewBox="0 0 32 32" fill="none" xmlns="http://www.w3.org/2000/svg">
<g clip-path="url(#clip0_772_1249)">
<path d="M4.125 5.625H15.375V11.25H4.125V5.625Z" fill="#C3DAFD"/>
<path d="M9.75 5.625H15.375V11.25H9.75V5.625Z" fill="#A1B8D8"/>
<path d="M0.375 9.375H19.125V32H0.375V9.375Z" fill="#E4F3FF"/>
<path d="M9.75 9.375H19.125V32H9.75V9.375Z" fill="#E4F3FF"/>
<path d="M2.25 0H17.25V7.5H2.25V0Z" fill="#457899"/>
<path d="M9.75 0H17.25V7.5H9.75V0Z" fill="#365C75"/>
<path d="M0.375 13.5H19.125V27.875H0.375V13.5Z" fill="#FF5C5C"/>
<path d="M9.75 13.5H19.125V27.875H9.75V13.5Z" fill="#FF3838"/>
<path d="M11.625 0H13.5V3.72463H11.625V0Z" fill="#274254"/>
<path d="M6 0H7.875V3.72463H6V0Z" fill="#365C75"/>
<path d="M13.1875 19.75H10.6875V17.25H8.8125V19.75H6.3125V21.625H8.8125V24.125H10.6875V21.625H13.1875V19.75Z" fill="#E4F3FF"/>
<path d="M10.6875 19.75V17.25H9.75V24.125H10.6875V21.625H13.1875V19.75H10.6875Z" fill="#C3DAFD"/>
<path d="M28.1875 30.625H20.6875C18.7921 30.625 17.25 29.0829 17.25 27.1875C17.25 25.2921 18.7921 23.75 20.6875 23.75H28.1875C30.0829 23.75 31.625 25.2921 31.625 27.1875C31.625 29.0829 30.0829 30.625 28.1875 30.625Z" fill="#E4F3FF"/>
<path d="M20.6875 30.625H28.1875C30.0829 30.625 31.625 29.0829 31.625 27.1875H17.25C17.25 29.0829 18.7921 30.625 20.6875 30.625Z" fill="#C3DAFD"/>
<path d="M28.1875 23.75H24.4375V30.625H28.1875C30.0829 30.625 31.625 29.0829 31.625 27.1875C31.625 25.2921 30.0829 23.75 28.1875 23.75Z" fill="#FF5C5C"/>
<path d="M24.4375 30.625H28.1875C30.0829 30.625 31.625 29.0829 31.625 27.1875H24.4375V30.625Z" fill="#FF3838"/>
<path d="M28.4215 16.0556L23.1182 21.359C21.7779 22.6993 19.5972 22.6993 18.2569 21.359C16.9166 20.0188 16.9166 17.8379 18.2569 16.4977L23.5602 11.1944C24.9005 9.85415 27.0812 9.85415 28.4216 11.1944C29.7617 12.5346 29.7617 14.7154 28.4215 16.0556Z" fill="#E4F3FF"/>
<path d="M23.1182 21.359L28.4215 16.0556C29.7617 14.7155 29.7617 12.5346 28.4215 11.1943L18.2568 21.359C19.5971 22.6993 21.7779 22.6993 23.1182 21.359Z" fill="#C3DAFD"/>
<path d="M23.5601 11.1943L20.9085 13.846L25.7698 18.7073L28.4215 16.0556C29.7618 14.7154 29.7618 12.5346 28.4215 11.1943C27.0813 9.85402 24.9004 9.85402 23.5601 11.1943Z" fill="#5CA2FA"/>
<path d="M25.7698 18.7073L28.4215 16.0556C29.7617 14.7155 29.7617 12.5346 28.4215 11.1943L23.3392 16.2766L25.7698 18.7073Z" fill="#3D6DEF"/>
</g>
<defs>
<clipPath id="clip0_772_1249">
<rect width="32" height="32" fill="white"/>
</clipPath>
</defs>
</svg>
