<svg width="32" height="32" viewBox="0 0 32 32" fill="none" xmlns="http://www.w3.org/2000/svg">
<g clip-path="url(#clip0_686_4876)">
<path d="M25.6857 15.3594L0.752563 18.0969C1.46425 25.8929 8.01838 32 16 32C19.6751 32 23.0469 30.7045 25.6857 28.5463V15.3594Z" fill="#906BD1"/>
<path d="M25.756 28.4886C25.7933 28.4578 25.8307 28.4269 25.8677 28.3956L25.756 28.4886Z" fill="#906BD1"/>
<path d="M31.2474 18.0969C31.2898 17.6327 31.3126 17.1628 31.3126 16.6874C31.3126 8.23044 24.4569 1.37476 16 1.37476C7.54307 1.37476 0.687378 8.2305 0.687378 16.6874C0.687378 17.1628 0.71019 17.6327 0.752565 18.097H31.2474V18.0969Z" fill="#FFE14D"/>
<path d="M19.2146 15.1474C19.1409 15.147 19.0677 15.1459 18.9938 15.1459C11.4394 15.1459 5.31538 17.5252 5.31538 20.4604C5.31538 21.4219 5.51963 21.9763 5.89801 22.4633L19.7187 19.0832L19.2146 15.1474Z" fill="#B2FDFD"/>
<path d="M19.2146 15.1473C18.2733 15.6345 16.6741 16.7751 18.6268 18.2242L24.4743 21.0781L30.7483 20.8182C30.9937 19.9404 31.1622 19.0307 31.2474 18.0968C29.0392 16.3719 24.4897 15.1798 19.2146 15.1473Z" fill="#E3FCFB"/>
<path d="M10.3836 19.4075C8.28419 20.0692 6.69907 20.9677 5.89813 21.9985C9.29619 28.1167 21.9896 27.2657 21.9896 27.2657L22.5625 21.0782L10.3836 19.4075Z" fill="#5DE9FD"/>
<path d="M18.9938 18.222C18.871 18.222 18.7488 18.2229 18.6268 18.2242C21.2466 20.1685 18.7413 22.6927 18.7413 22.6927L19.8216 23.7656C19.8216 23.7656 18.4384 25.2364 21.5287 25.6832L24.6875 26.5025C24.6875 26.5025 27.8594 26.0804 29.5391 23.8449C30.0443 22.8912 30.452 21.878 30.7483 20.8182C28.3618 19.2635 23.9913 18.222 18.9938 18.222Z" fill="#B2FDFD"/>
<path d="M18.6268 18.2242C15.5059 18.2562 12.6459 18.6942 10.3834 19.4074C10.1795 19.6456 10.0683 19.9017 10.0683 20.1686C10.0683 21.4359 12.5706 22.4633 15.6574 22.4633C18.7443 22.4633 21.2466 21.4359 21.2466 20.1686C21.2466 19.3492 20.2004 18.6302 18.6268 18.2242Z" fill="#EE6262"/>
<path d="M16.2791 16.078C15.8784 15.6025 15.5228 15.071 15.2566 14.4837C15.1059 14.1513 14.6278 14.1513 14.4771 14.4837C14.2109 15.071 13.8554 15.6025 13.4547 16.078C12.4538 17.2658 13.3137 19.0832 14.8669 19.0832C16.4201 19.0832 17.2799 17.2658 16.2791 16.078Z" fill="#FF5454"/>
<path d="M20.9211 7.56775L17.8688 9.02437L16.9629 9.93031C16.5462 10.3471 16.2611 10.8771 16.1432 11.4545C16.1116 11.6089 16.0354 11.7507 15.9239 11.8621L14.4568 13.3292C14.1428 13.6432 14.1428 14.1524 14.4568 14.4664C14.7708 14.7804 15.2799 14.7804 15.5939 14.4664L17.0611 12.9992C17.1725 12.8878 17.3143 12.8116 17.4687 12.78C18.0461 12.6621 18.5761 12.377 18.9929 11.9602L21.9896 8.96356L20.9211 7.56775Z" fill="#F67F7F"/>
<path d="M26.8085 1.77596L24.7399 1.56165L22.3582 3.94327L23.0812 6.08765L24.9798 6.56483L27.2664 4.27827L26.8085 1.77596Z" fill="#E51E82"/>
<path d="M27.7636 1.41395V0.13733C27.0959 -0.13492 26.3042 -0.00254548 25.7656 0.535955L24.7399 1.56164C24.7098 1.70964 24.6938 1.86283 24.6938 2.01977C24.6938 3.27795 25.7138 4.29789 26.9719 4.29789C27.0718 4.29789 27.1699 4.29077 27.2664 4.27833L28.3872 3.15758C28.5278 3.01702 28.6403 2.85895 28.7256 2.69058L27.7636 1.41395Z" fill="#FE3D97"/>
<path d="M19.9809 8.92027C20.6049 8.5262 21.3474 8.67158 21.9896 8.96358L23.9734 6.97983L21.9434 4.94983L17.8688 9.02439C18.2317 9.26177 18.9782 9.55333 19.9809 8.92027Z" fill="#E3FCFB"/>
<path d="M25.1688 6.75384L22.1693 3.7544C21.8461 3.43115 21.3171 3.43115 20.9937 3.7544C20.6705 4.07771 20.6705 4.60665 20.9937 4.92996L23.9933 7.92946C24.3165 8.25271 24.8456 8.25271 25.1688 7.92946C25.4921 7.60615 25.4921 7.07715 25.1688 6.75384Z" fill="#FD77A6"/>
<path d="M27.7636 0.137329C27.459 0.404454 27.2664 0.796204 27.2664 1.2332C27.2664 2.03808 27.9189 2.69058 28.7238 2.69058C28.7244 2.69058 28.7249 2.69052 28.7255 2.69052C29.0759 1.99833 28.9596 1.12802 28.3773 0.545767C28.196 0.364517 27.9868 0.228329 27.7636 0.137329Z" fill="#FD77A6"/>
<path d="M19.4344 24.3346C21.3644 24.3346 22.9289 23.6945 22.9289 22.9048C22.9289 22.1152 21.3644 21.4751 19.4344 21.4751C17.5045 21.4751 15.94 22.1152 15.94 22.9048C15.94 23.6945 17.5045 24.3346 19.4344 24.3346Z" fill="#FF5454"/>
<path d="M10.2938 24.5555C7.30782 23.6048 5.31551 22.1628 5.31551 20.4603V23.9116C5.31551 25.6015 7.34588 27.107 10.5102 28.0804L11.5313 26.2969L10.2938 24.5555Z" fill="#FE3D97"/>
<path d="M21.5287 25.6831C20.7071 25.7429 19.8601 25.7747 18.9938 25.7747C15.7944 25.7747 12.717 25.3269 10.2938 24.5554C9.63468 25.2079 8.73312 26.567 10.5101 28.0804C12.8417 28.7976 15.7889 29.226 18.9938 29.226C19.7274 29.226 20.4472 29.2032 21.1496 29.1599L23.2917 27.3059L21.5287 25.6831Z" fill="#FD77A6"/>
<path d="M21.5287 25.6832C21.5287 25.6832 19.1774 27.6032 21.1496 29.16C22.7744 29.0599 24.3043 28.849 25.6857 28.5473C27.2629 27.2577 28.5775 25.6594 29.5386 23.8451C27.5421 24.7832 24.732 25.4498 21.5287 25.6832Z" fill="#FCCAE0"/>
</g>
<defs>
<clipPath id="clip0_686_4876">
<rect width="32" height="32" fill="white"/>
</clipPath>
</defs>
</svg>
