<svg width="26" height="23" viewBox="0 0 26 23" fill="none" xmlns="http://www.w3.org/2000/svg">
<path d="M17.8536 0H7.69849L7.36234 4.71667L12.2534 6.46039C12.2534 6.46039 17.2949 4.42961 17.1246 4.48451C16.9544 4.53935 17.8536 0 17.8536 0Z" fill="#FFC3D2"/>
<path d="M17.1246 4.48451C16.9544 4.53942 17.8536 0 17.8536 0H12.7788V6.24866C14.0654 5.72995 17.2607 4.44058 17.1246 4.48451Z" fill="#FF96B4"/>
<path d="M17.8536 0C17.5129 2.41737 15.3694 4.28016 12.7761 4.28016C10.1827 4.28016 8.03927 2.41737 7.69849 0L4.83 6.50023V17.7261L9.92746 22.6555H15.6247L20.7221 17.7261V6.50023L17.8536 0Z" fill="white"/>
<path d="M17.8536 0C17.513 2.41655 15.371 4.27877 12.7788 4.28009V22.6554H15.6247L20.7221 17.7261V6.50023L17.8536 0Z" fill="#E9EDF5"/>
<path d="M9.403 9.23284C9.403 8.29451 10.1896 7.53381 11.16 7.53381C11.8853 7.53381 12.5079 7.95898 12.7761 8.56556C13.0442 7.95898 13.6668 7.53381 14.3922 7.53381C15.3625 7.53381 16.1492 8.29451 16.1492 9.23284C16.1492 11.3166 12.7761 13.0859 12.7761 13.0859C12.7761 13.0859 9.403 11.297 9.403 9.23284Z" fill="#FFC3D2"/>
<path d="M16.1492 9.23284C16.1492 8.29451 15.3625 7.53381 14.3922 7.53381C13.6691 7.53381 13.0484 7.9564 12.7788 8.55995V13.0844C12.8851 13.0281 16.1492 11.2827 16.1492 9.23284Z" fill="#FF96B4"/>
<path d="M17.8536 0L22.1665 1.57554L25.5521 5.80174L20.7221 8.907L17.8536 0Z" fill="#CDD2E1"/>
<path d="M7.6985 0L3.38566 1.57554L0 5.80174L4.83001 8.907L7.6985 0Z" fill="#E9EDF5"/>
<path d="M11.0733 0.862061H14.4787V2.34283H11.0733V0.862061Z" fill="white"/>
<path d="M12.7788 0.862061H14.4787V2.34283H12.7788V0.862061Z" fill="#E9EDF5"/>
</svg>
