<svg width="25" height="25" viewBox="0 0 25 25" fill="none" xmlns="http://www.w3.org/2000/svg">
<path d="M7.18674 17.1696L6.60243 16.6047L4.44608 18.6894L5.03039 19.2542L5.61463 19.8191L7.77098 17.7345L7.18674 17.1696Z" fill="#DCE0EF"/>
<path d="M5.02701 19.2534L7.18223 17.1693L7.76618 17.734L5.61096 19.8181L5.02701 19.2534Z" fill="#B9C1DF"/>
<path d="M21.7917 3.04632C19.8464 1.16519 17.1606 0 14.1988 0C8.27529 0 3.45584 4.66057 3.45584 10.3887C3.45584 13.2528 4.6607 15.8499 6.60606 17.7311C8.55134 19.6122 11.2371 20.7774 14.1989 20.7774C20.1224 20.7774 24.9419 16.1169 24.9419 10.3888C24.9419 7.52472 23.737 4.92752 21.7917 3.04632Z" fill="#5F657A"/>
<path d="M24.9419 10.3891C24.9419 7.52497 23.737 4.92783 21.7917 3.04663L6.60605 17.7315C8.55134 19.6126 11.2371 20.7778 14.1989 20.7778C20.1224 20.7778 24.9419 16.1172 24.9419 10.3891Z" fill="#3E4151"/>
<path d="M20.6237 4.17599C18.9776 2.58425 16.7051 1.59839 14.1989 1.59839C9.18646 1.59839 5.10861 5.54175 5.10861 10.3888C5.10861 12.8124 6.12809 15.01 7.77412 16.6017C9.42015 18.1934 11.6927 19.1793 14.1989 19.1793C19.2112 19.1793 23.2891 15.2359 23.2891 10.3888C23.2892 7.9653 22.2697 5.76773 20.6237 4.17599Z" fill="#FBF5EB"/>
<path d="M18.2893 6.43337C17.2424 5.42111 15.7963 4.79492 14.1989 4.79492C11.0041 4.79492 8.41422 7.2994 8.41422 10.3888C8.41422 11.9336 9.06175 13.332 10.1085 14.3443C11.1553 15.3566 12.6015 15.9828 14.1989 15.9828C17.3937 15.9828 19.9836 13.4783 19.9836 10.3888C19.9836 8.84418 19.3361 7.44577 18.2893 6.43337Z" fill="#F5DBCA"/>
<path d="M19.9836 10.3888C19.9836 7.2994 17.3937 4.79492 14.1989 4.79492V15.9828C17.3936 15.9828 19.9836 13.4783 19.9836 10.3888Z" fill="#ECBEA6"/>
<path d="M14.1989 3.19702C12.8318 3.19702 11.7198 4.27245 11.7198 5.59441V7.99179H14.1989C15.566 7.99179 16.678 6.91636 16.678 5.59441C16.678 4.27245 15.5659 3.19702 14.1989 3.19702Z" fill="#F7DE82"/>
<path d="M16.6781 5.59441C16.6781 4.27239 15.566 3.19702 14.1989 3.19702V7.99179C15.566 7.99179 16.6781 6.91643 16.6781 5.59441Z" fill="#EFC142"/>
<path d="M2.10896 18.6902L0 20.7296C0.988125 22.0209 2.17069 23.1644 3.50599 24.1198L5.61469 22.081C6.58144 21.1461 6.58607 19.6295 5.61469 18.6901C4.67767 17.7841 3.04266 17.7857 2.10896 18.6902Z" fill="#E696C9"/>
<path d="M1.6221 22.5511C2.20824 23.1179 2.83824 23.6421 3.50592 24.1199L5.61462 22.0811C6.58137 21.1462 6.586 19.6295 5.61462 18.6902L1.6221 22.5511Z" fill="#E27FA6"/>
<path d="M15.0252 10.3892C15.0252 10.83 14.6548 11.1881 14.1988 11.1881C13.9709 11.1881 13.7643 11.0985 13.6147 10.9539C13.4651 10.8093 13.3724 10.6096 13.3724 10.3892H11.7197C11.7197 11.05 11.9977 11.6492 12.4466 12.0831C12.8956 12.5171 13.5153 12.7859 14.1988 12.7859C15.5659 12.7859 16.678 11.7108 16.678 10.3892H15.0252Z" fill="#E696C9"/>
<path d="M16.6781 10.3892H15.0253C15.0253 10.83 14.6548 11.1881 14.1989 11.1881V12.7859C15.566 12.786 16.6781 11.7108 16.6781 10.3892Z" fill="#E27FA6"/>
</svg>
