<svg width="32" height="32" viewBox="0 0 32 32" fill="none" xmlns="http://www.w3.org/2000/svg">
<g clip-path="url(#clip0_686_4345)">
<path d="M16.07 4.27208C16.4782 4.6137 17.0781 4.6137 17.4863 4.27208C19.0259 2.98364 21.0439 2.20251 23.2533 2.20251C28.084 2.20258 32 5.9367 32 10.543C32 17.4501 26.756 24.8403 20.4816 28.7416C18.2176 30.1493 15.3386 30.1493 13.0747 28.7416C6.80031 24.8403 1.55624 17.4501 1.55624 10.543C1.55624 5.9367 5.47224 2.20258 10.303 2.20258C12.5124 2.20258 14.5304 2.9837 16.07 4.27208Z" fill="#FF6565"/>
<path d="M13.0747 28.7416C15.3386 30.1493 18.2176 30.1493 20.4816 28.7416C20.8698 28.5002 21.254 28.2453 21.6334 27.9782C10.9838 24.218 9.98293 7.42289 12.2876 2.41839C11.6499 2.27733 10.9856 2.20251 10.303 2.20251C5.47231 2.20258 1.55624 5.9367 1.55624 10.543C1.55624 17.4501 6.80031 24.8403 13.0747 28.7416Z" fill="#F34848"/>
<path d="M25.9465 13.7115C22.053 13.7115 18.8854 16.8792 18.8854 20.7726C18.8854 23.54 20.4859 25.9402 22.8097 27.0974C26.4771 24.1846 29.5485 20.136 31.0363 15.8836C29.7506 14.5456 27.9442 13.7115 25.9465 13.7115Z" fill="#F34848"/>
<path d="M25.9465 25.9021C23.5126 25.9021 21.4747 24.207 20.9488 21.9329C21.1254 21.7563 21.4633 21.4419 21.4633 21.4419C21.4633 21.4419 21.0823 21.2288 20.8206 20.9671C20.8182 20.9026 20.817 20.8377 20.817 20.7726C20.817 17.9396 23.1135 15.6431 25.9465 15.6431C28.7794 15.6431 31.076 17.9396 31.076 20.7726C31.076 20.8377 31.0748 20.9026 31.0724 20.9671C30.8107 21.2288 30.4297 21.4419 30.4297 21.4419C30.4297 21.4419 30.7675 21.7563 30.9442 21.9329C30.4183 24.207 28.3804 25.9021 25.9465 25.9021Z" fill="#616A84"/>
<path d="M23.2157 16.4312C21.7749 17.3393 20.8169 18.9436 20.8169 20.7726C20.8169 20.8377 20.8181 20.9026 20.8205 20.9672C21.0822 21.2288 21.4632 21.4419 21.4632 21.4419C21.4632 21.4419 21.1254 21.7563 20.9487 21.933C21.4746 24.207 23.5125 25.9021 25.9464 25.9021C27.3237 25.9021 28.5739 25.359 29.4954 24.4757C22.2432 24.919 22.0644 18.4512 23.2157 16.4312Z" fill="#4B5165"/>
<path d="M30.1271 20.9671L27.9965 18.8364C27.8079 18.6479 27.5021 18.648 27.3135 18.8364L24.8701 21.2799L23.5629 19.9728C23.3742 19.7843 23.0684 19.7844 22.8799 19.9728L21.8856 20.9671H20.8219C20.8342 21.2981 20.8782 21.6209 20.9504 21.9329H22.0857C22.2138 21.9329 22.3366 21.8821 22.4272 21.7915L23.2215 20.9972L24.5286 22.3043C24.7172 22.4929 25.0229 22.4929 25.2116 22.3043L27.655 19.8608L29.5856 21.7914C29.6762 21.882 29.7989 21.9329 29.9271 21.9329H30.9425C31.0147 21.6208 31.0586 21.2981 31.071 20.9671H30.1271V20.9671Z" fill="#F7EF87"/>
<path d="M11.2507 23.4289C5.56226 23.4289 2.5692 20.8055 0.597262 18.52C-0.289613 17.492 -0.1753 15.9397 0.852637 15.0528C1.8807 14.1659 3.43301 14.2802 4.31989 15.3081C5.97926 17.2313 7.79289 18.5122 11.2507 18.5122C12.6084 18.5122 13.709 19.6129 13.709 20.9705C13.709 22.3282 12.6084 23.4289 11.2507 23.4289Z" fill="#FF6565"/>
<path d="M11.3795 13.5329C12.4797 13.5329 13.3715 12.8226 13.3715 11.9465C13.3715 11.0704 12.4797 10.3602 11.3795 10.3602C10.2794 10.3602 9.38754 11.0704 9.38754 11.9465C9.38754 12.8226 10.2794 13.5329 11.3795 13.5329Z" fill="white"/>
<path d="M22.1767 13.5329C23.2768 13.5329 24.1687 12.8226 24.1687 11.9465C24.1687 11.0704 23.2768 10.3602 22.1767 10.3602C21.0765 10.3602 20.1847 11.0704 20.1847 11.9465C20.1847 12.8226 21.0765 13.5329 22.1767 13.5329Z" fill="white"/>
<path d="M16.7781 11.9108C17.3621 11.9108 17.8355 11.3811 17.8355 10.7276C17.8355 10.0742 17.3621 9.54443 16.7781 9.54443C16.1941 9.54443 15.7207 10.0742 15.7207 10.7276C15.7207 11.3811 16.1941 11.9108 16.7781 11.9108Z" fill="#616A84"/>
<path d="M11.7126 10.501C11.4536 10.501 11.2438 10.2911 11.2438 10.0323V9.25964C11.2438 9.00077 11.4536 8.79089 11.7126 8.79089C11.9715 8.79089 12.1813 9.00077 12.1813 9.25964V10.0323C12.1813 10.2911 11.9715 10.501 11.7126 10.501Z" fill="#616A84"/>
<path d="M21.8437 10.501C21.5848 10.501 21.3749 10.2911 21.3749 10.0323V9.25964C21.3749 9.00077 21.5848 8.79089 21.8437 8.79089C22.1026 8.79089 22.3124 9.00077 22.3124 9.25964V10.0323C22.3124 10.2911 22.1026 10.501 21.8437 10.501Z" fill="#616A84"/>
</g>
<defs>
<clipPath id="clip0_686_4345">
<rect width="32" height="32" fill="white"/>
</clipPath>
</defs>
</svg>
