<svg width="32" height="32" viewBox="0 0 32 32" fill="none" xmlns="http://www.w3.org/2000/svg">
<g clip-path="url(#clip0_686_4420)">
<path d="M20.6667 25.3333H0.666667C0.298667 25.3333 0 25.0346 0 24.6666V19.3333C0 16.76 2.09333 14.6666 4.66667 14.6666H16.6667C19.24 14.6666 21.3333 16.76 21.3333 19.3333V24.6666C21.3333 25.0346 21.0347 25.3333 20.6667 25.3333Z" fill="#607D8B"/>
<path d="M16.6667 6V6.06667C14.3067 6.44 12 4 12 4C9.59999 6.24 5.79999 6.13333 4.66666 6.02667C4.66666 6.01333 4.66666 6.01333 4.66666 6C4.66666 2.69333 7.35999 0 10.6667 0C13.9733 0 16.6667 2.69333 16.6667 6Z" fill="#607D8B"/>
<path d="M16.6267 5.33337C14.1733 5.97337 12 3.33337 12 3.33337C9.29332 5.85337 5.15999 5.40004 4.70666 5.33337C4.67999 5.54671 4.66666 5.77337 4.66666 6.00004C4.66666 9.30671 7.35999 12 10.6667 12C13.9733 12 16.6667 9.30671 16.6667 6.00004C16.6667 5.77337 16.6533 5.54671 16.6267 5.33337Z" fill="#FFCC80"/>
<path d="M28.104 32C26.9867 32 26.0187 31.248 25.804 30.212L25.056 25.968C25.0387 25.884 24.88 25.7627 24.6667 25.7627C24.4533 25.7627 24.2947 25.884 24.2707 25.9973L23.5347 30.1813C23.3147 31.248 22.3467 32 21.2293 32C20.0347 32 19.0333 31.1533 18.9013 30.032L18.612 27.596C18.5947 27.468 18.4627 26.7733 17.7733 23.5773C17.4813 22.2347 17.3333 20.8547 17.3333 19.476C17.3333 17.56 18.888 16 20.7987 16C21.4387 16 22.068 16.1747 22.6173 16.5053C23.8813 17.268 25.452 17.268 26.716 16.5053C27.2653 16.1747 27.8947 16 28.5347 16C30.4453 16 32 17.56 32 19.476C32 20.8547 31.852 22.2347 31.56 23.58C30.8267 26.9693 30.732 27.512 30.7213 27.5973L30.432 30.032C30.3 31.1547 29.2987 32 28.104 32Z" fill="#D9FBFF"/>
</g>
<defs>
<clipPath id="clip0_686_4420">
<rect width="32" height="32" fill="white"/>
</clipPath>
</defs>
</svg>
