<svg width="24" height="20" viewBox="0 0 24 20" fill="none" xmlns="http://www.w3.org/2000/svg">
<path d="M4.31492 19.0823C1.93186 19.0823 0 17.2142 0 14.9097V4.17262C0 1.86815 1.93186 0 4.31492 0C6.69799 0 8.62985 1.86815 8.62985 4.17262V14.9098C8.62985 17.2142 6.69799 19.0823 4.31492 19.0823Z" fill="white"/>
<path d="M4.3149 0C4.30883 0 4.3029 0.000440998 4.29691 0.000440998V19.0819C4.3029 19.0819 4.30883 19.0823 4.3149 19.0823C6.69796 19.0823 8.62982 17.2142 8.62982 14.9098V4.17262C8.62982 1.86815 6.69796 0 4.3149 0Z" fill="#E0E0E0"/>
<path d="M8.62985 4.17262C8.62985 1.86815 6.69799 0 4.31492 0C1.93186 0 0 1.86815 0 4.17262V9.51459H8.62978L8.62985 4.17262Z" fill="#FEC007"/>
<path d="M8.62982 4.17262C8.62982 1.86815 6.69796 0 4.3149 0C4.30883 0 4.3029 0.000440998 4.29691 0.000440998V9.51459H8.62982V4.17262Z" fill="#FE9700"/>
<path d="M23.4477 8.52005C24.4993 10.588 23.6182 13.0888 21.4797 14.1057L11.5159 18.8437C9.37737 19.8606 6.79132 19.0085 5.73971 16.9405C4.68816 14.8726 5.56925 12.3718 7.70775 11.3549L17.6716 6.61692C19.8101 5.59998 22.3961 6.45208 23.4477 8.52005Z" fill="#FEEAED"/>
<path d="M23.4477 8.52036C23.4458 8.51664 23.4438 8.51318 23.4419 8.50952L5.71115 16.8808C5.72093 16.9008 5.72966 16.9209 5.73977 16.9409C6.79132 19.0088 9.37743 19.8609 11.5159 18.844L21.4797 14.106C23.6182 13.0891 24.4993 10.5883 23.4477 8.52036Z" fill="#FECCD1"/>
<path d="M7.70771 11.3551C5.56922 12.372 4.68806 14.8728 5.73968 16.9408C6.79122 19.0087 9.37734 19.8608 11.5158 18.8439L16.4731 16.4866L12.665 8.9978L7.70771 11.3551Z" fill="#FF4681"/>
<path d="M5.71109 16.8809C5.72087 16.9009 5.7296 16.9211 5.73971 16.941C6.79125 19.0089 9.37737 19.861 11.5159 18.8441L16.4731 16.4869L14.5512 12.7073L5.71109 16.8809Z" fill="#C32363"/>
</svg>
