<svg width="34" height="31" viewBox="0 0 34 31" fill="none" xmlns="http://www.w3.org/2000/svg">
<path d="M20.6033 23.4681C19.3594 22.2653 17.5281 21.9681 15.994 22.5767C16.6233 21.0931 16.316 19.3223 15.0722 18.1195C13.4202 16.522 10.7322 16.522 9.08022 18.1195C7.42826 19.717 7.42826 22.3164 9.08022 23.9139C10.3241 25.1167 12.1553 25.4138 13.6894 24.8053C13.0602 26.2888 13.3674 28.0596 14.6113 29.2625C16.2632 30.86 18.9513 30.86 20.6033 29.2625C22.2552 27.6649 22.2552 25.0656 20.6033 23.4681ZM9.54113 23.4681C8.14333 22.1163 8.14333 19.9169 9.54113 18.5651C10.939 17.2134 13.2134 17.2134 14.6113 18.5651C16.0092 19.9169 16.0092 22.1163 14.6113 23.4681C13.2135 24.8198 10.939 24.8198 9.54113 23.4681ZM20.1423 28.8167C18.7445 30.1684 16.4701 30.1684 15.0722 28.8167C13.6743 27.465 13.6743 25.2655 15.0722 23.9137C16.47 22.562 18.7445 22.562 20.1423 23.9137C21.5402 25.2655 21.5402 27.465 20.1423 28.8167Z" fill="#6A61B4"/>
<path d="M33.2785 6.30758L24.982 14.3305C24.8547 14.4536 24.6484 14.4536 24.521 14.3305C24.3937 14.2074 24.3937 14.0079 24.521 13.8848L32.8176 5.86186C32.9449 5.73875 33.1512 5.73875 33.2785 5.86186C33.4058 5.98497 33.4058 6.18447 33.2785 6.30758Z" fill="#8078BF"/>
<path d="M28.4849 11.9236L25.2584 15.0437C25.0039 15.2899 24.5912 15.2899 24.3366 15.0437L23.7835 14.5089C23.529 14.2627 23.529 13.8636 23.7835 13.6174L27.01 10.4974C27.2646 10.2512 27.6773 10.2512 27.9318 10.4974L28.4849 11.0322C28.7395 11.2784 28.7395 11.6775 28.4849 11.9236Z" fill="#453D83"/>
<path d="M27.3096 14.3529L18.5521 22.8216C18.2976 23.0677 17.8849 23.0677 17.6303 22.8216L15.7406 20.9942C15.486 20.748 15.486 20.3489 15.7406 20.1027L24.498 11.6341C24.7526 11.3879 25.1653 11.3879 25.4199 11.6341L27.3096 13.4615C27.5642 13.7077 27.5642 14.1068 27.3096 14.3529Z" fill="#6A61B4"/>
<path d="M27.3096 14.353L21.237 20.2254C20.7724 20.6746 20.0192 20.6746 19.5547 20.2254C19.0901 19.7761 19.0901 19.0478 19.5547 18.5985L25.6273 12.7261C25.8818 12.48 26.2946 12.48 26.5491 12.7261L27.3096 13.4615C27.5642 13.7077 27.5642 14.1069 27.3096 14.353Z" fill="#8078BF"/>
<path d="M15.1182 26.6323C15.3727 26.8784 15.3727 27.2775 15.1182 27.5237C14.8636 27.7698 14.4509 27.7698 14.1964 27.5237L10.8777 24.3145C10.6232 24.0683 10.6232 23.6692 10.8777 23.423C11.1322 23.1769 11.545 23.1769 11.7995 23.423L15.1182 26.6323ZM20.1423 24.3591L14.1503 18.5647C13.8957 18.3186 13.483 18.3186 13.2284 18.5647C12.9739 18.8109 12.9739 19.21 13.2284 19.4562L19.2204 25.2505C19.475 25.4967 19.8877 25.4967 20.1423 25.2505C20.3968 25.0044 20.3968 24.6053 20.1423 24.3591Z" fill="#51489A"/>
<path d="M22.4929 16.8267C22.6202 16.9499 22.6202 17.1494 22.4929 17.2725C22.3656 17.3956 22.1593 17.3956 22.032 17.2725L21.4789 16.7376C21.3516 16.6145 21.3516 16.415 21.4789 16.2919C21.6062 16.1689 21.8125 16.1689 21.9398 16.2919L22.4929 16.8267ZM21.018 17.1833C20.8908 17.0602 20.6844 17.0602 20.5571 17.1833C20.4298 17.3064 20.4298 17.5059 20.5571 17.629L21.1102 18.1639C21.2375 18.287 21.4438 18.287 21.5711 18.1639C21.6984 18.0408 21.6984 17.8413 21.5711 17.7182L21.018 17.1833ZM19.9118 17.8964C19.7845 17.7733 19.5782 17.7733 19.4509 17.8964C19.3236 18.0195 19.3236 18.2191 19.4509 18.3422L20.3727 19.2336C20.5 19.3567 20.7064 19.3567 20.8336 19.2336C20.9608 19.1105 20.9608 18.9109 20.8336 18.7879L19.9118 17.8964ZM26.3647 13.4393L25.4428 12.5478C25.3155 12.4248 25.1092 12.4248 24.9819 12.5478C24.8546 12.671 24.8546 12.8705 24.9819 12.9936L25.9038 13.885C26.031 14.008 26.2374 14.008 26.3647 13.885C26.492 13.7619 26.492 13.5623 26.3647 13.4393ZM22.6773 15.2221C22.55 15.099 22.3437 15.099 22.2164 15.2221C22.0891 15.3452 22.0891 15.5448 22.2164 15.6679L23.1382 16.5593C23.2656 16.6824 23.4719 16.6824 23.5992 16.5593C23.7265 16.4362 23.7265 16.2367 23.5992 16.1136L22.6773 15.2221ZM24.7053 13.6175C24.5781 13.4944 24.3717 13.4944 24.2444 13.6175C24.1171 13.7406 24.1171 13.9402 24.2444 14.0633L24.7975 14.5981C24.9248 14.7212 25.1311 14.7212 25.2584 14.5981C25.3857 14.475 25.3857 14.2754 25.2584 14.1524L24.7053 13.6175ZM23.7835 14.509C23.6562 14.3859 23.4499 14.3859 23.3226 14.509C23.1953 14.6321 23.1953 14.8316 23.3226 14.9547L23.8757 15.4895C24.003 15.6126 24.2093 15.6126 24.3366 15.4895C24.4639 15.3664 24.4639 15.1669 24.3366 15.0438L23.7835 14.509Z" fill="#ABA6D5"/>
<path d="M7.44505 9.00639L13.8979 15.2465C14.2798 15.6157 14.2798 16.2144 13.8979 16.5836L12.0543 18.3665C11.6724 18.7357 11.0534 18.7357 10.6715 18.3665L4.21863 12.1264C3.83678 11.7571 3.83678 11.1585 4.21863 10.7893C4.23049 10.7778 4.2185 10.7583 4.2026 10.7635C3.79448 10.8966 3.3202 10.7683 3.05151 10.401L0.18589 6.48325C-0.0988989 6.09396 -0.0521619 5.56283 0.296573 5.22566C0.64433 4.88937 1.19175 4.84342 1.59419 5.11667L5.6579 7.87581C6.03981 8.13513 6.17363 8.59509 6.03564 8.99089C6.03029 9.00627 6.05043 9.01787 6.0623 9.00639C6.44408 8.63714 7.0632 8.63714 7.44505 9.00639ZM22.9159 5.86237C22.904 5.85089 22.9161 5.83142 22.9319 5.83659C23.3412 5.97003 23.8169 5.84062 24.085 5.4713L26.9383 1.54162C27.2209 1.15238 27.1733 0.62308 26.8256 0.286792C26.4768 -0.0504417 25.9277 -0.0956372 25.5251 0.17976L21.4737 2.95081C21.0939 3.21064 20.9612 3.66921 21.0988 4.06393C21.1042 4.07932 21.084 4.09091 21.0722 4.07944C20.6903 3.71019 20.0713 3.71019 19.6894 4.07944L13.2365 10.3195C12.8547 10.6888 12.8547 11.2874 13.2365 11.6567L15.0802 13.4395C15.462 13.8088 16.0811 13.8088 16.4629 13.4395L22.9158 7.19945C23.2977 6.83032 23.2977 6.23162 22.9159 5.86237Z" fill="#5F55AF"/>
<path d="M7.44487 9.00605L12.0639 13.4727C12.4457 13.842 12.4457 14.4406 12.0639 14.8099L11.4127 15.4396C11.0308 15.8088 10.4118 15.8088 10.0299 15.4396L5.41093 10.9729C5.18631 10.7557 5.09381 10.4591 5.13351 10.1765C5.15496 10.0237 5.03241 9.88255 4.87303 9.88816C4.54562 9.89975 4.21578 9.75862 4.00843 9.47515L1.14288 5.55738C1.0071 5.37168 0.946739 5.15377 0.958537 4.93996C1.17847 4.92861 1.4027 4.98635 1.59408 5.11633L5.65779 7.87547C6.0397 8.13479 6.17352 8.59475 6.03553 8.99055C6.03018 9.00593 6.05032 9.01752 6.06219 9.00605C6.44391 8.6368 7.06302 8.6368 7.44487 9.00605ZM22.9157 5.86203C22.9039 5.85055 22.9159 5.83108 22.9318 5.83625C23.341 5.96969 23.8167 5.84028 24.0849 5.47096L26.9381 1.54128C27.0725 1.35614 27.1322 1.13931 27.1205 0.92669C26.8994 0.915281 26.674 0.973651 26.482 1.10495L22.4306 3.876C22.0946 4.10589 21.952 4.49128 22.0189 4.85045C22.0361 4.94261 21.9493 5.02285 21.8567 4.99581C21.5228 4.89829 21.1456 4.97715 20.8818 5.23231L16.2628 9.69899C15.8809 10.0682 15.8809 10.6669 16.2628 11.0361L16.914 11.6658C17.2958 12.0351 17.9149 12.0351 18.2967 11.6658L22.9157 7.19917C23.2976 6.82998 23.2976 6.23128 22.9157 5.86203Z" fill="#8078BF"/>
<path d="M11.4107 14.5353C11.7925 14.9045 11.7925 15.5032 11.4107 15.8724L11.3185 15.9615C10.9367 16.3308 10.3176 16.3308 9.93577 15.9615L6.70936 12.8415C6.32751 12.4722 6.32751 11.8736 6.70936 11.5043L6.80153 11.4152C7.18338 11.0459 7.80243 11.0459 8.18428 11.4152L11.4107 14.5353ZM20.4248 6.5775L20.3326 6.48837C19.9508 6.11911 19.3317 6.11911 18.9499 6.48837L15.7234 9.60844C15.3416 9.9777 15.3416 10.5763 15.7234 10.9456L15.8156 11.0347C16.1974 11.404 16.8165 11.404 17.1983 11.0347L20.4248 7.91471C20.8066 7.54545 20.8066 6.94675 20.4248 6.5775Z" fill="#B4E7FD"/>
<path d="M26.1556 21.2309C26.0283 21.354 25.822 21.354 25.6947 21.2309L24.7729 20.3394C24.6456 20.2163 24.6456 20.0168 24.7729 19.8937C24.9002 19.7706 25.1065 19.7706 25.2338 19.8937L26.1556 20.7852C26.283 20.9083 26.283 21.1078 26.1556 21.2309ZM24.2445 20.7964C24.2445 20.6223 24.0985 20.4812 23.9185 20.4812C23.7386 20.4812 23.5926 20.6223 23.5926 20.7964V22.0571C23.5926 22.2311 23.7386 22.3722 23.9185 22.3722C24.0985 22.3722 24.2445 22.2311 24.2445 22.0571V20.7964ZM25.3804 19.0676C25.3804 19.2416 25.5264 19.3828 25.7063 19.3828H27.01C27.19 19.3828 27.3359 19.2416 27.3359 19.0676C27.3359 18.8936 27.19 18.7524 27.01 18.7524H25.7063C25.5263 18.7524 25.3804 18.8935 25.3804 19.0676ZM5.86757 18.2562C5.86757 18.0822 5.72162 17.9411 5.54165 17.9411H4.23797C4.058 17.9411 3.91205 18.0822 3.91205 18.2562C3.91205 18.4303 4.058 18.5714 4.23797 18.5714H5.54165C5.72162 18.5714 5.86757 18.4303 5.86757 18.2562ZM5.12023 15.9195C4.99293 15.7964 4.78662 15.7964 4.65932 15.9195C4.53201 16.0426 4.53201 16.2421 4.65932 16.3652L5.58115 17.2566C5.70846 17.3797 5.91476 17.3797 6.04207 17.2566C6.16937 17.1335 6.16937 16.934 6.04207 16.8109L5.12023 15.9195ZM6.04207 19.2558C5.91476 19.1327 5.70846 19.1327 5.58115 19.2558L4.65932 20.1473C4.53201 20.2704 4.53201 20.4699 4.65932 20.593C4.78662 20.7161 4.99293 20.7161 5.12023 20.593L6.04207 19.7015C6.16937 19.5785 6.16937 19.3789 6.04207 19.2558Z" fill="white"/>
</svg>
