<svg width="32" height="32" viewBox="0 0 32 32" fill="none" xmlns="http://www.w3.org/2000/svg">
<g clip-path="url(#clip0_686_4846)">
<path d="M29.5604 25.4073L24.6277 23.9994L22.6823 11.3517L25.7782 0H10.1792L7.46553 7.23522L5.33935 7.39891C3.08163 7.57306 1.14129 9.0679 0.397161 11.2067C-0.346968 13.3456 0.246143 15.7219 1.90831 17.2601L7.6621 20.0537C10.9075 21.5944 13.5888 24.1134 15.3282 27.257L16.4937 29.352C17.4018 30.9864 19.1246 32 20.9943 32H28.6365C30.3148 32.0012 31.737 30.765 31.9697 29.1031C32.2023 27.4412 31.1744 25.8621 29.5604 25.4022V25.4073Z" fill="#ECCE93"/>
<path d="M16.0368 14.9653H14.0414C12.3882 14.9653 11.0483 13.6251 11.0483 11.9722V9.97681H13.0437V11.9722C13.0437 12.5232 13.4902 12.9699 14.0414 12.9699H16.0368V14.9653Z" fill="#E5BD76"/>
<path d="M31.8311 27.6052C31.3973 29.006 30.1051 29.9637 28.6385 29.9708H20.9963C19.1266 29.9703 17.4042 28.9563 16.4967 27.3219L15.3314 25.2266C13.5915 22.0833 10.9104 19.5637 7.66503 18.0223L1.91027 15.2288C0.999775 14.3911 0.389613 13.2775 0.173317 12.0591C-0.19278 13.9765 0.464392 15.9466 1.90832 17.2602L7.6621 20.0538C10.9075 21.5944 13.5888 24.1135 15.3282 27.2571L16.4937 29.3521C17.4018 30.9865 19.1246 32 20.9943 32H28.6365C30.4909 31.9973 31.9943 30.4962 31.9999 28.6418C31.9989 28.2896 31.9419 27.9396 31.8311 27.6052Z" fill="#E5BD76"/>
<path d="M14.0414 1.99536H16.0368V3.99075H14.0414V1.99536Z" fill="white"/>
<path d="M18.0322 1.99536H20.0276V3.99075H18.0322V1.99536Z" fill="white"/>
</g>
<defs>
<clipPath id="clip0_686_4846">
<rect width="32" height="32" fill="white"/>
</clipPath>
</defs>
</svg>
