<svg width="32" height="32" viewBox="0 0 32 32" fill="none" xmlns="http://www.w3.org/2000/svg">
<g clip-path="url(#clip0_686_4818)">
<path d="M25.4619 17.8144C25.4293 18.4872 25.3535 19.1819 25.2408 19.8822C25.1455 20.4754 25.0234 21.073 24.8793 21.6643C23.6622 26.6468 20.8352 31.2045 18.6848 29.4148C17.2497 28.2203 18.0928 27.089 17.271 24.1361C16.9145 22.8557 15.093 22.8557 14.7372 24.1361C13.9141 27.0903 14.7584 28.2203 13.3234 29.4148C11.2136 31.1688 8.36784 26.6305 7.13382 21.6624C6.98662 21.0717 6.86259 20.4748 6.7655 19.8809C6.5356 18.4797 6.45543 17.0991 6.57633 15.8707C6.73167 14.294 7.21839 12.9667 8.14735 12.1642C8.40606 11.9406 8.68418 11.747 8.97797 11.5842C10.1412 10.939 11.5387 10.7786 12.8536 11.152C14.8624 11.7226 15.7501 11.8842 16.7742 11.7433C17.4125 11.6556 18.1047 11.4501 19.1533 11.152C20.7945 10.6853 22.571 11.0492 23.8608 12.1642C25.1411 13.2705 25.5778 15.4027 25.4619 17.8144ZM8.26888 2.91479L7.08867 6.08719L8.58096 6.64236C9.97173 7.15976 11.4698 7.31693 12.9375 7.0995L18.4879 6.27738C18.3541 6.0333 18.256 5.76496 18.2006 5.47709L17.7178 2.96952L12.8714 3.68734C11.6866 3.86269 10.4762 3.73599 9.35384 3.31843L8.26888 2.91479Z" fill="#E9F5FF"/>
<path d="M25.4616 17.8146C23.8633 17.6917 22.5986 17.1685 22.1679 15.6486C22.0514 15.2378 21.7412 14.9101 21.3315 14.7872L21.2976 14.7766C21.0635 14.7064 20.813 14.7029 20.5795 14.7755C18.3977 15.4508 17.4485 13.8484 16.7743 11.7433C17.4128 11.6555 18.1045 11.4501 19.1533 11.1517C20.7943 10.6852 22.5711 11.0492 23.861 12.1641C25.1409 13.2702 25.578 15.4028 25.4616 17.8146Z" fill="#EEC06B"/>
<path d="M25.4616 17.8144C23.8635 17.692 22.5983 17.1686 22.1676 15.6484C21.9595 14.9109 21.1868 14.5875 20.5798 14.7753C18.3977 15.4508 17.4487 13.8482 16.7746 11.7434C17.1853 11.6867 17.6187 11.5818 18.1557 11.4343C18.8221 13.2642 19.7859 14.5461 21.778 13.9293C22.3927 13.7374 23.1583 14.0686 23.3664 14.8024C23.6839 15.9214 24.4533 16.5003 25.4757 16.7765C25.4841 17.1151 25.4783 17.4615 25.4616 17.8144Z" fill="#D6A85F"/>
<path d="M31.1288 20.8956C29.1662 20.4756 27.2031 20.1381 25.2406 19.8819C25.1456 20.4756 25.0231 21.0731 24.8794 21.6644C23.6625 26.6469 20.835 31.2044 18.685 29.415C17.2494 28.22 18.0931 27.0887 17.2713 24.1362C16.9144 22.8556 15.0931 22.8556 14.7369 24.1362C13.9137 27.09 14.7588 28.22 13.3231 29.415C11.2137 31.1687 8.36813 26.6306 7.13375 21.6625C6.98688 21.0719 6.8625 20.475 6.76562 19.8806C4.8 20.1369 2.83625 20.475 0.871246 20.8956C0.615623 20.95 0.433746 21.1769 0.433746 21.4375V31.4456C0.433746 31.7519 0.68187 32 0.988129 32H31.0119C31.3181 32 31.5663 31.7519 31.5663 31.4456V21.4375C31.5663 21.1769 31.3844 20.95 31.1288 20.8956Z" fill="#FB7CA0"/>
<path d="M12.8567 29.6976C10.8117 30.5121 8.2788 26.2722 7.134 21.6622C6.98656 21.0717 6.8623 20.4749 6.76572 19.8812C6.53585 18.4795 6.45537 17.0991 6.57642 15.8706C6.76209 13.9839 7.35343 12.4858 8.97802 11.5844C9.88523 11.0815 10.9341 10.8729 11.9759 10.9824C10.9489 11.0894 9.99 11.502 9.22463 12.1645C5.28308 15.568 9.2981 28.4265 12.8567 29.6976ZM18.3482 24.1359C18.1093 23.2795 17.215 22.9962 16.5428 23.286C16.875 23.4296 17.1531 23.7129 17.271 24.1359C18.0926 27.0893 17.2497 28.2206 18.6849 29.4149C19.1813 29.8283 19.7144 29.903 20.2546 29.7117C20.0872 29.6467 19.9231 29.5488 19.7621 29.4149C18.3269 28.2206 19.1697 27.0893 18.3482 24.1359ZM18.2007 5.47737L18.1569 5.25073L14.7947 5.74908C12.2347 6.12858 10.2637 5.22723 10.3264 5.25052C9.56435 4.96704 9.17573 4.11925 9.45963 3.35648C9.39348 3.33363 9.38017 3.32822 8.26913 2.91479L7.08893 6.08711L8.58076 6.64211C9.97151 7.15978 11.4698 7.3169 12.9378 7.09926L18.4879 6.27769C18.354 6.03302 18.2561 5.76518 18.2007 5.47737Z" fill="#DAEBF7"/>
<path d="M6.17465 2.13633L4.99445 5.308L3.18004 4.63324L2.27477 4.2965L1.3154 3.93915L0.43396 3.61142V0L6.17465 2.13633ZM23.6111 4.43492L23.2847 2.74157L23.1153 1.86076C22.9878 1.20017 22.3491 0.768124 21.6885 0.894964L18.6701 1.47702C18.0101 1.60386 17.5781 2.24258 17.7049 2.90317L17.7178 2.9695L17.8524 3.66873L18.2007 5.47735C18.2561 5.76515 18.354 6.03299 18.4879 6.27767C18.9721 7.16362 19.9173 7.727 20.9449 7.71091C21.1045 7.70897 21.2655 7.69288 21.4271 7.66133C21.5887 7.63042 21.7445 7.58536 21.8933 7.52869C23.1179 7.05995 23.868 5.76709 23.6111 4.43492Z" fill="#6B90DB"/>
<path d="M22.1444 11.3836C22.1135 11.3894 22.0826 11.392 22.0523 11.392C21.8257 11.392 21.6235 11.2317 21.5791 11.0005L20.9449 7.71103C21.1046 7.70909 21.2655 7.693 21.4271 7.66145C21.5887 7.63054 21.7446 7.58548 21.8933 7.52881L22.5275 10.8177C22.5777 11.0797 22.4065 11.3328 22.1444 11.3836Z" fill="#E9F5FF"/>
<path d="M23.1153 1.8607C22.9879 1.20011 22.3491 0.768062 21.6885 0.894901L18.6701 1.47696C18.0102 1.6038 17.5781 2.24252 17.705 2.90311L17.7178 2.96944L17.8524 3.66867L23.2847 2.74151L23.1153 1.8607Z" fill="#D74242"/>
<path d="M25.1659 10.994C25.0205 10.994 24.8766 10.9286 24.7816 10.8039C24.6199 10.5919 24.6607 10.2888 24.8728 10.1271L26.2531 9.0745C26.4651 8.91297 26.7682 8.95359 26.9299 9.16567C27.0916 9.37776 27.0508 9.68076 26.8387 9.84248L25.4584 10.8951C25.371 10.9618 25.268 10.994 25.1659 10.994ZM18.9685 10.1278C19.1746 9.95849 19.2044 9.65416 19.0351 9.44812L17.9332 8.10682C17.7639 7.90071 17.4597 7.8709 17.2536 8.04023C17.0475 8.2095 17.0177 8.51382 17.187 8.71987L18.2888 10.0612C18.3843 10.1774 18.5227 10.2375 18.6622 10.2375C18.7701 10.2375 18.8786 10.2016 18.9685 10.1278Z" fill="#EEC06B"/>
<path d="M19.7113 4.76125C19.5556 4.47687 19.4962 4.3425 19.3131 3.41937L17.8525 3.66875L17.83 3.55374C18.24 5.70874 18.2438 5.83188 18.4881 6.2775C18.9719 7.16376 19.9175 7.72687 20.945 7.71063C21.2725 7.70688 21.595 7.6425 21.8931 7.52875C22.6787 7.22812 23.2694 6.58812 23.5231 5.81688C22.2088 6.59625 20.4637 6.13812 19.7113 4.76125ZM2.2175 2.71063C1.6875 2.51375 1.33625 2.00812 1.33625 1.4425V0.335632L0.433746 0V3.61125L1.31563 3.93938C2.49313 4.3775 1.97063 4.18312 4.99437 5.30812L5.50563 3.93375C3.17875 3.06876 3.42751 3.16125 2.2175 2.71063Z" fill="#4976BF"/>
<path d="M19.3131 3.41928L17.8525 3.66866L17.83 3.55365L17.81 3.44928C17.7813 3.29929 17.7506 3.13928 17.7181 2.96928L17.705 2.90303C17.5781 2.2424 18.01 1.60365 18.67 1.47678L18.9363 1.42554C19.1069 2.34428 19.2244 2.97366 19.3131 3.41928Z" fill="#FF6B6B"/>
<path d="M31.5663 28.2087V31.4456C31.5663 31.7519 31.3181 32 31.0119 32H0.988129C0.68187 32 0.433746 31.7519 0.433746 31.4456V28.2087H8.42875C12.752 31.8585 19.3076 32.0434 23.5013 28.2087H31.5663Z" fill="#FF6F98"/>
<path d="M29.8791 27.4938H23.4547C24.3777 26.3198 25.0103 23.8089 25.6252 21.2166L29.7267 22.0872C30.1381 22.1594 30.4382 22.5168 30.4382 22.9345V26.9347C30.4382 27.2435 30.1879 27.4938 29.8791 27.4938Z" fill="#FF4B7E"/>
<path d="M2.12092 27.4938H8.54527C7.62235 26.3198 6.98973 23.8089 6.37482 21.2166L2.27334 22.0872C1.86189 22.1594 1.56178 22.5168 1.56178 22.9345V26.9347C1.56178 27.2435 1.81212 27.4938 2.12092 27.4938Z" fill="#FF4B7E"/>
<path d="M3.62882 3.42666L3.18005 4.63325L2.27478 4.29652L2.72355 3.08992C2.81691 2.84009 3.09506 2.71327 3.34487 2.80598C3.5947 2.89869 3.72218 3.17683 3.62882 3.42666Z" fill="#D74242"/>
<path d="M22.3275 2.90491L20.4475 3.22617L20.3087 2.53366C20.2475 2.22991 20.445 1.93366 20.7488 1.87303L21.5175 1.71866C21.8213 1.65741 22.1175 1.85491 22.1781 2.15866L22.3275 2.90491Z" fill="#F982DA"/>
<path d="M22.1256 4.75191L21.3569 4.90628C21.0531 4.96753 20.7569 4.77003 20.6963 4.46628L20.4475 3.22629L22.3275 2.90503L22.5656 4.09128C22.6269 4.39503 22.4294 4.69128 22.1256 4.75191Z" fill="#90B7F4"/>
<path d="M6.3077 3.53368C6.27147 3.53368 6.23467 3.52739 6.19875 3.51403L2.29888 2.06267C2.1371 2.00249 2.0548 1.82256 2.11498 1.66082C2.17519 1.49914 2.35527 1.41686 2.51683 1.47692L6.41671 2.92827C6.57848 2.98845 6.66079 3.16839 6.60061 3.33013C6.55379 3.45592 6.4345 3.53368 6.3077 3.53368Z" fill="#90B7F4"/>
<path d="M8.26887 2.91466L7.08872 6.0874C6.86947 6.65869 6.23054 6.94746 5.65612 6.73386C5.08233 6.52025 4.7873 5.88382 4.99464 5.30816L6.17479 2.13602C6.28441 1.85227 6.49676 1.6374 6.75296 1.52026C7.01292 1.40187 7.31798 1.38183 7.60738 1.48894C8.18179 1.70255 8.47684 2.33898 8.26887 2.91466Z" fill="#D74242"/>
<path d="M6.05683 4.76199C5.8495 5.3376 6.14503 5.97439 6.71871 6.18751C6.81466 6.22291 6.91187 6.2448 7.0091 6.25381C6.73931 6.71225 6.17207 6.92537 5.65634 6.73413C5.08265 6.52038 4.78712 5.88359 4.99445 5.30798L6.17465 2.13631C6.28475 1.85237 6.49658 1.63732 6.75284 1.52013C6.92733 1.44093 7.12177 1.40553 7.31751 1.42355C7.2866 1.47571 7.25956 1.53108 7.23703 1.58967L6.05683 4.76199Z" fill="#FF6B6B"/>
<path d="M22.8522 19.4568C23.2448 18.7767 22.29 17.4904 20.7195 16.5836C19.1491 15.6769 17.5577 15.4931 17.165 16.1732C16.7724 16.8532 17.7272 18.1396 19.2977 19.0463C20.8681 19.9531 22.4595 20.1368 22.8522 19.4568Z" fill="#FAFCFF"/>
<path d="M12.3119 5.28132C12.0792 5.28132 11.8773 5.10811 11.8475 4.87117C11.8151 4.61427 11.997 4.37984 12.2539 4.34743L16.7156 3.78493C16.9728 3.75282 17.2069 3.93458 17.2393 4.19136C17.2717 4.44826 17.0898 4.68269 16.8329 4.7151L12.3711 5.2776C12.3512 5.2801 12.3315 5.28132 12.3119 5.28132Z" fill="#FAFCFF"/>
</g>
<defs>
<clipPath id="clip0_686_4818">
<rect width="32" height="32" fill="white"/>
</clipPath>
</defs>
</svg>
