<svg width="19" height="25" viewBox="0 0 19 25" fill="none" xmlns="http://www.w3.org/2000/svg">
<path d="M0.0788011 11.9396L1.5047 8.63897C1.67711 8.2399 1.77424 7.81543 1.80774 7.38415C2.1289 3.25439 5.69571 0.000244141 10.0484 0.000244141C14.6126 0.000244141 18.3127 3.57826 18.3127 7.99193C18.3127 8.03347 18.3117 8.07475 18.311 8.11617C18.3108 8.21047 18.308 8.30527 18.302 8.4007C18.302 8.40209 18.3019 8.40348 18.3018 8.40486C18.3005 8.42516 18.3004 8.44527 18.2989 8.46557L18.2942 8.52135C18.2886 8.60424 18.2819 8.68682 18.2738 8.76895L16.6157 18.4543V24.2668H8.28802V19.9807C8.28802 19.3517 7.76074 18.8418 7.11033 18.8418H5.01043C3.51426 18.8418 2.30145 17.669 2.30145 16.2222V13.2878H1.00735C0.288824 13.2878 -0.198101 12.5806 0.0788011 11.9396Z" fill="white"/>
<path d="M18.3129 7.99187C18.3129 8.03366 18.3116 8.07476 18.3109 8.11586C18.3109 8.21028 18.3082 8.30534 18.3022 8.40046C18.3022 8.40172 18.3022 8.40304 18.3015 8.40493C18.3002 8.42485 18.3002 8.44477 18.2989 8.46532L18.2942 8.52123C18.2889 8.60406 18.2816 8.68695 18.2736 8.76852L16.6156 18.4543V24.2666H10.0332V0H10.0485C14.6128 0 18.3129 3.57808 18.3129 7.99187Z" fill="#69FFF7"/>
<path d="M15.4432 3.27295H7.75916V8.62633H13.0296V9.73926L14.6356 8.62633H15.4432V3.27295Z" fill="#FFAC00"/>
<path d="M15.4432 3.27295V8.62646H14.6358L13.0295 9.73933V8.62646H11.6013V3.27295H15.4432Z" fill="#FF7600"/>
<path d="M12.0285 4.71777H4.20331V10.3708H5.08264L6.71811 11.546V10.3708H12.0285V4.71777Z" fill="#FF52A5"/>
<path d="M12.0283 4.71802H8.116V10.3703H12.0283V4.71802Z" fill="#FF0A82"/>
<path d="M6.11874 8.01273C6.38165 8.01273 6.59478 7.80679 6.59478 7.55275C6.59478 7.29871 6.38165 7.09277 6.11874 7.09277C5.85583 7.09277 5.6427 7.29871 5.6427 7.55275C5.6427 7.80679 5.85583 8.01273 6.11874 8.01273Z" fill="white"/>
<path d="M8.11598 8.01273C8.37889 8.01273 8.59202 7.80679 8.59202 7.55275C8.59202 7.29871 8.37889 7.09277 8.11598 7.09277C7.85307 7.09277 7.63994 7.29871 7.63994 7.55275C7.63994 7.80679 7.85307 8.01273 8.11598 8.01273Z" fill="white"/>
<path d="M8.59205 7.55249C8.59205 7.80702 8.37857 8.01266 8.11581 8.01266V7.09302C8.37857 7.09302 8.59205 7.2986 8.59205 7.55249Z" fill="#CAC7CD"/>
<path d="M10.1126 8.01273C10.3755 8.01273 10.5886 7.80679 10.5886 7.55275C10.5886 7.29871 10.3755 7.09277 10.1126 7.09277C9.84968 7.09277 9.63655 7.29871 9.63655 7.55275C9.63655 7.80679 9.84968 8.01273 10.1126 8.01273Z" fill="#CAC7CD"/>
</svg>
