<svg width="32" height="32" viewBox="0 0 32 32" fill="none" xmlns="http://www.w3.org/2000/svg">
<path d="M28.5 4C28.3674 4 28.2402 3.94732 28.1464 3.85355C28.0527 3.75978 28 3.63261 28 3.5V1.5C28 1.36739 28.0527 1.24021 28.1464 1.14645C28.2402 1.05268 28.3674 1 28.5 1C28.6326 1 28.7598 1.05268 28.8536 1.14645C28.9473 1.24021 29 1.36739 29 1.5V3.5C29 3.63261 28.9473 3.75978 28.8536 3.85355C28.7598 3.94732 28.6326 4 28.5 4Z" fill="#A6BCE3"/>
<path d="M30.5 27.0687C30.5 27.9788 30.1385 28.8515 29.495 29.495C28.8515 30.1385 27.9788 30.5 27.0688 30.5H21.5C20.7977 30.5003 20.1076 30.3157 19.4993 29.9646C18.8911 29.6135 18.386 29.1083 18.035 28.5C17.8534 28.187 17.7157 27.8505 17.6256 27.5C17.542 27.1732 17.4998 26.8373 17.5 26.5V20.1806C17.4999 19.4043 17.6807 18.6386 18.0281 17.9444L19 16V12.0575C18.9999 11.4277 19.1943 10.8132 19.5567 10.2981C19.9191 9.78297 20.4317 9.39235 21.0245 9.17964C21.6173 8.96692 22.2613 8.94249 22.8686 9.10969C23.4758 9.27689 24.0165 9.62756 24.4169 10.1137C26.3684 12.4835 27.8963 15.1724 28.9331 18.0619C29.2263 18.8794 29.4792 19.7102 29.6919 20.5544C29.8069 21.0081 29.9094 21.4652 29.9994 21.9256C30.3325 23.6197 30.5001 25.3422 30.5 27.0687Z" fill="#FF4646"/>
<path d="M14.5 20.1806V26.5C14.5002 27.0253 14.3968 27.5455 14.1958 28.0309C13.9949 28.5163 13.7002 28.9573 13.3288 29.3288C12.9573 29.7002 12.5163 29.9949 12.0309 30.1958C11.5455 30.3968 11.0253 30.5002 10.5 30.5H4.93125C4.02123 30.5 3.14849 30.1385 2.50501 29.495C1.86153 28.8515 1.50002 27.9788 1.5 27.0688C1.50006 25.5905 1.62299 24.1148 1.8675 22.6569C1.94188 22.2125 2.0275 21.7708 2.12438 21.3319C2.36851 20.2229 2.68332 19.1307 3.06688 18.0619C3.09187 17.9919 3.1175 17.9219 3.14375 17.8519C3.2725 17.5006 3.40896 17.1525 3.55312 16.8075C4.56078 14.3906 5.91866 12.1352 7.58313 10.1138C7.98348 9.62756 8.52423 9.2769 9.13144 9.10969C9.73866 8.94249 10.3827 8.96692 10.9755 9.17964C11.5683 9.39235 12.0809 9.78297 12.4433 10.2981C12.8057 10.8132 13.0001 11.4277 13 12.0575V16L13.9719 17.9444C14.3193 18.6386 14.5001 19.4043 14.5 20.1806Z" fill="#FF4646"/>
<path d="M26.5 14.5H30.5V16H26.5V14.5Z" fill="#CAD8ED"/>
<path d="M26.5 11H30.5V12.5H26.5V11Z" fill="#CAD8ED"/>
<path d="M28 12.5H29V14.5H28V12.5Z" fill="#A6BCE3"/>
<path d="M30 5.5L29 3.5H28L27 5.5V11H30V5.5Z" fill="#E4E9F2"/>
<path d="M17 7V14L18.5607 15.5607C18.6999 15.6999 18.8653 15.8104 19.0473 15.8858C19.2293 15.9612 19.4243 16 19.6213 16H20.5L21.7071 14.7929C21.8946 14.6054 22 14.351 22 14.0858V12.5H24V14.2574C24 14.6513 23.9224 15.0414 23.7716 15.4054C23.6209 15.7694 23.3999 16.1001 23.1213 16.3787L22 17.5L23.5 19L22 20.5L19.5 18H19.2426C18.447 18 17.6839 17.6839 17.1213 17.1213L16 16V16.0001L14.8787 17.1214C14.3161 17.684 13.553 18.0001 12.7574 18.0001H12.5L10 20.5001L8.5 19.0001L10 17.5001L8.87868 16.3788C8.31607 15.8161 8 15.0531 8 14.2574V12.5001H10V14.0859C10 14.2172 10.0259 14.3472 10.0761 14.4685C10.1264 14.5899 10.2 14.7001 10.2929 14.793L11.5 16.0001H12.3787C12.5757 16.0001 12.7707 15.9613 12.9527 15.8859C13.1347 15.8105 13.3001 15.7 13.4393 15.5607L15 14.0001V7.00007L17 7Z" fill="#FFD090"/>
<path d="M14.0506 28.3437C13.8938 28.6455 13.6991 28.9261 13.4712 29.1786L12.5687 28.2755C12.007 27.7108 11.3388 27.263 10.6029 26.9582C9.86691 26.6534 9.07781 26.4977 8.28124 26.4999C7.18529 26.4973 6.10485 26.2408 5.1246 25.7507C4.14435 25.2606 3.29094 24.5501 2.63124 23.6749L1.86749 22.6568C1.94187 22.2124 2.0275 21.7707 2.12437 21.3318L3.43124 23.0749C3.99754 23.8261 4.73012 24.436 5.57157 24.8568C6.41302 25.2775 7.34048 25.4976 8.28124 25.4999C9.20918 25.4972 10.1284 25.6787 10.9857 26.0338C11.843 26.3889 12.6213 26.9106 13.2756 27.5687L14.0506 28.3437Z" fill="#F20707"/>
<path d="M14.5 21.4999V22.4999H9.71436C8.9474 22.4996 8.18918 22.337 7.48954 22.0228C6.7899 21.7086 6.16469 21.2498 5.65498 20.6768L3.14374 17.8517C3.27248 17.5005 3.40894 17.1524 3.55311 16.8074L6.40248 20.0124C6.81828 20.48 7.32835 20.8543 7.89917 21.1107C8.46999 21.3671 9.08861 21.4997 9.71436 21.4999H14.5Z" fill="#F20707"/>
<path d="M29.9994 21.9254L28.135 24.8261C27.4127 25.9549 26.4175 26.8834 25.2412 27.5255C24.0649 28.1677 22.7457 28.5028 21.4056 28.4998H18.035C17.8534 28.1868 17.7157 27.8503 17.6256 27.4998H21.4056C22.5782 27.5023 23.7326 27.209 24.7618 26.6471C25.791 26.0851 26.6618 25.2726 27.2937 24.2848L29.6919 20.5542C29.8069 21.0079 29.9093 21.465 29.9994 21.9254Z" fill="#F20707"/>
<path d="M18 4V7L16 8.5L14 7V4H18Z" fill="#FFCC79"/>
<path d="M16 6L19 4V2.91421C19 2.53914 18.851 2.17943 18.5858 1.91421C18.3206 1.649 17.9609 1.5 17.5858 1.5C17.4001 1.5 17.2162 1.53658 17.0446 1.60765C16.873 1.67872 16.7171 1.78289 16.5858 1.91421L16 2.5L15.4142 1.91421C15.2829 1.78289 15.127 1.67872 14.9554 1.60765C14.7838 1.53658 14.5999 1.5 14.4142 1.5C14.2285 1.5 14.0446 1.53658 13.873 1.60765C13.7014 1.67872 13.5455 1.78289 13.4142 1.91421C13.2829 2.04553 13.1787 2.20144 13.1077 2.37302C13.0366 2.5446 13 2.72849 13 2.91421V4L16 6Z" fill="#FAEDD9"/>
<path d="M21.5 8.5H24.5V10H21.5V8.5Z" fill="#CAD8ED"/>
<path d="M24 10V11C24.3005 11.1502 24.5532 11.3812 24.7298 11.667C24.9064 11.9528 25 12.2821 25 12.618V15C25 15.2652 24.8946 15.5196 24.7071 15.7071C24.5196 15.8946 24.2652 16 24 16H22C21.7348 16 21.4804 15.8946 21.2929 15.7071C21.1054 15.5196 21 15.2652 21 15V12.618C21 12.2821 21.0936 11.9528 21.2702 11.667C21.4468 11.3812 21.6995 11.1502 22 11V10H24Z" fill="#4E96ED"/>
<path d="M21 12.5H25V14.5H21V12.5Z" fill="#96CFFA"/>
<path d="M27 5.5L28 3.5H29L30 5.5V8H27V5.5Z" fill="#51A37E"/>
<path d="M27 7.5L27.6464 6.85355C27.7585 6.74146 27.8916 6.65255 28.0381 6.59189C28.1845 6.53122 28.3415 6.5 28.5 6.5C28.8201 6.5 29.1272 6.62718 29.3536 6.85355L30 7.5V9H27V7.5Z" fill="#A6BCE3"/>
<path d="M27 5.5L28 3.5H29L30 5.5H27Z" fill="#5EBD92"/>
</svg>
