<svg width="32" height="32" viewBox="0 0 32 32" fill="none" xmlns="http://www.w3.org/2000/svg">
<g clip-path="url(#clip0_686_4758)">
<path d="M16 30.5455C24.0332 30.5455 30.5455 24.0333 30.5455 16C30.5455 7.96681 24.0332 1.45459 16 1.45459C7.96678 1.45459 1.45456 7.96681 1.45456 16C1.45456 24.0333 7.96678 30.5455 16 30.5455Z" fill="#E7EFFF"/>
<path d="M15.4182 16.291H16.5818V26.4728H15.4182V16.291Z" fill="#FF4D69"/>
<path d="M1.16365 4.65463C1.64565 4.65463 2.03638 4.2639 2.03638 3.78191C2.03638 3.29991 1.64565 2.90918 1.16365 2.90918C0.681657 2.90918 0.290924 3.29991 0.290924 3.78191C0.290924 4.2639 0.681657 4.65463 1.16365 4.65463Z" fill="#FF4D69"/>
<path d="M29.3818 2.03647C29.8638 2.03647 30.2545 1.64574 30.2545 1.16374C30.2545 0.681749 29.8638 0.291016 29.3818 0.291016C28.8998 0.291016 28.5091 0.681749 28.5091 1.16374C28.5091 1.64574 28.8998 2.03647 29.3818 2.03647Z" fill="#00C99F"/>
<path d="M30.8364 29.0909C31.3184 29.0909 31.7091 28.7002 31.7091 28.2182C31.7091 27.7362 31.3184 27.3455 30.8364 27.3455C30.3544 27.3455 29.9637 27.7362 29.9637 28.2182C29.9637 28.7002 30.3544 29.0909 30.8364 29.0909Z" fill="#FFA100"/>
<path d="M3.20003 31.7091C3.68202 31.7091 4.07276 31.3183 4.07276 30.8364C4.07276 30.3544 3.68202 29.9636 3.20003 29.9636C2.71803 29.9636 2.3273 30.3544 2.3273 30.8364C2.3273 31.3183 2.71803 31.7091 3.20003 31.7091Z" fill="#00C99F"/>
<path d="M28.4247 8.43647H3.57529C4.376 7.12245 5.38054 5.94411 6.55129 4.94556H25.4604C26.627 5.94501 27.6276 7.12331 28.4247 8.43647Z" fill="#A5BCED"/>
<path d="M8.7273 9.30909V4.94545C8.7273 4.8683 8.69665 4.7943 8.64209 4.73975C8.58753 4.68519 8.51354 4.65454 8.43639 4.65454H7.85457C7.77741 4.65454 7.70342 4.68519 7.64886 4.73975C7.59431 4.7943 7.56366 4.8683 7.56366 4.94545V9.6C7.56366 9.90861 7.68626 10.2046 7.90448 10.4228C8.12271 10.641 8.41868 10.7636 8.7273 10.7636H12.2182V9.6H9.01821C8.94105 9.6 8.86706 9.56935 8.8125 9.51479C8.75795 9.46023 8.7273 9.38624 8.7273 9.30909Z" fill="#8FA2FF"/>
<path d="M23.2727 9.30909V4.94545C23.2727 4.8683 23.3034 4.7943 23.3579 4.73975C23.4125 4.68519 23.4865 4.65454 23.5636 4.65454H24.1455C24.2226 4.65454 24.2966 4.68519 24.3512 4.73975C24.4057 4.7943 24.4364 4.8683 24.4364 4.94545V9.6C24.4364 9.90861 24.3138 10.2046 24.0956 10.4228C23.8773 10.641 23.5814 10.7636 23.2727 10.7636H19.7818V9.6H22.9818C23.059 9.6 23.133 9.56935 23.1875 9.51479C23.2421 9.46023 23.2727 9.38624 23.2727 9.30909Z" fill="#8FA2FF"/>
<path d="M20.9455 4.36377H11.0546C10.7332 4.36377 10.4727 4.62426 10.4727 4.94559V10.182C10.4727 10.5033 10.7332 10.7638 11.0546 10.7638H20.9455C21.2668 10.7638 21.5273 10.5033 21.5273 10.182V4.94559C21.5273 4.62426 21.2668 4.36377 20.9455 4.36377Z" fill="#323FD4"/>
<path d="M26.0887 26.4729C23.3785 29.0825 19.7624 30.5404 16 30.5404C12.2376 30.5404 8.62157 29.0825 5.91129 26.4729H26.0887Z" fill="#A5BCED"/>
<path d="M20.3637 10.7637V12.8989C20.3638 13.0518 20.3338 13.2032 20.2754 13.3444C20.217 13.4857 20.1313 13.6141 20.0233 13.7222L17.7949 15.9506C17.6868 16.0586 17.5584 16.1443 17.4172 16.2027C17.2759 16.2611 17.1245 16.2911 16.9717 16.2909H15.0284C14.8755 16.2911 14.7241 16.2611 14.5829 16.2027C14.4416 16.1443 14.3133 16.0586 14.2051 15.9506L11.9767 13.7222C11.8687 13.6141 11.7831 13.4857 11.7247 13.3444C11.6663 13.2032 11.6363 13.0518 11.6364 12.8989V10.7637H20.3637Z" fill="#4E6AFF"/>
<path d="M16 17.4547C15.7686 17.4547 15.5466 17.3627 15.3829 17.199C15.2192 17.0354 15.1273 16.8134 15.1273 16.5819V16.291H16.8727V16.5819C16.8727 16.8134 16.7808 17.0354 16.6171 17.199C16.4535 17.3627 16.2315 17.4547 16 17.4547Z" fill="#323FD4"/>
<path d="M16 28.2182C16.964 28.2182 17.7455 27.4367 17.7455 26.4727C17.7455 25.5088 16.964 24.7273 16 24.7273C15.036 24.7273 14.2545 25.5088 14.2545 26.4727C14.2545 27.4367 15.036 28.2182 16 28.2182Z" fill="#FF4D69"/>
<path d="M12.5091 25.6002H10.7636C10.6093 25.6002 10.4613 25.5389 10.3522 25.4297C10.2431 25.3206 10.1818 25.1726 10.1818 25.0183C10.1818 24.864 10.2431 24.716 10.3522 24.6069C10.4613 24.4978 10.6093 24.4365 10.7636 24.4365H12.5091C12.6634 24.4365 12.8114 24.4978 12.9205 24.6069C13.0296 24.716 13.0909 24.864 13.0909 25.0183C13.0909 25.1726 13.0296 25.3206 12.9205 25.4297C12.8114 25.5389 12.6634 25.6002 12.5091 25.6002Z" fill="#FF4D69"/>
<path d="M13.3818 23.2728C13.2278 23.2722 13.0802 23.2105 12.9716 23.1012L11.808 21.9376C11.7127 21.8263 11.6629 21.6831 11.6685 21.5367C11.6742 21.3902 11.7349 21.2513 11.8385 21.1477C11.9421 21.0441 12.081 20.9834 12.2275 20.9777C12.3739 20.9721 12.5171 21.0219 12.6284 21.1172L13.792 22.2808C13.8729 22.3622 13.9279 22.4656 13.9501 22.5782C13.9724 22.6907 13.9609 22.8073 13.917 22.9133C13.8732 23.0194 13.799 23.11 13.7038 23.174C13.6085 23.238 13.4965 23.2724 13.3818 23.2728Z" fill="#FF4D69"/>
<path d="M21.2364 25.6002H19.4909C19.3366 25.6002 19.1886 25.5389 19.0795 25.4297C18.9704 25.3206 18.9091 25.1726 18.9091 25.0183C18.9091 24.864 18.9704 24.716 19.0795 24.6069C19.1886 24.4978 19.3366 24.4365 19.4909 24.4365H21.2364C21.3907 24.4365 21.5387 24.4978 21.6478 24.6069C21.7569 24.716 21.8182 24.864 21.8182 25.0183C21.8182 25.1726 21.7569 25.3206 21.6478 25.4297C21.5387 25.5389 21.3907 25.6002 21.2364 25.6002Z" fill="#FF4D69"/>
<path d="M18.6182 23.2728C18.5035 23.2724 18.3915 23.238 18.2962 23.174C18.201 23.11 18.1268 23.0194 18.083 22.9133C18.0391 22.8073 18.0276 22.6907 18.0499 22.5782C18.0721 22.4656 18.1271 22.3622 18.208 22.2808L19.3716 21.1172C19.4829 21.0219 19.6261 20.9721 19.7726 20.9777C19.919 20.9834 20.0579 21.0441 20.1615 21.1477C20.2651 21.2513 20.3258 21.3902 20.3315 21.5367C20.3371 21.6831 20.2873 21.8263 20.192 21.9376L19.0284 23.1012C18.9198 23.2105 18.7723 23.2722 18.6182 23.2728Z" fill="#FF4D69"/>
<path d="M18.6182 7.27277H13.3818C13.2275 7.27277 13.0795 7.21147 12.9704 7.10236C12.8613 6.99324 12.8 6.84526 12.8 6.69095C12.8 6.53664 12.8613 6.38865 12.9704 6.27954C13.0795 6.17043 13.2275 6.10913 13.3818 6.10913H18.6182C18.7725 6.10913 18.9205 6.17043 19.0296 6.27954C19.1387 6.38865 19.2 6.53664 19.2 6.69095C19.2 6.84526 19.1387 6.99324 19.0296 7.10236C18.9205 7.21147 18.7725 7.27277 18.6182 7.27277Z" fill="white"/>
<path d="M13.0909 9.01834C13.2516 9.01834 13.3818 8.8881 13.3818 8.72743C13.3818 8.56677 13.2516 8.43652 13.0909 8.43652C12.9303 8.43652 12.8 8.56677 12.8 8.72743C12.8 8.8881 12.9303 9.01834 13.0909 9.01834Z" fill="white"/>
<path d="M14.2546 9.01834C14.4152 9.01834 14.5455 8.8881 14.5455 8.72743C14.5455 8.56677 14.4152 8.43652 14.2546 8.43652C14.0939 8.43652 13.9637 8.56677 13.9637 8.72743C13.9637 8.8881 14.0939 9.01834 14.2546 9.01834Z" fill="white"/>
</g>
<defs>
<clipPath id="clip0_686_4758">
<rect width="32" height="32" fill="white"/>
</clipPath>
</defs>
</svg>
