<svg width="32" height="32" viewBox="0 0 32 32" fill="none" xmlns="http://www.w3.org/2000/svg">
<g clip-path="url(#clip0_686_4690)">
<path fill-rule="evenodd" clip-rule="evenodd" d="M5.08061 5H26.5957C26.9719 5 27.3299 5.14951 27.5958 5.41532C27.8616 5.68114 28.0111 6.0392 28.0111 6.41539V17.3878C28.0111 17.764 27.8616 18.122 27.5958 18.3878C27.3299 18.6536 26.9719 18.8031 26.5957 18.8031H5.08061C4.70442 18.8031 4.34639 18.6537 4.08058 18.3878C3.81476 18.122 3.66525 17.764 3.66525 17.3878V6.41539C3.66525 6.0392 3.81476 5.68114 4.08058 5.41532C4.34639 5.14951 4.70442 5 5.08061 5Z" fill="#64B5F6"/>
<path d="M5.08063 5.26538H26.5958C26.9123 5.26538 27.1999 5.39468 27.4082 5.60297C27.6165 5.81128 27.7458 6.09885 27.7458 6.4154V17.3878C27.7458 17.7043 27.6165 17.9919 27.4082 18.2002C27.1999 18.4085 26.9123 18.5378 26.5958 18.5378H5.08063C4.76409 18.5378 4.47652 18.4085 4.26823 18.2002C4.05992 17.9919 3.93062 17.7043 3.93062 17.3878V6.4154C3.93062 6.09885 4.05992 5.81128 4.26823 5.60297C4.47652 5.39468 4.76409 5.26538 5.08063 5.26538Z" fill="#FFFFFE"/>
<path fill-rule="evenodd" clip-rule="evenodd" d="M4.53497 5.84277H27.1414V17.9601H4.53497V5.84277Z" fill="#37474F"/>
<path d="M4.53497 5.83862H27.1414L27.1459 17.9605L4.53497 17.965V5.83862ZM27.1369 5.84763H4.53943V17.9561H27.1369V5.84763Z" fill="#8D6E63"/>
<path d="M4.46289 18.0293V17.9602V16.4455V14.9308V13.4162V11.9015V10.3869V8.87218V7.3575V5.84282V5.77368H4.60706V5.84282V7.3575V8.87218V10.3869V11.9015V13.4162V14.9308V16.4455V17.9602V18.0293H4.46289Z" fill="#8D6E63"/>
<path d="M7.28876 18.0293V17.9602V16.4455V14.9308V13.4162V11.9015V10.3869V8.87218V7.3575V5.84282V5.77368H7.43285V5.84282V7.3575V8.87218V10.3869V11.9015V13.4162V14.9308V16.4455V17.9602V18.0293H7.28876Z" fill="#8D6E63"/>
<path d="M10.1145 18.0293V17.9602V16.4455V14.9308V13.4162V11.9015V10.3869V8.87218V7.3575V5.84282V5.77368H10.2586V5.84282V7.3575V8.87218V10.3869V11.9015V13.4162V14.9308V16.4455V17.9602V18.0293H10.1145Z" fill="#8D6E63"/>
<path d="M12.9403 18.0293V17.9602V16.4455V14.9308V13.4162V11.9015V10.3869V8.87218V7.3575V5.84282V5.77368H13.0844V5.84282V7.3575V8.87218V10.3869V11.9015V13.4162V14.9308V16.4455V17.9602V18.0293H12.9403Z" fill="#8D6E63"/>
<path d="M15.7661 18.0293V17.9602V16.4455V14.9308V13.4162V11.9015V10.3869V8.87218V7.3575V5.84282V5.77368H15.9103V5.84282V7.3575V8.87218V10.3869V11.9015V13.4162V14.9308V16.4455V17.9602V18.0293H15.7661Z" fill="#8D6E63"/>
<path d="M18.5919 18.0293V17.9602V16.4455V14.9308V13.4162V11.9015V10.3869V8.87218V7.3575V5.84282V5.77368H18.7361V5.84282V7.3575V8.87218V10.3869V11.9015V13.4162V14.9308V16.4455V17.9602V18.0293H18.5919Z" fill="#8D6E63"/>
<path d="M21.4178 18.0293V17.9602V16.4455V14.9308V13.4162V11.9015V10.3869V8.87218V7.3575V5.84282V5.77368H21.5618V5.84282V7.3575V8.87218V10.3869V11.9015V13.4162V14.9308V16.4455V17.9602V18.0293H21.4178Z" fill="#8D6E63"/>
<path d="M24.2435 18.0293V17.9602V16.4455V14.9308V13.4162V11.9015V10.3869V8.87218V7.3575V5.84282V5.77368H24.3877V5.84282V7.3575V8.87218V10.3869V11.9015V13.4162V14.9308V16.4455V17.9602V18.0293H24.2435Z" fill="#8D6E63"/>
<path d="M27.0693 18.0293V17.9602V16.4455V14.9308V13.4162V11.9015V10.3869V8.87218V7.3575V5.84282V5.77368H27.2135V5.84282V7.3575V8.87218V10.3869V11.9015V13.4162V14.9308V16.4455V17.9602V18.0293H27.0693Z" fill="#8D6E63"/>
<path d="M4.46591 17.8884H4.53498H7.36076H10.1866H13.0124H15.8382H18.664H21.4898H24.3156H27.1414H27.2105V18.0325H27.1414H24.3156H21.4898H18.664H15.8382H13.0124H10.1866H7.36076H4.53498H4.46591V17.8884Z" fill="#8D6E63"/>
<path d="M4.46591 16.3735H4.53498H7.36076H10.1866H13.0124H15.8382H18.664H21.4898H24.3156H27.1414H27.2105V16.5176H27.1414H24.3156H21.4898H18.664H15.8382H13.0124H10.1866H7.36076H4.53498H4.46591V16.3735Z" fill="#8D6E63"/>
<path d="M4.46591 14.8589H4.53498H7.36076H10.1866H13.0124H15.8382H18.664H21.4898H24.3156H27.1414H27.2105V15.003H27.1414H24.3156H21.4898H18.664H15.8382H13.0124H10.1866H7.36076H4.53498H4.46591V14.8589Z" fill="#8D6E63"/>
<path d="M4.46591 13.3442H4.53498H7.36076H10.1866H13.0124H15.8382H18.664H21.4898H24.3156H27.1414H27.2105V13.4883H27.1414H24.3156H21.4898H18.664H15.8382H13.0124H10.1866H7.36076H4.53498H4.46591V13.3442Z" fill="#8D6E63"/>
<path d="M4.46591 11.8293H4.53498H7.36076H10.1866H13.0124H15.8382H18.664H21.4898H24.3156H27.1414H27.2105V11.9734H27.1414H24.3156H21.4898H18.664H15.8382H13.0124H10.1866H7.36076H4.53498H4.46591V11.8293Z" fill="#8D6E63"/>
<path d="M4.46591 10.3152H4.53498H7.36076H10.1866H13.0124H15.8382H18.664H21.4898H24.3156H27.1414H27.2105V10.4593H27.1414H24.3156H21.4898H18.664H15.8382H13.0124H10.1866H7.36076H4.53498H4.46591V10.3152Z" fill="#8D6E63"/>
<path d="M4.46591 8.80029H4.53498H7.36076H10.1866H13.0124H15.8382H18.664H21.4898H24.3156H27.1414H27.2105V8.94439H27.1414H24.3156H21.4898H18.664H15.8382H13.0124H10.1866H7.36076H4.53498H4.46591V8.80029Z" fill="#8D6E63"/>
<path d="M4.46591 7.28564H4.53498H7.36076H10.1866H13.0124H15.8382H18.664H21.4898H24.3156H27.1414H27.2105V7.42981H27.1414H24.3156H21.4898H18.664H15.8382H13.0124H10.1866H7.36076H4.53498H4.46591V7.28564Z" fill="#8D6E63"/>
<path d="M4.46591 5.771H4.53498H7.36076H10.1866H13.0124H15.8382H18.664H21.4898H24.3156H27.1414H27.2105V5.91516H27.1414H24.3156H21.4898H18.664H15.8382H13.0124H10.1866H7.36076H4.53498H4.46591V5.771Z" fill="#8D6E63"/>
<path d="M8.19632 11.1197L9.74152 9.37284L9.8565 9.24209C9.98544 9.09624 10.2723 9.04607 10.4957 9.13026C10.6227 9.17814 10.7011 9.26072 10.7252 9.35367L12.1282 14.7565L14.8471 7.2668L14.9033 7.1117C14.9626 6.94832 15.2162 6.84621 15.4665 6.8849C15.6494 6.91316 15.7805 7.00983 15.819 7.12814L17.2148 11.41L18.8736 9.19291L18.9729 9.05986C18.9748 9.05746 18.9766 9.05508 18.9785 9.05273C19.0931 8.89957 19.3524 8.84094 19.5988 8.91945C19.7215 8.95856 19.8065 9.03003 19.8451 9.11463L21.3017 12.3022L21.5138 11.8442L21.5793 11.7026C21.5785 11.7043 21.5801 11.7009 21.5793 11.7026C21.6555 11.5381 21.8959 11.446 22.1627 11.4986C22.217 11.5093 22.2619 11.5262 22.3082 11.547L22.8143 11.7741L23.4771 11.1821L23.6108 11.062C23.6991 10.9832 23.8393 10.9368 23.9886 10.9368H26.9587C27.0015 10.9368 27.043 10.9406 27.0824 10.9476V11.5369C27.043 11.5439 27.0015 11.5477 26.9587 11.5477H24.2256L23.314 12.3619C23.3154 12.3605 23.3126 12.3633 23.314 12.3619C23.1676 12.5014 22.8904 12.5483 22.6813 12.4545C22.6737 12.4515 22.6662 12.4483 22.6588 12.445L22.472 12.3611L22.29 12.2789L21.7484 13.4483C21.7023 13.5478 21.5859 13.6266 21.4325 13.6565C21.1754 13.7065 20.9296 13.6238 20.8557 13.4622C20.8538 13.4585 20.852 13.4548 20.8503 13.4511L20.7855 13.3092L19.2878 10.0308L17.4639 12.4685C17.3995 12.5545 17.282 12.6183 17.1371 12.6383C16.877 12.6745 16.6402 12.58 16.5867 12.4158C16.585 12.4116 16.5835 12.4074 16.5821 12.4031L16.5349 12.2584L15.3343 8.57372L12.5095 16.355C12.4657 16.4758 12.3199 16.5702 12.1305 16.5911C11.87 16.62 11.6379 16.5199 11.5951 16.3549C11.5935 16.3503 11.5922 16.3457 11.591 16.341L11.5531 16.1951L10.0177 10.2808L8.87931 11.5678C8.79301 11.6654 8.64128 11.7306 8.4658 11.7306H4.76729C4.70473 11.7306 4.64506 11.7226 4.59053 11.708V11.1423C4.64506 11.1277 4.70473 11.1197 4.76729 11.1197L8.19632 11.1197Z" fill="#BF360C"/>
<path fill-rule="evenodd" clip-rule="evenodd" d="M2 19.9133H29.6789V25.9971H2V19.9133Z" fill="#F4511E"/>
<path d="M4.78525 24.1552C5.70236 24.1552 6.44583 23.4117 6.44583 22.4946C6.44583 21.5775 5.70236 20.834 4.78525 20.834C3.86813 20.834 3.12466 21.5775 3.12466 22.4946C3.12466 23.4117 3.86813 24.1552 4.78525 24.1552Z" fill="#009688"/>
<path fill-rule="evenodd" clip-rule="evenodd" d="M7.97057 21.7925H9.88778V23.1889H7.97057V21.7925Z" fill="#C0CA33"/>
<path fill-rule="evenodd" clip-rule="evenodd" d="M11.6616 21.7925H13.5788V23.1889H11.6616V21.7925Z" fill="#C0CA33"/>
<path fill-rule="evenodd" clip-rule="evenodd" d="M15.0809 21.7925H16.9981V23.1889H15.0809V21.7925Z" fill="#C0CA33"/>
<path fill-rule="evenodd" clip-rule="evenodd" d="M2 24.9102H29.6789V25.9971H2V24.9102Z" fill="#C0CA33"/>
<path fill-rule="evenodd" clip-rule="evenodd" d="M9.12544 18.8035H22.5535V20.2603H9.12544V18.8035Z" fill="#F4511E"/>
<path fill-rule="evenodd" clip-rule="evenodd" d="M15.9299 19.915H29.6763V26H15.9299V19.915Z" fill="#C14A25"/>
<path fill-rule="evenodd" clip-rule="evenodd" d="M15.9299 21.7913H17.0009V23.1907H15.9299V21.7913Z" fill="#9BA235"/>
<path fill-rule="evenodd" clip-rule="evenodd" d="M15.9299 24.9133H29.6763V26.0001H15.9299V24.9133Z" fill="#9BA235"/>
<path fill-rule="evenodd" clip-rule="evenodd" d="M15.9299 20.2616H22.5535V18.8032H15.9299V20.2616Z" fill="#C14A25"/>
</g>
<defs>
<clipPath id="clip0_686_4690">
<rect width="32" height="32" fill="white"/>
</clipPath>
</defs>
</svg>
