<svg width="29" height="33" viewBox="0 0 29 33" fill="none" xmlns="http://www.w3.org/2000/svg">
<path d="M10.6889 29.2571C12.8489 29.2571 14.5999 26.9994 14.5999 24.2144C14.5999 21.4293 12.8489 19.1716 10.6889 19.1716C8.52887 19.1716 6.77783 21.4293 6.77783 24.2144C6.77783 26.9994 8.52887 29.2571 10.6889 29.2571Z" fill="#FEF156"/>
<path d="M10.6887 19.1716C9.07753 19.1716 7.69432 20.4281 7.09521 22.2223C7.40119 22.1232 7.72124 22.0699 8.05107 22.0699C10.2111 22.0699 11.9621 24.3277 11.9621 27.1127C11.9621 27.8203 11.8486 28.4936 11.6445 29.1048C13.3424 28.5548 14.5997 26.5741 14.5997 24.2144C14.5997 21.4293 12.8487 19.1716 10.6887 19.1716Z" fill="#FFD402"/>
<path d="M19.808 29.2571C21.968 29.2571 23.7191 26.9994 23.7191 24.2144C23.7191 21.4293 21.968 19.1716 19.808 19.1716C17.648 19.1716 15.897 21.4293 15.897 24.2144C15.897 26.9994 17.648 29.2571 19.808 29.2571Z" fill="#FEF156"/>
<path d="M19.808 19.1716C21.4192 19.1716 22.8024 20.4281 23.4015 22.2223C23.0955 22.1232 22.7755 22.0699 22.4456 22.0699C20.2856 22.0699 18.5346 24.3277 18.5346 27.1127C18.5346 27.8203 18.6481 28.4936 18.8522 29.1048C17.1543 28.5548 15.897 26.5741 15.897 24.2144C15.897 21.4293 17.648 19.1716 19.808 19.1716Z" fill="#FFD402"/>
<path d="M15.2485 19.5931C21.4986 19.5931 26.5654 15.6734 26.5654 10.8382C26.5654 6.00295 21.4986 2.08325 15.2485 2.08325C8.99837 2.08325 3.93164 6.00295 3.93164 10.8382C3.93164 15.6734 8.99837 19.5931 15.2485 19.5931Z" fill="#FE3D97"/>
<path d="M10.3682 10.8382C10.3682 6.86794 13.7845 3.51564 18.4668 2.44299C17.4466 2.20932 16.3667 2.08325 15.2485 2.08325C8.99833 2.08325 3.93164 6.00298 3.93164 10.8382C3.93164 15.6734 8.9984 19.5931 15.2485 19.5931C16.3667 19.5931 17.4466 19.4671 18.4668 19.2333C13.7845 18.1607 10.3682 14.8084 10.3682 10.8382Z" fill="#FF0363"/>
<path d="M28.42 9.42552C28.5653 9.06686 28.6129 8.66974 28.5438 8.272C28.5256 8.1661 28.4988 8.05957 28.4636 7.9543C28.4532 7.92468 28.4434 7.89568 28.433 7.86605C28.2629 7.37376 27.9285 6.97853 27.5093 6.71883C27.54 6.24355 27.4109 5.75503 27.1078 5.33397C27.0889 5.30812 27.07 5.28165 27.0511 5.2558C26.7506 4.84671 26.3315 4.56747 25.8706 4.43131C25.7715 3.97999 25.5251 3.55577 25.1366 3.23114C25.1125 3.21034 25.0878 3.19017 25.063 3.17C24.6784 2.85419 24.2162 2.684 23.7482 2.65438C23.5501 2.24654 23.2209 1.89481 22.7802 1.66348L22.7001 1.62187C22.2627 1.39558 21.7836 1.32309 21.3279 1.38297C21.0542 1.02809 20.667 0.750109 20.1976 0.60639L20.109 0.579286C19.6416 0.43998 19.1645 0.453847 18.733 0.591892C18.4005 0.29374 17.9729 0.0895088 17.4892 0.0283654L17.3993 0.0170193C16.9697 -0.0346689 16.5539 0.0352992 16.1862 0.196667C15.9001 0.0705984 15.5826 0 15.2482 0C14.9138 0 14.5964 0.0705984 14.3102 0.196667C13.9426 0.0352992 13.5267 -0.0346689 13.0971 0.0170193L13.0072 0.0283654C12.5235 0.0895088 12.0959 0.29374 11.7635 0.591892C11.332 0.453847 10.8548 0.43998 10.3874 0.579286L10.2988 0.60639C9.82947 0.750109 9.44228 1.02809 9.1685 1.38297C8.71287 1.32309 8.23376 1.39558 7.79638 1.62187L7.7162 1.66348C7.27556 1.89481 6.94638 2.24654 6.74822 2.65438C6.2802 2.684 5.81804 2.85419 5.43346 3.17C5.40869 3.19017 5.38392 3.21034 5.3598 3.23114C4.9713 3.55577 4.72491 3.97999 4.62583 4.43131C4.16498 4.56747 3.74584 4.84671 3.44534 5.2558C3.42644 5.28165 3.40754 5.30812 3.38863 5.33397C3.08553 5.75503 2.95646 6.24355 2.9871 6.71883C2.56797 6.97853 2.23357 7.37376 2.06344 7.86605C2.05301 7.89568 2.04324 7.92468 2.03281 7.9543C1.99761 8.05957 1.97088 8.1661 1.95263 8.272C1.88353 8.66974 1.93112 9.06686 2.07648 9.42552C1.75382 9.80436 1.55957 10.2891 1.55957 10.818V10.8381C1.55957 10.869 1.55957 10.9005 1.56022 10.9314C1.56478 11.459 1.76229 11.9419 2.08756 12.3169C1.9083 12.772 1.88354 13.287 2.05432 13.785C2.0654 13.8171 2.07648 13.8486 2.08756 13.8802C2.26225 14.3693 2.59795 14.7601 3.01774 15.016C2.99101 15.4913 3.12268 15.9786 3.4284 16.3978C3.4473 16.4236 3.4662 16.4494 3.48576 16.4753C3.78887 16.8825 4.2093 17.1586 4.67081 17.2928C4.77249 17.7435 5.02215 18.1678 5.4139 18.4905L5.483 18.5472C5.86954 18.8618 6.33365 19.0301 6.80167 19.0572C7.00179 19.4637 7.33292 19.8148 7.77552 20.0437L7.8557 20.0853C8.29308 20.3084 8.77219 20.379 9.22717 20.3172C9.5029 20.6708 9.8914 20.9476 10.3627 21.0894L10.4435 21.1133C10.7264 21.1972 11.0126 21.2256 11.2902 21.2035C11.6312 21.177 11.9708 21.2482 12.2706 21.4065C12.2745 21.4084 12.2791 21.4109 12.283 21.4128C12.7895 21.6769 13.118 22.1761 13.1675 22.7302L14.0156 32.2282C14.4223 32.2584 14.8336 32.2736 15.2482 32.2736C15.6628 32.2736 16.0741 32.2584 16.4809 32.2282L17.3289 22.7302C17.3784 22.1761 17.707 21.6769 18.2134 21.4128C18.2174 21.4109 18.2219 21.4084 18.2258 21.4065C18.5257 21.2482 18.8653 21.177 19.2062 21.2035C19.4839 21.2256 19.77 21.1972 20.0529 21.1133L20.1338 21.0894C20.605 20.9476 20.9935 20.6708 21.2693 20.3172C21.7243 20.379 22.2034 20.3084 22.6407 20.0853L22.7209 20.0437C23.1635 19.8148 23.4947 19.4637 23.6948 19.0572C24.1628 19.0301 24.6269 18.8618 25.0134 18.5472L25.0825 18.4905C25.4743 18.1678 25.7239 17.7435 25.8256 17.2928C26.2871 17.1586 26.7076 16.8825 27.0107 16.4753C27.0302 16.4494 27.0491 16.4236 27.068 16.3978C27.3738 15.9786 27.5054 15.4913 27.4787 15.016C27.8985 14.7601 28.2342 14.3693 28.4089 13.8802C28.42 13.8486 28.431 13.8171 28.4421 13.785C28.6129 13.287 28.5881 12.772 28.4089 12.3169C28.7341 11.9419 28.9317 11.459 28.9362 10.9314C28.9369 10.9005 28.9369 10.869 28.9369 10.8381V10.818C28.9369 10.2891 28.7426 9.80436 28.42 9.42552ZM24.5572 11.691C24.3792 11.8965 24.2378 12.1373 24.1452 12.4064L24.1295 12.4524C24.0311 12.7285 23.9927 13.0109 24.0083 13.2857C23.7645 13.4345 23.5455 13.6318 23.3688 13.8745L23.3369 13.918C23.1505 14.1682 23.0266 14.4443 22.9621 14.728C22.6707 14.8131 22.3924 14.9555 22.146 15.1591L22.0984 15.1976C21.8435 15.4056 21.6473 15.6558 21.5131 15.9294C21.1969 15.9483 20.8801 16.0315 20.5829 16.1853L20.5281 16.2137C20.2237 16.3688 19.9708 16.5818 19.7766 16.8314C19.4552 16.7879 19.1195 16.81 18.789 16.9096L18.7232 16.9291C18.3901 17.0281 18.0981 17.1945 17.8575 17.4082C17.5453 17.3073 17.205 17.2708 16.857 17.3136L16.7911 17.3212C16.5669 17.3477 16.3557 17.4069 16.1588 17.4901C15.8799 17.3716 15.5722 17.3054 15.2482 17.3054C14.9243 17.3054 14.6166 17.3716 14.3376 17.4901C14.1407 17.4069 13.9295 17.3477 13.7053 17.3212L13.6395 17.3136C13.2914 17.2708 12.9511 17.3073 12.6389 17.4082C12.3984 17.1945 12.1063 17.0281 11.7733 16.9291L11.7074 16.9096C11.3769 16.81 11.0412 16.7879 10.7199 16.8314C10.5256 16.5818 10.2727 16.3688 9.96831 16.2137L9.91356 16.1853C9.61632 16.0315 9.29952 15.9483 8.98338 15.9294C8.8491 15.6558 8.6529 15.4056 8.39803 15.1976L8.35044 15.1591C8.10405 14.9555 7.82571 14.8131 7.53434 14.728C7.46981 14.4443 7.34596 14.1682 7.15953 13.918L7.12759 13.8745C6.95094 13.6318 6.73192 13.4345 6.48814 13.2857C6.50378 13.0109 6.46532 12.7285 6.36689 12.4524L6.35125 12.4064C6.25869 12.1373 6.11724 11.8965 5.93929 11.691C6.03706 11.4433 6.08921 11.1741 6.0866 10.8936V10.818C6.0866 10.5374 6.03185 10.2696 5.93277 10.0237C6.10811 9.8176 6.24761 9.57744 6.33821 9.30828L6.35581 9.25596C6.45098 8.9805 6.48683 8.7 6.46923 8.42643C6.71237 8.27578 6.92878 8.07785 7.10413 7.83454L7.13607 7.79104C7.32054 7.53954 7.44243 7.26282 7.50501 6.97916C7.79638 6.8928 8.07472 6.74783 8.32046 6.54233L8.36348 6.50703C8.6177 6.29776 8.8126 6.04625 8.94623 5.77142C9.26237 5.75125 9.57851 5.66679 9.8751 5.51109L9.92985 5.48273C10.233 5.32577 10.4846 5.11208 10.6769 4.86247C10.9989 4.9047 11.3352 4.88075 11.6657 4.77926L11.7231 4.76224C12.0581 4.66202 12.3521 4.49372 12.5926 4.27751C12.9055 4.37773 13.2458 4.4124 13.5945 4.36828L13.6571 4.36072C13.8898 4.33298 14.1095 4.27058 14.3128 4.1817C14.5977 4.30714 14.9145 4.37773 15.2482 4.37773C15.582 4.37773 15.8988 4.30714 16.1836 4.1817C16.387 4.27058 16.6067 4.33298 16.8394 4.36072L16.9019 4.36828C17.2507 4.4124 17.5909 4.37773 17.9038 4.27751C18.1443 4.49372 18.4383 4.66202 18.7734 4.76224L18.8307 4.77926C19.1612 4.88075 19.4976 4.9047 19.8196 4.86247C20.0119 5.11208 20.2635 5.32577 20.5666 5.48273L20.6213 5.51109C20.9179 5.66679 21.2341 5.75125 21.5502 5.77142C21.6838 6.04625 21.8787 6.29776 22.133 6.50703L22.176 6.54233C22.4217 6.74783 22.7001 6.8928 22.9914 6.97916C23.054 7.26282 23.1759 7.53954 23.3604 7.79104L23.3923 7.83454C23.5677 8.07785 23.7841 8.27578 24.0272 8.42643C24.0096 8.7 24.0455 8.9805 24.1406 9.25596L24.1582 9.30828C24.2488 9.57744 24.3883 9.8176 24.5637 10.0237C24.4646 10.2696 24.4098 10.5374 24.4098 10.818V10.8936C24.4072 11.1741 24.4594 11.4433 24.5572 11.691Z" fill="#FD77A6"/>
<path d="M17.2364 23.7656L16.4809 32.2279C16.0741 32.2582 15.6628 32.2733 15.2482 32.2733C14.8336 32.2733 14.4223 32.2582 14.0156 32.2279L13.1675 22.7299C13.118 22.1759 12.7895 21.6766 12.283 21.4125C12.2791 21.4106 12.2745 21.4081 12.2706 21.4062C11.9708 21.248 11.6312 21.1768 11.2902 21.2032C11.0126 21.2253 10.7264 21.1969 10.4435 21.1131L10.3627 21.0892C9.8914 20.9473 9.5029 20.6706 9.22717 20.317C8.77219 20.3788 8.29308 20.3082 7.8557 20.085L7.77552 20.0434C7.33292 19.8146 7.00179 19.4635 6.80167 19.0569C6.33365 19.0298 5.86954 18.8615 5.483 18.547L5.4139 18.4902C5.02215 18.1675 4.77249 17.7433 4.67081 17.2926C4.2093 17.1583 3.78887 16.8822 3.48576 16.475C3.4662 16.4492 3.4473 16.4233 3.4284 16.3975C3.12268 15.9783 2.99101 15.4911 3.01774 15.0158C2.59795 14.7599 2.26225 14.3691 2.08756 13.8799C2.07648 13.8484 2.0654 13.8169 2.05432 13.7847C1.88354 13.2868 1.9083 12.7718 2.08756 12.3167C1.76229 11.9416 1.56478 11.4588 1.56022 10.9312C1.55957 10.9003 1.55957 10.8688 1.55957 10.8379V10.8177C1.55957 10.2888 1.75382 9.80411 2.07648 9.42528C1.93112 9.06661 1.88353 8.6695 1.95263 8.27175C1.97088 8.16585 1.99761 8.05932 2.03281 7.95406C2.04324 7.92443 2.05301 7.89543 2.06344 7.86581C2.23357 7.37351 2.56797 6.97828 2.9871 6.71858C2.95646 6.2433 3.08553 5.75479 3.38863 5.33372C3.40754 5.30787 3.42644 5.2814 3.44534 5.25556C3.74584 4.84646 4.16498 4.56722 4.62583 4.43107C4.72491 3.97974 4.9713 3.55552 5.3598 3.23089C5.38392 3.21009 5.40869 3.18992 5.43346 3.16975C5.81804 2.85395 6.2802 2.68376 6.74822 2.65413C6.94638 2.24693 7.27556 1.89457 7.7162 1.66323L7.79638 1.62163C8.23376 1.39533 8.71287 1.32284 9.1685 1.38273C9.44228 1.02784 9.82947 0.749862 10.2988 0.606144L10.3874 0.579039C10.8548 0.439733 11.332 0.453601 11.7635 0.591646C12.0959 0.293494 12.5235 0.0892623 13.0072 0.028119L13.0971 0.0167728C13.5267 -0.0349154 13.9426 0.0350527 14.3102 0.196421C13.732 0.45171 13.2849 0.934553 13.0906 1.52645C13.0222 1.73509 12.985 1.9576 12.985 2.18831C12.985 3.07457 13.5293 3.83728 14.3128 4.18145C14.1095 4.27033 13.8898 4.33273 13.6571 4.36047L13.5945 4.36803C13.2458 4.41216 12.9055 4.37749 12.5926 4.27726C12.3521 4.49347 12.0581 4.66177 11.7231 4.762L11.6657 4.77902C11.3352 4.8805 10.9989 4.90445 10.6769 4.86222C10.4846 5.11184 10.233 5.32552 9.92985 5.48248L9.8751 5.51085C9.57851 5.66654 9.26237 5.75101 8.94623 5.77118C8.8126 6.04601 8.6177 6.29751 8.36348 6.50679L8.32046 6.54209C8.07472 6.74758 7.79638 6.89256 7.50501 6.97891C7.44243 7.26257 7.32054 7.53929 7.13607 7.7908L7.10413 7.83429C6.92878 8.0776 6.71237 8.27553 6.46923 8.42618C6.48683 8.69975 6.45098 8.98026 6.35581 9.25572L6.33821 9.30803C6.24761 9.57719 6.10811 9.81735 5.93277 10.0235C6.03185 10.2693 6.0866 10.5372 6.0866 10.8177V10.8933C6.08921 11.1739 6.03706 11.443 5.93929 11.6907C6.11724 11.8962 6.25869 12.137 6.35125 12.4062L6.36689 12.4522C6.46532 12.7283 6.50378 13.0107 6.48814 13.2855C6.73192 13.4343 6.95094 13.6316 7.12759 13.8742L7.15953 13.9177C7.34596 14.168 7.46981 14.4441 7.53434 14.7277C7.82571 14.8128 8.10405 14.9553 8.35044 15.1589L8.39803 15.1973C8.6529 15.4053 8.8491 15.6556 8.98338 15.9292C9.29952 15.9481 9.61632 16.0313 9.91356 16.1851L9.96831 16.2134C10.2727 16.3685 10.5256 16.5816 10.7199 16.8312C11.0412 16.7877 11.3769 16.8097 11.7074 16.9093L11.7733 16.9289C12.1063 17.0278 12.3984 17.1943 12.6389 17.4079C12.9511 17.3071 13.2914 17.2705 13.6395 17.3134L13.7053 17.321C13.9295 17.3474 14.1407 17.4067 14.3376 17.4899C13.541 17.8296 12.985 18.598 12.985 19.4938C12.985 20.7028 14.0488 21.6829 15.2482 21.6829H15.2678C16.4273 21.6847 17.3362 22.6484 17.2364 23.7656Z" fill="#FE3D97"/>
<path d="M20.1537 24.5484C19.9628 24.733 19.6532 24.733 19.4623 24.5484L14.6227 19.8684C14.4317 19.6837 14.4317 19.3844 14.6227 19.1997C14.8136 19.0151 15.1231 19.0151 15.3141 19.1997L20.1537 23.8798C20.3446 24.0644 20.3446 24.3638 20.1537 24.5484Z" fill="white"/>
<path d="M0.948669 6.646L1.63995 5.9777L5.51764 9.72651L4.82636 10.3948L0.948669 6.646Z" fill="#ADE9F7"/>
<path d="M0.143193 7.42581C-0.047731 7.24123 -0.047731 6.94196 0.143193 6.75738L1.75643 5.19776C1.94736 5.01318 2.25692 5.01318 2.44784 5.19776C2.63876 5.38234 2.63876 5.68161 2.44784 5.86619L0.8346 7.42581C0.643611 7.61039 0.334117 7.61039 0.143193 7.42581Z" fill="#E8F8FC"/>
<path d="M16.2358 20.759C15.854 21.1282 15.2349 21.1282 14.8531 20.759L12.7789 18.7538L14.1617 17.417L16.2358 19.4222C16.6177 19.7913 16.6177 20.3898 16.2358 20.759Z" fill="#E8F8FC"/>
<path d="M15.5445 20.0907C15.8003 20.3379 16.1622 20.4187 16.4883 20.3347C16.4455 20.4901 16.362 20.6372 16.2358 20.7591C15.854 21.1283 15.2349 21.1283 14.8531 20.7591L12.7789 18.7539L13.4703 18.0854L15.5445 20.0907Z" fill="#ADE9F7"/>
<path d="M4.32102 9.23781C4.70287 8.86865 5.32192 8.86865 5.70377 9.23781L6.78694 10.285L5.40419 11.6218L4.32102 10.5746C3.93918 10.2054 3.93918 9.60696 4.32102 9.23781Z" fill="#ADE9F7"/>
<path d="M4.75997 8.9939C4.59923 9.0353 4.44709 9.11602 4.32102 9.23796C3.93918 9.60712 3.93918 10.2056 4.32102 10.5748L5.40419 11.6219L6.09559 10.9535L5.01243 9.90633C4.75665 9.65911 4.67315 9.30911 4.75997 8.9939Z" fill="#6AD9FB"/>
<path d="M14.3922 18.977C13.6285 19.7155 12.3903 19.7155 11.6267 18.977L4.71286 12.2912L7.47836 9.61694L14.3922 16.3027C15.1559 17.0412 15.1559 18.2385 14.3922 18.977Z" fill="#ADE9F7"/>
<path d="M13.0094 17.6397L6.09561 10.9539L4.71286 12.291L11.6267 18.9769C12.3904 19.7154 13.6285 19.7154 14.3922 18.9769C14.6441 18.7332 14.8124 18.4395 14.8981 18.1289C14.2458 18.2973 13.5211 18.1345 13.0094 17.6397Z" fill="#6AD9FB"/>
<path d="M3.28394 13.5838C3.09302 13.3992 3.09302 13.0998 3.28394 12.9152L8.12359 8.23515C8.31452 8.05052 8.62408 8.05052 8.815 8.23515C9.00593 8.41978 9.00593 8.71913 8.815 8.90376L3.97535 13.5838C3.78442 13.7684 3.47486 13.7684 3.28394 13.5838Z" fill="#E8F8FC"/>
</svg>
