<svg width="32" height="32" viewBox="0 0 32 32" fill="none" xmlns="http://www.w3.org/2000/svg">
<path d="M13.0909 0.484863C12.6546 0.484863 12.2667 0.824257 12.2182 1.30911L11.8303 7.0788C11.7818 7.80608 11.5879 8.58183 11.103 9.30911C9.79395 11.0546 9.3091 12.2667 10.2303 13.6727C10.6182 14.3515 11.2 14.8849 11.9758 15.2727C12.8 15.7576 13.7212 15.8061 14.7394 15.2727C15.7576 14.8364 16.8727 14.9333 18.0849 15.2727C18.5212 15.4667 18.9091 15.6121 19.297 15.6606C20.0242 15.7576 20.7515 15.3697 21.0909 14.7394C21.9152 13.2849 21.7697 11.9273 20.7515 10.1818C18.5697 7.22426 17.9394 4.36365 17.7455 1.30911C17.7455 0.824257 17.3576 0.484863 16.8727 0.484863H13.0909Z" fill="#FFAF57"/>
<path d="M13.2849 30.6909L13.2364 28.6545C13.1879 27.7333 13.0424 26.8121 12.7515 25.9394L12.3152 24.5818C11.9758 23.6121 11.5879 22.6909 11.0061 21.8666C10.0364 20.4121 9.69698 19.0545 9.79395 17.7454C9.89092 17.3091 10.2303 17.2121 10.7152 17.406C11.0546 17.6485 11.3939 17.8909 11.7818 18.1333C12.3152 18.4242 12.9455 18.5697 13.5273 18.4727C14.0121 18.3757 14.6424 18.2303 15.3212 17.9394C16.194 17.6 17.0667 17.6485 17.9879 18.1818C18.7636 18.5212 19.4909 18.6182 20.2182 18.4242C20.5091 18.3272 20.8 18.1333 21.0424 17.9394C21.4788 17.5515 22.0121 17.4545 22.2061 18.1333C22.2546 19.2485 22.0606 20.3636 21.7212 21.4303C21.4303 22.206 21.1394 23.1272 20.8485 24.2424C20.3152 26.1818 20.0243 28.4121 20.0243 30.7394C20.0243 31.2242 19.6364 31.6121 19.1515 31.6121H14.1576C13.6727 31.5151 13.2849 31.1272 13.2849 30.6909Z" fill="#FFAF57"/>
<path d="M18.8121 11.2486C19.2 12.0728 19.0061 12.8971 18.4727 13.188C17.8909 13.4304 17.1636 12.994 16.7758 12.2183C16.3879 11.4425 16.7758 10.8122 17.3091 10.5698C17.8424 10.3274 18.4727 10.4728 18.8121 11.2486Z" fill="#FFD550"/>
<path d="M16.6788 9.60005C16.6788 10.0364 16.4849 10.3273 16.194 10.2788C15.9515 10.2304 15.7091 9.89096 15.7091 9.4546C15.7091 9.01823 15.9515 8.87278 16.194 8.92126C16.4849 8.96975 16.6788 9.16369 16.6788 9.60005Z" fill="#FFD550"/>
<path d="M16.5818 23.0305C16.9697 23.8547 16.7758 24.679 16.2424 24.9699C15.7091 25.2608 14.9333 24.7759 14.5455 24.0002C14.1576 23.2244 14.5455 22.5941 15.0788 22.3517C15.6121 22.1093 16.2424 22.2062 16.5818 23.0305Z" fill="#FFD550"/>
<path d="M14.4485 21.3335C14.4485 21.7698 14.2545 22.0607 13.9636 22.0122C13.7212 21.9638 13.4788 21.6244 13.4788 21.188C13.4788 20.7516 13.7212 20.6062 13.9636 20.6547C14.2061 20.7031 14.4 20.9456 14.4485 21.3335Z" fill="#FFD550"/>
</svg>
