<svg width="32" height="32" viewBox="0 0 32 32" fill="none" xmlns="http://www.w3.org/2000/svg">
<path d="M13.68 10.6001H18.3718V27.6472H13.68V10.6001Z" fill="#ECC58C"/>
<path d="M11.8315 28.8228L14.0489 24.9423L17.2145 26.7512L14.9971 30.6317L11.8315 28.8228Z" fill="#ECC58C"/>
<path d="M15.5035 30.0119C14.2235 29.8354 13.0894 29.1507 12.3435 28.1013C12.2635 27.9883 12.0894 28.0119 12 28.153L11.6282 28.7436C11.5741 28.8307 11.5671 28.9366 11.6141 29.0072C12.3859 30.1672 13.6212 30.9107 15.0165 31.0566C15.0988 31.066 15.1882 31.0142 15.2424 30.9295L15.6118 30.3436C15.7012 30.2001 15.6447 30.033 15.5035 30.0119Z" fill="#F7D2A1"/>
<g opacity="0.25">
<path d="M12.8612 28.8635C13.5976 29.5011 14.4094 30.0846 15.3835 30.2823C15.3671 30.4658 15.1859 30.6117 15.0188 30.6658C14.7953 30.7388 14.5741 30.7082 14.3647 30.6635C13.3624 30.447 12.4729 29.9011 11.8282 29.1035C11.7694 29.0305 11.7106 28.9505 11.7129 28.8446C11.7153 28.7176 11.8047 28.5999 11.8894 28.4941C11.9529 28.4141 12.0471 28.2446 12.1435 28.2188C12.2306 28.1976 12.2894 28.287 12.3341 28.3411C12.4941 28.5364 12.6753 28.7035 12.8612 28.8635Z" fill="white"/>
</g>
<path d="M16.4024 28.3153C15.1224 28.1389 13.9882 27.4542 13.2424 26.4047C13.1624 26.2918 12.9882 26.3153 12.8988 26.4565L12.5271 27.0471C12.4729 27.1342 12.4659 27.24 12.5129 27.3106C13.2847 28.4706 14.52 29.2142 15.9153 29.36C15.9976 29.3695 16.0871 29.3177 16.1412 29.233L16.5106 28.6471C16.6024 28.5036 16.5435 28.3342 16.4024 28.3153Z" fill="#F7D2A1"/>
<g opacity="0.25">
<path d="M13.76 27.1672C14.4965 27.8048 15.3082 28.3884 16.2824 28.586C16.2659 28.7695 16.0847 28.9154 15.9176 28.9695C15.6941 29.0425 15.4729 29.0119 15.2635 28.9672C14.2612 28.7507 13.3718 28.2048 12.7271 27.4072C12.6682 27.3342 12.6094 27.2542 12.6118 27.1484C12.6141 27.0213 12.7035 26.9036 12.7882 26.7978C12.8518 26.7178 12.9459 26.5484 13.0424 26.5225C13.1294 26.5013 13.1882 26.5907 13.2329 26.6448C13.3953 26.8401 13.5741 27.0048 13.76 27.1672Z" fill="white"/>
</g>
<path d="M15.1137 26.7651L18.2793 24.9562L20.4967 28.8367L17.3311 30.6456L15.1137 26.7651Z" fill="#ECC58C"/>
<path d="M16.8494 30.0119C18.1294 29.8354 19.2635 29.1507 20.0094 28.1013C20.0894 27.9883 20.2635 28.0119 20.3529 28.153L20.7247 28.7436C20.7788 28.8307 20.7859 28.9366 20.7388 29.0072C19.9671 30.1672 18.7318 30.9107 17.3365 31.0566C17.2541 31.066 17.1647 31.0142 17.1106 30.9295L16.7412 30.3436C16.6518 30.2001 16.7082 30.033 16.8494 30.0119Z" fill="#F7D2A1"/>
<g opacity="0.25">
<path d="M19.4918 28.8635C18.7553 29.5011 17.9435 30.0846 16.9694 30.2823C16.9859 30.4658 17.1671 30.6117 17.3341 30.6658C17.5576 30.7388 17.7788 30.7082 17.9882 30.6635C18.9906 30.447 19.88 29.9011 20.5247 29.1035C20.5835 29.0305 20.6423 28.9505 20.64 28.8446C20.6376 28.7176 20.5482 28.5999 20.4635 28.4941C20.4 28.4141 20.3059 28.2446 20.2094 28.2188C20.1223 28.1976 20.0635 28.287 20.0188 28.3411C19.8588 28.5364 19.6776 28.7035 19.4918 28.8635Z" fill="white"/>
</g>
<path d="M15.9506 28.3153C17.2306 28.1389 18.3647 27.4542 19.1106 26.4047C19.1906 26.2918 19.3647 26.3153 19.4541 26.4565L19.8259 27.0471C19.88 27.1342 19.8871 27.24 19.84 27.3106C19.0682 28.4706 17.8329 29.2142 16.4376 29.36C16.3553 29.3695 16.2659 29.3177 16.2118 29.233L15.8424 28.6471C15.7506 28.5036 15.8094 28.3342 15.9506 28.3153Z" fill="#F7D2A1"/>
<g opacity="0.25">
<path d="M18.5929 27.1672C17.8565 27.8048 17.0447 28.3884 16.0706 28.586C16.0871 28.7695 16.2682 28.9154 16.4353 28.9695C16.6588 29.0425 16.88 29.0119 17.0894 28.9672C18.0918 28.7507 18.9812 28.2048 19.6259 27.4072C19.6847 27.3342 19.7435 27.2542 19.7412 27.1484C19.7388 27.0213 19.6494 26.9036 19.5647 26.7978C19.5012 26.7178 19.4071 26.5484 19.3106 26.5225C19.2235 26.5013 19.1647 26.5907 19.12 26.6448C18.9576 26.8401 18.7788 27.0048 18.5929 27.1672Z" fill="white"/>
</g>
<path d="M18.3035 13.2919C16.8494 13.826 15.2118 13.8519 13.7435 13.3648C13.5835 13.313 13.4188 13.4236 13.4188 13.593V14.2919C13.4188 14.3954 13.4824 14.4871 13.5788 14.5224C15.1506 15.0895 16.9318 15.0589 18.4847 14.4377C18.5765 14.4001 18.6376 14.3083 18.6376 14.2095V13.5177C18.6353 13.346 18.4635 13.233 18.3035 13.2919Z" fill="#F7D2A1"/>
<g opacity="0.25">
<path d="M14.7859 13.7319C15.9765 13.8778 17.2094 13.9389 18.3553 13.586C18.4565 13.7484 18.3647 13.9695 18.2282 14.106C18.0447 14.2872 17.7906 14.3813 17.5435 14.4542C16.3529 14.8072 15.0635 14.8189 13.8659 14.4895C13.7576 14.4589 13.6423 14.4213 13.5765 14.3319C13.4965 14.2236 13.5106 14.0754 13.5294 13.9413C13.5435 13.8401 13.5294 13.6448 13.6141 13.5719C13.6918 13.506 13.8094 13.5531 13.8941 13.5742C14.1859 13.6495 14.4847 13.6942 14.7859 13.7319Z" fill="white"/>
</g>
<path d="M18.3035 15.1859C16.8494 15.72 15.2118 15.7459 13.7435 15.2588C13.5835 15.2071 13.4188 15.3177 13.4188 15.4871V16.1859C13.4188 16.2894 13.4824 16.3812 13.5788 16.4165C15.1506 16.9835 16.9318 16.953 18.4847 16.3318C18.5765 16.2941 18.6376 16.2024 18.6376 16.1035V15.4118C18.6353 15.24 18.4635 15.1271 18.3035 15.1859Z" fill="#F7D2A1"/>
<g opacity="0.25">
<path d="M14.7859 15.6259C15.9765 15.7718 17.2094 15.833 18.3553 15.48C18.4565 15.6424 18.3647 15.8636 18.2282 16C18.0447 16.1812 17.7906 16.2753 17.5435 16.3483C16.3529 16.7012 15.0635 16.713 13.8659 16.3836C13.7576 16.353 13.6423 16.3153 13.5765 16.2259C13.4965 16.1177 13.5106 15.9695 13.5294 15.8353C13.5435 15.7342 13.5294 15.5389 13.6141 15.4659C13.6918 15.4 13.8094 15.4471 13.8941 15.4683C14.1859 15.5436 14.4847 15.5883 14.7859 15.6259Z" fill="white"/>
</g>
<path d="M18.3035 17.0799C16.8494 17.6141 15.2118 17.6399 13.7435 17.1529C13.5835 17.1011 13.4188 17.2117 13.4188 17.3811V18.0799C13.4188 18.1835 13.4824 18.2752 13.5788 18.3105C15.1506 18.8776 16.9318 18.847 18.4847 18.2258C18.5765 18.1882 18.6376 18.0964 18.6376 17.9976V17.3058C18.6353 17.1341 18.4635 17.0211 18.3035 17.0799Z" fill="#F7D2A1"/>
<g opacity="0.25">
<path d="M14.7859 17.52C15.9765 17.6659 17.2094 17.727 18.3553 17.3741C18.4565 17.5364 18.3647 17.7576 18.2282 17.8941C18.0447 18.0753 17.7906 18.1694 17.5435 18.2423C16.3529 18.5953 15.0635 18.607 13.8659 18.2776C13.7576 18.247 13.6423 18.2094 13.5765 18.12C13.4965 18.0117 13.5106 17.8635 13.5294 17.7294C13.5435 17.6282 13.5294 17.4329 13.6141 17.36C13.6918 17.2941 13.8094 17.3411 13.8941 17.3623C14.1859 17.4376 14.4847 17.4847 14.7859 17.52Z" fill="white"/>
</g>
<path d="M18.3035 18.9764C16.8494 19.5106 15.2118 19.5364 13.7435 19.0494C13.5835 18.9976 13.4188 19.1082 13.4188 19.2776V19.9764C13.4188 20.08 13.4824 20.1717 13.5788 20.207C15.1506 20.7741 16.9318 20.7435 18.4847 20.1223C18.5765 20.0847 18.6376 19.9929 18.6376 19.8941V19.2C18.6353 19.0306 18.4635 18.9176 18.3035 18.9764Z" fill="#F7D2A1"/>
<g opacity="0.25">
<path d="M14.7859 19.4165C15.9765 19.5623 17.2094 19.6235 18.3553 19.2706C18.4565 19.4329 18.3647 19.6541 18.2282 19.7906C18.0447 19.9717 17.7906 20.0659 17.5435 20.1388C16.3529 20.4917 15.0635 20.5035 13.8659 20.1741C13.7576 20.1435 13.6423 20.1059 13.5765 20.0165C13.4965 19.9082 13.5106 19.76 13.5294 19.6259C13.5435 19.5247 13.5294 19.3294 13.6141 19.2565C13.6918 19.1906 13.8094 19.2376 13.8941 19.2588C14.1859 19.3341 14.4847 19.3788 14.7859 19.4165Z" fill="white"/>
</g>
<path d="M18.3035 20.8707C16.8494 21.4048 15.2118 21.4307 13.7435 20.9437C13.5835 20.8919 13.4188 21.0025 13.4188 21.1719V21.8707C13.4188 21.9742 13.4824 22.066 13.5788 22.1013C15.1506 22.6684 16.9318 22.6378 18.4847 22.0166C18.5765 21.9789 18.6376 21.8872 18.6376 21.7884V21.0966C18.6353 20.9248 18.4635 20.8119 18.3035 20.8707Z" fill="#F7D2A1"/>
<g opacity="0.25">
<path d="M14.7859 21.3105C15.9765 21.4564 17.2094 21.5176 18.3553 21.1646C18.4565 21.327 18.3647 21.5481 18.2282 21.6846C18.0447 21.8658 17.7906 21.9599 17.5435 22.0328C16.3529 22.3858 15.0635 22.3976 13.8659 22.0681C13.7576 22.0376 13.6423 21.9999 13.5765 21.9105C13.4965 21.8023 13.5106 21.654 13.5294 21.5199C13.5435 21.4187 13.5294 21.2234 13.6141 21.1505C13.6918 21.0846 13.8094 21.1317 13.8941 21.1528C14.1859 21.2281 14.4847 21.2728 14.7859 21.3105Z" fill="white"/>
</g>
<path d="M18.3035 22.7648C16.8494 23.2989 15.2118 23.3248 13.7435 22.8377C13.5835 22.7859 13.4188 22.8965 13.4188 23.0659V23.7648C13.4188 23.8683 13.4824 23.96 13.5788 23.9953C15.1506 24.5624 16.9318 24.5318 18.4847 23.9106C18.5765 23.873 18.6376 23.7812 18.6376 23.6824V22.9906C18.6353 22.8189 18.4635 22.7059 18.3035 22.7648Z" fill="#F7D2A1"/>
<g opacity="0.25">
<path d="M14.7859 23.2048C15.9765 23.3507 17.2094 23.4118 18.3553 23.0589C18.4565 23.2213 18.3647 23.4424 18.2282 23.5789C18.0447 23.7601 17.7906 23.8542 17.5435 23.9271C16.3529 24.2801 15.0635 24.2918 13.8659 23.9624C13.7576 23.9318 13.6423 23.8942 13.5765 23.8048C13.4965 23.6965 13.5106 23.5483 13.5294 23.4142C13.5435 23.313 13.5294 23.1177 13.6141 23.0448C13.6918 22.9789 13.8094 23.026 13.8941 23.0471C14.1859 23.1224 14.4847 23.1671 14.7859 23.2048Z" fill="white"/>
</g>
<path d="M18.3035 24.6588C16.8494 25.1929 15.2118 25.2188 13.7435 24.7317C13.5835 24.68 13.4188 24.7906 13.4188 24.96V25.6588C13.4188 25.7623 13.4824 25.8541 13.5788 25.8894C15.1506 26.4564 16.9318 26.4259 18.4847 25.8047C18.5765 25.767 18.6376 25.6753 18.6376 25.5764V24.8847C18.6353 24.7129 18.4635 24.6 18.3035 24.6588Z" fill="#F7D2A1"/>
<g opacity="0.25">
<path d="M14.7859 25.0988C15.9765 25.2447 17.2094 25.3059 18.3553 24.9529C18.4565 25.1153 18.3647 25.3365 18.2282 25.4729C18.0447 25.6541 17.7906 25.7482 17.5435 25.8212C16.3529 26.1741 15.0635 26.1859 13.8659 25.8565C13.7576 25.8259 13.6423 25.7882 13.5765 25.6988C13.4965 25.5906 13.5106 25.4424 13.5294 25.3082C13.5435 25.2071 13.5294 25.0118 13.6141 24.9388C13.6918 24.8729 13.8094 24.92 13.8941 24.9412C14.1859 25.0165 14.4847 25.0612 14.7859 25.0988Z" fill="white"/>
</g>
<path d="M20.0353 6.49647C19.9223 6.64941 19.8706 6.83765 19.8894 7.03059L20.0541 8.76236C20.0776 8.99059 20 9.21412 19.8424 9.37883L18.6047 10.6753C18.4753 10.8094 18.3012 10.8965 18.1176 10.9153L16.3365 11.1012C16.1129 11.1247 15.8871 11.1247 15.6635 11.1012L13.8823 10.9176C13.6941 10.8988 13.52 10.8118 13.3953 10.6776L12.1576 9.38118C12 9.21647 11.9223 8.99294 11.9412 8.76471L12.1106 7.03294C12.1271 6.84 12.0753 6.65177 11.9647 6.49883L11.1788 5.40706C11.0659 5.24706 11.0141 5.04941 11.0376 4.85412L11.2306 3.25177C11.2376 3.18118 11.2376 3.10588 11.2259 3.03059C11.1553 2.61883 10.9576 1.11765 11.5882 0.960002C12.3388 0.771767 11.8353 2.25177 11.9882 2.9553C12.0871 3.29647 12.2682 3.57883 12.5341 3.80706C12.6941 3.94353 12.9388 3.90824 13.0753 3.74824C13.3576 3.41883 13.88 2.92235 14.3835 3.02118C15.1294 3.16941 15.3623 5.52 15.9976 5.52C16.6306 5.52 16.8659 3.17177 17.6118 3.02118C18.1153 2.92235 18.6329 3.41883 18.92 3.74824C19.0541 3.90824 19.3012 3.94353 19.4612 3.80706C19.7294 3.57883 19.9082 3.29647 20.0071 2.9553C20.16 2.25177 19.6541 0.771767 20.4071 0.960002C21.0353 1.11765 20.8353 2.61883 20.7694 3.03059C20.7576 3.10588 20.7576 3.17883 20.7647 3.25177L20.9576 4.85412C20.9812 5.04941 20.9294 5.24706 20.8165 5.40706L20.0353 6.49647Z" fill="#F7D2A1"/>
<g opacity="0.25">
<path d="M15.9412 10.6495C16.6376 10.6872 17.3576 10.6801 18.0094 10.4307C18.6612 10.1813 19.24 9.64013 19.3624 8.95307C19.44 8.51307 19.3294 8.06131 19.3412 7.61425C19.3624 6.87307 19.7176 6.19072 20.0306 5.51778C20.3435 4.84484 20.6259 4.10837 20.4894 3.37896C20.3365 3.72013 20.0329 3.98837 19.6776 4.10366C19.3224 4.21896 18.92 4.1766 18.5953 3.99072C18.4259 3.89425 18.2753 3.76013 18.0894 3.70131C17.6565 3.56719 17.2094 3.90366 16.9812 4.29425C16.7529 4.68484 16.6541 5.14366 16.4094 5.52484C16.1624 5.90366 15.6706 6.19778 15.2635 6.00484C14.9741 5.86601 14.8306 5.53425 14.7624 5.22131C14.6941 4.90837 14.6729 4.57425 14.52 4.2919C14.3671 4.00954 14.0188 3.79307 13.7247 3.92248C13.4165 4.0566 13.3106 4.4919 12.9906 4.59307C12.6729 4.69425 12.3718 4.40484 12.1929 4.12484C11.8541 3.59072 11.6471 2.9719 11.5976 2.34131C11.5035 2.79072 11.4071 3.24248 11.3129 3.6919C11.1882 4.28484 11.0871 4.97896 11.4847 5.43543C11.7082 5.6919 12.0541 5.82366 12.2518 6.09896C12.5529 6.51778 12.4071 7.08954 12.3694 7.60484C12.3059 8.47072 12.6188 9.35072 13.1882 10.0025C13.3341 10.1695 13.4941 10.3178 13.6706 10.4542C13.8941 10.626 13.9953 10.6048 14.2753 10.5907C14.8282 10.5625 15.3859 10.619 15.9412 10.6495Z" fill="white"/>
</g>
<path d="M18.0776 8.69417C18.0471 9.18122 17.7882 9.64711 17.3906 9.92946C16.9929 10.2165 16.4871 10.2918 16 10.2918C15.5129 10.2918 15.0023 10.2165 14.6094 9.92946C14.2118 9.64711 13.9529 9.17887 13.9223 8.69181C13.9153 8.56946 13.9176 8.44475 13.9623 8.32711C14.0094 8.21417 14.0965 8.10593 14.2094 8.06358C14.3553 8.00946 14.52 8.05652 14.6541 8.13417C14.7882 8.21181 14.9059 8.3177 15.04 8.3977C15.3341 8.56711 15.6588 8.53887 16.0023 8.53887C16.3412 8.53887 16.6706 8.56711 16.9647 8.3977C17.0988 8.32005 17.2165 8.21417 17.3506 8.13417C17.4847 8.05652 17.6494 8.00946 17.7953 8.06358C17.9082 8.10593 17.9953 8.21181 18.0376 8.32711C18.0823 8.44475 18.0871 8.57181 18.0776 8.69417Z" fill="#ECC58C"/>
<path d="M18.3035 11.3976C16.8494 11.9317 15.2118 11.9576 13.7435 11.4705C13.5835 11.4187 13.4188 11.5293 13.4188 11.6987V12.3976C13.4188 12.5011 13.4824 12.5929 13.5788 12.6282C15.1506 13.1952 16.9318 13.1646 18.4847 12.5434C18.5765 12.5058 18.6376 12.414 18.6376 12.3152V11.6234C18.6353 11.4517 18.4635 11.3387 18.3035 11.3976Z" fill="#F7D2A1"/>
<g opacity="0.25">
<path d="M14.7859 11.8376C15.9765 11.9835 17.2094 12.0447 18.3553 11.6917C18.4565 11.8541 18.3647 12.0752 18.2282 12.2117C18.0447 12.3929 17.7906 12.487 17.5435 12.5599C16.3529 12.9129 15.0635 12.9247 13.8659 12.5952C13.7576 12.5647 13.6423 12.527 13.5765 12.4376C13.4965 12.3294 13.5106 12.1811 13.5294 12.047C13.5435 11.9458 13.5294 11.7505 13.6141 11.6776C13.6918 11.6117 13.8094 11.6588 13.8941 11.6799C14.1859 11.7552 14.4847 11.7999 14.7859 11.8376Z" fill="white"/>
</g>
<g opacity="0.25">
<path d="M16.1859 27.2235L17.2659 29.8329C17.4306 30.2305 17.8635 30.4493 18.28 30.3388C18.8235 30.1929 19.3365 29.9717 19.7247 29.5176C19.8988 29.3152 20.0188 29.0635 20.0565 28.7999C20.1859 27.8329 19.3247 27.4188 18.8141 26.7905C18.1859 26.0164 18.1176 24.9435 18.0753 23.9458C17.9247 20.3176 17.7741 16.6893 17.6212 13.0611C17.6071 12.7364 17.5882 12.3929 17.4 12.1293C17 11.5646 16.0847 11.654 15.4918 11.6588C15.2141 11.6611 14.9365 11.6964 14.68 11.8093C13.6235 12.2729 13.8259 13.327 13.9835 14.2046C14.3294 16.1364 14.2494 18.1152 14.1694 20.0729C14.0941 21.8776 14.0212 23.6823 13.9459 25.4893C13.9035 26.5082 13.7671 27.694 12.8965 28.2235C12.6165 28.3929 12.2588 28.4988 12.1223 28.7976C11.9365 29.2023 12.2918 29.6423 12.64 29.9199C13.0612 30.2588 13.7318 30.454 14.2447 30.6446C14.8494 30.8682 14.7223 30.7788 14.8612 30.2329C14.9976 29.6893 15.1671 29.1576 15.3953 28.6446C15.4823 28.4423 16.2353 27.3411 16.1859 27.2235Z" fill="white"/>
</g>
</svg>
