<svg width="22" height="22" viewBox="0 0 22 22" fill="none" xmlns="http://www.w3.org/2000/svg">
<g clip-path="url(#clip0_773_2209)">
<path fill-rule="evenodd" clip-rule="evenodd" d="M13.7974 19.9013C13.7974 20.6504 13.2078 21.263 12.4868 21.263H1.76222C1.04116 21.263 0.45163 20.6504 0.45163 19.9001V9.33994C0.45163 8.67246 0.724481 8.09879 1.23357 7.69561L3.28714 6.06834V2.84912H10.9618V6.06834L13.0142 7.69441C13.5245 8.09879 13.7974 8.67246 13.7974 9.33994V19.9013Z" fill="#00AEE3"/>
<path fill-rule="evenodd" clip-rule="evenodd" d="M1.56491 21.2472C0.936403 21.1486 0.45163 20.5809 0.45163 19.9001V9.33994C0.45163 8.67246 0.724481 8.09878 1.23357 7.69561L3.28714 6.06834V2.84912H4.24083V6.76379L2.18847 8.39106C1.67813 8.79544 1.40528 9.36911 1.40528 10.0354V20.5968C1.40532 20.8319 1.4626 21.0536 1.56491 21.2472Z" fill="#009DCC"/>
<path fill-rule="evenodd" clip-rule="evenodd" d="M0.45163 9.84668H13.7974V18.5347H0.45163V9.84668Z" fill="#DFF6FD"/>
<path fill-rule="evenodd" clip-rule="evenodd" d="M2.81216 4.57014H11.5222C12.0228 4.57014 12.4332 4.15966 12.4332 3.65908V1.21209C12.4332 0.71026 12.0228 0.301025 11.5222 0.301025H2.81216C2.31033 0.301025 1.90109 0.71026 1.90109 1.21209V3.65908C1.90109 4.15966 2.31033 4.57014 2.81216 4.57014Z" fill="#92D028"/>
<path fill-rule="evenodd" clip-rule="evenodd" d="M6.22139 11.4141H8.02767V13.2886H9.90098V15.0937H8.02767V16.9682H6.22139V15.0937H4.34808V13.2886H6.22139V11.4141Z" fill="#92D028"/>
<path fill-rule="evenodd" clip-rule="evenodd" d="M6.22139 11.4141H7.12391V16.9682H6.22139V15.0937H4.34808V13.2886H6.22139V11.4141Z" fill="#87C221"/>
<path fill-rule="evenodd" clip-rule="evenodd" d="M21.5037 11.4714C21.7863 13.6796 20.7181 16.4482 18.5074 18.6588C16.298 20.8683 13.5294 21.9377 11.32 21.6539C10.6866 21.5735 10.2043 21.0912 10.1239 20.4578C9.84009 18.2484 10.9095 15.4798 13.119 13.2704C15.3297 11.0597 18.0982 9.99147 20.3065 10.2741C20.9398 10.3557 21.4221 10.838 21.5037 11.4714Z" fill="#AF6656"/>
<path fill-rule="evenodd" clip-rule="evenodd" d="M0.45163 9.84668H1.42483V18.5347H0.45163V9.84668Z" fill="#BAE7F5"/>
<path fill-rule="evenodd" clip-rule="evenodd" d="M11.197 21.6332C10.6245 21.509 10.1994 21.0486 10.1239 20.4578C9.84009 18.2484 10.9095 15.4798 13.119 13.2704C15.3297 11.0597 18.0982 9.99147 20.3065 10.2741C20.6804 10.3216 21.002 10.5092 21.2187 10.7857C21.1785 10.7772 21.1371 10.7699 21.0945 10.7637C18.8863 10.4812 16.1177 11.5493 13.907 13.76C11.6976 15.9707 10.6281 18.7393 10.9119 20.9475C10.9448 21.2069 11.0459 21.442 11.197 21.6332Z" fill="#9E5C4D"/>
<path fill-rule="evenodd" clip-rule="evenodd" d="M10.9314 16.3142L15.4636 20.8464C14.9874 21.0766 14.5075 21.2606 14.0337 21.3994L10.3784 17.7441C10.5173 17.2703 10.7012 16.7904 10.9314 16.3142Z" fill="#F2E7DC"/>
<path fill-rule="evenodd" clip-rule="evenodd" d="M17.5939 10.5298L21.248 14.1838C21.1103 14.6588 20.9252 15.1375 20.6962 15.6138L16.164 11.0815C16.6402 10.8526 17.1189 10.6675 17.5939 10.5298Z" fill="#F2E7DC"/>
<path fill-rule="evenodd" clip-rule="evenodd" d="M10.9314 16.3142L11.6245 17.0073C11.4015 17.4957 11.2274 17.9853 11.1032 18.4689L10.3784 17.7442L10.3858 17.7223C10.5258 17.2435 10.7134 16.7661 10.9314 16.3142Z" fill="#DAD0C6"/>
<path fill-rule="evenodd" clip-rule="evenodd" d="M17.5939 10.5298L18.153 11.0889C17.6877 11.2387 17.2176 11.4335 16.7523 11.6711L16.164 11.0815C16.6268 10.8599 17.1006 10.6735 17.5939 10.5298Z" fill="#DAD0C6"/>
</g>
<defs>
<clipPath id="clip0_773_2209">
<rect width="22" height="22" fill="white"/>
</clipPath>
</defs>
</svg>
