<svg width="29" height="29" viewBox="0 0 29 29" fill="none" xmlns="http://www.w3.org/2000/svg">
<path d="M24.5573 6.69903C25.8193 7.96103 26.2371 9.74647 25.8134 11.3563C27.2514 12.1951 28.2184 13.7531 28.2184 15.5378C28.2184 17.3226 27.2514 18.8806 25.8134 19.7193C26.2371 21.3292 25.8193 23.1147 24.5573 24.3767C23.2953 25.6387 21.5098 26.0565 19.8999 25.6328C19.0612 27.0708 17.5032 28.0378 15.7184 28.0378C13.9337 28.0378 12.3757 27.0708 11.5369 25.6328C9.92707 26.0565 8.14163 25.6387 6.87963 24.3767C5.61763 23.1147 5.19976 21.3292 5.62344 19.7193C4.18544 18.8806 3.21844 17.3226 3.21844 15.5378C3.21844 13.7531 4.18544 12.1951 5.62344 11.3563C5.19976 9.74647 5.61763 7.96103 6.87963 6.69903C8.14163 5.43703 9.92707 5.01915 11.5369 5.44284C12.3757 4.00484 13.9337 3.03784 15.7184 3.03784C17.5032 3.03784 19.0612 4.00484 19.8999 5.44278C21.5098 5.01909 23.2953 5.43697 24.5573 6.69903Z" fill="#FD77A6"/>
<path d="M9.12381 11.7148C9.64158 11.7148 10.0613 11.2951 10.0613 10.7773C10.0613 10.2596 9.64158 9.83984 9.12381 9.83984C8.60604 9.83984 8.18631 10.2596 8.18631 10.7773C8.18631 11.2951 8.60604 11.7148 9.12381 11.7148Z" fill="#FE3D97"/>
<path d="M17.7143 6.69903C18.3419 6.0714 19.0993 5.65353 19.8999 5.44284C19.0612 4.00484 17.5032 3.03784 15.7184 3.03784C13.9337 3.03784 12.3757 4.00484 11.5369 5.44284C12.3376 5.65353 13.0949 6.0714 13.7226 6.69903C15.0472 8.02372 15.4429 9.92528 14.9101 11.595C14.7351 12.1435 15.1298 12.7138 15.7056 12.7153H15.7184H15.7312C16.3069 12.7138 16.7017 12.1435 16.5267 11.595C15.9939 9.92528 16.3896 8.02372 17.7143 6.69903Z" fill="#FE3D97"/>
<path d="M24.5573 17.5336C25.1849 18.1612 25.6028 18.9186 25.8135 19.7192C27.2515 18.8805 28.2185 17.3225 28.2185 15.5377C28.2185 13.753 27.2515 12.195 25.8135 11.3562C25.6028 12.1568 25.1849 12.9142 24.5573 13.5418C23.2326 14.8665 21.331 15.2622 19.6613 14.7294C19.1128 14.5543 18.5425 14.9491 18.541 15.5248V15.5376V15.5505C18.5425 16.1262 19.1128 16.521 19.6613 16.346C21.331 15.8132 23.2326 16.2089 24.5573 17.5336Z" fill="#FE3D97"/>
<path d="M6.87963 17.5336C6.25201 18.1612 5.83413 18.9186 5.62344 19.7192C4.18544 18.8805 3.21844 17.3225 3.21844 15.5377C3.21844 13.753 4.18544 12.195 5.62344 11.3562C5.83413 12.1568 6.25201 12.9142 6.87963 13.5418C8.20432 14.8665 10.1059 15.2622 11.7756 14.7294C12.3241 14.5543 12.8944 14.9491 12.8959 15.5248V15.5376V15.5505C12.8944 16.1262 12.3241 16.521 11.7756 16.346C10.1059 15.8132 8.20432 16.2089 6.87963 17.5336Z" fill="#FE3D97"/>
<path d="M17.7143 24.3766C18.3419 25.0042 19.0993 25.4221 19.8999 25.6328C19.0612 27.0708 17.5032 28.0378 15.7184 28.0378C13.9337 28.0378 12.3757 27.0708 11.5369 25.6328C12.3376 25.4221 13.0949 25.0042 13.7226 24.3766C15.0472 23.0519 15.4429 21.1504 14.9101 19.4807C14.7351 18.9322 15.1298 18.3619 15.7056 18.3604H15.7184H15.7312C16.3069 18.3619 16.7017 18.9321 16.5267 19.4807C15.9939 21.1504 16.3896 23.0519 17.7143 24.3766Z" fill="#FE3D97"/>
<path d="M14.6061 14.9817C14.9133 14.9817 15.1622 14.7327 15.1622 14.4256C15.1622 14.1184 15.4112 13.8694 15.7184 13.8694C16.0256 13.8694 16.2745 14.1184 16.2745 14.4256C16.2745 14.7328 16.5235 14.9817 16.8306 14.9817C17.1377 14.9817 17.3867 15.2307 17.3867 15.5378C17.3867 15.845 17.1377 16.0939 16.8306 16.0939C16.5235 16.0939 16.2745 16.3429 16.2745 16.6501C16.2745 16.9573 16.0255 17.2062 15.7184 17.2062C15.4112 17.2062 15.1622 16.9572 15.1622 16.6501C15.1622 16.3429 14.9132 16.0939 14.6061 16.0939C14.2989 16.0939 14.0499 15.8449 14.0499 15.5378C14.05 15.2307 14.299 14.9817 14.6061 14.9817Z" fill="#FE3D97"/>
<path d="M16.0724 15.8917C15.8769 16.0872 15.56 16.0872 15.3645 15.8917L10.4094 10.9365C10.2139 10.741 10.2139 10.4242 10.4094 10.2287C10.6049 10.0332 10.9218 10.0332 11.1173 10.2287L16.0724 15.1838C16.2679 15.3793 16.2679 15.6962 16.0724 15.8917Z" fill="white"/>
<path d="M12.0611 11.8804C11.6702 12.2714 11.0363 12.2714 10.6454 11.8804L8.52176 9.75681L9.93751 8.34106L12.0611 10.4647C12.4521 10.8556 12.4521 11.4894 12.0611 11.8804Z" fill="#E8F8FC"/>
<path d="M11.3533 11.1727C11.6151 11.4346 11.9858 11.5201 12.3196 11.4311C12.2758 11.5957 12.1902 11.7514 12.0611 11.8806C11.6702 12.2715 11.0363 12.2715 10.6454 11.8806L8.52176 9.75695L9.22963 9.04907L11.3533 11.1727Z" fill="#ADE9F7"/>
<path d="M0 2.65081L7.34194 9.99281C8.12381 10.7747 9.3915 10.7747 10.1734 9.99281C10.9553 9.21094 10.9553 7.94325 10.1734 7.16131L3.01206 0C1.89512 0.749188 0.8825 1.64156 0 2.65081Z" fill="#ADE9F7"/>
<path d="M0 2.65079L7.34194 9.99279C8.12381 10.7747 9.39156 10.7747 10.1734 9.99279C10.4314 9.73485 10.6037 9.42385 10.6914 9.09504C10.0236 9.27329 9.28162 9.10098 8.75769 8.57704L1.41331 1.23267C0.912 1.67429 0.43975 2.14785 0 2.65079Z" fill="#6AD9FB"/>
<path d="M20.6698 9.26758C21.1876 9.26758 21.6073 8.84785 21.6073 8.33008C21.6073 7.81231 21.1876 7.39258 20.6698 7.39258C20.152 7.39258 19.7323 7.81231 19.7323 8.33008C19.7323 8.84785 20.152 9.26758 20.6698 9.26758Z" fill="#FE3D97"/>
<path d="M20.6698 23.2629C21.1876 23.2629 21.6073 22.8432 21.6073 22.3254C21.6073 21.8077 21.1876 21.3879 20.6698 21.3879C20.152 21.3879 19.7323 21.8077 19.7323 22.3254C19.7323 22.8432 20.152 23.2629 20.6698 23.2629Z" fill="#FE3D97"/>
<path d="M10.0613 20.2354C10.5791 20.2354 10.9988 19.8156 10.9988 19.2979C10.9988 18.7801 10.5791 18.3604 10.0613 18.3604C9.54354 18.3604 9.12381 18.7801 9.12381 19.2979C9.12381 19.8156 9.54354 20.2354 10.0613 20.2354Z" fill="#FE3D97"/>
<path d="M26.1622 17.5459C26.68 17.5459 27.0997 17.1262 27.0997 16.6084C27.0997 16.0906 26.68 15.6709 26.1622 15.6709C25.6444 15.6709 25.2247 16.0906 25.2247 16.6084C25.2247 17.1262 25.6444 17.5459 26.1622 17.5459Z" fill="#FF0363"/>
<path d="M16.6559 26.5208C17.1737 26.5208 17.5934 26.101 17.5934 25.5833C17.5934 25.0655 17.1737 24.6458 16.6559 24.6458C16.1382 24.6458 15.7184 25.0655 15.7184 25.5833C15.7184 26.101 16.1382 26.5208 16.6559 26.5208Z" fill="#FF0363"/>
<path d="M23.1322 10.4648C23.4774 10.4648 23.7572 10.185 23.7572 9.83984C23.7572 9.49467 23.4774 9.21484 23.1322 9.21484C22.787 9.21484 22.5072 9.49467 22.5072 9.83984C22.5072 10.185 22.787 10.4648 23.1322 10.4648Z" fill="#FE3D97"/>
<path d="M24.1983 20.9692C24.5435 20.9692 24.8233 20.6894 24.8233 20.3442C24.8233 19.9991 24.5435 19.7192 24.1983 19.7192C23.8531 19.7192 23.5733 19.9991 23.5733 20.3442C23.5733 20.6894 23.8531 20.9692 24.1983 20.9692Z" fill="#FE3D97"/>
<path d="M20.9823 19.6104C21.3275 19.6104 21.6073 19.3305 21.6073 18.9854C21.6073 18.6402 21.3275 18.3604 20.9823 18.3604C20.6371 18.3604 20.3573 18.6402 20.3573 18.9854C20.3573 19.3305 20.6371 19.6104 20.9823 19.6104Z" fill="#FE3D97"/>
<path d="M7.84344 21.3594C8.18862 21.3594 8.46844 21.0796 8.46844 20.7344C8.46844 20.3892 8.18862 20.1094 7.84344 20.1094C7.49827 20.1094 7.21844 20.3892 7.21844 20.7344C7.21844 21.0796 7.49827 21.3594 7.84344 21.3594Z" fill="#FE3D97"/>
<path d="M26.1622 14.5371C26.5074 14.5371 26.7872 14.2573 26.7872 13.9121C26.7872 13.5669 26.5074 13.2871 26.1622 13.2871C25.817 13.2871 25.5372 13.5669 25.5372 13.9121C25.5372 14.2573 25.817 14.5371 26.1622 14.5371Z" fill="#FF0363"/>
<path d="M17.3869 5.46826C17.7321 5.46826 18.0119 5.18844 18.0119 4.84326C18.0119 4.49808 17.7321 4.21826 17.3869 4.21826C17.0418 4.21826 16.7619 4.49808 16.7619 4.84326C16.7619 5.18844 17.0418 5.46826 17.3869 5.46826Z" fill="#FF0363"/>
<path d="M15.3721 6.53101C15.7172 6.53101 15.9971 6.25118 15.9971 5.90601C15.9971 5.56083 15.7172 5.28101 15.3721 5.28101C15.0269 5.28101 14.7471 5.56083 14.7471 5.90601C14.7471 6.25118 15.0269 6.53101 15.3721 6.53101Z" fill="#FF0363"/>
<path d="M5.69876 16.6084C6.04394 16.6084 6.32376 16.3286 6.32376 15.9834C6.32376 15.6382 6.04394 15.3584 5.69876 15.3584C5.35358 15.3584 5.07376 15.6382 5.07376 15.9834C5.07376 16.3286 5.35358 16.6084 5.69876 16.6084Z" fill="#FF0363"/>
<path d="M11.5369 23.5754C11.8821 23.5754 12.1619 23.2956 12.1619 22.9504C12.1619 22.6053 11.8821 22.3254 11.5369 22.3254C11.1917 22.3254 10.9119 22.6053 10.9119 22.9504C10.9119 23.2956 11.1917 23.5754 11.5369 23.5754Z" fill="#FE3D97"/>
</svg>
