<svg width="32" height="32" viewBox="0 0 32 32" fill="none" xmlns="http://www.w3.org/2000/svg">
<g clip-path="url(#clip0_686_4456)">
<path fill-rule="evenodd" clip-rule="evenodd" d="M17.579 0.386512L30.4007 6.97333C31.4051 7.48868 31.9842 8.37443 31.9842 9.41319V22.5868C31.9842 23.6175 31.4051 24.5113 30.4007 25.0267L17.579 31.6135C16.5746 32.1288 15.4164 32.1288 14.412 31.6135L1.59026 25.0267C0.585879 24.5113 0.0067749 23.6256 0.0067749 22.5868V9.41319C0.0067749 8.38249 0.585879 7.48868 1.59026 6.97333L14.412 0.386512C15.4164 -0.128837 16.5746 -0.128837 17.579 0.386512Z" fill="#4DB5FF"/>
<path fill-rule="evenodd" clip-rule="evenodd" d="M0.0158234 18.6411C2.61274 19.0679 5.51732 19.5269 7.21843 20.2113C9.63439 21.1776 23.8405 20.0744 31.9842 19.4463V22.5868C31.9842 23.6175 31.4051 24.5113 30.4007 25.0266L17.579 31.6134C16.5746 32.1288 15.4164 32.1288 14.412 31.6134L1.59026 25.0266C0.585879 24.5113 0.0067749 23.6255 0.0067749 22.5868V18.6411H0.0158234Z" fill="#FED198"/>
<path d="M5.77068 21.234C5.87926 21.073 5.3454 20.5657 4.97441 21.7977C4.94727 21.8863 5.29111 22.3211 5.55352 21.6528L5.77068 21.226V21.234ZM5.6621 23.4807C5.56257 23.2874 4.68486 23.2069 5.62591 24.2537C5.71639 24.3584 6.36788 24.4711 5.9426 23.9155L5.67115 23.4807H5.6621ZM7.71611 25.3327C7.59848 25.2763 6.52171 25.2924 8.25902 26.0171C8.32236 26.0413 9.20911 26.0413 8.19568 25.5743L7.70706 25.3327H7.71611ZM10.8378 26.4278C10.7202 26.4037 9.83346 26.6211 11.2903 26.8787C12.2947 27.0559 12.1408 26.6613 11.6975 26.5889L10.8288 26.4278H10.8378ZM14.3487 26.8304C14.2401 26.8304 13.4438 27.1928 14.9821 27.1767C16.0317 27.1686 15.7059 26.8143 15.2173 26.8304H14.3487ZM17.8957 26.5889C17.8233 26.5969 17.0542 27.1606 18.9001 26.758C19.3525 26.6613 19.452 26.2829 18.5834 26.46L17.9047 26.5889H17.8957ZM21.1622 25.6709C21.0174 25.7353 20.7822 26.3956 22.3113 25.534C22.4109 25.4776 22.5647 24.9784 21.6961 25.4132L21.1622 25.6628V25.6709ZM23.5781 24.0041C23.4515 24.149 23.8767 24.7046 24.4649 23.4968C24.5011 23.4162 24.2477 22.9411 23.8586 23.6095L23.5781 24.0041ZM24.0758 21.7816C24.1391 21.9668 25.0078 22.152 24.2387 21.0166C24.1753 20.92 23.5329 20.7268 23.8767 21.3468L24.0668 21.7816H24.0758Z" fill="#FEFEFE"/>
<path fill-rule="evenodd" clip-rule="evenodd" d="M6.8746 22.2968L11.2631 22.2163L14.593 22.5545L12.7742 22.9732L6.8746 22.2968Z" fill="#FF7069"/>
<path fill-rule="evenodd" clip-rule="evenodd" d="M19.1263 10.0171L21.5151 11.241C21.9856 11.9174 21.9856 12.626 21.5965 13.3588L17.8414 19.1645C14.6653 24.0765 11.0912 22.4418 11.0912 22.4418L19.1263 10.0171ZM19.9316 10.8787L20.8455 11.3538L16.4298 18.0694C15.9593 18.7941 15.0454 18.3191 15.5159 17.5943L19.9316 10.8787Z" fill="#ECF0F1"/>
<path fill-rule="evenodd" clip-rule="evenodd" d="M21.868 12.2314C21.8861 12.6019 21.7956 12.9723 21.5965 13.3588L17.8414 19.1645C14.6653 24.0764 11.0912 22.4418 11.0912 22.4418C14.8011 23.1987 17.1356 19.5591 17.1356 19.5591L21.877 12.2314H21.868Z" fill="#FEFEFE"/>
<path fill-rule="evenodd" clip-rule="evenodd" d="M27.9395 5.9103L25.2249 9.65464L22.6552 11.869C22.3385 12.1428 21.9132 12.0623 21.7594 11.9818L19.1353 10.637C18.6829 10.4035 18.5924 10.323 18.891 9.864L23.3429 2.9873C25.0621 3.72007 26.6094 4.71051 27.9395 5.90225V5.9103Z" fill="#3A3A3A"/>
<path fill-rule="evenodd" clip-rule="evenodd" d="M18.891 10.5163C18.8367 10.3955 18.891 10.2344 19.072 9.96064L23.5329 3.08394C23.4695 3.05978 23.4062 3.02757 23.3428 3.00342L18.891 9.88012C18.6557 10.2425 18.6648 10.3713 18.9 10.5243L18.891 10.5163Z" fill="#FFE978"/>
<path fill-rule="evenodd" clip-rule="evenodd" d="M20.0764 11.1364L15.7512 17.7152C15.5521 18.0212 15.5973 18.2869 15.7602 18.4318C15.4435 18.3835 15.2264 18.0373 15.5159 17.6024L19.8501 11.0156L20.0854 11.1364H20.0764Z" fill="#E4E7ED"/>
<path fill-rule="evenodd" clip-rule="evenodd" d="M22.0851 6.90091L25.0983 8.30202C25.2611 8.37449 25.3245 8.55164 25.243 8.69658C25.1616 8.83347 24.9625 8.88984 24.8087 8.81737L21.7956 7.41626C21.6327 7.34379 21.5694 7.16664 21.6508 7.02169C21.7322 6.8848 21.9313 6.82844 22.0851 6.90091ZM23.551 4.66236L26.5641 6.06347C26.727 6.13594 26.7903 6.31309 26.7089 6.45803C26.6275 6.59492 26.4284 6.65129 26.2746 6.57882L23.2614 5.17771C23.0986 5.10524 23.0352 4.92809 23.1166 4.78314C23.1981 4.64625 23.3972 4.58989 23.551 4.66236ZM22.818 5.78163L25.8312 7.18274C25.9941 7.25521 26.0574 7.43236 25.976 7.57731C25.8945 7.7142 25.6955 7.77056 25.5416 7.69809L22.5285 6.29698C22.3656 6.22451 22.3023 6.04736 22.3837 5.90242C22.4652 5.76553 22.6642 5.70916 22.818 5.78163Z" fill="white"/>
</g>
<defs>
<clipPath id="clip0_686_4456">
<rect width="32" height="32" fill="white"/>
</clipPath>
</defs>
</svg>
