<svg width="32" height="32" viewBox="0 0 32 32" fill="none" xmlns="http://www.w3.org/2000/svg">
<path d="M14.4979 27.7246C14.0664 27.7246 13.7166 27.3748 13.7166 26.9434V16.214C13.7166 14.8108 12.575 13.6692 11.1718 13.6692H8.82782C8.39638 13.6692 8.04657 13.3194 8.04657 12.8879C8.04657 12.4565 8.39638 12.1067 8.82782 12.1067H11.1718C13.4366 12.1067 15.2791 13.9492 15.2791 16.214V26.9434C15.2791 27.3749 14.9294 27.7246 14.4979 27.7246Z" fill="#6C6CFF"/>
<path d="M14.4979 27.7246C14.0664 27.7246 13.7166 27.3748 13.7166 26.9434V16.214C13.7166 14.8108 12.575 13.6692 11.1718 13.6692H8.82782C8.39638 13.6692 8.04657 13.3194 8.04657 12.8879C8.04657 12.4565 8.39638 12.1067 8.82782 12.1067H11.1718C13.4366 12.1067 15.2791 13.9492 15.2791 16.214V26.9434C15.2791 27.3749 14.9294 27.7246 14.4979 27.7246Z" fill="url(#paint0_linear_686_3917)"/>
<path d="M12.0867 8.2222C12.0868 6.90408 11.4612 5.60477 10.2834 4.77245C8.33257 3.39389 5.60576 3.81927 4.19282 5.72258C2.64057 7.81358 1.82007 10.2858 1.82007 12.872C1.82007 15.4583 2.64057 17.9306 4.19288 20.0216C5.60588 21.9249 8.33269 22.3502 10.2835 20.9716C12.2344 19.593 12.6701 16.9323 11.2572 15.0292C10.7899 14.3997 10.5428 13.6537 10.5428 12.872C10.5428 12.0903 10.7898 11.3444 11.2573 10.7148C11.8171 9.96064 12.0866 9.08727 12.0867 8.2222Z" fill="#FF4D4D"/>
<path d="M11.1718 13.6693H8.82782C8.39632 13.6693 8.04657 13.3195 8.04657 12.8881C8.04657 12.4566 8.39632 12.1068 8.82782 12.1068H11.1718C12.575 12.1068 13.7166 10.9652 13.7166 9.56201C13.7166 9.13057 14.0664 8.78076 14.4979 8.78076C14.9293 8.78076 15.2791 9.13057 15.2791 9.56201C15.2791 11.8268 13.4366 13.6693 11.1718 13.6693Z" fill="#9494FF"/>
<path d="M9.62351 15.0292C9.15619 14.3997 8.90913 13.6537 8.90913 12.872C8.90913 12.0903 9.15613 11.3444 9.62357 10.7148H6.25557V15.0293H9.62351V15.0292Z" fill="#FF4D4D"/>
<path d="M8.75726 9.4474C9.67073 9.4474 10.4113 8.70688 10.4113 7.7934C10.4113 6.87993 9.67073 6.1394 8.75726 6.1394C7.84378 6.1394 7.10326 6.87993 7.10326 7.7934C7.10326 8.70688 7.84378 9.4474 8.75726 9.4474Z" fill="#FF6C6C"/>
<path d="M8.24049 10.004C8.38906 9.37553 8 8.7456 7.37151 8.59703C6.74302 8.44847 6.11309 8.83753 5.96453 9.46602C5.81596 10.0945 6.20502 10.7244 6.83351 10.873C7.462 11.0216 8.09193 10.6325 8.24049 10.004Z" fill="#FF9494"/>
<path d="M17.5021 27.7246C17.9336 27.7246 18.2834 27.3748 18.2834 26.9434V16.214C18.2834 14.8108 19.425 13.6692 20.8282 13.6692H23.1722C23.6036 13.6692 23.9534 13.3194 23.9534 12.8879C23.9534 12.4565 23.6036 12.1067 23.1722 12.1067H20.8282C18.5634 12.1067 16.7209 13.9492 16.7209 16.214V26.9434C16.7209 27.3749 17.0706 27.7246 17.5021 27.7246Z" fill="#6C6CFF"/>
<path d="M17.5021 27.7246C17.9336 27.7246 18.2834 27.3748 18.2834 26.9434V16.214C18.2834 14.8108 19.425 13.6692 20.8282 13.6692H23.1722C23.6036 13.6692 23.9534 13.3194 23.9534 12.8879C23.9534 12.4565 23.6036 12.1067 23.1722 12.1067H20.8282C18.5634 12.1067 16.7209 13.9492 16.7209 16.214V26.9434C16.7209 27.3749 17.0706 27.7246 17.5021 27.7246Z" fill="url(#paint1_linear_686_3917)"/>
<path d="M19.9133 8.2222C19.9132 6.90408 20.5388 5.60477 21.7166 4.77245C23.6675 3.39389 26.3943 3.81927 27.8072 5.72258C29.3595 7.81358 30.18 10.2858 30.18 12.872C30.18 15.4583 29.3595 17.9306 27.8071 20.0216C26.3941 21.9249 23.6673 22.3502 21.7166 20.9716C19.7657 19.593 19.3299 16.9323 20.7429 15.0292C21.2102 14.3997 21.4573 13.6537 21.4573 12.872C21.4573 12.0903 21.2103 11.3444 20.7428 10.7148C20.183 9.96064 19.9134 9.08727 19.9133 8.2222Z" fill="#FF4D4D"/>
<path d="M20.8282 13.6693H23.1722C23.6037 13.6693 23.9534 13.3195 23.9534 12.8881C23.9534 12.4566 23.6037 12.1068 23.1722 12.1068H20.8282C19.425 12.1068 18.2834 10.9652 18.2834 9.56201C18.2834 9.13057 17.9336 8.78076 17.5021 8.78076C17.0707 8.78076 16.7209 9.13057 16.7209 9.56201C16.7209 11.8268 18.5634 13.6693 20.8282 13.6693Z" fill="#9494FF"/>
<path d="M22.3765 15.0292C22.8438 14.3997 23.0909 13.6537 23.0909 12.872C23.0909 12.0903 22.8439 11.3444 22.3764 10.7148H25.7444V15.0293H22.3765V15.0292Z" fill="#FF4D4D"/>
<path d="M9.41345 13.9816L9.25751 13.3566C9.23407 13.1972 9.22164 13.0355 9.22164 12.8718C9.22164 12.7191 9.23257 12.568 9.25301 12.4191L9.40214 11.7941C9.51164 11.4774 9.66964 11.1768 9.87451 10.9009C9.97739 10.7623 9.94845 10.5665 9.80989 10.4637C9.67132 10.3608 9.47557 10.3898 9.3727 10.5283C8.91632 11.1431 8.65407 11.8603 8.60564 12.6158V13.1277C8.65407 13.8833 8.91632 14.6005 9.37264 15.2153C9.43395 15.2978 9.52826 15.3415 9.62382 15.3415C9.68857 15.3415 9.75389 15.3215 9.80989 15.28C9.94845 15.1771 9.97739 14.9814 9.87451 14.8428C9.67651 14.5761 9.52245 14.2865 9.41345 13.9816Z" fill="#FF2C2C"/>
<path d="M22.747 12.4192C22.7674 12.5681 22.7784 12.7192 22.7784 12.8719C22.7784 13.0355 22.7659 13.1973 22.7426 13.3567L22.5866 13.9817C22.4776 14.2866 22.3236 14.5762 22.1256 14.8428C22.0228 14.9814 22.0517 15.1772 22.1903 15.28C22.2463 15.3215 22.3115 15.3415 22.3763 15.3415C22.4718 15.3415 22.5662 15.2979 22.6275 15.2153C23.1351 14.5315 23.4034 13.7211 23.4034 12.8718C23.4034 12.0225 23.1351 11.2122 22.6274 10.5284C22.5246 10.3898 22.3289 10.3608 22.1903 10.4637C22.0517 10.5665 22.0228 10.7623 22.1256 10.9009C22.3305 11.1769 22.4884 11.4774 22.598 11.7941L22.747 12.4192Z" fill="#FF2C2C"/>
<path d="M23.2428 9.4474C24.1562 9.4474 24.8968 8.70688 24.8968 7.7934C24.8968 6.87993 24.1562 6.1394 23.2428 6.1394C22.3293 6.1394 21.5888 6.87993 21.5888 7.7934C21.5888 8.70688 22.3293 9.4474 23.2428 9.4474Z" fill="#FF6C6C"/>
<path d="M25.162 10.8605C25.7905 10.7119 26.1796 10.082 26.031 9.4535C25.8824 8.82501 25.2525 8.43595 24.624 8.58452C23.9955 8.73308 23.6065 9.36301 23.755 9.9915C23.9036 10.62 24.5335 11.009 25.162 10.8605Z" fill="#FF9494"/>
<path d="M8.64139 26.1694C8.46882 26.1694 8.32889 26.0295 8.32889 25.8569C8.32889 25.6386 8.15132 25.4611 7.93307 25.4611C7.76051 25.4611 7.62057 25.3212 7.62057 25.1486C7.62057 24.9759 7.76051 24.8361 7.93307 24.8361C8.15132 24.8361 8.32889 24.6584 8.32889 24.4402C8.32889 24.2676 8.46882 24.1277 8.64139 24.1277C8.81395 24.1277 8.95389 24.2676 8.95389 24.4402C8.95389 24.6584 9.13145 24.8361 9.3497 24.8361C9.52226 24.8361 9.6622 24.9759 9.6622 25.1486C9.6622 25.3212 9.52226 25.4611 9.3497 25.4611C9.13145 25.4611 8.95389 25.6386 8.95389 25.8569C8.95389 26.0295 8.81395 26.1694 8.64139 26.1694Z" fill="#6C6CFF"/>
<path d="M24.8968 25.4951C24.7243 25.4951 24.5843 25.3552 24.5843 25.1826C24.5843 24.9643 24.4068 24.7867 24.1885 24.7867C24.0159 24.7867 23.876 24.6468 23.876 24.4742C23.876 24.3016 24.0159 24.1617 24.1885 24.1617C24.4068 24.1617 24.5843 23.9841 24.5843 23.7659C24.5843 23.5932 24.7243 23.4534 24.8968 23.4534C25.0694 23.4534 25.2093 23.5932 25.2093 23.7659C25.2093 23.9841 25.3869 24.1617 25.6052 24.1617C25.7778 24.1617 25.9177 24.3016 25.9177 24.4742C25.9177 24.6468 25.7778 24.7867 25.6052 24.7867C25.3869 24.7867 25.2093 24.9643 25.2093 25.1826C25.2093 25.3552 25.0694 25.4951 24.8968 25.4951Z" fill="#FF4D4D"/>
<path d="M16 6.99701C15.8274 6.99701 15.6875 6.85713 15.6875 6.68451C15.6875 6.46626 15.5099 6.28863 15.2917 6.28863C15.1191 6.28863 14.9792 6.14876 14.9792 5.97613C14.9792 5.80351 15.1191 5.66363 15.2917 5.66363C15.5099 5.66363 15.6875 5.48607 15.6875 5.26782C15.6875 5.0952 15.8274 4.95532 16 4.95532C16.1726 4.95532 16.3125 5.0952 16.3125 5.26782C16.3125 5.48607 16.4901 5.66363 16.7083 5.66363C16.8809 5.66363 17.0208 5.80351 17.0208 5.97613C17.0208 6.14876 16.8809 6.28863 16.7083 6.28863C16.4901 6.28863 16.3125 6.46626 16.3125 6.68451C16.3125 6.85713 16.1726 6.99701 16 6.99701Z" fill="#FF4D4D"/>
<path d="M11.1338 22.7508C10.9612 22.7508 10.8213 22.611 10.8213 22.4383V22.429C10.8213 22.2563 10.9612 22.1165 11.1338 22.1165C11.3063 22.1165 11.4463 22.2563 11.4463 22.429V22.4383C11.4463 22.6109 11.3063 22.7508 11.1338 22.7508Z" fill="#FF9D33"/>
<path d="M11.1338 24.4874C10.9612 24.4874 10.8213 24.3475 10.8213 24.1749V24.1655C10.8213 23.9929 10.9612 23.853 11.1338 23.853C11.3063 23.853 11.4463 23.9929 11.4463 24.1655V24.1749C11.4463 24.3475 11.3063 24.4874 11.1338 24.4874Z" fill="#FF9D33"/>
<path d="M10.3856 23.1826C10.3324 23.1826 10.2786 23.169 10.2293 23.1404L10.2212 23.1358C10.0718 23.0493 10.0208 22.8581 10.1073 22.7088C10.1938 22.5594 10.3849 22.5083 10.5344 22.5949L10.5425 22.5996C10.6919 22.6861 10.7429 22.8772 10.6564 23.0266C10.5984 23.1266 10.4934 23.1826 10.3856 23.1826Z" fill="#FF9D33"/>
<path d="M11.8895 24.0509C11.8365 24.0509 11.7828 24.0374 11.7336 24.0091L11.7255 24.0044C11.576 23.9181 11.5247 23.727 11.611 23.5776C11.6971 23.4281 11.8883 23.3768 12.0378 23.463L12.0459 23.4677C12.1954 23.5539 12.2467 23.7451 12.1605 23.8945C12.1026 23.9948 11.9975 24.0509 11.8895 24.0509Z" fill="#FF9D33"/>
<path d="M10.3781 24.051C10.2702 24.051 10.1653 23.995 10.1073 23.895C10.0208 23.7456 10.0718 23.5545 10.2212 23.468L10.2293 23.4633C10.3788 23.3767 10.5699 23.4278 10.6564 23.5772C10.7429 23.7265 10.6919 23.9177 10.5425 24.0042L10.5344 24.0089C10.485 24.0374 10.4312 24.051 10.3781 24.051Z" fill="#FF9D33"/>
<path d="M11.8819 23.1826C11.7738 23.1826 11.6688 23.1266 11.6109 23.0262C11.5246 22.8767 11.5759 22.6856 11.7254 22.5994L11.7336 22.5947C11.8831 22.5083 12.0742 22.5597 12.1604 22.7093C12.2466 22.8588 12.1953 23.0498 12.0458 23.1361L12.0377 23.1408C11.9886 23.1691 11.9349 23.1826 11.8819 23.1826Z" fill="#FF9D33"/>
<path d="M18.6119 3.85312C18.4394 3.85312 18.2994 3.71325 18.2994 3.54062V3.53125C18.2994 3.35862 18.4394 3.21875 18.6119 3.21875C18.7845 3.21875 18.9244 3.35862 18.9244 3.53125V3.54062C18.9244 3.71325 18.7845 3.85312 18.6119 3.85312Z" fill="#6C6CFF"/>
<path d="M18.6119 5.5897C18.4394 5.5897 18.2994 5.44982 18.2994 5.2772V5.26782C18.2994 5.0952 18.4394 4.95532 18.6119 4.95532C18.7845 4.95532 18.9244 5.0952 18.9244 5.26782V5.2772C18.9244 5.44976 18.7845 5.5897 18.6119 5.5897Z" fill="#6C6CFF"/>
<path d="M17.8638 4.28491C17.8106 4.28491 17.7568 4.27134 17.7075 4.24278L17.6994 4.23809C17.55 4.15159 17.499 3.96047 17.5855 3.81109C17.672 3.66166 17.8631 3.61059 18.0125 3.69722L18.0206 3.70191C18.17 3.78841 18.2209 3.97953 18.1345 4.12891C18.0766 4.22897 17.9716 4.28491 17.8638 4.28491Z" fill="#6C6CFF"/>
<path d="M19.3677 5.1531C19.3153 5.1531 19.2621 5.13991 19.2134 5.11216L19.2053 5.10754C19.0553 5.02216 19.0029 4.83129 19.0883 4.68135C19.1737 4.53135 19.3646 4.4791 19.5144 4.56435L19.5226 4.56898C19.6726 4.65435 19.7249 4.84523 19.6396 4.99516C19.5819 5.09635 19.4763 5.1531 19.3677 5.1531Z" fill="#6C6CFF"/>
<path d="M17.8562 5.15318C17.7477 5.15318 17.6423 5.09662 17.5846 4.99562C17.499 4.8458 17.5511 4.65493 17.7009 4.5693L17.7091 4.56468C17.8589 4.47905 18.0498 4.53105 18.1354 4.68093C18.2211 4.83074 18.169 5.02161 18.0191 5.10724L18.011 5.11187C17.9621 5.13987 17.9088 5.15318 17.8562 5.15318Z" fill="#6C6CFF"/>
<path d="M19.3601 4.2849C19.2521 4.2849 19.147 4.22883 19.0891 4.12846C19.0029 3.97896 19.0542 3.7879 19.2037 3.70165L19.2118 3.69696C19.3613 3.61058 19.5524 3.66196 19.6386 3.81152C19.7249 3.96102 19.6736 4.15208 19.5241 4.23833L19.5159 4.24302C19.4667 4.2714 19.4131 4.2849 19.3601 4.2849Z" fill="#6C6CFF"/>
<defs>
<linearGradient id="paint0_linear_686_3917" x1="11.6629" y1="27.7247" x2="11.6629" y2="12.1068" gradientUnits="userSpaceOnUse">
<stop stop-color="#FF4D4D" stop-opacity="0.4"/>
<stop offset="1" stop-color="#FF4D4D" stop-opacity="0"/>
</linearGradient>
<linearGradient id="paint1_linear_686_3917" x1="20.3372" y1="27.7247" x2="20.3372" y2="12.1068" gradientUnits="userSpaceOnUse">
<stop stop-color="#FF4D4D" stop-opacity="0.4"/>
<stop offset="1" stop-color="#FF4D4D" stop-opacity="0"/>
</linearGradient>
</defs>
</svg>
