<svg width="32" height="32" viewBox="0 0 32 32" fill="none" xmlns="http://www.w3.org/2000/svg">
<path d="M20.8592 15.3979C20.8592 13.1235 19.0074 10.1275 17.4733 8.53509C13.6101 4.83097 6.91394 6.76484 6.91394 6.76484L3.55044 10.053C1.99619 11.8021 1.05219 14.1055 1.05219 16.6295C1.05219 20.2818 2.423 24.041 4.89425 26.9278C7.68662 29.7522 11.1687 31.6118 15.2122 31.6118C20.6824 31.6119 20.8592 24.465 20.8592 15.3979Z" fill="#FF4F4F"/>
<path d="M17.8783 9.30005C19.2858 10.972 20.1543 13.067 20.1543 15.3415C20.1543 24.4086 20.4211 30.9414 14.9509 30.9414C10.9074 30.9414 7.4707 29.3489 4.8942 26.9277C7.47132 29.9382 11.2453 31.9999 15.9126 31.9999C21.3829 31.9999 21.4422 25.6964 21.4422 16.6293C21.4422 14.8975 20.9388 13.2697 20.0773 11.8535C19.6476 10.8455 19.3254 9.94361 19.3254 9.94361C19.3254 9.94361 18.6891 9.58024 17.8783 9.30005Z" fill="#E70000"/>
<path d="M10.6276 25.316C8.69537 23.8049 7.1443 21.7712 6.13099 19.4554H8.00605C8.27274 19.4554 8.48893 19.2392 8.48893 18.9725C8.48893 18.7058 8.27274 18.4897 8.00605 18.4897H5.74518C5.60743 18.1085 5.4838 17.721 5.37524 17.3281C5.30424 17.0709 5.0383 16.9202 4.78118 16.9912C4.52412 17.0623 4.3733 17.3282 4.44437 17.5853C4.94512 19.3975 5.74555 21.1026 6.7893 22.616V25.2275C6.7893 25.4942 7.00549 25.7103 7.27218 25.7103C7.53887 25.7103 7.75505 25.4942 7.75505 25.2275V23.8795C8.44105 24.6907 9.2038 25.4287 10.0326 26.0768C10.1209 26.1459 10.2257 26.1793 10.3297 26.1793C10.4732 26.1793 10.6152 26.1157 10.7105 25.9939C10.8748 25.7838 10.8377 25.4803 10.6276 25.316Z" fill="#E70000"/>
<path d="M14.5873 25.6352L15.0191 28.6348C16.6742 29.0008 18.4807 28.3115 20.0618 27.3498L20.5281 23.1609C18.7592 24.2697 16.2667 25.4361 14.5873 25.6352Z" fill="#E70000"/>
<path d="M23.2903 17.1662L25.5633 18.5868L32 10.9145V9.00047C32 8.79972 31.7573 8.69915 31.6153 8.84109L23.2903 17.1662Z" fill="#B9C3CD"/>
<path d="M25.2674 17.6471L27.5514 17.1662L31.7171 13.0004C31.8982 12.8193 32 12.5737 32 12.3175V10.9146L25.2674 17.6471Z" fill="#A2ABB8"/>
<path d="M23.2902 17.1663L14.6706 25.7858V26.6364C17.1434 26.739 21.6546 23.1757 21.6546 23.1757L22.4954 21.3062L25.7483 17.1663H23.2902Z" fill="#C8D2DC"/>
<path d="M25.7484 17.1663L21.965 20.9497C21.8744 21.0403 21.8236 21.1631 21.8236 21.2911V21.7572C21.8026 21.9261 21.7248 22.0827 21.6024 22.2009C20.3036 23.4556 17.0351 26.2276 14.6706 26.5081V27.3777C17.0177 27.9061 21.0297 24.5266 22.5038 23.1025C22.6262 22.9843 22.7041 22.8276 22.725 22.6587V21.9926L27.5514 17.1663H25.7484Z" fill="#B9C3CD"/>
<path d="M14.6555 17.6457C14.3888 17.6457 14.1726 17.4295 14.1726 17.1628V16.3296C14.1726 16.0628 14.3888 15.8467 14.6555 15.8467C14.9221 15.8467 15.1383 16.0629 15.1383 16.3296V17.1628C15.1384 17.4295 14.9222 17.6457 14.6555 17.6457Z" fill="#D00000"/>
<path d="M14.6555 20.4106C14.3888 20.4106 14.1726 20.1944 14.1726 19.9277V19.0944C14.1726 18.8277 14.3888 18.6116 14.6555 18.6116C14.9221 18.6116 15.1383 18.8278 15.1383 19.0944V19.9277C15.1384 20.1944 14.9222 20.4106 14.6555 20.4106Z" fill="#D00000"/>
<path d="M14.6555 23.1757C14.3888 23.1757 14.1726 22.9595 14.1726 22.6928V21.8596C14.1726 21.5928 14.3888 21.3767 14.6555 21.3767C14.9221 21.3767 15.1383 21.5929 15.1383 21.8596V22.6928C15.1384 22.9595 14.9222 23.1757 14.6555 23.1757Z" fill="#D00000"/>
<path d="M14.6555 28.9172C14.3888 28.9172 14.1726 28.701 14.1726 28.4343V24.6247C14.1726 24.358 14.3888 24.1418 14.6555 24.1418C14.9221 24.1418 15.1383 24.358 15.1383 24.6247V28.4343C15.1384 28.701 14.9222 28.9172 14.6555 28.9172Z" fill="#D00000"/>
<path d="M8.56919 3.66504H1.54194C0.690375 3.66504 0 4.35541 0 5.20698C0 5.29354 0.0075 5.37835 0.0211875 5.46104L8.56919 6.74891C11.5334 6.74891 13.9449 9.39329 13.9449 12.6438C13.9449 12.7304 13.9524 12.8152 13.9661 12.8979L16 13.6479C16 13.6479 17.6248 6.43666 8.56919 3.66504Z" fill="#BAE6EF"/>
<path d="M0.0211792 5.46118C0.142367 6.19181 0.776929 6.74906 1.54193 6.74906H8.56918L9.22424 5.46118H0.0211792Z" fill="#94D8E6"/>
<path d="M8.56918 3.66504L9.22425 5.4611C13.0084 5.4611 15.7409 8.52773 15.7409 12.3129V12.415C15.7409 12.6817 15.5247 12.8979 15.2581 12.8979H13.9661C14.0899 13.6443 14.7494 14.2097 15.5364 14.185C16.3809 14.1585 17.0332 13.4367 17.0286 12.5918C17.0022 7.66466 13.2175 3.66504 8.56918 3.66504Z" fill="#94D8E6"/>
<path d="M11.6979 6.05798C13.3558 6.05373 17.5983 8.20548 17.5983 8.20548L17.8956 6.59354C17.2494 5.84291 16.485 5.20854 15.634 4.72448L16.3126 0.900727C15.827 0.679977 15.2544 0.894289 15.0335 1.37985L13.8531 3.97423C13.452 3.85935 13.0392 3.7751 12.617 3.72398L11.6979 0.00110161C11.1433 -0.0250234 10.6854 0.416914 10.6854 0.965789V3.72398C10.2632 3.7751 9.85049 3.85935 9.44936 3.97423L6.94755 0.921164C6.48505 1.1586 6.30674 1.73123 6.52199 2.20441L7.66849 4.72435C5.02124 6.23023 3.21174 9.18748 3.19186 12.5872C3.19136 12.6707 3.19749 12.753 3.20936 12.8335L4.89424 13.8146C4.89692 13.7399 5.77774 6.0731 11.6979 6.05798Z" fill="#D00000"/>
<path d="M17.8956 6.59338L17.6022 6.88675C17.2688 7.22019 16.7443 7.26294 16.3596 6.99031C15.0359 6.05206 13.3934 5.5 11.7355 5.5C7.61995 5.5 5.31107 8.197 4.76545 12.4701C4.76532 12.4708 4.76526 12.4716 4.76513 12.4724C4.73907 12.6784 4.56451 12.8334 4.35682 12.8334H3.20932C3.31832 13.5742 3.93007 14.1678 4.69763 14.1853C5.5657 14.2051 6.27557 13.5073 6.27557 12.6438C6.27557 9.53881 8.47601 6.98681 11.2567 6.76463C11.4917 6.74581 11.7282 6.75181 11.9628 6.77513C15.3173 7.10906 18.3879 9.07131 20.0783 11.8529C19.9116 9.83556 19.1134 8.00781 17.8956 6.59338Z" fill="#EF0000"/>
<path d="M15.6339 4.72439L16.7917 2.1797C17.0126 1.69413 16.7981 1.12151 16.3126 0.900635L14.9784 3.95557C14.8883 4.16188 14.9794 4.40201 15.1836 4.49707C15.3457 4.57251 15.5239 4.65926 15.6339 4.72439Z" fill="#EF0000"/>
<path d="M12.617 3.7241V0.993158C12.617 0.473158 12.2174 0.0256582 11.6979 0.0012207V3.26928C11.6979 3.48885 11.8691 3.66985 12.0883 3.68285C12.2394 3.69178 12.4227 3.70497 12.617 3.7241Z" fill="#EF0000"/>
<path d="M9.44938 3.97417L8.26901 1.37974C8.04157 0.879986 7.44157 0.667549 6.94763 0.921111L8.35444 3.94186C8.44419 4.13455 8.66501 4.2283 8.86569 4.1583C9.05051 4.09386 9.27438 4.0198 9.44938 3.97417Z" fill="#EF0000"/>
</svg>
