<svg width="60" height="60" viewBox="0 0 60 60" fill="none" xmlns="http://www.w3.org/2000/svg">
<g clip-path="url(#clip0_1293_8668)">
<ellipse cx="30" cy="30" rx="30" ry="30" transform="rotate(-90 30 30)" fill="#A21CAF"/>
<path d="M14.5088 37.5C14.2323 37.5 14.0088 37.2765 14.0088 37C14.0088 35.3455 15.3543 34 17.0088 34C17.2853 34 17.5088 34.2235 17.5088 34.5C17.5088 34.7765 17.2853 35 17.0088 35C15.9058 35 15.0088 35.897 15.0088 37C15.0088 37.2765 14.7848 37.5 14.5088 37.5Z" fill="white"/>
<path d="M18.5088 35H17.0088C16.7323 35 16.5088 34.7765 16.5088 34.5C16.5088 34.2235 16.7323 34 17.0088 34H18.5088C18.7853 34 19.0088 34.2235 19.0088 34.5C19.0088 34.7765 18.7848 35 18.5088 35Z" fill="white"/>
<path d="M14.5088 39C14.2323 39 14.0088 38.7765 14.0088 38.5V37C14.0088 36.7235 14.2323 36.5 14.5088 36.5C14.7853 36.5 15.0088 36.7235 15.0088 37V38.5C15.0088 38.7765 14.7848 39 14.5088 39Z" fill="white"/>
<path d="M15.0088 39.4999C14.4573 39.4999 14.0088 39.0514 14.0088 38.4999C14.0088 38.2344 14.2178 38.0429 14.4828 38.0284C14.7618 38.0099 14.9788 38.2364 15.0088 38.4994C15.2848 38.4994 15.5088 38.7234 15.5088 38.9994C15.5088 39.2759 15.2848 39.4999 15.0088 39.4999Z" fill="white"/>
<path d="M26.5088 37.5C26.2323 37.5 26.0088 37.2765 26.0088 37C26.0088 35.897 25.1118 35 24.0088 35C23.7323 35 23.5088 34.7765 23.5088 34.5C23.5088 34.2235 23.7323 34 24.0088 34C25.6633 34 27.0088 35.3455 27.0088 37C27.0088 37.2765 26.7848 37.5 26.5088 37.5Z" fill="white"/>
<path d="M24.0088 35H22.5088C22.2323 35 22.0088 34.7765 22.0088 34.5C22.0088 34.2235 22.2323 34 22.5088 34H24.0088C24.2853 34 24.5088 34.2235 24.5088 34.5C24.5088 34.7765 24.2848 35 24.0088 35Z" fill="white"/>
<path d="M26.5088 39C26.2323 39 26.0088 38.7765 26.0088 38.5V37C26.0088 36.7235 26.2323 36.5 26.5088 36.5C26.7853 36.5 27.0088 36.7235 27.0088 37V38.5C27.0088 38.7765 26.7848 39 26.5088 39Z" fill="white"/>
<path d="M26.0088 39.5C25.7323 39.5 25.5088 39.2765 25.5088 39C25.5088 38.7235 25.7323 38.5 26.0088 38.5C26.0088 38.2235 26.2323 38 26.5088 38C26.7853 38 27.0088 38.2235 27.0088 38.5C27.0088 39.0515 26.5598 39.5 26.0088 39.5Z" fill="white"/>
<path d="M26.0088 39.5H15.0088C14.7323 39.5 14.5088 39.2765 14.5088 39C14.5088 38.7235 14.7323 38.5 15.0088 38.5H26.0088C26.2853 38.5 26.5088 38.7235 26.5088 39C26.5088 39.2765 26.2848 39.5 26.0088 39.5Z" fill="white"/>
<path d="M18.5088 34.9993C18.2323 34.9993 18.0088 34.7758 18.0088 34.4993V32.5312C18.0088 32.2548 18.2323 32.0312 18.5088 32.0312C18.7853 32.0312 19.0088 32.2548 19.0088 32.5312V34.4993C19.0088 34.7758 18.7848 34.9993 18.5088 34.9993Z" fill="white"/>
<path d="M22.5088 34.9993C22.2323 34.9993 22.0088 34.7758 22.0088 34.4993V32.5312C22.0088 32.2548 22.2323 32.0312 22.5088 32.0312C22.7853 32.0312 23.0088 32.2548 23.0088 32.5312V34.4993C23.0088 34.7758 22.7848 34.9993 22.5088 34.9993Z" fill="white"/>
<path d="M20.5083 33.501C17.7513 33.501 15.5088 31.2585 15.5088 28.502C15.5088 28.2255 15.7323 28.002 16.0088 28.002C16.2853 28.002 16.5088 28.2255 16.5088 28.502C16.5088 30.707 18.3028 32.501 20.5083 32.501C22.7143 32.501 24.5088 30.707 24.5088 28.502C24.5088 28.2255 24.7323 28.002 25.0088 28.002C25.2853 28.002 25.5088 28.2255 25.5088 28.502C25.5088 31.2585 23.2653 33.501 20.5083 33.501Z" fill="white"/>
<path d="M16.0088 29.0255C15.7323 29.0255 15.5088 28.802 15.5088 28.5255V25.5C15.5088 25.224 15.7323 25 16.0088 25C16.2853 25 16.5088 25.224 16.5088 25.5V28.5255C16.5088 28.802 16.2848 29.0255 16.0088 29.0255Z" fill="white"/>
<path d="M25.0088 29.001C24.7323 29.001 24.5088 28.7775 24.5088 28.501V25.5C24.5088 25.224 24.7323 25 25.0088 25C25.2853 25 25.5088 25.224 25.5088 25.5V28.501C25.5088 28.7775 25.2848 29.001 25.0088 29.001Z" fill="white"/>
<path d="M25.0088 25.9995C24.7323 25.9995 24.5088 25.776 24.5088 25.4995C24.5088 24.6725 23.8358 24 23.0088 24C22.7323 24 22.5088 23.776 22.5088 23.5C22.5088 23.224 22.7323 23 23.0088 23C24.3873 23 25.5088 24.1215 25.5088 25.4995C25.5088 25.776 25.2848 25.9995 25.0088 25.9995Z" fill="white"/>
<path d="M23.0088 24C22.7323 24 22.5088 23.776 22.5088 23.5V21.5C22.5088 21.224 22.7323 21 23.0088 21C23.2853 21 23.5088 21.224 23.5088 21.5V23.5C23.5088 23.776 23.2848 24 23.0088 24Z" fill="white"/>
<path d="M23.0088 22H20.0088C19.7323 22 19.5088 21.776 19.5088 21.5C19.5088 21.224 19.7323 21 20.0088 21H23.0088C23.2853 21 23.5088 21.224 23.5088 21.5C23.5088 21.776 23.2848 22 23.0088 22Z" fill="white"/>
<path d="M16.0088 26C15.7323 26 15.5088 25.7765 15.5088 25.5C15.5088 23.019 17.5273 21 20.0088 21C20.2853 21 20.5088 21.224 20.5088 21.5C20.5088 21.776 20.2853 22 20.0088 22C18.0793 22 16.5088 23.57 16.5088 25.5C16.5088 25.7765 16.2848 26 16.0088 26Z" fill="white"/>
<path d="M25.0086 27.5128C24.9126 27.5128 24.8151 27.4848 24.7291 27.4273L23.2291 26.4148C23.0001 26.2598 22.9401 25.9493 23.0941 25.7203C23.2486 25.4918 23.5596 25.4308 23.7886 25.5858L25.2886 26.5983C25.5176 26.7533 25.5776 27.0638 25.4236 27.2928C25.3266 27.4358 25.1691 27.5128 25.0086 27.5128Z" fill="white"/>
<path d="M20.7591 27.0009C18.9531 27.0009 17.4156 26.4969 17.3516 26.4754C17.0901 26.3879 16.9481 26.1054 17.0346 25.8434C17.1216 25.5814 17.4041 25.4379 17.6666 25.5259C17.6811 25.5309 19.1206 26.0004 20.7596 26.0004C22.3486 26.0004 23.2796 25.5564 23.2891 25.5519C23.5361 25.4309 23.8361 25.5329 23.9576 25.7804C24.0791 26.0274 23.9791 26.3254 23.7331 26.4484C23.6866 26.4709 22.6016 27.0009 20.7591 27.0009Z" fill="white"/>
<path d="M16.0095 27.5128C15.849 27.5128 15.691 27.4358 15.5945 27.2928C15.44 27.0638 15.5 26.7533 15.729 26.5983L17.229 25.5858C17.4585 25.4308 17.769 25.4918 17.9235 25.7203C18.078 25.9493 18.0175 26.2598 17.7885 26.4148L16.2885 27.4273C16.2025 27.4853 16.1055 27.5128 16.0095 27.5128Z" fill="white"/>
<path d="M19.5082 35.4993C19.4332 35.4993 19.3567 35.4823 19.2852 35.4468L18.2852 34.9468C18.0382 34.8233 17.9382 34.5228 18.0617 34.2758C18.1852 34.0288 18.4857 33.9303 18.7327 34.0523L19.7327 34.5523C19.9797 34.6758 20.0797 34.9763 19.9562 35.2233C19.8677 35.3983 19.6917 35.4993 19.5082 35.4993Z" fill="white"/>
<path d="M19.5092 35.4998C19.3257 35.4998 19.1492 35.3988 19.0612 35.2233C18.9377 34.9763 19.0377 34.6758 19.2847 34.5523L20.2847 34.0523C20.5317 33.9303 20.8322 34.0288 20.9557 34.2758C21.0792 34.5228 20.9792 34.8233 20.7322 34.9468L19.7322 35.4468C19.6602 35.4828 19.5842 35.4998 19.5092 35.4998Z" fill="white"/>
<path d="M21.5092 35.4998C21.3257 35.4998 21.1492 35.3988 21.0612 35.2233C20.9377 34.9763 21.0377 34.6758 21.2847 34.5523L22.2847 34.0523C22.5312 33.9303 22.8317 34.0288 22.9557 34.2758C23.0792 34.5228 22.9792 34.8233 22.7322 34.9468L21.7322 35.4468C21.6602 35.4828 21.5842 35.4998 21.5092 35.4998Z" fill="white"/>
<path d="M21.5082 35.4993C21.4332 35.4993 21.3567 35.4823 21.2852 35.4468L20.2852 34.9468C20.0382 34.8233 19.9382 34.5228 20.0617 34.2758C20.1857 34.0288 20.4852 33.9303 20.7327 34.0523L21.7327 34.5523C21.9797 34.6758 22.0797 34.9763 21.9562 35.2233C21.8677 35.3983 21.6917 35.4993 21.5082 35.4993Z" fill="white"/>
<path d="M34.9907 28.9803C34.7142 28.9803 34.4907 28.7568 34.4907 28.4803V26.3203C34.4907 26.0438 34.7142 25.8203 34.9907 25.8203C35.2672 25.8203 35.4907 26.0438 35.4907 26.3203V28.4803C35.4907 28.7568 35.2672 28.9803 34.9907 28.9803Z" fill="white"/>
<path d="M43.9907 29.0005C43.7142 29.0005 43.4907 28.777 43.4907 28.5005V26.25C43.4907 25.9735 43.7142 25.75 43.9907 25.75C44.2672 25.75 44.4907 25.9735 44.4907 26.25V28.5005C44.4907 28.777 44.2672 29.0005 43.9907 29.0005Z" fill="white"/>
<path d="M43.9907 26.7495C43.7142 26.7495 43.4907 26.526 43.4907 26.2495C43.4907 23.906 41.5842 22 39.2402 22C36.8967 22 34.9907 23.9065 34.9907 26.2495C34.9907 26.526 34.7672 26.7495 34.4907 26.7495C34.2142 26.7495 33.9907 26.526 33.9907 26.2495C33.9907 23.355 36.3457 21 39.2402 21C42.1352 21 44.4907 23.355 44.4907 26.2495C44.4907 26.526 44.2672 26.7495 43.9907 26.7495Z" fill="white"/>
<path d="M43.991 27.5005C43.8405 27.5005 43.692 27.433 43.5935 27.3045C42.3635 25.698 41.81 25.863 40.3315 26.304C39.059 26.683 37.3155 27.203 34.4125 26.7435C34.14 26.7005 33.9535 26.4445 33.997 26.1715C34.04 25.899 34.295 25.7105 34.569 25.756C37.247 26.178 38.8645 25.6965 40.046 25.3455C41.6115 24.88 42.741 24.5445 44.388 26.696C44.556 26.915 44.5145 27.229 44.295 27.397C44.204 27.467 44.097 27.5005 43.991 27.5005Z" fill="white"/>
<path d="M41.5015 26.014C41.4045 26.014 41.306 25.9855 41.22 25.927C40.992 25.771 40.9335 25.46 41.089 25.232L42.5785 23.052C42.735 22.824 43.046 22.7655 43.274 22.921C43.502 23.0765 43.5605 23.388 43.405 23.616L41.9155 25.7965C41.818 25.938 41.661 26.014 41.5015 26.014Z" fill="white"/>
<path d="M33.4907 37.5C33.2142 37.5 32.9907 37.2765 32.9907 37C32.9907 35.3455 34.3362 34 35.9907 34C36.2672 34 36.4907 34.2235 36.4907 34.5C36.4907 34.7765 36.2672 35 35.9907 35C34.8877 35 33.9907 35.897 33.9907 37C33.9907 37.2765 33.7672 37.5 33.4907 37.5Z" fill="white"/>
<path d="M37.4907 35H35.9907C35.7142 35 35.4907 34.7765 35.4907 34.5C35.4907 34.2235 35.7142 34 35.9907 34H37.4907C37.7672 34 37.9907 34.2235 37.9907 34.5C37.9907 34.7765 37.7672 35 37.4907 35Z" fill="white"/>
<path d="M33.4907 39C33.2142 39 32.9907 38.7765 32.9907 38.5V37C32.9907 36.7235 33.2142 36.5 33.4907 36.5C33.7672 36.5 33.9907 36.7235 33.9907 37V38.5C33.9907 38.7765 33.7672 39 33.4907 39Z" fill="white"/>
<path d="M33.9907 39.4999C33.4392 39.4999 32.9907 39.0514 32.9907 38.4999C32.9907 38.2344 33.1997 38.0429 33.4647 38.0284C33.7382 38.0099 33.9612 38.2364 33.9907 38.4994C34.2667 38.4994 34.4907 38.7234 34.4907 38.9994C34.4907 39.2759 34.2672 39.4999 33.9907 39.4999Z" fill="white"/>
<path d="M45.4907 37.5C45.2142 37.5 44.9907 37.2765 44.9907 37C44.9907 35.897 44.0937 35 42.9907 35C42.7142 35 42.4907 34.7765 42.4907 34.5C42.4907 34.2235 42.7142 34 42.9907 34C44.6452 34 45.9907 35.3455 45.9907 37C45.9907 37.2765 45.7672 37.5 45.4907 37.5Z" fill="white"/>
<path d="M42.9907 35H41.4907C41.2142 35 40.9907 34.7765 40.9907 34.5C40.9907 34.2235 41.2142 34 41.4907 34H42.9907C43.2672 34 43.4907 34.2235 43.4907 34.5C43.4907 34.7765 43.2672 35 42.9907 35Z" fill="white"/>
<path d="M45.4907 39C45.2142 39 44.9907 38.7765 44.9907 38.5V37C44.9907 36.7235 45.2142 36.5 45.4907 36.5C45.7672 36.5 45.9907 36.7235 45.9907 37V38.5C45.9907 38.7765 45.7672 39 45.4907 39Z" fill="white"/>
<path d="M44.9907 39.5C44.7142 39.5 44.4907 39.2765 44.4907 39C44.4907 38.7235 44.7142 38.5 44.9907 38.5C44.9907 38.2235 45.2142 38 45.4907 38C45.7672 38 45.9907 38.2235 45.9907 38.5C45.9907 39.0515 45.5422 39.5 44.9907 39.5Z" fill="white"/>
<path d="M44.9907 39.5H33.9907C33.7142 39.5 33.4907 39.2765 33.4907 39C33.4907 38.7235 33.7142 38.5 33.9907 38.5H44.9907C45.2672 38.5 45.4907 38.7235 45.4907 39C45.4907 39.2765 45.2672 39.5 44.9907 39.5Z" fill="white"/>
<path d="M37.4907 34.9993C37.2142 34.9993 36.9907 34.7758 36.9907 34.4993V32.5312C36.9907 32.2548 37.2142 32.0312 37.4907 32.0312C37.7672 32.0312 37.9907 32.2548 37.9907 32.5312V34.4993C37.9907 34.7758 37.7672 34.9993 37.4907 34.9993Z" fill="white"/>
<path d="M41.4907 34.9993C41.2142 34.9993 40.9907 34.7758 40.9907 34.4993V32.5312C40.9907 32.2548 41.2142 32.0312 41.4907 32.0312C41.7672 32.0312 41.9907 32.2548 41.9907 32.5312V34.4993C41.9907 34.7758 41.7672 34.9993 41.4907 34.9993Z" fill="white"/>
<path d="M39.4902 33.501C36.7332 33.501 34.4907 31.2585 34.4907 28.502C34.4907 28.2255 34.7142 28.002 34.9907 28.002C35.2672 28.002 35.4907 28.2255 35.4907 28.502C35.4907 30.707 37.2847 32.501 39.4902 32.501C41.6962 32.501 43.4907 30.707 43.4907 28.502C43.4907 28.2255 43.7142 28.002 43.9907 28.002C44.2672 28.002 44.4907 28.2255 44.4907 28.502C44.4907 31.2585 42.2477 33.501 39.4902 33.501Z" fill="white"/>
<path d="M38.4901 35.4993C38.4151 35.4993 38.3386 35.4823 38.2671 35.4468L37.2671 34.9468C37.0201 34.8233 36.9201 34.5228 37.0436 34.2758C37.1671 34.0288 37.4676 33.9303 37.7146 34.0523L38.7146 34.5523C38.9616 34.6758 39.0616 34.9763 38.9381 35.2233C38.8501 35.3983 38.6741 35.4993 38.4901 35.4993Z" fill="white"/>
<path d="M38.4912 35.4998C38.3077 35.4998 38.1312 35.3988 38.0432 35.2233C37.9197 34.9763 38.0197 34.6758 38.2667 34.5523L39.2667 34.0523C39.5137 33.9303 39.8142 34.0288 39.9377 34.2758C40.0612 34.5228 39.9612 34.8233 39.7142 34.9468L38.7142 35.4468C38.6427 35.4828 38.5667 35.4998 38.4912 35.4998Z" fill="white"/>
<path d="M40.4912 35.4998C40.3077 35.4998 40.1312 35.3988 40.0432 35.2233C39.9197 34.9763 40.0197 34.6758 40.2667 34.5523L41.2667 34.0523C41.5132 33.9303 41.8137 34.0288 41.9377 34.2758C42.0612 34.5228 41.9612 34.8233 41.7142 34.9468L40.7142 35.4468C40.6427 35.4828 40.5667 35.4998 40.4912 35.4998Z" fill="white"/>
<path d="M40.4901 35.4993C40.4151 35.4993 40.3386 35.4823 40.2671 35.4468L39.2671 34.9468C39.0201 34.8233 38.9201 34.5228 39.0436 34.2758C39.1676 34.0288 39.4671 33.9303 39.7146 34.0523L40.7146 34.5523C40.9616 34.6758 41.0616 34.9763 40.9381 35.2233C40.8501 35.3983 40.6741 35.4993 40.4901 35.4993Z" fill="white"/>
<path d="M26.5641 28.5545C26.4361 28.5545 26.3081 28.5055 26.2106 28.408C26.0151 28.2125 26.0151 27.8965 26.2106 27.701C26.3996 27.512 26.5036 27.261 26.5036 26.994C26.5036 26.727 26.3996 26.476 26.2106 26.287C26.0151 26.092 26.0151 25.7755 26.2106 25.58C26.4061 25.3845 26.7221 25.385 26.9176 25.58C27.2956 25.9575 27.5036 26.4595 27.5036 26.9945C27.5036 27.5285 27.2956 28.0305 26.9176 28.4085C26.8201 28.506 26.6921 28.5545 26.5641 28.5545Z" fill="white"/>
<path d="M27.9782 29.9697C27.8502 29.9697 27.7222 29.9207 27.6247 29.8232C27.4292 29.6277 27.4292 29.3117 27.6247 29.1162C28.7947 27.9462 28.7947 26.0432 27.6247 24.8732C27.4292 24.6777 27.4292 24.3617 27.6247 24.1662C27.8202 23.9707 28.1362 23.9707 28.3317 24.1662C29.8912 25.7257 29.8912 28.2637 28.3317 29.8232C28.2342 29.9212 28.1062 29.9697 27.9782 29.9697Z" fill="white"/>
<path d="M29.3927 31.3841C29.2647 31.3841 29.1367 31.3351 29.0392 31.2376C28.8437 31.0421 28.8437 30.7261 29.0392 30.5306C30.9887 28.5811 30.9887 25.4086 29.0392 23.4591C28.8437 23.2636 28.8437 22.9476 29.0392 22.7521C29.2347 22.5566 29.5507 22.5566 29.7462 22.7521C32.0857 25.0916 32.0857 28.8981 29.7462 31.2376C29.6487 31.3351 29.5207 31.3841 29.3927 31.3841Z" fill="white"/>
</g>
<defs>
<clipPath id="clip0_1293_8668">
<rect width="60" height="60" fill="white"/>
</clipPath>
</defs>
</svg>
