<svg width="330" height="287" viewBox="0 0 330 287" fill="none" xmlns="http://www.w3.org/2000/svg">
<path d="M269.186 99.1719H196.737C193.268 99.1719 190.457 101.985 190.457 105.455V184.941C190.457 188.411 193.268 191.224 196.737 191.224H269.186C272.654 191.224 275.465 188.411 275.465 184.941V105.455C275.465 101.985 272.654 99.1719 269.186 99.1719Z" fill="#B8B1FC"/>
<path d="M255.255 106.75H210.659C209.157 106.75 207.939 107.968 207.939 109.471V113.711C207.939 115.214 209.157 116.432 210.659 116.432H255.255C256.758 116.432 257.975 115.214 257.975 113.711V109.471C257.975 107.968 256.758 106.75 255.255 106.75Z" fill="white"/>
<path d="M256.373 120.727H209.542C208.657 120.727 207.939 121.444 207.939 122.33C207.939 123.216 208.657 123.933 209.542 123.933H256.373C257.258 123.933 257.975 123.216 257.975 122.33C257.975 121.444 257.258 120.727 256.373 120.727Z" fill="white"/>
<path d="M256.373 128.117H209.542C208.657 128.117 207.939 128.835 207.939 129.721C207.939 130.606 208.657 131.324 209.542 131.324H256.373C257.258 131.324 257.975 130.606 257.975 129.721C257.975 128.835 257.258 128.117 256.373 128.117Z" fill="white"/>
<path d="M211.168 142.235C211.168 144.463 209.365 146.274 207.13 146.274C204.896 146.274 203.093 144.47 203.093 142.235C203.093 139.999 204.896 138.195 207.13 138.195C209.365 138.195 211.168 139.999 211.168 142.235Z" fill="white"/>
<path d="M211.168 160.532C211.168 162.76 209.365 164.571 207.13 164.571C204.896 164.571 203.093 162.767 203.093 160.532C203.093 158.296 204.896 156.492 207.13 156.492C209.365 156.492 211.168 158.296 211.168 160.532Z" fill="white"/>
<path d="M211.168 178.297C211.168 180.525 209.365 182.337 207.13 182.337C204.896 182.337 203.093 180.533 203.093 178.297C203.093 176.062 204.896 174.258 207.13 174.258C209.365 174.258 211.168 176.062 211.168 178.297Z" fill="white"/>
<path d="M252.066 140.669H213.456C213.233 140.669 213.048 140.491 213.048 140.26C213.048 140.029 213.225 139.852 213.456 139.852H252.066C252.289 139.852 252.474 140.029 252.474 140.26C252.474 140.491 252.297 140.669 252.066 140.669Z" fill="white"/>
<path d="M232.757 144.778H213.456C213.233 144.778 213.048 144.601 213.048 144.37C213.048 144.138 213.225 143.961 213.456 143.961H232.757C232.98 143.961 233.165 144.138 233.165 144.37C233.165 144.601 232.988 144.778 232.757 144.778Z" fill="white"/>
<path d="M252.066 159.567H213.456C213.233 159.567 213.048 159.39 213.048 159.159C213.048 158.927 213.225 158.75 213.456 158.75H252.066C252.289 158.75 252.474 158.927 252.474 159.159C252.474 159.39 252.297 159.567 252.066 159.567Z" fill="white"/>
<path d="M232.757 163.677H213.456C213.233 163.677 213.048 163.499 213.048 163.268C213.048 163.037 213.225 162.859 213.456 162.859H232.757C232.98 162.859 233.165 163.037 233.165 163.268C233.165 163.499 232.988 163.677 232.757 163.677Z" fill="white"/>
<path d="M252.066 176.833H213.456C213.233 176.833 213.048 176.655 213.048 176.424C213.048 176.193 213.225 176.016 213.456 176.016H252.066C252.289 176.016 252.474 176.193 252.474 176.424C252.474 176.655 252.297 176.833 252.066 176.833Z" fill="white"/>
<path d="M232.757 180.942H213.456C213.233 180.942 213.048 180.765 213.048 180.534C213.048 180.302 213.225 180.125 213.456 180.125H232.757C232.98 180.125 233.165 180.302 233.165 180.534C233.165 180.765 232.988 180.942 232.757 180.942Z" fill="white"/>
<path d="M95.6794 170.883L97.0662 166.89C97.6826 165.117 99.3469 163.93 101.227 163.93H135.791C138.226 163.93 140.191 165.903 140.191 168.331V237.141C140.191 239.577 138.218 241.543 135.791 241.543H31.5128C29.078 241.543 27.1133 239.569 27.1133 237.141V178.237C27.1133 175.801 29.0857 173.836 31.5128 173.836H91.5187C93.391 173.836 95.063 172.648 95.6794 170.875V170.883Z" fill="#532BB5"/>
<path d="M98.2296 174.943L99.5394 171.181C100.117 169.508 101.689 168.391 103.461 168.391H136.038C138.326 168.391 140.191 170.248 140.191 172.546V237.408C140.191 239.698 138.334 241.563 136.038 241.563H37.7613C35.473 241.563 33.6084 239.706 33.6084 237.408V181.889C33.6084 179.599 35.4653 177.734 37.7613 177.734H94.3155C96.0799 177.734 97.6517 176.616 98.2373 174.943H98.2296Z" fill="#A58BF7"/>
<path d="M184.84 30.5625H309.452C310.607 30.5625 311.547 31.503 311.547 32.6593V73.6629C311.547 74.8193 310.607 75.7598 309.452 75.7598H219.697L199.133 96.3348V75.7598H184.848C183.692 75.7598 182.752 74.8193 182.752 73.6629V32.6593C182.752 31.503 183.692 30.5625 184.848 30.5625H184.84Z" fill="#8076E2"/>
<path d="M202.761 44.2801H291.306C291.861 44.2801 292.308 44.0026 292.308 43.6557C292.308 43.3088 291.861 43.0312 291.306 43.0312H202.761C202.207 43.0312 201.76 43.3088 201.76 43.6557C201.76 44.0026 202.207 44.2801 202.761 44.2801Z" fill="white"/>
<path d="M202.761 65.202H291.306C291.861 65.202 292.308 64.9244 292.308 64.5775C292.308 64.2306 291.861 63.9531 291.306 63.9531H202.761C202.207 63.9531 201.76 64.2306 201.76 64.5775C201.76 64.9244 202.207 65.202 202.761 65.202Z" fill="white"/>
<path d="M245.015 54.3113H291.299C291.854 54.3113 292.3 54.0338 292.3 53.6869C292.3 53.34 291.854 53.0625 291.299 53.0625H245.015C244.461 53.0625 244.014 53.34 244.014 53.6869C244.014 54.0338 244.461 54.3113 245.015 54.3113Z" fill="white"/>
<path d="M216.175 54.3113H236.301C236.855 54.3113 237.302 54.0338 237.302 53.6869C237.302 53.34 236.855 53.0625 236.301 53.0625H216.175C215.621 53.0625 215.174 53.34 215.174 53.6869C215.174 54.0338 215.621 54.3113 216.175 54.3113Z" fill="white"/>
<path opacity="0.52" d="M132.709 84.7344H54.6271C47.7591 84.7344 42.1914 90.3049 42.1914 97.1765V114.814C42.1914 121.686 47.7591 127.257 54.6271 127.257H132.709C139.577 127.257 145.145 121.686 145.145 114.814V97.1765C145.145 90.3049 139.577 84.7344 132.709 84.7344Z" fill="#3C3273"/>
<path d="M130.529 78.3594H33.3157C27.7625 78.3594 23.2607 82.8634 23.2607 88.4195V112.317C23.2607 117.873 27.7625 122.377 33.3157 122.377H130.529C136.082 122.377 140.584 117.873 140.584 112.317V88.4195C140.584 82.8634 136.082 78.3594 130.529 78.3594Z" fill="white"/>
<path d="M130.529 78.3594H33.3157C27.7625 78.3594 23.2607 82.8634 23.2607 88.4195V112.317C23.2607 117.873 27.7625 122.377 33.3157 122.377H130.529C136.082 122.377 140.584 117.873 140.584 112.317V88.4195C140.584 82.8634 136.082 78.3594 130.529 78.3594Z" fill="#532BB5"/>
<path d="M60.4986 105.174C57.8173 105.174 55.6445 102.993 55.6445 100.318C55.6445 97.6426 57.825 95.4609 60.4986 95.4609C63.1722 95.4609 65.3527 97.6426 65.3527 100.318C65.3527 102.993 63.1722 105.174 60.4986 105.174ZM60.4986 96.255C58.2642 96.255 56.4458 98.0743 56.4458 100.31C56.4458 102.545 58.2642 104.365 60.4986 104.365C62.7331 104.365 64.5514 102.545 64.5514 100.31C64.5514 98.0743 62.7331 96.255 60.4986 96.255Z" fill="white"/>
<path d="M81.5328 105.174C78.8515 105.174 76.6787 102.993 76.6787 100.318C76.6787 97.6426 78.8592 95.4609 81.5328 95.4609C84.2064 95.4609 86.3869 97.6426 86.3869 100.318C86.3869 102.993 84.2064 105.174 81.5328 105.174ZM81.5328 96.255C79.2984 96.255 77.48 98.0743 77.48 100.31C77.48 102.545 79.2984 104.365 81.5328 104.365C83.7672 104.365 85.5856 102.545 85.5856 100.31C85.5856 98.0743 83.7672 96.255 81.5328 96.255Z" fill="white"/>
<path d="M101.134 105.174C98.4531 105.174 96.2803 102.993 96.2803 100.318C96.2803 97.6426 98.4608 95.4609 101.134 95.4609C103.808 95.4609 105.988 97.6426 105.988 100.318C105.988 102.993 103.808 105.174 101.134 105.174ZM101.134 96.255C98.8999 96.255 97.0816 98.0743 97.0816 100.31C97.0816 102.545 98.8999 104.365 101.134 104.365C103.369 104.365 105.187 102.545 105.187 100.31C105.187 98.0743 103.369 96.255 101.134 96.255Z" fill="white"/>
<path d="M155.43 199.608C181.798 199.608 203.174 178.221 203.174 151.839C203.174 125.457 181.798 104.07 155.43 104.07C129.061 104.07 107.686 125.457 107.686 151.839C107.686 178.221 129.061 199.608 155.43 199.608Z" fill="white"/>
<path opacity="0.47" d="M194.143 137.341C198.536 140.986 201.792 170.323 183.033 171.425C183.033 171.425 196.253 163.803 193.037 156.754C190.665 151.563 184.295 147.897 184.104 142.194C183.962 137.977 191.62 135.243 194.147 137.337L194.143 137.341Z" fill="white"/>
<path d="M181.5 122L132 179L138 189L187.5 132L181.5 122Z" fill="#D9D9D9" fill-opacity="0.18"/>
<path d="M170.144 156.169L142.24 188.418L142.14 195.584L170.044 163.335L170.144 156.169Z" fill="#D9D9D9" fill-opacity="0.18"/>
<path opacity="0.58" d="M156.798 200.978C129.719 200.978 107.686 178.934 107.686 151.841C107.686 124.747 129.719 102.703 156.798 102.703C183.877 102.703 205.91 124.747 205.91 151.841C205.91 178.934 183.877 200.978 156.798 200.978ZM156.798 105.445C131.229 105.445 110.426 126.259 110.426 151.841C110.426 177.423 131.229 198.236 156.798 198.236C182.367 198.236 203.169 177.423 203.169 151.841C203.169 126.259 182.367 105.445 156.798 105.445Z" fill="#3E479B"/>
<path d="M233.207 219.64L201.748 188.809C201.13 188.2 200.419 187.747 199.664 187.431C207.682 177.773 212.506 165.369 212.506 151.836C212.506 121.049 187.564 96.0938 156.793 96.0938C126.023 96.0938 101.08 121.049 101.08 151.836C101.08 182.622 126.023 207.578 156.793 207.578C169.671 207.578 181.518 203.195 190.953 195.853C191.282 196.729 191.797 197.547 192.508 198.244L223.967 229.075C225.251 230.333 226.921 230.964 228.587 230.964C230.253 230.964 232.012 230.302 233.304 228.982C235.854 226.378 235.814 222.195 233.207 219.64ZM109.054 151.84C109.054 125.458 130.429 104.071 156.798 104.071C183.166 104.071 204.542 125.458 204.542 151.84C204.542 178.222 183.166 199.609 156.798 199.609C130.429 199.609 109.054 178.222 109.054 151.84Z" fill="#532BB5"/>
<path d="M266.842 246.226L221.071 200.431C219.929 199.288 203.036 216.102 204.222 217.288L249.993 263.084C254.649 267.737 262.191 267.737 266.842 263.084C271.498 258.426 271.498 250.879 266.842 246.226ZM263.391 253.99C263.391 256.301 261.516 258.177 259.206 258.177C256.896 258.177 255.022 256.301 255.022 253.99C255.022 251.675 256.896 249.804 259.206 249.804C261.516 249.804 263.391 251.679 263.391 253.99Z" fill="#E7E3FE"/>
<g opacity="0.1">
<path d="M261.516 257.48C260.855 257.92 260.059 258.178 259.207 258.178C256.897 258.178 255.022 256.303 255.022 253.991C255.022 253.085 255.315 252.245 255.804 251.56C245.356 240.756 229.933 224.876 220.636 215.312C215.829 210.374 212.662 207.121 212.653 207.125C208.122 211.561 203.596 216.654 204.231 217.289L250.003 263.085C254.658 267.738 262.201 267.738 266.851 263.085C266.851 263.085 264.83 260.916 261.521 257.48H261.516Z" fill="#5342B5"/>
</g>
<path d="M217.872 197.618L201.35 214.149C200.595 214.904 200.595 216.128 201.35 216.883L204.331 219.865C205.085 220.62 206.309 220.62 207.063 219.865L223.585 203.335C224.34 202.58 224.34 201.355 223.585 200.6L220.604 197.618C219.85 196.863 218.626 196.863 217.872 197.618Z" fill="white"/>
</svg>
