<svg width="60" height="60" viewBox="0 0 60 60" fill="none" xmlns="http://www.w3.org/2000/svg">
<g clip-path="url(#clip0_1296_8722)">
<ellipse cx="30" cy="30" rx="30" ry="30" transform="rotate(-90 30 30)" fill="#F97316"/>
<path d="M19.6249 21.4732C19.4522 21.3005 19.4522 21.0208 19.6249 20.8481C19.7976 20.6754 20.0774 20.6754 20.25 20.8481L21.1322 21.73L23.2086 19.6536C23.3813 19.4809 23.6611 19.4809 23.8338 19.6536C24.0064 19.8263 24.0065 20.1061 23.8338 20.2788L21.4448 22.6677C21.3584 22.7541 21.2453 22.7972 21.1322 22.7972C21.019 22.7972 20.9059 22.7541 20.8196 22.6677L19.6249 21.4732ZM16.8424 19.5109C17.2832 18.2058 18.2056 17.1501 19.4401 16.5387C20.6747 15.9262 22.0735 15.8335 23.3788 16.2734C24.6844 16.7143 25.7401 17.6365 26.3515 18.8713C26.9629 20.1061 27.057 21.5049 26.6163 22.8105C26.1756 24.1156 25.2531 25.1713 24.0186 25.7827C23.2962 26.1407 22.5173 26.3215 21.7341 26.3215C21.1789 26.3215 20.6213 26.2306 20.0799 26.048C17.385 25.1379 15.9329 22.2055 16.8424 19.5109ZM20.3626 25.2098C21.4449 25.5748 22.6037 25.4971 23.626 24.9905C24.649 24.4839 25.4134 23.6089 25.7787 22.5273C26.5323 20.2949 25.3288 17.865 23.0961 17.1115C22.6474 16.9601 22.1854 16.8847 21.7255 16.8847C21.0764 16.8847 20.4311 17.0344 19.8327 17.3308C18.8098 17.8374 18.0453 18.7124 17.6801 19.7941C16.9265 22.0265 18.1299 24.4563 20.3626 25.2098ZM33.3512 19.5109C34.2607 16.8168 37.1934 15.3661 39.8875 16.2734C42.5824 17.1835 44.0345 20.1159 43.125 22.8105C42.6843 24.1156 41.7619 25.1713 40.5274 25.7827C39.8049 26.1407 39.026 26.3215 38.2428 26.3215C37.6876 26.3215 37.1301 26.2306 36.5887 26.048C33.8937 25.1385 32.4417 22.2061 33.3512 19.5109ZM34.4084 23.0575C34.9149 24.0804 35.7896 24.8449 36.8713 25.2098C37.9536 25.5748 39.1124 25.4971 40.1347 24.9905C41.1576 24.4839 41.9221 23.6089 42.2874 22.5273C43.0409 20.2949 41.8375 17.865 39.6048 17.1115C39.1532 16.959 38.6935 16.8864 38.2417 16.8864C36.458 16.8864 34.7903 18.0124 34.1887 19.794C33.8237 20.8757 33.9018 22.0345 34.4084 23.0575ZM36.7286 22.6701C36.8149 22.7564 36.928 22.7996 37.0412 22.7996C37.1543 22.7996 37.2674 22.7564 37.3538 22.6701L38.2381 21.7858L39.1225 22.6701C39.2088 22.7564 39.3219 22.7996 39.4351 22.7996C39.5482 22.7996 39.6613 22.7564 39.7477 22.6701C39.9204 22.4973 39.9204 22.2176 39.7477 22.0449L38.8633 21.1607L39.7477 20.2765C39.9204 20.1038 39.9204 19.824 39.7477 19.6513C39.5749 19.4787 39.2952 19.4786 39.1225 19.6513L38.2382 20.5356L37.3539 19.6513C37.1811 19.4786 36.9014 19.4786 36.7287 19.6513C36.556 19.8241 36.556 20.1038 36.7287 20.2765L37.613 21.1607L36.7287 22.0449C36.556 22.2176 36.5558 22.4974 36.7286 22.6701ZM44 28.2142V28.3143C44 30.4529 42.2601 32.1931 40.1212 32.1931H33.3062C33.0764 32.5356 32.7937 32.8388 32.4717 33.0951L33.792 40.151H34.4049C35.2005 40.151 35.8731 40.7203 36.0038 41.5055L36.3308 43.4679C36.3521 43.5957 36.3161 43.7269 36.2321 43.8259C36.148 43.9255 36.0248 43.9825 35.8948 43.9825H24.1052C23.9752 43.9825 23.852 43.9255 23.7679 43.8259C23.6838 43.7269 23.6478 43.5957 23.6692 43.4679L23.9962 41.5055C24.1268 40.7203 24.7995 40.151 25.5951 40.151H26.739L27.6131 33.1585C27.2561 32.8895 26.9433 32.565 26.6938 32.1931H19.8788C17.7399 32.1932 16 30.453 16 28.3143V28.2142C16 27.9701 16.198 27.7721 16.4421 27.7721H26.6938C27.4085 26.7067 28.6234 26.0036 30 26.0036C31.3765 26.0036 32.5915 26.7067 33.3062 27.7721H43.5579C43.802 27.7721 44 27.9701 44 28.2142ZM26.2532 31.3089C26.1055 30.8934 26.0211 30.4482 26.0211 29.9826C26.0211 29.5171 26.1056 29.0719 26.2532 28.6563H16.9035C17.0739 30.1472 18.3432 31.3089 19.8788 31.3089H26.2532ZM34.4049 41.0353H25.5951C25.2336 41.0353 24.9279 41.2943 24.8683 41.6506L24.6271 43.0984H35.3729L35.1317 41.6506C35.0721 41.2943 34.7664 41.0353 34.4049 41.0353ZM31.665 33.5916C31.1577 33.8267 30.5949 33.9616 30 33.9616C29.4478 33.9616 28.9218 33.8481 28.4434 33.6439L27.6299 40.1511H32.8923L31.665 33.5916ZM33.0948 29.9826C33.0948 28.2764 31.7065 26.8879 30 26.8879C28.2935 26.8879 26.9052 28.2764 26.9052 29.9826C26.9052 31.6889 28.2935 33.0774 30 33.0774C31.7065 33.0774 33.0948 31.6889 33.0948 29.9826ZM43.0965 28.6563H33.7469C33.8945 29.0719 33.979 29.5171 33.979 29.9826C33.979 30.4482 33.8944 30.8933 33.7469 31.3089H40.1212C41.6568 31.3089 42.9261 30.1473 43.0965 28.6563Z" fill="white"/>
</g>
<defs>
<clipPath id="clip0_1296_8722">
<rect width="60" height="60" fill="white"/>
</clipPath>
</defs>
</svg>
