<svg width="60" height="60" viewBox="0 0 60 60" fill="none" xmlns="http://www.w3.org/2000/svg">
<g clip-path="url(#clip0_1293_8625)">
<ellipse cx="30" cy="30" rx="30" ry="30" transform="rotate(-90 30 30)" fill="#26C6DA"/>
<path fill-rule="evenodd" clip-rule="evenodd" d="M17.4066 23.6449C19.7017 19.0546 24.4193 16 29.8834 16C37.6444 16 43.8834 22.239 43.8834 30V31.1667C43.8834 31.2013 43.8819 31.236 43.8787 31.2704C43.2414 38.4092 37.1338 44 29.8834 44C22.6197 44 16.6409 38.3959 16.0047 31.2704C15.9474 30.6286 16.4212 30.0619 17.063 30.0047C17.7048 29.9473 18.2715 30.4212 18.3288 31.063C18.8592 37.0041 23.8471 41.6667 29.8834 41.6667C35.9159 41.6667 40.9965 37.0173 41.5501 31.1135V30C41.5501 23.5277 36.3557 18.3333 29.8834 18.3333C25.3142 18.3333 21.3984 20.8787 19.4936 24.6884C19.2054 25.2647 18.5046 25.4983 17.9283 25.2102C17.352 24.922 17.1184 24.2212 17.4066 23.6449Z" fill="white"/>
<path fill-rule="evenodd" clip-rule="evenodd" d="M18.2167 16C18.8611 16 19.3834 16.5223 19.3834 17.1667V23H25.2167C25.8611 23 26.3834 23.5223 26.3834 24.1667C26.3834 24.811 25.8611 25.3333 25.2167 25.3333H18.2167C17.5724 25.3333 17.0501 24.811 17.0501 24.1667V17.1667C17.0501 16.5223 17.5724 16 18.2167 16Z" fill="white"/>
<path fill-rule="evenodd" clip-rule="evenodd" d="M29.8834 21.8333C30.5277 21.8333 31.0501 22.3557 31.0501 23V29.5168L34.2083 32.675C34.6639 33.1306 34.6639 33.8694 34.2083 34.325C33.7528 34.7805 33.014 34.7805 32.5584 34.325L29.0584 30.825C28.8397 30.6062 28.7167 30.3094 28.7167 30V23C28.7167 22.3557 29.239 21.8333 29.8834 21.8333Z" fill="white"/>
</g>
<defs>
<clipPath id="clip0_1293_8625">
<rect width="60" height="60" fill="white"/>
</clipPath>
</defs>
</svg>
