<svg width="60" height="60" viewBox="0 0 60 60" fill="none" xmlns="http://www.w3.org/2000/svg">
<g clip-path="url(#clip0_1293_8610)">
<ellipse cx="30" cy="30" rx="30" ry="30" transform="rotate(-90 30 30)" fill="#BE185D"/>
<g clip-path="url(#clip1_1293_8610)">
<path d="M40.6637 16.5985H40.4575V16.4797C40.4575 15.5313 39.6859 14.7598 38.7376 14.7598C37.7892 14.7598 37.0177 15.5313 37.0177 16.4797V16.5985H22.9823V16.4797C22.9823 15.5313 22.2108 14.7598 21.2624 14.7598C20.314 14.7598 19.5425 15.5313 19.5425 16.4797V16.5985H19.3362C16.3938 16.5985 14 18.9923 14 21.9348V39.9042C14 42.8465 16.3938 45.2404 19.3362 45.2404H40.6637C43.6061 45.2404 46 42.8465 46 39.9042V21.9348C46 18.9923 43.6061 16.5985 40.6637 16.5985ZM37.9553 16.4797C37.9553 16.0483 38.3062 15.6973 38.7376 15.6973C39.1691 15.6973 39.52 16.0482 39.52 16.4797V18.9705C39.52 19.4019 39.1691 19.7529 38.7376 19.7529C38.3062 19.7529 37.9553 19.402 37.9553 18.9705V16.4797ZM20.48 16.4797C20.48 16.0483 20.831 15.6973 21.2624 15.6973C21.6937 15.6973 22.0448 16.0482 22.0448 16.4797V18.9705C22.0448 19.4019 21.6938 19.7529 21.2624 19.7529C20.8309 19.7529 20.48 19.402 20.48 18.9705V16.4797ZM14.9375 39.9041V23.6666H23.6719V26.3577H18.7017C17.6685 26.3577 16.828 27.1982 16.828 28.2313V29.0898C16.828 30.1229 17.6685 30.9634 18.7017 30.9634H23.6718V37.4036H18.7018C17.6687 37.4036 16.8281 38.2441 16.8281 39.2773V40.1355C16.8281 41.1687 17.6687 42.0092 18.7018 42.0092H19.9169C20.1757 42.0092 20.3856 41.7993 20.3856 41.5404C20.3856 41.2815 20.1757 41.0717 19.9169 41.0717H18.7018C18.1856 41.0717 17.7656 40.6517 17.7656 40.1355V39.2773C17.7656 38.7611 18.1856 38.3411 18.7018 38.3411H32.3981C32.9143 38.3411 33.3343 38.7611 33.3343 39.2773V40.1355C33.3343 40.6517 32.9143 41.0717 32.3981 41.0717H21.7919C21.533 41.0717 21.3231 41.2815 21.3231 41.5404C21.3231 41.7993 21.533 42.0092 21.7919 42.0092H23.6719V44.3029H19.3362C16.9108 44.3029 14.9375 42.3296 14.9375 39.9041ZM29.8082 35.5487C29.292 35.5487 28.8721 35.1287 28.8721 34.6125V33.7541C28.8721 33.2379 29.292 32.818 29.8082 32.818H37.7984C38.3146 32.818 38.7346 33.2379 38.7346 33.7541V34.6125C38.7346 35.1287 38.3146 35.5487 37.7984 35.5487H29.8082ZM29.8082 31.8805C28.7751 31.8805 27.9345 32.721 27.9345 33.7541V34.6125C27.9345 35.6457 28.7751 36.4862 29.8082 36.4862H35.3906V44.3028H24.6094V42.009H32.3981C33.4313 42.009 34.2719 41.1685 34.2719 40.1353V39.2772C34.2719 38.244 33.4313 37.4034 32.3981 37.4034H24.6094V30.9633H26.6919C27.725 30.9633 28.5656 30.1228 28.5656 29.0897V28.2312C28.5656 27.1981 27.725 26.3576 26.6919 26.3576H24.6094V23.6666H35.3907V31.8805H29.8082ZM26.6918 27.2951C27.208 27.2951 27.628 27.7151 27.628 28.2312V29.0897C27.628 29.6059 27.208 30.0258 26.6918 30.0258H18.7017C18.1855 30.0258 17.7655 29.6059 17.7655 29.0897V28.2312C17.7655 27.7151 18.1855 27.2951 18.7017 27.2951H26.6918ZM40.6637 44.3029H36.3281V36.4862H37.7983C38.8314 36.4862 39.672 35.6457 39.672 34.6125V33.7541C39.672 32.721 38.8315 31.8805 37.7983 31.8805H36.3281V23.6666H38.7375C38.9964 23.6666 39.2063 23.4568 39.2063 23.1979C39.2063 22.939 38.9964 22.7291 38.7375 22.7291H14.9375V21.9348C14.9375 19.5093 16.9108 17.536 19.3362 17.536H19.5425V18.9705C19.5425 19.9189 20.314 20.6904 21.2624 20.6904C22.2107 20.6904 22.9823 19.9189 22.9823 18.9705V17.536H37.0177V18.9705C37.0177 19.9189 37.7893 20.6904 38.7376 20.6904C39.686 20.6904 40.4575 19.9189 40.4575 18.9705V17.536H40.6638C43.0893 17.536 45.0626 19.5093 45.0626 21.9348V22.7291H40.6126C40.3536 22.7291 40.1438 22.939 40.1438 23.1979C40.1438 23.4568 40.3536 23.6666 40.6126 23.6666H45.0626V39.9042C45.0625 42.3296 43.0892 44.3029 40.6637 44.3029Z" fill="white"/>
<path d="M42.0827 37.4043H39.3541C38.321 37.4043 37.4805 38.2448 37.4805 39.2779V40.1364C37.4805 41.1695 38.321 42.01 39.3541 42.01H42.0827C43.1158 42.01 43.9563 41.1695 43.9563 40.1364V39.2779C43.9563 38.2448 43.1158 37.4043 42.0827 37.4043ZM43.0188 40.1364C43.0188 40.6525 42.5989 41.0725 42.0827 41.0725H39.3541C38.8379 41.0725 38.418 40.6525 38.418 40.1364V39.2779C38.418 38.7617 38.8379 38.3418 39.3541 38.3418H42.0827C42.5989 38.3418 43.0188 38.7617 43.0188 39.2779V40.1364Z" fill="white"/>
<path d="M18.2495 25.2188H20.4024C20.6613 25.2188 20.8712 25.0089 20.8712 24.75C20.8712 24.4911 20.6613 24.2812 20.4024 24.2812H18.2495C17.9906 24.2812 17.7808 24.4911 17.7808 24.75C17.7808 25.0089 17.9906 25.2188 18.2495 25.2188Z" fill="white"/>
<path d="M42.1417 25.2188C42.4006 25.2188 42.6105 25.0089 42.6105 24.75C42.6105 24.4911 42.4006 24.2812 42.1417 24.2812H39.9888C39.7298 24.2812 39.52 24.4911 39.52 24.75C39.52 25.0089 39.7298 25.2188 39.9888 25.2188H42.1417Z" fill="white"/>
<path d="M31.0763 24.2812H28.9233C28.6645 24.2812 28.4546 24.4911 28.4546 24.75C28.4546 25.0089 28.6645 25.2188 28.9233 25.2188H31.0763C31.3352 25.2188 31.545 25.0089 31.545 24.75C31.545 24.4911 31.3352 24.2812 31.0763 24.2812Z" fill="white"/>
</g>
</g>
<defs>
<clipPath id="clip0_1293_8610">
<rect width="60" height="60" fill="white"/>
</clipPath>
<clipPath id="clip1_1293_8610">
<rect width="32" height="32" fill="white" transform="translate(14 14)"/>
</clipPath>
</defs>
</svg>
