<svg width="60" height="60" viewBox="0 0 60 60" fill="none" xmlns="http://www.w3.org/2000/svg">
<g clip-path="url(#clip0_1293_8593)">
<ellipse cx="30" cy="30" rx="30" ry="30" transform="rotate(-90 30 30)" fill="#6D28D9"/>
<path d="M27.4844 23.4996C27.4844 23.308 27.5605 23.1243 27.6959 22.9889C27.8314 22.8534 28.0151 22.7773 28.2066 22.7773H33.9844C34.1759 22.7773 34.3596 22.8534 34.4951 22.9889C34.6305 23.1243 34.7066 23.308 34.7066 23.4996C34.7066 23.6911 34.6305 23.8748 34.4951 24.0103C34.3596 24.1457 34.1759 24.2218 33.9844 24.2218H28.2066C28.0151 24.2218 27.8314 24.1457 27.6959 24.0103C27.5605 23.8748 27.4844 23.6911 27.4844 23.4996ZM28.2066 25.6662C28.0151 25.6662 27.8314 25.7423 27.6959 25.8778C27.5605 26.0132 27.4844 26.1969 27.4844 26.3885C27.4844 26.58 27.5605 26.7637 27.6959 26.8991C27.8314 27.0346 28.0151 27.1107 28.2066 27.1107H33.9844C34.1759 27.1107 34.3596 27.0346 34.4951 26.8991C34.6305 26.7637 34.7066 26.58 34.7066 26.3885C34.7066 26.1969 34.6305 26.0132 34.4951 25.8778C34.3596 25.7423 34.1759 25.6662 33.9844 25.6662H28.2066ZM27.4844 32.8885C27.4844 32.6969 27.5605 32.5132 27.6959 32.3778C27.8314 32.2423 28.0151 32.1662 28.2066 32.1662H33.9844C34.1759 32.1662 34.3596 32.2423 34.4951 32.3778C34.6305 32.5132 34.7066 32.6969 34.7066 32.8885C34.7066 33.08 34.6305 33.2637 34.4951 33.3991C34.3596 33.5346 34.1759 33.6107 33.9844 33.6107H28.2066C28.0151 33.6107 27.8314 33.5346 27.6959 33.3991C27.5605 33.2637 27.4844 33.08 27.4844 32.8885ZM28.2066 35.0551C28.0151 35.0551 27.8314 35.1312 27.6959 35.2667C27.5605 35.4021 27.4844 35.5858 27.4844 35.7773C27.4844 35.9689 27.5605 36.1526 27.6959 36.288C27.8314 36.4235 28.0151 36.4996 28.2066 36.4996H33.9844C34.1759 36.4996 34.3596 36.4235 34.4951 36.288C34.6305 36.1526 34.7066 35.9689 34.7066 35.7773C34.7066 35.5858 34.6305 35.4021 34.4951 35.2667C34.3596 35.1312 34.1759 35.0551 33.9844 35.0551H28.2066Z" fill="white"/>
<path fill-rule="evenodd" clip-rule="evenodd" d="M20.2622 32.1675C20.2622 31.976 20.3383 31.7923 20.4737 31.6568C20.6092 31.5214 20.7929 31.4453 20.9844 31.4453H24.5955C24.7871 31.4453 24.9708 31.5214 25.1062 31.6568C25.2417 31.7923 25.3178 31.976 25.3178 32.1675V35.7786C25.3178 35.9702 25.2417 36.1539 25.1062 36.2893C24.9708 36.4248 24.7871 36.5009 24.5955 36.5009H20.9844C20.7929 36.5009 20.6092 36.4248 20.4737 36.2893C20.3383 36.1539 20.2622 35.9702 20.2622 35.7786V32.1675ZM21.7067 32.8898V35.0564H23.8733V32.8898H21.7067Z" fill="white"/>
<path d="M25.8278 24.0111C25.9594 23.8749 26.0322 23.6924 26.0305 23.5031C26.0289 23.3137 25.9529 23.1325 25.819 22.9986C25.6851 22.8647 25.504 22.7888 25.3146 22.7871C25.1252 22.7855 24.9428 22.8583 24.8066 22.9898L22.4283 25.3681L21.4945 24.4343C21.3583 24.3027 21.1758 24.2299 20.9865 24.2316C20.7971 24.2332 20.6159 24.3092 20.482 24.4431C20.3481 24.577 20.2722 24.7581 20.2705 24.9475C20.2689 25.1369 20.3417 25.3193 20.4732 25.4555L22.4283 27.4106L25.8278 24.0111Z" fill="white"/>
<path fill-rule="evenodd" clip-rule="evenodd" d="M20.2619 17C19.4958 17 18.761 17.3044 18.2192 17.8461C17.6774 18.3879 17.373 19.1227 17.373 19.8889V40.1111C17.373 40.8773 17.6774 41.6121 18.2192 42.1539C18.761 42.6956 19.4958 43 20.2619 43H34.7064C35.4726 43 36.2074 42.6956 36.7491 42.1539C37.2909 41.6121 37.5953 40.8773 37.5953 40.1111V19.8889C37.5953 19.1227 37.2909 18.3879 36.7491 17.8461C36.2074 17.3044 35.4726 17 34.7064 17H20.2619ZM18.8175 19.8889C18.8175 19.5058 18.9697 19.1384 19.2406 18.8675C19.5114 18.5966 19.8788 18.4444 20.2619 18.4444H34.7064C35.0895 18.4444 35.4569 18.5966 35.7278 18.8675C35.9986 19.1384 36.1508 19.5058 36.1508 19.8889V40.1111C36.1508 40.4942 35.9986 40.8616 35.7278 41.1325C35.4569 41.4034 35.0895 41.5556 34.7064 41.5556H20.2619C19.8788 41.5556 19.5114 41.4034 19.2406 41.1325C18.9697 40.8616 18.8175 40.4942 18.8175 40.1111V19.8889ZM39.0397 24.2222C39.0397 23.6476 39.268 23.0965 39.6743 22.6902C40.0806 22.2838 40.6317 22.0556 41.2064 22.0556C41.781 22.0556 42.3321 22.2838 42.7384 22.6902C43.1448 23.0965 43.373 23.6476 43.373 24.2222V38.8855L41.2064 42.1355L39.0397 38.8855V24.2222ZM41.2064 23.5C41.0148 23.5 40.8311 23.5761 40.6957 23.7115C40.5602 23.847 40.4842 24.0307 40.4842 24.2222V25.6667H41.9286V24.2222C41.9286 24.0307 41.8525 23.847 41.7171 23.7115C41.5816 23.5761 41.3979 23.5 41.2064 23.5ZM41.2064 39.5312L40.4842 38.4478V27.1111H41.9286V38.4478L41.2064 39.5312Z" fill="white"/>
</g>
<defs>
<clipPath id="clip0_1293_8593">
<rect width="60" height="60" fill="white"/>
</clipPath>
</defs>
</svg>
