<svg width="60" height="60" viewBox="0 0 60 60" fill="none" xmlns="http://www.w3.org/2000/svg">
<g clip-path="url(#clip0_1293_8678)">
<ellipse cx="30" cy="30" rx="30" ry="30" transform="rotate(-90 30 30)" fill="#3B82F6"/>
<path d="M30.4048 25.0273H35.9363" stroke="white" stroke-width="0.867888" stroke-linecap="square"/>
<path d="M23.2754 32.6895H31.1424" stroke="white" stroke-width="0.867888" stroke-linecap="square"/>
<path d="M30.4048 26.8516H35.9363" stroke="white" stroke-width="0.867888" stroke-linecap="square"/>
<path d="M23.2754 34.6367H31.1424" stroke="white" stroke-width="0.867888" stroke-linecap="square"/>
<path d="M30.4048 28.5547H35.9363" stroke="white" stroke-width="0.867888" stroke-linecap="square"/>
<path d="M23.2754 36.3379H31.1424" stroke="white" stroke-width="0.867888" stroke-linecap="square"/>
<path d="M30.4048 30.502H35.9363" stroke="white" stroke-width="0.867888" stroke-linecap="square"/>
<path d="M23.2754 38.2852H31.1424" stroke="white" stroke-width="0.867888" stroke-linecap="square"/>
<path d="M20.4478 21.1335H16.1455C15.8587 20.2821 15.8013 18.4334 17.8664 17.8496C18.8908 17.8496 20.8903 18.3848 20.6936 20.5254V42.0529C21.0431 43.0325 21.9388 44.3152 23.275 43.8578M23.275 43.8578C23.819 43.6716 24.436 43.197 25.1189 42.2962V40.8367H42.9426C43.1065 41.6881 43.0164 43.5124 41.3447 43.9989L23.275 43.8578Z" stroke="white" stroke-width="0.867888" stroke-linecap="round"/>
<path d="M18.6035 17.9746H24.7497" stroke="white" stroke-width="0.867888" stroke-linecap="round"/>
<path d="M33.9692 17.9746H36.4277C37.0423 18.0962 38.2961 18.7044 38.3945 20.1639V30.502" stroke="white" stroke-width="0.867888" stroke-linecap="round"/>
<path d="M27.5774 27.7015C27.5774 28.7702 26.7007 29.6433 25.6109 29.6433C24.5212 29.6433 23.6445 28.7702 23.6445 27.7015C23.6445 26.6328 24.5212 25.7597 25.6109 25.7597C26.7007 25.7597 27.5774 26.6328 27.5774 27.7015Z" stroke="white" stroke-width="0.738204"/>
<path d="M25.6108 25.0711V24.4863" stroke="white" stroke-width="0.867888" stroke-linecap="square"/>
<path d="M25.2422 24.4219L26.2256 24.4219" stroke="white" stroke-width="0.867888" stroke-linecap="square"/>
<path d="M27.2747 26.218L28.0103 25.4902" stroke="white" stroke-width="0.867888" stroke-linecap="square"/>
<path d="M27.8315 25.1504L28.5269 25.8384" stroke="white" stroke-width="0.867888" stroke-linecap="square"/>
<path d="M27.9469 27.6992L29.0532 27.6992" stroke="white" stroke-width="0.867888" stroke-linecap="square"/>
<path d="M29.1758 27.3359L29.1758 28.3089" stroke="white" stroke-width="0.867888" stroke-linecap="square"/>
<path d="M27.3974 29.2983L28.1797 30.0723" stroke="white" stroke-width="0.867888" stroke-linecap="round"/>
<path d="M28.5273 29.9004L27.832 30.5884" stroke="white" stroke-width="0.867888" stroke-linecap="square"/>
<path d="M25.856 30.035L25.856 30.8926" stroke="white" stroke-width="0.867888" stroke-linecap="square"/>
<path d="M26.2251 30.9883L25.2417 30.9883" stroke="white" stroke-width="0.867888" stroke-linecap="square"/>
<path d="M24.1512 29.4076L23.5327 30.0195" stroke="white" stroke-width="0.867888" stroke-linecap="square"/>
<path d="M23.7251 30.3438L23.0297 29.6557" stroke="white" stroke-width="0.867888" stroke-linecap="square"/>
<path d="M23.5274 27.9473L22.4146 27.9473" stroke="white" stroke-width="0.867888" stroke-linecap="square"/>
<path d="M22.2915 28.3105L22.2915 27.3375" stroke="white" stroke-width="0.867888" stroke-linecap="square"/>
<path d="M24.0596 26.0952L23.3672 25.4102" stroke="white" stroke-width="0.867888" stroke-linecap="square"/>
<path d="M23.0298 25.5938L23.7251 24.9057" stroke="white" stroke-width="0.867888" stroke-linecap="square"/>
<path d="M40.2962 35.7294C40.2962 37.5677 38.7887 39.0658 36.9195 39.0658C35.0503 39.0658 33.5428 37.5677 33.5428 35.7294C33.5428 33.891 35.0503 32.3929 36.9195 32.3929C38.7887 32.3929 40.2962 33.891 40.2962 35.7294Z" stroke="white" stroke-width="0.867888"/>
<path d="M36.9199 33.9043V37.4314" stroke="white" stroke-width="0.867888" stroke-linecap="square"/>
<path d="M35.0757 35.6094H38.7634" stroke="white" stroke-width="0.867888" stroke-linecap="square"/>
<path d="M28.4381 22.5947V20.6487H26.5942V18.8244H28.4381V17H30.4048V18.946H32.2487V20.6487H30.4048V22.5947H28.4381Z" stroke="white" stroke-width="0.867888" stroke-linecap="square" stroke-linejoin="round"/>
</g>
<defs>
<clipPath id="clip0_1293_8678">
<rect width="60" height="60" fill="white"/>
</clipPath>
</defs>
</svg>
