<svg width="24" height="24" viewBox="0 0 24 24" fill="none" xmlns="http://www.w3.org/2000/svg">
<g opacity="1">
<path d="M8.16694 8.74002C8.27409 8.6329 8.41941 8.57273 8.57093 8.57273C8.72245 8.57273 8.86777 8.6329 8.97493 8.74002L9.72235 9.48682C10.0944 9.05918 10.2976 8.51054 10.294 7.94375C10.2904 7.37697 10.0801 6.83097 9.70265 6.40812C9.32518 5.98528 8.80643 5.71463 8.24365 5.64693C7.68088 5.57922 7.11273 5.71911 6.64573 6.04036C6.17873 6.36161 5.84496 6.84216 5.70699 7.39191C5.56902 7.94166 5.63633 8.52285 5.89629 9.02652C6.15626 9.53019 6.59103 9.92175 7.11909 10.1278C7.64716 10.3338 8.23224 10.3401 8.76465 10.1456L8.16694 9.54796C8.05981 9.44081 7.99963 9.2955 7.99963 9.14399C7.99963 8.99248 8.05981 8.84717 8.16694 8.74002Z" fill="white"/>
<path d="M13.6623 2.35079C12.7985 1.48367 11.7471 0.826615 10.5891 0.430333C9.43105 0.0340508 8.19746 -0.0908588 6.98351 0.0652455C5.68073 0.23144 4.43895 0.715985 3.36792 1.47605C2.29689 2.23612 1.42961 3.2483 0.842715 4.42315C0.255822 5.59799 -0.0326049 6.8993 0.0029271 8.21208C0.0384592 9.52486 0.396856 10.8087 1.04644 11.9501C1.12417 12.0774 1.15243 12.2289 1.12587 12.3757L0.701873 14.3922C0.66163 14.584 0.671436 14.7831 0.73035 14.9701C0.789263 15.1571 0.895303 15.3258 1.03827 15.4599C1.18124 15.5941 1.35633 15.6893 1.5467 15.7362C1.73707 15.7832 1.93632 15.7804 2.12528 15.728L4.12926 15.1715C4.27331 15.136 4.42536 15.1539 4.55726 15.2218C5.63348 15.7359 6.81134 16.002 8.00407 16.0006C8.40856 16.0004 8.81249 15.9706 9.21263 15.9115C10.6741 15.6878 12.0451 15.0635 13.1733 14.1079C14.3014 13.1523 15.1427 11.9028 15.6036 10.498C16.0646 9.09323 16.1272 7.58822 15.7845 6.15004C15.4418 4.71185 14.7072 3.39677 13.6623 2.35079ZM11.2623 11.0256C11.3169 11.0783 11.3604 11.1413 11.3904 11.211C11.4203 11.2807 11.4361 11.3557 11.4367 11.4316C11.4374 11.5074 11.4229 11.5827 11.3942 11.6529C11.3655 11.7231 11.3231 11.7869 11.2694 11.8406C11.2157 11.8942 11.1519 11.9366 11.0817 11.9654C11.0115 11.9941 10.9363 12.0086 10.8604 12.0079C10.7845 12.0072 10.7095 11.9915 10.6398 11.9615C10.5701 11.9316 10.507 11.8881 10.4543 11.8335L9.63377 11.0147C8.87231 11.4338 7.98115 11.5515 7.13698 11.3445C6.2928 11.1375 5.55724 10.6208 5.07614 9.89694C4.59503 9.17308 4.40351 8.29488 4.53955 7.43645C4.67558 6.57802 5.12923 5.80204 5.81057 5.26236C6.4919 4.72269 7.35116 4.45872 8.21799 4.52279C9.08482 4.58686 9.89593 4.97429 10.4905 5.60827C11.0851 6.24226 11.4197 7.0765 11.428 7.9456C11.4364 8.8147 11.1178 9.6552 10.5355 10.3005L11.2623 11.0256Z" fill="white"/>
<path d="M15.4605 17.6976L17.6605 17.657L16.5708 15.4772L15.4605 17.6976Z" fill="white"/>
<path d="M22.965 20.6345C22.9397 20.4867 22.9681 20.3347 23.045 20.206C23.642 19.1459 23.9693 17.9553 23.9979 16.739C24.0266 15.5227 23.7558 14.318 23.2095 13.231C22.6631 12.1439 21.8578 11.2079 20.8646 10.5051C19.8714 9.80242 18.7207 9.35461 17.5137 9.20113C17.3651 9.18398 17.2165 9.16684 17.068 9.16113V9.17827C16.8172 11.1466 15.931 12.9794 14.5439 14.3984C13.1568 15.8173 11.3446 16.745 9.38234 17.0405C9.30806 17.052 9.23377 17.0634 9.15949 17.0691C9.17092 17.2234 9.18806 17.3776 9.2052 17.5319C9.42346 19.1982 10.1999 20.7413 11.4078 21.9097C12.6157 23.0781 14.1839 23.8029 15.8565 23.9657C16.0908 23.9886 16.3308 24 16.5651 24C17.6617 24.0014 18.7448 23.7594 19.7365 23.2915C19.8672 23.2256 20.0167 23.2075 20.1594 23.2401L21.9136 23.7257C22.1019 23.7797 22.3009 23.7839 22.4912 23.7378C22.6815 23.6917 22.8566 23.597 22.9993 23.4629C23.1432 23.328 23.2498 23.1582 23.3089 22.97C23.3679 22.7819 23.3774 22.5816 23.3365 22.3887L22.965 20.6345ZM19.6834 20.4243C19.6163 20.4584 19.5431 20.479 19.4681 20.4847C19.393 20.4905 19.3175 20.4814 19.246 20.4579C19.1745 20.4345 19.1083 20.3971 19.0513 20.348C18.9942 20.2989 18.9475 20.239 18.9137 20.1717L18.228 18.7895L14.8846 18.8518L14.228 20.1717C14.1598 20.3073 14.0405 20.4103 13.8964 20.458C13.7522 20.5057 13.5951 20.4942 13.4594 20.426C13.3238 20.3578 13.2208 20.2385 13.1731 20.0944C13.1254 19.9503 13.137 19.7931 13.2052 19.6575L16.0623 13.9436C16.1152 13.8552 16.1901 13.782 16.2797 13.7312C16.3694 13.6804 16.4706 13.6537 16.5737 13.6537C16.6767 13.6537 16.778 13.6804 16.8676 13.7312C16.9573 13.782 17.0322 13.8552 17.0851 13.9436L19.0851 17.9542C19.0925 17.9685 19.0999 17.9816 19.1062 17.997L19.9422 19.6575C19.9757 19.7248 19.9955 19.7981 20.0006 19.8731C20.0058 19.9481 19.996 20.0234 19.972 20.0946C19.9479 20.1658 19.91 20.2316 19.8605 20.2882C19.811 20.3448 19.7508 20.391 19.6834 20.4243Z" fill="white"/>
</g>
</svg>
