<svg width="50" height="50" viewBox="0 0 50 50" fill="none" xmlns="http://www.w3.org/2000/svg">
<g opacity="1">
<path d="M26.7134 13H15.5713C14.8893 13 14.2353 13.2796 13.7531 13.7773C13.2709 14.275 13 14.95 13 15.6538V33.3459C13 34.0497 13.2709 34.7247 13.7531 35.2224C14.2353 35.7201 14.8893 35.9997 15.5713 35.9997H26.7134C27.3953 35.9997 28.0493 35.7201 28.5315 35.2224C29.0137 34.7247 29.2846 34.0497 29.2846 33.3459V15.6538C29.2846 14.95 29.0137 14.275 28.5315 13.7773C28.0493 13.2796 27.3953 13 26.7134 13ZM18.1425 30.6921H17.2854C17.0581 30.6921 16.8401 30.5989 16.6794 30.433C16.5186 30.2671 16.4283 30.0421 16.4283 29.8075C16.4283 29.5728 16.5186 29.3478 16.6794 29.1819C16.8401 29.016 17.0581 28.9228 17.2854 28.9228H18.1425C18.3698 28.9228 18.5878 29.016 18.7486 29.1819C18.9093 29.3478 18.9996 29.5728 18.9996 29.8075C18.9996 30.0421 18.9093 30.2671 18.7486 30.433C18.5878 30.5989 18.3698 30.6921 18.1425 30.6921ZM18.1425 27.1536H17.2854C17.0581 27.1536 16.8401 27.0604 16.6794 26.8946C16.5186 26.7287 16.4283 26.5037 16.4283 26.269C16.4283 26.0344 16.5186 25.8094 16.6794 25.6435C16.8401 25.4776 17.0581 25.3844 17.2854 25.3844H18.1425C18.3698 25.3844 18.5878 25.4776 18.7486 25.6435C18.9093 25.8094 18.9996 26.0344 18.9996 26.269C18.9996 26.5037 18.9093 26.7287 18.7486 26.8946C18.5878 27.0604 18.3698 27.1536 18.1425 27.1536ZM18.1425 23.6152H17.2854C17.0581 23.6152 16.8401 23.522 16.6794 23.3561C16.5186 23.1902 16.4283 22.9652 16.4283 22.7306C16.4283 22.496 16.5186 22.271 16.6794 22.1051C16.8401 21.9392 17.0581 21.846 17.2854 21.846H18.1425C18.3698 21.846 18.5878 21.9392 18.7486 22.1051C18.9093 22.271 18.9996 22.496 18.9996 22.7306C18.9996 22.9652 18.9093 23.1902 18.7486 23.3561C18.5878 23.522 18.3698 23.6152 18.1425 23.6152ZM18.1425 20.0768H17.2854C17.0581 20.0768 16.8401 19.9836 16.6794 19.8177C16.5186 19.6518 16.4283 19.4268 16.4283 19.1922C16.4283 18.9576 16.5186 18.7326 16.6794 18.5667C16.8401 18.4008 17.0581 18.3076 17.2854 18.3076H18.1425C18.3698 18.3076 18.5878 18.4008 18.7486 18.5667C18.9093 18.7326 18.9996 18.9576 18.9996 19.1922C18.9996 19.4268 18.9093 19.6518 18.7486 19.8177C18.5878 19.9836 18.3698 20.0768 18.1425 20.0768ZM24.9992 30.6921H20.7138C20.4865 30.6921 20.2685 30.5989 20.1077 30.433C19.947 30.2671 19.8567 30.0421 19.8567 29.8075C19.8567 29.5728 19.947 29.3478 20.1077 29.1819C20.2685 29.016 20.4865 28.9228 20.7138 28.9228H24.9992C25.2265 28.9228 25.4445 29.016 25.6052 29.1819C25.766 29.3478 25.8563 29.5728 25.8563 29.8075C25.8563 30.0421 25.766 30.2671 25.6052 30.433C25.4445 30.5989 25.2265 30.6921 24.9992 30.6921ZM24.9992 27.1536H20.7138C20.4865 27.1536 20.2685 27.0604 20.1077 26.8946C19.947 26.7287 19.8567 26.5037 19.8567 26.269C19.8567 26.0344 19.947 25.8094 20.1077 25.6435C20.2685 25.4776 20.4865 25.3844 20.7138 25.3844H24.9992C25.2265 25.3844 25.4445 25.4776 25.6052 25.6435C25.766 25.8094 25.8563 26.0344 25.8563 26.269C25.8563 26.5037 25.766 26.7287 25.6052 26.8946C25.4445 27.0604 25.2265 27.1536 24.9992 27.1536ZM24.9992 23.6152H20.7138C20.4865 23.6152 20.2685 23.522 20.1077 23.3561C19.947 23.1902 19.8567 22.9652 19.8567 22.7306C19.8567 22.496 19.947 22.271 20.1077 22.1051C20.2685 21.9392 20.4865 21.846 20.7138 21.846H24.9992C25.2265 21.846 25.4445 21.9392 25.6052 22.1051C25.766 22.271 25.8563 22.496 25.8563 22.7306C25.8563 22.9652 25.766 23.1902 25.6052 23.3561C25.4445 23.522 25.2265 23.6152 24.9992 23.6152ZM24.9992 20.0768H20.7138C20.4865 20.0768 20.2685 19.9836 20.1077 19.8177C19.947 19.6518 19.8567 19.4268 19.8567 19.1922C19.8567 18.9576 19.947 18.7326 20.1077 18.5667C20.2685 18.4008 20.4865 18.3076 20.7138 18.3076H24.9992C25.2265 18.3076 25.4445 18.4008 25.6052 18.5667C25.766 18.7326 25.8563 18.9576 25.8563 19.1922C25.8563 19.4268 25.766 19.6518 25.6052 19.8177C25.4445 19.9836 25.2265 20.0768 24.9992 20.0768ZM34.71 13H33.2872C32.6559 13.0276 32.0608 13.312 31.632 13.791C31.2032 14.2701 30.9756 14.9048 30.9988 15.5565V16.5384H36.9984V15.5565C37.0216 14.9048 36.7939 14.2701 36.3651 13.791C35.9363 13.312 35.3413 13.0276 34.71 13ZM31.0931 32.4613C31.1614 32.7438 31.2743 33.0127 31.4273 33.2574L32.713 35.2655C32.8494 35.4903 33.039 35.6756 33.2638 35.8041C33.4887 35.9326 33.7415 36 33.9986 36C34.2556 36 34.5084 35.9326 34.7333 35.8041C34.9582 35.6756 35.1478 35.4903 35.2842 35.2655L36.5698 33.2574C36.7228 33.0127 36.8358 32.7438 36.9041 32.4613H31.0931ZM30.9988 18.3076V30.6921H36.9984V18.3076H30.9988Z" fill="white"/>
</g>
</svg>
