<svg width="50" height="50" viewBox="0 0 50 50" fill="none" xmlns="http://www.w3.org/2000/svg">
<g opacity="1" clip-path="url(#clip0_7174_43176)">
<path d="M29.2022 13.031C29.1895 13.0272 29.1801 13.0103 29.1693 13H14.7795C14.3709 13.1127 13.9815 13.2593 13.6668 13.5622C13.2347 13.9793 13.0018 14.4837 13.0018 15.0835C12.9999 21.6927 12.999 28.3015 13.0018 34.9107C13.0022 36.0614 13.9252 36.9961 15.0613 36.9975C18.9831 37.0017 22.9044 36.9993 26.8261 36.9993H26.9572C26.9605 36.9876 26.9633 36.9759 26.9666 36.9641C26.9088 36.9336 26.852 36.9007 26.7928 36.873C25.0057 36.036 23.7207 34.7102 22.9438 32.8982C22.8626 32.7094 22.7733 32.6422 22.569 32.6506C22.1482 32.6685 21.7255 32.6596 21.3037 32.6549C20.9073 32.6502 20.6711 32.4346 20.6729 32.0899C20.6744 31.7517 20.9214 31.5272 21.3098 31.522C21.6997 31.5169 22.089 31.5211 22.4986 31.5211C22.4568 31.259 22.4178 31.0181 22.3765 30.7602C22.0045 30.7602 21.6456 30.7649 21.2873 30.7593C20.9876 30.7541 20.7608 30.5949 20.6913 30.3558C20.5865 29.9946 20.8303 29.6461 21.2093 29.633C21.5292 29.6222 21.8499 29.626 22.1703 29.6306C22.2919 29.6325 22.3586 29.6039 22.3647 29.4663C22.4107 28.4706 22.6723 27.5312 23.1082 26.6374C23.1209 26.6121 23.1204 26.5801 23.1326 26.5153H22.2835C21.9631 26.5153 21.6428 26.5181 21.3225 26.5144C20.9078 26.5097 20.6692 26.2979 20.6729 25.9442C20.6767 25.5994 20.9284 25.3825 21.338 25.381C22.1116 25.3782 22.8846 25.3754 23.6582 25.3839C23.816 25.3857 23.9165 25.3364 24.009 25.2115C24.1509 25.0194 24.3124 24.8414 24.4966 24.6202H24.2148C23.2538 24.6197 22.2933 24.6221 21.3324 24.6188C20.9158 24.6178 20.6636 24.3863 20.6734 24.0265C20.6809 23.7447 20.8824 23.5183 21.1647 23.4948C21.3507 23.4798 21.539 23.485 21.7264 23.485C23.0622 23.484 24.3984 23.4859 25.7341 23.4817C25.8384 23.4812 25.9577 23.4662 26.0451 23.415C27.4621 22.5884 28.9829 22.2267 30.6211 22.3709C30.7052 22.3784 30.7906 22.3719 30.9057 22.3719V15.2798C30.9052 14.0704 30.3703 13.3649 29.2022 13.031ZM15.5563 17.5478C15.5587 17.1162 15.7728 16.9044 16.2092 16.9011C17.0753 16.8955 17.9413 16.895 18.8069 16.9016C19.2456 16.9049 19.4626 17.1327 19.464 17.5751C19.4668 18.4252 19.4664 19.2758 19.464 20.1259C19.4626 20.5843 19.2503 20.7966 18.7914 20.8008C18.4908 20.8036 18.1903 20.8027 17.8901 20.8022C17.7614 20.8017 17.6328 20.8017 17.5041 20.8017C17.0673 20.8013 16.63 20.8055 16.1932 20.8003C15.7611 20.7947 15.5591 20.5984 15.5563 20.1691C15.5507 19.295 15.5507 18.4214 15.5563 17.5478ZM19.464 26.288C19.4607 26.7248 19.2386 26.9549 18.8004 26.9577C17.9413 26.9638 17.0828 26.9634 16.2237 26.9582C15.7672 26.9559 15.5568 26.7389 15.5554 26.2762C15.5521 25.4252 15.5521 24.5742 15.5554 23.7231C15.5573 23.2506 15.7677 23.043 16.2472 23.0411C17.0908 23.0378 17.9338 23.0374 18.7769 23.0416C19.2437 23.0435 19.4621 23.268 19.4645 23.7348C19.4654 23.9035 19.4654 24.0725 19.4654 24.2412C19.4654 24.4938 19.4654 24.747 19.4654 24.9997V25.4064C19.4654 25.7004 19.4668 25.9944 19.4645 26.288H19.464ZM19.464 32.429C19.4621 32.8686 19.2423 33.0954 18.8032 33.0987C17.9371 33.1048 17.071 33.1048 16.2054 33.0987C15.771 33.0954 15.5587 32.8808 15.5559 32.4477C15.5512 31.5817 15.5512 30.7156 15.5559 29.85C15.5582 29.3944 15.7578 29.2032 16.2209 29.1995C16.6502 29.1957 17.0795 29.1986 17.5083 29.1986C17.9371 29.1986 18.3824 29.1943 18.8191 29.2C19.247 29.2051 19.4621 29.4231 19.4635 29.8542C19.4673 30.7123 19.4668 31.5709 19.464 32.429ZM24.6736 20.3729C24.111 20.3781 23.5488 20.3743 22.9861 20.3743V20.3696C22.3924 20.3696 21.7988 20.3757 21.2051 20.3668C20.9501 20.3631 20.7462 20.1898 20.688 19.9657C20.626 19.7285 20.7096 19.4669 20.9148 19.35C21.0252 19.287 21.1638 19.2452 21.2896 19.2443C22.4225 19.2363 23.5553 19.2363 24.6877 19.2415C25.0592 19.2434 25.3049 19.4773 25.3086 19.8051C25.3119 20.1362 25.0578 20.3696 24.6736 20.3729ZM28.3253 18.087C28.2474 18.327 28.029 18.4745 27.7213 18.4778C27.2376 18.483 26.7538 18.4792 26.27 18.4792C24.6318 18.4792 22.9936 18.4801 21.3554 18.4787C20.9393 18.4783 20.6866 18.2725 20.6734 17.933C20.6612 17.5981 20.8815 17.3548 21.2309 17.3487C21.8236 17.3388 22.4168 17.3445 23.0096 17.344C23.5168 17.3435 24.0241 17.344 24.5308 17.344C25.5998 17.3445 26.6688 17.3407 27.7373 17.3464C28.184 17.3487 28.4517 17.6958 28.3253 18.087Z" fill="white"/>
<path d="M36.3445 28.9022C35.7762 25.3759 32.4035 22.9594 28.8833 23.5573C25.3086 24.1646 22.9391 27.5547 23.5877 31.1341C24.1988 34.5087 27.4175 36.8815 30.8094 36.3667C33.5664 35.9482 35.3653 34.3368 36.1947 31.67C36.3135 31.2867 36.3567 30.88 36.4352 30.4845V29.4061C36.4046 29.2385 36.3718 29.0708 36.3445 28.9022ZM29.9631 34.016C29.6404 34.0202 29.3971 33.783 29.3952 33.4627C29.3934 33.1513 29.624 32.9141 29.9354 32.9061C30.2557 32.8982 30.5154 33.1368 30.5239 33.4467C30.5319 33.7544 30.2782 34.0118 29.9631 34.016ZM31.156 30.6278C30.4022 31.088 30.5408 30.8828 30.5276 31.7348C30.5196 32.2251 30.1594 32.5248 29.7607 32.3674C29.5371 32.2796 29.4075 32.1166 29.3971 31.8719C29.3915 31.7315 29.3962 31.5906 29.3962 31.406C29.3206 30.6686 29.6719 30.1323 30.3534 29.7838C30.4778 29.7199 30.5981 29.6461 30.7155 29.5696C31.2411 29.2281 31.4505 28.5913 31.2481 27.961C31.0593 27.3725 30.5239 27.001 29.8903 27.0183C29.2976 27.0348 28.7767 27.4631 28.633 28.0615C28.602 28.1892 28.6057 28.3254 28.5813 28.4551C28.5217 28.7726 28.2647 28.9712 27.9656 28.9384C27.6739 28.9064 27.4729 28.6716 27.4682 28.3564C27.448 27.1132 28.4597 25.9991 29.7071 25.8911C31.0236 25.7765 32.2283 26.698 32.4087 27.9577C32.5792 29.1455 32.171 30.0083 31.156 30.6278Z" fill="white"/>
<path d="M18.3175 24.1947H16.7014V25.8052H18.3175V24.1947Z" fill="white"/>
<path d="M18.3166 18.057H16.7028V19.6515H18.3166V18.057Z" fill="white"/>
<path d="M18.3119 30.3474H16.7037V31.9443H18.3119V30.3474Z" fill="white"/>
</g>
<defs>
<clipPath id="clip0_7174_43176">
<rect width="24" height="24" fill="white" transform="translate(13 13)"/>
</clipPath>
</defs>
</svg>
