<svg width="50" height="50" viewBox="0 0 50 50" fill="none" xmlns="http://www.w3.org/2000/svg">
<g opacity="1" clip-path="url(#clip0_5100_5159)">
<path d="M36.5033 24.8034L25.5988 13.2628C25.5203 13.1795 25.427 13.1134 25.3244 13.0683C25.2217 13.0232 25.1116 13 25.0005 13C24.8893 13 24.7793 13.0232 24.6766 13.0683C24.574 13.1134 24.4807 13.1795 24.4022 13.2628L13.4977 24.8034C13.18 25.1398 13 25.5969 13 26.0735C13 27.0633 13.7598 27.8679 14.6943 27.8679H15.8433V36.1028C15.8433 36.5991 16.2218 37 16.6904 37H23.3062V30.7194H26.2712V37H33.3106C33.7792 37 34.1577 36.5991 34.1577 36.1028V27.8679H35.3067C35.7567 27.8679 36.1883 27.6801 36.5059 27.3408C37.1651 26.6399 37.1651 25.5043 36.5033 24.8034Z" fill="white"/>
</g>
<defs>
<clipPath id="clip0_5100_5159">
<rect width="24" height="24" fill="white" transform="translate(13 13)"/>
</clipPath>
</defs>
</svg>
