<svg width="50" height="50" viewBox="0 0 50 50" fill="none" xmlns="http://www.w3.org/2000/svg">
<g opacity="1">
<path d="M31.5 28.84H32.5V29.8H31.5V28.84Z" fill="white"/>
<path d="M23.25 15.4H24V19.24H23.25V15.4Z" fill="white"/>
<path d="M21.5 16.12H22.25V18.52H21.5V16.12Z" fill="white"/>
<path d="M33.5 13H18V32.2H35V14.44C35 13.6459 34.3271 13 33.5 13ZM33.5 30.28C33.5 30.5453 33.2764 30.76 33 30.76H20C19.7236 30.76 19.5 30.5453 19.5 30.28V28.36C19.5 28.0947 19.7236 27.88 20 27.88H33C33.2764 27.88 33.5 28.0947 33.5 28.36V30.28ZM21 25C20.7236 25 20.5 24.7853 20.5 24.52C20.5 24.2547 20.7236 24.04 21 24.04H32C32.2764 24.04 32.5 24.2547 32.5 24.52C32.5 24.7853 32.2764 25 32 25H21ZM30.5 26.44C30.5 26.7053 30.2764 26.92 30 26.92H23C22.7236 26.92 22.5 26.7053 22.5 26.44C22.5 26.1747 22.7236 25.96 23 25.96H30C30.2764 25.96 30.5 26.1747 30.5 26.44ZM33 17.8H32.5V19C32.5 19.264 32.275 19.48 32 19.48H30.75V19.72C30.75 19.984 30.525 20.2 30.25 20.2H28.5C28.225 20.2 28 19.984 28 19.72V17.8H25V19.72C25 19.984 24.775 20.2 24.5 20.2H22.75C22.475 20.2 22.25 19.984 22.25 19.72V19.48H21C20.725 19.48 20.5 19.264 20.5 19V17.8H20C19.725 17.8 19.5 17.584 19.5 17.32C19.5 17.056 19.725 16.84 20 16.84H20.5V15.64C20.5 15.376 20.725 15.16 21 15.16H22.25V14.92C22.25 14.656 22.475 14.44 22.75 14.44H24.5C24.775 14.44 25 14.656 25 14.92V16.84H28V14.92C28 14.656 28.225 14.44 28.5 14.44H30.25C30.525 14.44 30.75 14.656 30.75 14.92V15.16H32C32.275 15.16 32.5 15.376 32.5 15.64V16.84H33C33.275 16.84 33.5 17.056 33.5 17.32C33.5 17.584 33.275 17.8 33 17.8Z" fill="white"/>
<path d="M20.5 28.84H30.5V29.8H20.5V28.84Z" fill="white"/>
<path d="M30.75 16.12H31.5V18.52H30.75V16.12Z" fill="white"/>
<path d="M29 15.4H29.75V19.24H29V15.4Z" fill="white"/>
<path d="M15 35.08C15 36.1389 15.897 37 17 37H33.5C34.3272 37 35 36.3541 35 35.56H22.5C22.2236 35.56 22 35.3453 22 35.08C22 34.8147 22.2236 34.6 22.5 34.6H35V33.16H17C15.897 33.16 15 34.0211 15 35.08ZM21 35.08C21 35.3453 20.7764 35.56 20.5 35.56H17C16.7236 35.56 16.5 35.3453 16.5 35.08C16.5 34.8147 16.7236 34.6 17 34.6H20.5C20.7764 34.6 21 34.8147 21 35.08Z" fill="white"/>
<path d="M17 13.0483C15.8604 13.2713 15 14.2408 15 15.3998V32.9392C15.5314 32.4811 16.2312 32.1998 17 32.1998V13.0483Z" fill="white"/>
</g>
</svg>
