<svg width="62" height="62" viewBox="0 0 62 62" fill="none" xmlns="http://www.w3.org/2000/svg">
<rect width="62" height="62" rx="31" fill="#FFE7FD"/>
<path d="M44.9163 22.0256H35.585V19.2022C35.585 18.0325 34.6238 17.0645 33.4624 17.0645H28.5765C27.4151 17.0645 26.4539 18.0325 26.4539 19.2022V22.0256H17.1226C15.9612 22.0256 15 22.9936 15 24.1633V30.6974V42.7977C15 43.9674 15.9612 44.9354 17.1226 44.9354H44.8762C46.0376 44.9354 46.9988 43.9674 46.9988 42.7977V30.6974V24.1633C47.0388 22.9936 46.0777 22.0256 44.9163 22.0256ZM27.5352 19.2022C27.5352 18.5972 28.0158 18.1131 28.6165 18.1131H33.4624C34.0631 18.1131 34.5437 18.5972 34.5437 19.2022V22.0256H27.5352V19.2022ZM45.9575 42.838C45.9575 43.4431 45.4769 43.9271 44.8762 43.9271H17.1226C16.5218 43.9271 16.0413 43.4431 16.0413 42.838V32.5931C16.3617 32.7948 16.7221 32.8755 17.1226 32.8755H28.4163V33.7628C28.4163 34.4485 28.9769 35.0132 29.6578 35.0132H32.2209C32.9017 35.0132 33.4624 34.4485 33.4624 33.7628V32.8755H44.8762C45.2767 32.8755 45.6371 32.7545 45.9575 32.5931V42.838ZM29.4976 33.7628V30.8991C29.4976 30.8184 29.5777 30.7378 29.6578 30.7378H32.2209C32.301 30.7378 32.3811 30.8184 32.3811 30.8991V33.7628C32.3811 33.8435 32.301 33.9242 32.2209 33.9242H29.6177C29.5777 33.9242 29.4976 33.8435 29.4976 33.7628ZM45.9575 30.7378C45.9575 31.3428 45.4769 31.8268 44.8762 31.8268H33.4624V30.9394C33.4624 30.2538 32.9017 29.6891 32.2209 29.6891H29.6177C28.9369 29.6891 28.3762 30.2538 28.3762 30.9394V31.8268H17.1226C16.5218 31.8268 16.0413 31.3428 16.0413 30.7378V24.1633C16.0413 23.5583 16.5218 23.0743 17.1226 23.0743H44.8762C45.4769 23.0743 45.9575 23.5583 45.9575 24.1633V30.7378Z" fill="black"/>
</svg>
