<svg width="62" height="62" viewBox="0 0 62 62" fill="none" xmlns="http://www.w3.org/2000/svg">
<rect width="62" height="62" rx="31" fill="#D6FFE9"/>
<path d="M42.5334 42.072C45.2966 39.1957 47 35.2946 47 30.9994C47 22.1772 39.8228 15 31 15C22.1772 15 15 22.1777 15 31C15 39.8223 22.1772 47 31 47C35.4886 47 39.5486 45.14 42.4571 42.1534H42.5334V42.072ZM42.5334 40.3708V33.1371C43.9552 32.8708 45.0348 31.6215 45.0348 30.1234C45.0348 28.6259 43.9552 27.3778 42.5334 27.1114V24.5937H44.4161C45.347 26.5351 45.8689 28.7068 45.8689 30.9994C45.8689 34.5498 44.6169 37.8118 42.5334 40.3708ZM41.9679 28.1882C43.0356 28.1882 43.9037 29.0568 43.9037 30.124C43.9037 31.1923 43.0356 32.0604 41.9679 32.0604C40.9002 32.0604 40.0321 31.1917 40.0321 30.124C40.0321 29.0568 40.9002 28.1882 41.9679 28.1882ZM22.6092 24.8968C23.6769 24.8968 24.545 25.7654 24.545 26.8332C24.545 27.9009 23.6769 28.7695 22.6092 28.7695C21.5415 28.7695 20.6728 27.9009 20.6728 26.8332C20.6728 25.7654 21.5415 24.8968 22.6092 24.8968ZM16.1311 31C16.1311 26.1619 18.4548 21.8576 22.0437 19.1408V23.82C20.6219 24.0864 19.5418 25.3351 19.5418 26.8326C19.5418 28.5241 20.9183 29.9 22.6092 29.9C24.3002 29.9 25.6761 28.5241 25.6761 26.8326C25.6761 25.3351 24.5965 24.0864 23.1747 23.82V18.3649C25.4493 16.9505 28.1305 16.1316 31 16.1316C36.4495 16.1316 41.2203 19.0797 43.8093 23.4632H32.9946C32.7283 22.0414 31.4801 20.9613 29.9826 20.9613C28.2911 20.9613 26.9146 22.3378 26.9146 24.0287C26.9146 25.7202 28.2911 27.0961 29.9826 27.0961C31.4801 27.0961 32.7283 26.0165 32.9946 24.5942H35.0317V30.7529C33.7937 30.9847 32.8171 31.9625 32.5852 33.201H25.6212C25.3549 31.7782 24.1067 30.6986 22.6092 30.6986C20.9183 30.6986 19.5418 32.0745 19.5418 33.7666C19.5418 35.2641 20.6219 36.5122 22.0437 36.7786V42.8603C18.4548 40.1424 16.1311 35.8381 16.1311 31ZM35.5972 31.8285C36.6649 31.8285 37.5336 32.6977 37.5336 33.766C37.5336 34.8332 36.6649 35.7024 35.5972 35.7024C34.5295 35.7024 33.6614 34.8332 33.6614 33.766C33.6614 32.6977 34.5295 31.8285 35.5972 31.8285ZM31.9184 24.0281C31.9184 25.0959 31.0503 25.9645 29.9826 25.9645C28.9143 25.9645 28.0457 25.0959 28.0457 24.0281C28.0457 22.9604 28.9143 22.0918 29.9826 22.0918C31.0503 22.0923 31.9184 22.961 31.9184 24.0281ZM22.6092 35.7018C21.5415 35.7018 20.6728 34.8326 20.6728 33.7654C20.6728 32.6972 21.5415 31.8279 22.6092 31.8279C23.6769 31.8279 24.545 32.6972 24.545 33.7654C24.545 34.8326 23.6769 35.7018 22.6092 35.7018ZM29.7881 41.8978C28.7203 41.8978 27.8523 41.0297 27.8523 39.9614C27.8523 38.8931 28.7203 38.025 29.7881 38.025C30.8558 38.025 31.7244 38.8931 31.7244 39.9614C31.7244 41.0297 30.8558 41.8978 29.7881 41.8978ZM30.3536 45.852V42.9746C31.7753 42.7082 32.8555 41.4589 32.8555 39.9614C32.8555 38.2705 31.479 36.894 29.7881 36.894C28.0971 36.894 26.7212 38.2705 26.7212 39.9614C26.7212 41.4589 27.8008 42.7082 29.2225 42.9746V45.7592C27.0243 45.4951 24.972 44.7531 23.1747 43.6351V36.778C24.4127 36.5462 25.3894 35.5695 25.6212 34.3315H32.5846C32.851 35.7533 34.0991 36.8335 35.5966 36.8335C37.2876 36.8335 38.6641 35.4569 38.6641 33.766C38.6641 32.2674 37.5839 31.0187 36.1622 30.7523V24.5937H41.4018V27.1114C39.9801 27.3778 38.9005 28.6259 38.9005 30.1234C38.9005 31.6215 39.9801 32.8708 41.4018 33.1371V41.6099C38.7184 44.2413 35.0464 45.8684 31 45.8684C30.7834 45.8684 30.5679 45.8616 30.3536 45.852Z" fill="black"/>
</svg>
