<svg width="62" height="62" viewBox="0 0 62 62" fill="none" xmlns="http://www.w3.org/2000/svg">
<rect width="62" height="62" rx="31" fill="#D4F7FF"/>
<path d="M33.2736 30.3745C34.7228 29.5215 35.7065 27.881 35.7065 26C35.7065 23.243 33.595 21 30.9997 21C28.4043 21 26.2929 23.243 26.2929 26C26.2929 27.881 27.2766 29.5215 28.7258 30.3745C25.6814 31.4015 23.4688 34.4305 23.4688 38V39C23.4688 40.103 24.3132 41 25.3515 41H36.6479C37.6862 41 38.5306 40.103 38.5306 39V38C38.5306 34.4305 36.318 31.4015 33.2736 30.3745ZM27.2342 26C27.2342 23.7945 28.9235 22 30.9997 22C33.0759 22 34.7652 23.7945 34.7652 26C34.7652 28.2055 33.0759 30 30.9997 30C28.9235 30 27.2342 28.2055 27.2342 26ZM37.5893 39C37.5893 39.5515 37.1671 40 36.6479 40H25.3515C24.8323 40 24.4101 39.5515 24.4101 39V38C24.4101 34.14 27.366 31 30.9997 31C34.6334 31 37.5893 34.14 37.5893 38V39Z" fill="black"/>
<path d="M42.7553 31.8775C43.6143 31.245 44.1791 30.1915 44.1791 29C44.1791 27.0705 42.7007 25.5 40.8843 25.5C39.0679 25.5 37.5895 27.0705 37.5895 29C37.5895 30.1915 38.1543 31.2445 39.0129 31.877C38.5723 32.06 38.152 32.3055 37.7646 32.6175C37.5575 32.784 37.5166 33.098 37.6738 33.3175C37.83 33.5375 38.1252 33.5805 38.3327 33.414C39.0764 32.8165 39.9585 32.5 40.8843 32.5C43.2203 32.5 45.1205 34.5185 45.1205 37V39C45.1205 39.5515 44.6983 40 44.1791 40H39.0901C38.8298 40 38.6194 40.2235 38.6194 40.5C38.6194 40.7765 38.8298 41 39.0901 41H44.1791C45.2174 41 46.0618 40.103 46.0618 39V37C46.0618 34.6685 44.687 32.6765 42.7553 31.8775ZM38.5309 29C38.5309 27.6215 39.5866 26.5 40.8843 26.5C42.182 26.5 43.2377 27.6215 43.2377 29C43.2377 30.3785 42.182 31.5 40.8843 31.5C39.5866 31.5 38.5309 30.3785 38.5309 29Z" fill="black"/>
<path d="M24.2347 32.6175C23.8469 32.3055 23.427 32.06 22.9865 31.877C23.845 31.245 24.4098 30.1915 24.4098 29C24.4098 27.0705 22.9314 25.5 21.115 25.5C19.2987 25.5 17.8202 27.0705 17.8202 29C17.8202 30.1915 18.3851 31.245 19.2441 31.8775C17.3124 32.6765 15.9375 34.6685 15.9375 37V39C15.9375 40.103 16.7819 41 17.8202 41H22.9093C23.1696 41 23.38 40.7765 23.38 40.5C23.38 40.2235 23.1696 40 22.9093 40H17.8202C17.3011 40 16.8789 39.5515 16.8789 39V37C16.8789 34.5185 18.779 32.5 21.115 32.5C22.0409 32.5 22.9229 32.8165 23.6666 33.4145C23.8737 33.581 24.1688 33.538 24.3256 33.318C24.4828 33.098 24.4418 32.784 24.2347 32.6175ZM18.7616 29C18.7616 27.6215 19.8173 26.5 21.115 26.5C22.4127 26.5 23.4684 27.6215 23.4684 29C23.4684 30.3785 22.4127 31.5 21.115 31.5C19.8173 31.5 18.7616 30.3785 18.7616 29Z" fill="black"/>
</svg>
