<svg width="224" height="203" viewBox="0 0 224 203" fill="none" xmlns="http://www.w3.org/2000/svg">
<g clip-path="url(#clip0_5032_37343)">
<path d="M158.171 0L158.39 0.0554228C201.697 1.20268 219.246 14.4543 223.757 16.2777L223.975 16.1696C223.975 16.1696 207.918 106.445 212.87 122.268C217.823 138.092 232.158 181.435 217.737 193.548C195.042 212.608 160.985 196.197 134.857 196.197C76.6812 196.197 95.8308 209.194 26.2134 199.267C26.2134 199.267 -0.923311 204.527 0.0218714 182.474C0.0218714 182.474 20.4041 179.667 29.411 176.397C38.4178 173.124 76.0096 155.564 107.228 133.256C137.469 111.647 154.684 100.504 158.169 0.00554228L158.171 0Z" fill="#E89F90"/>
<path d="M29.0906 193.204C27.8608 192.425 27.5982 190.716 27.8304 189.275C28.0598 187.834 28.654 186.445 28.6567 184.988C28.6567 184.447 28.5793 183.896 28.7092 183.372C29.0326 182.075 30.5277 181.41 31.8598 181.416C33.1919 181.421 34.4798 181.901 35.8064 182.028C38.255 182.266 40.6429 181.308 42.9091 180.354C46.4798 178.85 50.0339 177.303 53.5659 175.715C54.6631 180.185 55.7575 184.652 56.8547 189.122C57.0785 190.034 57.2886 191.048 56.8353 191.868C56.4097 192.636 55.5032 193.01 54.6354 193.143C52.0928 193.537 49.6055 192.375 47.0988 191.794C42.5498 190.738 37.7603 191.602 33.3191 193.049C31.9317 193.501 30.326 193.988 29.0906 193.207V193.204Z" fill="#454D77"/>
<path d="M176.835 106.293C177.614 107.457 178.413 108.64 179.518 109.496C181.909 111.353 185.35 111.32 188.155 110.189C190.96 109.056 193.27 106.988 195.509 104.949C199.163 101.615 202.869 98.1345 205.005 93.6674C207.141 89.2003 207.379 83.4723 204.309 79.5927C203.209 78.2016 201.749 77.1153 200.741 75.655C198.682 72.6704 199.152 68.741 199.152 65.1135C199.152 64.6535 201.517 10.3779 202.02 10.3779C201.91 10.3752 177.899 7.41281 177.835 7.91992C177.835 8.20258 177.26 67.1836 177.219 68.184C177.103 71.0327 176.885 73.984 175.55 76.5002C174.223 78.9969 171.913 80.7871 169.984 82.8516C168.055 84.9161 166.402 87.6429 166.919 90.4251C167.192 91.9022 168.049 93.1935 168.884 94.4405C171.534 98.3894 174.182 102.341 176.832 106.29L176.835 106.293Z" fill="white"/>
<path d="M22.6125 193.769C17.7457 194.16 12.3786 194.415 8.50388 191.436C7.66096 190.788 6.89818 189.965 6.60246 188.945C6.30398 187.922 6.58035 186.684 7.46197 186.088C7.90416 185.788 8.44585 185.675 8.97095 185.572C14.2026 184.528 19.437 183.505 24.677 182.507C24.97 185.486 25.18 188.474 25.3044 191.467C25.3182 191.813 25.3292 192.168 25.2132 192.495C24.8649 193.459 23.6351 193.692 22.6181 193.772L22.6125 193.769Z" fill="#454D77"/>
<path d="M147.106 176.757C150.95 176.876 154.794 176.993 158.639 177.112C162.582 177.234 166.717 177.409 170.105 179.431C173.347 181.366 175.447 184.724 178.264 187.241C184.117 192.47 193.287 193.559 200.196 189.845C203.256 188.199 205.809 185.766 208.269 183.308C211.174 180.404 214.236 176.53 212.987 172.612C212.141 169.957 209.515 168.236 208.407 165.681C206.368 160.987 209.521 154.1 205.328 151.177C202.521 149.22 198.259 150.833 195.498 148.81C192.508 146.618 193.293 141.838 191.286 138.715C190.402 137.338 189.025 136.368 187.657 135.476C181.013 131.139 172.982 127.675 165.305 129.659C160.275 130.959 155.809 134.514 150.616 134.575C147.484 134.611 144.494 133.353 141.396 132.896C138.298 132.438 134.622 133.084 133.044 135.797C131.524 138.413 132.588 141.694 133.431 144.598C135.001 150.016 135.678 155.691 135.426 161.328C135.222 165.894 134.686 171.215 138.057 174.294C140.42 176.452 143.914 176.666 147.109 176.763L147.106 176.757Z" fill="#454D77"/>
<path d="M102.812 147.17C104.711 143.761 109.141 143.016 112.786 141.639C115.196 140.73 117.703 139.375 120.196 140.02C122.175 140.533 123.623 142.201 124.828 143.858C129.222 149.919 132.124 157.057 133.204 164.47C133.716 167.978 133.525 172.196 130.609 174.205C127.934 176.051 124.217 175.125 121.182 176.286C119.864 176.791 118.665 177.694 117.261 177.821C115.403 177.99 113.665 176.718 112.662 175.142C111.659 173.565 111.222 171.705 110.667 169.921C109.719 166.87 108.389 163.941 106.714 161.222C105.371 159.041 103.796 156.977 102.826 154.602C101.856 152.23 101.566 149.406 102.812 147.167V147.17Z" fill="#454D77"/>
<path d="M61.6718 190.023C63.084 191.489 65.5189 191.372 67.5391 190.862C72.8979 189.513 77.516 186.265 82.3636 183.641C87.2111 181.017 92.8407 178.941 98.1746 180.238C101.372 181.017 105.065 182.868 107.635 180.811C109.31 179.47 109.509 177.093 109.489 175C109.415 167.083 108.03 158.953 103.65 152.332C101.182 148.602 96.428 145.202 92.3267 147.258C89.5298 148.661 88.4658 151.925 87.0839 154.674C82.9439 162.896 73.4589 168.322 64.1094 167.818C61.202 167.66 57.6506 167.25 55.9565 169.574C54.5995 171.439 55.3402 173.975 56.1278 176.101C57.5622 179.969 58.9993 183.84 60.4337 187.709C60.7404 188.535 61.061 189.385 61.6773 190.023H61.6718Z" fill="#454D77"/>
<path d="M173.297 104.511C172.535 102.299 171.341 99.4009 169.027 99.7057C168.245 99.8082 167.574 100.304 166.985 100.834C162.021 105.287 160.902 113.451 164.481 119.084C165.039 119.96 165.703 120.802 165.968 121.806C166.443 123.61 165.529 125.475 164.476 127.013C162.602 129.748 160.184 132.111 157.409 133.921C156.842 134.29 156.24 134.658 155.892 135.24C155.267 136.279 155.659 137.612 156.093 138.746C157.956 143.617 160.446 148.436 164.473 151.745C168.5 155.051 174.35 156.539 179.043 154.281C179.571 147.505 183.578 141.098 189.429 137.67C192.317 135.977 195.564 134.996 198.546 133.475C201.528 131.953 204.375 129.692 205.434 126.511C206.276 123.973 205.867 121.168 204.975 118.646C203.433 114.279 199.588 110.042 194.995 110.563C191.955 110.909 189.484 113.24 186.508 113.955C183.622 114.648 180.491 113.697 178.17 111.846C175.845 109.995 174.27 107.329 173.3 104.516L173.297 104.511Z" fill="white"/>
<path d="M135.145 137.277C136.372 134.808 139.041 133.455 141.573 132.369C144.798 130.984 148.949 129.903 151.481 132.341C152.155 132.99 152.619 133.827 153.02 134.675C154.587 138.003 155.27 141.672 156.447 145.158C157.624 148.644 159.451 152.127 162.571 154.067C164.246 155.109 166.195 155.641 167.889 156.65C169.586 157.659 171.095 159.393 170.948 161.364C170.816 163.14 169.348 164.578 167.709 165.265C166.07 165.95 164.255 166.047 162.489 166.241C158.434 166.69 154.432 167.712 150.353 167.757C146.274 167.801 141.927 166.69 139.235 163.617C137.192 161.28 136.366 158.138 135.777 155.087C135.006 151.099 134.534 147.053 134.36 142.994C134.277 141.051 134.282 139.02 135.147 137.277H135.145Z" fill="white"/>
<path d="M103.835 141.375C108.348 138.338 114.483 139.779 119.657 138.105C120.831 137.726 122.017 137.174 123.244 137.316C124.162 137.421 124.994 137.909 125.74 138.455C129.684 141.342 131.941 145.987 133.564 150.603C135.49 156.076 136.745 161.788 137.295 167.565C137.347 168.117 137.386 168.71 137.112 169.189C136.709 169.899 135.797 170.107 134.987 170.19C129.089 170.808 122.946 168.71 117.291 170.497C115.768 170.979 113.853 171.639 112.786 170.447C112.222 169.818 112.164 168.901 112.062 168.061C111.111 160.208 104.153 154.397 101.886 146.821C101.651 146.034 101.466 145.202 101.599 144.39C101.806 143.116 102.768 142.085 103.835 141.367V141.375Z" fill="white"/>
<path d="M98.006 149.254C98.393 149.608 98.4869 150.171 98.5809 150.686C99.9102 158.163 105.051 164.359 110.509 169.624C111.443 170.525 112.468 171.595 112.374 172.892C112.269 174.363 110.796 175.294 109.492 175.979C106.609 177.494 103.475 179.055 100.253 178.589C96.6518 178.068 93.8688 175.147 90.4225 173.981C85.9066 172.454 80.8794 174.158 76.9163 176.81C72.9504 179.462 69.6589 183.012 65.7759 185.783C64.1923 186.911 62.02 187.911 60.4115 186.814C58.4327 185.464 59.1872 182.43 58.6621 180.091C57.927 176.815 54.3342 173.861 55.7354 170.81C56.6723 168.768 59.4166 168.264 61.5999 168.774C63.7833 169.284 65.7648 170.508 67.9702 170.913C71.7952 171.617 75.6257 169.768 78.8288 167.557C82.5404 164.997 85.9536 161.743 87.6947 157.575C88.8997 154.696 89.5187 151.146 92.2465 149.642C93.5206 148.938 95.0323 148.844 96.4888 148.855C97.0249 148.857 97.6136 148.893 98.0088 149.256L98.006 149.254Z" fill="white"/>
<path d="M28.9027 191.306C27.6729 190.527 27.4103 188.817 27.6425 187.376C27.8718 185.935 28.466 184.547 28.4688 183.089C28.4688 182.549 28.3914 181.998 28.5213 181.474C28.8447 180.177 30.3398 179.512 31.6719 179.517C33.004 179.523 34.2919 180.002 35.6185 180.13C38.0671 180.368 40.4549 179.409 42.7212 178.456C46.2919 176.951 49.846 175.405 53.378 173.817C54.4751 178.287 55.5696 182.754 56.6667 187.224C56.8906 188.136 57.1007 189.15 56.6474 189.97C56.2218 190.738 55.3153 191.112 54.4475 191.245C51.9049 191.638 49.4176 190.477 46.9109 189.895C42.3619 188.839 37.5724 189.704 33.1311 191.151C31.7438 191.602 30.1381 192.09 28.9027 191.309V191.306Z" fill="white"/>
<path d="M21.098 192.822C16.2312 193.212 10.8641 193.467 6.98939 190.488C6.14646 189.84 5.38368 189.017 5.08797 187.997C4.78949 186.974 5.06586 185.736 5.94748 185.14C6.38967 184.841 6.93135 184.727 7.45645 184.625C12.6881 183.58 17.9226 182.557 23.1625 181.56C23.4555 184.539 23.6655 187.526 23.7899 190.519C23.8037 190.865 23.8147 191.22 23.6987 191.547C23.3504 192.511 22.1206 192.744 21.1036 192.824L21.098 192.822Z" fill="white"/>
</g>
<defs>
<clipPath id="clip0_5032_37343">
<rect width="224" height="203" fill="white"/>
</clipPath>
</defs>
</svg>
