<svg width="185" height="228" viewBox="0 0 185 228" fill="none" xmlns="http://www.w3.org/2000/svg">
<path d="M27.4478 147.263C36.2631 175.769 77.1337 217.522 120.008 225.952C162.883 234.383 170.896 209.893 176.106 180.585C181.314 151.277 165.822 100.824 165.822 100.824C165.822 100.824 141.246 74.1938 140.445 72.9879C139.645 71.7838 92.3625 65.3595 92.3625 65.3595L67.1183 76.2001L48.6871 90.6531L33.0606 110.727L24.6465 129.194L27.4512 147.261L27.4478 147.263Z" fill="#F87891"/>
<g style="mix-blend-mode:multiply">
<path d="M130.393 186.884C119.921 185.731 118.335 181.503 115.458 173.826C113.735 169.23 111.59 163.512 106.808 157.174C98.277 145.869 87.9742 146.688 78.0105 147.482C74.6376 147.751 71.1924 148.022 67.7799 147.827C68.3188 139.519 77.2753 131.839 86.6501 131.839C92.3422 131.839 94.7423 132.541 96.1765 132.96C97.516 133.351 98.5732 133.66 100.211 132.592C100.922 132.128 101.121 131.174 100.658 130.462C100.195 129.749 99.243 129.549 98.5319 130.013C98.23 130.211 97.7318 130.208 97.0374 130.005C95.4465 129.539 92.7813 128.759 86.6501 128.759C75.6104 128.759 65.4314 137.581 64.7186 147.51C63.8388 147.375 62.9625 147.202 62.093 146.976C54.829 145.086 52.5167 139.134 51.7849 135.756C50.1424 128.174 52.9523 119.416 58.467 114.934C60.4797 113.297 62.353 111.901 64.0058 110.67C71.1545 105.342 75.4675 102.127 72.1686 92.9424C71.8811 92.1419 71.0013 91.7279 70.2024 92.016C69.4035 92.3041 68.9903 93.1856 69.2778 93.986C71.8053 101.021 69.1831 102.977 62.1722 108.201C60.4952 109.45 58.5944 110.866 56.5318 112.545C50.1665 117.718 46.9073 127.755 48.7822 136.41C50.2836 143.336 54.8531 148.274 61.3199 149.957C67.0327 151.445 72.7368 150.991 78.2532 150.551C83.4546 150.137 88.2841 149.756 92.7813 150.894C88.6663 154.244 85.5741 159.66 84.1416 166.175C83.8506 167.5 83.6474 168.827 83.5131 170.146C82.6196 170.509 74.5997 173.923 72.0825 180.861C71.7933 181.66 72.203 182.543 73.0002 182.833C73.1741 182.897 73.3514 182.926 73.5253 182.926C74.1521 182.926 74.7426 182.538 74.9682 181.914C76.5418 177.58 81.0476 174.799 83.3341 173.626C83.341 179.381 84.8389 184.789 87.6918 188.892C87.9897 189.321 88.4683 189.551 88.9538 189.551C89.2569 189.551 89.5633 189.461 89.8302 189.275C90.5258 188.788 90.698 187.829 90.2124 187.132C86.6295 181.977 85.4811 174.39 87.1408 166.836C88.5871 160.255 92.0013 154.796 96.3022 152.152C99.1207 153.49 101.801 155.643 104.355 159.028C108.869 165.009 110.841 170.267 112.58 174.906C115.445 182.547 117.707 188.581 130.055 189.94C130.112 189.947 130.169 189.949 130.226 189.949C130.999 189.949 131.663 189.366 131.751 188.578C131.844 187.732 131.235 186.973 130.393 186.88V186.884Z" fill="#F5DFDA"/>
<path d="M131.746 80.9183C130.916 80.7423 130.1 81.2719 129.924 82.1035C127.979 91.2673 125.649 97.7986 113.327 98.3506C100.355 98.932 94.7647 103.359 94.033 113.63C93.9727 114.477 94.6098 115.214 95.4551 115.274C95.493 115.277 95.5292 115.277 95.5653 115.277C96.3642 115.277 97.0374 114.658 97.096 113.847C97.6177 106.535 100.393 102.148 112.876 101.456C111.19 105.843 110.708 112.591 118.628 119.14C122.735 122.535 125.29 125.893 126.293 129.215C126.663 130.441 127.123 131.966 127.765 133.897C127.981 134.542 128.58 134.949 129.222 134.949C129.384 134.949 129.547 134.923 129.707 134.87C130.511 134.6 130.947 133.729 130.678 132.924C130.05 131.035 129.597 129.532 129.232 128.325C127.51 122.616 127.268 122.292 120.582 116.766C113.542 110.947 114.334 105.134 116.364 101.171C128.335 99.6013 130.987 91.8831 132.929 82.7435C133.106 81.912 132.576 81.0943 131.746 80.9183Z" fill="#F5DFDA"/>
</g>
<path d="M41.3372 62.8184C28.7822 71.1162 10.8848 48.3654 9.28182 48.098C1.00198 51.041 -0.600958 60.4084 1.53572 64.9593C12.4877 79.4123 30.652 81.5532 31.1875 83.6958C31.7212 85.8366 24.7758 94.9366 24.7758 94.9366C10.351 89.3162 2.06946 94.1344 2.06946 94.1344C-2.73936 102.165 2.33633 107.785 2.33633 107.785C20.7675 108.32 25.0426 113.673 25.0426 113.673C25.0426 113.673 54.4275 94.9366 54.4275 93.3323C54.4275 91.7279 54.6944 85.3018 54.4275 82.8936C54.1607 80.4853 41.3389 62.8201 41.3389 62.8201L41.3372 62.8184Z" fill="#E85874"/>
<path d="M53.3584 53.7184C61.9068 42.7449 58.701 7.94933 58.701 7.14715C58.701 6.34497 79.8043 2.06151 79.8043 2.06151C80.338 22.9389 78.4682 28.0245 84.6131 26.6858C90.7563 25.3471 89.6888 13.8389 89.6888 12.5002C89.6888 11.1615 95.832 12.7676 95.832 12.7676C95.832 15.7124 96.3657 24.8123 96.3657 24.8123C103.311 28.8267 105.715 33.1102 105.715 33.1102C105.715 33.1102 101.708 52.3814 100.906 53.1836C100.104 53.9858 78.7351 62.2836 78.7351 62.2836L53.3584 53.7184Z" fill="#E85874"/>
<path d="M144.449 18.6554L141.51 32.5736C158.338 45.1532 168.222 78.0753 165.819 100.824C154.333 94.6692 148.99 92.2592 148.99 92.2592C148.99 92.2592 126.017 77.5388 124.948 77.2714C123.879 77.004 108.12 75.9327 108.12 75.9327L95.298 81.5532C95.298 81.5532 91.5584 81.4186 89.9555 79.6124L85.949 77.0023L83.2786 55.0554C86.2176 36.8554 102.779 30.1637 110.525 27.7554C118.271 25.3471 119.874 15.7106 116.937 10.8941C116.336 8.284 125.952 6.07585 128.423 10.6267C131.628 18.6571 127.889 31.5041 131.095 30.7002C134.301 29.898 140.177 17.3167 140.177 17.3167C142.181 16.1799 143.984 17.3167 144.45 18.6554H144.449Z" fill="#FFA3B5"/>
<path d="M89.9555 79.6124C98.17 81.4186 97.7688 64.5573 113.597 56.1267C129.425 47.696 137.037 52.7144 144.049 53.1163C151.062 53.5183 176.506 36.4552 176.506 36.4552L181.714 51.7121C175.302 54.7224 154.867 67.3692 153.867 71.1835C152.864 74.9977 152.463 93.265 149.86 93.4651C147.257 93.6652 128.824 79.8142 114.399 83.8303C99.9744 87.8447 89.7558 83.6302 89.9573 79.6141L89.9555 79.6124Z" fill="#E85874"/>
<path d="M181.04 52.345C183.299 51.7983 184.256 47.7319 183.179 43.2624C182.101 38.793 179.397 35.613 177.138 36.1597C174.879 36.7065 173.921 40.7729 174.998 45.2423C176.076 49.7118 178.781 52.8918 181.04 52.345Z" fill="#F77690"/>
<path d="M180.541 50.2758C181.873 49.9534 182.303 46.9953 181.501 43.6687C180.699 40.3421 178.969 37.9066 177.637 38.229C176.305 38.5514 175.875 41.5094 176.677 44.8361C177.479 48.1627 179.209 50.5981 180.541 50.2758Z" fill="#E85874"/>
<path d="M21.5803 150.423C23.3227 154.217 28.951 153.337 29.4056 149.186C31.6008 129.153 37.2429 116.595 58.4341 104.037C83.2771 89.3162 93.4284 83.6958 89.4202 62.551C85.4137 41.4062 39.2005 45.4206 24.7758 84.2305C13.7791 113.815 15.3579 136.867 21.5803 150.423Z" fill="#F9CBD5"/>
<path d="M69.9478 8.7595C75.8693 7.47779 80.2766 4.61557 79.7917 2.36654C79.3068 0.117515 74.1134 -0.666652 68.1918 0.615055C62.2703 1.89676 57.8631 4.75899 58.3479 7.00801C58.8328 9.25704 64.0263 10.0412 69.9478 8.7595Z" fill="#F77690"/>
<path d="M69.4307 6.36339C72.879 5.61702 75.5126 4.26155 75.313 3.33586C75.1134 2.41018 72.1562 2.26481 68.708 3.01118C65.2597 3.75756 62.6261 5.11303 62.8257 6.03871C63.0253 6.9644 65.9825 7.10976 69.4307 6.36339Z" fill="#E85874"/>
</svg>
