<svg width="204" height="200" viewBox="0 0 204 200" fill="none" xmlns="http://www.w3.org/2000/svg">
<path d="M124.668 126.933C124.642 126.661 124.606 126.386 124.553 126.102C124.085 123.489 123.376 122.226 120.92 121.262C112.689 118.04 102.827 119.667 94.5821 122.066C92.1488 122.777 89.6887 123.568 87.1529 123.551C82.0992 123.511 77.3217 120.182 73.4935 117.32C70.4675 115.058 66.9067 112.516 63.0785 111.916C61.9109 111.734 59.794 111.508 59.638 113.13C59.5132 114.432 60.975 115.876 61.8351 116.663C65.7346 120.213 69.6519 124.786 74.8751 126.359C80.8914 128.172 62.7131 124.04 61.795 123.782C60.8769 123.524 50.1366 112.743 43.0729 111.841C41.4596 111.632 39.365 112.423 39.9533 114.383C40.5148 116.236 43.269 118.142 44.6594 119.365C48.9823 123.16 53.5681 126.87 53.5681 126.87C50.4753 124.742 47.2977 122.724 44.0845 120.791C41.522 119.249 38.9149 117.76 36.2231 116.445C34.3603 115.538 31.9626 114.17 29.8279 114.116C28.7405 114.09 27.6665 114.494 27.1584 115.556C25.5006 119.027 33.1436 123.409 35.3006 124.884C44.0311 130.861 58.3055 141.651 58.9606 141.909C59.6157 142.166 112.698 145.833 120.912 135.514C121.754 134.456 123.02 133.31 123.621 132.101C124.463 130.412 124.833 128.763 124.664 126.933H124.668Z" fill="#D9B89E"/>
<path d="M184.017 177.167C183.99 176.749 183.932 176.336 183.838 175.927C182.947 172.048 175.58 167.039 172.661 164.173C167.942 159.542 163.222 154.912 158.503 150.281C152.602 144.486 146.697 138.696 140.792 132.901C140.792 132.901 129.321 115.192 101.757 121.631C98.0581 122.498 94.5597 124.031 91.244 125.862C87.9551 127.684 85.1875 129.994 81.6134 131.154C77.6871 132.43 73.7074 133.51 69.692 134.465C67.6375 134.954 65.5741 135.407 63.5018 135.843C61.7192 136.216 59.5666 137.016 57.7439 136.7C50.6 135.461 44.6817 131.497 37.8987 129.266C34.3558 128.101 30.6256 127.652 26.9222 127.213C26.0576 127.11 25.0816 127.039 24.4131 127.595C23.5842 128.288 23.6689 129.608 24.1324 130.585C25.1797 132.812 27.5595 134.034 29.7566 135.149C34.9752 137.794 40.0691 140.78 45.105 143.686C49.8067 146.402 54.3614 148.53 59.8964 148.739C68.9433 149.081 110.835 146.606 116.428 148.499C117.721 148.939 118.723 150.499 119.517 151.512C126.567 160.489 131.674 171.377 136.946 181.433C139.393 186.099 141.688 190.85 144.166 195.503C147.901 202.52 157.384 199.72 163.548 197.725C168.521 196.12 173.236 193.636 177.118 190.121C180.336 187.206 184.311 181.966 184.008 177.158L184.017 177.167Z" fill="#F4DCC9"/>
<path d="M90.6468 126.875C86.8632 128.506 82.6294 128.67 78.5116 128.812C75.0934 128.928 71.2117 125.528 68.2793 123.871C66.2916 122.746 64.1881 121.586 61.9019 121.569C60.4891 121.555 58.7956 122.364 58.8268 123.773C58.8447 124.44 59.2591 125.026 59.6602 125.559L64.1569 131.603C67.8871 136.62 72.6734 140.527 78.779 142.233C82.0635 143.149 85.4638 143.593 88.7661 144.442C92.0863 145.299 95.4243 146.584 98.8291 146.197C100.714 145.984 102.501 145.268 104.235 144.5C106.129 143.66 108.103 142.651 109.146 140.86C110.283 138.905 110.042 136.46 109.578 134.247C109.137 132.141 108.518 130.07 107.742 128.061C107.306 126.941 106.802 125.808 105.946 124.964C101.463 120.533 94.9875 125.004 90.6513 126.875H90.6468Z" fill="#F4DCC9"/>
<path d="M44.3697 80.7377L52.1598 98.8601C52.9442 100.709 55.2081 101.193 56.5496 99.82C60.7388 95.5272 68.823 85.8438 76.6398 74.0851C80.0892 68.899 83.4896 63.3041 86.4755 57.5847C99.5155 32.6853 104.756 5.59493 72.5264 0.111099C79.4074 4.4084 83.2044 9.39007 84.7553 14.7095C88.0309 25.8016 81.5287 38.4091 72.7671 49.5234C69.4291 53.7585 65.7792 57.7625 62.2005 61.3843C54.9942 68.7124 48.1623 74.4895 45.0338 77.3736C44.1424 78.1958 43.8661 79.5778 44.3697 80.7421V80.7377Z" fill="#E897B2"/>
<path d="M86.471 57.5803C83.4851 63.2996 80.0848 68.8946 76.6354 74.0807C87.6877 82.8841 98.3612 89.63 103.669 92.4342C105.385 93.3319 107.372 92.1809 107.564 90.1767L109.396 70.5477C109.516 69.2856 108.843 68.0547 107.729 67.5481C103.878 65.7438 95.5803 62.3353 86.471 57.5803Z" fill="#BF5679"/>
<path d="M62.2005 61.3798C65.7791 57.758 69.4291 53.754 72.767 49.5189C61.0061 41.6043 50.9387 31.592 50.6624 20.0289C50.502 14.4917 52.6055 8.60348 57.8152 2.40862C28.8118 17.4825 42.128 41.6665 62.196 61.3754L62.2005 61.3798Z" fill="#BF5679"/>
<path d="M50.6624 20.0333C51.019 19.6067 55.7831 14.0873 66.9111 12.3453C78.1506 10.5855 84.3854 14.4695 84.7553 14.7095C83.2356 9.50562 79.5723 4.62617 72.9721 0.395524C72.6735 0.204434 72.3348 0.0933354 71.9916 0.0711156C70.8285 -0.00443153 67.9317 -0.11553 64.8923 0.359972C61.8618 0.835475 59.3171 1.79092 58.2966 2.20866C57.9846 2.33753 57.7083 2.54195 57.4899 2.80859C52.5164 8.85681 50.5065 14.6162 50.6624 20.0333Z" fill="#FFEDF3"/>
</svg>
