<svg width="214" height="227" viewBox="0 0 214 227" fill="none" xmlns="http://www.w3.org/2000/svg">
<path d="M113.46 80.0331V0H102.25V79.1577C102.25 90.6276 96.3246 101.287 86.5749 107.359L74.34 114.977L80.2743 124.47L92.5609 116.82C101.795 111.07 113.553 111.275 122.581 117.342L133.032 124.365L139.294 115.085L128.165 107.606C118.973 101.43 113.462 91.0949 113.462 80.0347L113.46 80.0331Z" fill="white"/>
<path d="M134.194 143.662C133.248 152.418 131.081 161.045 131.062 169.876C131.046 178.699 135.028 188.468 143.348 191.448C149.825 193.768 156.482 192.781 162.861 195.967C169.728 199.399 175.359 205.087 179.986 211.109C184.728 217.279 190.833 228.446 200.152 226.844C207.947 225.504 210.861 216.656 211.98 209.86C217.186 178.256 212.288 145.028 197.694 116.461C190.552 102.478 181.168 89.4169 169.382 78.9878C160.489 71.1197 144.925 58.4982 132.844 67.5406C131.034 68.8955 129.549 70.6948 128.323 72.5837C121.441 83.2056 128.12 96.3459 131.055 107.116C133.89 117.523 135.077 128.377 134.554 139.149C134.481 140.658 134.355 142.162 134.192 143.662H134.194Z" fill="#E79BC2"/>
<path d="M206.254 176.382C207.915 176.965 209.072 177.148 209.072 177.148C209.072 177.148 207.939 176.846 206.365 176.106C204.787 175.378 202.779 174.217 200.841 172.953C197.024 170.48 193.516 167.648 193.388 167.543C191.605 163.682 189.402 159.622 186.645 155.569C185.354 153.664 183.932 151.77 182.387 149.915C184.853 150.327 187.638 150.645 190.406 151.001C191.754 151.185 193.081 151.388 194.376 151.614L194.347 151.637C194.347 151.637 194.742 152.059 195.317 152.772C195.885 153.479 196.607 154.456 197.241 155.492C197.881 156.525 198.409 157.628 198.696 158.502C198.977 159.374 199.049 159.996 199.049 159.996C199.049 159.996 199.099 159.376 198.986 158.435C198.871 157.498 198.552 156.264 198.102 155.078C197.691 153.976 197.196 152.92 196.77 152.095C197.378 152.238 197.992 152.379 198.556 152.53C199.339 152.791 200.11 152.979 200.768 153.275C201.441 153.541 202.063 153.785 202.574 154.081C203.095 154.357 203.569 154.574 203.905 154.833C204.612 155.313 205.015 155.589 205.015 155.589C205.015 155.589 204.647 155.266 204.003 154.701C203.692 154.397 203.247 154.123 202.753 153.778C202.268 153.413 201.672 153.09 201.019 152.734C200.377 152.347 199.626 152.062 198.853 151.696C198.065 151.377 197.225 151.045 196.344 150.749C196.221 150.707 196.085 150.67 195.96 150.629C195.908 150.544 195.875 150.488 195.875 150.488L195.768 150.569C194.241 150.066 192.631 149.619 191.005 149.191C191.658 148.835 192.319 148.417 192.932 147.892C194.011 146.985 194.881 145.885 195.376 144.985C195.887 144.093 196.068 143.438 196.068 143.438C196.068 143.438 195.771 144.052 195.13 144.817C194.504 145.592 193.5 146.471 192.383 147.114C191.275 147.768 190.018 148.162 189.124 148.331C188.805 148.413 188.495 148.452 188.229 148.486C185.323 147.756 182.577 147.05 180.542 146.284C179.888 146.038 179.271 145.821 178.814 145.592C178.566 145.474 178.345 145.381 178.136 145.287C177.26 144.439 176.356 143.606 175.392 142.808C174.664 142.185 173.724 141.497 172.928 140.927C172.812 140.848 172.715 140.781 172.613 140.71C176.415 140.29 180.797 139.395 185.263 138.974C185.858 138.909 186.45 138.862 187.042 138.823L187.049 138.871C187.034 138.874 187.16 138.848 187.353 138.8C187.96 138.762 188.565 138.733 189.167 138.709C189.276 138.704 189.383 138.709 189.491 138.704C190.738 138.983 193.452 139.633 196.106 140.558C197.904 141.179 199.652 141.95 200.833 142.742C201.117 142.952 201.411 143.115 201.605 143.324C201.808 143.526 202.022 143.678 202.136 143.851C202.376 144.193 202.513 144.389 202.513 144.389C202.513 144.389 202.4 144.177 202.203 143.804C202.107 143.611 201.914 143.436 201.73 143.201C201.552 142.957 201.282 142.76 201.016 142.506C199.909 141.544 198.222 140.539 196.478 139.681C195.86 139.376 195.239 139.091 194.631 138.821C195.273 138.859 195.901 138.906 196.504 138.996C197.621 139.164 198.698 139.247 199.664 139.461C200.636 139.662 201.528 139.845 202.318 140.008C203.101 140.2 203.775 140.41 204.334 140.561C205.456 140.877 206.094 141.056 206.094 141.056C206.094 141.056 205.474 140.819 204.386 140.405C203.84 140.203 203.183 139.933 202.414 139.669C201.636 139.434 200.756 139.169 199.797 138.88C198.837 138.577 197.764 138.395 196.642 138.122C195.519 137.852 194.308 137.727 193.063 137.51C192.391 137.439 191.702 137.363 191.006 137.298C192.17 136.671 193.437 135.873 194.609 134.952C196.258 133.67 197.764 132.24 198.796 131.086C199.842 129.947 200.485 129.146 200.485 129.146C200.485 129.146 199.751 129.87 198.588 130.873C197.44 131.891 195.799 133.12 194.069 134.166C192.342 135.225 190.492 136.023 189.085 136.469C188.379 136.685 187.79 136.831 187.382 136.902C186.964 136.976 186.8 136.984 186.773 136.987L186.788 137.079C186.247 137.07 185.704 137.061 185.163 137.073C179.767 137.104 174.428 137.818 170.624 137.694C169.666 137.7 168.827 137.574 168.074 137.53C167.676 137.453 167.325 137.395 166.995 137.34C165.201 136.325 163.426 135.338 161.676 134.383C162.873 133.913 164.259 133.276 165.61 132.548C168.828 130.827 171.726 128.671 171.726 128.671C171.726 128.671 168.562 130.428 165.214 131.681C163.546 132.314 161.839 132.819 160.567 133.095C160.231 133.162 159.931 133.221 159.658 133.27C156.812 131.71 154.056 130.178 151.519 128.572C148.808 126.896 146.333 125.154 144.105 123.391C146.292 123.458 148.721 123.441 151.296 123.267C154.418 123.064 157.747 122.604 160.98 121.907C163.39 121.398 165.79 120.865 168.103 120.374L168.032 120.612C168.032 120.612 171.458 121.401 174.816 122.502C176.496 123.045 178.152 123.664 179.365 124.203C180.578 124.742 181.354 125.179 181.354 125.179C181.354 125.179 180.645 124.641 179.504 123.939C178.365 123.235 176.786 122.39 175.173 121.618C173.709 120.909 172.23 120.267 171.034 119.77C173.726 119.231 176.251 118.788 178.45 118.562C180.852 118.313 182.877 118.3 184.295 118.336C185.713 118.369 186.525 118.429 186.525 118.429C186.525 118.429 185.727 118.28 184.315 118.092C182.904 117.899 180.87 117.688 178.409 117.67C174.456 117.641 169.5 118.159 164.37 118.693C164.449 118.605 164.517 118.532 164.601 118.438C165.632 117.274 166.942 115.672 168.106 113.971C169.281 112.278 170.303 110.489 170.964 109.104C171.297 108.412 171.551 107.826 171.707 107.408C171.875 106.994 171.967 106.758 171.967 106.758C171.967 106.758 171.846 106.981 171.633 107.374C171.431 107.77 171.11 108.32 170.703 108.961C169.891 110.248 168.689 111.877 167.352 113.387C166.027 114.907 164.577 116.306 163.456 117.306C162.332 118.316 161.556 118.9 161.556 118.9L161.62 118.975C161.257 119.011 160.894 119.049 160.53 119.086C157.353 119.41 154.204 119.492 151.243 119.362C148.285 119.236 145.543 118.92 143.217 118.545C140.891 118.172 138.984 117.744 137.675 117.411C137.626 117.397 137.593 117.388 137.546 117.376C135.524 115.208 133.923 113.114 132.656 111.248C134.057 117.388 134.882 123.658 135.141 129.95C138.695 132.44 142.697 134.778 146.952 136.828C148.789 137.733 150.676 138.581 152.576 139.408C152.85 139.741 153.201 140.168 153.655 140.721C154.634 141.956 156.052 143.767 157.66 146.043C158.507 147.22 159.398 148.528 160.311 149.928L160.295 149.931C160.298 149.962 160.395 150.335 160.53 151.125C160.664 151.907 160.84 153.043 160.97 154.422C161.135 156.02 161.225 157.963 161.21 160.028L161.075 159.874C161.075 159.874 160.403 160.54 159.457 161.559C158.507 162.579 157.277 163.967 156.099 165.396C153.717 168.236 151.679 171.309 151.679 171.309C151.679 171.309 154.097 168.528 156.796 166.049C158.132 164.797 159.512 163.597 160.565 162.726C160.78 162.547 160.97 162.394 161.152 162.243C161.114 163.037 161.064 163.836 160.983 164.639C160.822 166.504 160.523 168.359 160.152 170.083C159.995 170.954 159.763 171.773 159.55 172.556C159.354 173.345 159.135 174.081 158.892 174.747C158.465 176.103 158.016 177.201 157.677 177.961C157.353 178.731 157.168 179.169 157.168 179.169C157.168 179.169 157.407 178.756 157.825 178.034C158.256 177.317 158.845 176.276 159.445 174.967C159.776 174.325 160.091 173.61 160.389 172.839C160.702 172.075 161.044 171.268 161.315 170.404C161.914 168.698 162.459 166.834 162.868 164.938C163.57 161.872 163.947 158.758 164.104 156.111C164.583 156.945 165.062 157.792 165.516 158.663C166.372 160.277 167.228 161.929 167.986 163.624C168.813 165.294 169.453 167.033 170.16 168.725C170.763 170.445 171.402 172.14 171.861 173.818C172.311 175.499 172.788 177.126 173.022 178.705C173.165 179.494 173.303 180.26 173.436 181.002C173.504 181.753 173.569 182.477 173.632 183.172C173.814 184.569 173.773 185.849 173.741 186.99C173.731 187.562 173.72 188.098 173.711 188.592C173.667 189.084 173.582 189.53 173.53 189.938C173.293 191.571 173.157 192.504 173.157 192.504C173.157 192.504 173.382 191.586 173.773 189.979C173.866 189.574 173.994 189.129 174.083 188.638C174.141 188.14 174.202 187.603 174.267 187.028C174.408 185.877 174.576 184.572 174.527 183.141C174.53 182.424 174.533 181.677 174.536 180.903C174.472 180.134 174.407 179.339 174.339 178.521C174.249 176.871 173.924 175.171 173.624 173.398C173.316 171.627 172.831 169.835 172.375 168.001C171.818 166.203 171.324 164.339 170.642 162.55C170.026 160.731 169.31 158.953 168.587 157.206C167.872 155.457 167.077 153.778 166.323 152.142C164.755 148.906 163.187 145.928 161.731 143.436C161.687 143.359 161.646 143.292 161.602 143.216C163.441 143.998 165.262 144.79 167.035 145.617L168.236 146.198L169.392 146.792C170.16 147.219 170.771 147.551 171.517 148.044C172.948 148.963 174.348 149.982 175.676 151.095C178.348 153.307 180.816 155.777 183.035 158.329C184.683 160.213 186.157 162.136 187.546 164.058C187.609 164.424 187.674 164.821 187.739 165.261C188.034 167.274 188.306 169.989 188.293 172.712C188.288 174.073 188.2 175.432 188.054 176.704C187.891 177.972 187.645 179.139 187.391 180.136C187.233 180.623 187.087 181.07 186.958 181.468C186.847 181.873 186.659 182.187 186.546 182.468C186.301 183.018 186.16 183.332 186.16 183.332C186.16 183.332 186.327 183.032 186.621 182.504C186.754 182.235 186.975 181.93 187.121 181.534C187.285 181.145 187.47 180.706 187.674 180.227C188.018 179.245 188.372 178.081 188.648 176.804C188.908 175.526 189.121 174.147 189.246 172.759C189.439 170.65 189.465 168.534 189.41 166.719C190.991 169.1 192.392 171.451 193.567 173.683C196.115 178.55 197.667 182.911 198.383 186.054C198.763 187.623 198.941 188.884 199.046 189.745C199.125 190.612 199.166 191.075 199.166 191.075C199.166 191.075 199.179 190.61 199.208 189.738C199.208 188.866 199.184 187.579 198.992 185.949C198.655 182.688 197.623 178.066 195.621 172.767C195.355 172.069 195.03 171.33 194.73 170.609C196.238 171.521 198.27 172.7 200.36 173.768C202.444 174.842 204.589 175.804 206.252 176.375L206.254 176.382Z" fill="#DF659D"/>
<path d="M79.8062 143.662C80.7516 152.418 82.9193 161.045 82.9375 169.876C82.9542 178.699 78.9717 188.468 70.6524 191.448C64.1754 193.768 57.5175 192.781 51.1394 195.967C44.2717 199.399 38.6415 205.087 34.0144 211.109C29.2718 217.279 23.1673 228.446 13.8478 226.844C6.05291 225.504 3.14048 216.656 2.02019 209.86C-3.18601 178.256 1.71162 145.028 16.3057 116.461C23.4485 102.478 32.8318 89.4169 44.6183 78.9878C53.5107 71.1197 69.0746 58.4982 81.156 67.5406C82.9664 68.8955 84.4515 70.6948 85.6766 72.5837C92.5595 83.2056 85.8803 96.3459 82.9451 107.116C80.1102 117.523 78.923 128.377 79.4459 139.149C79.5189 140.658 79.6451 142.162 79.8077 143.662H79.8062Z" fill="#E79BC2"/>
<path d="M7.74617 176.382C6.08474 176.965 4.92798 177.148 4.92798 177.148C4.92798 177.148 6.06042 176.846 7.6352 176.106C9.21303 175.378 11.221 174.217 13.1591 172.953C16.976 170.48 20.4843 167.648 20.6119 167.543C22.395 163.682 24.5975 159.622 27.3549 155.569C28.6455 153.664 30.0682 151.77 31.6126 149.915C29.1471 150.327 26.3623 150.645 23.5943 151.001C22.246 151.185 20.919 151.388 19.6239 151.614L19.6528 151.637C19.6528 151.637 19.2576 152.059 18.683 152.772C18.1145 153.479 17.3925 154.456 16.7586 155.492C16.1187 156.525 15.5912 157.628 15.3039 158.502C15.0227 159.374 14.9512 159.996 14.9512 159.996C14.9512 159.996 14.9011 159.376 15.0136 158.435C15.1291 157.498 15.4483 156.264 15.8982 155.078C16.3087 153.976 16.8042 152.92 17.2298 152.095C16.6218 152.238 16.0077 152.379 15.4437 152.53C14.6609 152.791 13.8902 152.979 13.2321 153.275C12.5587 153.541 11.937 153.785 11.4262 154.081C10.9049 154.357 10.4306 154.574 10.0947 154.833C9.38783 155.313 8.98502 155.589 8.98502 155.589C8.98502 155.589 9.35287 155.266 9.99738 154.701C10.3075 154.397 10.7528 154.123 11.2469 153.778C11.7318 153.413 12.3276 153.09 12.9813 152.734C13.6227 152.347 14.3736 152.062 15.1473 151.696C15.9347 151.377 16.7753 151.045 17.6554 150.749C17.7786 150.707 17.9154 150.67 18.04 150.629C18.0917 150.544 18.1251 150.488 18.1251 150.488L18.2315 150.569C19.7592 150.066 21.3689 149.619 22.9954 149.191C22.3418 148.835 21.6806 148.417 21.068 147.892C19.9887 146.985 19.1193 145.885 18.6237 144.985C18.113 144.093 17.9321 143.438 17.9321 143.438C17.9321 143.438 18.2285 144.052 18.87 144.817C19.4962 145.592 20.4995 146.471 21.6167 147.114C22.7248 147.768 23.9819 148.162 24.8757 148.331C25.1949 148.413 25.505 148.452 25.771 148.486C28.6774 147.756 31.4226 147.05 33.458 146.284C34.1116 146.038 34.7287 145.821 35.1863 145.592C35.434 145.474 35.6545 145.381 35.8642 145.287C36.7398 144.439 37.6442 143.606 38.6079 142.808C39.336 142.185 40.2754 141.497 41.0719 140.927C41.1875 140.848 41.2848 140.781 41.3866 140.71C37.5849 140.29 33.2026 139.395 28.7367 138.974C28.1423 138.909 27.5495 138.862 26.9582 138.823L26.9506 138.871C26.9658 138.874 26.8396 138.848 26.6466 138.8C26.0401 138.762 25.4351 138.733 24.8332 138.709C24.7237 138.704 24.6173 138.709 24.5094 138.704C23.2614 138.983 20.5481 139.633 17.8941 140.558C16.0959 141.179 14.3478 141.95 13.1667 142.742C12.8824 142.952 12.5891 143.115 12.3945 143.324C12.1923 143.526 11.978 143.678 11.864 143.851C11.6238 144.193 11.487 144.389 11.487 144.389C11.487 144.389 11.5995 144.177 11.7971 143.804C11.8929 143.611 12.0859 143.436 12.2699 143.201C12.4477 142.957 12.7183 142.76 12.9843 142.506C14.0909 141.544 15.7782 140.539 17.5217 139.681C18.1403 139.376 18.759 139.091 19.3685 138.821C18.7271 138.859 18.0993 138.906 17.4958 138.996C16.3786 139.164 15.3024 139.247 14.3356 139.461C13.3643 139.662 12.472 139.845 11.6816 140.008C10.8988 140.2 10.2254 140.41 9.666 140.561C8.54572 140.877 7.90577 141.056 7.90577 141.056C7.90577 141.056 8.52596 140.819 9.61432 140.405C10.16 140.203 10.8167 139.933 11.5858 139.669C12.3641 139.434 13.2442 139.169 14.2034 138.88C15.1625 138.577 16.2357 138.395 17.3575 138.122C18.4808 137.852 19.6923 137.727 20.9372 137.51C21.6091 137.439 22.2977 137.363 22.9939 137.298C21.8295 136.671 20.5633 135.873 19.3913 134.952C17.7421 133.67 16.2357 132.24 15.2036 131.086C14.1578 129.947 13.5148 129.146 13.5148 129.146C13.5148 129.146 14.249 129.87 15.4118 130.873C16.5595 131.891 18.2011 133.12 19.931 134.166C21.6577 135.225 23.5077 136.023 24.9152 136.469C25.6205 136.685 26.2103 136.831 26.6177 136.902C27.0357 136.976 27.1999 136.984 27.2272 136.987L27.212 137.079C27.7532 137.07 28.2958 137.061 28.837 137.073C34.2332 137.104 39.5716 137.818 43.3764 137.694C44.334 137.7 45.1731 137.574 45.9255 137.53C46.3238 137.453 46.6749 137.395 47.0047 137.34C48.7984 136.325 50.5738 135.338 52.3234 134.383C51.1271 133.913 49.7408 133.276 48.3895 132.548C45.1715 130.827 42.2743 128.671 42.2743 128.671C42.2743 128.671 45.4376 130.428 48.7862 131.681C50.4538 132.314 52.1608 132.819 53.4331 133.095C53.769 133.162 54.0685 133.221 54.3421 133.27C57.1876 131.71 59.9435 130.178 62.4805 128.572C65.1922 126.896 67.6669 125.154 69.8953 123.391C67.7079 123.458 65.2789 123.441 62.7039 123.267C59.5817 123.064 56.2528 122.604 53.0196 121.907C50.6103 121.398 48.2101 120.865 45.8966 120.374L45.9681 120.612C45.9681 120.612 42.5418 121.401 39.184 122.502C37.5044 123.045 35.8475 123.664 34.6345 124.203C33.4215 124.742 32.6463 125.179 32.6463 125.179C32.6463 125.179 33.3546 124.641 34.4962 123.939C35.6347 123.235 37.214 122.39 38.8268 121.618C40.2906 120.909 41.7697 120.267 42.9659 119.77C40.2739 119.231 37.7491 118.788 35.5496 118.562C33.1479 118.313 31.1232 118.3 29.7049 118.336C28.2867 118.369 27.475 118.429 27.475 118.429C27.475 118.429 28.273 118.28 29.6852 118.092C31.0958 117.899 33.1296 117.688 35.5906 117.67C39.5443 117.641 44.4997 118.159 49.6299 118.693C49.5508 118.605 49.4824 118.532 49.3988 118.438C48.3682 117.274 47.0579 115.672 45.8936 113.971C44.7186 112.278 43.6971 110.489 43.0359 109.104C42.703 108.412 42.4491 107.826 42.2926 107.408C42.1253 106.994 42.0326 106.758 42.0326 106.758C42.0326 106.758 42.1542 106.981 42.367 107.374C42.5692 107.77 42.8899 108.32 43.2973 108.961C44.109 110.248 45.3114 111.877 46.6475 113.387C47.973 114.907 49.4232 116.306 50.5434 117.306C51.6683 118.316 52.4435 118.9 52.4435 118.9L52.3797 118.975C52.743 119.011 53.1063 119.049 53.4696 119.086C56.6465 119.41 59.796 119.492 62.7571 119.362C65.7151 119.236 68.4573 118.92 70.783 118.545C73.1087 118.172 75.0164 117.744 76.3252 117.411C76.3738 117.397 76.4072 117.388 76.4544 117.376C78.476 115.208 80.0767 113.114 81.3444 111.248C79.9429 117.388 79.1175 123.658 78.8591 129.95C75.3052 132.44 71.3029 134.778 67.0482 136.828C65.2105 137.733 63.3241 138.581 61.424 139.408C61.1504 139.741 60.7993 140.168 60.3448 140.721C59.3659 141.956 57.9476 143.767 56.3394 146.043C55.4927 147.22 54.602 148.528 53.6884 149.928L53.7052 149.931C53.7021 149.962 53.6048 150.335 53.4696 151.125C53.3358 151.907 53.1595 153.043 53.0303 154.422C52.8646 156.02 52.7749 157.963 52.7901 160.028L52.9254 159.874C52.9254 159.874 53.5972 160.54 54.5427 161.559C55.4927 162.579 56.7225 163.967 57.9005 165.396C60.2824 168.236 62.3209 171.309 62.3209 171.309C62.3209 171.309 59.9024 168.528 57.2043 166.049C55.8682 164.797 54.488 163.597 53.4346 162.726C53.2203 162.547 53.0303 162.394 52.8478 162.243C52.8858 163.037 52.936 163.836 53.0166 164.639C53.1777 166.504 53.4771 168.359 53.848 170.083C54.0046 170.954 54.2372 171.773 54.45 172.556C54.6461 173.345 54.865 174.081 55.1082 174.747C55.5353 176.103 55.9837 177.201 56.3227 177.961C56.6465 178.731 56.8319 179.169 56.8319 179.169C56.8319 179.169 56.5933 178.756 56.1753 178.034C55.7436 177.317 55.1553 176.276 54.5549 174.967C54.2235 174.325 53.9088 173.61 53.6109 172.839C53.2978 172.075 52.9558 171.268 52.6852 170.404C52.0863 168.698 51.5406 166.834 51.1317 164.938C50.4294 161.872 50.0525 158.758 49.8959 156.111C49.4171 156.945 48.9382 157.792 48.4837 158.663C47.628 160.277 46.7722 161.929 46.0137 163.624C45.1867 165.294 44.5468 167.033 43.84 168.725C43.2365 170.445 42.5981 172.14 42.139 173.818C41.6891 175.499 41.2118 177.126 40.9777 178.705C40.8348 179.494 40.6965 180.26 40.5642 181.002C40.4958 181.753 40.4305 182.477 40.3682 183.172C40.1857 184.569 40.2268 185.849 40.2587 186.99C40.2694 187.562 40.28 188.098 40.2891 188.592C40.3332 189.084 40.4183 189.53 40.47 189.938C40.7071 191.571 40.8424 192.504 40.8424 192.504C40.8424 192.504 40.619 191.586 40.2268 189.979C40.1341 189.574 40.0064 189.129 39.9167 188.638C39.8589 188.14 39.7981 187.603 39.7328 187.028C39.5914 185.877 39.4242 184.572 39.4728 183.141C39.4698 182.424 39.4668 181.677 39.4637 180.903C39.5276 180.134 39.5929 179.339 39.6613 178.521C39.751 176.871 40.0763 175.171 40.3758 173.398C40.6843 171.627 41.1692 169.835 41.6252 168.001C42.1816 166.203 42.6756 164.339 43.3581 162.55C43.9737 160.731 44.6897 158.953 45.4132 157.206C46.1277 155.457 46.9226 153.778 47.6766 152.142C49.2453 148.906 50.8125 145.928 52.2687 143.436C52.3128 143.359 52.3538 143.292 52.3979 143.216C50.5586 143.998 48.7376 144.79 46.9652 145.617L45.7644 146.198L44.6076 146.792C43.84 147.219 43.2289 147.551 42.4826 148.044C41.0522 148.963 39.6522 149.982 38.3237 151.095C35.6514 153.307 33.1844 155.777 30.9651 158.329C29.3173 160.213 27.8429 162.136 26.4535 164.058C26.3912 164.424 26.3258 164.821 26.2605 165.261C25.9656 167.274 25.6935 169.989 25.7072 172.712C25.7117 174.073 25.7999 175.432 25.9458 176.704C26.1085 177.972 26.3547 179.139 26.6086 180.136C26.7667 180.623 26.9126 181.07 27.0418 181.468C27.1528 181.873 27.3413 182.187 27.4537 182.468C27.6985 183.018 27.8398 183.332 27.8398 183.332C27.8398 183.332 27.6726 183.032 27.3793 182.504C27.2455 182.235 27.0251 181.93 26.8792 181.534C26.715 181.145 26.5295 180.706 26.3259 180.227C25.9823 179.245 25.6281 178.081 25.3515 176.804C25.0916 175.526 24.8788 174.147 24.7541 172.759C24.5611 170.65 24.5352 168.534 24.5899 166.719C23.0091 169.1 21.6076 171.451 20.4326 173.683C17.885 178.55 16.333 182.911 15.617 186.054C15.237 187.623 15.0592 188.884 14.9543 189.745C14.8752 190.612 14.8342 191.075 14.8342 191.075C14.8342 191.075 14.8205 190.61 14.7916 189.738C14.7916 188.866 14.816 187.579 15.0075 185.949C15.3449 182.688 16.3771 178.066 18.379 172.767C18.645 172.069 18.9703 171.33 19.2697 170.609C17.7618 171.521 15.7295 172.7 13.6394 173.768C11.5554 174.842 9.41063 175.804 7.74769 176.375L7.74617 176.382Z" fill="#DF659D"/>
<path d="M95.598 117.766H118.612C119.752 117.766 120.798 117.169 121.324 116.217L126.515 106.84C127.021 105.927 126.969 104.829 126.381 103.959L115.623 88.0909C115.061 87.2625 114.09 86.7603 113.045 86.7603H102.209C101.184 86.7603 100.228 87.2428 99.6612 88.0469L88.7228 103.551C88.1573 104.352 88.054 105.367 88.4492 106.256L92.7768 115.995C93.2526 117.066 94.3653 117.764 95.598 117.764V117.766Z" fill="#F0EDEE"/>
<g style="mix-blend-mode:multiply">
<path d="M113.442 19.9662H102.232V21.6442H113.442V19.9662Z" fill="#F0EDEE"/>
<path d="M113.442 15.0232H102.232V16.7012H113.442V15.0232Z" fill="#F0EDEE"/>
<path d="M113.442 25.3734H102.232V27.0514H113.442V25.3734Z" fill="#F0EDEE"/>
<path d="M113.442 9.98915H102.232V11.6672H113.442V9.98915Z" fill="#F0EDEE"/>
<path d="M113.442 5.04616H102.232V6.72417H113.442V5.04616Z" fill="#F0EDEE"/>
<path d="M113.442 50.269H102.232V51.947H113.442V50.269Z" fill="#F0EDEE"/>
<path d="M113.442 45.3275H102.232V47.0055H113.442V45.3275Z" fill="#F0EDEE"/>
<path d="M113.442 30.3149H102.232V31.9929H113.442V30.3149Z" fill="#F0EDEE"/>
<path d="M113.442 35.5371H102.232V37.2151H113.442V35.5371Z" fill="#F0EDEE"/>
<path d="M113.442 40.4785H102.232V42.1566H113.442V40.4785Z" fill="#F0EDEE"/>
</g>
</svg>
