<svg width="174" height="210" viewBox="0 0 174 210" fill="none" xmlns="http://www.w3.org/2000/svg">
<g clip-path="url(#clip0_5032_36521)">
<path d="M113.59 42.9621C113.59 42.9621 111.766 56.7595 96.0698 57.6281L96.4714 63.8586C96.4714 63.8586 103.767 63.3575 109.022 59.6826C109.022 59.6826 115.967 58.6637 119.999 60.4677L121.188 55.7405C121.188 55.7405 115.598 54.7717 111.75 55.4065C111.465 55.4566 111.281 55.1058 111.499 54.9053C113.055 53.3519 116.552 49.5434 116.853 46.353L113.624 42.9621H113.59Z" fill="#9090D4"/>
<path d="M119.33 64.1926C119.33 64.1926 111.666 72.3107 99.7848 69.8886L97.5425 75.3007C97.5425 75.3007 104.738 76.52 110.16 76.2361C115.582 75.9521 120.903 80.4287 120.903 80.4287L122.208 75.8519C122.208 75.8519 117.255 73.0457 114.176 73.0457C111.097 73.0457 121.656 68.853 121.656 68.853L119.313 64.1926H119.33Z" fill="#9090D4"/>
<path d="M99.7514 73.0289C99.1322 74.5156 98.1449 75.5345 97.5592 75.284C96.9568 75.0334 96.9735 73.6303 97.5927 72.1436C98.2119 70.657 99.1992 69.6381 99.7849 69.8886C100.387 70.1392 100.371 71.5423 99.7514 73.0289Z" fill="#7878B7"/>
<path d="M97.5424 60.6514C97.6261 62.3719 97.1743 63.7918 96.5217 63.8252C95.869 63.8586 95.2833 62.4889 95.1997 60.7517C95.116 59.0312 95.5678 57.6114 96.2204 57.578C96.8731 57.5445 97.4588 58.9143 97.5424 60.6514Z" fill="#7878B7"/>
<path d="M125.421 82.0657C125.421 82.0657 109.775 85.1392 102.178 94.2094C94.5636 103.28 100.069 140.546 98.2284 149.783C98.2284 149.783 100.621 152.171 104.42 149.783C104.42 149.783 95.9693 97.4499 125.271 90.7851L125.404 82.0657H125.421Z" fill="#F17970"/>
<path d="M107.148 88.5134C107.148 88.5134 100.956 112.467 120.753 121.37C140.549 130.256 175.038 106.904 173.95 71.9599C172.327 19.7606 148.464 -8.56904 122.978 2.30512C97.4923 13.1793 111.097 38.118 116.05 48.9922C121.004 59.8664 109.122 64.794 107.148 88.5134Z" fill="#F17970"/>
<path d="M147.828 39.2372C147.828 39.2372 160.161 33.8586 158.303 15.5846C156.613 13.0791 154.806 10.8575 152.915 8.91982C153.819 12.7283 157.4 30.5011 147.811 39.2372H147.828Z" fill="#E66963"/>
<path d="M116.887 50.8296C116.887 50.8296 128.601 52.3664 137.42 46.637" stroke="#DC5656" stroke-miterlimit="10" stroke-linecap="round"/>
<path d="M107.382 86.7762C107.382 86.7762 124.166 80.5958 134.106 89.4154" stroke="#DC5656" stroke-miterlimit="10" stroke-linecap="round"/>
<path d="M173.967 71.9599C173.28 60.9354 171.758 50.9632 169.515 42.2105C168.863 72.8619 159.391 114.02 113.741 116.676C114.912 117.795 116.251 118.847 117.774 119.783C118.058 119.95 118.343 120.117 118.627 120.284C118.677 120.317 118.728 120.334 118.778 120.367C119.029 120.501 119.297 120.635 119.548 120.768C119.615 120.802 119.682 120.835 119.765 120.885C120.083 121.052 120.418 121.203 120.753 121.353C140.549 130.239 175.038 106.888 173.95 71.9599H173.967Z" fill="#E66963"/>
<path d="M87.7195 143.836C87.7195 143.836 106.863 142.517 112.921 155.746C118.979 168.992 116.151 181.67 103.249 188.101C90.3635 194.532 97.944 207.962 88.0877 209.85C78.2314 211.737 84.105 192.829 72.5418 188.853C60.9786 184.878 56.8119 169.56 60.9786 157.066C65.1454 144.571 87.7028 143.82 87.7028 143.82L87.7195 143.836Z" fill="#F17970"/>
<path d="M60.3929 42.9621C60.3929 42.9621 62.2169 56.7595 77.9134 57.6281L77.5118 63.8586C77.5118 63.8586 70.2157 63.3575 64.9613 59.6826C64.9613 59.6826 58.0167 58.6637 53.9838 60.4677L52.7957 55.7405C52.7957 55.7405 58.3848 54.7717 62.2336 55.4065C62.5181 55.4566 62.7022 55.1058 62.5014 54.9053C60.9451 53.3519 57.4477 49.5434 57.1465 46.353L60.3762 42.9621H60.3929Z" fill="#9090D4"/>
<path d="M54.67 64.1926C54.67 64.1926 62.3342 72.3107 74.2153 69.8886L76.4576 75.3007C76.4576 75.3007 69.262 76.52 63.8402 76.2361C58.4184 75.9521 53.097 80.4287 53.097 80.4287L51.7917 75.8519C51.7917 75.8519 56.745 73.0457 59.8241 73.0457C62.9031 73.0457 52.344 68.853 52.344 68.853L54.6867 64.1926H54.67Z" fill="#9090D4"/>
<path d="M74.2487 73.0289C74.8679 74.5156 75.8552 75.5345 76.4409 75.284C77.0433 75.0334 77.0265 73.6303 76.4074 72.1436C75.7882 70.657 74.8009 69.6381 74.2152 69.8886C73.6128 70.1392 73.6295 71.5423 74.2487 73.0289Z" fill="#7878B7"/>
<path d="M76.4575 60.6514C76.3738 62.3719 76.8256 63.7918 77.4783 63.8252C78.1309 63.8586 78.7166 62.4889 78.8002 60.7517C78.8839 59.0312 78.4321 57.6114 77.7795 57.578C77.1268 57.5445 76.5412 58.9143 76.4575 60.6514Z" fill="#7878B7"/>
<path d="M48.5789 82.0657C48.5789 82.0657 64.2251 85.1392 71.8224 94.2094C79.4363 103.28 73.9308 140.546 75.7716 149.783C75.7716 149.783 73.3786 152.171 69.58 149.783C69.58 149.783 78.0307 97.4499 48.7295 90.7851L48.5956 82.0657H48.5789Z" fill="#F17970"/>
<path d="M66.8356 88.5134C66.8356 88.5134 73.0272 112.467 53.2309 121.37C33.4346 130.256 -1.05418 106.888 0.0167975 71.9599C1.63999 19.7606 25.5194 -8.56904 51.0053 2.30512C76.4911 13.1793 62.8864 38.118 57.9331 48.9922C52.9799 59.8664 64.861 64.794 66.8356 88.5134Z" fill="#F17970"/>
<path d="M26.1719 39.2372C26.1719 39.2372 13.839 33.8586 15.6964 15.5846C17.3866 13.0791 19.1938 10.8575 21.0848 8.91982C20.1811 12.7283 16.6001 30.5011 26.1886 39.2372H26.1719Z" fill="#E66963"/>
<path d="M57.1132 50.8296C57.1132 50.8296 45.3994 52.3664 36.5806 46.637" stroke="#DC5656" stroke-miterlimit="10" stroke-linecap="round"/>
<path d="M66.618 86.7762C66.618 86.7762 49.8338 80.5958 39.8938 89.4154" stroke="#DC5656" stroke-miterlimit="10" stroke-linecap="round"/>
<path d="M0.0167975 71.9599C0.702891 60.9354 2.22568 50.9632 4.46804 42.2105C5.12066 72.8619 14.5921 114.02 60.2424 116.676C59.071 117.795 57.7323 118.847 56.2095 119.783C55.9251 119.95 55.6406 120.117 55.3561 120.284C55.3059 120.317 55.2557 120.334 55.2055 120.367C54.9545 120.501 54.6867 120.635 54.4357 120.768C54.3688 120.802 54.3019 120.835 54.2182 120.885C53.9002 121.052 53.5656 121.203 53.2309 121.353C33.4346 130.256 -1.05418 106.888 0.0167975 71.9599Z" fill="#E66963"/>
<path d="M88.0876 209.866C97.944 207.979 90.3635 194.549 103.249 188.118C116.134 181.687 118.979 169.009 112.921 155.763C111.649 153.007 109.825 150.885 107.717 149.248C104.838 160.857 96.8395 180.752 75.0686 190.139C83.2683 195.818 79.068 211.604 88.1044 209.866H88.0876Z" fill="#EB6863"/>
<path d="M66.4674 155.512C63.472 159.621 62.3508 163.914 63.974 165.1C65.5972 166.286 69.3457 163.898 72.3578 159.788C75.3532 155.679 76.4743 151.386 74.8511 150.2C73.2279 149.014 69.4795 151.403 66.4674 155.512Z" fill="#F4999C"/>
<path d="M62.2002 169.41C61.899 171.013 62.4345 172.45 63.4218 172.65C64.4091 172.834 65.4633 171.698 65.7645 170.095C66.0657 168.491 65.5302 167.055 64.5429 166.854C63.5556 166.67 62.5014 167.806 62.2002 169.41Z" fill="#F4999C"/>
</g>
<defs>
<clipPath id="clip0_5032_36521">
<rect width="174" height="210" fill="white"/>
</clipPath>
</defs>
</svg>
