<svg width="220" height="188" viewBox="0 0 220 188" fill="none" xmlns="http://www.w3.org/2000/svg">
<g clip-path="url(#clip0_1578_12243)">
<path d="M209.658 40.1039C207.619 31.7818 203.575 24.787 197.027 19.227C194.271 16.8954 191.516 14.5996 188.689 12.3397C185.29 9.61355 181.389 8.03522 177.023 7.85587C169.616 7.5689 162.209 7.17432 154.802 7.17432C151.903 7.17432 148.861 7.81999 146.106 8.82438C141.347 10.5462 136.516 12.3397 132.114 14.8148C121.308 20.877 114.258 29.6654 113.757 42.6508C113.722 43.691 113.686 44.7671 113.578 45.8433C113.292 48.3184 112.648 48.8923 109.785 48.9282C108.998 48.9282 108.211 48.5336 107.137 48.2466C106.815 45.628 106.35 43.1529 106.278 40.642C106.064 33.1449 102.521 27.2262 97.6545 22.0249C91.106 14.9942 75.5758 7.49716 65.9857 7.24606C57.9701 7.0667 49.8829 7.53303 41.8673 8.14283C39.2193 8.32219 36.3923 9.36245 34.1379 10.7614C27.8399 14.7072 22.0429 19.4422 17.4984 25.3968C15.3513 28.2306 13.4548 31.459 12.3097 34.795C6.29798 52.1207 6.29798 69.4823 13.9558 86.3058C19.6812 98.8606 26.9096 110.626 35.4261 121.567C46.0898 135.27 59.5803 145.923 72.4626 157.33C73.2498 158.012 74.1444 158.622 75.0748 159.16C86.4541 165.724 97.8692 172.253 109.249 178.781C109.427 178.889 109.642 178.853 110.537 179.032C111.288 178.674 112.075 178.351 112.791 177.92C121.988 172.647 131.184 167.41 140.381 162.101C143.136 160.487 145.963 158.945 148.325 156.864C156.662 149.618 165.036 142.408 172.98 134.803C185.826 122.464 195.202 107.577 203.611 92.0093C212.521 75.5086 214.131 58.2188 209.658 40.1398V40.1039Z" fill="#FF1F45"/>
<path fill-rule="evenodd" clip-rule="evenodd" d="M110.215 29.1273C111.109 27.5489 111.753 26.4728 112.29 25.3967C116.369 17.3257 122.703 11.5505 130.755 7.6764C134.369 5.91872 138.09 4.34039 141.776 2.76207C145.927 0.932646 150.221 0 154.766 0C161.314 0 167.898 0 174.483 0C182.176 0 189.047 2.40336 195.023 7.31769C195.846 7.99924 196.669 8.68079 197.528 9.29059C215.634 22.5629 220.68 41.3951 219.964 62.6308C219.535 76.1183 215.062 88.3144 208.477 99.9725C200.176 114.644 190.943 128.633 178.813 140.363C170.582 148.327 161.887 155.824 153.191 163.285C150.15 165.868 146.535 167.84 143.064 169.813C134.405 174.728 125.638 179.463 116.942 184.305C115.654 185.023 114.544 186.063 113.399 186.996C111.896 188.251 110.358 188.251 108.676 187.318C105.348 185.489 101.984 183.731 98.6564 181.866C89.9609 176.988 81.3012 172.073 72.6414 167.123C70.8165 166.083 68.9557 164.935 67.3812 163.536C53.998 151.806 40.078 140.65 29.0207 126.409C20.1105 114.931 12.5243 102.663 6.58418 89.4982C-1.89662 70.63 -1.93241 51.2238 5.00969 31.8176C6.26213 28.2664 8.15868 24.7869 10.3773 21.7737C15.7091 14.4919 22.6154 8.86014 30.1658 4.01755C33.78 1.65007 37.931 0.394581 42.1893 0.286968C51.0995 0.035871 59.9739 0.179355 68.8841 0.179355C69.3135 0.179355 69.7429 0.179355 70.1366 0.286968C81.2296 3.37188 91.929 7.28182 100.553 15.3528C103.845 18.4377 106.422 22.0248 108.354 26.1141C108.783 27.0109 109.392 27.8359 110.215 29.0914V29.1273ZM110.537 178.996C111.288 178.638 112.075 178.315 112.791 177.884C121.988 172.611 131.184 167.374 140.381 162.065C143.136 160.451 145.963 158.909 148.325 156.828C156.662 149.582 165.036 142.372 172.98 134.767C185.826 122.428 195.202 107.541 203.611 91.9733C212.521 75.4726 214.131 58.1828 209.658 40.1038C207.619 31.7817 203.575 24.7869 197.027 19.2269C194.271 16.8952 191.516 14.5995 188.689 12.3396C185.289 9.61343 181.389 8.03511 177.023 7.85575C169.616 7.56878 162.209 7.1742 154.801 7.1742C151.903 7.1742 148.861 7.81988 146.106 8.82427C141.347 10.5461 136.516 12.3396 132.114 14.8147C121.308 20.8769 114.258 29.6653 113.757 42.6506C113.721 43.6909 113.686 44.767 113.578 45.8432C113.292 48.3183 112.648 48.8922 109.785 48.9281C108.998 48.9281 108.211 48.5335 107.137 48.2465C106.815 45.6279 106.35 43.1528 106.278 40.6419C106.064 33.1448 102.521 27.2261 97.6544 22.0248C91.106 14.9941 75.5757 7.49704 65.9856 7.24594C57.97 7.06659 49.8828 7.53291 41.8672 8.14272C39.2192 8.32208 36.3923 9.36233 34.1379 10.7613C27.8399 14.7071 22.0429 19.4421 17.4983 25.3967C15.3513 28.2305 13.4547 31.4589 12.3096 34.7949C6.29791 52.1206 6.29791 69.4822 13.9557 86.3057C19.6811 98.8605 26.9095 110.626 35.4261 121.567C46.0897 135.27 59.5803 145.923 72.4625 157.33C73.2498 158.012 74.1444 158.622 75.0747 159.16C86.4541 165.724 97.8692 172.253 109.248 178.781C109.427 178.889 109.642 178.853 110.537 179.032V178.996Z" fill="black"/>
<path fill-rule="evenodd" clip-rule="evenodd" d="M101.591 127.02C102.271 125.656 102.879 124.939 102.95 124.186C103.595 117.155 107.638 111.559 110.644 105.497C111.861 103.022 113.435 100.726 114.831 98.3586C115.153 97.8205 115.403 97.2107 115.761 96.7085C116.942 95.0943 118.409 93.8388 120.52 94.0541C122.703 94.2693 123.777 95.9193 124.457 97.7846C125.315 100.152 126.031 102.555 127.033 105.64C127.892 104.6 128.536 104.098 128.786 103.452C129.824 100.905 130.683 98.2868 131.685 95.7041C132.436 93.7312 132.973 91.6148 134.118 89.8571C137.625 84.4406 139.092 78.1991 141.418 72.2803C142.349 69.9129 142.993 67.4378 143.744 65.0344C144.281 63.2767 145.354 62.0571 147.144 61.5549C149.398 60.9092 151.617 62.0212 152.046 64.2811C152.368 65.9312 152.404 67.653 152.404 69.3389C152.404 73.3923 152.726 77.3382 153.764 81.3198C154.444 83.9384 154.229 86.7722 154.444 89.5343C154.658 92.5475 155.302 93.3366 158.308 93.3366C161.064 93.3366 163.891 93.3366 166.503 92.691C171.763 91.3637 177.023 91.7942 182.319 91.7224C182.928 91.7224 183.572 91.8659 184.18 92.0811C185.504 92.5833 186.148 93.6236 186.22 94.9867C186.291 96.3857 185.647 97.5694 184.395 98.0716C183.25 98.5379 181.926 98.7532 180.709 98.7173C175.592 98.5379 170.618 99.4706 165.608 100.367C161.708 101.049 157.593 100.762 153.585 100.762C151.76 100.762 150.4 99.7575 149.505 98.1433C148.038 95.5248 146.822 92.9062 147.001 89.7495C147.144 87.669 146.893 85.5526 146.822 82.396C145.712 83.7232 145.14 84.1895 144.818 84.7993C144.424 85.5526 144.424 86.4853 143.995 87.2027C139.164 94.8073 136.909 103.488 134.154 111.918C133.51 113.891 132.58 115.899 131.399 117.585C129.645 120.096 126.854 120.168 124.993 117.729C123.49 115.72 122.31 113.46 121.129 111.236C120.449 109.981 120.091 108.582 119.59 107.219C118.946 107.506 118.373 107.577 118.194 107.864C114.688 113.209 111.431 118.697 110.358 125.082C109.463 130.32 106.421 134.409 104.096 138.929C103.344 140.364 101.841 140.794 100.231 140.615C98.1196 140.328 96.6882 139.072 96.1515 137.099C95.4 134.445 94.8275 131.754 94.2907 129.064C92.8594 121.998 90.8555 115.074 88.9589 108.115C86.6687 99.7217 84.8795 91.2202 81.8379 83.0416C81.0864 81.0687 80.9075 78.9165 80.335 76.8718C80.0129 75.724 79.4046 74.6478 78.9394 73.5358C78.2953 73.8587 77.7227 73.9663 77.5796 74.2891C75.2179 79.0241 72.6772 83.6873 70.6375 88.5299C68.9914 92.4399 68.5978 93.1573 64.2322 93.1931C58.292 93.2649 52.3519 93.1573 46.4117 93.1931C41.3662 93.1931 36.2491 92.3681 31.3109 94.341C30.4879 94.6639 29.1281 94.3769 28.305 93.9106C27.5178 93.4442 26.8379 92.3681 26.659 91.4713C26.5516 90.8615 27.2315 89.7495 27.8398 89.4267C30.7741 87.7766 33.7442 86.1983 37.3226 86.2342C43.9069 86.3059 50.4553 86.1266 57.0396 86.0189C59.1508 86.0189 61.2263 85.8755 63.3733 85.8037C65.5204 81.6068 67.4527 77.6251 69.5282 73.6793C70.8164 71.2401 72.0689 68.765 73.7149 66.541C76.9713 62.1288 81.158 62.2723 83.806 67.0073C85.2374 69.5541 86.2393 72.4238 87.1697 75.2218C88.8158 80.0285 90.2471 84.9428 91.7501 89.7854C92.1437 91.005 92.5731 92.1888 92.8951 93.4442C95.5432 103.703 98.1912 113.998 100.803 124.257C100.982 125.011 101.233 125.728 101.662 127.127L101.591 127.02Z" fill="black"/>
</g>
<defs>
<clipPath id="clip0_1578_12243">
<rect width="220" height="188" fill="white"/>
</clipPath>
</defs>
</svg>
