<svg width="208" height="187" viewBox="0 0 208 187" fill="none" xmlns="http://www.w3.org/2000/svg">
<g clip-path="url(#clip0_5032_37414)">
<path d="M110.371 133.757C106.517 148.206 89.4753 150.445 79.3328 153.904C69.1903 157.364 56.8139 186.669 56.8139 186.669C50.525 188.297 45.2513 183.615 47.0764 179.75C53.3653 168.353 54.7854 154.31 54.7854 154.31C54.7854 154.31 78.1141 128.059 78.3176 127.449C78.521 126.838 87.6502 123.583 90.2871 124.599C92.9239 125.618 110.371 133.757 110.371 133.757Z" fill="#D15C6D"/>
<path d="M25.3692 133.757C21.5157 147.595 46.8729 163.266 68.7834 154.312C90.6919 145.358 93.3308 122.566 93.3308 122.566L48.6999 122.16L25.3712 133.759L25.3692 133.757Z" fill="#EB7F8F"/>
<path d="M94.1406 7.99011C67.9717 -3.60898 61.2759 12.5691 59.755 12.5691C43.6278 18.0635 44.2361 28.7472 44.2361 28.7472C40.8882 28.7472 39.6715 33.9365 39.6715 33.9365C28.7172 33.3262 26.2818 47.3684 26.2818 47.3684C8.0234 51.6423 8.93591 71.1789 10.4588 75.1476C-8.71217 90.1052 3.4608 111.473 8.02541 113.611C7.72124 130.399 21.7192 140.472 30.8485 137.116C39.9777 133.757 57.6258 122.463 84.1009 131.927C110.574 141.39 125.791 145.053 130.049 137.116C155.001 138.336 158.349 110.559 158.349 110.559C179.041 117.274 183.606 100.791 183.606 100.791C206.733 98.3478 205.21 75.4548 205.21 75.4548C216.164 47.9807 192.429 24.4774 176.302 24.4774C171.129 6.7716 144.96 4.9408 137.96 7.07673C124.874 -2.99872 111.485 0.359766 109.964 1.27516C100.226 0.0546331 94.4448 6.15931 94.1406 7.99011Z" fill="#FFB3BE"/>
<path d="M138.232 106.039C137.937 106.18 131.25 109.432 126.363 114.902C121.933 110.737 111.97 108.609 105.192 112.156C102.708 113.455 100.899 114.017 96.7412 110.852C96.0663 110.339 95.3391 109.698 94.4991 108.959C89.8963 104.909 82.9386 98.7883 68.4289 98.7883C51.51 98.7883 37.649 81.4604 37.2522 76.1579C37.1917 75.3456 37.1434 74.4282 37.093 73.4441C36.7425 66.6321 36.2611 57.3023 30.5865 54.4551C30.2018 54.2631 29.7344 54.4187 29.5431 54.8047C29.3517 55.1906 29.5068 55.6595 29.8916 55.8514C34.7563 58.2925 35.2277 67.4586 35.5419 73.5249C35.5842 74.3453 35.6265 75.1011 35.6729 75.8083C34.3393 76.6571 29.6237 79.5285 26.175 80.0236C25.75 80.0842 25.4539 80.4803 25.5143 80.9067C25.5707 81.2947 25.9031 81.5776 26.2838 81.5776C26.3201 81.5776 26.3583 81.5756 26.3946 81.5695C29.7727 81.0845 34.0291 78.6596 35.9247 77.4936C37.792 84.5905 50.9258 98.9883 66.2856 100.251C65.0608 101.425 63.5319 103.408 62.8067 106.409C62.706 106.827 62.9618 107.249 63.3788 107.35C63.4413 107.364 63.5017 107.372 63.5621 107.372C63.9126 107.372 64.2309 107.132 64.3175 106.776C65.2905 102.751 67.9575 100.799 68.6404 100.356C82.4188 100.417 89.0724 106.259 93.4758 110.135C94.338 110.895 95.0833 111.549 95.8045 112.097C100.264 115.49 102.617 115.267 105.915 113.54C112.635 110.024 122.229 112.788 125.65 116.405C125.769 117.769 126.258 123.955 125.684 127.804C124.723 128.419 120.992 130.536 115.292 130.536C114.863 130.536 114.514 130.886 114.514 131.316C114.514 131.747 114.863 132.096 115.292 132.096C120.753 132.096 124.495 130.316 126.053 129.409C126.693 130.617 128.244 132.749 131.709 134.317C131.814 134.364 131.923 134.386 132.029 134.386C132.325 134.386 132.607 134.216 132.738 133.927C132.916 133.535 132.74 133.072 132.35 132.894C128.569 131.183 127.438 128.811 127.199 128.194C127.839 124.169 127.34 117.84 127.205 116.316C131.904 110.86 138.838 107.478 138.908 107.443C139.295 107.257 139.458 106.79 139.273 106.402C139.088 106.014 138.622 105.851 138.236 106.037L138.232 106.039Z" fill="#EB7F8F"/>
<path d="M60.4015 111.861C56.8884 115.674 52.5897 117.565 47.9707 117.335C42.5923 117.066 37.0648 113.924 33.038 108.896C38.9825 106.542 43.7868 102.525 45.9966 98.0871C46.188 97.7011 46.0329 97.2323 45.6481 97.0403C45.2634 96.8484 44.7961 97.004 44.6047 97.3879C40.6001 105.422 27.0573 111.917 14.9246 108.585C14.5117 108.472 14.0826 108.716 13.9698 109.13C13.857 109.547 14.1008 109.975 14.5137 110.088C16.9551 110.759 19.4208 111.066 21.8481 111.066C25.2001 111.066 28.4755 110.482 31.5011 109.464C35.826 115.074 41.9276 118.594 47.8902 118.893C48.1722 118.907 48.4522 118.913 48.7302 118.913C53.5043 118.913 57.9178 116.852 61.5417 112.919C61.8338 112.604 61.8136 112.109 61.4994 111.816C61.1851 111.523 60.6916 111.543 60.3995 111.858L60.4015 111.861Z" fill="#EB7F8F"/>
<path d="M130.21 85.8878C124.618 84.4066 116.567 83.4791 109.569 87.2599C102.982 78.7364 89.721 73.3188 78.2047 72.167C78.3498 70.2351 78.7265 60.2223 71.4686 54.9785C71.1201 54.7279 70.6346 54.8067 70.3828 55.1563C70.131 55.5059 70.2116 55.9929 70.5601 56.2455C77.0565 60.9377 76.7685 70.2998 76.6536 72.0356C73.2332 71.8052 70.0062 71.9649 67.2041 72.5529C66.7831 72.6418 66.5152 73.0541 66.6018 73.4764C66.6905 73.8987 67.1014 74.1695 67.5224 74.0806C79.776 71.5082 100.446 77.3481 108.729 88.7351C108.964 89.0584 109.406 89.1513 109.748 88.9493C116.422 85.0432 124.344 85.9505 129.813 87.3973C140.343 90.186 150.799 97.4849 155.241 105.152C155.386 105.4 155.646 105.54 155.914 105.54C156.047 105.54 156.182 105.505 156.305 105.435C156.675 105.218 156.802 104.741 156.587 104.368C151.881 96.2462 141.281 88.8199 130.21 85.8898V85.8878Z" fill="#EB7F8F"/>
<path d="M45.9926 29.4968C57.3719 32.8796 57.2813 39.1156 54.1207 56.0778C54.0422 56.5021 54.3201 56.9083 54.7432 56.9871C54.7915 56.9972 54.8398 57.0012 54.8862 57.0012C55.2528 57.0012 55.5791 56.7385 55.6496 56.3647C57.0899 48.6374 58.0468 42.662 57.1665 38.1052C58.4235 37.7839 62.0332 36.6665 64.9259 33.9566C65.3489 33.993 69.8934 34.4578 71.8514 38.1214C71.9924 38.3841 72.2603 38.5336 72.5363 38.5336C72.6612 38.5336 72.7861 38.5033 72.9029 38.4407C73.2816 38.2366 73.4246 37.7637 73.2212 37.3838C71.4384 34.0476 68.0422 32.9382 66.2111 32.5724C67.881 30.4951 69.0534 27.7065 68.9003 23.9842C68.8822 23.5538 68.5176 23.2204 68.0905 23.2366C67.6614 23.2548 67.3291 23.6165 67.3452 24.0489C67.7299 33.4252 58.786 36.1148 56.7898 36.5978C55.5348 32.5724 52.477 29.7959 46.4338 27.9995C46.0208 27.8762 45.5898 28.1126 45.4669 28.5249C45.344 28.9391 45.5797 29.3716 45.9926 29.4948V29.4968Z" fill="#EB7F8F"/>
<path d="M91.3184 60.4082C91.4413 60.479 91.5722 60.5113 91.7052 60.5113C91.9751 60.5113 92.237 60.3698 92.38 60.1193C97.3455 51.4341 106.866 48.7889 109.24 48.2514C109.984 49.7306 112.077 54.2308 112.077 58.052C112.077 58.4825 112.425 58.8321 112.854 58.8321C113.283 58.8321 113.632 58.4825 113.632 58.052C113.632 53.5175 111.072 48.3787 110.467 47.2309C111.529 41.1 111.033 35.359 109.555 30.196C110.747 30.4567 111.936 30.5921 113.098 30.5921C116.841 30.5921 120.291 29.2685 122.62 26.8254C125.567 23.7337 126.417 19.3527 125.011 14.4888C124.892 14.0745 124.461 13.8361 124.048 13.9573C123.635 14.0765 123.398 14.511 123.518 14.9232C124.763 19.2294 124.044 23.0749 121.496 25.7484C118.748 28.632 114.166 29.7252 109.537 28.6017C109.375 28.5633 109.22 28.5895 109.075 28.6461C106.237 20.0822 100.74 13.2399 95.3754 9.05497C95.037 8.79025 94.5475 8.85289 94.2836 9.19238C94.0197 9.53186 94.0822 10.0229 94.4206 10.2876C102.877 16.8854 111.698 30.3456 108.983 46.7076C106.497 47.237 96.4189 49.9165 91.0284 59.3453C90.8148 59.7192 90.9438 60.1961 91.3164 60.4103L91.3184 60.4082Z" fill="#EB7F8F"/>
<path d="M130.641 62.2289C130.67 62.6412 131.012 62.9544 131.417 62.9544C131.435 62.9544 131.453 62.9544 131.471 62.9544C131.9 62.9241 132.223 62.5522 132.192 62.1218C131.489 51.9696 139.952 42.565 140.611 41.8497C144.44 38.863 148.866 38.1376 153.08 39.8067C158.893 42.1104 163.405 48.4818 164.578 56.0373C164.638 56.4233 164.969 56.6981 165.345 56.6981C165.386 56.6981 165.426 56.6941 165.466 56.688C165.891 56.6213 166.181 56.2233 166.115 55.7969C165.859 54.1439 165.444 52.5495 164.904 51.0259C166.681 50.9026 173.07 50.1125 175.625 45.1314C175.822 44.7474 175.671 44.2786 175.288 44.0806C174.906 43.8825 174.438 44.0341 174.241 44.418C171.751 49.2759 164.491 49.4881 164.419 49.4901C164.38 49.4901 164.348 49.5083 164.31 49.5144C163.123 46.7459 161.49 44.2928 159.53 42.3246C161.355 40.6898 166.9 35.0216 164.398 28.4703C164.245 28.0682 163.794 27.8661 163.393 28.0217C162.992 28.1753 162.791 28.6259 162.946 29.028C165.12 34.7225 159.84 39.9522 158.379 41.2556C156.933 40.0189 155.346 39.0267 153.652 38.3538C149.077 36.5412 144.299 37.2201 140.129 40.2573C138.783 38.9519 134.904 34.3022 135.935 24.9158C137.51 24.3116 139.456 22.5616 140.534 20.0296C141.614 17.4896 142.214 13.3228 138.931 7.89101C138.709 7.52324 138.23 7.40401 137.863 7.62832C137.496 7.8506 137.379 8.33154 137.601 8.69931C140.542 13.5633 140.042 17.2127 139.104 19.4153C138.052 21.8847 136.102 23.3255 135.053 23.5579C134.733 23.6286 134.491 23.8953 134.451 24.2207C133.161 34.4416 137.347 39.6875 138.991 41.3162C136.952 43.6542 129.964 52.4344 130.641 62.2249V62.2289Z" fill="#EB7F8F"/>
<path d="M186.521 67.8244C182.969 66.9858 179.498 67.9295 176.997 70.413C174.281 73.1086 173.058 77.1562 173.59 81.4705C170.512 78.7546 166.997 76.7985 163.27 75.8872C157.807 74.5514 152.941 75.778 149.567 79.3406C149.27 79.6538 149.283 80.1469 149.595 80.4439C149.907 80.741 150.399 80.7289 150.695 80.4157C153.67 77.2754 158.005 76.2044 162.902 77.4027C169.95 79.1264 178.57 86.102 181.944 97.8002C182.043 98.1417 182.353 98.3639 182.691 98.3639C182.762 98.3639 182.836 98.3538 182.907 98.3336C183.32 98.2144 183.557 97.782 183.439 97.3677C181.843 91.8349 178.987 86.9326 175.359 83.1578C175.397 83.0325 175.417 82.8992 175.387 82.7617C174.408 78.3767 175.417 74.1756 178.092 71.5223C180.236 69.3945 183.104 68.6206 186.166 69.344C186.585 69.443 187.002 69.1823 187.101 68.764C187.199 68.3457 186.94 67.9254 186.523 67.8264L186.521 67.8244Z" fill="#EB7F8F"/>
</g>
<defs>
<clipPath id="clip0_5032_37414">
<rect width="208" height="187" fill="white"/>
</clipPath>
</defs>
</svg>
