<svg width="156" height="244" viewBox="0 0 156 244" fill="none" xmlns="http://www.w3.org/2000/svg">
<g clip-path="url(#clip0_5032_37238)">
<path d="M85.4602 130.214C75.5017 131.005 65.5432 131.795 55.483 132.585C55.6863 129.622 55.7879 126.757 55.9911 123.893C56.296 118.757 56.6008 113.621 56.9057 108.583C56.9057 108.188 56.9057 107.892 56.9057 107.497C57.3121 101.867 57.617 96.1381 58.0235 90.5081L68.2868 90.3106L77.7373 90.113H82.0052C81.802 95.5455 82.0052 101.472 82.4117 107.596C83.0214 115.893 84.0375 123.399 85.3586 130.214H85.4602Z" fill="#825655"/>
<path d="M105.073 223.159C97.248 226.517 84.7491 230.863 68.6935 231.851C54.5687 232.641 42.9843 230.567 35.1597 228.592C34.4484 204.392 33.7371 180.292 33.1274 156.093C32.2128 152.537 31.2982 148.981 30.3837 145.425C37.5985 130.708 52.7395 121.226 69.1 121.029C87.1879 120.93 103.65 132.091 110.153 148.981C108.528 151.352 106.8 153.623 105.174 155.994V223.159H105.073Z" fill="#825655"/>
<path d="M80.8876 108.386C80.8876 115.399 76.0099 121.029 70.0145 121.029C64.019 121.029 59.1414 115.399 59.1414 108.386C59.1414 101.373 64.019 95.743 70.0145 95.743C76.0099 95.743 80.8876 101.373 80.8876 108.386Z" fill="#2E1A1A"/>
<path d="M43.5939 45.2705C40.8503 46.3569 38.6147 47.5422 36.4807 48.7275C24.7947 55.2464 19.8154 68.4819 24.7947 79.6432L34.9564 102.262C36.8872 104.83 43.7972 113.324 56.7026 115.991C64.2223 117.572 70.7258 116.485 74.2824 115.596C74.4857 115.596 74.6889 115.399 74.8921 115.3C75.0954 115.3 75.2986 115.102 75.5018 115.004C78.652 113.028 83.8345 109.077 87.6959 102.657C94.5043 91.5946 92.6752 80.9272 92.0655 77.7665L81.9037 55.1477C76.9245 43.9864 63.4094 38.5539 50.6055 42.5048C48.2683 43.1962 45.8295 44.0852 43.3907 45.1717L43.5939 45.2705Z" fill="#825655"/>
<path d="M36.8873 92.7799C38.9197 97.3234 37.5986 102.262 33.8388 103.842C30.0789 105.423 25.4045 103.052 23.3722 98.5086C21.3398 93.9651 22.6609 89.0265 26.4207 87.4462C30.1806 85.8658 34.855 88.2363 36.8873 92.7799Z" fill="#825655"/>
<path d="M97.3497 67.0991C99.3821 71.6426 98.0611 76.5812 94.3012 78.1616C90.5414 79.7419 85.867 77.3714 83.8346 72.8279C81.8023 68.2844 83.1233 63.3458 86.8831 61.7654C90.643 60.1851 95.3174 62.5556 97.3497 67.0991Z" fill="#825655"/>
<path d="M64.5272 97.5209C65.2385 96.632 66.1531 96.0393 67.1692 95.6442C68.1854 95.2492 69.2016 94.9528 70.421 95.0516C69.7097 95.9406 68.7951 96.5332 67.779 96.9283C66.7628 97.3234 65.7466 97.6197 64.5272 97.5209Z" fill="#2E1A1A"/>
<path d="M55.2798 87.5449C55.9911 89.1253 54.8733 91.2983 52.841 92.1872C50.707 93.1749 48.4714 92.5823 47.7601 91.002C47.0488 89.4216 48.1666 87.2486 50.1989 86.3597C52.2313 85.4707 54.5685 85.9646 55.2798 87.5449Z" fill="#2E1A1A"/>
<path d="M41.2566 95.0516C40.342 94.9528 39.9355 94.2614 40.0372 93.6688C40.7485 89.1253 44.8132 85.5695 49.0811 85.5695C53.4507 85.5695 55.7879 89.2241 56.0927 89.6191C56.4992 90.2118 56.296 91.002 55.6862 91.2983C55.0765 91.5946 54.2636 91.4958 53.9588 90.9032C53.9588 90.8044 52.2313 88.1376 49.2843 88.0388C46.5407 88.0388 43.2889 90.3105 42.6792 94.0639C42.6792 94.6565 42.0695 95.1504 41.4598 95.1504L41.2566 95.0516Z" fill="#2E1A1A"/>
<path d="M73.4696 77.964C74.1809 79.5444 76.5181 80.2358 78.6521 79.3468C80.786 78.4579 81.9038 76.4824 81.1925 74.9021C80.4812 73.3217 78.144 72.6303 76.01 73.5193C73.876 74.4082 72.7583 76.3837 73.4696 77.964Z" fill="#2E1A1A"/>
<path d="M70.1162 84.9768C69.6081 84.9768 69.1 84.5818 68.8968 84.0879C68.7952 83.594 67.6774 79.5444 70.5227 76.3837C73.4696 73.223 78.8553 72.8279 82.92 75.3959C83.5297 75.791 83.6313 76.5812 83.2249 77.0751C82.8184 77.6677 82.0055 77.7665 81.4974 77.3714C78.2456 75.2972 74.2825 75.9886 72.4534 77.964C70.4211 80.137 71.3356 83.1002 71.4372 83.2977C71.6405 83.9891 71.234 84.6805 70.6243 84.8781C70.5227 84.8781 70.4211 84.8781 70.2178 84.8781L70.1162 84.9768Z" fill="#2E1A1A"/>
<path d="M11.5843 201.824C10.5681 201.824 9.65359 202.022 8.84065 202.121C7.82447 204.689 6.90992 207.257 5.89374 209.726C4.67433 212.887 3.45492 215.949 2.33713 219.011C3.55654 219.504 4.87757 219.998 6.19859 220.393C25.2011 227.406 44.0003 234.419 63.0028 241.432C67.474 234.123 71.8435 226.814 76.2131 219.505C71.5387 216.047 65.8481 212.492 59.0397 209.529C40.5453 201.33 23.0671 200.935 11.7876 201.824H11.5843Z" fill="#2E1A1A"/>
<path d="M125.701 202.516C126.412 202.516 127.124 202.614 127.124 202.614C127.632 202.614 128.038 202.614 128.445 202.713C129.461 205.281 130.375 207.849 131.391 210.319C132.611 213.479 133.83 216.541 134.948 219.603C133.729 220.097 132.408 220.591 131.087 220.986C112.084 227.999 93.2849 235.012 74.2824 242.025C69.8113 234.715 65.4417 227.406 61.0722 220.097C60.4625 217.529 60.056 213.677 61.9867 210.417C63.511 207.751 66.6611 205.281 81.294 203.207C81.294 203.207 99.9917 200.54 125.498 202.417L125.701 202.516Z" fill="#2E1A1A"/>
<path d="M42.1713 74.3095C42.1713 74.3095 41.1551 75.5935 36.8871 80.3346C33.5338 83.9891 32.8224 84.9768 32.416 84.8781C31.8063 84.5818 32.5176 80.9272 34.9564 78.1616C37.5985 75.0996 41.6632 73.8156 42.0696 74.3095H42.1713Z" fill="#2E1A1A"/>
<path d="M65.4417 69.4696C65.4417 69.4696 67.0675 69.2721 73.4694 68.1856C78.4487 67.2966 79.6681 67.2966 79.7697 66.9016C79.7697 66.2102 76.2131 64.9261 72.5549 65.5187C68.4902 66.1114 65.1368 68.7782 65.4417 69.4696Z" fill="#2E1A1A"/>
<path d="M67.2709 108.188C67.2709 108.188 66.3564 107.892 66.1531 107.497C65.8483 106.904 66.1531 106.114 66.7628 105.917C69.5065 104.731 71.9453 102.953 73.8761 100.78C74.8922 99.6939 75.7052 98.4098 76.4165 97.1258C76.7214 96.5332 77.5343 96.3356 78.144 96.6319C78.7537 96.9283 78.9569 97.7184 78.6521 98.3111C77.8391 99.7927 76.823 101.175 75.7052 102.46C73.4696 104.929 70.8275 106.805 67.6774 108.188C67.4742 108.188 67.3725 108.287 67.1693 108.287L67.2709 108.188Z" fill="#2E1A1A"/>
<path d="M52.6377 132.98C43.797 153.327 34.9563 173.773 26.2172 194.12C20.6282 191.651 15.0393 189.083 9.45029 186.613C11.7875 180.292 14.0231 174.366 16.1571 168.933C17.5797 165.279 19.104 161.92 20.2217 158.661C20.8315 157.278 21.4412 155.796 21.9492 154.512C28.0463 140.092 30.9932 133.968 37.4967 131.696C43.0857 129.721 48.7763 131.4 52.4345 132.98H52.6377Z" fill="#825655"/>
<path d="M36.5822 168.834C34.0417 169.723 29.977 170.711 24.9978 170.514C21.746 170.514 18.7991 169.822 16.3603 168.933C17.7829 165.279 19.2056 161.92 20.3234 158.661C22.2541 157.673 24.2865 156.587 26.2172 155.5L36.4806 168.736L36.5822 168.834Z" fill="#2E1A1A"/>
<path d="M35.2611 130.807L14.6328 156.685C15.9538 158.957 18.7991 163.007 23.88 166.365C29.977 170.316 35.9725 171.007 38.7161 171.205C43.8986 158.76 49.1827 146.216 54.3652 133.77C53.0442 132.684 50.4022 130.807 46.5407 129.918C41.155 128.733 36.7854 130.215 35.1595 130.906L35.2611 130.807Z" fill="#6BBEFC"/>
<path d="M88.6106 129.326C97.4513 149.673 106.292 170.118 115.031 190.465C120.62 187.996 126.209 185.428 131.798 182.959C129.461 176.637 127.225 170.711 125.091 165.279C123.669 161.624 122.144 158.266 121.027 155.006C120.417 153.623 119.807 152.142 119.299 150.858C113.202 136.437 110.255 130.313 103.752 128.042C98.1626 126.066 92.4721 127.745 88.8138 129.326H88.6106Z" fill="#825655"/>
<path d="M104.768 165.18C107.308 166.069 111.373 167.056 116.352 166.859C119.604 166.859 122.551 166.168 124.99 165.279C123.567 161.624 122.144 158.266 121.027 155.006C119.096 154.019 117.064 152.932 115.133 151.846L104.869 165.081L104.768 165.18Z" fill="#2E1A1A"/>
<path d="M106.089 127.153C112.999 135.746 119.807 144.438 126.717 153.031C125.396 155.303 122.551 159.352 117.47 162.711C111.373 166.661 105.377 167.353 102.634 167.55C97.4513 155.105 92.1672 142.561 86.9847 130.116C88.3057 129.029 90.9478 127.153 94.8093 126.264C100.195 125.078 104.565 126.56 106.19 127.251L106.089 127.153Z" fill="#6BBEFC"/>
<path d="M33.737 155.796C32.7209 171.402 31.5015 186.811 30.1804 202.022C35.4645 205.479 49.0813 213.183 68.0838 213.479C89.1186 213.776 104.056 204.689 109.137 201.232C107.41 183.453 105.682 165.772 103.955 147.993C104.666 140.981 105.276 134.067 105.987 127.054C104.158 126.362 102.126 125.77 99.89 125.177C93.9962 123.696 88.6105 123.103 84.1393 123.004C82.7167 124.486 79.5665 127.251 74.8921 128.437C64.832 130.906 56.7026 123.597 55.9913 123.004L35.2613 130.807C34.7532 139.104 34.2451 147.401 33.737 155.796Z" fill="#6BBEFC"/>
<path d="M23.2702 232.938C36.887 239.555 49.4876 240.839 58.0234 241.629C63.6124 242.222 68.3884 242.222 71.6402 242.222L75.5016 233.728C65.5431 228.098 55.1781 222.468 44.2034 216.936C32.7207 211.109 21.4411 205.775 10.4664 200.837C10.4664 201.133 10.4664 201.429 10.4664 201.627C10.3648 202.614 9.24702 203.503 7.82437 203.899C7.51952 204.195 7.21467 204.491 6.90981 204.787C3.14997 208.64 1.6257 213.479 1.016 217.134C9.24702 225.332 17.3764 230.172 23.1686 232.938H23.2702Z" fill="#825655"/>
<path d="M18.7991 211.702C18.7991 217.727 14.6327 222.665 9.45025 222.665C4.26776 222.665 0.10144 217.727 0.10144 211.702C0.10144 205.676 4.26776 200.738 9.45025 200.738C14.6327 200.738 18.7991 205.676 18.7991 211.702Z" fill="#825655"/>
<path d="M67.3722 233.925C67.3722 233.234 66.6609 227.011 70.624 224.246C71.2337 223.85 73.5709 222.27 81.2938 224.246C82.9197 224.641 98.5688 228.69 98.1623 233.629C97.8575 236.888 90.2362 238.864 82.31 240.938C75.9081 242.617 71.0305 242.914 66.7625 243.111C57.2105 243.704 52.1296 244 50.4021 241.234C48.7762 238.469 51.3167 234.222 52.9425 231.456C55.3814 227.406 58.6331 224.937 60.5639 223.653C63.714 225.826 66.9658 228.098 70.1159 230.271L67.2706 233.925H67.3722Z" fill="white"/>
<path d="M115.133 233.431C101.516 240.049 88.9152 241.333 80.3793 242.123C74.7904 242.716 70.0143 242.716 66.7626 242.716L62.9011 234.222C72.6564 228.592 83.0214 223.06 94.1993 217.43C105.682 211.702 116.758 206.565 127.428 202.022C129.359 202.417 130.172 203.701 130.477 204.392C130.782 204.689 131.086 204.985 131.391 205.281C135.151 209.133 136.675 213.973 137.285 217.628C129.054 225.826 120.925 230.666 115.133 233.431Z" fill="#825655"/>
<path d="M119.705 212.294C119.705 218.319 123.872 223.258 129.054 223.258C134.237 223.258 138.403 218.319 138.403 212.294C138.403 206.269 134.237 201.33 129.054 201.33C123.872 201.33 119.705 206.269 119.705 212.294Z" fill="#825655"/>
<path d="M71.0305 234.518C71.0305 233.826 71.7418 227.604 67.7788 224.838C67.1691 224.443 64.8318 222.863 57.1089 224.838C55.483 225.233 39.8339 229.283 40.2404 234.222C40.5453 237.481 48.1666 239.456 56.0927 241.531C62.4946 243.21 67.3723 243.506 71.6402 243.704C81.1923 244.296 86.2731 244.593 88.0006 241.827C89.6265 239.061 86.9845 234.814 85.4602 232.049C83.0214 227.999 79.7696 225.53 77.8389 224.246C74.6887 226.419 71.437 228.69 68.2868 230.863L71.1321 234.518H71.0305Z" fill="white"/>
<path d="M63.7142 243.111C61.0722 243.111 58.5317 242.716 55.9913 242.222C53.9589 241.827 52.0282 241.136 50.0975 240.444C49.4878 240.148 49.0813 239.456 49.3862 238.864C49.5894 238.271 50.4023 237.876 51.012 238.172C52.8412 238.864 54.6703 239.456 56.601 239.852C58.9382 240.345 61.377 240.642 63.8158 240.741C64.5272 240.741 65.0353 241.333 65.0353 242.025C65.0353 242.716 64.4256 243.21 63.8158 243.21L63.7142 243.111Z" fill="#2E1A1A"/>
<path d="M71.7419 233.234C70.7257 233.036 70.3193 232.345 70.5225 231.653C70.7257 231.061 71.0306 229.579 70.2176 228.196C69.8112 227.505 69.3031 227.011 68.8966 226.814C68.2869 226.419 68.1853 225.628 68.4901 225.135C68.8966 224.542 69.7096 224.443 70.2176 224.739C71.1322 225.332 71.8435 226.122 72.3516 227.011C73.6726 229.283 73.1645 231.555 72.8597 232.444C72.6565 232.938 72.1484 233.333 71.6403 233.333L71.7419 233.234Z" fill="#2E1A1A"/>
<path d="M72.5549 229.085C72.5549 229.085 71.6404 228.789 71.4371 228.394C71.1323 227.801 71.4371 227.011 72.0468 226.715L78.1439 224.048C78.7536 223.752 79.5665 224.048 79.8714 224.641C80.1762 225.233 79.8714 226.023 79.2617 226.32L73.1646 228.987C73.1646 228.987 72.8598 229.085 72.6565 229.085H72.5549Z" fill="#2E1A1A"/>
<path d="M31.6029 91.397C30.1803 90.5081 28.5544 89.3228 27.0302 87.6437C23.1687 83.594 21.8477 79.0505 21.3396 76.5812C20.3234 66.8028 23.2703 60.6789 24.8962 58.0121C26.3188 55.6415 29.7738 52.2833 36.6838 45.6655C36.9887 45.3692 39.834 42.7024 44.0003 39.9368C49.386 36.2822 51.52 36.2822 52.841 36.5785C54.5685 36.9736 54.6701 37.9613 56.4992 38.1589C58.7348 38.3564 59.5478 36.9736 62.2914 36.1834C65.9497 35.0969 70.4208 35.8871 71.2338 37.665C71.7419 38.8503 70.5225 39.838 71.1322 40.7269C71.8435 41.7147 73.6726 40.6282 75.6033 41.5171C77.2292 42.3073 77.1276 43.6901 78.7535 45.7643C80.481 47.8385 82.3101 48.2336 83.6311 49.1226C89.1185 52.7771 88.2039 65.42 85.9683 65.9138C83.4279 66.5065 80.481 49.9127 72.1483 49.2213C68.4901 48.925 67.5755 52.0857 61.5801 52.0857C57.7186 52.0857 54.162 50.7029 52.2313 52.6784C52.0281 52.8759 52.0281 52.9747 51.4184 54.1599C49.386 58.0121 48.3698 59.8887 48.065 60.185C47.252 61.074 44.5084 61.9629 39.021 63.7408C36.379 64.6298 35.9725 64.6298 35.4644 65.2224C33.5337 67.2966 35.2612 70.0623 33.2288 72.334C31.8062 73.8156 30.3835 73.223 29.7738 74.507C28.8593 76.4824 31.9078 78.6554 30.8916 81.026C30.3835 82.2112 29.3674 82.2112 29.1641 83.2977C28.9609 84.5818 30.0787 85.2732 30.8916 87.0511C31.2981 88.0388 31.8062 89.5204 31.7046 91.4958L31.6029 91.397Z" fill="#2E1A1A"/>
<path d="M73.9776 176.242C87.7274 176.242 98.8738 167.486 98.8738 156.685C98.8738 145.884 87.7274 137.129 73.9776 137.129C60.2277 137.129 49.0813 145.884 49.0813 156.685C49.0813 167.486 60.2277 176.242 73.9776 176.242Z" fill="white"/>
<path d="M55.788 153.327C49.691 148.191 41.2567 140.981 31.5014 131.992C16.0556 117.67 14.4297 114.806 15.2426 113.522C16.7669 110.954 27.8432 113.917 36.0742 118.066C50.5039 125.473 57.922 138.116 61.5802 146.018L55.6864 153.228L55.788 153.327Z" fill="white"/>
<path d="M75.4002 146.117C74.2824 144.635 73.6727 142.067 85.3587 119.251C87.4927 115.102 88.8137 112.732 91.5574 111.547C95.2156 110.065 99.2803 111.645 106.089 114.51C110.458 116.288 117.063 119.053 116.657 120.732C116.352 121.918 112.491 122.708 95.6221 121.127C93.6914 128.733 91.7606 136.338 89.8299 143.944C89.7283 144.24 88.3056 148.191 84.2409 149.278C80.6843 150.265 77.0261 148.389 75.4002 146.117Z" fill="white"/>
<path d="M70.2177 155.994C70.2177 155.303 73.4695 154.512 74.2824 154.216C74.5873 154.216 75.5018 153.92 76.8228 154.019C76.9245 154.019 78.1439 154.117 78.1439 154.414C78.1439 154.611 77.4325 154.611 76.8228 155.006C75.7051 155.796 75.7051 157.278 75.2986 157.278C75.0953 157.278 75.197 156.883 74.7905 156.685C74.2824 156.29 73.5711 156.685 72.5549 156.685C71.6404 156.685 70.4209 156.389 70.3193 155.994H70.2177Z" fill="#2E1A1A"/>
<path d="M64.019 153.327C64.019 154.71 63.4093 155.796 62.698 155.796C61.9867 155.796 61.377 154.71 61.377 153.327C61.377 151.944 61.9867 150.858 62.698 150.858C63.4093 150.858 64.019 151.944 64.019 153.327Z" fill="#2E1A1A"/>
<path d="M87.1878 149.278C87.1878 150.66 86.5781 151.747 85.8668 151.747C85.1555 151.747 84.5458 150.66 84.5458 149.278C84.5458 147.895 85.1555 146.808 85.8668 146.808C86.5781 146.808 87.1878 147.895 87.1878 149.278Z" fill="#2E1A1A"/>
<path d="M65.3401 174.662C54.467 184.045 53.4508 199.059 60.8689 207.553C68.5918 216.344 82.4118 214.566 89.7283 211.603C92.1671 210.615 99.7884 207.454 100.703 201.726C101.313 197.676 98.1625 195.009 91.4558 185.527C87.5943 179.996 84.6474 175.353 82.8183 172.39L65.2384 174.563L65.3401 174.662Z" fill="white"/>
<path d="M67.9821 179.996C43.1874 166.168 35.2613 164.982 33.3305 167.254C31.3998 169.625 35.1597 176.045 38.9195 179.601C46.236 186.613 58.6333 187.996 70.6242 182.959L68.0837 180.094L67.9821 179.996Z" fill="white"/>
<path d="M82.4118 178.81C107.918 166.464 115.946 165.575 117.775 168.044C119.604 170.514 115.438 176.736 111.474 180.094C103.853 186.712 91.3541 187.404 79.6681 181.675L82.4118 178.909V178.81Z" fill="white"/>
<path d="M63.4093 203.01L52.333 211.899C47.0489 211.01 41.968 213.183 39.8341 217.035C36.4807 223.159 42.4761 229.678 43.2891 230.567C47.7602 235.209 54.7718 235.999 59.7511 234.715C63.0029 233.826 68.4902 231.357 68.4902 227.9C68.4902 227.209 68.1854 226.023 66.6611 224.641C70.929 216.541 75.197 208.343 79.3633 200.244L63.4093 203.01Z" fill="white"/>
<path d="M94.7075 197.577C98.9755 201.33 103.243 204.985 107.613 208.738C112.084 207.849 116.352 208.936 118.384 211.603C121.535 215.949 117.673 222.27 114.929 225.135C110.458 229.777 103.447 230.567 98.4674 229.283C95.2156 228.394 89.7283 225.925 89.7283 222.468C89.7283 221.776 90.0331 220.591 91.5574 219.208C87.2895 211.109 83.0215 202.911 78.8552 194.811L94.8091 197.577H94.7075Z" fill="white"/>
<path d="M61.377 187.996C62.0884 191.157 62.7997 194.318 63.511 197.478C57.2107 200.442 47.1506 204.096 34.55 203.701C25.8109 203.405 18.5961 201.33 13.4136 199.256C8.94241 196.688 7.11329 191.453 8.84079 187.404C10.1618 184.243 13.312 182.169 17.0718 181.774C31.908 183.848 46.7441 185.922 61.5803 187.996H61.377Z" fill="#825655"/>
<path d="M85.3589 185.724C84.6475 188.885 83.9362 192.046 83.2249 195.207C89.5252 198.17 99.5853 201.824 112.186 201.429C120.925 201.133 128.14 199.059 133.322 196.984C133.932 195.602 134.948 192.342 134.339 188.293C133.526 183.551 130.782 180.49 129.766 179.502C114.93 181.576 100.093 183.65 85.2572 185.724H85.3589Z" fill="#825655"/>
<path d="M40.2405 189.675C40.6469 193.824 41.0534 198.071 41.4599 202.219C47.1505 204.294 51.4184 205.775 53.654 206.763C54.2637 207.059 55.6863 207.652 57.5154 207.454C58.43 207.356 59.1413 207.059 59.6494 206.862C59.6494 206.862 60.564 206.467 61.3769 205.775C62.6979 204.787 64.4254 199.454 65.0351 191.947C65.5432 191.947 69.0998 185.231 61.885 184.836C59.9543 184.836 57.2106 184.638 54.0604 184.836C57.2106 186.515 60.1575 186.218 61.5801 184.539C61.9866 183.947 62.6979 182.761 62.2915 181.971C61.7834 180.885 59.4462 180.292 51.4184 182.564C50.199 183.65 48.9796 184.737 47.7602 185.823C45.3213 187.107 42.7809 188.49 40.3421 189.774L40.2405 189.675Z" fill="#825655"/>
<path d="M53.2475 186.811C52.6378 186.811 52.0281 186.317 52.0281 185.724C52.0281 185.033 52.4346 184.44 53.1459 184.342L61.4785 183.255C62.1898 183.255 62.7995 183.65 62.9012 184.342C62.9012 185.033 62.4947 185.626 61.7834 185.724L53.4507 186.811C53.4507 186.811 53.3491 186.811 53.2475 186.811Z" fill="#2E1A1A"/>
<path d="M53.1459 186.515C53.1459 186.515 52.5362 186.416 52.2313 186.12L51.2152 185.132C51.2152 185.132 50.7071 183.848 51.2152 183.354C51.7232 182.86 52.5362 182.86 53.0443 183.354L54.0604 184.342C54.0604 184.342 54.5685 185.626 54.0604 186.12C53.8572 186.317 53.4507 186.515 53.1459 186.515Z" fill="#2E1A1A"/>
<path d="M61.7834 194.12C61.2753 194.12 60.7672 193.725 60.564 193.231C60.3607 192.54 60.7672 191.848 61.4785 191.75L64.527 190.861C65.1367 190.663 65.8481 191.058 66.0513 191.75C66.2545 192.441 65.8481 193.132 65.1367 193.231L62.0882 194.12C62.0882 194.12 61.885 194.12 61.7834 194.12Z" fill="#2E1A1A"/>
<path d="M61.885 198.664C61.2753 198.664 60.7672 198.269 60.6656 197.676C60.4623 196.984 60.9704 196.392 61.5801 196.194L63.5109 195.7C64.2222 195.503 64.8319 195.997 65.0351 196.589C65.2384 197.281 64.7303 197.873 64.1206 198.071L62.1898 198.565C62.1898 198.565 61.9866 198.565 61.885 198.565V198.664Z" fill="#2E1A1A"/>
<path d="M61.0721 203.207C61.0721 203.207 60.0559 202.911 59.8526 202.417C59.5478 201.824 59.8526 201.034 60.564 200.837L62.5963 200.046C63.206 199.75 64.019 200.046 64.2222 200.738C64.527 201.33 64.2222 202.121 63.5109 202.318L61.4785 203.108C61.4785 203.108 61.1737 203.108 60.9704 203.108L61.0721 203.207Z" fill="#2E1A1A"/>
<path d="M105.377 189.478C105.377 193.429 105.581 197.38 105.581 201.33C99.0771 203.8 94.1994 205.578 91.9639 206.565C91.9639 206.565 89.525 207.454 88.1024 207.257C87.1878 207.158 86.4765 206.862 85.9684 206.664C85.9684 206.664 85.0539 206.269 84.2409 205.578C83.0215 204.59 81.1924 199.256 80.5827 191.75C80.0746 191.75 76.518 185.033 83.7328 184.638C85.6636 184.638 88.4072 184.44 91.5574 184.638C88.4072 186.317 85.4603 186.021 84.0377 184.342C83.6312 183.749 82.9199 182.564 83.3264 181.774C83.8344 180.687 86.1717 180.094 94.1994 182.366C95.4188 183.453 96.6383 184.539 97.8577 185.626C100.296 186.91 102.837 188.293 105.276 189.577L105.377 189.478Z" fill="#825655"/>
<path d="M92.4719 186.613L84.0377 185.527C83.3264 185.527 82.8183 184.835 82.9199 184.144C82.9199 183.453 83.6312 183.058 84.3425 183.058L92.6752 184.144C93.3865 184.144 93.8946 184.835 93.793 185.527C93.793 186.12 93.1833 186.613 92.5735 186.613H92.4719Z" fill="#2E1A1A"/>
<path d="M92.5735 186.317C92.5735 186.317 91.9638 186.218 91.659 185.922C91.1509 185.428 91.1509 184.638 91.659 184.144L92.6752 183.156C92.6752 183.156 93.9962 182.662 94.5043 183.156C95.0124 183.65 95.0124 184.44 94.5043 184.934L93.4881 185.922C93.4881 185.922 92.8784 186.317 92.5735 186.317Z" fill="#2E1A1A"/>
<path d="M83.9361 193.923L80.5827 193.034C79.8714 192.836 79.5665 192.145 79.6681 191.552C79.8714 190.861 80.5827 190.465 81.1924 190.663L84.2409 191.552C84.9522 191.75 85.2571 192.441 85.1555 193.034C84.9522 193.626 84.4442 193.923 83.9361 193.923Z" fill="#2E1A1A"/>
<path d="M83.8344 198.466L81.5989 197.972C80.8875 197.775 80.4811 197.182 80.6843 196.491C80.8875 195.799 81.5989 195.404 82.2086 195.602L84.1393 196.096C84.8506 196.293 85.2571 196.886 85.0539 197.577C84.9522 198.17 84.4441 198.565 83.8344 198.565V198.466Z" fill="#2E1A1A"/>
<path d="M84.6474 203.01L82.2086 202.121C81.5989 201.824 81.294 201.133 81.4972 200.54C81.8021 199.948 82.5134 199.553 83.1231 199.849L85.1555 200.639C85.7652 200.935 86.07 201.627 85.8668 202.219C85.6636 202.713 85.1555 203.01 84.6474 203.01Z" fill="#2E1A1A"/>
<path d="M22.6608 187.404C22.6608 187.404 21.7462 187.206 21.543 186.712C21.2382 186.12 21.543 185.329 22.0511 185.033L27.5384 182.366C28.1482 182.07 28.9611 182.366 29.2659 182.86C29.5708 183.453 29.2659 184.243 28.7579 184.539L23.2705 187.206C23.2705 187.206 22.864 187.305 22.6608 187.305V187.404Z" fill="#2E1A1A"/>
<path d="M120.62 183.255C118.385 182.564 116.555 182.169 114.726 182.169C113.812 182.169 112.999 182.169 112.287 182.366C111.678 182.465 110.966 181.971 110.865 181.378C110.763 180.687 111.271 180.094 111.881 179.996C112.897 179.798 113.812 179.798 114.726 179.798C116.86 179.798 119.096 180.193 121.128 180.885C121.738 181.082 122.144 181.872 121.839 182.465C121.636 182.959 121.128 183.255 120.62 183.255Z" fill="#2E1A1A"/>
<g clip-path="url(#clip1_5032_37238)">
<path d="M123.9 5.31976C123.333 25.2826 122.767 45.2454 122.201 65.2312C121.929 65.3458 121.634 65.4604 121.385 65.552C121.113 65.4604 120.842 65.3458 120.57 65.2312C115.813 63.283 107.567 58.9742 100.839 49.9668C89.6265 34.9546 90.9856 18.04 91.3933 14.2354C95.131 14.5563 103.739 14.7396 112.755 9.65154C115.11 8.32221 117.149 6.80953 118.848 5.34268C119.777 4.51758 120.638 3.7154 121.363 2.93614C122.11 3.7154 122.948 4.51758 123.877 5.34268L123.9 5.31976Z" fill="#FF7767"/>
<path d="M141.908 49.9442C135.18 58.9515 126.935 63.2604 122.178 65.2085C121.906 65.3231 121.612 65.4377 121.363 65.5294C121.091 65.4377 120.819 65.3231 120.547 65.2085C119.981 45.2457 119.414 25.2829 118.848 5.29715C119.777 4.47205 120.638 3.66987 121.363 2.89061C122.11 3.66987 122.948 4.47205 123.877 5.29715C125.576 6.78691 127.615 8.27668 129.97 9.606C138.986 14.717 147.594 14.5337 151.332 14.1899C151.739 17.9945 153.121 34.9091 141.908 49.9213V49.9442Z" fill="#FF7767"/>
<path d="M123.197 13.2043C122.79 27.7352 122.382 42.2661 121.951 56.797C121.748 56.8887 121.544 56.9575 121.363 57.0262C121.181 56.9575 120.977 56.8658 120.774 56.797C117.308 55.376 111.305 52.2361 106.412 45.6811C98.257 34.7714 99.2537 22.4637 99.5482 19.6905C102.266 19.9197 108.519 20.0572 115.088 16.3442C116.809 15.3816 118.282 14.2815 119.528 13.2043C120.207 12.6084 120.819 12.0125 121.363 11.4624C121.906 12.0354 122.518 12.6313 123.197 13.2043Z" fill="white"/>
<path d="M136.313 45.6811C131.42 52.2361 125.417 55.376 121.951 56.797C121.748 56.8887 121.544 56.9575 121.363 57.0262C121.181 56.9575 120.977 56.8658 120.774 56.797C120.366 42.2661 119.935 27.7352 119.528 13.2043C120.207 12.6084 120.819 12.0125 121.363 11.4624C121.906 12.0354 122.518 12.6313 123.197 13.2043C124.443 14.2815 125.916 15.3816 127.637 16.3442C134.184 20.0572 140.459 19.9197 143.177 19.6905C143.471 22.4637 144.468 34.7714 136.313 45.6811Z" fill="white"/>
<path d="M118.531 44.5122H124.375V26.1079H118.531V44.5122Z" fill="#6BBEFC"/>
<path d="M112.641 32.2503V38.3469H130.288V32.2503H112.641Z" fill="#6BBEFC"/>
</g>
</g>
<defs>
<clipPath id="clip0_5032_37238">
<rect width="156" height="244" fill="white"/>
</clipPath>
<clipPath id="clip1_5032_37238">
<rect width="60.5047" height="62.6388" fill="white" transform="translate(91.1215 2.91344)"/>
</clipPath>
</defs>
</svg>
