<svg width="142" height="210" viewBox="0 0 142 210" fill="none" xmlns="http://www.w3.org/2000/svg">
<g clip-path="url(#clip0_5032_37532)">
<path d="M104.408 127.524H41.0107V198.315H104.408V127.524Z" fill="#DF659D"/>
<path d="M37.0828 203.612C41.0107 210.022 95.7143 213.644 107.773 204.448C107.773 204.448 110.577 195.252 107.773 189.12C104.97 182.987 95.7105 182.987 70.4641 183.545C45.2177 184.104 39.0448 185.776 37.6412 193.022C36.2376 200.268 37.079 203.612 37.079 203.612H37.0828Z" fill="white"/>
<path d="M38.1997 171.718C42.0672 178.529 95.9181 182.379 107.792 172.606C107.792 172.606 110.554 162.834 107.792 156.318C105.03 149.803 95.9181 149.803 71.0641 150.395C46.2101 150.988 40.1353 152.764 38.7543 160.464C37.3733 168.164 38.2034 171.718 38.2034 171.718H38.1997Z" fill="white"/>
<path d="M99.3594 76.2416H31.7515V119.719H99.3594V76.2416Z" fill="#F0EDEE"/>
<path d="M141.336 140.244C140.604 138.017 139.268 135.816 139.653 133.503C139.819 132.499 140.306 131.577 140.555 130.591C141.392 127.296 139.532 123.989 137.887 121.013C137.061 119.517 136.246 117.886 136.427 116.188C136.529 115.232 136.944 114.336 137.163 113.403C138.34 108.394 133.948 103.877 132.835 98.854C132.461 97.1708 132.45 95.3751 131.699 93.8194C130.827 92.0125 129.096 90.8054 127.624 89.4372C125.617 87.574 123.998 85.2986 122.904 82.7944C122.028 80.7926 121.179 78.3522 119.063 77.7749C118.285 77.5649 117.463 77.6587 116.663 77.7599C109.486 78.6858 102.389 80.1928 95.4577 82.2583C92.2882 83.203 88.7754 84.6125 87.6245 87.694C87.051 89.2347 87.1906 90.9366 86.9416 92.5636C86.3152 96.631 82.976 100.147 78.9273 101.006C77.0558 101.403 75.0976 101.279 73.1544 101.167C72.445 101.088 71.7281 101.066 70.9999 101.077C70.2717 101.066 69.551 101.088 68.8454 101.167C66.9022 101.279 64.9439 101.403 63.0724 101.006C59.0238 100.147 55.6845 96.631 55.0582 92.5636C54.8092 90.9404 54.9488 89.2347 54.3752 87.694C53.2282 84.6125 49.7116 83.203 46.5421 82.2583C39.6108 80.1928 32.5134 78.6896 25.3368 77.7599C24.5369 77.6549 23.7144 77.5612 22.9371 77.7749C20.8203 78.3522 19.9714 80.7926 19.096 82.7944C18.0018 85.2986 16.3831 87.574 14.3757 89.4372C12.9004 90.8054 11.1723 92.0125 10.3007 93.8194C9.54982 95.3751 9.5385 97.167 9.16496 98.854C8.05187 103.877 3.65988 108.394 4.83711 113.403C5.05596 114.34 5.47101 115.232 5.57289 116.188C5.754 117.886 4.93899 119.517 4.11266 121.013C2.46755 123.993 0.607375 127.296 1.44502 130.591C1.69405 131.577 2.18079 132.503 2.34681 133.503C2.73168 135.816 1.39597 138.017 0.663973 140.244C-0.932084 145.091 0.448901 150.661 3.73912 154.571C5.02577 156.101 6.61806 157.469 7.28591 159.351C7.74624 160.652 7.71228 162.065 7.82925 163.437C8.52729 171.86 15.6473 179.32 24.0766 180.46C27.895 180.977 32.2304 180.078 34.5321 177.007C36.3432 174.593 36.547 171.388 37.5053 168.535C38.7467 164.832 41.3804 161.611 44.7687 159.64C47.2439 158.2 50.304 157.207 51.5604 154.646C52.6396 152.446 52.0698 149.571 53.6206 147.67C55.4129 145.469 58.9748 145.811 61.25 144.109C62.2537 143.359 62.9517 142.245 64.0044 141.571C65.9929 140.3 68.6115 140.903 70.9961 140.802C73.3808 140.9 75.9994 140.296 77.9878 141.571C79.0443 142.245 79.7424 143.359 80.7423 144.109C83.0175 145.811 86.5794 145.469 88.3716 147.67C89.9224 149.574 89.3527 152.446 90.4318 154.646C91.6883 157.207 94.7521 158.2 97.2235 159.64C100.612 161.611 103.246 164.835 104.487 168.535C105.445 171.392 105.649 174.597 107.46 177.007C109.766 180.078 114.097 180.974 117.916 180.46C126.341 179.32 133.465 171.86 134.163 163.437C134.276 162.065 134.242 160.652 134.703 159.351C135.37 157.473 136.966 156.101 138.249 154.571C141.54 150.658 142.921 145.087 141.324 140.244H141.336Z" fill="#E79BC2"/>
<path d="M128.907 161.248C129.232 162.204 128.896 163.261 128.39 164.134C127.885 165.008 127.209 165.784 126.768 166.691C126.217 167.827 126.055 169.12 125.477 170.245C124.183 172.753 121.176 173.814 118.395 174.38C116.282 174.807 114.003 175.062 112.033 174.188C110.166 173.36 108.804 171.504 108.573 169.484C108.475 168.625 108.581 167.726 108.996 166.965C109.554 165.949 110.592 165.296 111.592 164.704C113.324 163.677 115.082 162.691 116.859 161.743C119.531 160.314 122.425 158.942 125.451 159.167C126.873 159.272 128.447 159.906 128.903 161.252L128.907 161.248Z" fill="#DF659D"/>
<path d="M125.873 144.105C124.191 145.458 121.847 146.133 120.791 148.011C119.991 149.436 120.157 151.186 120.47 152.787C120.693 153.934 121.051 155.171 122.029 155.823C122.719 156.284 123.591 156.359 124.413 156.491C126.16 156.776 127.866 157.387 129.635 157.432C132.835 157.507 135.925 155.572 137.506 152.806C138.616 150.86 139.027 148.603 139.272 146.38C139.344 145.713 139.404 145.027 139.234 144.379C138.785 142.647 136.936 141.721 135.28 141.012C133.869 140.409 132.337 139.794 130.843 140.139C128.745 140.622 127.549 142.759 125.877 144.105H125.873Z" fill="#DF659D"/>
<path d="M113.29 159.827C114.591 158.999 116.003 158.339 117.47 157.863C118.085 157.664 118.757 157.469 119.149 156.955C119.625 156.337 119.531 155.471 119.38 154.706C118.761 151.621 117.391 148.525 114.825 146.684C112.26 144.843 108.317 144.69 106.128 146.965C105.781 147.325 105.487 147.734 105.204 148.146C103.498 150.616 102.057 153.739 103.166 156.528C103.623 157.679 104.468 158.627 105.091 159.696C105.411 160.247 105.683 160.847 106.143 161.293C107.09 162.211 108.626 162.256 109.871 161.814C111.116 161.371 112.173 160.536 113.29 159.827Z" fill="#DF659D"/>
<path d="M91.5939 151.943C91.1449 150.928 90.8204 149.702 91.4053 148.761C91.9675 147.854 93.2202 147.49 93.6315 146.508C94.771 146.317 96.0086 146.137 97.0198 146.688C97.4839 146.939 97.8574 147.321 98.2234 147.7C98.7102 148.202 99.2082 148.72 99.4837 149.364C99.8157 150.144 99.8082 151.085 100.367 151.722C100.74 152.15 101.374 152.48 101.348 153.046C101.34 153.192 101.287 153.334 101.231 153.469C100.668 154.897 99.9855 156.453 98.5819 157.098C97.8612 157.432 97.016 157.465 96.25 157.248C94.903 156.866 93.8843 155.771 93.0881 154.624C92.5033 153.78 92.0014 152.881 91.5864 151.943H91.5939Z" fill="#DF659D"/>
<path d="M113.554 137.237C113.116 137.496 112.686 137.785 112.381 138.189C111.754 139.018 111.784 140.146 111.837 141.181C111.867 141.736 111.909 142.324 112.241 142.77C112.558 143.194 113.082 143.408 113.577 143.603C114.686 144.034 115.792 144.465 116.901 144.9C117.867 145.274 118.987 145.646 119.897 145.151C120.319 144.922 120.629 144.532 120.995 144.225C121.674 143.651 122.538 143.355 123.383 143.07L126.13 142.144C126.334 142.077 126.553 141.998 126.67 141.818C126.775 141.661 126.779 141.462 126.783 141.275C126.798 139.992 126.809 138.707 126.824 137.425C126.828 137.027 126.824 136.611 126.628 136.266C126.345 135.786 125.76 135.588 125.217 135.46C121.293 134.523 117.01 135.175 113.55 137.237H113.554Z" fill="#DF659D"/>
<path d="M138.072 127.472C138.046 128.345 137.351 129.046 137.091 129.878C136.555 131.607 137.974 133.387 137.819 135.187C137.702 136.555 136.631 137.736 135.333 138.208C134.035 138.68 132.563 138.519 131.288 137.994C129.865 137.406 128.639 136.382 127.779 135.115C127.081 134.092 126.62 132.93 126.168 131.783C125.979 131.307 125.79 130.823 125.745 130.317C125.662 129.361 126.1 128.443 126.526 127.58C127.096 126.426 127.666 125.271 128.239 124.117C128.503 123.581 128.79 123.022 129.288 122.685C129.703 122.407 130.213 122.321 130.707 122.254C131.488 122.149 132.269 122.07 133.054 122.025C133.835 121.98 134.631 121.965 135.374 122.201C136.118 122.437 136.808 122.966 137.046 123.704C137.182 124.132 137.163 124.593 137.261 125.031C137.453 125.875 138.095 126.613 138.072 127.475V127.472Z" fill="#DF659D"/>
<path d="M110.913 124.983C110.29 127.029 109.66 129.106 109.581 131.247C109.551 132.09 109.634 133.012 110.2 133.642C110.513 133.991 110.943 134.212 111.373 134.392C115.207 135.974 119.663 134.628 123.206 132.48C123.406 132.36 123.606 132.233 123.745 132.045C123.957 131.76 123.991 131.389 124.028 131.037C124.209 129.222 124.628 127.431 125.273 125.725C125.564 124.953 125.907 124.158 125.824 123.337C125.636 121.526 123.549 120.582 121.734 120.345C119.142 120.008 116.463 120.39 114.071 121.436C113.128 121.849 112.192 122.396 111.626 123.251C111.279 123.776 111.094 124.387 110.909 124.986L110.913 124.983Z" fill="#DF659D"/>
<path d="M94.8578 140.112C94.888 141.177 94.9861 142.35 95.7558 143.089C96.2501 143.561 96.9557 143.782 97.4123 144.292C97.8462 144.78 97.9971 145.484 98.4763 145.927C98.8083 146.23 99.2573 146.377 99.695 146.474C102.163 147.018 104.849 146.309 106.8 144.716C108.754 143.123 109.969 140.705 110.207 138.208C110.271 137.548 110.267 136.874 110.09 136.236C109.754 135.018 108.826 134.058 107.936 133.155C107.524 132.739 107.102 132.315 106.562 132.086C106.079 131.88 105.54 131.854 105.015 131.824C103.536 131.749 102.012 131.682 100.623 132.184C99.5705 132.566 98.6612 133.252 97.7707 133.931C96.8727 134.613 95.9483 135.329 95.42 136.319C94.8125 137.462 94.8125 138.819 94.854 140.112H94.8578Z" fill="#DF659D"/>
<path d="M132.469 112.128C131.352 111.862 130.235 111.596 129.118 111.33C128.775 111.247 128.417 111.165 128.069 111.229C127.564 111.322 127.171 111.705 126.813 112.068C125.738 113.159 124.632 114.306 124.142 115.757C123.651 117.204 123.968 119.045 125.273 119.854C125.651 120.087 126.077 120.222 126.511 120.323C128.7 120.84 131.065 120.567 133.076 119.569C133.94 119.142 134.831 118.404 134.771 117.448C134.729 116.795 134.246 116.256 134.073 115.622C133.793 114.591 134.306 113.268 133.507 112.559C133.224 112.312 132.842 112.214 132.473 112.128H132.469Z" fill="#DF659D"/>
<path d="M108.007 129.185C108.762 127.472 109.305 125.669 109.626 123.824C109.702 123.393 109.762 122.947 109.675 122.52C109.592 122.119 109.385 121.755 109.128 121.436C108.09 120.15 106.26 119.644 104.63 119.948C103 120.252 101.563 121.264 100.487 122.52C100.103 122.97 99.7517 123.461 99.5479 124.019C98.9216 125.74 99.8196 127.607 100.74 129.189C100.887 129.444 101.05 129.71 101.306 129.856C101.574 130.013 101.902 130.017 102.212 130.013C103.717 130.01 105.219 130.006 106.725 130.002C107.007 130.002 107.309 129.995 107.547 129.841C107.773 129.691 107.898 129.432 108.007 129.185Z" fill="#DF659D"/>
<path d="M105.491 113.71C105.328 115.217 105.204 116.874 106.087 118.107C106.86 119.191 108.234 119.674 109.551 119.926C111.471 120.289 113.467 120.293 115.365 119.828C116.214 119.618 117.12 119.251 117.512 118.475C118.089 117.324 117.267 116.012 116.863 114.786C116.414 113.429 116.452 111.855 115.542 110.749C114.475 109.452 112.554 109.332 110.868 109.377C109.151 109.422 107.185 109.669 106.223 111.086C105.706 111.847 105.593 112.799 105.495 113.71H105.491Z" fill="#DF659D"/>
<path d="M125.236 110.445C124.338 111.705 123.549 113.069 123.176 114.569C122.987 115.318 122.904 116.109 122.523 116.784C122.145 117.459 121.357 117.995 120.61 117.774C119.863 117.553 119.516 116.72 119.267 115.989C118.546 113.883 117.825 111.776 117.105 109.669C116.489 107.866 115.867 106.037 115.757 104.136C115.731 103.697 115.739 103.244 115.912 102.839C116.071 102.468 116.361 102.164 116.678 101.909C118.335 100.575 120.814 100.47 122.704 101.452C124.594 102.434 125.885 104.372 126.311 106.449C126.462 107.172 126.511 107.937 126.288 108.646C126.077 109.313 125.639 109.879 125.236 110.453V110.445Z" fill="#DF659D"/>
<path d="M82.9724 136.214C83.0139 135.963 83.0554 135.711 83.1799 135.49C83.4969 134.928 84.2213 134.748 84.8665 134.699C87.9153 134.478 91.0244 136.158 92.4959 138.823C92.8996 139.558 93.1864 140.349 93.4543 141.14C93.5637 141.462 93.6694 141.799 93.6165 142.133C93.5675 142.452 93.3826 142.729 93.2053 142.995C92.7223 143.707 92.1978 144.461 91.4017 144.791C90.8734 145.012 90.281 145.02 89.7075 145.001C88.1605 144.952 86.6211 144.727 85.1231 144.337C84.7118 144.229 84.2968 144.105 83.9383 143.876C82.7309 143.1 82.5573 141.436 82.6064 140.008C82.6517 138.737 82.7724 137.47 82.9762 136.214H82.9724Z" fill="#DF659D"/>
<path d="M126.432 101.122C126.179 100.638 125.904 100.042 126.198 99.585C126.304 99.42 126.466 99.3075 126.628 99.1951C127.269 98.7527 127.949 98.2954 128.726 98.2167C130.065 98.078 131.269 99.0976 131.963 100.245C133.042 102.029 133.325 104.215 134.465 105.962C134.857 106.561 135.344 107.105 135.638 107.757C135.933 108.409 135.993 109.234 135.548 109.793C135.487 109.868 135.42 109.935 135.337 109.976C135.167 110.063 134.967 110.033 134.778 109.999C132.88 109.673 130.967 109.339 129.16 108.672C128.82 108.548 128.466 108.394 128.258 108.098C128.039 107.787 128.032 107.386 128.013 107.007C127.918 104.961 127.379 102.94 126.432 101.118V101.122Z" fill="#DF659D"/>
<path d="M126.643 91.2478C126.096 90.1419 125.024 89.4072 124.123 88.56C123.685 88.1513 123.281 87.709 122.806 87.3491C121.266 86.1833 119.101 86.0333 117.278 86.6856C115.456 87.3341 113.958 88.6949 112.841 90.2656C111.882 91.6077 111.158 93.1634 111.079 94.8053C111 96.4473 111.641 98.1754 112.98 99.1426C114.199 100.024 115.791 100.174 117.293 100.293C119.361 100.458 121.617 100.575 123.319 99.4013C123.851 99.0339 124.304 98.5503 124.866 98.2279C125.304 97.9768 125.806 97.8231 126.198 97.5044C127.1 96.7734 127.16 95.4501 127.145 94.2918C127.13 93.2571 127.107 92.1812 126.647 91.2515L126.643 91.2478Z" fill="#DF659D"/>
<path d="M105.811 99.5512C105.019 100.125 104.525 101.036 104.283 101.98C104.042 102.925 104.027 103.911 104.034 104.882C104.038 105.628 104.072 106.434 104.528 107.03C105.181 107.888 106.419 107.986 107.502 108.005C109.041 108.035 110.584 108.068 112.124 108.098C112.373 108.102 112.629 108.106 112.852 108.001C113.207 107.832 113.388 107.435 113.509 107.064C114.241 104.814 113.916 102.254 112.652 100.252C112.531 100.057 112.395 99.8661 112.214 99.7274C111.984 99.5512 111.694 99.4688 111.414 99.3938C110.479 99.1389 109.535 98.8802 108.569 98.839C107.6 98.7977 106.592 98.9852 105.811 99.555V99.5512Z" fill="#DF659D"/>
<path d="M90.4733 121.208C91.8505 121.879 93.2768 122.591 94.2163 123.794C94.7672 124.499 95.137 125.357 95.8199 125.942C96.8349 126.808 98.48 127.026 99.0007 128.248C99.2875 128.919 99.1139 129.713 98.7328 130.332C98.3517 130.951 97.782 131.438 97.2235 131.906C95.6048 133.267 93.8465 134.681 91.7373 134.905C89.1301 135.183 86.7379 133.59 84.6098 132.068C84.1645 131.749 83.708 131.415 83.4325 130.947C83.1156 130.4 83.0892 129.736 83.0741 129.106C83.0439 127.764 83.0401 126.396 83.4175 125.106C83.8514 123.622 84.8022 122.291 86.0662 121.395C86.7945 120.878 87.6623 120.495 88.5565 120.559C89.2319 120.608 89.8621 120.911 90.4695 121.208H90.4733Z" fill="#DF659D"/>
<path d="M102.714 117.084C102.721 116.469 102.729 115.847 102.608 115.243C102.295 113.691 101.084 112.353 99.5667 111.885C98.0499 111.412 96.2841 111.828 95.1408 112.923C94.1258 113.894 93.6391 115.273 93.1825 116.597C93.0995 116.84 93.0165 117.092 93.0316 117.346C93.0655 117.879 93.5221 118.291 93.6504 118.808C93.7296 119.131 93.6806 119.468 93.7107 119.798C93.8089 120.837 94.7521 121.661 95.7785 121.882C96.8048 122.104 97.8801 121.83 98.8385 121.399C99.7969 120.968 100.676 120.383 101.623 119.937C101.982 119.768 102.378 119.592 102.563 119.243C102.691 119.003 102.695 118.726 102.698 118.456C102.702 117.999 102.71 117.541 102.714 117.084Z" fill="#DF659D"/>
<path d="M99.9252 102.753C98.4386 102.209 96.7067 102.067 95.3181 102.828C93.9296 103.589 93.1184 105.459 93.8919 106.831C94.3333 107.618 95.1672 108.098 95.9596 108.537C97.0953 109.167 98.231 109.797 99.363 110.426C99.8233 110.681 100.299 110.944 100.819 111.041C101.34 111.139 101.925 111.045 102.299 110.674C102.732 110.243 102.781 109.572 102.8 108.961C102.819 108.398 102.838 107.836 102.861 107.274C102.887 106.501 102.91 105.699 102.619 104.979C102.17 103.87 101.053 103.161 99.9214 102.749L99.9252 102.753Z" fill="#DF659D"/>
<path d="M115.407 85.1486C116.15 85.0849 116.893 85.3061 117.64 85.2798C118.387 85.2536 119.225 84.8375 119.323 84.1027C119.372 83.7278 119.218 83.3605 119.063 83.0118C118.799 82.412 118.535 81.8122 118.27 81.2124C118.184 81.0138 118.093 80.8113 117.942 80.6539C117.742 80.444 117.459 80.339 117.188 80.2415C116.546 80.0091 115.897 79.7767 115.218 79.7354C114.727 79.7055 114.241 79.7729 113.758 79.8442C112.667 79.9979 111.577 80.1553 110.486 80.309C109.671 80.4252 108.845 80.5452 108.09 80.8713C107.336 81.2012 106.649 81.771 106.374 82.5395C105.925 83.7841 106.679 85.2011 107.77 85.9583C108.97 86.7906 110.577 87.0117 111.958 86.5356C113.135 86.1308 114.161 85.2573 115.403 85.1486H115.407Z" fill="#DF659D"/>
<path d="M108.219 88.1438C108.86 88.6762 109.396 89.3847 109.524 90.2019C109.618 90.8167 109.475 91.439 109.335 92.0463C109.075 93.1671 108.815 94.288 108.551 95.4089C108.464 95.7875 108.37 96.1774 108.158 96.5035C107.86 96.9608 107.358 97.2458 106.841 97.4332C104.46 98.2842 101.8 97.2045 99.7704 95.705C98.7932 94.9815 97.8612 94.1193 97.416 92.9909C97.2009 92.4474 97.1141 91.8176 97.348 91.2815C97.4876 90.9591 97.7329 90.693 97.9744 90.4381C99.0799 89.261 100.246 88.0764 101.717 87.3978C103.804 86.4344 106.449 86.6818 108.219 88.1438Z" fill="#DF659D"/>
<path d="M96.7066 89.1598C95.8199 89.872 94.9332 90.5843 94.0465 91.2965C93.3258 91.8776 92.4731 92.4924 91.56 92.3274C90.7299 92.1775 90.1601 91.4352 89.6734 90.7492C89.1791 90.0482 88.6622 89.2385 88.8508 88.4025C88.9753 87.844 89.3979 87.4053 89.8243 87.0192C91.326 85.6697 93.0919 84.6463 94.8879 83.7241C95.518 83.4017 96.1708 83.0831 96.8764 83.0043C97.582 82.9256 98.3592 83.1355 98.7856 83.6979C99.4686 84.5976 98.9969 85.8759 98.5064 86.8918C98.2913 87.3379 98.0725 87.7915 97.7593 88.1776C97.4574 88.5525 97.0801 88.8561 96.7066 89.156V89.1598Z" fill="#DF659D"/>
<path d="M98.5065 96.2261C99.2272 96.8934 99.7139 97.7668 100.186 98.629C100.393 99.0039 100.608 99.4313 100.495 99.8436C100.348 100.376 99.7403 100.623 99.2008 100.747C97.8839 101.047 96.5218 101.051 95.171 101.054C93.6579 101.054 92.1487 101.062 90.6356 101.066C90.0734 101.066 89.4697 101.054 89.0283 100.71C88.1906 100.054 88.4774 98.7003 87.9491 97.7818C87.7341 97.4069 87.3681 97.0621 87.3982 96.631C87.4284 96.2111 87.8208 95.9225 88.1717 95.6938C89.6735 94.7191 91.2922 93.7107 93.0882 93.707C94.7975 93.707 96.3596 94.6216 97.7405 95.6226C98.0047 95.8137 98.265 96.0087 98.5027 96.2299L98.5065 96.2261Z" fill="#DF659D"/>
<path d="M86.7944 118.801C85.7983 118.752 84.7229 118.67 83.957 118.036C83.5155 117.673 83.225 117.166 82.9571 116.664C82.2326 115.315 81.5799 113.883 81.4629 112.361C81.1988 108.856 83.9042 105.688 87.1038 104.185C87.7038 103.904 88.5339 103.716 88.93 104.241C89.0357 104.38 89.0885 104.552 89.1564 104.713C89.7715 106.213 91.4845 106.955 92.4353 108.275C93.3069 109.478 93.4579 111.086 93.1598 112.537C92.8617 113.988 92.1561 115.326 91.4241 116.619C91.1109 117.174 90.7751 117.74 90.2733 118.137C89.3262 118.88 88.0056 118.865 86.7982 118.805L86.7944 118.801Z" fill="#DF659D"/>
<path d="M13.0514 161.248C12.727 162.204 13.0628 163.261 13.5684 164.134C14.074 165.008 14.7494 165.784 15.1908 166.691C15.7417 167.827 15.904 169.12 16.4813 170.245C17.7755 172.753 20.7827 173.814 23.5635 174.38C25.6765 174.807 27.9555 175.062 29.9251 174.188C31.7928 173.36 33.155 171.504 33.3851 169.484C33.4832 168.625 33.3776 167.726 32.9625 166.965C32.4041 165.949 31.3665 165.296 30.3666 164.704C28.6347 163.677 26.8764 162.691 25.0992 161.743C22.4278 160.314 19.5338 158.942 16.5077 159.167C15.0852 159.272 13.5118 159.906 13.0552 161.252L13.0514 161.248Z" fill="#DF659D"/>
<path d="M16.0813 144.105C17.7641 145.458 20.1073 146.133 21.1638 148.011C21.9637 149.436 21.7977 151.186 21.4845 152.787C21.2619 153.934 20.9034 155.171 19.9262 155.823C19.2357 156.284 18.3641 156.359 17.5415 156.491C15.7945 156.776 14.0891 157.387 12.3194 157.432C9.11978 157.507 6.02954 155.572 4.44858 152.806C3.33926 150.86 2.92798 148.603 2.68273 146.38C2.61104 145.713 2.55067 145.027 2.72046 144.379C3.16947 142.647 5.01833 141.721 6.67476 141.012C8.08593 140.409 9.61784 139.794 11.112 140.139C13.2099 140.622 14.406 142.759 16.0775 144.105H16.0813Z" fill="#DF659D"/>
<path d="M28.665 159.827C27.3632 158.999 25.952 158.339 24.4843 157.863C23.8692 157.664 23.1976 157.469 22.8052 156.955C22.3298 156.337 22.4241 155.471 22.575 154.706C23.1938 151.621 24.5635 148.525 27.1293 146.684C29.695 144.843 33.638 144.69 35.8265 146.965C36.1736 147.325 36.4679 147.734 36.7509 148.146C38.4564 150.616 39.8977 153.739 38.7884 156.528C38.3319 157.679 37.4867 158.627 36.8641 159.696C36.5434 160.247 36.2717 160.847 35.8114 161.293C34.8643 162.211 33.3286 162.256 32.0835 161.814C30.8383 161.371 29.7818 160.536 28.665 159.827Z" fill="#DF659D"/>
<path d="M50.3643 151.943C50.8134 150.928 51.1378 149.702 50.553 148.761C49.9908 147.854 48.7381 147.49 48.3268 146.508C47.1873 146.317 45.9497 146.137 44.9385 146.688C44.4744 146.939 44.1009 147.321 43.7349 147.7C43.2481 148.202 42.7501 148.72 42.4746 149.364C42.1426 150.144 42.1501 151.085 41.5917 151.722C41.2181 152.15 40.5843 152.48 40.6107 153.046C40.6182 153.192 40.671 153.334 40.7276 153.469C41.2898 154.897 41.9728 156.453 43.3764 157.098C44.0971 157.432 44.9423 157.465 45.7082 157.248C47.0553 156.866 48.074 155.771 48.8702 154.624C49.455 153.78 49.9568 152.881 50.3719 151.943H50.3643Z" fill="#DF659D"/>
<path d="M28.4007 137.237C28.8383 137.496 29.2685 137.785 29.5741 138.189C30.2005 139.018 30.1703 140.146 30.1174 141.181C30.0873 141.736 30.0458 142.324 29.7137 142.77C29.3968 143.194 28.8723 143.408 28.378 143.603C27.2687 144.034 26.1632 144.465 25.0538 144.9C24.0879 145.274 22.9673 145.646 22.0579 145.151C21.6353 144.922 21.3259 144.532 20.9599 144.225C20.2808 143.651 19.4167 143.355 18.5715 143.07C17.6546 142.763 16.7377 142.452 15.8246 142.144C15.6209 142.077 15.402 141.998 15.2851 141.818C15.1794 141.661 15.1756 141.462 15.1719 141.275C15.1568 139.992 15.1455 138.707 15.1304 137.425C15.1266 137.027 15.1304 136.611 15.3266 136.266C15.6096 135.786 16.1944 135.588 16.7377 135.46C20.6619 134.523 24.9444 135.175 28.4044 137.237H28.4007Z" fill="#DF659D"/>
<path d="M3.88266 127.472C3.90908 128.345 4.60334 129.046 4.86369 129.878C5.39948 131.607 3.98077 133.387 4.13547 135.187C4.25244 136.555 5.32402 137.736 6.622 138.208C7.91997 138.68 9.39151 138.519 10.6668 137.994C12.0893 137.406 13.3156 136.382 14.1759 135.115C14.8739 134.092 15.3343 132.93 15.7871 131.783C15.9757 131.307 16.1644 130.823 16.2097 130.317C16.2927 129.361 15.855 128.443 15.4286 127.58C14.8589 126.426 14.2891 125.271 13.7156 124.117C13.4515 123.581 13.1647 123.022 12.6666 122.685C12.2516 122.407 11.7422 122.321 11.2479 122.254C10.4669 122.149 9.68582 122.07 8.901 122.025C8.11995 121.98 7.32381 121.965 6.58049 122.201C5.83717 122.437 5.14668 122.966 4.90897 123.704C4.77314 124.132 4.792 124.593 4.6939 125.031C4.50147 125.875 3.86003 126.613 3.88266 127.475V127.472Z" fill="#DF659D"/>
<path d="M31.0458 124.983C31.6684 127.029 32.2985 129.106 32.3777 131.247C32.4079 132.09 32.3249 133.012 31.7589 133.642C31.4458 133.991 31.0156 134.212 30.5855 134.392C26.7519 135.974 22.2958 134.628 18.7528 132.48C18.5528 132.36 18.3528 132.233 18.2132 132.045C18.0019 131.76 17.968 131.389 17.9302 131.037C17.7491 129.222 17.3303 127.431 16.6851 125.725C16.3945 124.953 16.0512 124.158 16.1342 123.337C16.3228 121.526 18.4094 120.582 20.2243 120.345C22.8165 120.008 25.4955 120.39 27.8877 121.436C28.831 121.849 29.7667 122.396 30.3327 123.251C30.6798 123.776 30.8647 124.387 31.0496 124.986L31.0458 124.983Z" fill="#DF659D"/>
<path d="M47.1006 140.112C47.0705 141.177 46.9724 142.35 46.2026 143.089C45.7083 143.561 45.0028 143.782 44.5462 144.292C44.1123 144.78 43.9614 145.484 43.4822 145.927C43.1501 146.23 42.7011 146.377 42.2634 146.474C39.7958 147.018 37.1093 146.309 35.1585 144.716C33.204 143.123 31.989 140.705 31.7513 138.208C31.6872 137.548 31.691 136.874 31.8683 136.236C32.2041 135.018 33.1323 134.058 34.0228 133.155C34.4341 132.739 34.8567 132.315 35.3962 132.086C35.8792 131.88 36.4188 131.854 36.9432 131.824C38.4223 131.749 39.9467 131.682 41.3352 132.184C42.3879 132.566 43.2973 133.252 44.1877 133.931C45.0858 134.613 46.0102 135.329 46.5384 136.319C47.1459 137.462 47.1459 138.819 47.1044 140.112H47.1006Z" fill="#DF659D"/>
<path d="M9.4857 112.128C10.6026 111.862 11.7194 111.596 12.8363 111.33C13.1796 111.247 13.5381 111.165 13.8852 111.229C14.3908 111.322 14.7833 111.705 15.1417 112.068C16.2171 113.159 17.3226 114.306 17.8131 115.757C18.3036 117.204 17.9867 119.045 16.6812 119.854C16.3038 120.087 15.8775 120.222 15.4436 120.323C13.2551 120.84 10.8893 120.567 8.87822 119.569C8.01416 119.142 7.12369 118.404 7.18406 117.448C7.22556 116.795 7.70853 116.256 7.8821 115.622C8.16131 114.591 7.64816 113.268 8.44808 112.559C8.73106 112.312 9.11216 112.214 9.48193 112.128H9.4857Z" fill="#DF659D"/>
<path d="M33.9473 129.185C33.1926 127.472 32.6493 125.669 32.3286 123.824C32.2531 123.393 32.1927 122.947 32.2795 122.52C32.3625 122.119 32.5701 121.755 32.8266 121.436C33.8643 120.15 35.6943 119.644 37.3243 119.948C38.9543 120.252 40.3919 121.264 41.4672 122.52C41.8521 122.97 42.203 123.461 42.4067 124.019C43.0331 125.74 42.1351 127.607 41.2144 129.189C41.0673 129.444 40.905 129.71 40.6484 129.856C40.3805 130.013 40.0523 130.017 39.7429 130.013C38.2374 130.01 36.7357 130.006 35.2302 130.002C34.9472 130.002 34.6453 129.995 34.4076 129.841C34.1812 129.691 34.0567 129.432 33.9473 129.185Z" fill="#DF659D"/>
<path d="M36.464 113.71C36.6262 115.217 36.7508 116.874 35.8678 118.107C35.0943 119.191 33.7209 119.674 32.4041 119.926C30.4835 120.289 28.4875 120.293 26.5896 119.828C25.7406 119.618 24.835 119.251 24.4426 118.475C23.8653 117.324 24.6879 116.012 25.0916 114.786C25.5406 113.429 25.5029 111.855 26.4122 110.749C27.48 109.452 29.4006 109.332 31.0872 109.377C32.804 109.422 34.7698 109.669 35.732 111.086C36.2489 111.847 36.3621 112.799 36.4602 113.71H36.464Z" fill="#DF659D"/>
<path d="M16.7189 110.445C17.617 111.705 18.4056 113.069 18.7791 114.569C18.9678 115.318 19.0545 116.109 19.4319 116.784C19.8092 117.459 20.5978 117.995 21.3449 117.774C22.092 117.553 22.4391 116.72 22.6881 115.989C23.4088 113.883 24.1295 111.776 24.8502 109.669C25.4652 107.866 26.0878 106.037 26.1972 104.136C26.2236 103.697 26.216 103.244 26.0425 102.839C25.884 102.468 25.5935 102.164 25.2765 101.909C23.6201 100.575 21.1411 100.47 19.2507 101.452C17.3604 102.434 16.07 104.372 15.6436 106.449C15.4927 107.172 15.4436 107.937 15.6662 108.646C15.8775 109.313 16.3152 109.879 16.7189 110.453V110.445Z" fill="#DF659D"/>
<path d="M58.9824 136.214C58.9409 135.963 58.8994 135.711 58.7749 135.49C58.4579 134.928 57.7335 134.748 57.0883 134.699C54.0395 134.478 50.9304 136.158 49.4589 138.823C49.0552 139.558 48.7684 140.349 48.5005 141.14C48.3911 141.462 48.2854 141.799 48.3382 142.133C48.3873 142.452 48.5722 142.729 48.7495 142.995C49.2325 143.707 49.757 144.461 50.5531 144.791C51.0813 145.012 51.6737 145.02 52.2473 145.001C53.7943 144.952 55.3337 144.727 56.8317 144.337C57.243 144.229 57.658 144.105 58.0165 143.876C59.2239 143.1 59.3974 141.436 59.3484 140.008C59.3031 138.737 59.1824 137.47 58.9786 136.214H58.9824Z" fill="#DF659D"/>
<path d="M15.523 101.122C15.7758 100.638 16.0512 100.042 15.7569 99.585C15.6513 99.42 15.489 99.3075 15.3268 99.1951C14.6853 98.7527 14.0061 98.2954 13.2289 98.2167C11.8894 98.078 10.6857 99.0976 9.99148 100.245C8.91235 102.029 8.62936 104.215 7.48986 105.962C7.09744 106.561 6.6107 107.105 6.3164 107.757C6.02209 108.409 5.96172 109.234 6.40695 109.793C6.46732 109.868 6.53524 109.935 6.61825 109.976C6.78804 110.063 6.98802 110.033 7.17668 109.999C9.07459 109.673 10.9876 109.339 12.795 108.672C13.1345 108.548 13.4892 108.394 13.6967 108.098C13.9156 107.787 13.9231 107.386 13.942 107.007C14.0363 104.961 14.5759 102.94 15.523 101.118V101.122Z" fill="#DF659D"/>
<path d="M15.3154 91.2478C15.8625 90.1419 16.9341 89.4072 17.8359 88.56C18.2736 88.1513 18.6773 87.709 19.1527 87.3491C20.6922 86.1833 22.858 86.0333 24.6804 86.6856C26.5029 87.3341 28.0008 88.6949 29.1177 90.2656C30.0761 91.6077 30.8005 93.1634 30.8798 94.8053C30.959 96.4473 30.3176 98.1754 28.9781 99.1426C27.7594 100.024 26.1671 100.174 24.6654 100.293C22.5976 100.458 20.3413 100.575 18.6396 99.4013C18.1076 99.0339 17.6548 98.5503 17.0926 98.2279C16.6549 97.9768 16.153 97.8231 15.7606 97.5044C14.8588 96.7734 14.7985 95.4501 14.8136 94.2918C14.8287 93.2571 14.8513 92.1812 15.3116 91.2515L15.3154 91.2478Z" fill="#DF659D"/>
<path d="M36.1471 99.5512C36.9395 100.125 37.4338 101.036 37.6753 101.98C37.9168 102.925 37.9319 103.911 37.9243 104.882C37.9205 105.628 37.8866 106.434 37.43 107.03C36.7773 107.888 35.5397 107.986 34.4567 108.005C32.9173 108.035 31.3741 108.068 29.8346 108.098C29.5856 108.102 29.329 108.106 29.1064 108.001C28.7517 107.832 28.5706 107.435 28.4498 107.064C27.7178 104.814 28.0423 102.254 29.3064 100.252C29.4271 100.057 29.5629 99.8661 29.744 99.7274C29.9742 99.5512 30.261 99.4688 30.544 99.3938C31.4797 99.1389 32.423 98.8802 33.3889 98.839C34.3586 98.7977 35.3661 98.9852 36.1471 99.555V99.5512Z" fill="#DF659D"/>
<path d="M51.4812 121.208C50.104 121.879 48.6778 122.591 47.7382 123.794C47.1874 124.499 46.8176 125.357 46.1346 125.942C45.1197 126.808 43.4745 127.026 42.9538 128.248C42.6671 128.919 42.8407 129.713 43.2217 130.332C43.6028 130.951 44.1726 131.438 44.731 131.906C46.3497 133.267 48.108 134.681 50.2172 134.905C52.8245 135.183 55.2167 133.59 57.3448 132.068C57.79 131.749 58.2466 131.415 58.522 130.947C58.839 130.4 58.8654 129.736 58.8805 129.106C58.9106 127.764 58.9144 126.396 58.5371 125.106C58.1032 123.622 57.1523 122.291 55.8883 121.395C55.1601 120.878 54.2923 120.495 53.398 120.559C52.7226 120.608 52.0925 120.911 51.485 121.208H51.4812Z" fill="#DF659D"/>
<path d="M39.2412 117.084C39.2337 116.469 39.2261 115.847 39.3469 115.243C39.66 113.691 40.8712 112.353 42.388 111.885C43.9049 111.412 45.6707 111.828 46.814 112.923C47.829 113.894 48.3157 115.273 48.7723 116.597C48.8553 116.84 48.9383 117.092 48.9232 117.346C48.8892 117.879 48.4327 118.291 48.3044 118.808C48.2252 119.131 48.2742 119.468 48.244 119.798C48.1459 120.837 47.2026 121.661 46.1763 121.882C45.15 122.104 44.0747 121.83 43.1163 121.399C42.1579 120.968 41.2787 120.383 40.3317 119.937C39.9732 119.768 39.577 119.592 39.3921 119.243C39.2638 119.003 39.2601 118.726 39.2563 118.456C39.2525 117.999 39.245 117.541 39.2412 117.084Z" fill="#DF659D"/>
<path d="M42.0294 102.753C43.516 102.209 45.2479 102.067 46.6364 102.828C48.025 103.589 48.8362 105.459 48.0627 106.831C47.6212 107.618 46.7874 108.098 45.995 108.537C44.8593 109.167 43.7235 109.797 42.5916 110.426C42.1313 110.681 41.6558 110.944 41.1351 111.041C40.6144 111.139 40.0296 111.045 39.6561 110.674C39.2221 110.243 39.1731 109.572 39.1542 108.961C39.1354 108.398 39.1165 107.836 39.0939 107.274C39.0674 106.501 39.0448 105.699 39.3353 104.979C39.7843 103.87 40.9012 103.161 42.0332 102.749L42.0294 102.753Z" fill="#DF659D"/>
<path d="M26.5518 85.1486C25.8085 85.0849 25.0652 85.3061 24.3181 85.2798C23.571 85.2536 22.7333 84.8375 22.6352 84.1027C22.5862 83.7278 22.7409 83.3605 22.8956 83.0118C23.1597 82.412 23.4238 81.8122 23.6879 81.2124C23.7747 81.0138 23.8653 80.8113 24.0162 80.6539C24.2162 80.444 24.4992 80.339 24.7708 80.2415C25.4123 80.0091 26.0613 79.7767 26.7404 79.7354C27.2272 79.7055 27.7177 79.7729 28.2007 79.8442C29.2911 79.9979 30.3816 80.1553 31.472 80.309C32.287 80.4252 33.1134 80.5452 33.868 80.8713C34.6226 81.2012 35.3093 81.771 35.5848 82.5395C36.0338 83.7841 35.2792 85.2011 34.1887 85.9583C32.9888 86.7906 31.3815 87.0117 30.0005 86.5356C28.8232 86.1308 27.7969 85.2573 26.5556 85.1486H26.5518Z" fill="#DF659D"/>
<path d="M33.736 88.1438C33.0946 88.6762 32.5588 89.3847 32.4305 90.2019C32.3361 90.8167 32.4795 91.439 32.6191 92.0463C32.8795 93.1671 33.1398 94.288 33.404 95.4089C33.4907 95.7875 33.5851 96.1774 33.7964 96.5035C34.0944 96.9608 34.5963 97.2458 35.1094 97.4332C37.4903 98.2842 40.1504 97.2045 42.1804 95.705C43.1576 94.9815 44.0896 94.1193 44.5348 92.9909C44.7499 92.4474 44.8367 91.8176 44.6028 91.2815C44.4632 90.9591 44.2179 90.693 43.9764 90.4381C42.8709 89.261 41.705 88.0764 40.2334 87.3978C38.1468 86.4344 35.5018 86.6818 33.7322 88.1438H33.736Z" fill="#DF659D"/>
<path d="M45.2481 89.1598C46.1348 89.872 47.0215 90.5843 47.9082 91.2965C48.6289 91.8776 49.4816 92.4924 50.3947 92.3274C51.2248 92.1775 51.7946 91.4352 52.2813 90.7492C52.7756 90.0482 53.2925 89.2385 53.1039 88.4025C52.9793 87.844 52.5567 87.4053 52.1304 87.0192C50.6286 85.6697 48.8628 84.6463 47.0668 83.7241C46.4366 83.4017 45.7839 83.0831 45.0783 83.0043C44.3727 82.9256 43.5954 83.1355 43.1691 83.6979C42.4861 84.5976 42.9578 85.8759 43.4483 86.8918C43.6633 87.3379 43.8822 87.7915 44.1954 88.1776C44.4972 88.5525 44.8745 88.8561 45.2481 89.156V89.1598Z" fill="#DF659D"/>
<path d="M43.4482 96.2261C42.7275 96.8934 42.2408 97.7668 41.7691 98.629C41.5616 99.0039 41.3465 99.4313 41.4597 99.8436C41.6069 100.376 42.2106 100.623 42.7539 100.747C44.0708 101.047 45.4329 101.051 46.7837 101.054C48.2968 101.054 49.806 101.062 51.3191 101.066C51.8813 101.066 52.485 101.054 52.9264 100.71C53.7641 100.054 53.4773 98.7003 54.0056 97.7818C54.2207 97.4069 54.5866 97.0621 54.5565 96.631C54.5263 96.2111 54.1339 95.9225 53.783 95.6938C52.2812 94.7191 50.6625 93.7107 48.8665 93.707C47.1572 93.707 45.5952 94.6216 44.2142 95.6226C43.95 95.8137 43.6897 96.0087 43.452 96.2299L43.4482 96.2261Z" fill="#DF659D"/>
<path d="M55.1601 118.801C56.1562 118.752 57.2316 118.67 57.9976 118.036C58.439 117.673 58.7296 117.166 58.9974 116.664C59.7219 115.315 60.3784 113.883 60.4916 112.361C60.7558 108.856 58.0504 105.688 54.8507 104.185C54.2508 103.904 53.4207 103.716 53.0245 104.241C52.9188 104.38 52.866 104.552 52.7981 104.713C52.1831 106.213 50.4701 106.955 49.5192 108.275C48.6476 109.478 48.4967 111.086 48.7948 112.537C49.0928 113.988 49.7984 115.326 50.5304 116.619C50.8436 117.174 51.1794 117.74 51.6812 118.137C52.6283 118.88 53.9489 118.865 55.1563 118.805L55.1601 118.801Z" fill="#DF659D"/>
<path d="M79.2482 113.575C79.2444 113.778 79.2218 113.988 79.1124 114.16C78.9841 114.359 78.7539 114.467 78.5388 114.569C76.7051 115.408 74.5544 116.244 72.7546 115.337C71.7773 114.842 71.0981 113.894 70.7095 112.878C70.3208 111.862 70.185 110.767 70.0567 109.688C69.985 109.08 69.9096 108.477 69.8379 107.87C69.7737 107.345 69.7134 106.798 69.902 106.303C70.0982 105.789 70.5359 105.407 70.9661 105.058C72.3621 103.922 73.8714 102.85 75.6146 102.385C77.3578 101.92 79.384 102.16 80.6933 103.394C82.0026 104.627 82.2592 106.955 80.9575 108.192C80.5764 108.556 80.0896 108.811 79.7463 109.212C78.7652 110.355 79.2897 112.076 79.252 113.575H79.2482Z" fill="#DF659D"/>
<path d="M65.9855 103.731C66.3062 103.772 66.6458 103.844 66.8911 104.053C67.3967 104.481 67.3137 105.257 67.3891 105.913C67.5287 107.127 68.3551 108.29 68.0494 109.47C67.7891 110.483 66.7175 111.139 65.6686 111.199C64.6196 111.262 63.6009 110.842 62.6915 110.318C62.3821 110.141 62.0765 109.943 61.8539 109.669C61.5898 109.343 61.4652 108.934 61.3105 108.544C61.0615 107.911 60.7219 107.311 60.5484 106.655C60.3748 105.999 60.3899 105.246 60.8012 104.702C61.2539 104.106 62.0576 103.911 62.8009 103.802C63.8537 103.649 64.929 103.589 65.9855 103.727V103.731Z" fill="#DF659D"/>
<path d="M64.5177 125.039C63.1858 125.106 61.7105 124.979 60.7596 124.053C59.8276 123.142 59.6541 121.672 59.9861 120.413C60.503 118.434 62.0463 116.885 63.6801 115.637C64.6422 114.902 65.7666 114.205 66.974 114.317C68.2645 114.437 69.2757 115.442 70.1435 116.398C70.6038 116.904 71.0717 117.44 71.2642 118.096C71.4302 118.666 71.366 119.273 71.3019 119.862C71.1547 121.23 70.9397 122.733 69.9096 123.652C69.2644 124.225 68.3965 124.477 67.5513 124.653C66.5552 124.859 65.5402 124.99 64.5252 125.039H64.5177Z" fill="#DF659D"/>
<path d="M81.678 125.654C81.5874 127.142 82.2968 128.814 81.4177 130.017C80.7121 130.984 79.3084 131.116 78.1237 130.924C76.5804 130.677 75.0523 129.995 74.075 128.776C72.5205 126.842 72.679 124.098 72.9167 121.635C73.0035 120.724 73.0902 119.809 73.1808 118.898C73.2034 118.677 73.2261 118.445 73.3544 118.265C73.4977 118.066 73.7392 117.965 73.9732 117.879C76.2522 117.05 78.7613 116.855 81.1422 117.316C81.5799 117.403 82.0402 117.523 82.3534 117.834C82.825 118.302 82.8364 119.048 82.7873 119.708C82.6892 121.05 82.4591 122.381 82.1044 123.678C81.927 124.327 81.7157 124.975 81.678 125.646V125.654Z" fill="#DF659D"/>
<path d="M70.5547 135.273C69.7774 135.73 68.9964 136.188 68.2191 136.645C67.3324 137.166 66.3967 137.702 65.3704 137.728C64.0196 137.766 62.7744 136.885 62.016 135.771C61.2576 134.658 60.8954 133.335 60.5445 132.038C60.4916 131.839 60.435 131.633 60.4652 131.43C60.4992 131.175 60.6614 130.958 60.8086 130.744C61.6047 129.609 62.2348 128.3 63.3743 127.502C64.6044 126.64 66.1967 126.535 67.7022 126.456C68.2531 126.426 68.8115 126.4 69.3473 126.535C70.6 126.849 71.4905 128.019 71.8376 129.256C72.1847 130.493 72.0828 131.805 71.9772 133.087C71.9432 133.5 71.9055 133.927 71.7018 134.287C71.4527 134.729 70.9924 135.007 70.5547 135.265V135.273Z" fill="#DF659D"/>
<path d="M79.8065 139.625C77.7351 139.94 75.7843 138.497 73.6902 138.414C73.3431 138.399 72.928 138.396 72.7356 138.103C72.6186 137.927 72.6262 137.695 72.6488 137.481C72.7318 136.679 72.9318 135.888 73.2337 135.138C73.4751 134.542 73.8147 133.938 74.3769 133.62C74.8524 133.35 75.4259 133.32 75.973 133.297C77.3615 133.237 78.8104 133.189 80.0631 133.788C80.6517 134.07 81.2102 134.549 81.297 135.19C81.3385 135.502 81.2668 135.813 81.1951 136.12C80.9762 137.046 80.7612 137.968 80.5423 138.894C80.497 139.085 80.4442 139.288 80.3046 139.423C80.1725 139.55 79.9839 139.595 79.8028 139.621L79.8065 139.625Z" fill="#DF659D"/>
<path d="M72.4979 33.4611C72.4979 33.4611 73.7619 29.9074 82.1761 24.2655C90.5903 18.6237 93.7485 15.486 94.1673 10.2603C94.5899 5.03454 99.0045 -4.37102 108.683 2.31671C118.361 9.00445 128.25 46.4205 127.617 60.6357C126.986 74.8509 124.251 78.8208 113.731 83.2105C103.212 87.6003 71.864 76.5228 71.864 76.5228C71.864 76.5228 72.181 33.15 72.4941 33.4611H72.4979Z" fill="white"/>
<path d="M104.057 9.00445C110.203 8.61083 115.629 22.7998 117.523 30.9533C119.417 39.1067 120.259 72.5491 108.475 76.729C96.6916 80.9088 76.2862 58.7538 80.4933 46.2106C84.7004 33.6673 95.4313 28.0255 96.484 22.5898C97.5368 17.1542 97.5368 9.42056 104.057 9.00445Z" fill="#F0EDEE"/>
<path d="M83.1269 50.7803C87.0925 38.8106 97.1971 33.4274 98.1895 28.2392C99.1818 23.0547 99.1818 15.6734 105.325 15.2723C111.116 14.8974 116.225 28.4379 118.01 36.2165C118.082 36.5276 118.15 36.8912 118.218 37.2774C118.014 34.5933 117.716 32.3778 117.384 30.9495C115.49 22.796 110.064 8.60708 103.917 9.0007C97.3933 9.42055 97.3933 17.1542 96.3444 22.5861C95.2917 28.0217 84.5607 33.6636 80.3536 46.2068C78.5538 51.5675 81.2592 58.6788 85.8587 64.748C83.1043 59.9272 81.7837 54.8251 83.1269 50.7765V50.7803Z" fill="#CBC1CB"/>
<path d="M71.7545 33.4611C71.7545 33.4611 70.4905 29.9074 62.0763 24.2655C53.6621 18.6237 50.504 15.486 50.0851 10.2603C49.6626 5.03454 45.2479 -4.37102 35.5697 2.31671C25.8915 9.00445 16.002 46.4205 16.6359 60.6357C17.266 74.8509 20.0016 78.8208 30.5212 83.2105C41.0408 87.6003 72.3884 76.5228 72.3884 76.5228C72.3884 76.5228 72.0715 33.15 71.7583 33.4611H71.7545Z" fill="white"/>
<path d="M40.1957 9.00445C34.0492 8.61083 28.6234 22.7998 26.7293 30.9533C24.8351 39.1067 23.9937 72.5491 35.7773 76.729C47.561 80.9088 67.9664 58.7538 63.7593 46.2106C59.5522 33.6673 48.8212 28.0255 47.7685 22.5898C46.7158 17.1542 46.7158 9.42056 40.1957 9.00445Z" fill="#F0EDEE"/>
<path d="M61.1292 50.7803C57.1636 38.8106 47.059 33.4274 46.0666 28.2392C45.0743 23.0547 45.0743 15.6734 38.9315 15.2723C33.1397 14.8974 28.0308 28.4379 26.2461 36.2165C26.1744 36.5276 26.1065 36.8912 26.0386 37.2774C26.2423 34.5933 26.5404 32.3778 26.8724 30.9495C28.7666 22.796 34.1924 8.60708 40.3389 9.0007C46.8628 9.42055 46.8628 17.1542 47.9117 22.5861C48.9607 28.018 59.6954 33.6636 63.9025 46.2068C65.7023 51.5675 62.9969 58.6788 58.3974 64.748C61.1518 59.9272 62.4724 54.8251 61.1292 50.7765V50.7803Z" fill="#CBC1CB"/>
</g>
<defs>
<clipPath id="clip0_5032_37532">
<rect width="142" height="210" fill="white"/>
</clipPath>
</defs>
</svg>
