<svg width="199" height="203" viewBox="0 0 199 203" fill="none" xmlns="http://www.w3.org/2000/svg">
<g clip-path="url(#clip0_5032_37448)">
<path d="M106.585 165.976C100.267 168.318 93.06 168.195 86.8315 165.631C80.5919 163.067 75.3867 158.083 72.5282 151.963C61.9843 152.81 45.7346 141.439 38.4051 133.791L33.7893 107.18V53.4674L54.0541 35.552L171.127 26.1094L185.798 71.9179L183.106 137.392L136.014 146.132L106.596 165.988L106.585 165.976Z" fill="#FF725E"/>
<g opacity="0.2">
<path d="M106.585 165.976C100.267 168.318 93.06 168.195 86.8315 165.631C80.5919 163.067 75.3867 158.083 72.5282 151.963C61.9843 152.81 45.7346 141.439 38.4051 133.791L33.7893 107.18V53.4674L54.0541 35.552L171.127 26.1094L185.798 71.9179L183.106 137.392L136.014 146.132L106.596 165.988L106.585 165.976Z" fill="black"/>
</g>
<g opacity="0.3">
<path d="M163.698 64.0472C160.995 57.1129 157.035 50.3682 150.896 46.1653C142.232 40.2232 130.954 40.3012 120.465 40.6134C96.4189 41.3046 72.3725 41.9958 48.3372 42.687C40.8631 42.8988 32.3211 43.6569 27.8834 49.6881C23.6791 55.4072 25.0694 63.3114 26.3485 70.2902C30.3191 91.9292 31.398 114.103 29.5517 136.021L38.5274 126.099C44.7225 120.402 40.4182 107.749 40.4182 107.749C40.6406 106.389 42.8873 93.7686 38.0603 88.6738C40.8408 82.3193 38.4384 76.2881 37.404 70.1565C43.8327 68.54 46.1128 61.9401 45.4454 55.3292C50.4616 56.366 55.6891 56.4329 60.7275 55.5076C68.8801 62.4418 81.515 63.4786 90.6798 57.949C98.8547 63.5232 110.845 62.5533 118.018 55.7417C125.292 60.4128 135.714 59.3983 141.954 53.4005C140.508 58.1163 142.487 64.0472 147.415 63.8019C143.789 69.6325 147.915 77.7819 153.61 81.617C146.102 89.6995 146.38 103.791 154.199 111.561C152.153 113.702 150.084 115.887 148.783 118.551C147.481 121.216 147.07 124.482 148.416 127.113C149.761 129.755 153.187 131.361 155.856 130.079C157.514 129.287 158.559 127.626 159.449 126.01C169.848 107.336 171.45 83.9692 163.698 64.036V64.0472Z" fill="black"/>
</g>
<path d="M23.2566 161.829C23.2566 161.829 1.62374 156.445 6.79561 133.1C6.79561 133.1 2.62475 122.487 5.90582 114.248C5.90582 114.248 -6.10625 104.237 4.12626 87.8823C4.12626 87.8823 -4.32668 72.5645 4.87145 60.4797C4.87145 60.4797 -0.522861 54.7271 5.46093 42.5977C5.46093 42.5977 -0.556227 33.7571 5.01604 22.4416C5.01604 22.4416 3.01403 7.95987 19.2526 2.46375C35.4911 -3.04353 48.9046 11.8283 48.9046 11.8283C48.9046 11.8283 65.9439 6.20959 76.0096 17.6701C76.0096 17.6701 88.8225 8.72911 99.2218 15.7191C99.2218 15.7191 105.05 10.903 115.004 9.98887C124.959 9.07471 131.588 13.5452 131.588 13.5452C131.588 13.5452 134.101 2.99887 150.229 6.32107C150.229 6.32107 163.72 -6.74478 177.334 4.71571C190.947 16.1762 181.226 29.7103 181.226 29.7103C181.226 29.7103 192.071 41.7505 184.585 52.8654C184.585 52.8654 197.12 60.3125 192.427 77.5143C192.427 77.5143 206.952 94.7051 192.771 112.821C192.771 112.821 199.867 128.986 192.538 140.101C192.538 140.101 197.176 149.711 187.889 157.381C184.585 160.101 176.066 160.436 172.073 157.76C172.073 157.76 157.091 165.207 145.535 156.846C145.535 156.846 135.013 170.491 120.721 167.504C120.721 167.504 125.748 177.136 120.265 183.212C120.265 183.212 116.862 200.848 117.663 203.022H108.654C108.654 203.022 100.79 185.43 97.8316 182.688C94.873 179.945 92.9266 171.952 95.2067 166.01C95.2067 166.01 88.3776 146.132 103.248 136.077C118.119 126.021 132.934 128.195 137.605 131.506C137.605 131.506 144.1 124.538 152.309 127.28C152.309 127.28 150.829 119.856 156.98 112.888C156.98 112.888 148.772 95.2959 156.179 81.7061C156.179 81.7061 146.492 76.3326 149.684 63.1999C149.684 63.1999 143.989 55.4295 145.357 48.3503C145.357 48.3503 138.406 57.2578 116.973 52.8096C116.973 52.8096 103.637 62.8654 90.9913 55.095C90.9913 55.095 72.5061 62.3972 63.4748 52.6981C63.4748 52.6981 51.674 54.2924 42.209 50.4127C42.209 50.4127 43.0098 57.124 40.3071 63.133C39.3839 65.1843 33.6114 69.1085 33.6114 69.1085C33.6114 69.1085 37.2484 77.4363 34.4011 89.4319C34.4011 89.4319 41.0078 93.4342 38.5053 108.507C38.5053 108.507 42.6316 115.619 38.5275 126.121C38.5275 126.121 52.1634 160.135 23.2566 161.851V161.829Z" fill="#FF725E"/>
<path d="M71.0714 57.0126C71.0714 57.0126 71.2494 57.1575 71.5274 57.4697C71.8166 57.7818 72.217 58.2612 72.7064 58.9078C73.6963 60.1787 75.0532 62.0851 76.5992 64.5377C77.3667 65.764 78.1786 67.113 79.0016 68.618C79.8024 70.123 80.6477 71.7395 81.2483 73.5902C81.8045 75.4519 81.9713 77.5478 81.6042 79.6326C81.2372 81.7061 80.2584 83.8466 78.49 85.3182C76.7216 86.7898 74.4415 87.3583 72.3394 87.336C70.215 87.3137 68.213 86.8232 66.4334 86.1097C62.8298 84.705 60.0159 82.5423 58.025 80.4352C56.023 78.3282 54.7995 76.288 54.0766 74.8388C53.7318 74.103 53.476 73.5344 53.3425 73.1219C53.1979 72.7206 53.1312 72.5088 53.1423 72.4976C53.1979 72.4753 53.5205 73.3114 54.2768 74.7273C55.0553 76.1208 56.3122 78.1052 58.3142 80.1454C60.3051 82.1744 63.0968 84.2591 66.6114 85.5969C68.3576 86.277 70.304 86.7452 72.3283 86.7563C74.3414 86.7786 76.4769 86.2324 78.1119 84.8611C79.7468 83.501 80.6811 81.4943 81.037 79.5211C81.3929 77.5255 81.2483 75.5188 80.7256 73.7239C80.1695 71.9402 79.3464 70.3237 78.5679 68.8298C77.7782 67.3359 76.9885 65.9758 76.2433 64.7384C74.7529 62.2746 73.4516 60.3459 72.5173 59.0304C72.0502 58.3727 71.6832 57.871 71.4274 57.5366C71.1715 57.2021 71.0381 57.0126 71.0603 57.0014L71.0714 57.0126Z" fill="#263238"/>
<path d="M76.3878 76.433C76.4545 76.5668 75.3868 77.1019 73.9743 76.9681C72.5617 76.8455 71.6052 76.1431 71.6942 76.0205C71.7721 75.8756 72.7508 76.288 74.0188 76.3995C75.2867 76.5222 76.3211 76.288 76.3767 76.4441L76.3878 76.433Z" fill="#263238"/>
<path d="M119.887 129.243C119.887 129.243 119.831 129.142 119.765 128.942C119.687 128.741 119.598 128.44 119.442 128.061C119.142 127.292 118.641 126.166 117.785 124.861C116.94 123.546 115.683 122.063 113.937 120.703C112.179 119.365 109.921 118.128 107.219 117.437C104.527 116.768 101.38 116.712 98.2319 117.57C96.6526 117.994 95.0843 118.652 93.5939 119.555C92.0924 120.424 90.8356 121.751 89.1784 122.732C88.3665 123.211 87.3655 123.59 86.32 123.423C85.2522 123.278 84.4181 122.498 83.8397 121.706C82.7275 120.101 81.5819 118.462 80.4252 116.801C78.1006 113.479 75.776 109.978 73.2513 106.522C70.7265 103.1 67.7902 99.9671 64.1644 98.2726C60.583 96.6226 56.3454 96.3885 53.1533 98.1834C51.5851 99.0864 50.3394 100.424 49.5719 101.974C48.8045 103.512 48.4041 105.185 48.3262 106.812C48.1483 110.09 49.216 113.078 50.484 115.541C51.7741 118.027 53.2868 120.09 54.6214 121.874C55.9672 123.657 57.1462 125.185 58.0471 126.478C58.9591 127.771 59.6042 128.808 60.0158 129.532C60.2271 129.889 60.3717 130.179 60.4606 130.369C60.5607 130.558 60.6052 130.658 60.5941 130.658C60.5719 130.67 60.3605 130.291 59.9157 129.588C59.4708 128.886 58.8034 127.871 57.8692 126.6C56.9349 125.33 55.7337 123.825 54.3656 122.052C53.0087 120.279 51.4627 118.228 50.128 115.709C48.8156 113.222 47.6923 110.168 47.848 106.768C47.9147 105.084 48.3151 103.345 49.1159 101.717C49.9056 100.09 51.2291 98.6516 52.8864 97.6928C56.2675 95.7753 60.672 96.0318 64.3979 97.7263C68.1684 99.4877 71.1603 102.698 73.7073 106.143C76.2543 109.633 78.5566 113.122 80.8812 116.455C82.0268 118.117 83.1612 119.755 84.2623 121.35C84.8185 122.108 85.5192 122.743 86.3867 122.866C87.2431 123 88.1218 122.699 88.9003 122.241C90.4575 121.338 91.7588 119.99 93.3159 119.087C94.8508 118.161 96.4746 117.503 98.0874 117.08C101.335 116.221 104.549 116.299 107.297 117.013C110.055 117.738 112.346 119.031 114.115 120.424C115.872 121.84 117.118 123.367 117.952 124.716C118.786 126.065 119.253 127.214 119.52 128.005C119.653 128.395 119.731 128.708 119.787 128.908C119.843 129.109 119.865 129.22 119.854 129.22L119.887 129.243Z" fill="#263238"/>
<path d="M62.4406 110.658C62.4072 110.814 60.839 110.658 58.9259 110.29C57.0129 109.934 55.4891 109.51 55.5225 109.354C55.5559 109.198 57.1241 109.354 59.0372 109.722C60.9502 110.079 62.4739 110.502 62.4406 110.658Z" fill="#263238"/>
<path d="M62.2514 110.491C62.2514 110.491 62.3849 110.647 62.6073 110.971C62.852 111.35 63.1523 111.829 63.5193 112.409C64.3313 113.735 65.4435 115.541 66.7893 117.738C68.1685 120.023 69.7812 122.71 71.5719 125.686C72.4617 127.18 73.4293 128.752 74.2635 130.48C75.0865 132.208 75.7761 134.137 75.9096 136.199C76.1654 140.369 74.219 144.215 71.5607 146.556C68.8469 148.953 65.4546 149.633 62.8186 149.443C60.127 149.265 58.1028 148.306 56.8682 147.504C56.2454 147.102 55.7893 146.734 55.5113 146.456C55.2221 146.188 55.0886 146.043 55.0998 146.021C55.1443 145.976 55.7226 146.556 56.9794 147.303C58.2251 148.039 60.2271 148.897 62.8298 149.031C65.399 149.165 68.6245 148.462 71.1937 146.155C73.7296 143.903 75.5648 140.19 75.3201 136.233C75.1977 134.271 74.5415 132.409 73.7407 130.714C72.9399 129.02 71.9834 127.448 71.1047 125.943C69.3585 122.944 67.7681 120.235 66.4223 117.938C65.1432 115.697 64.0866 113.869 63.308 112.509C62.9743 111.907 62.7074 111.416 62.485 111.015C62.307 110.67 62.218 110.48 62.2291 110.48L62.2514 110.491Z" fill="#263238"/>
<path d="M62.8631 104.839C63.0188 104.861 63.0077 106.177 62.8409 107.782C62.6741 109.387 62.396 110.681 62.2403 110.658C62.0846 110.636 62.0957 109.321 62.2625 107.715C62.4294 106.11 62.7074 104.817 62.8631 104.839Z" fill="#263238"/>
<path d="M105.373 128.161C105.373 128.161 105.317 128.674 105.028 129.566C104.75 130.447 104.216 131.706 103.337 133.122C101.624 135.943 98.1319 139.432 93.1714 140.893C88.1997 142.331 83.3838 141.261 80.4364 139.8C78.9349 139.075 77.8227 138.306 77.1108 137.704C76.399 137.113 76.0542 136.734 76.0765 136.712C76.1543 136.601 77.6225 138.106 80.6143 139.432C83.5506 140.77 88.222 141.729 93.0268 140.346C97.8205 138.942 101.246 135.619 103.015 132.91C104.828 130.179 105.272 128.128 105.395 128.184L105.373 128.161Z" fill="#263238"/>
<path d="M108.72 132.687C108.72 132.844 107.575 132.977 106.151 132.966C104.739 132.966 103.582 132.832 103.582 132.665C103.582 132.509 104.727 132.375 106.151 132.386C107.564 132.386 108.72 132.52 108.72 132.687Z" fill="#263238"/>
<path d="M153.398 114.661C153.398 114.661 153.354 114.761 153.232 114.939C153.109 115.107 152.954 115.385 152.687 115.709C152.197 116.366 151.374 117.28 150.14 118.262C148.894 119.209 147.214 120.235 145.046 120.837C142.899 121.439 140.23 121.639 137.527 120.736C134.846 119.856 132.144 117.961 130.398 115.084C129.508 113.668 128.952 111.974 128.763 110.19C128.596 108.406 128.807 106.556 129.308 104.75C130.297 101.127 132.277 97.7151 134.179 94.1923C136.092 90.6582 138.072 87.0016 140.107 83.2446C141.108 81.3605 142.187 79.5434 142.955 77.6481C143.722 75.7641 144.122 73.7239 143.689 71.8176C143.277 69.9112 142.154 68.2501 140.764 66.9903C139.362 65.7306 137.66 64.8722 135.914 64.4374C132.366 63.5901 128.818 64.2701 125.782 65.3627C122.734 66.4887 120.054 67.9937 117.818 69.6325C113.303 72.8878 110.511 76.5445 108.831 79.142C108.008 80.4575 107.419 81.5278 107.052 82.2524C106.874 82.598 106.74 82.8656 106.629 83.0885C106.529 83.278 106.474 83.3672 106.462 83.3672C106.462 83.3672 107.019 81.7173 108.631 79.0194C110.266 76.3661 113.025 72.6314 117.574 69.298C119.831 67.6258 122.523 66.0762 125.615 64.9167C128.696 63.7908 132.344 63.055 136.037 63.9245C137.872 64.3705 139.651 65.2623 141.131 66.5778C142.599 67.8934 143.8 69.6548 144.245 71.6949C144.712 73.7462 144.289 75.9201 143.488 77.86C142.699 79.8221 141.62 81.6392 140.619 83.5233C138.584 87.2692 136.604 90.9258 134.68 94.4598C132.778 97.9939 130.809 101.361 129.83 104.895C129.33 106.645 129.13 108.429 129.274 110.146C129.452 111.851 129.964 113.468 130.82 114.839C132.477 117.615 135.08 119.477 137.672 120.346C140.285 121.238 142.877 121.082 144.979 120.525C147.103 119.967 148.772 118.997 150.017 118.083C152.498 116.188 153.332 114.594 153.41 114.661H153.398Z" fill="#263238"/>
<path d="M153.877 87.5256C153.944 87.5925 152.965 88.6404 151.508 90.4241C150.051 92.2079 148.149 94.7608 146.347 97.782C144.556 100.803 143.222 103.702 142.354 105.831C141.487 107.96 141.031 109.321 140.942 109.298C140.908 109.287 140.975 108.93 141.142 108.306C141.298 107.682 141.587 106.779 141.976 105.686C142.755 103.501 144.045 100.547 145.858 97.4922C147.671 94.4375 149.65 91.8957 151.196 90.1677C151.975 89.2982 152.62 88.6293 153.098 88.1833C153.565 87.7374 153.844 87.5033 153.877 87.5367V87.5256Z" fill="#263238"/>
<path d="M128.184 81.3605C128.184 81.3605 128.107 81.6727 127.895 82.2636C127.684 82.8433 127.373 83.7017 126.939 84.8054C126.071 86.9905 124.837 90.19 122.723 93.8467C120.621 97.4699 117.44 101.651 112.491 104.415C110.033 105.764 107.13 106.712 104.038 106.656C100.979 106.6 97.7539 105.653 95.1735 103.601C93.8833 102.587 92.8156 101.316 92.0704 99.9002C91.3252 98.4844 90.9025 96.9348 90.7135 95.4074C90.3576 92.3417 90.7913 89.3762 91.3363 86.6449C92.4152 81.1599 94.0724 76.3772 95.7741 72.5199C97.4647 68.6514 99.1998 65.6971 100.457 63.7127C101.102 62.7317 101.602 61.9624 101.98 61.4719C102.347 60.9702 102.536 60.7138 102.559 60.725C102.57 60.7361 102.414 61.0148 102.08 61.5388C101.747 62.0628 101.269 62.832 100.657 63.8354C99.4556 65.8532 97.7984 68.8298 96.1634 72.6871C94.5173 76.5445 92.9157 81.3048 91.8702 86.7452C91.3474 89.4542 90.9248 92.364 91.2918 95.3294C91.4809 96.801 91.8813 98.2837 92.5931 99.6215C93.305 100.97 94.3171 102.163 95.5517 103.144C98.0097 105.106 101.113 106.021 104.06 106.088C107.03 106.154 109.855 105.24 112.257 103.947C117.096 101.283 120.265 97.1912 122.39 93.6349C124.525 90.0339 125.815 86.8678 126.75 84.7162C127.195 83.6682 127.539 82.8433 127.806 82.219C128.051 81.6504 128.184 81.3494 128.207 81.3605H128.184Z" fill="#263238"/>
<path d="M108.286 92.7095C108.186 92.8099 106.674 90.8924 106.195 88.0049C105.695 85.1175 106.507 82.8098 106.64 82.8767C106.818 82.9102 106.296 85.1733 106.774 87.9158C107.219 90.6694 108.442 92.6315 108.286 92.7207V92.7095Z" fill="#263238"/>
<path d="M106.663 82.8656C106.785 82.9436 105.506 85.1175 103.415 87.4029C101.335 89.6995 99.2886 91.1711 99.1996 91.0484C99.0884 90.9147 100.935 89.2647 102.992 87.0016C105.05 84.7608 106.529 82.7652 106.674 82.8656H106.663Z" fill="#263238"/>
<path d="M72.9844 77.9714C72.9844 77.9714 72.8065 77.7373 72.5173 77.2691C72.2281 76.8009 71.7832 76.1097 71.1715 75.2624C69.9703 73.5456 68.035 71.1933 65.3657 68.5511C64.031 67.2245 62.5295 65.8309 60.8945 64.337C59.2706 62.8432 57.5133 61.2712 55.3445 60.1007C53.2201 58.9301 50.6397 58.172 48.026 58.6291C45.4345 59.0416 42.932 60.6469 41.5751 63.0996C40.8855 64.3036 40.563 65.6748 40.6074 67.0238C40.6631 68.3727 41.0412 69.6882 41.5083 70.9368C42.4649 73.4564 43.7217 75.7306 44.9674 77.8711C47.481 82.1521 50.0503 85.8199 52.4193 88.7296C54.7661 91.6504 56.9683 93.7686 58.6589 94.9949C60.3606 96.2101 61.4951 96.5446 61.4617 96.6226C61.4617 96.6449 61.1837 96.5446 60.6721 96.3328C60.1382 96.1655 59.4375 95.7196 58.5366 95.1733C56.7793 93.9805 54.5103 91.8957 52.1079 88.986C49.6832 86.0874 47.0695 82.4308 44.5225 78.1387C43.2657 75.9982 41.9644 73.6793 40.9856 71.1375C40.4962 69.8666 40.0958 68.4842 40.0291 67.0349C39.9735 65.5856 40.3294 64.0918 41.0635 62.7986C42.4982 60.1899 45.1898 58.4842 47.9259 58.0494C50.6954 57.57 53.4092 58.395 55.5892 59.6101C57.8025 60.8253 59.5932 62.453 61.2059 63.958C62.8298 65.463 64.3202 66.89 65.6437 68.2278C68.2908 70.9146 70.1927 73.3226 71.3383 75.0952C71.9278 75.9759 72.3282 76.6894 72.5951 77.1688C72.851 77.6593 72.9844 77.9269 72.9622 77.9269L72.9844 77.9714Z" fill="#263238"/>
<path d="M90.402 93.044C90.402 93.044 90.3798 93.4007 90.1573 94.0027C89.946 94.6048 89.5345 95.4409 88.8449 96.355C87.4991 98.2057 84.8409 100.201 81.4708 101.127C78.1008 102.041 74.9198 101.963 72.6842 101.851C70.4375 101.717 69.0583 101.539 69.0583 101.461C69.0583 101.372 70.4486 101.416 72.6953 101.439C74.9198 101.439 78.0452 101.461 81.3151 100.569C84.5739 99.6661 87.1432 97.8043 88.5224 96.0986C89.9349 94.3929 90.2797 92.9883 90.3909 93.044H90.402Z" fill="#263238"/>
<path d="M108.287 158.563C108.442 158.44 110.177 161.885 113.981 164.449C117.741 167.08 121.567 167.47 121.511 167.649C121.511 167.716 120.555 167.716 119.075 167.359C117.596 167.013 115.594 166.244 113.659 164.917C111.735 163.591 110.3 161.996 109.443 160.726C108.587 159.466 108.242 158.574 108.298 158.552L108.287 158.563Z" fill="#263238"/>
<path d="M144.89 147.314C144.968 147.292 145.235 147.805 145.602 148.696C145.958 149.577 146.402 150.848 146.569 152.331C146.736 153.814 146.491 155.196 146.102 156.088C145.713 156.991 145.257 157.426 145.212 157.381C145.135 157.325 145.457 156.835 145.724 155.954C146.002 155.073 146.158 153.802 146.002 152.398C145.846 150.993 145.468 149.744 145.224 148.841C144.968 147.927 144.823 147.359 144.901 147.325L144.89 147.314Z" fill="#263238"/>
<path d="M161.796 132.23C161.818 132.375 159.104 132.308 156.346 130.614C153.565 128.942 152.264 126.567 152.397 126.522C152.542 126.411 153.999 128.54 156.646 130.123C159.271 131.751 161.829 132.063 161.796 132.242V132.23Z" fill="#263238"/>
<path d="M193.105 112.888C193.105 112.888 192.46 113.546 191.192 114.282C189.924 115.017 188.044 115.842 185.842 116.311C183.64 116.768 181.594 116.779 180.137 116.612C178.68 116.444 177.812 116.166 177.823 116.099C177.845 115.909 181.416 116.667 185.72 115.731C190.035 114.85 193.005 112.71 193.094 112.877L193.105 112.888Z" fill="#263238"/>
<path d="M163.131 77.8711C163.164 78.0495 161.251 78.4062 159.26 79.6548C157.258 80.8812 156.079 82.4419 155.934 82.3304C155.801 82.2636 156.824 80.4687 158.949 79.1643C161.062 77.8488 163.131 77.7262 163.119 77.8711H163.131Z" fill="#263238"/>
<path d="M175.165 52.2411C175.142 52.0962 177.567 51.6391 180.57 51.9847C183.573 52.3191 185.831 53.3225 185.775 53.4563C185.72 53.6235 183.429 52.8877 180.503 52.5532C177.589 52.2076 175.187 52.3972 175.165 52.2299V52.2411Z" fill="#263238"/>
<path d="M140.764 20.7582C140.63 20.8697 138.728 18.7181 135.959 16.5553C133.2 14.3702 130.665 13.0324 130.742 12.8763C130.798 12.7425 133.501 13.8797 136.315 16.0982C139.14 18.3056 140.886 20.669 140.764 20.7582Z" fill="#263238"/>
<path d="M157.781 9.96662C157.647 10.0781 156.491 8.60652 154.511 7.58088C152.542 6.52178 150.685 6.39915 150.707 6.22078C150.685 6.07585 152.676 5.94207 154.789 7.06805C156.902 8.17174 157.925 9.89973 157.792 9.96662H157.781Z" fill="#263238"/>
<g opacity="0.3">
<path d="M145.402 47.4696C149.328 48.9969 153.888 48.7962 157.669 46.9345C159.127 46.221 160.584 45.1173 160.939 43.5231C163.809 44.192 166.89 43.8575 169.559 42.5978C172.217 41.338 174.431 39.1529 175.743 36.5108C173.775 38.7405 171.116 40.3458 168.236 41.037C165.355 41.7282 162.608 41.6056 159.849 40.513C159.672 41.3492 158.582 42.3637 157.892 42.8542C157.191 43.3447 155.234 44.571 154.444 44.872C151.363 46.0426 148.204 46.901 145.746 47.0237" fill="black"/>
</g>
<path d="M176.488 35.552C176.488 35.552 176.433 35.6635 176.299 35.8419C176.166 36.0203 175.977 36.299 175.688 36.6334C175.109 37.2912 174.197 38.2165 172.818 39.1084C171.439 39.9891 169.615 40.8921 167.357 41.3046C165.121 41.7505 162.43 41.7059 159.749 40.7583L160.061 40.6245C158.915 42.8765 156.513 44.2366 154.044 45.2399C151.53 46.2433 148.772 46.9233 145.869 47.3693L146.08 47.2243C145.835 47.5811 145.602 47.9601 145.335 48.328C145.023 48.6625 144.745 49.0304 144.412 49.3425C142.476 51.1597 140.096 52.2299 137.783 52.9657C135.458 53.7238 133.1 54.036 130.887 54.2478C126.449 54.7272 122.334 54.3147 119.142 53.133C115.916 52.0181 113.714 50.2232 112.446 48.8297C111.812 48.1162 111.39 47.5142 111.145 47.0906C110.889 46.6669 110.8 46.4105 110.811 46.4105C110.833 46.4105 110.956 46.6335 111.245 47.0348C111.523 47.4473 111.979 48.0159 112.613 48.6848C113.914 50.0114 116.094 51.7171 119.275 52.7539C122.423 53.8687 126.449 54.2255 130.842 53.7238C133.045 53.5008 135.336 53.1887 137.616 52.4306C139.885 51.706 142.187 50.6469 144.011 48.93C144.334 48.629 144.601 48.2834 144.89 47.9824C145.135 47.6368 145.357 47.2912 145.591 46.9568L145.68 46.8341L145.813 46.8119C148.66 46.3771 151.408 45.7082 153.866 44.7383C156.29 43.7795 158.593 42.4417 159.638 40.4239L159.738 40.2232L159.949 40.3012C162.53 41.2265 165.132 41.3157 167.312 40.9144C169.526 40.5465 171.328 39.7104 172.696 38.8742C175.443 37.1574 176.433 35.474 176.522 35.5632L176.488 35.552Z" fill="#263238"/>
<path d="M61.7954 46.5666C61.9623 46.5666 62.0735 48.027 62.5851 49.7216C63.0856 51.4273 63.8086 52.6982 63.664 52.7874C63.5416 52.8765 62.5629 51.6837 62.029 49.8888C61.484 48.0939 61.6397 46.5554 61.7843 46.5666H61.7954Z" fill="#263238"/>
<path d="M42.6205 50.4016C42.6205 50.4016 42.2313 50.3793 41.5417 50.201C40.8521 50.0226 39.8622 49.6993 38.6721 49.1642C36.3142 48.1051 33.1666 46.0203 30.7086 42.5978L31.0089 42.7093C29.8077 43.0103 28.5286 43.1887 27.205 43.1441C24.6358 43.0772 22.2445 42.2745 20.3648 41.0816C18.4741 39.8999 17.1283 38.3503 16.2273 36.9456C15.3264 35.5297 14.8704 34.2365 14.6369 33.3447C14.4033 32.4417 14.3699 31.9288 14.4033 31.9177C14.5256 31.8731 14.7481 33.9913 16.5721 36.7115C17.4842 38.0493 18.8188 39.4986 20.6429 40.6134C22.4558 41.7282 24.7581 42.4863 27.2162 42.542C28.4841 42.5866 29.7076 42.4306 30.8643 42.1407L31.0534 42.0961L31.1646 42.2522C33.5225 45.5855 36.5478 47.6926 38.8278 48.8186C41.119 49.9668 42.6428 50.2901 42.6205 50.3905V50.4016Z" fill="#263238"/>
<path d="M49.8056 22.4305C49.6276 22.3747 50.5952 19.9667 50.2838 16.8897C50.0169 13.8016 48.6155 11.6166 48.7823 11.5385C48.8379 11.5051 49.2717 11.9845 49.7499 12.9209C50.2282 13.8462 50.7065 15.2398 50.8622 16.834C51.0068 18.4282 50.7954 19.8886 50.4951 20.892C50.1948 21.8953 49.8723 22.4528 49.8056 22.4305Z" fill="#263238"/>
<path d="M14.4922 93.7686C14.4922 93.9136 11.4558 93.568 8.3527 91.5836C5.22734 89.6326 3.59236 87.0462 3.72583 86.9905C3.87042 86.8678 5.63887 89.2201 8.66413 91.093C11.6671 92.9994 14.5478 93.5903 14.5033 93.7686H14.4922Z" fill="#263238"/>
<path d="M39.3506 125.029C39.484 125.084 37.8268 127.637 34.6347 129.41C31.4649 131.216 28.4285 131.294 28.4507 131.16C28.4174 130.982 31.3092 130.647 34.3567 128.908C37.4264 127.214 39.2171 124.906 39.3506 125.029Z" fill="#263238"/>
<g opacity="0.3">
<path d="M19.2192 47.202C19.2192 47.202 19.2414 47.3024 19.2525 47.4919C19.2525 47.7149 19.2748 47.9936 19.2859 48.3392C19.297 49.1307 19.3193 50.2121 19.3415 51.5945C19.3637 54.4708 19.3971 58.5399 19.4305 63.5567C19.4972 73.657 19.5417 87.6036 19.8531 103.011C20.1534 118.418 20.7652 132.353 21.6772 142.409C21.8774 144.928 22.1777 147.18 22.3779 149.176C22.6559 151.149 22.9006 152.855 23.0897 154.259C23.3455 155.608 23.5457 156.679 23.6903 157.448C23.7459 157.782 23.7904 158.061 23.8349 158.284C23.8683 158.474 23.8683 158.574 23.8683 158.574C23.8683 158.574 23.8349 158.485 23.7793 158.295C23.7237 158.072 23.657 157.805 23.5791 157.47C23.4123 156.701 23.1676 155.642 22.8784 154.293C22.6559 152.877 22.3779 151.183 22.0665 149.209C21.8329 147.214 21.4992 144.951 21.2768 142.431C20.2535 132.375 19.5751 118.418 19.2748 103.011C18.9633 87.6036 18.9856 73.6459 19.0301 63.5455C19.0634 58.5288 19.0968 54.4596 19.1191 51.5833C19.1413 50.2121 19.1635 49.1196 19.1747 48.328C19.1858 47.9824 19.1969 47.7037 19.208 47.4808C19.208 47.2912 19.2303 47.1909 19.2414 47.1909L19.2192 47.202Z" fill="white"/>
</g>
<g opacity="0.3">
<path d="M175.165 11.271C175.165 11.271 173.719 13.2331 170.482 16.1874C167.235 19.1082 162.052 22.8429 155 26.2432C151.486 27.9377 147.537 29.61 143.233 31.193C138.928 32.7984 134.279 34.3703 129.319 35.775C119.398 38.6067 108.164 40.8029 96.2411 41.1708C84.3181 41.5721 72.9066 39.8664 63.0634 36.7226C53.1979 33.5676 44.9674 28.9411 38.7723 24.1696C35.6914 21.7616 33.0109 19.465 30.3527 17.9042C27.7167 16.2989 25.1364 15.485 22.9897 15.2621C20.832 15.0057 19.1414 15.329 18.0626 15.6634C16.9726 16.009 16.4498 16.3212 16.4387 16.2877C16.4387 16.2877 16.9392 15.9421 18.0292 15.5519C19.1081 15.1729 20.8209 14.8161 23.0231 15.028C25.2031 15.2286 27.8502 16.0202 30.5307 17.6144C33.2334 19.1751 35.9583 21.4717 39.0392 23.8351C45.2343 28.5286 53.4315 33.0994 63.2524 36.1986C73.0512 39.2979 84.3848 40.9813 96.2523 40.5799C108.12 40.2232 119.309 38.0493 129.208 35.251C134.157 33.8575 138.806 32.3079 143.099 30.7248C147.404 29.164 151.341 27.5141 154.856 25.853C161.896 22.5085 167.09 18.8518 170.371 15.9979C171.995 14.5486 173.207 13.3557 173.986 12.5196C174.364 12.1182 174.653 11.7949 174.876 11.5608C175.076 11.349 175.187 11.2375 175.198 11.2487L175.165 11.271Z" fill="white"/>
</g>
<g opacity="0.3">
<path d="M164.732 45.6636C164.732 45.6636 164.799 45.8085 164.888 46.0872C164.988 46.3994 165.121 46.823 165.299 47.3581C165.655 48.473 166.156 50.1341 166.756 52.2745C167.957 56.5666 169.548 62.8097 170.961 70.6581C171.672 74.5824 172.34 78.8968 172.885 83.5456C173.152 85.8756 173.407 88.2837 173.608 90.7697C173.741 92.0183 173.741 93.2781 173.808 94.5602C173.875 95.8422 173.93 97.1354 173.997 98.4509C174.264 103.702 174.664 109.22 174.675 114.962C174.675 120.703 174.319 126.667 172.94 132.643C172.54 134.126 171.917 135.619 170.805 136.734C169.704 137.871 168.213 138.507 166.745 138.797C165.266 139.109 163.764 139.142 162.307 139.12C160.85 139.098 159.404 139.031 157.97 138.942C152.253 138.551 146.792 137.738 141.575 137.258C136.359 136.757 131.365 136.645 126.749 137.214C122.145 137.771 117.929 139.031 114.459 140.915C110.967 142.766 108.32 145.285 106.462 147.805C104.583 150.324 103.504 152.866 102.97 154.995C101.902 159.332 102.681 161.84 102.547 161.818C102.547 161.818 102.414 161.216 102.303 160.045C102.225 158.875 102.236 157.113 102.759 154.94C103.27 152.766 104.338 150.179 106.218 147.604C108.075 145.04 110.744 142.453 114.281 140.547C117.796 138.618 122.056 137.325 126.705 136.734C131.365 136.143 136.404 136.233 141.642 136.734C146.881 137.191 152.342 138.005 158.025 138.384C159.449 138.473 160.884 138.54 162.33 138.563C163.776 138.585 165.221 138.54 166.634 138.25C168.035 137.961 169.403 137.37 170.404 136.344C171.417 135.33 172.006 133.936 172.395 132.498C173.752 126.634 174.119 120.67 174.119 114.973C174.119 109.254 173.741 103.746 173.474 98.4955C173.419 97.18 173.352 95.8868 173.296 94.6048C173.241 93.3227 173.241 92.0629 173.118 90.8255C172.929 88.3505 172.684 85.9425 172.429 83.6237C171.906 78.9748 171.261 74.6715 170.582 70.7585C169.225 62.9212 167.691 56.667 166.556 52.3637C165.989 50.2121 165.533 48.551 165.21 47.425C165.066 46.8787 164.943 46.4551 164.854 46.143C164.777 45.8531 164.743 45.697 164.754 45.697L164.732 45.6636Z" fill="white"/>
</g>
<g opacity="0.3">
<path d="M30.942 42.4194C27.1271 43.2221 24.302 42.9211 21.0432 41.1485C17.7844 39.3759 15.7379 36.3213 14.6479 32.8318C14.4699 36.2098 16.2273 40.0448 18.6853 42.3748C21.1433 44.6937 24.6468 45.8754 28.0058 45.4964C28.9067 45.396 29.8521 45.1954 30.7085 45.4741C31.576 45.7528 32.21 46.4774 32.8996 47.0794C34.7347 48.6736 37.1928 49.5321 39.6174 49.3983C36.1139 47.6145 32.9997 45.7862 30.942 42.4194Z" fill="black"/>
</g>
<g opacity="0.3">
<path d="M120.11 97.3695C117.396 100.658 113.736 103.791 109.777 105.363C105.817 106.935 100.679 106.422 96.8528 104.56C93.0267 102.698 90.2573 97.3695 90.4464 93.1109C89.1673 97.9493 91.2694 103.39 95.2067 106.478C99.144 109.566 104.616 110.38 109.432 109.053C114.248 107.726 118.397 104.404 121.211 100.268C124.025 96.1321 125.582 91.2268 126.227 86.2547C124.114 89.9559 122.812 94.0919 120.098 97.3807L120.11 97.3695Z" fill="black"/>
</g>
<g opacity="0.3">
<path d="M55.6558 77.7485C55.8004 77.9269 55.9561 78.0941 56.1007 78.2725C56.0784 78.239 56.0562 78.1944 56.045 78.161L55.6558 77.7485Z" fill="black"/>
</g>
<g opacity="0.3">
<path d="M80.9811 73.3672C81.2481 77.1353 81.237 81.9849 78.5009 84.5824C76.4655 86.5111 73.24 86.9236 70.4595 86.6671C64.8093 86.1432 59.6931 82.6649 56.1006 78.2725C57.7578 81.617 60.049 84.705 63.0631 86.8901C66.1106 89.1086 69.9367 90.3573 73.6849 89.9225C77.4331 89.4877 81.0034 87.2246 82.6495 83.8243C84.2956 80.4241 83.7172 75.9647 80.9923 73.3672H80.9811Z" fill="black"/>
</g>
<g opacity="0.3">
<path d="M63.7529 148.384C63.3191 148.373 62.8742 148.362 62.4404 148.317C62.8742 148.362 63.3191 148.384 63.7529 148.384Z" fill="black"/>
</g>
<g opacity="0.3">
<path d="M76.4434 133.546C75.2533 125.664 70.6375 118.362 64.0309 113.914L65.9773 116.79C67.9904 120.201 69.7366 123.111 71.7497 126.511C73.774 129.912 76.0763 133.981 75.5869 137.905C75.2088 140.982 73.5738 143.892 71.138 145.82C69.047 147.47 66.3999 148.373 63.7417 148.384C65.7437 148.44 67.7568 148.184 69.6254 147.47C71.9055 146.601 73.952 145.029 75.1865 142.922C76.8104 140.146 76.9105 136.723 76.4322 133.546H76.4434Z" fill="black"/>
</g>
<path d="M23.2901 161.785C23.2901 161.785 23.557 161.74 24.0909 161.684C24.6136 161.606 25.4144 161.584 26.4377 161.383C26.9493 161.283 27.5277 161.171 28.1616 161.06C28.7845 160.882 29.4629 160.692 30.197 160.48C31.6318 159.945 33.3112 159.299 34.9129 158.095C36.5367 156.935 38.1161 155.285 39.2839 153.134C40.474 150.993 41.197 148.362 41.475 145.497C42.0089 139.756 40.9189 133.044 38.3941 126.143L38.3719 126.076L38.3941 126.01C39.384 123.468 40.0514 120.625 40.1626 117.615C40.2404 114.638 39.7955 111.416 38.3608 108.562L38.3274 108.496V108.429C38.8168 105.307 39.1282 101.996 38.6722 98.6405C38.4831 96.9571 38.0382 95.296 37.3709 93.7017C36.6924 92.141 35.7025 90.5802 34.3234 89.5769L34.1788 89.4765L34.2122 89.3204C34.9573 86.1655 35.3355 82.821 35.2799 79.4096C35.1687 76.0093 34.6904 72.4642 33.4225 69.1643L33.3446 68.9747L33.5114 68.8633C34.924 67.8822 36.3476 66.812 37.6934 65.6637C38.3608 65.084 39.017 64.4708 39.5842 63.7908C39.8512 63.434 40.0847 63.1219 40.2404 62.6759C40.4073 62.2523 40.5963 61.8398 40.7298 61.405C41.9199 57.9713 42.2981 54.1475 41.9866 50.4016L41.9533 49.9668L42.3537 50.1229C45.4902 51.3715 48.9492 52.1296 52.5194 52.4641C56.0897 52.7985 59.7934 52.7985 63.4749 52.386H63.6195L63.7196 52.4752C64.5204 53.289 65.3879 54.0471 66.3556 54.6826C67.3343 55.2957 68.3798 55.8197 69.4809 56.221C71.6943 57.0014 74.0744 57.3693 76.488 57.4139C81.3151 57.4808 86.2422 56.4886 90.9136 54.8052L91.0471 54.7606L91.1694 54.8275C94.8954 57.0683 99.4778 58.172 104.005 57.5588C108.531 57.0237 112.991 55.2065 116.829 52.5644L116.94 52.4864L117.062 52.5086C118.808 52.7985 120.688 53.2221 122.612 53.3894C126.65 53.8576 130.743 53.891 134.68 53.1776C136.637 52.8097 138.573 52.2857 140.374 51.4496C142.165 50.6469 143.9 49.5766 145.168 48.1719L145.847 47.425L145.68 48.4061C145.457 49.6881 145.435 51.0036 145.569 52.308C145.735 53.6012 146.047 54.8721 146.447 56.1207C147.292 58.5845 148.494 60.9368 149.951 63.0438L150.029 63.1553L149.995 63.2779C149.172 66.7005 149.105 70.3237 150.207 73.5902C151.285 76.8455 153.532 79.6994 156.346 81.472L156.58 81.6169L156.457 81.8511C155.2 84.3148 154.311 86.9236 153.821 89.5992C153.399 92.2859 153.31 94.9949 153.488 97.6482C153.921 102.966 155.245 108.117 157.247 112.788L157.314 112.944L157.202 113.066C153.699 117.013 151.897 122.331 152.576 127.236L152.631 127.648L152.253 127.526C149.639 126.679 146.848 126.734 144.345 127.593C141.854 128.451 139.596 129.9 137.794 131.673L137.649 131.807L137.483 131.695C134.324 129.666 130.509 129.142 126.972 128.986C123.391 128.852 119.909 129.343 116.651 130.179C113.381 131.004 110.344 132.275 107.564 133.747C104.794 135.229 102.169 136.823 100.123 138.897C98.0541 140.937 96.5415 143.345 95.5627 145.82C94.5617 148.295 94.0834 150.826 93.8944 153.223C93.5385 158.05 94.2503 162.398 95.3291 165.965V166.01V166.043C94.3393 168.708 94.2169 171.283 94.3837 173.446C94.5617 175.62 95.0177 177.426 95.5405 178.819C96.0632 180.213 96.6527 181.194 97.1087 181.796C97.5647 182.409 97.865 182.654 97.8428 182.677C97.8428 182.677 97.7649 182.61 97.6315 182.476C97.498 182.342 97.2755 182.141 97.0531 181.829C96.5748 181.238 95.9631 180.257 95.4181 178.853C94.8731 177.459 94.3949 175.642 94.1947 173.457C94.0167 171.272 94.1168 168.674 95.0956 165.954V166.032C93.9833 162.431 93.2493 158.072 93.5829 153.189C93.7609 150.759 94.2503 148.195 95.2513 145.686C96.2412 143.167 97.7649 140.714 99.867 138.63C101.947 136.511 104.594 134.895 107.375 133.39C110.177 131.896 113.236 130.603 116.539 129.767C119.832 128.919 123.346 128.407 126.983 128.54C130.576 128.708 134.424 129.198 137.75 131.316L137.449 131.35C139.318 129.488 141.609 128.016 144.189 127.124C146.77 126.233 149.695 126.166 152.409 127.046L152.086 127.336C151.363 122.197 153.221 116.79 156.813 112.721L156.769 113C154.722 108.239 153.399 103.077 152.943 97.6817C152.765 94.9838 152.854 92.2302 153.276 89.4988C153.766 86.7675 154.667 84.0919 155.957 81.5724L156.068 81.9514C153.087 80.0785 150.807 77.1576 149.662 73.7685C148.516 70.3794 148.583 66.6336 149.428 63.133L149.472 63.3671C147.96 61.1932 146.759 58.8186 145.88 56.2879C145.468 55.017 145.146 53.7015 144.968 52.3637C144.823 51.0148 144.846 49.6435 145.079 48.2946L145.591 48.5287C144.189 50.0895 142.432 51.1374 140.586 51.9847C138.739 52.8431 136.76 53.3782 134.758 53.7573C130.743 54.4819 126.605 54.4596 122.523 53.9802C120.588 53.813 118.697 53.3894 116.929 53.0995L117.162 53.0438C113.214 55.7751 108.709 57.5923 104.06 58.1497C99.411 58.7852 94.6841 57.648 90.858 55.3403L91.1138 55.3626C86.3535 57.0795 81.3818 58.0717 76.4657 58.0048C74.0077 57.9602 71.5608 57.5923 69.2807 56.7785C68.1463 56.3548 67.0563 55.8197 66.0441 55.1842C65.032 54.5265 64.1311 53.7461 63.2969 52.8877L63.5305 52.9769C59.7823 53.4005 56.0675 53.4005 52.4527 53.0549C48.838 52.7205 45.3344 51.9401 42.1312 50.6692L42.4983 50.3905C42.8208 54.2589 42.4204 58.1051 41.197 61.6391C41.0524 62.0851 40.8633 62.5087 40.6965 62.9435C40.5519 63.3783 40.2404 63.8131 39.9624 64.181C39.3618 64.9056 38.6944 65.5188 38.0049 66.1096C36.6257 67.2802 35.2132 68.3504 33.7673 69.3426L33.8562 69.0305C36.3588 75.909 36.1029 83.1554 34.6348 89.4988L34.5347 89.2424C36.0807 90.3684 37.0372 91.9626 37.7602 93.5791C38.4497 95.2179 38.8946 96.9348 39.0837 98.6405C39.5397 102.063 39.2172 105.407 38.7278 108.551L38.7056 108.418C40.1959 111.405 40.6186 114.649 40.5407 117.693C40.4184 120.748 39.7288 123.635 38.7167 126.21V126.076C40.018 129.566 40.8633 132.988 41.386 136.277C41.8977 139.555 42.0645 142.699 41.7419 145.597C41.4416 148.496 40.7076 151.149 39.473 153.323C38.2718 155.508 36.6591 157.169 35.013 158.329C33.378 159.533 31.6763 160.168 30.2304 160.692C29.4852 160.893 28.7956 161.082 28.1728 161.249C27.5388 161.361 26.9604 161.461 26.4377 161.551C25.4033 161.74 24.6025 161.74 24.0686 161.807C23.5348 161.852 23.2678 161.863 23.2678 161.863L23.2901 161.785Z" fill="#263238"/>
<path d="M119.186 182.041C119.186 182.041 118.386 182.71 116.873 183.39C115.372 184.081 113.147 184.784 110.611 185.007C108.075 185.23 105.762 184.94 104.16 184.527C102.548 184.115 101.624 183.658 101.647 183.602C101.68 183.412 105.584 184.906 110.556 184.427C115.538 184.014 119.109 181.852 119.175 182.03L119.186 182.041Z" fill="#263238"/>
</g>
<defs>
<clipPath id="clip0_5032_37448">
<rect width="199" height="203" fill="white"/>
</clipPath>
</defs>
</svg>
