<svg width="177" height="204" viewBox="0 0 177 204" fill="none" xmlns="http://www.w3.org/2000/svg">
<g clip-path="url(#clip0_5032_37158)">
<path d="M174.014 119.423C180.489 108.905 174.418 97.1726 174.418 97.1726C174.418 87.8674 165.515 76.5391 165.515 76.5391L89.8394 102.027C89.8394 102.027 89.8235 105.221 89.8005 110.339C91.5947 110.266 93.3693 110.994 94.1145 112.6C91.6264 113.961 90.3868 116.465 89.7635 119.287C89.744 124.075 89.7246 129.521 89.707 135.241C90.1149 137.968 90.8495 140.606 92.2198 142.998C91.1956 144.61 90.385 146.334 89.6752 148.102C89.6575 157.013 89.6522 165.764 89.6716 172.901C90.0336 173.791 90.378 174.688 90.823 175.541C91.2786 176.414 91.7871 177.311 91.8083 178.296C91.8313 179.318 91.3262 180.27 90.8336 181.167C90.4663 181.838 90.0972 182.51 89.7299 183.181C89.7564 185.796 89.7935 187.704 89.8394 188.604C90.2438 196.291 96.3148 197.505 96.3148 197.505C121.81 214.901 139.615 191.842 139.615 191.842C153.375 191.438 158.635 174.446 158.635 174.446C173.203 165.545 170.775 146.53 170.775 146.53C182.107 134.394 174.014 119.423 174.014 119.423Z" fill="#DF659D"/>
<path d="M161.468 57.9304C168.752 40.9388 151.755 31.2293 151.755 31.2293C146.495 10.1914 127.069 10.5957 127.069 10.5957C127.069 10.5957 131.116 8.16833 110.881 1.69474C90.6464 -4.77884 88.2183 9.38113 88.2183 9.38113V46.1307C89.0589 47.5289 90.1113 48.784 91.4816 49.8009C92.0573 50.2281 92.7371 50.7083 92.7725 51.4232C92.7954 51.8787 92.5376 52.2971 92.2868 52.6784C90.9642 54.6856 89.5251 56.6946 88.2183 58.7566V80.7618C89.2213 81.7963 90.3638 82.6913 91.637 83.3728C90.2738 85.6042 89.1366 87.9715 88.2183 90.4201V106.476C88.2183 116.186 91.8613 115.781 91.8613 115.781C115.737 121.04 114.12 103.644 122.213 99.5982C130.307 95.552 132.329 102.026 144.876 99.5982C157.42 97.1709 154.992 88.2699 154.992 88.2699C154.992 88.2699 163.087 93.1246 167.943 77.7519C172.799 62.3773 161.468 57.9286 161.468 57.9286V57.9304Z" fill="#E79BC2"/>
<path d="M97.2613 105.221C96.7209 105.221 96.2424 104.863 96.0941 104.338C95.9404 103.8 96.1753 103.226 96.6609 102.951C97.2825 102.598 97.9199 102.285 98.561 101.969L99.013 101.747C99.5375 101.484 100.177 101.644 100.523 102.107C104.713 100.543 108.45 96.5653 112.087 92.6904C114.784 89.8216 117.328 87.1118 120.074 85.2935C127.201 80.5817 135.248 80.8677 144.683 86.1832C145.269 86.5134 145.474 87.253 145.146 87.8356C144.816 88.4235 144.067 88.623 143.493 88.2981C134.805 83.4081 127.789 83.0991 121.418 87.3184C118.907 88.9796 116.456 91.5905 113.862 94.3516C108.958 99.5718 103.887 104.972 97.309 105.217H97.263L97.2613 105.221Z" fill="#BF1B67"/>
<path d="M156.26 73.7621C155.942 73.7621 155.623 73.6368 155.386 73.3897C153.601 71.5343 153.327 68.895 153.297 66.3211C153.276 64.4905 153.32 62.5574 154.079 60.7761C155.008 58.5783 156.936 57.1095 158.985 57.03C159.613 57.0971 160.217 57.5296 160.244 58.1987C160.267 58.8678 159.746 59.4309 159.075 59.4574C157.81 59.5051 156.777 60.6279 156.313 61.7241C155.739 63.0746 155.706 64.6564 155.725 66.2929C155.748 68.2277 155.877 70.3991 157.136 71.7073C157.6 72.191 157.586 72.9589 157.102 73.4232C156.868 73.6509 156.564 73.7621 156.26 73.7621Z" fill="#BF1B67"/>
<path d="M124.597 85.2405C123.934 85.2405 123.394 84.7092 123.382 84.0454C123.329 80.8448 124.92 77.7042 127.533 75.8488C128.079 75.4604 128.838 75.5875 129.227 76.133C129.615 76.6803 129.488 77.4394 128.942 77.826C127 79.2065 125.773 81.6304 125.81 84.0083C125.819 84.6774 125.285 85.2299 124.614 85.2405H124.595H124.597Z" fill="#BF1B67"/>
<path d="M146.041 71.1353C145.534 71.1353 145.061 70.8158 144.892 70.3073C144.678 69.6718 145.02 68.9851 145.654 68.7715C148.499 67.8146 151.079 66.1411 153.113 63.9255C153.569 63.433 154.339 63.4048 154.828 63.8514C155.324 64.3033 155.354 65.073 154.902 65.5656C152.592 68.0812 149.661 69.9843 146.428 71.07C146.299 71.1159 146.17 71.1335 146.041 71.1335V71.1353Z" fill="#BF1B67"/>
<path d="M119.311 64.2804C116.795 64.2804 114.097 64.0544 111.483 63.3306C111.316 63.3465 111.139 63.3165 110.97 63.2494L109.499 62.6739C108.875 62.4303 108.566 61.7259 108.812 61.1027C109.055 60.4743 109.758 60.1689 110.383 60.4125C114.711 62.1019 119.488 61.9907 123.59 61.6624C126.924 61.3923 130.339 60.8609 132.723 58.8148C134.522 57.2719 135.557 55.0405 136.652 52.6802C137.505 50.8389 138.39 48.9323 139.691 47.2782C143.129 42.9124 149.456 41.0129 154.734 42.7606C155.37 42.9725 155.716 43.6592 155.504 44.2947C155.292 44.9302 154.605 45.278 153.97 45.0644C149.626 43.6309 144.424 45.1898 141.596 48.7823C140.47 50.2122 139.686 51.907 138.852 53.7041C137.697 56.195 136.502 58.7725 134.3 60.6614C131.388 63.1558 127.526 63.7808 123.781 64.0827C122.405 64.1939 120.892 64.2839 119.306 64.2839L119.311 64.2804Z" fill="#BF1B67"/>
<path d="M91.9301 34.8747C91.3139 34.8747 90.7841 34.4051 90.7241 33.7767C90.5175 31.6176 91.305 29.3368 92.9438 27.3543C94.36 25.6437 96.1417 24.4132 97.8493 23.2975C98.6651 22.7661 99.4898 22.2418 100.32 21.7193C105.005 18.7517 109.85 15.6817 112.654 11.0829C113.249 10.1067 113.753 9.06337 114.238 8.05534C114.528 7.45159 115.262 7.19738 115.857 7.48866C116.461 7.77995 116.716 8.50551 116.424 9.1075C115.935 10.1191 115.384 11.2665 114.727 12.3434C111.628 17.4277 106.539 20.6512 101.619 23.7688C100.798 24.2879 99.9807 24.8069 99.1772 25.3312C97.6268 26.3427 96.0146 27.4531 94.8173 28.899C93.6112 30.3589 92.9985 32.0519 93.1433 33.5436C93.2069 34.2127 92.716 34.8041 92.0502 34.8694C92.0096 34.8712 91.9725 34.8747 91.9319 34.8747H91.9301Z" fill="#BF1B67"/>
<path d="M109.606 16.6403C109.204 16.6403 108.806 16.4391 108.577 16.0683C106.929 13.4291 105.746 10.5516 105.063 7.51868C104.916 6.86373 105.328 6.21761 105.983 6.06755C106.626 5.92809 107.288 6.33236 107.434 6.98731C108.056 9.75363 109.135 12.3787 110.636 14.7831C110.991 15.3516 110.818 16.1019 110.249 16.4549C110.05 16.5803 109.827 16.6403 109.606 16.6403Z" fill="#BF1B67"/>
<path d="M114.729 50.8866C114.681 50.8866 114.634 50.8848 114.584 50.8795C113.936 50.8018 113.375 50.4858 112.965 49.9615C112.082 48.8388 112.211 47.1617 112.273 46.6762C113.202 39.2193 117.413 32.1614 123.539 27.7992C124.085 27.4108 124.844 27.5379 125.232 28.0834C125.621 28.6289 125.494 29.388 124.948 29.7764C119.368 33.752 115.529 40.1814 114.683 46.9745C114.586 47.7637 114.766 48.3727 114.892 48.4804C115.557 48.5581 116.023 49.1565 115.944 49.8203C115.873 50.4382 115.34 50.8866 114.729 50.8866Z" fill="#BF1B67"/>
<path d="M92.6118 92.8616H92.5588C91.8878 92.8316 91.3686 92.2649 91.3969 91.5958C91.5628 87.7809 92.8643 84.342 95.0628 81.9128C97.6444 79.0582 101.526 77.683 104.966 78.4068C105.621 78.5445 106.039 79.1889 105.902 79.8456C105.762 80.5023 105.121 80.9295 104.462 80.7812C101.868 80.234 98.8788 81.3161 96.8657 83.5387C95.0451 85.5512 93.9662 88.45 93.8267 91.7C93.7984 92.3514 93.2598 92.8616 92.6118 92.8616Z" fill="#BF1B67"/>
<path d="M116.297 76.5196C111.937 76.5196 107.526 75.1321 103.798 72.5299C99.322 69.4017 95.9528 64.644 94.3088 59.1273C94.1198 58.4847 94.4836 57.8086 95.1263 57.6179C95.7779 57.4325 96.4419 57.7962 96.6361 58.4353C98.123 63.4277 101.16 67.7246 105.186 70.5386C109.405 73.485 114.588 74.6819 119.396 73.8186C120.034 73.7092 120.685 74.1382 120.805 74.8002C120.924 75.4587 120.482 76.0889 119.824 76.2089C118.662 76.4173 117.478 76.5196 116.295 76.5196H116.297Z" fill="#BF1B67"/>
<path d="M132.483 61.966C132.289 61.966 132.094 61.9201 131.911 61.823C131.321 61.507 131.095 60.7726 131.411 60.1795C132.539 58.0645 132.089 55.4695 131.612 52.7243C131.494 52.027 131.372 51.3368 131.28 50.6571C130.844 47.4847 131.003 44.2947 131.75 41.1753C131.904 40.5239 132.55 40.1126 133.212 40.2768C133.864 40.4339 134.268 41.0871 134.111 41.7385C133.442 44.526 133.295 47.4936 133.684 50.3252C133.774 50.9801 133.89 51.6404 134.003 52.3095C134.53 55.3388 135.073 58.4706 133.553 61.3216C133.334 61.7312 132.916 61.9642 132.481 61.9642L132.483 61.966Z" fill="#BF1B67"/>
<path d="M140.071 117.374C139.53 117.374 139.038 117.012 138.895 116.463C138.729 115.813 139.117 115.151 139.767 114.983C141.349 114.576 143.041 114.196 144.789 113.802C155.208 111.46 167.014 108.803 169.227 97.7658C169.359 97.1073 170.014 96.6818 170.657 96.816C171.314 96.9484 171.741 97.5857 171.607 98.246C169.087 110.826 155.91 113.79 145.322 116.171C143.599 116.558 141.932 116.934 140.374 117.335C140.272 117.361 140.171 117.372 140.071 117.372V117.374Z" fill="#BF1B67"/>
<path d="M116.788 169.494C116.2 169.494 115.686 169.067 115.591 168.469C115.487 167.807 115.942 167.187 116.603 167.081C117.971 166.867 119.384 166.687 120.814 166.505C126.036 165.836 131.438 165.148 135.785 162.669C140.848 159.781 144.929 155.013 147.581 148.875C149.952 143.393 153.611 137.119 160.917 137.119H161.063C161.734 137.126 162.269 137.677 162.262 138.348C162.255 139.013 161.711 139.547 161.047 139.547C161.01 139.548 160.963 139.547 160.963 139.547C155.056 139.547 152.013 144.742 149.808 149.837C146.943 156.461 142.509 161.628 136.984 164.779C132.218 167.494 126.574 168.214 121.118 168.912C119.709 169.092 118.321 169.27 116.973 169.48C116.91 169.489 116.848 169.494 116.784 169.494H116.788Z" fill="#BF1B67"/>
<path d="M159.433 111.885C159.433 111.885 159.396 111.885 159.377 111.883C154.349 111.65 150.488 110.212 147.57 107.486C147.079 107.029 147.053 106.261 147.51 105.772C147.971 105.283 148.741 105.258 149.225 105.712C151.706 108.026 155.063 109.251 159.49 109.46C160.159 109.49 160.678 110.056 160.645 110.727C160.616 111.377 160.078 111.883 159.433 111.883V111.885Z" fill="#BF1B67"/>
<path d="M125.842 151.895C125.201 151.895 124.667 151.397 124.63 150.753C124.59 150.084 125.102 149.509 125.771 149.471C129.515 149.251 132.621 145.302 133.643 141.699C135.533 135.038 138.81 130.434 143.961 127.21C151.086 122.756 160.35 121.616 168.75 124.172C169.393 124.368 169.753 125.046 169.559 125.687C169.364 126.328 168.693 126.695 168.044 126.495C160.306 124.142 151.787 125.18 145.252 129.269C140.578 132.194 137.72 136.231 135.983 142.364C134.701 146.882 130.83 151.608 125.914 151.895H125.843H125.842Z" fill="#BF1B67"/>
<path d="M157.975 159.04C157.705 159.04 157.434 158.95 157.208 158.768C156.46 158.159 149.801 152.937 146.574 156.77C146.144 157.283 145.375 157.349 144.865 156.92C144.351 156.489 144.284 155.723 144.715 155.211C148.303 150.949 154.508 153.442 158.741 156.886C159.26 157.308 159.341 158.074 158.916 158.593C158.676 158.89 158.326 159.042 157.975 159.042V159.04Z" fill="#BF1B67"/>
<path d="M116.652 135.735C116.509 135.735 116.368 135.712 116.228 135.659C111.07 133.732 106.723 129.551 104.6 124.472C104.342 123.854 104.634 123.143 105.25 122.883C105.873 122.627 106.58 122.913 106.839 123.533C108.709 128.005 112.538 131.687 117.078 133.382C117.706 133.617 118.026 134.316 117.791 134.944C117.609 135.433 117.143 135.733 116.652 135.733V135.735Z" fill="#BF1B67"/>
<path d="M121.439 132.335C121.217 132.335 120.991 132.273 120.788 132.146C118.994 131.006 118.919 128.617 118.895 127.832C118.61 118.459 124.026 109.294 132.377 105.025C132.974 104.727 133.703 104.956 134.01 105.553C134.316 106.149 134.079 106.88 133.482 107.186C125.951 111.036 121.065 119.301 121.323 127.754C121.36 129.007 121.619 129.797 122.091 130.097C122.656 130.455 122.824 131.205 122.463 131.77C122.234 132.136 121.84 132.335 121.439 132.335Z" fill="#BF1B67"/>
<path d="M140.422 131.629C140.422 131.629 140.352 131.627 140.316 131.624L138.842 131.512C136.193 131.324 133.191 131.11 130.74 129.992C128.787 129.103 127.456 127.502 127.18 125.704C127.078 125.042 127.533 124.425 128.197 124.322C128.866 124.22 129.477 124.673 129.58 125.339C129.758 126.495 130.816 127.359 131.745 127.782C133.8 128.716 136.571 128.916 139.015 129.089L140.525 129.205C141.19 129.262 141.687 129.849 141.63 130.519C141.575 131.152 141.047 131.627 140.424 131.627L140.422 131.629Z" fill="#BF1B67"/>
<path d="M102.015 178.072C102.015 178.072 101.92 178.07 101.872 178.065C101.208 177.987 100.729 177.385 100.805 176.718C102.084 165.619 103.405 154.141 95.2976 144.671C94.8615 144.161 94.9197 143.397 95.4301 142.961C95.9422 142.525 96.7085 142.587 97.1412 143.093C105.935 153.369 104.492 165.921 103.219 176.999C103.149 177.617 102.622 178.072 102.015 178.072Z" fill="#BF1B67"/>
<path d="M116.656 160.51C116.468 160.51 116.278 160.468 116.101 160.374C112.278 158.406 107.982 157.347 103.678 157.313C103.007 157.308 102.469 156.761 102.474 156.09C102.479 155.419 103.074 154.916 103.698 154.886C108.381 154.923 113.055 156.074 117.212 158.217C117.809 158.522 118.044 159.255 117.736 159.85C117.521 160.27 117.095 160.509 116.657 160.509L116.656 160.51Z" fill="#BF1B67"/>
<path d="M130.334 180.111C130.293 180.111 130.253 180.109 130.216 180.106C129.546 180.039 129.059 179.447 129.122 178.78C129.585 174.022 130.761 169.381 132.621 164.984C132.884 164.362 133.601 164.08 134.212 164.336C134.83 164.597 135.119 165.31 134.86 165.926C133.096 170.098 131.98 174.501 131.542 179.011C131.48 179.64 130.952 180.109 130.336 180.109L130.334 180.111Z" fill="#BF1B67"/>
<path d="M113.172 193.369C108.24 193.369 103.308 191.992 99.1913 189.259C98.8576 189.236 98.5327 189.088 98.3137 188.832C97.9146 188.364 97.934 187.499 98.3508 187.047C98.7675 186.599 99.5321 186.53 100.025 186.888C107.295 192.04 117.655 192.324 125.204 187.575C125.771 187.217 126.523 187.388 126.878 187.955C127.237 188.523 127.065 189.273 126.498 189.628C122.524 192.13 117.846 193.369 113.17 193.369H113.172Z" fill="#BF1B67"/>
<path d="M2.98605 119.423C-3.48933 108.905 2.58167 97.1726 2.58167 97.1726C2.58167 87.8674 11.4851 76.5391 11.4851 76.5391L87.1606 102.027C87.1606 102.027 87.1765 105.221 87.1994 110.339C85.4053 110.266 83.6307 110.994 82.8855 112.6C85.3736 113.961 86.6132 116.465 87.2365 119.287C87.256 124.075 87.2754 129.521 87.293 135.241C86.8851 137.968 86.1505 140.606 84.7802 142.998C85.8044 144.61 86.615 146.334 87.3248 148.102C87.3425 157.013 87.3478 165.764 87.3284 172.901C86.9664 173.791 86.622 174.688 86.177 175.541C85.7214 176.414 85.2129 177.311 85.1917 178.296C85.1687 179.318 85.6738 180.27 86.1664 181.167C86.5337 181.838 86.9028 182.51 87.2701 183.181C87.2436 185.796 87.2065 187.704 87.1606 188.604C86.7562 196.291 80.6852 197.505 80.6852 197.505C55.1899 214.901 37.3848 191.842 37.3848 191.842C23.6253 191.438 18.3648 174.446 18.3648 174.446C3.79657 165.545 6.22462 146.53 6.22462 146.53C-5.10684 134.394 2.98605 119.423 2.98605 119.423Z" fill="#DF659D"/>
<path d="M15.5324 57.9304C8.2483 40.9388 25.2446 31.2293 25.2446 31.2293C30.5051 10.1914 49.9312 10.5957 49.9312 10.5957C49.9312 10.5957 45.8839 8.16833 66.1187 1.69474C86.3536 -4.77884 88.7817 9.38113 88.7817 9.38113V46.1307C87.9411 47.5289 86.8887 48.784 85.5184 49.8009C84.9427 50.2281 84.2629 50.7083 84.2275 51.4232C84.2046 51.8787 84.4624 52.2971 84.7132 52.6784C86.0358 54.6856 87.4749 56.6946 88.7817 58.7566V80.7618C87.7787 81.7963 86.6362 82.6913 85.363 83.3728C86.7262 85.6042 87.8634 87.9715 88.7817 90.4201V106.476C88.7817 116.186 85.1387 115.781 85.1387 115.781C61.2627 121.04 62.8802 103.644 54.7873 99.5982C46.6926 95.552 44.6707 102.026 32.1244 99.5982C19.5798 97.1709 22.0078 88.2699 22.0078 88.2699C22.0078 88.2699 13.9132 93.1246 9.05706 77.7519C4.20097 62.3773 15.5324 57.9286 15.5324 57.9286V57.9304Z" fill="#E79BC2"/>
<path d="M79.7387 105.221C80.2791 105.221 80.7576 104.863 80.906 104.338C81.0596 103.8 80.8247 103.226 80.3391 102.951C79.7175 102.598 79.0801 102.285 78.4391 101.969L77.987 101.747C77.4625 101.484 76.8233 101.644 76.4772 102.107C72.2868 100.543 68.5503 96.5653 64.9127 92.6904C62.2162 89.8216 59.6716 87.1118 56.9257 85.2935C49.7987 80.5817 41.7518 80.8677 32.3168 86.1832C31.7306 86.5134 31.5257 87.253 31.8542 87.8356C32.1844 88.4235 32.9331 88.623 33.507 88.2981C42.195 83.4081 49.2107 83.0991 55.5819 87.3184C58.0929 88.9796 60.5439 91.5905 63.138 94.3516C68.0417 99.5718 73.1133 104.972 79.6911 105.217H79.737L79.7387 105.221Z" fill="#BF1B67"/>
<path d="M20.7381 73.7621C21.0559 73.7621 21.3756 73.6368 21.6122 73.3897C23.3975 71.5343 23.6712 68.895 23.7012 66.3211C23.7224 64.4905 23.6782 62.5574 22.9189 60.7761C21.9901 58.5783 20.0618 57.1095 18.0134 57.03C17.3847 57.0971 16.7808 57.5296 16.7543 58.1987C16.7314 58.8678 17.2523 59.4309 17.9233 59.4574C19.1877 59.5051 20.2207 60.6279 20.6851 61.7241C21.259 63.0746 21.2926 64.6564 21.2731 66.2929C21.2502 68.2277 21.1213 70.3991 19.8622 71.7073C19.3978 72.191 19.4119 72.9589 19.8958 73.4232C20.1306 73.6509 20.4344 73.7621 20.7381 73.7621Z" fill="#BF1B67"/>
<path d="M52.4034 85.2405C53.0655 85.2405 53.6059 84.7092 53.6183 84.0454C53.6712 80.8448 52.0802 77.7042 49.4667 75.8488C48.9211 75.4604 48.1618 75.5875 47.7733 76.133C47.3848 76.6803 47.5119 77.4394 48.0576 77.826C50 79.2065 51.2273 81.6304 51.1902 84.0083C51.1814 84.6774 51.7147 85.2299 52.3857 85.2405H52.4051H52.4034Z" fill="#BF1B67"/>
<path d="M30.9589 71.1353C31.4657 71.1353 31.9389 70.8158 32.1085 70.3073C32.3221 69.6718 31.9795 68.9851 31.3456 68.7715C28.5008 67.8146 25.9209 66.1411 23.8867 63.9255C23.4311 63.433 22.6612 63.4048 22.172 63.8514C21.6758 64.3033 21.6458 65.073 22.0978 65.5656C24.4076 68.0812 27.3389 69.9843 30.5722 71.07C30.7011 71.1159 30.83 71.1335 30.9589 71.1335V71.1353Z" fill="#BF1B67"/>
<path d="M57.6885 64.2804C60.2049 64.2804 62.9031 64.0544 65.5166 63.3306C65.6843 63.3465 65.8609 63.3165 66.0304 63.2494L67.5014 62.6739C68.1247 62.4303 68.4337 61.7259 68.1883 61.1027C67.9446 60.4743 67.2418 60.1689 66.6167 60.4125C62.2886 62.1019 57.512 61.9907 53.4099 61.6624C50.076 61.3923 46.6608 60.8609 44.2769 58.8148C42.4775 57.2719 41.4427 55.0405 40.3479 52.6802C39.495 50.8389 38.6103 48.9323 37.3089 47.2782C33.8708 42.9124 27.5437 41.0129 22.2656 42.7606C21.6299 42.9725 21.2838 43.6592 21.4957 44.2947C21.7076 44.9302 22.3945 45.278 23.0302 45.0644C27.3742 43.6309 32.5764 45.1898 35.4035 48.7823C36.5301 50.2122 37.3142 51.907 38.1476 53.7041C39.3025 56.195 40.498 58.7725 42.7 60.6614C45.6119 63.1558 49.4738 63.7808 53.2192 64.0827C54.5948 64.1939 56.1081 64.2839 57.6938 64.2839L57.6885 64.2804Z" fill="#BF1B67"/>
<path d="M85.068 34.8747C85.6843 34.8747 86.214 34.4051 86.2741 33.7767C86.4807 31.6176 85.6931 29.3368 84.0544 27.3543C82.6382 25.6437 80.8565 24.4132 79.1489 23.2975C78.3331 22.7661 77.5084 22.2418 76.6785 21.7193C71.9937 18.7517 67.1482 15.6817 64.344 11.0829C63.7489 10.1067 63.2456 9.06337 62.76 8.05534C62.4704 7.45159 61.7358 7.19738 61.1407 7.48866C60.5368 7.77995 60.2825 8.50551 60.5739 9.1075C61.063 10.1191 61.614 11.2665 62.2709 12.3434C65.37 17.4277 70.4591 20.6512 75.3788 23.7688C76.1999 24.2879 77.0175 24.8069 77.821 25.3312C79.3714 26.3427 80.9836 27.4531 82.1808 28.899C83.3869 30.3589 83.9997 32.0519 83.8549 33.5436C83.7913 34.2127 84.2822 34.8041 84.9479 34.8694C84.9885 34.8712 85.0256 34.8747 85.0662 34.8747H85.068Z" fill="#BF1B67"/>
<path d="M67.3936 16.6403C67.7962 16.6403 68.1936 16.4391 68.4231 16.0683C70.0707 13.4291 71.2538 10.5516 71.9372 7.51868C72.0837 6.86373 71.6723 6.21761 71.0172 6.06755C70.3744 5.92809 69.7122 6.33236 69.5656 6.98731C68.944 9.75363 67.8651 12.3787 66.3641 14.7831C66.0092 15.3516 66.1823 16.1019 66.7509 16.4549C66.9504 16.5803 67.1729 16.6403 67.3936 16.6403Z" fill="#BF1B67"/>
<path d="M62.2692 50.8866C62.3169 50.8866 62.3645 50.8848 62.414 50.8795C63.0621 50.8018 63.6236 50.4858 64.0333 49.9615C64.9162 48.8388 64.7873 47.1617 64.7255 46.6762C63.7966 39.2193 59.5851 32.1614 53.4594 27.7992C52.9137 27.4108 52.1544 27.5379 51.7659 28.0834C51.3774 28.6289 51.5046 29.388 52.0502 29.7764C57.6303 33.752 61.4693 40.1814 62.3151 46.9745C62.4122 47.7637 62.2321 48.3727 62.1067 48.4804C61.441 48.5581 60.9748 49.1565 61.0543 49.8203C61.1249 50.4382 61.6582 50.8866 62.2692 50.8866Z" fill="#BF1B67"/>
<path d="M84.3882 92.8616H84.4235C85.1104 92.8316 85.6296 92.2649 85.6014 91.5958C85.4354 87.7809 84.1339 84.342 81.9354 81.9128C79.3538 79.0582 75.4724 77.683 72.0326 78.4068C71.3774 78.5445 70.9589 79.1889 71.0967 79.8456C71.2362 80.5023 71.8772 80.9295 72.5358 80.7812C75.1299 80.234 78.1194 81.3161 80.1325 83.5387C81.9531 85.5512 83.032 88.45 83.1715 91.7C83.1998 92.3514 83.7384 92.8616 84.3864 92.8616H84.3882Z" fill="#BF1B67"/>
<path d="M60.7028 76.5196C65.0627 76.5196 69.4738 75.1321 73.2015 72.5299C77.6779 69.4017 81.0472 64.644 82.6912 59.1273C82.8801 58.4847 82.5164 57.8086 81.8736 57.6179C81.222 57.4325 80.558 57.7962 80.3638 58.4353C78.8769 63.4277 75.8397 67.7246 71.8135 70.5386C67.5949 73.485 62.4122 74.6819 57.6037 73.8186C56.9663 73.7092 56.3147 74.1382 56.1946 74.8002C56.0763 75.4587 56.5177 76.0889 57.1764 76.2089C58.3383 76.4173 59.5215 76.5196 60.7046 76.5196H60.7028Z" fill="#BF1B67"/>
<path d="M44.517 61.966C44.7113 61.966 44.9055 61.9201 45.0892 61.823C45.679 61.507 45.905 60.7726 45.5889 60.1795C44.4605 58.0645 44.9108 55.4695 45.3876 52.7243C45.5059 52.027 45.6278 51.3368 45.7196 50.6571C46.1558 47.4847 45.9968 44.2947 45.2499 41.1753C45.0962 40.5239 44.4499 40.1126 43.786 40.2768C43.1344 40.4339 42.73 41.0871 42.8872 41.7385C43.5564 44.526 43.703 47.4936 43.3145 50.3252C43.2244 50.9801 43.1079 51.6404 42.9949 52.3095C42.4687 55.3388 41.9248 58.4706 43.4452 61.3216C43.6641 61.7312 44.0826 61.9642 44.517 61.9642V61.966Z" fill="#BF1B67"/>
<path d="M36.9292 117.374C37.4695 117.374 37.9622 117.012 38.1053 116.463C38.2712 115.813 37.8828 115.151 37.2329 114.983C35.6507 114.576 33.959 114.196 32.2108 113.802C21.7923 111.46 9.98586 108.803 7.77325 97.7658C7.64081 97.1073 6.98568 96.6818 6.34291 96.816C5.68601 96.9484 5.25867 97.5857 5.39288 98.246C7.91275 110.826 21.0895 113.79 31.6776 116.171C33.401 116.558 35.068 116.934 36.6255 117.335C36.7279 117.361 36.8285 117.372 36.9292 117.372V117.374Z" fill="#BF1B67"/>
<path d="M60.2119 169.494C60.7999 169.494 61.3138 169.067 61.4092 168.469C61.5134 167.807 61.0578 167.187 60.3973 167.081C59.0288 166.867 57.6161 166.687 56.1858 166.505C50.9642 165.836 45.5624 165.148 41.2149 162.669C36.1522 159.781 32.0713 155.013 29.419 148.875C27.0475 143.393 23.3886 137.119 16.0833 137.119H15.9368C15.2657 137.126 14.7307 137.677 14.7377 138.348C14.7448 139.013 15.2887 139.547 15.9526 139.547H16.0816C21.9459 139.547 24.9885 144.742 27.1923 149.837C30.0565 156.461 34.4905 161.628 40.0159 164.779C44.7819 167.494 50.4256 168.214 55.882 168.912C57.2912 169.092 58.6792 169.27 60.0265 169.48C60.0901 169.489 60.1519 169.494 60.2154 169.494H60.2119Z" fill="#BF1B67"/>
<path d="M17.5667 111.885C17.5667 111.885 17.6038 111.885 17.6232 111.883C22.6506 111.65 26.5125 110.212 29.4297 107.486C29.9206 107.029 29.947 106.261 29.4897 105.772C29.0306 105.283 28.2589 105.258 27.7751 105.712C25.294 108.026 21.9372 109.251 17.5102 109.46C16.8409 109.49 16.3217 110.056 16.3553 110.727C16.3836 111.377 16.9221 111.883 17.5667 111.883V111.885Z" fill="#BF1B67"/>
<path d="M51.1584 151.895C51.7994 151.895 52.3327 151.397 52.3698 150.753C52.4104 150.084 51.8983 149.509 51.2291 149.471C47.4855 149.251 44.3793 145.302 43.3569 141.699C41.4674 135.038 38.19 130.434 33.039 127.21C25.9138 122.756 16.6502 121.616 8.25003 124.172C7.60726 124.368 7.24703 125.046 7.44127 125.687C7.63552 126.328 8.30654 126.695 8.95637 126.495C16.6943 124.142 25.2128 125.18 31.7482 129.269C36.4224 132.194 39.2795 136.231 41.0171 142.364C42.2992 146.882 46.1699 151.608 51.086 151.895C51.109 151.897 51.1337 151.897 51.1567 151.897L51.1584 151.895Z" fill="#BF1B67"/>
<path d="M19.0235 159.04C19.2937 159.04 19.5639 158.95 19.7899 158.768C20.5386 158.159 27.1976 152.937 30.4238 156.77C30.8547 157.283 31.6228 157.349 32.1332 156.92C32.647 156.489 32.7141 155.723 32.2833 155.211C28.6951 150.949 22.4899 153.442 18.2571 156.886C17.738 157.308 17.6567 158.074 18.0823 158.593C18.3225 158.89 18.6721 159.042 19.0235 159.042V159.04Z" fill="#BF1B67"/>
<path d="M60.3462 135.735C60.4892 135.735 60.6305 135.712 60.77 135.659C65.928 133.732 70.2755 129.551 72.3981 124.472C72.6559 123.854 72.3645 123.143 71.7483 122.883C71.1249 122.627 70.4186 122.913 70.159 123.533C68.289 128.005 64.4606 131.687 59.9206 133.382C59.2919 133.617 58.9723 134.316 59.2072 134.944C59.3891 135.433 59.8553 135.733 60.3462 135.733V135.735Z" fill="#BF1B67"/>
<path d="M55.5589 132.335C55.7814 132.335 56.0074 132.273 56.2105 132.146C58.0046 131.006 58.0788 128.617 58.1035 127.832C58.3878 118.459 52.9719 109.294 44.6212 105.025C44.0244 104.727 43.2951 104.956 42.9878 105.553C42.6823 106.149 42.9189 106.88 43.5158 107.186C51.0471 111.036 55.9333 119.301 55.6754 127.754C55.6384 129.007 55.3788 129.797 54.9073 130.097C54.3422 130.455 54.1745 131.205 54.5347 131.77C54.7643 132.136 55.1581 132.335 55.5589 132.335Z" fill="#BF1B67"/>
<path d="M36.5778 131.629C36.6131 131.629 36.6484 131.627 36.6837 131.624L38.1582 131.512C40.807 131.324 43.8089 131.11 46.2599 129.992C48.213 129.103 49.5444 127.502 49.8199 125.704C49.9223 125.042 49.4667 124.425 48.8027 124.322C48.1335 124.22 47.5225 124.673 47.4201 125.339C47.2417 126.495 46.184 127.359 45.2552 127.782C43.1997 128.716 40.4291 128.916 37.9851 129.089L36.4753 129.205C35.8096 129.262 35.3134 129.849 35.3699 130.519C35.4247 131.152 35.9527 131.627 36.576 131.627L36.5778 131.629Z" fill="#BF1B67"/>
<path d="M74.9833 178.072C75.0309 178.072 75.0786 178.07 75.1263 178.065C75.7902 177.987 76.2688 177.385 76.1929 176.718C74.9144 165.619 73.5935 154.141 81.7006 144.671C82.1367 144.161 82.0767 143.397 81.5681 142.961C81.056 142.525 80.2896 142.587 79.857 143.093C71.0631 153.369 72.5058 165.921 73.7789 176.999C73.8496 177.617 74.3758 178.072 74.9833 178.072Z" fill="#BF1B67"/>
<path d="M60.3444 160.51C60.5316 160.51 60.7223 160.468 60.8989 160.374C64.7219 158.406 69.0183 157.347 73.3216 157.313C73.9927 157.308 74.5312 156.761 74.5259 156.09C74.5206 155.419 73.9255 154.916 73.3022 154.886C68.6192 154.923 63.945 156.074 59.7881 158.217C59.1913 158.522 58.9564 159.255 59.2637 159.85C59.4791 160.27 59.9047 160.509 60.3426 160.509L60.3444 160.51Z" fill="#BF1B67"/>
<path d="M46.6643 180.111L46.7826 180.106C47.4519 180.039 47.9393 179.447 47.8757 178.78C47.413 174.022 46.237 169.381 44.3775 164.984C44.1144 164.362 43.3975 164.08 42.7865 164.336C42.1685 164.597 41.8789 165.31 42.1384 165.926C43.9025 170.098 45.0185 174.501 45.4565 179.011C45.5183 179.64 46.0463 180.109 46.6625 180.109L46.6643 180.111Z" fill="#BF1B67"/>
<path d="M63.8284 193.369C68.7604 193.369 73.6924 191.992 77.8086 189.259C78.1424 189.236 78.4673 189.088 78.6863 188.832C79.0854 188.364 79.0659 187.499 78.6492 187.047C78.2324 186.599 77.4678 186.53 76.9752 186.888C69.7052 192.04 59.3449 192.324 51.7959 187.575C51.2291 187.217 50.4768 187.388 50.1219 187.955C49.7634 188.523 49.9347 189.273 50.5015 189.628C54.4765 192.13 59.1542 193.369 63.8302 193.369H63.8284Z" fill="#BF1B67"/>
<g clip-path="url(#clip1_5032_37158)">
<path d="M90.0064 138.509C110.181 138.509 126.536 122.163 126.536 102C126.536 81.8365 110.181 65.4908 90.0064 65.4908C69.8316 65.4908 53.4766 81.8365 53.4766 102C53.4766 122.163 69.8316 138.509 90.0064 138.509Z" fill="#F7E4A1"/>
<path d="M104.793 101.131C107.435 101.131 109.576 98.0173 109.576 94.1768C109.576 90.3363 107.435 87.223 104.793 87.223C102.152 87.223 100.01 90.3363 100.01 94.1768C100.01 98.0173 102.152 101.131 104.793 101.131Z" fill="#37374F"/>
<path d="M73.7708 101.131C76.4124 101.131 78.5538 98.0173 78.5538 94.1768C78.5538 90.3363 76.4124 87.223 73.7708 87.223C71.1293 87.223 68.9879 90.3363 68.9879 94.1768C68.9879 98.0173 71.1293 101.131 73.7708 101.131Z" fill="#37374F"/>
<path d="M90.0064 121.993C80.9129 121.993 76.5829 114.506 75.5646 110.546C75.3261 109.616 75.8855 108.667 76.8169 108.429C77.7513 108.192 78.6917 108.75 78.9332 109.675C79.0321 110.05 81.3734 118.514 90.0064 118.514C98.6394 118.514 100.988 110.3 101.083 109.951C101.335 109.027 102.287 108.476 103.212 108.726C104.138 108.975 104.69 109.921 104.444 110.847C103.422 114.702 99.0908 121.992 90.0064 121.992V121.993Z" fill="#37374F"/>
</g>
</g>
<defs>
<clipPath id="clip0_5032_37158">
<rect width="177" height="204" fill="white"/>
</clipPath>
<clipPath id="clip1_5032_37158">
<rect width="73.0596" height="73.0184" fill="white" transform="translate(53.4766 65.4908)"/>
</clipPath>
</defs>
</svg>
