<svg width="232" height="210" viewBox="0 0 232 210" fill="none" xmlns="http://www.w3.org/2000/svg">
<g clip-path="url(#clip0_1578_12269)">
<path d="M148.803 86.6421C139.252 94.2979 149.895 113.872 161.286 106.65C161.639 106.425 161.904 106.16 162.113 105.87C166.539 101.865 166.957 95.4559 164.595 90.1001C161.72 83.5943 153.984 82.4926 148.811 86.6341L148.803 86.6421ZM151.542 91.9497C153.663 87.7599 158.049 89.7302 159.832 92.8826C161.455 95.7535 160.651 99.5814 158.482 101.897C152.827 105.452 149.397 96.1636 151.534 91.9497H151.542Z" fill="white"/>
<path d="M157.334 134.788C157.679 134.571 157.936 134.314 158.137 134.032C162.684 129.987 163.31 123.522 160.932 118.029C158.041 111.346 150.08 110.607 144.907 114.74C135.106 122.565 145.662 142.227 157.342 134.788H157.334ZM147.566 120.104C149.767 115.922 154.289 117.442 156.177 120.812C157.84 123.779 156.779 127.687 154.546 130.028C148.65 133.775 145.228 124.543 147.566 120.104Z" fill="white"/>
<path d="M162.41 152.513C157.454 143.763 147.855 142.171 138.978 145.983C129.724 149.947 126.519 161.23 130.809 170.18C132.913 174.571 136.078 177.788 140.681 179.461C145.172 181.093 150.859 179.01 154.932 177.145C164.186 172.89 166.628 162.203 162.732 153.429C162.675 153.132 162.579 152.826 162.41 152.513ZM153.197 171.829C152.763 172.094 152.321 172.328 151.879 172.553C152.932 171.137 153.614 169.408 153.823 167.543C154.53 161.109 153.14 155.81 147.397 152.505C146.433 151.95 145.525 153.212 146.248 154C149.325 157.386 150.682 160.168 150.843 164.784C150.98 168.845 149.309 173.059 145.14 174.193C145.091 174.209 145.067 174.233 145.027 174.25C141.541 174.161 138.352 172.456 136.183 168.677C132.68 162.565 134.504 154.274 140.818 151.154C143.204 149.971 145.895 149.811 148.497 149.585C152.803 149.215 155.663 151.773 157.663 155.303C157.719 155.4 157.791 155.48 157.848 155.568C160.466 161.769 159.133 168.258 153.197 171.837V171.829Z" fill="white"/>
<path d="M135.821 104.222C136.825 97.4265 138.657 90.0522 138.215 83.1604C137.669 74.7085 130.479 69.7225 123.459 66.4415C114.743 62.3643 105.778 58.8018 96.7731 55.4242C88.0171 52.1432 79.1568 49.1034 70.192 46.4335C63.2033 44.3507 55.8773 42.3563 48.5271 42.4689C36.5821 42.6539 34.7104 54.5718 32.8146 63.8842C30.0593 77.3864 28.1876 91.2102 27.2558 104.962C27.0229 108.387 26.3079 112.899 27.5289 116.228C29.8183 122.493 38.6626 124.905 44.3098 127.27C60.7292 134.161 77.51 140.225 94.2909 146.192C98.942 147.849 103.601 149.481 108.268 151.089C115.345 153.43 123.025 154.081 127.475 147.02C130.447 142.308 130.817 135.376 131.741 130.036C133.227 121.455 134.56 112.843 135.837 104.222H135.821ZM41.3858 52.6579C43.5627 46.7874 50.5514 47.7443 55.5479 48.5003C69.1076 50.5509 82.5226 55.963 95.3111 60.6997C103.224 63.6349 111.064 66.7792 118.759 70.2372C125.186 73.1323 132.6 76.5902 132.793 84.5757C132.937 90.5588 131.403 96.8555 130.536 102.75C130.166 105.259 129.781 107.76 129.395 110.261C126.736 109.24 123.812 108.058 121.129 108.194C120.462 108.227 119.916 108.516 119.442 108.942C119.257 106.538 119.089 104.141 118.904 101.737C118.807 100.482 117.225 99.9758 116.518 101.094C114.622 104.085 112.959 107.238 110.831 110.076C109.321 106.578 108.814 101.962 107.875 98.5202C107.521 97.2335 105.81 97.3622 105.4 98.5202C103.746 103.184 102.115 107.865 100.476 112.537C100.444 103.176 102.083 93.856 101.705 84.4712C101.665 83.3614 100.002 82.71 99.4641 83.86C97.2792 88.5323 95.1424 93.2207 93.0618 97.9412C92.6682 97.2013 92.2746 96.4535 91.881 95.7136C91.5275 95.0461 90.7243 94.9577 90.1057 95.2472C89.7764 95.4 86.1937 96.759 86.3543 97.2978C85.9286 95.8825 85.7358 94.3304 85.4386 92.8829C85.2779 92.1109 84.1854 91.6203 83.5267 92.1028C82.7957 92.6417 78.241 96.8877 77.5984 94.7003C76.7067 91.6445 75.8231 88.5886 74.8993 85.5488C74.5218 84.3184 72.8911 84.3908 72.4814 85.5488C69.9108 92.8347 67.6054 100.185 65.6293 107.64C65.1473 92.32 66.77 77.0084 68.5292 61.8014C68.6577 60.7077 66.8985 60.2493 66.4486 61.2385C64.4565 65.5971 62.1912 69.7869 59.9259 74.0008C58.0381 77.515 56.1664 81.2464 53.4674 84.2299C52.166 82.9191 50.198 82.7422 48.0933 82.9995C45.3862 83.3212 43.3619 81.166 40.9761 80.1769C39.3695 79.5094 37.4577 79.3084 35.6744 78.9545C36.2447 75.4322 36.8632 71.934 37.5059 68.4519C38.4939 63.1444 39.5221 57.7161 41.4019 52.6498L41.3858 52.6579ZM127.081 124.809C126.23 129.931 125.411 135.086 124.238 140.145C123.643 142.694 122.679 145.251 120.366 146.666C117.354 148.516 112.702 146.771 109.722 145.79C93.1823 140.088 76.7148 134.145 60.3998 127.841C53.3067 125.098 46.2136 122.316 39.3053 119.115C36.9275 118.013 33.1279 116.767 32.5977 113.92C32.4049 112.867 32.4933 110.269 32.5415 108.693C32.8307 99.6541 33.8669 90.5669 35.2566 81.5681C37.9638 82.2758 40.454 82.7824 42.8558 84.5597C43.6832 85.1789 44.4946 85.7579 45.5951 85.79C47.041 85.8303 51.2663 84.7768 51.9732 86.7149C52.3187 87.6557 53.4272 88.0257 54.1984 87.3019C59.235 82.5412 62.5527 75.6574 65.4686 69.0229C63.7335 84.5436 62.3599 100.08 63.6692 115.714C63.7737 117 65.7096 117.434 66.039 116.035C68.0713 107.221 70.5374 98.5041 73.5417 89.9718C73.9193 91.2745 74.2968 92.5773 74.6744 93.8801C75.0519 95.1909 75.2206 97.5391 76.4497 98.4317C78.4338 99.8551 81.1731 97.5391 83.2215 95.7458C83.4303 97.2898 83.7757 98.9625 84.9164 99.63C86.3142 100.45 88.6116 99.1072 90.2423 98.1583C90.8447 99.2842 91.4472 100.41 92.0497 101.536C92.4674 102.316 93.8892 102.437 94.2748 101.536C95.9135 97.6678 97.5924 93.8077 99.3195 89.9798C99.0384 99.5817 97.4077 109.135 98.3797 118.753C98.5162 120.104 100.275 120.394 100.749 119.075C102.605 113.856 104.501 108.645 106.372 103.434C107.079 106.835 107.826 110.422 109.497 113.108C109.907 113.767 110.967 114.025 111.522 113.373C113.538 111.017 115.136 108.396 116.719 105.75C116.928 107.977 117.129 110.205 117.313 112.432C117.41 113.591 118.912 114.129 119.555 113.044C120.84 110.888 121.555 110.446 124.037 111.178C125.708 111.669 127.379 112.191 129.05 112.69C128.415 116.735 127.772 120.788 127.098 124.825L127.081 124.809Z" fill="white"/>
<path d="M220.135 62.2436C215.067 45.1227 196.382 38.0941 180.244 32.2799C155.647 23.4259 130.978 14.6523 106.124 6.54618C94.4919 2.75045 82.6593 -0.619059 70.2886 0.0966606C63.1151 0.506792 55.6364 2.19557 48.6638 3.85218C39.5464 6.02346 29.7703 10.2293 22.4603 16.1722C14.6201 22.5494 11.2945 31.516 8.65967 40.9731C3.79973 58.3836 1.26935 76.7671 0.233095 94.8049C-0.562168 108.605 0.249162 124.535 9.84052 135.376C14.2346 140.338 20.2834 143.86 26.043 146.988C26.0832 147.012 26.1314 147.036 26.1715 147.052C24.7818 152.842 23.0387 159.976 25.9546 165.444C29.5373 172.151 39.0725 174.137 45.5792 176.767C64.0309 184.222 82.587 191.403 101.224 198.359C118.189 204.688 135.436 213.711 153.743 207.696C162.065 204.961 169.929 199.694 177.296 195.062C180.565 193.011 183.851 190.92 186.871 188.524C189.948 186.087 190.132 181.769 190.703 178.214C190.767 177.828 190.743 177.466 190.679 177.137C193.434 175.448 196.053 173.566 198.446 171.451C200.929 169.264 203.049 166.723 204.776 163.94C205.05 163.892 205.323 163.82 205.612 163.675C213.195 159.919 219.204 155.673 221.429 147.117C224.288 136.14 226.072 124.688 228.008 113.518C229.831 102.975 231.213 92.3682 231.936 81.6887C232.57 72.32 228.369 66.1761 220.135 62.2436ZM185.337 77.5713C185.337 77.6115 185.337 77.6517 185.337 77.7C187.096 92.0948 183.979 107.591 181.706 121.753C179.44 135.834 176.95 150.084 173.07 163.828C171.102 170.8 165.519 176.389 159.374 179.871C155.591 182.01 151.518 183.136 147.349 183.49C142.553 183.53 137.765 183.015 133.042 181.704C125.531 179.622 118.149 176.791 110.767 174.314C92.7407 168.251 74.771 161.994 57.0904 154.982C50.3508 152.312 43.105 149.586 36.1324 146.337C34.4937 145.549 32.855 144.752 31.2403 143.916C30.7584 143.667 30.2764 143.418 29.7944 143.168C24.7256 140.434 19.946 137.322 15.809 133.598C11.4551 129.69 8.85246 124.648 7.3503 119.139C6.73176 116.711 6.31405 114.226 6.02486 111.757C5.79191 109.795 5.63125 107.816 5.51878 105.838C5.37419 101.544 5.55092 97.2657 5.79994 93.285C6.29798 85.1949 7.12538 77.0406 8.34639 68.9425C8.73197 66.5943 9.12559 64.2702 9.52723 61.9541C9.74412 60.6996 9.97708 59.4451 10.21 58.1825C11.5596 51.339 13.2224 44.5758 15.2467 37.9574C16.4597 33.9848 17.9458 30.1971 20.1629 26.7713C22.7495 22.9756 26.2037 19.8714 30.5093 17.861C40.3818 13.253 52.6883 15.6254 62.7456 18.1746C78.2814 22.1151 93.4476 28.0499 108.558 33.3414C123.893 38.7134 139.26 43.9968 154.514 49.5778C168.299 54.6281 182.63 61.7531 185.329 77.5552L185.337 77.5713ZM184.541 181.729C184.116 184.101 182.421 185.026 180.597 186.272C177.384 188.468 174.107 190.55 170.789 192.569C164.13 196.638 157.141 200.981 149.606 203.16C141.798 205.42 133.845 204.358 126.327 201.656C118.43 198.817 110.558 195.922 102.694 192.995C86.9891 187.149 71.3569 181.109 55.7891 174.901C48.3666 171.942 40.2292 169.473 33.2807 165.508C28.228 162.621 29.9069 154.901 31.2002 149.642C36.5341 152.28 42.0206 154.636 47.4991 156.944C65.0752 164.334 83.1092 170.671 101.143 176.831C118.575 182.782 136.038 190.607 154.819 188.516C164.812 187.406 175.384 184.833 184.774 180.321C184.694 180.788 184.622 181.254 184.533 181.721L184.541 181.729ZM164.596 181.238C163.889 181.407 163.174 181.56 162.459 181.713C162.499 181.688 162.539 181.664 162.579 181.64C167.576 178.616 171.729 174.089 174.42 168.918C176.565 164.777 177.392 159.895 178.428 155.392C181.545 141.825 184.011 128.082 186.019 114.306C187.747 102.453 189.956 89.6983 188.494 77.7C188.478 77.5633 188.445 77.4426 188.405 77.322C188.405 77.314 188.405 77.3059 188.405 77.2898C185.039 54.5879 159.977 48.1625 141.573 41.6084C117.37 32.9876 93.1584 24.0371 68.5776 16.5421C60.0626 13.9446 50.0294 11.5884 40.6148 12.2961C47.0171 9.81115 53.6925 8.30733 60.5044 7.07694C71.1802 5.14691 81.0206 5.2997 91.6321 7.92133C104.131 11.0094 116.358 15.6817 128.503 19.8956C149.1 27.0447 169.946 33.7998 190.221 41.8094C199.21 45.3639 208.343 50.4061 213.171 59.1315C216.304 64.7929 216.191 71.6204 215.95 77.893C215.412 91.9098 213.115 105.895 210.689 119.686C208.664 131.194 206.552 142.839 203.379 154.097C198.286 170.727 179.995 177.627 164.596 181.23V181.238ZM226.281 86.2002C225.389 95.8986 223.815 105.565 222.12 115.159C220.561 123.972 218.762 132.746 216.962 141.52C216.087 145.798 215.34 149.762 212.215 153.011C211.122 154.145 209.829 155.086 208.447 155.923C208.488 155.794 208.536 155.665 208.576 155.536C212.408 141.946 214.898 127.921 217.187 114.001C219.573 99.5013 222.304 84.254 221.397 69.4973C221.373 69.1274 221.332 68.7736 221.3 68.4037C222.899 69.5376 224.329 70.8644 225.413 72.6015C227.791 76.3972 226.658 82.0104 226.273 86.1921L226.281 86.2002Z" fill="white"/>
<path d="M154.562 153.132C154.386 152.481 153.767 152.223 153.14 152.328C152.707 152.4 152.225 152.617 151.992 153.011C151.67 153.558 151.863 154.161 152.337 154.523C152.771 154.853 153.285 154.676 153.751 154.555C154.361 154.394 154.723 153.735 154.554 153.132H154.562Z" fill="white"/>
<path d="M156.603 158.431C156.201 158.319 155.534 158.359 155.157 158.584C154.626 158.89 154.474 159.525 154.723 160.056C154.731 160.08 154.747 160.104 154.755 160.12C154.916 160.466 155.357 160.691 155.727 160.675C156.249 160.659 156.683 160.595 157.077 160.209C157.655 159.638 157.366 158.64 156.603 158.423V158.431Z" fill="white"/>
<path d="M156.289 165.709C156.289 165.709 156.233 165.677 156.201 165.653C155.896 165.46 155.43 165.444 155.125 165.653C155.084 165.677 155.044 165.709 155.004 165.733C154.193 166.288 154.45 167.639 155.518 167.639H155.663C156.008 167.639 156.434 167.446 156.579 167.108C156.595 167.076 156.611 167.044 156.627 167.004C156.844 166.521 156.763 165.999 156.289 165.701V165.709Z" fill="white"/>
<path d="M174.5 68.3872C176.227 70.462 177.753 72.1507 178.428 74.8528C179.103 77.579 179.32 80.466 179.649 83.2404C179.77 84.2617 181.368 84.704 181.601 83.5058C182.822 77.2734 181.497 70.2288 175.601 66.9638C174.661 66.4411 173.857 67.6152 174.5 68.3872Z" fill="white"/>
<path d="M120.984 77.7723C122.687 78.9384 124.125 79.9275 124.832 81.9782C125.435 83.7313 125.909 85.5487 126.182 87.3903C126.302 88.2106 127.612 88.3392 127.957 87.6235C130.126 83.096 126.575 77.0727 121.748 75.979C120.631 75.7217 120.077 77.1451 120.992 77.7723H120.984Z" fill="white"/>
<path d="M126.431 90.5669C125.869 90.5991 125.475 90.7921 125.178 91.2826C124.913 91.7169 125.001 92.3039 125.354 92.6578C125.82 93.1242 126.487 93.0518 126.953 92.6578C127.29 92.3683 127.435 91.9742 127.395 91.5319C127.347 91.0333 126.993 90.5347 126.431 90.5669Z" fill="white"/>
<path d="M101.529 187.792C90.1298 182.669 78.466 178.093 66.6816 173.952C65.5329 173.55 65.083 175.327 66.1836 175.753C77.7591 180.257 89.2703 184.897 100.798 189.505C101.786 189.899 102.485 188.226 101.521 187.792H101.529Z" fill="white"/>
<path d="M125.644 193.091C114.349 188.998 103.087 185.001 92.0658 180.216C90.9813 179.75 90.0334 181.318 91.1259 181.825C102.147 186.867 113.49 191.531 125.154 194.869C126.31 195.198 126.744 193.493 125.644 193.091Z" fill="white"/>
<path d="M211.733 74.3224C211.982 75.3759 213.516 75.0944 213.556 74.0731C213.822 67.3904 212.102 60.2895 205.957 56.6385C205.066 56.1078 203.981 57.4266 204.825 58.1102C209.805 62.1632 210.367 68.4197 211.733 74.3224Z" fill="white"/>
<path d="M11.6959 117.418C11.2381 116.325 9.69573 116.711 9.90459 117.917C10.8846 123.667 14.0496 130.913 19.7289 133.373C20.7009 133.792 21.8255 132.642 20.9419 131.805C16.4515 127.575 14.0657 123.064 11.6959 117.418Z" fill="white"/>
<path d="M63.7898 23.474C78.0081 28.2187 91.9453 33.3895 105.971 38.673C106.943 39.0349 107.594 37.4587 106.678 37.0003C93.3431 30.3658 78.7552 25.1869 64.32 21.552C63.0668 21.2384 62.5848 23.0719 63.7898 23.474Z" fill="white"/>
</g>
<defs>
<clipPath id="clip0_1578_12269">
<rect width="232" height="209.674" fill="white"/>
</clipPath>
</defs>
</svg>
