<svg width="241" height="291" viewBox="0 0 241 291" fill="none" xmlns="http://www.w3.org/2000/svg">
<g clip-path="url(#clip0_13669_28302)">
<path d="M61.0756 307.07C62.9628 296.629 66.4249 280.374 68.1053 266.115C64.2886 265.427 66.2771 214.359 62.4435 213.766C51.6181 212.095 46.2392 218.445 35.3632 217.383C34.827 223.384 32.1544 246.17 27.5819 271.529C22.8616 297.729 18.7704 318.548 12.8806 349.028C8.59946 371.187 -3.20967 419.735 0.822406 424.431C4.85026 429.126 13.5562 437.774 16.8578 438.648C20.1595 439.521 28.4094 447.145 30.8667 446.657C33.3239 446.17 39.353 449.354 40.7083 448.577C42.0636 447.8 43.6764 445.956 38.9688 441.651C34.2612 437.346 24.1198 429.475 24.6391 426.989C25.1584 424.502 27.5397 412.087 28.9287 411.659C30.3178 411.23 36.8282 430.533 40.7421 430.319C44.6559 430.105 44.3815 429.194 43.2626 425.531C42.7476 423.839 42.68 402.129 41.3078 399.046C39.9357 395.963 32.6568 387.231 33.9994 382.594C35.342 377.958 57.8035 325.155 61.0713 307.07H61.0756Z" fill="#6F88A7"/>
<path d="M133.299 107.754C122.077 107.603 113.899 112.903 113.751 120.438L109.63 154.656C109.483 162.191 120.819 163.316 132.041 163.467C143.263 163.619 152.451 162.342 152.598 154.807L152.687 122.425C152.835 114.89 144.522 107.905 133.299 107.75V107.754Z" fill="#D78C74"/>
<path opacity="0.36" d="M62.4435 213.766C51.6182 212.095 46.2392 218.445 35.3632 217.383C35.093 220.44 34.2612 227.853 32.9102 237.744C32.9102 237.744 48.2236 236.32 52.2684 250.546C55.5109 261.953 53.5519 314.122 52.6483 334.34C56.6171 323.408 59.9567 313.231 61.0671 307.074C62.9544 296.633 66.4165 280.379 68.0969 266.12C64.2801 265.431 66.2687 214.363 62.4351 213.771L62.4435 213.766Z" fill="#55647D"/>
<path d="M194.429 227.566C206.475 225.647 220.099 220.565 232.238 219.322C218.052 154.931 175.865 153.016 160.543 149.156L171.44 199.699C174.64 205.966 179.382 216.73 183.95 229.23C187.459 228.768 190.946 228.121 194.434 227.562L194.429 227.566Z" fill="#6F88A7"/>
<path d="M168.059 179.798V151.528C145.032 144.753 113.56 144.816 91.2637 154.09V179.798H168.059Z" fill="#D78C74"/>
<path d="M198.56 191.808C198.56 187.579 199.307 159.124 172.324 152.232C172.21 152.202 172.096 152.173 171.982 152.143C171.813 152.101 171.644 152.059 171.471 152.022C171.108 151.938 170.741 151.854 170.365 151.774C170.289 151.753 170.196 151.728 170.103 151.698C168.187 151.156 166.215 150.623 164.176 150.094C164.176 150.102 164.176 150.106 164.176 150.115C161.233 149.342 158.18 148.544 157.061 148.25C155.533 157.305 139.54 166.734 128.039 166.461C114.79 166.146 106.65 155.285 105.35 149.665C60.9755 154.243 33.4727 174.513 33.4727 234.32C38.1043 235.626 50.7497 225.177 60.9164 227.79C60.6547 235.459 56.5424 298.409 54.1527 387.97C54.1527 387.97 75.7275 393.77 120.418 394.543C166.882 395.345 196.614 385.223 196.614 385.223C197.374 331.093 198.446 237.043 198.564 191.8L198.56 191.808Z" fill="#6F88A7"/>
<path d="M141.506 109.203C141.506 109.203 141.506 109.222 141.515 109.244C141.515 109.217 141.506 109.203 141.506 109.203Z" fill="#6C332E"/>
<path d="M78.6993 84.3613C73.8777 86.0455 71.8342 93.1394 74.1395 100.204C76.4405 107.272 82.2163 111.636 87.0379 109.952C91.8595 108.268 93.903 101.174 91.5977 94.1096C89.2967 87.041 83.5209 82.6771 78.6993 84.3613Z" fill="#D68B74"/>
<path d="M106.983 18.1536C106.983 18.1536 106.974 18.0731 106.953 17.9375C106.97 18.0773 106.983 18.1536 106.983 18.1536Z" fill="#381911"/>
<path d="M167.975 90.8446C167.687 73.5489 164.715 51.7215 160.92 38.9114C157.85 22.2164 110.196 15.2317 96.6596 38.504C92.4122 49.2561 85.5513 69.3069 83.5247 89.1226C83.5205 88.9126 83.5247 88.7824 83.5247 88.7824C83.5247 88.7824 71.6312 141.623 118.733 143.975C165.834 146.327 170.584 121.547 167.979 90.8404L167.975 90.8446Z" fill="#F7A186"/>
<path d="M177.918 82.1874C173.076 80.562 167.355 84.9931 165.134 92.0827C162.913 99.1765 165.041 106.245 169.884 107.871C174.726 109.496 180.447 105.065 182.668 97.9753C184.889 90.8815 182.761 83.8128 177.918 82.1874Z" fill="#E4A084"/>
<path d="M178.757 98.814C174.147 101.867 169.16 100.998 165.512 98.1462C165.715 104.077 164.647 115.354 156.304 126.988C149.604 136.329 134.818 139.642 123.786 139.437C97.4654 138.949 90.3976 131.078 84.7949 120.381C88.7214 132.154 98.0227 142.948 118.732 143.981C157.106 145.896 167.37 129.802 168.447 107.168C168.894 107.453 169.371 107.701 169.882 107.873C174.725 109.499 180.446 105.068 182.667 97.9782C183.237 96.1512 183.515 94.3284 183.541 92.5938C182.73 95.0256 181.185 97.2096 178.761 98.814H178.757Z" fill="#D68B74"/>
<path d="M187.193 226.147L189.026 245.841L232.234 240.646C232.234 240.646 232.336 222.057 230.001 219.717C227.67 217.378 187.193 226.143 187.193 226.143V226.147Z" fill="#E5A185"/>
<path d="M170.199 95.1295L174.611 95.6755C174.442 88.7707 179.551 86.3809 179.551 86.3809C171.137 83.529 170.199 95.1295 170.199 95.1295Z" fill="#D68B74"/>
<path d="M141.672 108.609C141.672 108.609 141.672 108.628 141.681 108.651C141.681 108.623 141.672 108.609 141.672 108.609Z" fill="#6C332E"/>
<path d="M127.334 16.0347C78.6706 20.2011 86.8149 73.7891 86.8149 73.7891C89.3988 57.7534 99.0463 37.7446 106.709 37.2028C106.709 37.2028 113.482 42.4948 123.463 42.5032C132.392 42.5074 144.64 35.8042 144.64 35.8042C153.541 35.422 164.265 62.6465 165.894 84.7176C166.266 89.766 170.568 83.8439 170.568 83.8439C170.568 83.8439 175.027 11.9523 127.338 16.0347H127.334Z" fill="white"/>
<path d="M152.886 19.726C138.045 -1.86632 91.2185 5.4039 91.2185 5.4039C87.1526 30.3142 104.708 35.5642 104.708 35.5642C104.708 35.5642 145.215 27.5632 151.451 31.7632C157.687 35.9632 170.382 70.4327 170.382 70.4327C170.382 70.4327 180.059 34.006 172.134 20.8348C166.316 11.1663 152.886 19.7302 152.886 19.7302V19.726Z" fill="white"/>
<path d="M109.285 0C109.517 3.28441 112.435 6.56883 112.435 6.56883C112.435 6.56883 162.327 38.8795 152.891 19.7233C143.45 0.567002 109.285 0 109.285 0Z" fill="white"/>
<path d="M160.731 12.9153C157.969 13.3941 157.345 14.7129 157.345 14.7129C159.266 11.0504 157.796 6.14062 157.796 6.14062C152.447 9.32844 153.068 13.6167 153.068 13.6167C150.306 8.14403 142.111 6.59003 142.111 6.59003C142.466 11.1512 147.452 15.7125 147.722 15.8511L152.084 22.1931L160.84 20.6475L159.895 16.7667C161.288 14.7087 160.735 12.9237 160.735 12.9237L160.731 12.9153Z" fill="white"/>
<path d="M92.906 24.2656C78.6734 28.8772 83.9384 85.5355 83.9384 85.5355C86.5223 69.4998 99.0407 37.7477 106.704 37.2059C106.704 37.2059 99.5178 33.1277 92.906 24.2656Z" fill="white"/>
<path opacity="0.12" d="M148.549 19.3947H148.558C148.581 19.3947 148.641 19.3855 148.549 19.3947Z" fill="white"/>
<path opacity="0.11" d="M166.506 16.5359C164.758 16.8467 162.913 17.3171 161.013 17.7875C156.478 18.9089 151.695 19.6943 147.012 19.1651C141.57 18.5477 136.761 16.2251 131.897 13.8983C129.44 12.7223 126.991 11.5252 124.462 10.5046C119.049 8.32064 112.674 6.19963 106.759 6.50623C103.829 6.65743 100.979 7.60243 98.3064 8.75744C95.8281 9.81164 93.8057 11.3614 92.3195 12.9113C91.6905 13.5623 91.1711 14.2175 90.7109 14.8601C90.8418 16.8005 91.1163 18.5771 91.5216 20.1815C91.7031 20.0261 91.8931 19.8707 92.0958 19.7069C93.05 18.9677 94.2744 18.2201 95.6803 17.5817C97.1074 16.9769 98.6906 16.4351 100.506 16.2629C107.536 15.5867 114.131 18.2705 120.54 20.7611C123.166 21.7817 125.834 22.9745 128.659 24.0749C131.475 25.2047 134.405 26.2715 137.47 27.1367C142.63 28.5941 148.904 28.9427 154.097 27.3971C154.798 27.1871 155.494 27.0107 156.166 26.7923C158.847 25.8809 161.173 24.7427 163.187 23.6717C165.201 22.5881 166.928 21.6053 168.448 20.8577C169.495 20.3243 170.441 19.9295 171.306 19.6523C169.938 17.9345 168.27 16.9727 166.501 16.5317L166.506 16.5359Z" fill="#C8D6DA"/>
<path opacity="0.73" d="M94.185 73.838C94.185 73.838 91.3731 79.571 91.1113 84.9513C91.9262 79.802 97.5035 74.1614 106.594 76.0262C112.551 77.2526 112.686 85.4553 111.411 88.0929H111.428C111.428 88.0929 121.084 79.046 117.183 62.3594L94.1934 73.838H94.185Z" fill="#D68B74"/>
<path opacity="0.73" d="M131.985 62.0625C131.985 62.0625 127.582 74.1123 134.354 86.7754C132.159 80.635 138.927 76.5232 143.558 76.6366C150.47 76.8046 155.941 80.0722 156.575 86.4184C156.575 86.4184 159.011 81.5128 157.685 76.2712C155.963 69.4797 131.99 62.0625 131.99 62.0625H131.985Z" fill="#D68B74"/>
<path d="M145.033 79.5315C136.04 78.9435 134.359 86.7849 134.359 86.7849C134.359 86.7849 136.15 91.3461 146.43 91.0059C156.538 90.6741 156.576 86.4237 156.576 86.4237C156.576 86.4237 152.413 80.0061 145.033 79.5273V79.5315Z" fill="white"/>
<path d="M105.92 79.5468C102.167 77.136 96.5769 78.7824 91.1135 84.9523C91.1135 84.9523 90.2396 89.4841 100.111 89.5345C110.556 89.5849 111.43 88.1023 111.43 88.1023C111.43 88.1023 110.062 82.2096 105.925 79.551L105.92 79.5468Z" fill="white"/>
<path d="M101.642 66.5595C94.1263 70.6335 93.4043 75.6315 93.4043 75.6315C100.257 71.1039 113.43 73.7205 116.841 68.9031C118.754 66.2025 116.638 59.7891 116.638 59.7891C111.952 64.6653 105.268 64.5939 101.646 66.5595H101.642Z" fill="white"/>
<path d="M145.044 65.2385C140.683 64.1129 136.841 61.7945 133.214 58.4219C133.214 58.4219 130.461 65.3183 131.597 67.0865C135.131 72.6011 151.673 71.4419 157.685 76.2761C157.685 76.2761 156.528 68.1995 145.044 65.2385Z" fill="white"/>
<path d="M133.549 118.987C132.743 119.806 131.468 119.966 130.501 119.34C128.761 118.219 125.612 116.686 121.318 116.64C117.113 116.589 114.001 118.076 112.278 119.176C111.316 119.79 110.058 119.643 109.251 118.84C108.141 117.736 108.348 115.9 109.669 115.06C112.012 113.569 115.597 111.427 120.959 111.469C126.321 111.528 130.763 113.721 133.114 115.224C134.423 116.06 134.643 117.874 133.553 118.979L133.549 118.987Z" fill="#C67967"/>
<path opacity="0.11" d="M198.247 241.254C187.388 243.812 176.964 246.706 169.187 248.982C143.964 256.37 118.547 265.429 111.323 269.613C109.985 270.39 108.765 271.406 107.667 272.662C107.025 272.431 106.13 272.158 105.058 271.931C101.621 270.684 96.909 268.936 93.2189 269.957C88.79 271.184 83.9853 272.032 79.6746 273.918C78.9019 274.258 78.0997 274.653 77.6311 275.354C76.9133 276.429 77.6184 277.673 78.0279 278.71C78.4713 279.827 78.7499 280.915 78.6233 282.129C78.3024 285.245 74.9036 288.702 75.976 291.885C76.4531 293.297 77.8591 293.948 78.6233 295.149C79.7168 296.862 79.3241 298.929 79.7674 300.819C80.063 302.091 80.6541 303.259 81.832 303.935C83.5673 304.931 84.4117 305.136 84.7664 307.274C84.9015 308.089 85.0915 308.912 85.4883 309.639C86.2948 311.117 87.5909 311.256 89.0222 311.823C91.2895 312.726 92.5941 314.868 94.0127 316.712C96.6515 320.139 100.62 322.382 104.834 323.268C106.996 323.726 109.237 323.822 111.429 323.512C113.886 323.163 116.225 322.104 118.716 321.693C122.233 321.109 125.737 321.718 129.246 322.142C144.868 324.024 160.265 327.355 175.908 329.123C183.014 329.929 190.162 330.496 197.31 330.631C197.66 301.172 198.007 269.151 198.243 241.25L198.247 241.254Z" fill="#603813"/>
<path d="M165.826 83.9319C163.985 108.363 144.319 111.86 139.244 112.469C145.501 117.728 138.695 125.869 131.8 123.059C129.191 121.997 126.257 120.199 121.448 120.296C116.812 120.388 113.945 121.95 112.484 122.908C108.165 125.735 99.2406 123.328 105.772 111.577C105.772 111.577 96.7066 109.426 94.0889 108.069C89.0984 105.486 86.5356 99.9886 85.2141 94.8016C84.6694 92.6638 84.3063 90.4756 84.0995 88.279C84.0235 87.4726 83.7575 86.3386 83.939 85.5322C78.5221 109.451 75.212 148.049 125.535 146.264C175.858 144.479 168.98 106.507 168.98 106.507C166.4 98.1154 170.559 83.8438 170.559 83.8438L165.826 83.9319Z" fill="white"/>
<path d="M119.367 108.845C119.367 108.845 113.549 106.518 104.999 111.739C98.4548 115.733 96.3691 123.436 96.3691 123.436C96.3691 123.436 106.539 127.621 121.839 121.85C137.394 128.755 147.786 123.532 147.786 123.532C147.786 123.532 142.157 105.233 119.367 108.841V108.845Z" fill="white"/>
<path opacity="0.16" d="M120.108 114.259C116.832 114.322 114.21 116.006 114.252 118.018C114.295 120.03 116.836 117.087 120.108 117.024C123.385 116.961 128.105 121.267 128.063 119.256C128.025 117.244 123.381 114.196 120.108 114.259Z" fill="black"/>
<path d="M105.918 79.55C104.833 78.8528 103.588 78.5084 102.245 78.5C101.139 79.3232 100.214 80.684 99.7668 82.3556C98.9266 85.4972 100.079 88.5296 102.338 89.1302C104.601 89.7308 107.117 87.6686 107.958 84.527C108.232 83.5064 108.291 82.4942 108.173 81.5744C107.535 80.8142 106.792 80.1086 105.923 79.55H105.918Z" fill="url(#paint0_linear_13669_28302)"/>
<path d="M149.661 86.0623C150.26 83.8153 149.813 81.6271 148.656 80.3629C147.503 79.947 146.254 79.6489 144.932 79.5312C143.404 80.1445 142.04 81.7615 141.47 83.8909C140.642 86.9863 141.804 89.9809 144.067 90.5773C146.33 91.1779 148.833 89.1535 149.661 86.0581V86.0623Z" fill="url(#paint1_linear_13669_28302)"/>
<path d="M140.092 86.272L139.822 88.0024C139.822 88.0024 145.64 88.1956 144.99 85.4152C144.344 82.6306 140.088 86.2762 140.088 86.2762L140.092 86.272Z" fill="white"/>
<path d="M98.5059 86.5191L98.527 87.796C98.527 87.796 103.809 88.4932 103.142 85.7127C102.475 82.9323 98.5059 86.5191 98.5059 86.5191Z" fill="white"/>
<path d="M99.739 78.5386C97.3113 78.967 95.0103 80.0296 93.4354 81.5332C92.7134 82.222 92.0928 83.0242 91.6157 83.8978C91.4848 84.1372 91.1133 84.9562 91.1133 84.9982C91.1133 84.9982 94.1405 82.5958 100.765 82.0582C108.28 81.4492 111.43 88.1902 111.43 88.1944C111.43 88.0978 111.333 86.8672 111.257 86.3758C111.05 85.057 110.691 83.7382 110.075 82.5496C108.162 78.8704 103.784 77.8246 99.739 78.5386Z" fill="#381911"/>
<path d="M147.254 79.3243C143.779 78.7321 140.283 79.2278 137.594 81.4286C134.288 84.1292 134.359 86.7794 134.359 86.7794C134.359 86.7794 138.197 82.5248 145.265 82.4996C151.134 82.4786 156.576 86.4182 156.58 86.4224C156.58 86.4224 156.259 85.4732 156.166 85.2758C154.579 81.9032 150.804 79.9334 147.254 79.3286V79.3243Z" fill="#381911"/>
<path d="M118.179 92.2474C118.179 92.2474 111.179 87.2956 108.819 96.124C106.459 104.952 124.154 109.992 128.895 100.744C133.641 91.4956 120.814 74.4688 120.814 74.4688C120.814 74.4688 123.423 85.0066 118.179 92.2474Z" fill="#F7A186"/>
<path opacity="0.2" d="M118.084 95.4857C118.084 95.4857 111.29 90.8279 108.896 98.7659C112.481 99.5681 116.239 100.156 119.929 100.312C121.985 95.2547 122.644 89.7947 122.812 83.9062C122.331 83.9189 121.85 83.9188 121.364 83.9104C121.398 87.4385 120.782 91.7645 118.084 95.4857Z" fill="white"/>
<path d="M60.8186 229.627L62.613 209.988C62.6595 208.816 61.739 207.825 60.5569 207.783C59.3747 207.741 58.3825 208.652 58.3403 209.828L57.6816 226.952C58.5767 227.191 59.4465 227.418 60.2824 227.632L60.8186 229.627Z" fill="#627490"/>
<path d="M108.672 98.5859C109.782 105.797 124.61 109.094 128.896 100.745C129.157 100.237 129.356 99.6989 129.516 99.1487C122.584 100.694 115.347 100.363 108.676 98.5859H108.672Z" fill="#D68B74" fill-opacity="0.55"/>
<path d="M107.375 267.423C107.375 267.423 96.6429 262.74 92.0915 264.924C87.5401 267.108 82.9338 270.43 79.3873 270.771C77.6562 270.939 77.7196 274.677 81.4476 276.302C84.2258 277.512 93.907 276.319 93.907 276.319L107.375 267.423Z" fill="#E5A185"/>
<path d="M86.5396 277.74C84.5679 279.953 81.6884 281.302 79.9532 283.725C78.9441 285.132 78.4543 287.039 78.999 288.698C79.5056 290.239 81.5027 290.663 82.3766 291.949C83.6517 293.826 82.2246 296.228 82.098 298.223C82.0262 299.32 82.1866 300.256 83.0479 301.029C84.0781 301.957 85.6741 301.693 86.6747 302.57C87.802 303.566 86.9956 305.12 87.5149 306.334C88.4269 308.459 90.6561 307.967 92.2056 309.085C92.4716 309.278 92.6447 309.563 92.8389 309.824C96.1195 314.23 104.23 312.083 108.887 311.697C109.221 311.668 109.579 311.63 109.816 311.403C109.997 311.231 109.377 280.058 109.246 273.834C109.237 273.355 108.71 267.673 108.71 267.673C108.152 267.362 101.845 264.72 95.6466 266.992C92.6996 268.076 90.7195 270.646 89.4233 273.305C88.6506 274.892 87.7091 276.409 86.5312 277.732L86.5396 277.74Z" fill="#E5A185"/>
<path d="M109.123 267.871C109.123 267.871 108.887 267.569 108.803 267.531C107.92 269.232 100.396 273.39 98.2811 274.033C95.3426 274.923 86.1047 277.75 86.1047 277.75C85.007 278.985 83.5335 279.951 82.2246 280.984C84.0401 282.546 91.0656 288.998 94.5826 299.741C96.0941 304.357 98.222 311.102 98.0616 312.446C101.79 313.11 110.622 311.728 110.859 311.501C111.04 311.329 109.537 268.048 109.119 267.867L109.123 267.871Z" fill="#CED0D8"/>
<path d="M84.9826 277.815C84.9319 277.437 85.2064 277.092 85.599 277.038C98.8268 275.11 106.266 268.89 108.128 267.138C108.398 266.882 108.825 266.87 109.108 267.109H109.112C109.424 267.378 109.437 267.84 109.141 268.121C107.14 270.032 99.5698 276.404 85.7932 278.407C85.3963 278.466 85.0333 278.197 84.9826 277.815Z" fill="#E9EAF2"/>
<path d="M98.4876 313.243C98.1076 313.298 97.7488 313.046 97.6812 312.676C97.3477 310.837 96.2077 305.289 93.3494 297.518C90.3602 289.387 83.7062 282.877 81.8231 281.147C81.5445 280.891 81.5234 280.462 81.7767 280.181C82.0427 279.883 82.5071 279.853 82.8026 280.122C84.787 281.928 91.5677 288.535 94.692 297.04C97.6137 304.986 98.7494 310.53 99.0872 312.429C99.1547 312.815 98.8803 313.185 98.4792 313.239L98.4876 313.243Z" fill="#E9EAF2"/>
<path d="M236.267 233.839C237.428 244.746 244.031 305.416 223.846 307.738C188.271 311.833 105.168 313.16 105.168 313.16C105.168 313.16 99.5775 278.388 108.82 270.623C118.062 262.857 235.3 224.712 236.267 233.839Z" fill="#6A90A1"/>
<path d="M155.648 147.446C154.824 149.042 153.245 151.642 150.653 154.204C145.16 159.634 137.885 162.385 129.032 162.385C121.031 162.385 114.647 159.912 110.053 155.035C107.702 152.536 106.422 150 105.84 148.609C104.147 149.105 102.428 149.508 100.697 149.865C101.297 151.461 102.846 154.939 106.026 158.387C109.901 162.591 117.037 167.602 129.032 167.602C141.989 167.602 150.057 162.222 154.55 157.707C158.244 153.99 160.174 150.252 160.929 148.555C159.156 148.231 157.391 147.879 155.652 147.438L155.648 147.446Z" fill="#627490"/>
<path d="M185.531 243.943C184.349 243.943 183.395 242.99 183.395 241.818V215.719C183.395 214.543 184.353 213.594 185.531 213.594C186.713 213.594 187.667 214.547 187.667 215.719L188.6 241.263C188.6 242.439 186.709 243.947 185.531 243.947V243.943Z" fill="#627490"/>
<path d="M103.885 316.288C102.568 316.46 101.369 315.523 101.229 314.209C100.837 310.479 100.191 302.877 100.406 294.683C100.583 287.9 101.327 282.104 102.606 277.458C104.396 270.974 107.33 266.509 111.324 264.199C118.544 260.016 143.961 250.952 169.188 243.568C187.279 238.272 219.642 229.65 238.637 229.633C239.984 229.633 241.06 230.742 241.001 232.081L240.841 235.71C240.786 236.958 239.756 237.945 238.497 237.949C225.24 238.003 201.111 242.888 171.544 251.548C145.215 259.256 121.327 268.034 115.53 271.389C111.569 273.683 109.104 282.221 108.762 294.813C108.555 302.44 109.167 309.698 109.534 313.247C109.665 314.507 108.766 315.645 107.503 315.813L103.885 316.292V316.288Z" fill="#F7F7F7"/>
<path d="M187.27 228.685C186.358 228.731 185.59 228.025 185.56 227.118L185.531 226.148L185.497 225.132C185.467 224.254 186.151 223.51 187.034 223.464C192.81 223.141 213.316 221.616 231.539 215.522C232.379 215.24 233.291 215.686 233.586 216.517L234.249 218.386C234.553 219.239 234.093 220.175 233.232 220.461C214.144 226.854 193.266 228.366 187.27 228.681V228.685Z" fill="#627490"/>
<path d="M118.295 256.303C117.898 256.294 117.506 256.198 117.143 256.013C116.522 255.694 116.066 255.156 115.855 254.492L114.626 250.725C114.415 250.066 114.474 249.36 114.795 248.742C115.116 248.125 115.656 247.671 116.323 247.461L125.903 244.421C127.275 243.984 128.749 244.74 129.184 246.105L130.412 249.872C130.624 250.532 130.564 251.237 130.244 251.855C129.923 252.472 129.382 252.926 128.715 253.14L119.135 256.181C118.861 256.269 118.578 256.311 118.295 256.307V256.303ZM126.71 245.845C126.596 245.845 126.482 245.857 126.372 245.895L116.792 248.936C116.522 249.02 116.302 249.205 116.176 249.457C116.045 249.704 116.024 249.99 116.108 250.259L117.337 254.026C117.421 254.295 117.607 254.513 117.86 254.639C118.109 254.77 118.396 254.791 118.667 254.707L128.247 251.666C128.8 251.489 129.108 250.897 128.931 250.343L127.702 246.575C127.617 246.306 127.432 246.088 127.178 245.962C127.031 245.886 126.874 245.849 126.714 245.845H126.71Z" fill="#F2F2F2"/>
<path d="M117.124 250.439C103.001 210.884 87.8483 161.958 85.1124 153.066C84.8717 152.285 85.315 151.458 86.1003 151.222L93.0119 149.131C93.8521 148.879 94.7387 149.345 94.9962 150.181C97.8039 159.291 112.834 207.801 126.831 247.012L117.124 250.439Z" fill="#F7F7F7"/>
<path d="M122.521 264.919L118.506 253.802L127.807 250.547L132.185 261.375L122.521 264.919Z" fill="#F7F7F7"/>
<ellipse cx="215.865" cy="279.16" rx="10.3497" ry="10.2847" fill="#425E74"/>
</g>
<defs>
<linearGradient id="paint0_linear_13669_28302" x1="100.334" y1="88.8483" x2="105.665" y2="80.5898" gradientUnits="userSpaceOnUse">
<stop stop-color="#5C3333"/>
<stop offset="1"/>
</linearGradient>
<linearGradient id="paint1_linear_13669_28302" x1="142.925" y1="89.9966" x2="147.621" y2="80.9744" gradientUnits="userSpaceOnUse">
<stop stop-color="#5C3333"/>
<stop offset="1"/>
</linearGradient>
<clipPath id="clip0_13669_28302">
<rect width="241" height="291" fill="white"/>
</clipPath>
</defs>
</svg>
