<svg width="21" height="20" viewBox="0 0 21 20" fill="none" xmlns="http://www.w3.org/2000/svg">
<path d="M11.3211 18.75L10.2336 18.125L12.7336 13.75H16.4836C16.8152 13.75 17.1331 13.6183 17.3675 13.3839C17.6019 13.1495 17.7336 12.8315 17.7336 12.5V5C17.7336 4.66848 17.6019 4.35054 17.3675 4.11612C17.1331 3.8817 16.8152 3.75 16.4836 3.75H3.98364C3.65212 3.75 3.33418 3.8817 3.09976 4.11612C2.86534 4.35054 2.73364 4.66848 2.73364 5V12.5C2.73364 12.8315 2.86534 13.1495 3.09976 13.3839C3.33418 13.6183 3.65212 13.75 3.98364 13.75H9.60864V15H3.98364C3.3206 15 2.68472 14.7366 2.21588 14.2678C1.74703 13.7989 1.48364 13.163 1.48364 12.5V5C1.48364 4.33696 1.74703 3.70107 2.21588 3.23223C2.68472 2.76339 3.3206 2.5 3.98364 2.5H16.4836C17.1467 2.5 17.7826 2.76339 18.2514 3.23223C18.7202 3.70107 18.9836 4.33696 18.9836 5V12.5C18.9836 13.163 18.7202 13.7989 18.2514 14.2678C17.7826 14.7366 17.1467 15 16.4836 15H13.4586L11.3211 18.75Z" fill="white"/>
<path d="M5.23364 6.25H15.2336V7.5H5.23364V6.25ZM5.23364 10H11.4836V11.25H5.23364V10Z" fill="white"/>
</svg>
