<svg width="315" height="54" viewBox="0 0 315 54" fill="none" xmlns="http://www.w3.org/2000/svg">
<path d="M0.271973 53.0688C22.8176 48.7176 41.1739 28.3172 64.1243 29.0255C72.6447 29.2886 81.0436 32.6685 87.358 38.3959C88.6128 39.5293 90.0701 40.8448 91.7499 40.5412C93.3285 40.2376 94.2392 38.6186 95.0082 37.2019C100.048 28.0339 108.75 21.5171 117.493 15.7693C126.6 9.77875 136.214 4.21317 146.798 1.56193C157.383 -1.0893 169.142 -0.583344 178.512 5.02271C187.883 10.6288 194.136 21.9218 191.971 32.6077C198.73 27.8315 205.834 23.0349 213.99 21.5575C222.146 20.0801 231.638 22.873 235.585 30.1589C236.941 32.6482 238.114 35.9673 240.928 36.2911C242.243 36.453 243.518 35.8257 244.732 35.2995C253.779 31.2922 264.283 30.7053 273.714 33.7006C288.002 38.234 299.498 50.4378 314.393 52.1986" fill="#FAFBFC"/>
</svg>
