<svg width="210" height="43" viewBox="0 0 210 43" fill="none" xmlns="http://www.w3.org/2000/svg">
<path d="M0.708252 42.807C6.05121 36.27 15.1383 33.9628 23.5777 34.1247C32.0171 34.2867 40.2745 36.4724 48.6937 37.2415C57.0927 38.0105 66.1797 37.0998 72.8179 31.8783C78.1002 27.7092 81.3586 21.1721 87.2277 17.853C96.2743 12.7529 107.507 17.1649 116.877 21.6174C120.136 12.2267 127.178 3.50395 136.852 1.23724C146.526 -1.02947 158.204 5.46707 158.912 15.3637C159.176 18.8447 158.285 22.8114 160.552 25.4627C162.13 27.3044 164.721 27.8103 167.129 28.0734C174.901 28.9235 182.834 28.2758 190.525 29.6723C198.216 31.0687 206.088 35.0962 209.205 42.2606" fill="#FAFBFC"/>
</svg>
