<svg width="94" height="25" viewBox="0 0 94 25" fill="none" xmlns="http://www.w3.org/2000/svg">
<path d="M0.71936 24.2147C6.02184 24.3362 10.4945 20.592 14.9875 17.7789C19.4804 14.9657 25.7746 13.1038 29.7616 16.6253C30.5914 17.3539 31.5426 18.3456 32.5747 17.9611C33.1009 17.7587 33.4247 17.2527 33.7081 16.767C36.3188 12.5169 39.5165 8.65135 43.1797 5.27153C46.0738 2.62029 49.7167 0.151174 53.6025 0.697612C58.4395 1.38572 61.4348 6.44536 62.4265 11.2216C62.6693 12.3752 62.8717 13.63 63.661 14.5003C64.936 15.8967 67.1218 15.7753 69.004 15.5931C73.5374 15.1681 78.172 15.1479 82.584 16.342C86.996 17.536 91.1449 20.0456 93.614 23.8909" fill="#FAFBFC"/>
</svg>
