<svg width="43" height="44" viewBox="0 0 43 44" fill="none" xmlns="http://www.w3.org/2000/svg">
<path fill-rule="evenodd" clip-rule="evenodd" d="M12.7461 5.69531L12.6509 5.7076L11.2073 5.89188L9.4535 6.11303C8.38486 6.23817 7.39298 6.73098 6.64774 7.50704C5.9025 8.2831 5.45027 9.29412 5.3685 10.367C4.73133 19.2412 4.73133 28.1497 5.3685 37.0239C5.44382 38.1047 5.90319 39.1229 6.66361 39.8946C7.42404 40.6662 8.43538 41.1405 9.51493 41.2317C17.7341 41.9197 25.2591 41.9197 33.4751 41.2317C34.5547 41.1405 35.566 40.6662 36.3265 39.8946C37.0869 39.1229 37.5463 38.1047 37.6216 37.0239C38.2586 28.1497 38.2586 19.2412 37.6216 10.367C37.5399 9.29459 37.0881 8.28393 36.3435 7.50793C35.5989 6.73193 34.6077 6.23884 33.5396 6.11303L31.7889 5.89188L30.3454 5.7076L30.2471 5.69531H12.7461Z" fill="#5840BA" fill-opacity="0.5"/>
<path d="M13.8214 6.27972C13.8206 5.75056 13.9242 5.22644 14.1262 4.73736C14.3283 4.24829 14.6248 3.80388 14.9988 3.42956C15.3728 3.05525 15.817 2.75839 16.306 2.55598C16.7949 2.35357 17.3189 2.2496 17.8481 2.25H25.1458C26.2149 2.25 27.2403 2.67472 27.9963 3.43073C28.7523 4.18673 29.177 5.2121 29.177 6.28125C29.177 7.35041 28.7523 8.37577 27.9963 9.13177C27.2403 9.88778 26.2149 10.3125 25.1458 10.3125H17.8511C17.3214 10.3129 16.7968 10.2089 16.3074 10.0063C15.8179 9.80382 15.3732 9.50679 14.9986 9.13223C14.6241 8.75767 14.327 8.31294 14.1245 7.82347C13.922 7.33401 13.821 6.80942 13.8214 6.27972Z" fill="#5840BA"/>
</svg>
