<?xml version="1.0" encoding="UTF-8"?>
<svg id="OBJECTS" xmlns="http://www.w3.org/2000/svg" viewBox="0 0 700 500">
  <defs>
    <style>
      .cls-1 {
        stroke: #fff;
      }

      .cls-1, .cls-2, .cls-3, .cls-4, .cls-5, .cls-6 {
        fill: none;
      }

      .cls-1, .cls-3, .cls-6 {
        stroke-miterlimit: 10;
      }

      .cls-7 {
        fill: #9d9ef1;
      }

      .cls-2, .cls-4, .cls-5 {
        stroke-linejoin: round;
      }

      .cls-2, .cls-5 {
        stroke: #3d3096;
      }

      .cls-3, .cls-4 {
        stroke: #000;
      }

      .cls-3, .cls-4, .cls-5 {
        stroke-linecap: round;
      }

      .cls-8 {
        fill: #bcb2e2;
      }

      .cls-9 {
        fill: #9ec68a;
      }

      .cls-10 {
        fill: #5d5fef;
      }

      .cls-11 {
        fill: #d3ddf7;
      }

      .cls-12 {
        fill: #fff;
      }

      .cls-13 {
        fill: #f5f5ff;
      }

      .cls-14 {
        fill: #333969;
      }

      .cls-15 {
        fill: #dfdfeb;
      }

      .cls-6 {
        stroke: #424242;
      }

      .cls-16 {
        fill: #db9c7f;
      }
    </style>
  </defs>
  <ellipse class="cls-13" cx="372.01" cy="217.76" rx="205.37" ry="146.39"/>
  <ellipse class="cls-15" cx="192.61" cy="417.69" rx="93.75" ry="14.42"/>
  <ellipse class="cls-15" cx="345.84" cy="420.58" rx="169.36" ry="14.42"/>
  <g>
    <path class="cls-11" d="M299.77,65.01c-17.49.48-31.96,14.48-32.97,31.95-.59,10.27,3.39,19.62,10.09,26.21.99.97,1.45,2.36,1.22,3.73l-2.52,14.89,15.48-9.02c.88-.51,1.92-.7,2.92-.5,3.78.76,7.79.9,11.92.28,15.29-2.32,27.22-14.97,28.63-30.38,1.88-20.53-14.51-37.72-34.78-37.16Z"/>
    <path d="M299.17,110.73l-.1-8.12c1.18-.29,2.27-.66,3.24-1.13.98-.46,1.83-1,2.57-1.61.74-.61,1.35-1.29,1.85-2.04.5-.75.87-1.56,1.13-2.43.26-.87.38-1.78.38-2.74,0-1.38-.34-2.68-1.01-3.89-.67-1.22-1.63-2.2-2.88-2.96-1.25-.75-2.74-1.13-4.47-1.13-1.86,0-3.58.51-5.17,1.54-1.59,1.03-2.8,2.77-3.63,5.24l-.87-.58c.74-2.34,1.97-4.13,3.7-5.38,1.73-1.25,3.7-1.87,5.91-1.87,1.89,0,3.55.4,4.97,1.2,1.43.8,2.54,1.88,3.34,3.24.8,1.36,1.2,2.89,1.2,4.59,0,1.28-.22,2.48-.65,3.6-.43,1.12-1.04,2.15-1.83,3.08-.78.93-1.74,1.74-2.86,2.43-1.12.69-2.39,1.21-3.8,1.56l-.1,7.4h-.96ZM298.59,116.79c0-.42.11-.76.34-1.03.22-.27.53-.41.91-.41.45,0,.77.13.96.38.19.26.29.61.29,1.06,0,.38-.1.72-.31,1.01-.21.29-.52.43-.94.43s-.73-.13-.94-.38-.31-.61-.31-1.06Z"/>
  </g>
  <g>
    <path d="M201.46,397.39l1.51,11.36s28.25,12.03,25.63,12.21c-2.62.17-43.22-2.45-43.22-2.45l2.39-20.62,13.69-.5Z"/>
    <path class="cls-6" d="M193.59,211.96s-2.25,21.67-3.94,22.8c-1.69,1.13-3.94,1.69-3.94,1.69l3.66-24.77,4.22.28Z"/>
    <g>
      <path d="M148.98,197.07s-11.45,25.86-8.13,40.27l63.48-9.68-1.32-26.86-54.03-3.72Z"/>
      <path d="M204.33,227.65s.36,62.04.8,83.66c.44,21.62,4.22,88.37,4.22,88.37,0,0-11.85,6.54-24.2,1.25-.99-.42-11.62-173.86-11.62-173.86l30.8.58Z"/>
      <path d="M141.9,229.66l-26.79,170.59s11.7,10.96,26.47.99l27.24-139.34,13.23-8.88,1.97-25.42-42.12,2.07Z"/>
      <path d="M134.87,396.02l2.44,9.8s17.82,21.44,15.2,21.44-31.9-13.27-31.9-13.27l3.75-20.42,10.51,2.45Z"/>
      <path class="cls-6" d="M151.68,207.54s-16.88,70.97-29.43,196.28"/>
      <path class="cls-6" d="M163.26,215.17s-5.91,14.78-16.01,15.02"/>
      <polyline class="cls-6" points="188.23 401.96 179.59 255.11 188.03 246.26"/>
      <path class="cls-7" d="M188.11,122.77c4.39-.9,7.6-1.54,7.6-1.54l27.39,14.96s.09.05.14.08c8.98,4.95,12.94,13.36,12.71,25.14l1.33,17.06-14.85-12.05-12.55,24.2-7.97,28.57c-42.53,15.47-59.05-12.3-59.05-12.3l14.09-30.51,5.69-28.17c2.7-14.46,11.06-22.48,25.46-25.43Z"/>
    </g>
    <g>
      <path class="cls-8" d="M418.09,170.97s-4.29,17.95-28.58,39.86c0,0-2.32-3.28,2.87-15.91,5.19-12.64,24.69-28.43,25.71-23.95Z"/>
      <path class="cls-3" d="M418.09,170.97s-21.45,13.35-28.58,39.86c0,0-1.64,9.14,1.01,17.32"/>
      <path class="cls-8" d="M362.03,182.1s6.03-3.99-3.17-15.51c-8.74-10.95-18.1-20.86-37.34-25.5,0,0,4.18,26.73,16.46,33.82,12.28,7.09,24.05,7.19,24.05,7.19Z"/>
      <path class="cls-8" d="M313.56,198.45s20.02,5.73,55.18-3.55c0,0-1.91-3.7-17.21-5.88-15.31-2.18-41.78,6.22-37.97,9.43Z"/>
      <path class="cls-3" d="M313.56,198.45s25.18-11.33,55.18-3.55c0,0,3.07.98,5.98,5.44"/>
      <path class="cls-8" d="M329.21,217.92s20.81,15.69,55.97,6.41c0,0-5.92-12.54-21.23-14.72s-38.56,5.1-34.74,8.31Z"/>
      <path class="cls-3" d="M329.21,217.92s24.11-9.42,55.97,6.41c0,0,3.74,1.96,6.65,6.41"/>
      <path d="M407.2,153.01s6.46-.36-10.11,13.11c-15.65,12.72-13.78,12.95-13.78,12.95,0,0,6.92-20.09,23.89-26.06Z"/>
      <path class="cls-8" d="M372.12,185.3s4.67,2.15,13.81-5.22c9.14-7.37,13.5-24.83,21.27-27.07,0,0-19.45,4.93-35.08,32.29Z"/>
      <path class="cls-3" d="M399.63,248c-8.48-20.25-20.58-43.4-37.6-65.9,0,0-4.14-6.21-18.85-22.55-14.71-16.34-21.65-18.47-21.65-18.47"/>
      <path class="cls-3" d="M404.89,153.81s-18.64,6.75-32.77,31.49c-3.42,5.99-.12,11.12,2.6,15.03"/>
    </g>
    <g>
      <path class="cls-8" d="M593.58,387s-18.07,5.43-48.24-14.12c0,0,1.98-5.25,15.62-6.1,13.64-.84,36.24,15.99,32.61,20.22Z"/>
      <path class="cls-3" d="M592.9,385.67s-19.86-15.62-47.21-13.31c0,0-9.15,1.57-15.95,6.84"/>
      <path class="cls-8" d="M554.24,346.71s5.81,4.31,13.51-8.26c7.32-11.94,13.46-24.12,11.28-43.79,0,0-23.71,13.03-26.21,26.99-2.49,13.96,1.42,25.06,1.42,25.06Z"/>
      <path d="M600.86,369.17s3.79,5.24-16.5-1.41c-19.16-6.28-18.34-4.58-18.34-4.58,0,0,20.64-5.05,34.84,6Z"/>
      <path class="cls-8" d="M554.72,357.13s.71,5.09,11.86,8.8c11.15,3.7,28.18-2.08,34.27,3.24,0,0-14.67-13.69-46.14-12.04Z"/>
      <path class="cls-3" d="M505.06,404.49c16.15-14.87,33.81-34.12,49.17-57.78,0,0,4.43-6,14.79-25.4,10.36-19.4,10-26.65,10-26.65"/>
      <path class="cls-3" d="M598.94,367.65s-15.76-12.02-44.22-10.52c-6.89.36-10.02,3.72-15.18,10.17"/>
    </g>
    <path class="cls-14" d="M405.62,207.11c5.53,0,10.89-1.94,15.13-5.48l11.78-9.83c4.24-3.54,9.28-5.43,14.44-5.43h58.48c5.31,0,9.61,4.3,9.61,9.61v211.71c0,9.16-7.42,16.58-16.58,16.58H206.96c-7.12,0-12.9-5.77-12.9-12.9v-191.36c0-7.12,5.77-12.9,12.9-12.9h198.66Z"/>
    <path class="cls-10" d="M194.06,412.44s19.84-37.22,21.82-41.49l54.22-110.46c1.36-2.94,4.31-4.81,7.54-4.81h201.49c7.32,0,17.92-3.84,23.54-8.53l8.13-6.78c4.24-3.54,9.28-5.43,14.44-5.43h55.65c5.92,0,9.95,6.02,7.68,11.49l-67.3,162.77c-3.77,9.12-12.67,15.07-22.54,15.07H197.7c-1.96,0-3.77-1.68-3.77-3.64l.13-8.17Z"/>
    <line class="cls-2" x1="276.02" y1="266.18" x2="196.46" y2="420.84"/>
    <path class="cls-2" d="M308.8,292.83h68.54c1.87,0,3.61-.94,4.61-2.49h0c2.32-3.58-.3-8.27-4.61-8.27h-68.54c-1.87,0-3.61.94-4.61,2.49h0c-2.32,3.58.3,8.27,4.61,8.27Z"/>
    <g>
      <g>
        <line class="cls-5" x1="437.01" y1="345.99" x2="383.65" y2="377.78"/>
        <line class="cls-5" x1="393.38" y1="344.46" x2="426.91" y2="377.97"/>
      </g>
      <path class="cls-5" d="M393.66,335.94c-19.61,9.69-27.74,29.05-18.17,43.24,9.57,14.19,33.23,17.84,52.83,8.15,19.61-9.69,27.74-29.05,18.17-43.24-9.57-14.19-33.23-17.84-52.83-8.15Z"/>
    </g>
    <path class="cls-9" d="M207.68,194.9l9.9,11.11s-9.28,10.95-18.71,4.47l-1.51-2.17,10.33-13.41Z"/>
    <path class="cls-3" d="M184.68,128.6s13.56,3.55,2.89,42.75"/>
    <path class="cls-3" d="M208.51,196.07c-7.32-8.22-16.27-18.56-21.55-25.68"/>
    <path class="cls-3" d="M198.86,210.48c-7.02-7.2-16.52-17.45-20.66-21.25-6.46-5.92-13.16-15.45-10.97-27.69l-.26-9.81"/>
    <path class="cls-7" d="M241.03,205.22c-8.65-4.67-12.64-10.46-15.97-14.75-7.96-10.23-10.78-11.5-8.45-23.41l.13-12.46,17.27,18.69c6.59,8.75,21.79,24.43,27.41,30.6,0,0-6.59,8.79-20.39,1.33Z"/>
    <g>
      <path class="cls-16" d="M205.82,202.06c.8-.22,1.62-.29,2.44-.2,2.96.31,10.9,1.15,11.79,1.16,1.1.01,2-1.63,4.37,4.34,2.37,5.97,1.94,6.52,1.93,7.3s-1.73,12.24-3.57,10.52c-1.84-1.72-1.6-2.72-1.6-2.72,0,0-.99,4.65-1.52,4.47s-2.46-.19-2.15-3.47c0,0-1.06,3.19-2.15,2.4-1.09-.79-.85-4.25-.85-4.25,0,0-1.17,2.59-2.5.86-1.33-1.73-.34-5.74-.34-5.74l-1.12-2.98-2.41-1.04s-8.13,2.13-9.53-3.52c-1.07-4.34,4.54-6.41,7.2-7.14Z"/>
      <g>
        <polyline class="cls-3" points="222.17 209.38 223.7 215.8 221.18 222.46"/>
        <polyline class="cls-3" points="218.25 209.14 220.23 215.72 217.51 223.46"/>
        <polyline class="cls-3" points="214.81 209.88 215.97 216.2 214.65 220.93"/>
      </g>
    </g>
    <path class="cls-3" d="M208.18,88.01c-2.88,2.7-2.93,5.98-2.93,5.98,0,0-.99-1.23-2.22-1.62"/>
    <g>
      <g>
        <path class="cls-16" d="M249.38,200.23c2.74-.66,5.64-.21,8.15,1.07,3.3,1.69,8.47,4.32,9.14,4.52,1,.3,1.65-.24,1.78,5.83.05,2.4.05,4.06-.17,4.76-.21.71-5.06,7.95-6.66,6.93-.04-.03-.07-.05-.11-.08-.4.54-.94,1.21-1.48,1.66-.4.34-2.61.29-1.48-2.62,0,0-1.54,3.36-2.73,2.91-1.56-.58-1.3-2.08-.74-3.35-.72.98-1.62,1.77-2.25.93-1.25-1.66,1.58-7.55,1.58-7.55l.33-3.57-2.16-1.93s-7.71.19-7.53-5.31c.09-2.52,2.13-3.69,4.32-4.22Z"/>
        <g>
          <polyline class="cls-3" points="266.31 209.42 266.21 215.93 261.46 222.84"/>
          <polyline class="cls-3" points="262.94 209.47 262.56 216.18 258.55 222.31"/>
          <polyline class="cls-3" points="259.51 209.65 259.03 215.3 255.61 220.98"/>
        </g>
      </g>
      <path class="cls-16" d="M249.75,208.14s.77,5.82-1.11,7.1c-1.88,1.28-4.91-10.77-2.83-10.92,3.05-.23,3.93,3.82,3.93,3.82Z"/>
      <path class="cls-3" d="M252.31,207.3s-1.87.3-2.4,2.5"/>
    </g>
    <path class="cls-3" d="M216.03,179.11l9.09-11.84c8.31-10.99,2.77-22.61,2.77-22.61"/>
    <path class="cls-3" d="M237.29,178.47s-5.35-7.42-6.57-4.14"/>
    <g>
      <line class="cls-1" x1="239.36" y1="116.69" x2="237.81" y2="116.36"/>
      <path class="cls-12" d="M207.13,115.25l-11.42,5.97s-.3,13.55,12.52,23.85l5.76-5.6,5.8,5.81s2.21-1.73,2.86-9.6l-1.03-9.55-14.5-10.88Z"/>
      <polyline class="cls-4" points="221.63 126.14 207.13 115.25 195.71 121.23"/>
      <path class="cls-16" d="M203.81,117.31s3.53,20.64,8.76,22.1c5.23,1.46,8.49-8.86,8.49-8.86l-10.12-28.18-7.12,14.93Z"/>
      <path d="M223,133.04l.06,2.57s-.1.79-2.65,1.08c-11.18-.33-12.06-12.91-12.97-22.92,0,0,16.59,17.27,15.56,19.27Z"/>
      <path class="cls-16" d="M238.65,104.97s2.87,26.16-12.48,30.41c-15.35,4.25-19.02-20.78-18.49-29.43.53-8.66,4.85-12.93,15.61-13.32,15.91-.57,15.36,12.34,15.36,12.34Z"/>
      <path d="M215.67,97.88s-.29,5.5-3.94,6.6l-2.62,8.09s-2.2-3.59-4.62-4.87c0,0-2.67-10.68.69-14.92,3.36-4.24,8.03-6.39,19.33-5.45,8.6.71,13.63,6.81,15.27,9.92.53,1.01,1.83,3.83-1.2,6.58,0,0,.04-2.08-1.72-4.51,0,0-4.12,8.42-21.19-1.43"/>
      <path class="cls-16" d="M200.96,113.95c.95,3.45,3.66,5.73,6.07,5.1s3.59-3.95,2.64-7.4c-.95-3.45-3.66-5.73-6.07-5.1-2.4.64-3.59,3.95-2.64,7.4Z"/>
      <path d="M223.08,115.11c-.04.89.38,1.63.94,1.66.57.03,1.06-.67,1.1-1.56.04-.89-.38-1.63-.94-1.66-.57-.03-1.06.67-1.1,1.56Z"/>
      <path d="M234.92,115.84c-.09.83.25,1.55.76,1.61.51.05.99-.58,1.08-1.41.09-.83-.25-1.55-.76-1.61-.51-.05-.99.58-1.08,1.41Z"/>
      <path class="cls-3" d="M219.7,108.06s4.07.87,4.34-2.98"/>
      <path class="cls-3" d="M233.48,107.75s1.04,3.58,4.09,1.51"/>
      <path d="M222.37,129.44s-1.34-5.46-5.5-2.33l5.5,2.33Z"/>
      <path class="cls-4" d="M203.37,110.95s2.7-2.33,4.18,1.93c0,0-1.58,1.68-.58,2.99,0,0-1.56.35-2.33-1.02"/>
      <path class="cls-4" d="M204.54,112.57s.15-.95,1.2-2.02"/>
      <path class="cls-1" d="M232.57,115.7c0,2.53,1.55,4.58,3.47,4.58s3.47-2.05,3.47-4.58-1.55-4.58-3.47-4.58-3.47,2.05-3.47,4.58Z"/>
      <path class="cls-1" d="M219.59,115.08c0,2.68,1.98,4.85,4.42,4.85s4.42-2.17,4.42-4.85-1.98-4.85-4.42-4.85-4.42,2.17-4.42,4.85Z"/>
      <path class="cls-1" d="M232.73,117.03s-1.07-4.56-4.56-.32"/>
      <line class="cls-1" x1="219.68" y1="113.24" x2="209.42" y2="110.93"/>
      <path class="cls-3" d="M233.16,119.04c.51.65.61,1.41.36,2.25-.25.82-1.09,1.32-1.94,1.3-.39,0-.77-.11-1.14-.23-.16-.05-.48-.22-.66-.15-.85.37-1.83-.36-1.55-.94"/>
    </g>
  </g>
</svg>