<svg xmlns="http://www.w3.org/2000/svg" width="24" height="24" viewBox="0 0 24 24" fill="none">
  <g filter="url(#filter0_i_11240_286770)">
    <path d="M12 22.5C17.799 22.5 22.5 17.799 22.5 12C22.5 6.201 17.799 1.5 12 1.5C6.201 1.5 1.5 6.201 1.5 12C1.5 17.799 6.201 22.5 12 22.5Z" fill="url(#paint0_radial_11240_286770)"/>
    <path d="M12 22.5C17.799 22.5 22.5 17.799 22.5 12C22.5 6.201 17.799 1.5 12 1.5C6.201 1.5 1.5 6.201 1.5 12C1.5 17.799 6.201 22.5 12 22.5Z" fill="url(#paint1_radial_11240_286770)"/>
  </g>
  <g filter="url(#filter1_f_11240_286770)">
    <path d="M14.8566 2.01172L13.8209 2.98672C13.6856 3.11422 13.5066 3.18507 13.3206 3.18472C13.0782 3.18471 12.8427 3.10425 12.6509 2.95597L12.3704 2.73922C12.2097 2.57781 11.9929 2.48459 11.7651 2.47897H10.8216C10.6889 2.47897 10.4774 2.54647 10.3079 2.64247L9.41539 3.14047C9.35551 3.1704 9.30473 3.21581 9.26833 3.272C9.23193 3.32818 9.21124 3.39308 9.20839 3.45997C9.21214 3.66322 9.21214 3.77347 9.21214 3.88972C9.21214 4.00597 9.21214 4.12897 9.21589 4.35922C9.21589 4.58947 9.44389 4.70947 9.62089 4.70197C9.80614 4.68697 9.95314 4.49572 9.95314 4.30972C9.95314 3.56722 10.1571 3.54622 10.3011 3.53122L10.3079 3.53047C10.7474 3.48322 10.7444 3.92947 10.7219 4.42222C10.716 4.53213 10.7125 4.64216 10.7114 4.75222C10.7114 5.18272 10.4234 5.47972 9.98839 5.47972H8.82289C8.61064 5.47597 8.38789 5.37922 8.16889 5.28472C8.03656 5.22361 7.89995 5.17222 7.76014 5.13097C7.45039 5.05672 7.03039 5.03947 7.03039 5.62597V5.85622C7.03039 5.99797 6.93364 6.09472 6.75139 6.16372C6.52864 6.24922 6.28489 6.43822 6.28489 6.71347V7.55497C6.28489 7.81522 6.49864 8.03047 6.76489 8.03047H7.19239C7.54714 8.03047 7.61239 7.60972 7.65739 7.31647L7.67239 7.22572C7.67239 7.08472 7.78264 6.96547 7.93039 6.96547H8.64589C8.71189 6.96547 9.05089 6.97297 9.31714 7.19572L9.64189 7.44847C9.81139 7.61947 10.0326 7.70872 10.2689 7.70872H10.3724C10.4545 7.70995 10.5355 7.69012 10.6077 7.65113C10.6799 7.61213 10.7409 7.55527 10.7849 7.48597L11.2424 6.80272C11.2851 6.73811 11.3433 6.68519 11.4117 6.64878C11.4801 6.61237 11.5564 6.59361 11.6339 6.59422H11.9069C12.0246 6.59422 12.1206 6.69097 12.1206 6.80947V7.16047C12.1206 7.57297 12.5256 7.70797 12.7551 7.70797C13.2201 7.70797 13.6034 8.08747 13.6034 8.55547C13.6032 8.61139 13.588 8.66624 13.5596 8.71439C13.5311 8.76253 13.4904 8.80224 13.4415 8.82942C13.3926 8.8566 13.3374 8.87029 13.2815 8.86907C13.2256 8.86785 13.171 8.85176 13.1234 8.82247C12.7334 8.58472 12.0689 8.39947 11.7366 8.48122C11.4126 8.55547 10.7039 9.20122 10.7039 9.20122C10.7039 9.20122 9.87064 9.39472 9.89239 8.96347V8.75572C9.89989 8.55547 9.70789 8.46622 9.53839 8.46622H8.77114C8.54239 8.46622 8.32114 8.55547 8.15914 8.71897L7.92289 8.95672C7.8438 9.03681 7.74954 9.10035 7.64562 9.14362C7.5417 9.18688 7.43021 9.20901 7.31764 9.20872H6.53539C6.4076 9.20529 6.28051 9.22869 6.16231 9.27739C6.04411 9.32609 5.93743 9.39901 5.84914 9.49147L5.05939 10.3307C4.83599 10.5736 4.71227 10.8917 4.71289 11.2217V11.749C4.71289 12.4105 5.53189 13.666 6.18814 13.666H8.29789C8.98414 13.666 9.53764 14.2225 9.53764 14.9132V16.1912C9.53764 16.4582 9.75889 16.681 10.0251 16.681H10.2824C10.4376 16.681 10.6514 16.786 10.6514 17.2015V18.7682C10.6514 19.2062 11.0061 19.5707 11.4486 19.5707H11.8101C12.0239 19.5707 12.2226 19.4882 12.3704 19.3322L13.4534 18.2335C13.5916 18.0933 13.6692 17.9045 13.6694 17.7077V16.3765C13.6769 16.132 13.8749 15.841 14.1186 15.841C14.2686 15.841 14.4096 15.766 14.4936 15.6422L15.7791 13.75C15.8527 13.6023 15.8905 13.4394 15.8894 13.2745V13.0075C15.8876 12.949 15.8652 12.893 15.8261 12.8494C15.7869 12.8059 15.7336 12.7777 15.6756 12.7697C14.8394 12.595 13.6619 11.9912 13.6619 11.2472V10.9997C13.6619 9.95872 14.5056 9.95872 14.7194 9.95947H14.7239C14.9309 9.95947 15.0929 10.1297 15.0929 10.3307V10.9622C15.0929 11.2292 15.4251 11.5577 15.8999 11.341L16.6559 10.9622C17.0316 10.7687 17.1321 10.3735 16.8434 10.0285C16.5734 9.70597 16.4886 9.16147 17.0601 9.16147H18.1026C19.0461 9.16147 19.5636 10.5962 19.5636 11.4872V11.8885C19.5636 12.0145 19.6671 12.1187 19.7924 12.1187H20.0429C20.1219 12.1184 20.1995 12.0985 20.269 12.061C20.3385 12.0234 20.3976 11.9693 20.4411 11.9035L22.1264 9.59722C21.6856 7.80681 20.7821 6.16365 19.5063 4.83236C18.2306 3.50106 16.6274 2.52837 14.8574 2.01172" fill="url(#paint2_linear_11240_286770)"/>
  </g>
  <g filter="url(#filter2_ii_11240_286770)">
    <path d="M14.9309 1.91406L13.8944 2.88906C13.7592 3.01638 13.5805 3.08722 13.3949 3.08706C13.1524 3.08705 12.9169 3.0066 12.7251 2.85831L12.4446 2.64156C12.2839 2.48015 12.0671 2.38694 11.8394 2.38131H10.8951C10.7624 2.38131 10.5509 2.44881 10.3814 2.54481L9.48811 3.04281C9.42823 3.07274 9.37745 3.11816 9.34105 3.17434C9.30465 3.23053 9.28396 3.29543 9.28111 3.36231C9.28486 3.56631 9.28486 3.67581 9.28486 3.79206C9.28486 3.90831 9.28486 4.03131 9.28861 4.26156C9.28861 4.49181 9.51736 4.61181 9.69436 4.60506C9.87886 4.59006 10.0266 4.39806 10.0266 4.21206C10.0266 3.46956 10.2299 3.44856 10.3746 3.43356L10.3814 3.43281C10.8201 3.38631 10.8179 3.83181 10.7946 4.32456C10.7901 4.43481 10.7849 4.54731 10.7849 4.65456C10.7849 5.08581 10.4969 5.38206 10.0619 5.38206H8.89486C8.68336 5.37831 8.45986 5.28156 8.24086 5.18706C8.10877 5.12598 7.97241 5.0746 7.83286 5.03331C7.52311 4.95906 7.10236 4.94181 7.10236 5.52831V5.75856C7.10236 5.90031 7.00636 5.99706 6.82336 6.06606C6.60136 6.15156 6.35761 6.34056 6.35761 6.61581V7.45731C6.35761 7.71756 6.57136 7.93281 6.83761 7.93281H7.26511C7.61986 7.93281 7.68511 7.51281 7.73011 7.21881L7.74436 7.12881C7.74436 6.98706 7.85536 6.86781 8.00236 6.86781H8.71861C8.78461 6.86781 9.12361 6.87531 9.38986 7.09881L9.71386 7.35081C9.88411 7.52181 10.1054 7.61106 10.3416 7.61106H10.4444C10.5266 7.61243 10.6077 7.59266 10.6801 7.55366C10.7524 7.51465 10.8136 7.45772 10.8576 7.38831L11.3151 6.70506C11.3578 6.64056 11.4158 6.58771 11.4841 6.5513C11.5523 6.5149 11.6285 6.49608 11.7059 6.49656H11.9789C12.0974 6.49656 12.1934 6.59331 12.1934 6.71256V7.06281C12.1934 7.47531 12.5984 7.61031 12.8271 7.61031C13.2921 7.61031 13.6761 7.98981 13.6761 8.45781C13.6759 8.51373 13.6608 8.56859 13.6323 8.61673C13.6039 8.66488 13.5631 8.70458 13.5142 8.73176C13.4654 8.75895 13.4101 8.77263 13.3542 8.77141C13.2983 8.77019 13.2437 8.75411 13.1961 8.72481C12.8054 8.48781 12.1416 8.30181 11.8094 8.38356C11.4846 8.45781 10.7766 9.10356 10.7766 9.10356C10.7766 9.10356 9.94261 9.29706 9.96511 8.86656V8.65806C9.97261 8.45781 9.78061 8.36856 9.61111 8.36856H8.84386C8.61511 8.36856 8.39386 8.45781 8.23111 8.62131L7.99486 8.85906C7.91586 8.93907 7.82172 9.00255 7.71794 9.04581C7.61416 9.08908 7.5028 9.11126 7.39036 9.11106H6.60886C6.48107 9.10764 6.35398 9.13103 6.23578 9.17973C6.11758 9.22843 6.0109 9.30136 5.92261 9.39381L5.13361 10.2331C4.91021 10.4759 4.78649 10.7941 4.78711 11.1241V11.6521C4.78711 12.3121 5.60536 13.5683 6.26236 13.5683H8.37211C9.05836 13.5683 9.61186 14.1248 9.61186 14.8163V16.0936C9.61186 16.3613 9.83311 16.5841 10.0986 16.5841H10.3566C10.5119 16.5841 10.7256 16.6876 10.7256 17.1038V18.6706C10.7256 19.1086 11.0796 19.4731 11.5221 19.4731H11.8836C12.0981 19.4731 12.2969 19.3906 12.4446 19.2346L13.5276 18.1366C13.6657 17.9961 13.743 17.807 13.7429 17.6101V16.2788C13.7504 16.0343 13.9491 15.7433 14.1929 15.7433C14.3429 15.7433 14.4831 15.6683 14.5679 15.5446L15.8526 13.6523C15.9269 13.5038 15.9636 13.3403 15.9636 13.1768V12.9098C15.9618 12.8513 15.9394 12.7953 15.9003 12.7518C15.8611 12.7083 15.8079 12.68 15.7499 12.6721C14.9129 12.4973 13.7354 11.8936 13.7354 11.1496V10.9021C13.7354 9.86106 14.5799 9.86181 14.7936 9.86181H14.7981C15.0044 9.86181 15.1671 10.0321 15.1671 10.2331V10.8646C15.1671 11.1316 15.4994 11.4601 15.9741 11.2433L16.7294 10.8646C17.1059 10.6711 17.2056 10.2758 16.9169 9.93081C16.6476 9.60831 16.5629 9.06381 17.1344 9.06381H18.1769C19.1204 9.06381 19.6379 10.4986 19.6379 11.3896V11.7908C19.6379 11.9176 19.7406 12.0211 19.8666 12.0211H20.1171C20.1961 12.0207 20.2737 12.0009 20.3432 11.9633C20.4127 11.9258 20.4718 11.8717 20.5154 11.8058L22.2006 9.49956C21.7598 7.70906 20.8561 6.06585 19.5802 4.73455C18.3043 3.40325 16.701 2.4306 14.9309 1.91406Z" fill="url(#paint3_radial_11240_286770)"/>
  </g>
  <g filter="url(#filter3_f_11240_286770)">
    <path d="M16.5764 16.1769C16.5764 15.9843 16.4203 15.8281 16.2277 15.8281C16.035 15.8281 15.8789 15.9843 15.8789 16.1769V16.9089C15.8789 17.1015 16.035 17.2576 16.2277 17.2576C16.4203 17.2576 16.5764 17.1015 16.5764 16.9089V16.1769Z" fill="#1C51A0"/>
  </g>
  <g filter="url(#filter4_ii_11240_286770)">
    <path d="M16.6755 16.1424C16.6755 15.9386 16.5103 15.7734 16.3065 15.7734C16.1027 15.7734 15.9375 15.9386 15.9375 16.1424V16.8399C15.9375 17.0437 16.1027 17.2089 16.3065 17.2089C16.5103 17.2089 16.6755 17.0437 16.6755 16.8399V16.1424Z" fill="url(#paint4_linear_11240_286770)"/>
  </g>
  <defs>
    <filter id="filter0_i_11240_286770" x="1.5" y="1.3125" width="21.1875" height="21.1875" filterUnits="userSpaceOnUse" color-interpolation-filters="sRGB">
      <feFlood flood-opacity="0" result="BackgroundImageFix"/>
      <feBlend mode="normal" in="SourceGraphic" in2="BackgroundImageFix" result="shape"/>
      <feColorMatrix in="SourceAlpha" type="matrix" values="0 0 0 0 0 0 0 0 0 0 0 0 0 0 0 0 0 0 127 0" result="hardAlpha"/>
      <feOffset dx="0.1875" dy="-0.1875"/>
      <feGaussianBlur stdDeviation="0.75"/>
      <feComposite in2="hardAlpha" operator="arithmetic" k2="-1" k3="1"/>
      <feColorMatrix type="matrix" values="0 0 0 0 0.388235 0 0 0 0 0.537255 0 0 0 0 0.694118 0 0 0 1 0"/>
      <feBlend mode="normal" in2="shape" result="effect1_innerShadow_11240_286770"/>
    </filter>
    <filter id="filter1_f_11240_286770" x="4.63789" y="1.93672" width="17.5636" height="17.7086" filterUnits="userSpaceOnUse" color-interpolation-filters="sRGB">
      <feFlood flood-opacity="0" result="BackgroundImageFix"/>
      <feBlend mode="normal" in="SourceGraphic" in2="BackgroundImageFix" result="shape"/>
      <feGaussianBlur stdDeviation="0.0375" result="effect1_foregroundBlur_11240_286770"/>
    </filter>
    <filter id="filter2_ii_11240_286770" x="4.71211" y="1.83906" width="17.5636" height="17.6336" filterUnits="userSpaceOnUse" color-interpolation-filters="sRGB">
      <feFlood flood-opacity="0" result="BackgroundImageFix"/>
      <feBlend mode="normal" in="SourceGraphic" in2="BackgroundImageFix" result="shape"/>
      <feColorMatrix in="SourceAlpha" type="matrix" values="0 0 0 0 0 0 0 0 0 0 0 0 0 0 0 0 0 0 127 0" result="hardAlpha"/>
      <feOffset dx="-0.075" dy="-0.075"/>
      <feGaussianBlur stdDeviation="0.0375"/>
      <feComposite in2="hardAlpha" operator="arithmetic" k2="-1" k3="1"/>
      <feColorMatrix type="matrix" values="0 0 0 0 0.403922 0 0 0 0 0.929412 0 0 0 0 0.690196 0 0 0 1 0"/>
      <feBlend mode="normal" in2="shape" result="effect1_innerShadow_11240_286770"/>
      <feColorMatrix in="SourceAlpha" type="matrix" values="0 0 0 0 0 0 0 0 0 0 0 0 0 0 0 0 0 0 127 0" result="hardAlpha"/>
      <feOffset dx="0.075" dy="-0.075"/>
      <feGaussianBlur stdDeviation="0.0375"/>
      <feComposite in2="hardAlpha" operator="arithmetic" k2="-1" k3="1"/>
      <feColorMatrix type="matrix" values="0 0 0 0 0.203922 0 0 0 0 0.592157 0 0 0 0 0.482353 0 0 0 1 0"/>
      <feBlend mode="normal" in2="effect1_innerShadow_11240_286770" result="effect2_innerShadow_11240_286770"/>
    </filter>
    <filter id="filter3_f_11240_286770" x="15.7289" y="15.6781" width="0.997266" height="1.72969" filterUnits="userSpaceOnUse" color-interpolation-filters="sRGB">
      <feFlood flood-opacity="0" result="BackgroundImageFix"/>
      <feBlend mode="normal" in="SourceGraphic" in2="BackgroundImageFix" result="shape"/>
      <feGaussianBlur stdDeviation="0.075" result="effect1_foregroundBlur_11240_286770"/>
    </filter>
    <filter id="filter4_ii_11240_286770" x="15.9" y="15.7359" width="0.812793" height="1.50859" filterUnits="userSpaceOnUse" color-interpolation-filters="sRGB">
      <feFlood flood-opacity="0" result="BackgroundImageFix"/>
      <feBlend mode="normal" in="SourceGraphic" in2="BackgroundImageFix" result="shape"/>
      <feColorMatrix in="SourceAlpha" type="matrix" values="0 0 0 0 0 0 0 0 0 0 0 0 0 0 0 0 0 0 127 0" result="hardAlpha"/>
      <feOffset dx="-0.0375" dy="0.0375"/>
      <feGaussianBlur stdDeviation="0.0375"/>
      <feComposite in2="hardAlpha" operator="arithmetic" k2="-1" k3="1"/>
      <feColorMatrix type="matrix" values="0 0 0 0 0.423529 0 0 0 0 0.960784 0 0 0 0 0.721569 0 0 0 1 0"/>
      <feBlend mode="normal" in2="shape" result="effect1_innerShadow_11240_286770"/>
      <feColorMatrix in="SourceAlpha" type="matrix" values="0 0 0 0 0 0 0 0 0 0 0 0 0 0 0 0 0 0 127 0" result="hardAlpha"/>
      <feOffset dx="0.0375" dy="-0.0375"/>
      <feGaussianBlur stdDeviation="0.075"/>
      <feComposite in2="hardAlpha" operator="arithmetic" k2="-1" k3="1"/>
      <feColorMatrix type="matrix" values="0 0 0 0 0.254902 0 0 0 0 0.568627 0 0 0 0 0.513726 0 0 0 1 0"/>
      <feBlend mode="normal" in2="effect1_innerShadow_11240_286770" result="effect2_innerShadow_11240_286770"/>
    </filter>
    <radialGradient id="paint0_radial_11240_286770" cx="0" cy="0" r="1" gradientUnits="userSpaceOnUse" gradientTransform="translate(17.0675 8.71384) rotate(122.072) scale(15.8551 17.9689)">
      <stop stop-color="#63D8FF"/>
      <stop offset="1" stop-color="#3488EF"/>
    </radialGradient>
    <radialGradient id="paint1_radial_11240_286770" cx="0" cy="0" r="1" gradientUnits="userSpaceOnUse" gradientTransform="translate(19.3155 7.215) rotate(137.749) scale(19.553 25.8797)">
      <stop offset="0.496" stop-color="#465DC2" stop-opacity="0"/>
      <stop offset="1" stop-color="#465DC2"/>
    </radialGradient>
    <linearGradient id="paint2_linear_11240_286770" x1="14.4216" y1="4.61422" x2="8.56264" y2="15.8642" gradientUnits="userSpaceOnUse">
      <stop stop-color="#40B9F0"/>
      <stop offset="1" stop-color="#305CBD"/>
    </linearGradient>
    <radialGradient id="paint3_radial_11240_286770" cx="0" cy="0" r="1" gradientUnits="userSpaceOnUse" gradientTransform="translate(18.1626 6.40656) rotate(133.768) scale(15.1713 13.9975)">
      <stop offset="0.292" stop-color="#78FFB5"/>
      <stop offset="1" stop-color="#409A79"/>
    </radialGradient>
    <linearGradient id="paint4_linear_11240_286770" x1="15.9375" y1="16.4912" x2="16.836" y2="16.4912" gradientUnits="userSpaceOnUse">
      <stop stop-color="#55CC9B"/>
      <stop offset="1" stop-color="#53C999"/>
    </linearGradient>
  </defs>
</svg>