<svg width="24" height="20" viewBox="0 0 24 20" fill="none" xmlns="http://www.w3.org/2000/svg">
<path d="M0.531072 19.996H23.0994C23.3236 19.996 23.5055 19.8141 23.5055 19.5898V17.3338C23.5055 17.2238 23.4632 17.117 23.386 17.0388C23.3098 16.9626 23.2062 16.9192 23.0994 16.9192H21.2493V7.17177C21.2493 6.94755 21.0674 6.76562 20.8432 6.76562H16.3297C16.1044 6.76562 15.9236 6.94755 15.9236 7.17177V16.9192H14.4765V10.5617C14.4765 10.3375 14.2957 10.1556 14.0704 10.1556H9.56017C9.33487 10.1556 9.15399 10.3375 9.15399 10.5617V16.9247H7.70697V12.821C7.70697 12.5957 7.5261 12.4148 7.3008 12.4148H2.78736C2.56311 12.4148 2.38118 12.5957 2.38118 12.821V16.9247H0.531177C0.306935 16.9247 0.125 17.1066 0.125 17.3308V19.59C0.125 19.8142 0.306829 19.996 0.531072 19.996ZM16.7359 7.58312H20.437V16.9244H16.7359V7.58312ZM9.96629 10.9677H13.6641V16.9244H9.96629V10.9677ZM3.19668 13.2258L6.89451 13.2268V16.9244H3.19343L3.19668 13.2258ZM0.937303 17.7367H22.6932V19.1825L0.937303 19.1836V17.7367Z" fill="white"/>
<path d="M5.04602 8.71212C5.10948 8.71212 5.17083 8.69731 5.22795 8.66875L17.8893 2.33858L17.077 4.79132C17.0442 4.89603 17.0537 5.00814 17.1055 5.10546C17.1563 5.20171 17.243 5.27363 17.3477 5.30642C17.39 5.32017 17.4334 5.32651 17.4778 5.32757C17.6503 5.32757 17.8036 5.21863 17.8618 5.05681L18.9883 1.67227C18.9989 1.64688 19.0053 1.62044 19.0074 1.594V1.5665C19.0095 1.54958 19.0095 1.53266 19.0074 1.51573C19.0063 1.50304 19.0063 1.49141 19.0074 1.47977V1.43641C19.0021 1.41949 18.9947 1.4015 18.9862 1.38564V1.36449V1.36343V1.34439C18.9778 1.32747 18.9672 1.3116 18.9566 1.29574L18.9291 1.26612L18.8561 1.22805L18.8212 1.20372L18.7937 1.18257L18.726 1.15295L15.3358 0.023355C15.1232 -0.0517384 14.8905 0.0603737 14.8154 0.271907C14.7413 0.4845 14.8524 0.717177 15.065 0.792287L17.5179 1.60458L4.86415 7.94314C4.69703 8.02775 4.60818 8.21601 4.65154 8.399C4.69491 8.58197 4.85775 8.71212 5.04602 8.71212Z" fill="white"/>
</svg>
