<svg width="32" height="32" viewBox="0 0 32 32" fill="none" xmlns="http://www.w3.org/2000/svg">
<rect x="0.25" y="0.25" width="31.5" height="31.5" rx="15.75" stroke="#5840BA" stroke-width="0.5"/>
<path d="M23.8423 16.3736H22.7682C22.5858 16.3736 22.444 16.2159 22.444 16.0131C22.444 15.8103 22.5858 15.6526 22.7682 15.6526H23.8423C24.0247 15.6526 24.1665 15.8103 24.1665 16.0131C24.1665 16.1934 24.0247 16.3736 23.8423 16.3736Z" fill="#5840BA"/>
<path d="M17.7173 16.3736H7.92911C7.74672 16.3736 7.60486 16.2159 7.60486 16.0131C7.60486 15.8103 7.74672 15.6526 7.92911 15.6526H17.7376C17.92 15.6526 18.0618 15.8103 18.0618 16.0131C18.0416 16.1934 17.8997 16.3736 17.7173 16.3736Z" fill="#5840BA"/>
<path d="M20.2283 18.1062C19.1745 18.1062 18.3436 17.1598 18.3436 16.0106C18.3436 14.8389 19.1948 13.915 20.2283 13.915C21.2821 13.915 22.113 14.8614 22.113 16.0106C22.113 17.1598 21.2619 18.1062 20.2283 18.1062ZM20.2283 14.6136C19.5393 14.6136 18.9921 15.2445 18.9921 15.9881C18.9921 16.7542 19.5596 17.3626 20.2283 17.3626C20.9173 17.3626 21.4645 16.7317 21.4645 15.9881C21.4645 15.2445 20.9173 14.6136 20.2283 14.6136Z" fill="#5840BA"/>
<path d="M8.17544 21.4635H9.24951C9.4319 21.4635 9.57376 21.3058 9.57376 21.103C9.57376 20.9002 9.4319 20.7424 9.24951 20.7424H8.17544C7.99305 20.7424 7.8512 20.9002 7.8512 21.103C7.8512 21.3058 7.99305 21.4635 8.17544 21.4635Z" fill="#5840BA"/>
<path d="M14.2753 21.4635H24.0838C24.2662 21.4635 24.408 21.3058 24.408 21.103C24.408 20.9002 24.2662 20.7424 24.0838 20.7424H14.2753C14.0929 20.7424 13.951 20.9002 13.951 21.103C13.951 21.3058 14.0929 21.4635 14.2753 21.4635Z" fill="#5840BA"/>
<path d="M9.86914 21.1053C9.86914 19.9336 10.7203 19.0098 11.7538 19.0098C12.8076 19.0098 13.6385 19.9562 13.6385 21.1053C13.6385 22.277 12.7874 23.2009 11.7538 23.2009C10.7203 23.2009 9.86914 22.2545 9.86914 21.1053ZM10.5176 21.1053C10.5176 21.8715 11.0851 22.4798 11.7538 22.4798C12.4429 22.4798 12.99 21.8489 12.99 21.1053C12.99 20.3392 12.4226 19.7308 11.7538 19.7308C11.0851 19.7308 10.5176 20.3392 10.5176 21.1053Z" fill="#5840BA"/>
<path d="M7.92911 11.2589H9.00317C9.18556 11.2589 9.32742 11.1012 9.32742 10.8984C9.32742 10.6956 9.18556 10.5378 9.00317 10.5378H7.92911C7.74672 10.5378 7.60486 10.6956 7.60486 10.8984C7.60486 11.1012 7.74672 11.2589 7.92911 11.2589Z" fill="#5840BA"/>
<path d="M14.0292 11.2589H23.8377C24.0201 11.2589 24.1619 11.1012 24.1619 10.8984C24.1619 10.6956 24.0201 10.5378 23.8377 10.5378H14.0292C13.8468 10.5378 13.705 10.6956 13.705 10.8984C13.705 11.1012 13.8468 11.2589 14.0292 11.2589Z" fill="#5840BA"/>
<path d="M9.63245 10.8966C9.63245 9.72488 10.4836 8.80103 11.5171 8.80103C12.5709 8.80103 13.4018 9.74741 13.4018 10.8966C13.4018 12.0683 12.5507 12.9922 11.5171 12.9922C10.4836 13.0147 9.63245 12.0683 9.63245 10.8966ZM10.2809 10.8966C10.2809 11.6627 10.8484 12.2711 11.5171 12.2711C12.2062 12.2711 12.7533 11.6402 12.7533 10.8966C12.7533 10.1305 12.1859 9.52208 11.5171 9.52208C10.8484 9.52208 10.2809 10.1305 10.2809 10.8966Z" fill="#5840BA"/>
</svg>
