<svg xmlns="http://www.w3.org/2000/svg" width="24" height="24" viewBox="0 0 24 24" fill="none">
  <path d="M8.69083 23.2094C0.528828 22.0074 0.666161 13.8114 0.666161 11.332H23.3328C23.3328 12.608 23.3908 21.8454 14.5828 23.2774C13.2215 23.4987 10.2775 23.4434 8.69083 23.2094Z" fill="#292F33"/>
  <path d="M22.259 8.83188C23.9037 5.11588 16.705 5.32921 14.9023 5.91054C13.939 5.7986 12.9701 5.74206 12.0003 5.74121C5.74101 5.74121 0.667009 7.89321 0.667009 11.3705C0.667009 12.0432 0.861009 12.6899 1.21234 13.2979C-1.67232 17.1059 4.04301 17.8219 7.33501 17.1045C8.75901 17.4625 10.335 17.6672 12.0003 17.6672C18.2597 17.6672 23.3337 14.8479 23.3337 11.3712C23.3337 10.4179 22.941 9.56854 22.259 8.83188Z" fill="#66757F"/>
  <path d="M12 16.6654C17.5228 16.6654 22 14.576 22 11.9987C22 9.42137 17.5228 7.33203 12 7.33203C6.47715 7.33203 2 9.42137 2 11.9987C2 14.576 6.47715 16.6654 12 16.6654Z" fill="#FFCC4D"/>
  <path d="M2.66705 10.6667C2.30572 9.22067 4.00039 6.66667 7.33372 7.33333C8.00039 6.66667 9.22572 6 11.3337 6C12.6671 6 15.0751 7.18333 14.0004 9.33333C13.3337 10.6667 10.6671 12.6667 7.33372 11.3333C6.66706 12 3.33372 13.3333 2.66705 10.6667Z" fill="#77B255"/>
  <path d="M7.99888 11.3315C7.83288 11.3555 7.68487 11.3801 7.54688 11.4055C10.7789 12.5695 13.3469 10.6355 13.9989 9.33148C14.7175 7.89415 13.8782 6.89148 12.8449 6.38281C13.1075 7.59748 12.0929 10.7468 7.99888 11.3315Z" fill="#5C913B"/>
  <path d="M3.33451 10.6677C3.68451 9.7924 6.66785 8.66773 10.0012 12.6677C10.6678 13.3344 13.0585 13.7251 14.0012 14.6677C14.6678 15.3344 14.0012 16.0011 11.3345 16.0011C8.66785 16.0011 2.00118 14.0011 3.33451 10.6677Z" fill="#D45425"/>
  <path d="M4.02734 13.3438C5.72601 15.0391 9.48734 15.9984 11.3333 15.9984C14 15.9984 14.6667 15.3318 14 14.6651C13.7827 14.4478 13.4867 14.2604 13.1547 14.0917C11.0187 15.2471 5.36801 13.9958 4.02734 13.3438Z" fill="#AE411A"/>
  <path d="M17.9998 12.6665C17.8604 12.6665 17.7178 12.6438 17.5778 12.5971L15.5778 11.9305C15.2423 11.8186 14.9649 11.5781 14.8068 11.2618C14.6486 10.9455 14.6226 10.5793 14.7344 10.2438C14.8463 9.90829 15.0868 9.63096 15.4031 9.47281C15.7194 9.31465 16.0856 9.28863 16.4211 9.40046L18.4211 10.0671C18.7223 10.1666 18.9781 10.3702 19.1426 10.6414C19.3072 10.9125 19.3697 11.2334 19.3189 11.5465C19.2682 11.8595 19.1075 12.1443 18.8657 12.3495C18.624 12.5548 18.3169 12.6672 17.9998 12.6665ZM17.3331 14.6658H15.9998C15.823 14.6658 15.6534 14.5956 15.5284 14.4705C15.4033 14.3455 15.3331 14.1759 15.3331 13.9991C15.3331 13.8223 15.4033 13.6527 15.5284 13.5277C15.6534 13.4027 15.823 13.3325 15.9998 13.3325H17.3331C17.5099 13.3325 17.6795 13.4027 17.8045 13.5277C17.9295 13.6527 17.9998 13.8223 17.9998 13.9991C17.9998 14.1759 17.9295 14.3455 17.8045 14.4705C17.6795 14.5956 17.5099 14.6658 17.3331 14.6658Z" fill="#FFE8B6"/>
</svg>