<svg width="40" height="40" viewBox="0 0 40 40" fill="none" xmlns="http://www.w3.org/2000/svg">
<rect x="0.25" y="0.25" width="39.5" height="39.5" rx="19.75" stroke="#67BA40" stroke-width="0.5"/>
<path d="M30.5 20.0005C30.5006 20.2551 30.4353 20.5056 30.3105 20.7275C30.1856 20.9495 30.0055 21.1353 29.7875 21.267L16.28 29.5302C16.0523 29.6696 15.7914 29.7457 15.5244 29.7507C15.2575 29.7556 14.994 29.6892 14.7613 29.5583C14.5307 29.4294 14.3387 29.2414 14.2049 29.0137C14.0711 28.786 14.0004 28.5268 14 28.2627V11.7383C14.0004 11.4742 14.0711 11.2149 14.2049 10.9872C14.3387 10.7595 14.5307 10.5715 14.7613 10.4427C14.994 10.3117 15.2575 10.2453 15.5244 10.2503C15.7914 10.2552 16.0523 10.3313 16.28 10.4708L29.7875 18.7339C30.0055 18.8656 30.1856 19.0515 30.3105 19.2734C30.4353 19.4953 30.5006 19.7458 30.5 20.0005Z" fill="#67BA40"/>
</svg>
