<svg xmlns="http://www.w3.org/2000/svg" width="25" height="24" viewBox="0 0 25 24" fill="none" stroke="white">
  <path d="M7.49975 6V5C7.49975 3.586 7.49975 2.879 7.93975 2.44C8.37775 2 9.08475 2 10.4997 2H14.4997C15.9137 2 16.6207 2 17.0597 2.44C17.4997 2.878 17.4997 3.585 17.4997 5V6C17.4997 7.414 17.4997 8.121 17.0597 8.56C16.6217 9 15.9147 9 14.4997 9H13.4997L10.4997 11V9C9.08575 9 8.37875 9 7.93975 8.56C7.49975 8.122 7.49975 7.415 7.49975 6ZM4.08975 18.74C3.46075 19.162 1.81275 20.022 2.81675 21.098C3.30675 21.624 3.85375 22 4.53975 22H8.45975C9.14575 22 9.69275 21.624 10.1827 21.098C11.1867 20.022 9.53875 19.162 8.90975 18.741C8.19876 18.2582 7.35916 18.0001 6.49975 18.0001C5.64034 18.0001 4.80073 18.2572 4.08975 18.74ZM16.0897 18.74C15.4607 19.162 13.8127 20.022 14.8167 21.098C15.3067 21.624 15.8537 22 16.5397 22H20.4597C21.1457 22 21.6927 21.624 22.1827 21.098C23.1867 20.022 21.5387 19.162 20.9097 18.741C20.1988 18.2582 19.3592 18.0001 18.4997 18.0001C17.6403 18.0001 16.8007 18.2572 16.0897 18.74ZM8.49975 13.5C8.49975 14.0304 8.28903 14.5391 7.91396 14.9142C7.53889 15.2893 7.03018 15.5 6.49975 15.5C5.96931 15.5 5.46061 15.2893 5.08553 14.9142C4.71046 14.5391 4.49975 14.0304 4.49975 13.5C4.49975 12.9696 4.71046 12.4609 5.08553 12.0858C5.46061 11.7107 5.96931 11.5 6.49975 11.5C7.03018 11.5 7.53889 11.7107 7.91396 12.0858C8.28903 12.4609 8.49975 12.9696 8.49975 13.5ZM20.4997 13.5C20.4997 14.0304 20.289 14.5391 19.914 14.9142C19.5389 15.2893 19.0302 15.5 18.4997 15.5C17.9693 15.5 17.4606 15.2893 17.0855 14.9142C16.7105 14.5391 16.4997 14.0304 16.4997 13.5C16.4997 12.9696 16.7105 12.4609 17.0855 12.0858C17.4606 11.7107 17.9693 11.5 18.4997 11.5C19.0302 11.5 19.5389 11.7107 19.914 12.0858C20.289 12.4609 20.4997 12.9696 20.4997 13.5Z"  stroke-width="1.2" stroke-linecap="round" stroke-linejoin="round"/>
</svg>