<svg width="47" height="64" viewBox="0 0 47 64" fill="none" xmlns="http://www.w3.org/2000/svg">
<g clip-path="url(#clip0_940_12541)">
<g filter="url(#filter0_d_940_12541)">
<path d="M22.5867 8.49837C22.5867 8.49837 21.8999 8.29748 21.4306 8.22993C20.7869 8.13571 20.8498 7.62193 20.8498 7.62193C20.9289 6.35795 20.8732 5.55262 20.8732 5.55262L16.9768 5.4104C16.9498 7.21305 16.3187 9.72502 14.8066 13.5668C13.2926 17.4085 11.5198 16.2743 8.97912 20.2031C6.09326 24.6653 8.77235 28.7346 8.77235 28.7346L10.3672 29.0546L16.7575 23.2556C16.7575 23.2556 17.1584 18.8254 17.4857 17.0441C17.8129 15.2627 19.3412 14.1374 19.3412 14.1374L19.6739 13.0885C20.0281 11.9703 21.1087 11.2272 22.2918 11.309C22.3566 11.3143 22.4968 11.3215 22.4968 11.3215L22.5903 8.49837H22.5867Z" fill="#FF725E"/>
<path d="M20.341 11.3746C20.341 11.3746 20.2996 11.3462 20.2421 11.2822C20.1845 11.2164 20.109 11.1151 20.0335 10.9782C19.8807 10.708 19.7404 10.2795 19.78 9.79954C19.8213 9.31955 20.0317 8.91955 20.2295 8.67955C20.3284 8.55689 20.4201 8.46978 20.4866 8.41467C20.5549 8.35956 20.5963 8.33467 20.5999 8.33822C20.6107 8.35067 20.4596 8.47156 20.2816 8.71689C20.1036 8.96044 19.913 9.34799 19.8735 9.80665C19.8339 10.2653 19.958 10.6778 20.0928 10.948C20.2259 11.22 20.3553 11.364 20.3428 11.3746H20.341Z" fill="#263238"/>
<path d="M20.875 5.50275C20.8642 5.78363 19.9814 5.97919 18.9043 5.9383C17.8273 5.89741 16.9625 5.63786 16.9732 5.35697C16.984 5.07609 17.8669 4.88053 18.9439 4.92142C20.0209 4.96231 20.8858 5.22186 20.875 5.50275Z" fill="#FF725E"/>
<g opacity="0.3">
<path d="M20.875 5.50275C20.8642 5.78363 19.9814 5.97919 18.9043 5.9383C17.8273 5.89741 16.9625 5.63786 16.9732 5.35697C16.984 5.07609 17.8669 4.88053 18.9439 4.92142C20.0209 4.96231 20.8858 5.22186 20.875 5.50275Z" fill="black"/>
</g>
<path d="M20.8623 5.52937C20.8623 5.52937 20.8551 5.5436 20.8371 5.56315C20.8191 5.58271 20.7886 5.61293 20.7454 5.64137C20.6609 5.7036 20.5225 5.77471 20.3427 5.82982C19.983 5.94359 19.4598 5.99515 18.8898 5.96848C18.3217 5.94004 17.8038 5.86537 17.4496 5.73204C17.2734 5.66626 17.1385 5.58626 17.0612 5.51515C17.0217 5.4796 16.9947 5.4476 16.9803 5.42449C16.9641 5.40138 16.9587 5.38893 16.9605 5.38715C16.9695 5.38004 17.0001 5.42982 17.0846 5.48671C17.1655 5.54715 17.2968 5.61471 17.473 5.66982C17.8218 5.78359 18.3324 5.84759 18.8952 5.87604C19.458 5.9027 19.9705 5.86004 20.3247 5.76759C20.6843 5.68048 20.8533 5.51693 20.8641 5.52937H20.8623Z" fill="#263238"/>
<g opacity="0.2">
<path d="M12.9313 17.5633C10.5363 18.4202 9.51677 20.3189 9.05288 22.31C8.92881 22.8433 8.86948 23.4122 9.05288 23.9277C9.23628 24.4433 9.71815 24.8859 10.2702 24.8842C10.9534 24.8806 11.4569 24.2442 11.7194 23.622C11.9819 22.998 12.1329 22.2993 12.6076 21.8122C13.3682 21.0335 14.7545 21.0193 15.364 20.1215C15.7955 19.4869 15.6409 18.5624 15.0889 18.0273C14.5369 17.4922 13.6703 17.3429 12.9313 17.5651" fill="#F9F9F9"/>
</g>
<path d="M17.4856 6.74902C17.4856 6.74902 17.4784 6.8628 17.446 7.06369C17.4155 7.26457 17.3633 7.55613 17.2914 7.91346C17.1493 8.62812 16.9138 9.60944 16.5812 10.6725C16.2485 11.7356 15.8817 12.6761 15.5904 13.3463C15.4448 13.6805 15.3225 13.9507 15.2326 14.1338C15.1427 14.3169 15.0906 14.4183 15.0852 14.4147C15.0798 14.4112 15.1211 14.3063 15.2003 14.1196C15.2794 13.933 15.3927 13.6592 15.5311 13.3232C15.8044 12.6476 16.1604 11.7072 16.4931 10.6459C16.8239 9.58633 17.0684 8.61034 17.2285 7.90101C17.3076 7.54546 17.3705 7.25746 17.4119 7.05835C17.4532 6.85924 17.4802 6.74902 17.4874 6.7508L17.4856 6.74902Z" fill="#F9F9F9"/>
<path d="M21.6607 8.77732C21.6607 8.8022 21.4521 8.82176 21.1932 8.8182C20.9361 8.81465 20.7275 8.79154 20.7275 8.76665C20.7275 8.74176 20.9361 8.72221 21.195 8.72576C21.4522 8.72932 21.6607 8.75243 21.6607 8.77732Z" fill="#F9F9F9"/>
</g>
<path d="M37.523 12.7918C36.9944 11.766 36.1403 10.9411 35.1154 10.3936C34.8601 10.2567 34.603 10.134 34.3476 10.022C33.8963 9.82647 33.6608 9.33225 33.7974 8.8647C33.8999 8.51449 34.0402 8.27093 34.0402 8.27093L32.0318 7.3945C31.9149 7.66827 31.7818 7.90649 31.6398 8.11271C31.1723 8.79537 30.1672 8.83626 29.6601 8.18382C29.5523 8.04516 29.448 7.89227 29.3509 7.7216C28.655 6.50384 28.7503 6.12695 28.7503 6.12695L25.3251 6.83095C25.3251 6.83095 25.5139 8.37404 25.3646 9.01759C25.2172 9.65403 24.872 10.134 24.5717 10.4522C20.7185 12.5553 19.1847 14.2638 19.1847 14.2638L16.342 16.9766L15.9231 20.5304L16.4985 24.4059L24.7335 23.3161C24.7335 23.3161 30.009 18.4273 30.0755 18.2548C30.142 18.0824 34.3243 17.3037 34.3243 17.3037L37.8107 16.1109C38.2836 14.8558 37.9851 13.6878 37.5248 12.7936L37.523 12.7918Z" fill="#FF725E"/>
<g opacity="0.3" filter="url(#filter1_d_940_12541)">
<path d="M37.523 12.7918C36.9944 11.766 36.1403 10.9411 35.1154 10.3936C34.8601 10.2567 34.603 10.134 34.3476 10.022C33.8963 9.82647 33.6608 9.33225 33.7974 8.8647C33.8999 8.51449 34.0402 8.27093 34.0402 8.27093L32.0318 7.3945C31.9149 7.66827 31.7818 7.90649 31.6398 8.11271C31.1723 8.79537 30.1672 8.83626 29.6601 8.18382C29.5523 8.04516 29.448 7.89227 29.3509 7.7216C28.655 6.50384 28.7503 6.12695 28.7503 6.12695L25.3251 6.83095C25.3251 6.83095 25.5139 8.37404 25.3646 9.01759C25.2172 9.65403 24.872 10.134 24.5717 10.4522C20.7185 12.5553 19.1847 14.2638 19.1847 14.2638L16.342 16.9766L15.9231 20.5304L16.4985 24.4059L24.7335 23.3161C24.7335 23.3161 30.009 18.4273 30.0755 18.2548C30.142 18.0824 34.3243 17.3037 34.3243 17.3037L37.8107 16.1109C38.2836 14.8558 37.9851 13.6878 37.5248 12.7936L37.523 12.7918Z" fill="black"/>
</g>
<g filter="url(#filter2_d_940_12541)">
<path d="M20.4776 22.1242C19.0859 22.5491 6.10759 25.6228 7.30329 35.0734C8.49719 44.524 14.0334 49.0093 16.8437 51.4893C19.6541 53.9692 23.6673 57.7843 28.157 56.5879C32.6449 55.3914 37.7064 46.4671 39.2815 41.9498C40.8548 37.4325 41.6154 31.9303 38.9291 29.749L25.5552 20.3145C25.5552 20.3145 22.6316 21.4647 20.4794 22.1224L20.4776 22.1242Z" fill="#FF725E"/>
</g>
<g opacity="0.2">
<path d="M31.7729 28.1396C31.7729 28.1396 33.046 30.7156 36.0685 31.0001C38.8734 31.265 39.3643 30.1663 39.3643 30.1663C39.0694 29.841 38.6559 29.5227 38.1632 29.2116L31.7729 28.1396Z" fill="black"/>
</g>
<path d="M22.9875 9.93849C22.9588 10.7118 22.7358 11.3323 22.4931 11.3216C22.2485 11.3127 22.0759 10.678 22.1047 9.90472C22.1335 9.13139 22.3564 8.51095 22.5992 8.52162C22.8437 8.53051 23.0163 9.16517 22.9875 9.93849Z" fill="#FF725E"/>
<path d="M28.7451 6.12718C28.7991 6.3654 28.078 6.72629 27.1359 6.93251C26.1937 7.13873 25.3864 7.11384 25.3324 6.87562C25.2785 6.6374 25.9995 6.27651 26.9417 6.07029C27.8839 5.86407 28.6912 5.88896 28.7433 6.12718H28.7451Z" fill="#263238"/>
<path d="M22.1265 21.5832C22.1265 21.5832 25.5823 16.5841 32.6756 15.729C32.6756 15.729 36.3292 15.0037 40.8261 17.3663L39.1701 22.5058C39.1701 22.5058 36.9621 21.7432 34.6373 22.28C34.6373 22.28 30.7103 23.2009 30.5719 27.096" fill="#FF725E"/>
<path d="M40.5527 20.1239C40.078 21.5372 39.4019 22.5879 39.0423 22.4705C38.6827 22.3532 38.7744 21.1105 39.2473 19.6954C39.7202 18.2803 40.398 17.2315 40.7576 17.3488C41.1173 17.4661 41.0256 18.7088 40.5527 20.1239Z" fill="#FF725E"/>
<g opacity="0.2">
<path d="M22.1443 27.7257C22.2864 27.7293 22.423 27.7257 22.5777 27.7008C22.7251 27.6724 22.8689 27.6226 22.9948 27.5551C23.2537 27.4217 23.4641 27.2369 23.6601 27.0537C23.759 26.9631 23.8543 26.8689 23.9514 26.7853C24.0502 26.7053 24.1473 26.6217 24.248 26.6253C24.5285 26.6129 24.7892 26.5577 25.05 26.5595C25.1147 26.5595 25.1794 26.5649 25.2388 26.5791C25.2999 26.5915 25.3538 26.6182 25.3898 26.6591C25.4671 26.7622 25.5588 26.8706 25.6541 26.9631C25.7512 27.0573 25.8555 27.1444 25.967 27.2191C26.0784 27.2902 26.2025 27.3631 26.3392 27.3631C26.2025 27.3542 26.0874 27.2742 25.9813 27.1977C25.8771 27.116 25.78 27.0235 25.6919 26.9257C25.602 26.8262 25.5264 26.7249 25.4509 26.6093C25.4024 26.5453 25.3305 26.5097 25.2621 26.4902C25.192 26.4689 25.1219 26.46 25.0536 26.4546C24.7767 26.4351 24.5034 26.4742 24.2462 26.4671C24.2193 26.4653 24.1599 26.4706 24.1222 26.4795C24.0862 26.4938 24.0431 26.5044 24.0125 26.524C23.946 26.5595 23.8866 26.6004 23.8309 26.6413C23.7194 26.7249 23.6187 26.812 23.5144 26.8955C23.3095 27.0626 23.1009 27.2191 22.8743 27.3186C22.7611 27.3702 22.6442 27.4004 22.5291 27.4164C22.4176 27.4271 22.2846 27.4235 22.1587 27.4111C21.6517 27.3613 21.1356 27.2066 20.6681 27.0093V27.0129C20.438 26.5684 20.2798 26.0884 20.2384 25.596C20.2114 25.3471 20.2132 25.0964 20.242 24.8493C20.2564 24.7267 20.2762 24.604 20.3031 24.4831C20.3301 24.3658 20.3661 24.2396 20.4056 24.1436L20.3966 24.14C20.5459 23.9267 20.7095 23.724 20.8857 23.5302C21.0008 23.404 21.1194 23.2813 21.2435 23.1658C21.3046 23.1089 21.3694 23.0538 21.4323 23.0005C21.4647 22.9756 21.497 22.9489 21.5258 22.9293C21.542 22.9169 21.5564 22.908 21.5689 22.9009C21.5743 22.8991 21.5851 22.8902 21.5833 22.892C21.5833 22.892 21.5815 22.892 21.5797 22.892L21.4485 22.4902C21.4269 22.4991 21.4053 22.508 21.3837 22.5187C21.3622 22.5293 21.3568 22.5347 21.3424 22.5436C21.3154 22.5596 21.2938 22.5756 21.2759 22.5898C21.2345 22.62 21.1986 22.6502 21.1608 22.6805C21.0889 22.7409 21.0205 22.8031 20.954 22.8671C20.821 22.9933 20.6969 23.1249 20.5764 23.2618C20.375 23.4911 20.1898 23.7347 20.0208 23.9889L20.0082 23.9836C20.0029 23.9996 19.9993 24.0138 19.9939 24.0298C19.9705 24.0653 19.9471 24.0991 19.9255 24.1329C19.5372 24.748 19.3178 25.4324 18.8737 25.916C18.764 26.0386 18.6381 26.1453 18.5069 26.2449C18.3702 26.3426 18.2336 26.4262 18.0753 26.5133C17.7661 26.6875 17.4586 26.8671 17.1565 27.0573C16.8545 27.2493 16.5578 27.452 16.2791 27.6831C16.0454 27.8822 15.8152 28.0991 15.639 28.3711C15.0816 28.3391 14.5332 28.316 13.9596 28.3711C13.8841 28.3817 13.8104 28.3888 13.7295 28.4084C13.6917 28.4155 13.6504 28.4262 13.6072 28.4422L13.5443 28.4653L13.4903 28.4937C13.3483 28.572 13.235 28.6537 13.1163 28.7355C12.8826 28.9008 12.6542 29.0697 12.4259 29.2368C11.9692 29.5675 11.5125 29.9088 11.0252 30.1684C10.9641 30.2039 10.903 30.2253 10.8418 30.2537C10.7771 30.275 10.7285 30.291 10.6476 30.3106C10.5002 30.3479 10.3617 30.4102 10.2341 30.4866C9.98056 30.643 9.77199 30.8493 9.59937 31.0875L9.59218 31.0981V31.1106L9.12109 33.6901L9.70366 31.1479C9.87088 30.9399 10.0795 30.7515 10.3132 30.6217C10.4319 30.5559 10.5577 30.5079 10.6872 30.4813C10.7447 30.4706 10.8346 30.4493 10.9048 30.4262C10.9731 30.3977 11.0468 30.3746 11.1115 30.3426C11.6384 30.0902 12.1076 29.7684 12.5841 29.4573C12.8215 29.3008 13.0552 29.1408 13.2908 28.9897C13.4076 28.9151 13.5299 28.8386 13.6396 28.7853L13.6791 28.7657L13.7169 28.7551C13.7403 28.7462 13.769 28.7408 13.8014 28.7355C13.8607 28.7231 13.9291 28.7195 13.9938 28.7124C14.4936 28.6857 15.0205 28.7284 15.5347 28.7799L15.5293 29.1408L15.5257 29.4217C15.5257 29.5124 15.5167 29.5835 15.4952 29.6635C15.4502 29.8164 15.3567 29.9568 15.2308 30.0564C15.1661 30.1079 15.0996 30.1417 15.0097 30.1862L14.7562 30.3195C14.4199 30.499 14.0909 30.6946 13.7744 30.9115C13.4616 31.1319 13.1523 31.3684 12.9096 31.6866C12.8808 31.7275 12.8538 31.7719 12.8269 31.8128C12.7999 31.8573 12.7801 31.9053 12.7567 31.9515C12.7208 32.0439 12.6884 32.131 12.6596 32.2235C12.6003 32.4048 12.5554 32.5915 12.514 32.7764C12.4331 33.1461 12.3774 33.5177 12.2964 33.8768C12.2551 34.0563 12.2047 34.2341 12.1382 34.4012C12.0717 34.5719 11.989 34.7283 11.8685 34.8546C11.7498 34.9826 11.5898 35.0786 11.437 35.2012C11.2823 35.3203 11.1457 35.4697 11.0432 35.6368C10.8346 35.9692 10.7411 36.3461 10.6602 36.7123C10.5829 37.0803 10.5236 37.4519 10.475 37.8252C10.3797 38.5701 10.3222 39.3185 10.297 40.0669C10.2916 40.2536 10.288 40.4421 10.288 40.6287C10.2916 40.8172 10.288 41.0038 10.3222 41.194C10.3905 41.578 10.6512 41.8767 10.8328 42.1985C10.876 42.2803 10.9155 42.3638 10.9443 42.4527C10.9713 42.5416 10.9893 42.6323 11.0018 42.7247C11.0306 42.9096 11.0468 43.0963 11.0702 43.2811C11.0917 43.4678 11.1169 43.6527 11.1583 43.8358C11.1996 44.0171 11.2644 44.1985 11.3758 44.3514C11.2662 44.1985 11.205 44.0171 11.1673 43.834C11.1277 43.6509 11.1061 43.466 11.0882 43.2794C11.0702 43.0927 11.0558 42.906 11.0288 42.7211C11.0162 42.6287 11 42.5345 10.9731 42.4438C10.9461 42.3531 10.9066 42.266 10.8634 42.1825C10.6836 41.8518 10.4337 41.5549 10.3743 41.1852C10.342 41.0056 10.3492 40.8172 10.3492 40.6305C10.3492 40.4438 10.3581 40.2572 10.3671 40.0705C10.4031 39.3238 10.475 38.579 10.5793 37.8394C10.6332 37.4696 10.698 37.1016 10.7807 36.739C10.8652 36.3781 10.9659 36.0172 11.1619 35.7132C11.259 35.5603 11.3812 35.4305 11.5269 35.3221C11.5826 35.2794 11.6437 35.2368 11.7049 35.1941C11.6114 35.3665 11.5251 35.5425 11.4514 35.7257C11.3327 36.0243 11.2374 36.3408 11.223 36.6696C11.2158 36.8332 11.2338 37.0021 11.2859 37.1621C11.3381 37.315 11.3956 37.4643 11.4586 37.6119C11.5808 37.907 11.7139 38.1967 11.8254 38.4919C12.0519 39.0838 12.2083 39.699 12.3324 40.3229C12.3971 40.6341 12.4565 40.9505 12.5625 41.2545C12.6201 41.4056 12.683 41.5567 12.7765 41.6918C12.87 41.8287 12.9869 41.9389 13.0786 42.0652C13.2674 42.3158 13.3699 42.6216 13.467 42.922C13.5569 43.2225 13.627 43.5442 13.7978 43.8216C13.8805 43.9602 13.992 44.0865 14.1322 44.1754C14.2725 44.2642 14.4343 44.3069 14.5943 44.33C14.9144 44.3727 15.2434 44.3691 15.5293 44.5131C15.8224 44.6465 16.0094 44.9202 16.2413 45.1407C16.3528 45.2544 16.4697 45.3664 16.5902 45.4713C16.7124 45.5762 16.8419 45.674 16.9911 45.738C17.1404 45.8038 17.3058 45.8216 17.4658 45.8216C17.6276 45.8162 17.7877 45.8216 17.9459 45.8518C18.2623 45.9051 18.5698 46.0047 18.8665 46.1291C18.5716 46.0029 18.2641 45.8998 17.9477 45.8429C17.633 45.77 17.295 45.8624 16.9983 45.722C16.7088 45.5869 16.4841 45.3469 16.2611 45.1229C16.1496 45.0091 16.04 44.8918 15.9321 44.7745C15.8224 44.6553 15.6929 44.554 15.5455 44.4829C15.2506 44.3318 14.9126 44.3336 14.6015 44.2891C14.4451 44.266 14.2905 44.2216 14.1592 44.1362C14.0298 44.0509 13.9237 43.9318 13.8446 43.7949C13.6809 43.5229 13.6162 43.2118 13.5281 42.9043C13.4346 42.6003 13.3321 42.2891 13.1379 42.0243C13.0426 41.8909 12.9276 41.7789 12.8412 41.6509C12.7531 41.5229 12.6956 41.3772 12.6399 41.2296C12.5374 40.9309 12.4834 40.6198 12.4205 40.3069C12.3018 39.6812 12.149 39.0572 11.926 38.4563C11.8164 38.1559 11.6851 37.8625 11.5664 37.5692C11.5071 37.4234 11.4514 37.2741 11.401 37.1248C11.3561 36.9808 11.3399 36.8279 11.3489 36.675C11.3651 36.3674 11.4586 36.0634 11.5772 35.7754C11.6977 35.4857 11.8469 35.2048 12.0177 34.9452L12.0088 34.9399C12.1364 34.8012 12.2263 34.6341 12.2946 34.4688C12.3684 34.2892 12.4241 34.1061 12.4691 33.9212C12.559 33.5515 12.6183 33.1817 12.7046 32.8226C12.7244 32.7408 12.7442 32.6572 12.7675 32.5772C12.7621 32.6697 12.7603 32.7639 12.7621 32.8581C12.7675 33.0412 12.7891 33.2279 12.8502 33.4057C12.8772 33.4946 12.9311 33.5835 12.9725 33.6581C13.0175 33.7328 13.057 33.811 13.0876 33.891C13.1541 34.0528 13.1811 34.2252 13.2009 34.403C13.2206 34.579 13.2368 34.7674 13.3105 34.9417C13.3789 35.1177 13.5047 35.2652 13.6378 35.3897C13.769 35.5141 13.9057 35.6332 13.9776 35.7897C14.0549 35.9443 14.0621 36.1239 14.0477 36.2999C14.0333 36.4776 14.0028 36.6536 13.9704 36.8296C13.9416 36.9843 13.9093 37.139 13.8805 37.2936L13.8481 37.315C13.8553 37.3239 13.8643 37.331 13.8715 37.3399C13.8374 37.523 13.8068 37.7079 13.7888 37.8945C13.7726 38.0741 13.769 38.2554 13.7924 38.435C13.8176 38.6145 13.8571 38.7905 13.9075 38.963C14.0118 39.3078 14.1574 39.6438 14.375 39.9318C14.161 39.6403 14.0226 39.3025 13.9237 38.9576C13.8769 38.7852 13.8392 38.6092 13.8176 38.4314C13.7978 38.2536 13.8032 38.0741 13.823 37.8963C13.8428 37.7221 13.8733 37.5496 13.9075 37.3772C13.974 37.4376 14.0441 37.475 14.1161 37.5141C14.2114 37.5621 14.3084 37.6012 14.4073 37.635C14.6069 37.7007 14.8101 37.7434 15.0133 37.7754C15.2183 37.8074 15.425 37.8252 15.63 37.8252C15.835 37.8216 16.0436 37.8074 16.2395 37.7434C16.04 37.795 15.8332 37.7985 15.63 37.7896C15.4268 37.779 15.2237 37.7487 15.0241 37.7061C14.8245 37.6634 14.6285 37.6083 14.4415 37.5354C14.348 37.4981 14.2581 37.4554 14.1736 37.4056C14.0927 37.3576 14.0028 37.2919 13.9614 37.235L13.9291 37.2563C13.9578 37.1159 13.9884 36.9772 14.0172 36.8368C14.0531 36.6608 14.0855 36.483 14.1035 36.3017C14.1215 36.1221 14.1179 35.9283 14.0369 35.7559C13.9578 35.5817 13.814 35.4537 13.6881 35.3292C13.5605 35.2048 13.449 35.0679 13.3879 34.9061C13.3231 34.7461 13.3105 34.5683 13.2926 34.3906C13.2764 34.211 13.2494 34.0243 13.1811 33.8519C13.1487 33.7648 13.1092 33.6795 13.0624 33.5995C13.0175 33.5177 12.9779 33.4501 12.9527 33.3648C12.8988 33.203 12.8808 33.027 12.879 32.851C12.879 32.5399 12.9258 32.2252 12.9995 31.923C12.9995 31.923 12.9995 31.923 12.9995 31.9213L13.0732 31.8146C13.2926 31.5373 13.591 31.3097 13.8967 31.1035C14.206 30.899 14.5314 30.7124 14.864 30.5417L15.114 30.4155C15.1931 30.3782 15.2974 30.3284 15.3819 30.2626C15.4071 30.243 15.4286 30.2199 15.452 30.1986C15.5923 30.3515 15.7361 30.4866 15.8979 30.6146C16.1011 30.7782 16.3259 30.9204 16.5704 31.0306C16.6297 31.0608 16.6945 31.0804 16.7574 31.1053C16.8095 31.1284 16.8509 31.1444 16.8976 31.1675C16.9857 31.2208 17.072 31.283 17.1494 31.3648C17.3058 31.523 17.4352 31.7186 17.5467 31.9266C17.6564 32.1346 17.7499 32.3568 17.82 32.5808C17.838 32.6359 17.8542 32.6946 17.8668 32.7479C17.8758 32.7799 17.8758 32.7941 17.883 32.8261C17.8902 32.8564 17.9009 32.8901 17.9135 32.9168L17.9477 32.9684C17.9944 33.0306 18.043 33.0821 18.0897 33.1284L17.7157 35.1301C17.5827 35.2066 17.4712 35.3079 17.3831 35.4305C17.2896 35.555 17.2447 35.7132 17.2231 35.859L17.0559 36.7496L17.2536 35.8661C17.2806 35.7168 17.3274 35.5763 17.4209 35.459C17.5108 35.3434 17.6294 35.2439 17.7589 35.1781L17.7733 35.171L17.7769 35.155L18.2066 33.235C18.2066 33.235 18.221 33.2475 18.2282 33.2546C18.6112 33.5852 19.0139 33.8732 19.4131 34.1666C19.5192 34.2412 19.5947 34.3034 19.6738 34.3941C19.7511 34.4794 19.8159 34.5808 19.8788 34.6803C20.0011 34.8848 20.0981 35.107 20.1737 35.3346C20.2474 35.5621 20.2995 35.7985 20.3175 36.0385C20.3355 36.2768 20.3031 36.5168 20.2636 36.7568C20.1863 37.2385 20.0406 37.715 20.0208 38.2127C20.0208 38.3372 20.0298 38.4652 20.0802 38.5825C20.1089 38.6412 20.1413 38.6927 20.1737 38.7443C20.206 38.7958 20.2348 38.8492 20.2654 38.9043C20.3786 39.1212 20.4739 39.3505 20.5459 39.5852C20.4811 39.3487 20.3948 39.1158 20.2887 38.8936C20.2618 38.8385 20.233 38.7834 20.2024 38.7283C20.1701 38.675 20.1395 38.6216 20.1161 38.5683C20.0748 38.4581 20.0694 38.3354 20.073 38.2145C20.1089 37.7292 20.2708 37.2599 20.3661 36.7763C20.4146 36.5345 20.4578 36.2857 20.4488 36.0314C20.4398 35.779 20.3948 35.5301 20.3247 35.2883C20.2546 35.0466 20.1611 34.8119 20.0388 34.5879C19.9741 34.4777 19.9094 34.3674 19.8248 34.2661C19.7853 34.2146 19.7385 34.1666 19.69 34.1203C19.6378 34.0723 19.5893 34.035 19.5408 33.9977C19.1524 33.6937 18.7604 33.3879 18.4062 33.0608C18.3217 32.979 18.23 32.8901 18.1778 32.8119L18.1635 32.7888C18.1635 32.7888 18.1635 32.7888 18.1635 32.7906C18.1581 32.7621 18.1527 32.7159 18.1455 32.6875C18.1329 32.6217 18.1167 32.5595 18.0987 32.4972C18.0304 32.2519 17.9423 32.0137 17.829 31.7826C17.7157 31.5515 17.5809 31.3275 17.3975 31.1266C17.3076 31.0253 17.1979 30.9364 17.0756 30.8582C17.0145 30.8226 16.9408 30.7906 16.8797 30.7622C16.8275 30.739 16.7736 30.7213 16.7232 30.6928C16.3294 30.499 15.9734 30.1826 15.6983 29.8413C15.7127 29.8075 15.7289 29.7737 15.7397 29.7382C15.7721 29.6368 15.7846 29.5231 15.7864 29.4253L15.7936 29.1444L15.808 28.6217C15.9609 28.3533 16.2036 28.1222 16.4589 27.9124C16.7268 27.6991 17.0163 27.5053 17.313 27.324C17.6097 27.1409 17.9171 26.9702 18.2264 26.8031C18.3792 26.7213 18.5464 26.6235 18.6975 26.5186C18.8485 26.4084 18.9942 26.2875 19.1218 26.1489C19.3825 25.8751 19.5713 25.5515 19.7385 25.2387C19.7637 25.1889 19.7907 25.1409 19.8159 25.0929C19.8159 25.2724 19.8248 25.4538 19.85 25.6315C19.9165 26.1773 20.1107 26.7017 20.3768 27.1746C20.4164 27.2422 20.456 27.308 20.4955 27.3737L20.4883 27.3915C20.4883 27.3915 20.5027 27.3969 20.5099 27.3986C20.7383 27.7808 20.9738 28.1524 21.2327 28.5168C21.3891 28.7337 21.5546 28.9471 21.7488 29.1408C21.9411 29.3346 22.1605 29.5071 22.396 29.6422C22.6334 29.7791 22.8635 29.8875 23.0649 30.0457C23.2645 30.1986 23.4461 30.3853 23.518 30.6146C23.554 30.7284 23.5594 30.8493 23.536 30.9666C23.5108 31.0839 23.4695 31.2208 23.4425 31.3453C23.3814 31.6013 23.3256 31.859 23.2735 32.1168C23.2213 32.3746 23.171 32.6324 23.1279 32.8919C23.0865 33.1515 23.0433 33.411 23.0308 33.6777C23.0272 33.8163 23.0721 33.9461 23.1261 34.067C23.18 34.1879 23.2483 34.3017 23.3256 34.4101C23.4767 34.627 23.6529 34.8243 23.8435 35.0074C23.6601 34.819 23.4911 34.6146 23.3472 34.3959C23.2753 34.2857 23.2124 34.1719 23.162 34.051C23.1135 33.9319 23.0757 33.8039 23.0829 33.6795C23.1027 33.4217 23.153 33.1639 23.2052 32.9079C23.2573 32.6519 23.3148 32.3959 23.376 32.1417C23.4371 31.8875 23.5018 31.6333 23.5702 31.3808C23.6043 31.251 23.6421 31.1373 23.6781 30.9986C23.7104 30.8599 23.7104 30.7106 23.6709 30.5719C23.5917 30.291 23.3904 30.0742 23.1818 29.9035C22.9714 29.7275 22.7233 29.5995 22.5093 29.4644C22.29 29.3275 22.0958 29.1657 21.9232 28.9791C21.7506 28.7924 21.5977 28.5844 21.4539 28.3693C21.2759 28.0973 21.1051 27.8164 20.9414 27.532C21.0583 27.564 21.1752 27.5906 21.2938 27.6173C21.5654 27.6724 21.8423 27.7133 22.1245 27.7204L22.1443 27.7257Z" fill="black"/>
<path d="M34.7558 48.1507C34.7145 48.0422 34.6713 47.9338 34.6246 47.8271C34.6012 47.7738 34.576 47.7222 34.5472 47.6707C34.5185 47.6209 34.4879 47.5676 34.4358 47.5338C34.3333 47.4716 34.2164 47.4449 34.1013 47.42C33.9863 47.3951 33.8694 47.3791 33.7525 47.3631C33.5206 47.3311 33.2814 47.3169 33.0585 47.2743C33.0063 47.2636 33.0063 47.2014 33.0207 47.1498C33.0333 47.0965 33.0585 47.0431 33.0836 46.9916C33.1358 46.8885 33.1969 46.7907 33.2616 46.6947C33.3875 46.4991 33.5314 46.3196 33.6518 46.1116C33.6986 45.9872 33.677 45.868 33.659 45.7507C33.6356 45.6334 33.5979 45.5214 33.5493 45.4147C33.454 45.1978 33.3228 45.0005 33.1753 44.8174C33.1016 44.7249 33.0243 44.6378 32.9452 44.5507C32.8733 44.4618 32.796 44.3783 32.7366 44.2787C32.6072 44.0885 32.5083 43.8787 32.4112 43.6707C32.2278 43.2476 32.0893 42.805 31.9832 42.3552C31.8772 41.9054 31.8052 41.4485 31.7765 40.9899C31.7657 40.8263 31.7639 40.6628 31.7639 40.4992C31.7926 40.4334 31.8232 40.3677 31.8502 40.3001L31.7693 40.2681V40.2645C32.0228 39.2121 32.3464 38.1739 32.6971 37.1464L32.769 36.933L32.8049 36.8246C32.8157 36.7837 32.8283 36.741 32.8355 36.7001C32.8679 36.5366 32.8733 36.3837 32.8769 36.229C32.8805 35.9215 32.8625 35.6175 32.8319 35.3153C32.7906 34.9046 32.7222 34.4922 32.6359 34.0868C32.7043 34.1313 32.7708 34.1757 32.8337 34.2237C33.0099 34.3553 33.1735 34.5028 33.3174 34.6664C33.4594 34.8299 33.5835 35.0077 33.668 35.2033C33.7507 35.3917 33.8101 35.6175 33.8694 35.8379C33.9863 36.2806 34.0834 36.7304 34.1787 37.1837C34.2038 37.2975 34.229 37.4112 34.256 37.5268C34.2703 37.5855 34.2847 37.6423 34.3081 37.7063L34.3297 37.7579C34.3387 37.7721 34.3477 37.7863 34.3585 37.8006L34.38 37.8272C34.3908 37.8379 34.4088 37.8592 34.4268 37.8806C34.5688 38.0548 34.7073 38.2432 34.8421 38.4299C34.977 38.6166 35.1082 38.8068 35.2341 38.9988C35.3582 39.1908 35.4822 39.3881 35.5703 39.589C35.6099 39.6779 35.6189 39.7934 35.6315 39.9072C35.6405 40.021 35.6477 40.1348 35.6512 40.2485C35.6566 40.4779 35.6548 40.7072 35.6441 40.9383C35.6387 41.0539 35.6297 41.1676 35.6189 41.2814C35.6081 41.397 35.5955 41.509 35.5631 41.6156C35.502 41.8343 35.4031 42.0476 35.3456 42.2752C35.288 42.501 35.2665 42.7427 35.3294 42.9703C35.3923 43.1978 35.5236 43.397 35.68 43.5676C35.529 43.3916 35.4067 43.1872 35.3546 42.9632C35.3024 42.7392 35.3312 42.5063 35.3977 42.2876C35.4643 42.0672 35.5685 41.8628 35.6423 41.637C35.68 41.5232 35.698 41.4041 35.7142 41.2903C35.7304 41.1748 35.7429 41.0592 35.7537 40.9436C35.7735 40.7125 35.7861 40.4797 35.7879 40.2468C35.7879 40.1294 35.7879 40.0139 35.7825 39.8965C35.7753 39.781 35.7735 39.6601 35.725 39.5339C35.6351 39.3046 35.5182 39.1054 35.3977 38.9028C35.2773 38.7019 35.1514 38.5046 35.0237 38.3108C34.8943 38.1152 34.7648 37.925 34.621 37.733C34.603 37.7099 34.585 37.685 34.5562 37.653C34.5544 37.6495 34.5472 37.6441 34.5472 37.6441H34.5508C34.5526 37.6441 34.5544 37.6477 34.5562 37.6512L34.5472 37.6228C34.5329 37.5783 34.5203 37.5232 34.5095 37.4681C34.4861 37.3579 34.4663 37.2441 34.4466 37.1321C34.3674 36.677 34.2883 36.2184 34.1858 35.7615C34.1319 35.5339 34.0852 35.3081 33.9917 35.0682C33.9 34.8335 33.7633 34.6219 33.6087 34.4282C33.4522 34.2362 33.276 34.0637 33.0836 33.9091C32.9038 33.7651 32.7204 33.6406 32.5083 33.5268C32.3824 32.9579 32.2925 32.3642 32.199 31.7775C32.1073 31.1873 32.021 30.5971 31.9383 30.0051C31.7711 28.8229 31.6128 27.6371 31.46 26.4531L31.0375 26.5082C31.2047 27.694 31.3773 28.8762 31.5571 30.0602C31.647 30.6522 31.7405 31.2424 31.8394 31.8344C31.9401 32.4264 32.0336 33.0131 32.1738 33.6104C32.3303 34.1882 32.4489 34.7588 32.5191 35.3473C32.5532 35.6388 32.5766 35.9339 32.5766 36.2237C32.5766 36.293 32.5748 36.3641 32.5694 36.4335C32.4597 36.4406 32.3644 36.4761 32.2871 36.5135C32.1756 36.5686 32.0857 36.6379 32.0012 36.7072C31.834 36.8477 31.6956 37.0006 31.5625 37.1552C31.2982 37.4646 31.0626 37.7863 30.8163 38.0886C30.7552 38.1632 30.6922 38.2361 30.6275 38.3037C30.5646 38.3695 30.4927 38.4352 30.4405 38.4637C30.4279 38.4708 30.4189 38.4726 30.4171 38.4743C30.3956 38.4779 30.374 38.4797 30.3524 38.4815C30.3075 38.485 30.2607 38.485 30.214 38.485C30.1205 38.485 30.0234 38.4779 29.9263 38.469C29.8292 38.4601 29.7321 38.4494 29.635 38.4352C29.5451 38.4246 29.4606 38.4015 29.3779 38.3677C29.2143 38.3001 29.0686 38.1863 28.9661 38.0406C28.9374 38.0015 28.923 37.973 28.887 37.9179C28.8546 37.8681 28.8133 37.8237 28.7683 37.7863C28.6766 37.7099 28.5652 37.6619 28.4483 37.6459C28.3206 37.6335 28.2415 37.6477 28.1426 37.6388C28.0473 37.6317 27.952 37.621 27.8585 37.5979C27.4863 37.5161 27.1357 37.3099 26.8822 37.0237C26.8229 36.9526 26.7815 36.8708 26.7617 36.7784C26.7348 36.6788 26.7024 36.5792 26.6359 36.4921C26.6017 36.4495 26.5567 36.4086 26.4992 36.3908C26.4417 36.373 26.3805 36.3784 26.3284 36.3979C26.2421 36.4317 26.1432 36.4335 26.0461 36.4264C25.8501 36.4104 25.6559 36.3588 25.4707 36.2912C25.3772 36.2575 25.2855 36.2184 25.1974 36.1721C25.1129 36.1241 25.0176 36.0761 24.9691 35.989C25.014 36.0797 25.1075 36.1313 25.1902 36.1846C25.2765 36.2344 25.3664 36.2788 25.4599 36.3179C25.6451 36.3944 25.8375 36.4548 26.0407 36.4815C26.1414 36.4921 26.2475 36.4975 26.35 36.4637C26.4363 36.4335 26.519 36.4655 26.5693 36.5419C26.6197 36.6148 26.6484 36.709 26.6682 36.8015C26.6862 36.9028 26.733 37.0059 26.7959 37.0895C27.0548 37.4112 27.4144 37.6459 27.8172 37.7543C27.9179 37.7828 28.0204 37.8006 28.1246 37.813C28.2235 37.8272 28.3476 37.8201 28.4177 37.8326C28.4986 37.8468 28.5741 37.8841 28.6335 37.9392C28.6623 37.9659 28.6892 37.9979 28.709 38.0317C28.7252 38.0601 28.7558 38.1206 28.7845 38.1632C28.86 38.2806 28.9571 38.3801 29.0704 38.4655C28.8654 38.6166 28.6533 38.7588 28.4357 38.8886C28.3152 38.9579 28.193 39.0237 28.0653 39.0788C27.9412 39.1286 27.8028 39.1783 27.6895 39.1534L27.2706 39.0681C27.1986 39.0557 27.1357 39.0361 27.0566 39.029C26.9793 39.0219 26.9002 39.0326 26.8282 39.0592C26.7563 39.0841 26.688 39.1286 26.6359 39.1783C26.5837 39.2246 26.5298 39.269 26.474 39.3117C26.3644 39.397 26.2493 39.477 26.1288 39.5428C26.0083 39.6032 25.8717 39.6619 25.7476 39.6317C25.6038 39.5961 25.4545 39.6032 25.3143 39.6317C25.174 39.6601 25.0356 39.7045 24.9061 39.765C24.7785 39.8272 24.6472 39.8912 24.5501 40.0032C24.3739 40.2254 24.2247 40.4637 24.0701 40.6983C23.9172 40.9348 23.768 41.1712 23.6187 41.4094C23.7716 41.1748 23.928 40.9401 24.0844 40.709C24.2427 40.4779 24.3991 40.2414 24.5753 40.0281C24.6652 39.9268 24.7965 39.8645 24.9223 39.8077C25.05 39.7525 25.1848 39.7117 25.3215 39.6868C25.4581 39.6619 25.5984 39.6601 25.7296 39.6957C25.8879 39.7348 26.0317 39.669 26.1594 39.6103C26.2888 39.5445 26.4075 39.4646 26.5208 39.3792C26.5783 39.3366 26.6341 39.2921 26.688 39.2459C26.7401 39.1997 26.7923 39.1677 26.8552 39.1463C26.9164 39.125 26.9811 39.1179 27.044 39.125C27.1069 39.1321 27.1789 39.1534 27.2472 39.1677L27.6589 39.2601C27.6949 39.2654 27.7435 39.2743 27.7812 39.2708C27.819 39.2654 27.8603 39.2654 27.8963 39.2548C27.97 39.2388 28.0383 39.2139 28.1067 39.189C28.2415 39.1357 28.3692 39.0681 28.4932 39.0006C28.736 38.8637 28.9679 38.7143 29.1927 38.5543C29.2196 38.5686 29.2448 38.5863 29.2718 38.5988C29.3725 38.645 29.4804 38.6806 29.5882 38.6983C29.6889 38.7161 29.7878 38.7321 29.8903 38.7463C29.991 38.7606 30.0953 38.7712 30.1996 38.7766C30.2517 38.7801 30.3057 38.7801 30.3614 38.7783C30.3884 38.7783 30.4171 38.7766 30.4459 38.773C30.4945 38.7677 30.5322 38.7534 30.5646 38.7374C30.6886 38.6752 30.7642 38.6006 30.8433 38.5277C30.9188 38.4548 30.9889 38.3801 31.0572 38.3037C31.327 38.0015 31.5733 37.6921 31.8376 37.4095C31.9707 37.269 32.1055 37.1339 32.2494 37.0237C32.3195 36.9686 32.3932 36.9206 32.4615 36.8921C32.4669 36.8904 32.4705 36.8886 32.4759 36.8868L32.4184 37.0646C32.0498 38.2059 31.7117 39.3597 31.4654 40.5365C31.4294 40.7143 31.3953 40.8921 31.3647 41.0699C31.2748 41.2672 31.1849 41.4645 31.0878 41.6583C30.8595 42.117 30.6167 42.5685 30.3272 42.9899C30.1816 43.1978 30.027 43.4023 29.84 43.573C29.6602 43.749 29.4264 43.8521 29.1837 43.9303C28.6946 44.0814 28.175 44.1329 27.6607 44.1561C27.1447 44.1774 26.6251 44.1649 26.109 44.1276C25.9706 44.1169 25.8411 44.1632 25.7189 44.2058C25.5966 44.2521 25.4779 44.3054 25.3592 44.3552C25.2406 44.4049 25.1201 44.4547 24.9978 44.4849C24.9367 44.5009 24.8738 44.5098 24.8108 44.5081C24.7497 44.5081 24.6886 44.4832 24.6256 44.4689C24.3757 44.4014 24.1258 44.3267 23.8705 44.2787C23.8057 44.2681 23.741 44.2574 23.6745 44.2592C23.6583 44.2592 23.6403 44.2609 23.6223 44.2663C23.6026 44.2716 23.5882 44.2876 23.5792 44.2983L23.5127 44.3694C23.4246 44.4618 23.3329 44.5525 23.2376 44.6396C23.047 44.8138 22.8456 44.9756 22.6244 45.1089C22.4051 45.2405 22.1623 45.3525 21.9016 45.3703C22.1623 45.356 22.4069 45.2476 22.6298 45.1178C22.8528 44.9863 23.0578 44.8263 23.2501 44.6538C23.3472 44.5685 23.4407 44.4778 23.5306 44.3854L23.5972 44.3161C23.6098 44.3018 23.6169 44.2947 23.6295 44.2912C23.6439 44.2876 23.6583 44.2858 23.6745 44.2858C23.7374 44.2858 23.8021 44.2965 23.8651 44.3089C24.1186 44.3605 24.3667 44.4369 24.6149 44.5081C24.6778 44.5241 24.7389 44.5489 24.809 44.5525C24.8774 44.5561 24.9439 44.5454 25.0068 44.5312C25.1345 44.5009 25.2568 44.4529 25.3772 44.4032C25.4977 44.3534 25.6164 44.3036 25.7368 44.2592C25.8573 44.2165 25.9814 44.1774 26.1036 44.1881C26.6215 44.2325 27.1429 44.2503 27.6625 44.2361C28.1822 44.2183 28.7054 44.1738 29.2125 44.0245C29.4606 43.9481 29.7177 43.8396 29.9119 43.653C30.1097 43.4752 30.2679 43.2672 30.4207 43.0574C30.7192 42.6325 30.9691 42.1774 31.2029 41.7188C31.2335 41.6565 31.2622 41.5925 31.2928 41.5303C31.2568 41.7952 31.2281 42.0619 31.2137 42.3303L31.1993 42.7783C31.1903 42.9241 31.1795 43.0698 31.1543 43.2138C31.1076 43.5018 31.0249 43.7827 30.8954 44.0405C30.766 44.3001 30.5898 44.5347 30.3812 44.7409C30.2769 44.8441 30.1654 44.9418 30.0521 45.0414C29.9407 45.1409 29.8166 45.2405 29.7303 45.3845C29.6566 45.4894 29.5415 45.6032 29.4408 45.7098L29.1261 46.0316C28.9158 46.2467 28.7072 46.4618 28.5004 46.6823C27.6751 47.5587 26.893 48.4778 26.2295 49.4822C25.5714 50.4813 25.014 51.5747 24.8037 52.7569C25.0338 51.5782 25.6056 50.4991 26.278 49.5125C26.7869 48.7693 27.3641 48.0725 27.9736 47.4076C27.8891 47.8485 27.8298 48.2929 27.8028 48.7409C27.7758 49.2493 27.7812 49.7684 27.9161 50.268C27.9862 50.5151 28.0941 50.7604 28.2829 50.9453C28.4878 51.1035 28.6047 51.3293 28.6946 51.5675C28.8672 52.044 28.9463 52.5506 28.9895 53.0555C28.9571 52.5489 28.8906 52.0404 28.727 51.5551C28.6838 51.4342 28.6353 51.3151 28.5688 51.2031C28.5364 51.148 28.5004 51.0929 28.4555 51.0431C28.4141 50.9915 28.3602 50.9507 28.3188 50.908C28.1444 50.7284 28.0455 50.4902 27.9826 50.2484C27.8621 49.7596 27.8693 49.2476 27.9071 48.7462C27.9484 48.2431 28.0293 47.7418 28.1462 47.2529L28.121 47.2476C28.2739 47.084 28.4267 46.9205 28.5831 46.7605C28.7917 46.5454 29.0039 46.3338 29.2178 46.1223L29.5379 45.804C29.644 45.6938 29.7501 45.5978 29.8508 45.4592C29.9209 45.3436 30.036 45.2512 30.1492 45.1534C30.2643 45.0574 30.3812 44.9578 30.4909 44.8512C30.712 44.6378 30.9062 44.3907 31.0483 44.1152C31.1921 43.8414 31.2856 43.5427 31.3377 43.2423C31.3665 43.0912 31.3809 42.9383 31.3917 42.7872L31.4133 42.3392C31.4456 41.8361 31.5319 41.3348 31.6362 40.837C31.6398 40.8939 31.6416 40.9508 31.6452 41.0076C31.683 41.4734 31.7603 41.9356 31.8736 42.389C31.9868 42.8423 32.1325 43.2885 32.3231 43.7152C32.4238 43.9267 32.528 44.1383 32.6629 44.3321C32.724 44.4316 32.8067 44.5205 32.8823 44.6112C32.9614 44.6947 33.0387 44.7801 33.1124 44.8707C33.2581 45.0485 33.3893 45.2405 33.4846 45.4503C33.5314 45.5552 33.5709 45.6618 33.5943 45.7738C33.6141 45.8823 33.6302 46.0067 33.5943 46.1009C33.4828 46.2983 33.3372 46.4867 33.2149 46.6823C33.152 46.78 33.0908 46.8796 33.0387 46.9863C33.0135 47.0396 32.9883 47.0929 32.974 47.1534C32.9668 47.1836 32.9632 47.2138 32.9686 47.2476C32.9722 47.2814 33.0045 47.3134 33.0387 47.3205C33.2742 47.3631 33.508 47.3738 33.7399 47.4022C33.8568 47.4165 33.9719 47.4307 34.087 47.4538C34.2002 47.4769 34.3171 47.5036 34.416 47.5605C34.5059 47.628 34.5508 47.7436 34.603 47.8449C34.6515 47.9498 34.6965 48.0582 34.7378 48.1649C34.8223 48.3818 34.8997 48.6005 34.9734 48.8209C34.9033 48.5987 34.8277 48.38 34.7468 48.1614L34.7558 48.1507Z" fill="black"/>
</g>
<g filter="url(#filter3_d_940_12541)">
<path d="M35.921 22.0994C35.921 22.0994 39.8929 21.9038 41.8941 24.3642L41.4248 26.6469L39.3786 26.2362L39.4254 26.5136C39.4128 26.574 41.5561 26.9438 41.5561 26.9438L41.1623 29.2193L39.6214 28.91C39.6214 28.91 39.0568 29.6424 37.7352 29.9162C36.4136 30.1917 33.2779 30.5224 31.7729 28.1384C30.2679 25.7562 31.5751 24.2238 31.7783 24.0087C31.9815 23.7936 33.4433 22.238 35.921 22.0976V22.0994Z" fill="#FF725E"/>
<g opacity="0.3">
<path d="M35.921 22.0994C35.921 22.0994 39.8929 21.9038 41.8941 24.3642L41.4248 26.6469L39.3786 26.2362L39.4254 26.5136C39.4128 26.574 41.5561 26.9438 41.5561 26.9438L41.1623 29.2193L39.6214 28.91C39.6214 28.91 39.0568 29.6424 37.7352 29.9162C36.4136 30.1917 33.2779 30.5224 31.7729 28.1384C30.2679 25.7562 31.5751 24.2238 31.7783 24.0087C31.9815 23.7936 33.4433 22.238 35.921 22.0976V22.0994Z" fill="black"/>
</g>
<path d="M41.9409 25.5728C41.8132 26.1968 41.5831 26.6786 41.4266 26.6466C41.2702 26.6146 41.2486 26.0831 41.3763 25.4591C41.5039 24.8351 41.7341 24.3533 41.8905 24.3853C42.0469 24.4173 42.0685 24.9488 41.9409 25.5728Z" fill="#263238"/>
<path d="M41.6369 28.1363C41.5092 28.7603 41.2791 29.2421 41.1227 29.2101C40.9662 29.1781 40.9447 28.6465 41.0723 28.0225C41.2 27.3985 41.4301 26.9168 41.5866 26.9488C41.743 26.9808 41.7646 27.5123 41.6369 28.1363Z" fill="#263238"/>
<path d="M39.393 26.0937C39.393 26.0937 39.3409 26.0742 39.2618 26.0191C39.1827 25.964 39.0748 25.8715 38.9615 25.7382C38.7368 25.4769 38.503 25.0182 38.521 24.4778C38.5426 23.9373 38.8069 23.4964 39.0514 23.2529C39.1737 23.1284 39.287 23.0431 39.3715 22.9933C39.4542 22.9436 39.5045 22.9222 39.5081 22.9276C39.5189 22.9418 39.3265 23.0431 39.1018 23.2973C38.8788 23.5444 38.6361 23.9711 38.6163 24.4813C38.5983 24.9933 38.8105 25.4342 39.0155 25.6973C39.2204 25.9657 39.4056 26.0795 39.3948 26.0937H39.393Z" fill="#263238"/>
<path d="M39.0046 28.5579C39.0046 28.5579 38.9165 28.4744 38.8446 28.3001C38.7709 28.1277 38.7151 27.861 38.7583 27.573C38.8032 27.2833 38.9363 27.0468 39.0585 26.9028C39.1808 26.757 39.2833 26.6948 39.2887 26.7037C39.2995 26.7144 39.215 26.7926 39.1107 26.9419C39.0082 27.0895 38.8913 27.3153 38.85 27.5855C38.8086 27.8557 38.85 28.1064 38.9057 28.277C38.9596 28.4495 39.0172 28.549 39.0046 28.5561V28.5579Z" fill="#263238"/>
<path d="M41.1514 27.1425C41.146 27.1674 40.7846 27.1158 40.3441 27.0269C39.9036 26.938 39.5494 26.8456 39.5547 26.8207C39.5601 26.7958 39.9216 26.8474 40.3621 26.9363C40.8026 27.0252 41.155 27.1176 41.1514 27.1425Z" fill="#F9F9F9"/>
<path d="M41.5346 24.3177C41.5149 24.3373 41.157 24.0031 40.6554 23.6706C40.1555 23.3346 39.7096 23.1302 39.7204 23.1053C39.7276 23.084 40.1987 23.2529 40.7075 23.5942C41.2164 23.9337 41.5526 24.3017 41.5346 24.3177Z" fill="#F9F9F9"/>
<path d="M32.6108 24.3586C32.6108 24.3586 32.6593 24.2804 32.7654 24.156C32.8733 24.0315 33.0405 23.8609 33.2707 23.676C33.7274 23.3026 34.4628 22.8973 35.3474 22.6929C36.232 22.4867 37.0627 22.4991 37.6489 22.5507C37.9438 22.5773 38.1811 22.6111 38.3429 22.6413C38.5048 22.6698 38.5947 22.6911 38.5929 22.6982C38.5929 22.7053 38.5012 22.6946 38.3375 22.6769C38.1739 22.6591 37.9366 22.6342 37.6435 22.6164C37.0591 22.5809 36.2392 22.5791 35.3672 22.7835C34.4969 22.9862 33.7705 23.3738 33.3102 23.7293C32.8445 24.0831 32.6216 24.3746 32.6072 24.3604L32.6108 24.3586Z" fill="#F9F9F9"/>
</g>
<g opacity="0.3">
<path d="M40.5527 20.1239C40.078 21.5372 39.4019 22.5879 39.0423 22.4705C38.6827 22.3532 38.7744 21.1105 39.2473 19.6954C39.7202 18.2803 40.398 17.2315 40.7576 17.3488C41.1173 17.4661 41.0256 18.7088 40.5527 20.1239Z" fill="black"/>
</g>
<g opacity="0.2">
<path d="M35.0722 17.6012C33.0674 16.7959 30.7767 17.3257 29.207 18.5701C28.8743 18.835 28.5345 19.4021 28.6316 19.8127C28.7413 20.2803 29.358 20.4527 29.8273 20.3265C30.2966 20.1985 30.6832 19.8767 31.1255 19.6812C32.2475 19.187 33.6158 19.5461 34.7324 19.0394C35.0344 18.9025 35.3185 18.6928 35.4516 18.3923C35.5846 18.0919 35.4048 17.6688 35.0722 17.6012Z" fill="#F9F9F9"/>
</g>
<path d="M40.8259 17.3648C40.8259 17.3648 40.7954 17.347 40.7342 17.3115C40.6731 17.2759 40.5832 17.2244 40.4627 17.1586C40.22 17.0306 39.8586 16.8439 39.3731 16.6501C38.8894 16.4546 38.2853 16.2377 37.5607 16.0653C36.8379 15.891 36 15.7346 35.0614 15.6919C34.9445 15.6866 34.8258 15.6724 34.7054 15.6724H34.3404C34.094 15.6759 33.8423 15.6617 33.587 15.6884C33.3317 15.7062 33.071 15.7257 32.8048 15.7435C32.5405 15.7808 32.2726 15.8199 31.9993 15.8608C30.9115 16.051 29.7626 16.3568 28.6154 16.8386C27.4665 17.3168 26.3211 17.9639 25.2243 18.7586C24.6741 19.1532 24.1401 19.5923 23.6258 20.067C23.1134 20.5417 22.6099 21.0501 22.1658 21.6083L22.155 21.6208L22.1389 21.6243C21.862 21.6936 21.5635 21.7719 21.265 21.8536C19.8212 22.2572 18.4313 22.7265 17.1133 23.235C15.7936 23.7434 14.5493 24.2998 13.4165 24.9327C12.282 25.5585 11.2625 26.2607 10.4264 27.05C9.58851 27.8358 8.94481 28.7016 8.46653 29.5478C8.22919 29.9727 8.0368 30.394 7.87318 30.8011C7.71495 31.21 7.59089 31.6029 7.49559 31.978C7.305 32.7264 7.24207 33.3931 7.22768 33.9353C7.2115 34.4793 7.26364 34.8988 7.29421 35.1833C7.31579 35.322 7.33197 35.4286 7.34455 35.5051C7.35534 35.578 7.35894 35.6153 7.35894 35.6153C7.35894 35.6153 7.34995 35.578 7.33556 35.5068C7.32118 35.4304 7.3014 35.3237 7.27623 35.1851C7.24027 34.9006 7.18093 34.4793 7.19172 33.9335C7.19891 33.3895 7.25825 32.7193 7.44524 31.9655C7.53874 31.5887 7.66101 31.1922 7.81744 30.7798C7.97926 30.3709 8.17165 29.9442 8.409 29.5158C8.88548 28.6625 9.53098 27.7878 10.3725 26.9932C11.2103 26.1967 12.2352 25.4874 13.3734 24.8563C14.508 24.2198 15.7594 23.6599 17.0792 23.1496C18.4007 22.6394 19.7906 22.1683 21.2398 21.7648C21.5383 21.6812 21.8386 21.6048 22.1155 21.5337L22.0903 21.5514C22.5434 20.9825 23.0469 20.4759 23.5629 19.9977C24.0807 19.5212 24.6166 19.0803 25.1704 18.6839C26.2726 17.8857 27.4269 17.2368 28.5812 16.7586C29.7356 16.275 30.8917 15.9693 31.9867 15.7826C32.2618 15.7435 32.5315 15.7062 32.7977 15.6688C33.0656 15.651 33.3281 15.6333 33.5852 15.6155C33.8423 15.5906 34.0958 15.6048 34.3422 15.603C34.4662 15.603 34.5885 15.603 34.709 15.603C34.8294 15.603 34.9481 15.6173 35.0668 15.6244C36.009 15.6706 36.8504 15.8324 37.5751 16.0119C38.3015 16.1897 38.9056 16.4119 39.3893 16.6146C39.8748 16.8137 40.2326 17.0057 40.4735 17.139C40.594 17.2066 40.6839 17.2617 40.7414 17.299C40.8007 17.3364 40.8295 17.3595 40.8295 17.3595L40.8259 17.3648Z" fill="#263238"/>
<path d="M39.6214 28.9085C39.6214 28.9085 39.5872 28.9476 39.5171 29.017C39.4812 29.0508 39.4398 29.097 39.3841 29.1432C39.3265 29.1894 39.26 29.241 39.1881 29.2979C38.886 29.5236 38.3933 29.7832 37.7389 29.9645C37.0844 30.1387 36.2716 30.2383 35.3762 30.1636C34.4862 30.1014 33.4955 29.7974 32.6828 29.1485C31.8664 28.5068 31.327 27.625 31.1221 26.7574C31.0196 26.3237 31.0088 25.8917 31.0717 25.5006C31.1364 25.1095 31.2677 24.7575 31.4367 24.4641C31.7801 23.8775 32.2135 23.5201 32.5191 23.3068C32.6702 23.1948 32.8014 23.1255 32.8877 23.0775C32.974 23.0295 33.0208 23.0046 33.0226 23.0081C33.0226 23.0117 32.9812 23.0401 32.8985 23.0935C32.8158 23.1468 32.6899 23.2197 32.5425 23.3353C32.2458 23.5575 31.8233 23.9184 31.496 24.4961C31.3342 24.7841 31.2102 25.129 31.1508 25.5112C31.0915 25.8935 31.1059 26.3148 31.2084 26.7379C31.4115 27.5841 31.9438 28.4481 32.7421 29.0756C33.5386 29.7121 34.506 30.0107 35.3852 30.0783C36.2681 30.1565 37.0736 30.0641 37.7227 29.9005C38.3718 29.7281 38.8608 29.481 39.1665 29.2676C39.2402 29.2125 39.3067 29.1645 39.3661 29.1201C39.4236 29.0774 39.4668 29.033 39.5045 29.0028C39.5782 28.9388 39.6196 28.905 39.6214 28.9068V28.9085Z" fill="#263238"/>
<path d="M40.5527 20.1236C40.5527 20.1236 40.5599 20.0827 40.5797 20.0081C40.6031 19.9245 40.6336 19.8161 40.6696 19.6827C40.7433 19.4001 40.8512 18.9894 40.9123 18.4703C40.9393 18.2125 40.9645 17.9228 40.9033 17.6312C40.8746 17.4908 40.7811 17.3343 40.6354 17.393C40.497 17.4428 40.3783 17.5743 40.2722 17.7041C40.0619 17.9743 39.8838 18.2925 39.7238 18.6321C39.5638 18.9716 39.42 19.3325 39.2923 19.7112C39.1664 20.0898 39.0639 20.465 38.9866 20.8312C38.9111 21.1974 38.8608 21.5583 38.8662 21.8996C38.8733 22.0667 38.8895 22.2409 38.9704 22.3636C39.0531 22.4969 39.2204 22.4258 39.33 22.3298C39.5548 22.1307 39.7112 21.8836 39.8443 21.6614C40.1068 21.2098 40.2704 20.817 40.3819 20.5467C40.4322 20.417 40.4736 20.3138 40.506 20.2321C40.5347 20.161 40.5509 20.1236 40.5545 20.1236C40.5581 20.1236 40.5473 20.1645 40.5239 20.2374C40.5024 20.3121 40.4664 20.4205 40.4161 20.5574C40.3136 20.833 40.1607 21.2312 39.9018 21.6916C39.7688 21.9192 39.6195 22.1716 39.3804 22.3867C39.3157 22.4347 39.2491 22.4898 39.1574 22.5076C39.0693 22.5325 38.9507 22.4916 38.9039 22.408C38.8014 22.2534 38.7924 22.0738 38.7798 21.8996C38.7709 21.5476 38.8212 21.1832 38.8967 20.8116C38.9722 20.4401 39.0765 20.0614 39.2024 19.6792C39.33 19.2987 39.4757 18.9343 39.6393 18.5912C39.8029 18.2481 39.9827 17.9263 40.2039 17.649C40.319 17.5157 40.434 17.377 40.6103 17.313C40.6984 17.2739 40.8188 17.3094 40.8728 17.3823C40.9357 17.4517 40.9555 17.5334 40.9789 17.6117C41.04 17.9263 41.0094 18.2161 40.9789 18.4774C40.9087 19.0001 40.7901 19.4107 40.7056 19.6916C40.6624 19.8321 40.6246 19.9405 40.5977 20.0116C40.5707 20.0845 40.5563 20.1218 40.5527 20.1201V20.1236Z" fill="#263238"/>
<path d="M38.2224 16.599C38.2224 16.599 38.208 16.599 38.1792 16.5955C38.1469 16.5902 38.1055 16.583 38.057 16.5742C37.9491 16.5564 37.7909 16.5208 37.5859 16.4888C37.1759 16.4159 36.5808 16.3306 35.84 16.2702C35.0992 16.2133 34.2128 16.1813 33.2346 16.2471C32.2565 16.3093 31.1813 16.4568 30.0952 16.7715C29.0056 17.079 28.0275 17.5501 27.1968 18.0604C26.3661 18.5759 25.6756 19.127 25.1254 19.6195C24.5752 20.1119 24.1545 20.5386 23.8686 20.8372C23.7302 20.983 23.6205 21.0968 23.5396 21.1821C23.5054 21.2177 23.4766 21.2461 23.4533 21.271C23.4335 21.2906 23.4227 21.2994 23.4209 21.2994C23.4209 21.2994 23.4281 21.287 23.4461 21.2657C23.4676 21.2408 23.4946 21.2088 23.5252 21.1714C23.5971 21.0897 23.6996 20.967 23.8416 20.8159C24.1203 20.5101 24.5339 20.0763 25.0805 19.575C25.6271 19.0737 26.3175 18.5155 27.15 17.991C27.9861 17.4737 28.9715 16.9955 30.0683 16.6862C31.1633 16.3697 32.2457 16.2239 33.2292 16.1653C34.2146 16.1048 35.1046 16.1422 35.8454 16.2079C36.588 16.2755 37.1831 16.3733 37.5913 16.455C37.7963 16.4924 37.9527 16.535 38.0588 16.5582C38.1073 16.5706 38.1469 16.5795 38.1792 16.5884C38.2062 16.5955 38.2206 16.6008 38.2206 16.6008L38.2224 16.599Z" fill="#F9F9F9"/>
<path d="M9.34956 39.233C9.34956 39.233 9.32618 39.1939 9.29022 39.1157C9.25246 39.0286 9.20212 38.9148 9.13918 38.7726C9.10682 38.6961 9.07086 38.6143 9.0313 38.5237C8.99534 38.4312 8.96477 38.3281 8.92702 38.2179C8.85689 37.9975 8.7616 37.7503 8.70226 37.4641C8.6681 37.3219 8.63214 37.1744 8.59438 37.0197C8.55842 36.865 8.54044 36.6997 8.51167 36.5308C8.44694 36.193 8.42716 35.8268 8.39479 35.4428C8.36423 34.673 8.40199 33.8215 8.55482 32.9433C8.72024 32.0668 8.98276 31.2562 9.28123 30.5451C9.44485 30.1949 9.59229 29.8589 9.7721 29.5638C9.8584 29.4162 9.93392 29.2669 10.022 29.1335C10.1119 29.002 10.1964 28.874 10.2791 28.7531C10.4356 28.506 10.6118 28.3069 10.7556 28.1238C10.8293 28.0331 10.8941 27.9478 10.9606 27.8731C11.0289 27.802 11.0919 27.7362 11.1494 27.6758C11.2591 27.5638 11.3454 27.4731 11.4119 27.4056C11.473 27.3451 11.5054 27.3131 11.5072 27.3167C11.509 27.3185 11.4802 27.354 11.4245 27.4198C11.3616 27.4909 11.2789 27.5851 11.1764 27.7007C11.1206 27.7611 11.0613 27.8287 10.9948 27.9016C10.9318 27.978 10.8689 28.0651 10.797 28.1558C10.6585 28.3407 10.4859 28.5415 10.3349 28.7904C10.2558 28.9113 10.1713 29.0393 10.085 29.1709C9.99865 29.3042 9.92673 29.4518 9.84222 29.6011C9.66601 29.8944 9.52397 30.2304 9.36214 30.5771C9.06906 31.2846 8.81014 32.09 8.64832 32.9593C8.49728 33.8304 8.45593 34.673 8.4829 35.4375C8.51167 35.8197 8.52785 36.1824 8.59078 36.5184C8.61775 36.6855 8.63393 36.8508 8.6681 37.0055C8.70226 37.1601 8.73642 37.3077 8.76879 37.4481C8.82273 37.7326 8.91443 37.9797 8.97916 38.2019C9.01332 38.3121 9.04209 38.4152 9.07625 38.5077C9.11221 38.5983 9.14458 38.6819 9.17515 38.7583C9.23088 38.9023 9.27584 39.0197 9.31 39.1068C9.34057 39.1868 9.35495 39.2294 9.35135 39.2312L9.34956 39.233Z" fill="#F9F9F9"/>
<path d="M18.4062 50.4203C18.4062 50.4203 18.3756 50.4061 18.3253 50.3705C18.2659 50.3278 18.1922 50.2763 18.1041 50.2141C17.9117 50.0772 17.6402 49.8692 17.313 49.6043C16.6549 49.0763 15.781 48.303 14.8928 47.3732C14.0064 46.4417 13.2781 45.5314 12.7837 44.8506C12.5356 44.511 12.3432 44.2301 12.2155 44.0328C12.1562 43.9403 12.1094 43.8657 12.0699 43.8052C12.0375 43.7519 12.0213 43.7235 12.0249 43.7217C12.0267 43.7217 12.0483 43.7448 12.086 43.7946C12.1292 43.8532 12.1813 43.9243 12.2461 44.0132C12.3827 44.2052 12.5841 44.479 12.8376 44.8132C13.3447 45.4817 14.0765 46.383 14.9611 47.311C15.8457 48.239 16.7106 49.0159 17.3561 49.5563C17.678 49.8265 17.9423 50.0416 18.1275 50.1874C18.212 50.2567 18.2821 50.3118 18.3378 50.3581C18.3846 50.3972 18.4098 50.4203 18.408 50.4221L18.4062 50.4203Z" fill="#F9F9F9"/>
<path d="M34.0724 8.22137C34.0113 8.36181 33.5078 8.28715 32.9486 8.05248C32.3876 7.81782 31.9831 7.51204 32.0442 7.3716C32.1053 7.23116 32.6088 7.30582 33.168 7.54049C33.729 7.77515 34.1335 8.07915 34.0724 8.22137Z" fill="#263238"/>
<path d="M33.4577 9.72698C33.4613 9.73587 33.3354 9.78742 33.1178 9.80698C32.9021 9.82831 32.5964 9.80698 32.2835 9.69142C31.9707 9.57409 31.7261 9.39098 31.5787 9.23454C31.4295 9.07809 31.3683 8.95721 31.3773 8.95365C31.3899 8.94476 31.469 9.04965 31.6255 9.18832C31.7801 9.32698 32.0192 9.49409 32.3177 9.60609C32.6162 9.71631 32.9075 9.74831 33.116 9.74298C33.3246 9.73942 33.4541 9.71275 33.4595 9.72698H33.4577Z" fill="#263238"/>
<path d="M29.9784 8.70543C29.9784 8.70543 29.9514 8.76943 29.8795 8.87254C29.8093 8.97565 29.6961 9.11609 29.536 9.27431C29.2196 9.58897 28.6874 9.95342 28.0113 10.1116C27.3352 10.2699 26.6915 10.1827 26.2672 10.0423C26.0532 9.97297 25.8878 9.89653 25.7763 9.83608C25.6666 9.77564 25.6091 9.73653 25.6127 9.7312C25.6217 9.7152 25.859 9.85919 26.2852 9.9783C26.7077 10.0992 27.3316 10.1739 27.9879 10.021C28.6442 9.86631 29.1674 9.52142 29.4893 9.22631C29.8147 8.92943 29.9622 8.69476 29.9784 8.70543Z" fill="#263238"/>
<path d="M25.0842 10.8418C25.0842 10.8418 25.0572 10.8596 25.0015 10.8827C24.935 10.9094 24.854 10.9431 24.7569 10.984C24.6491 11.0267 24.5196 11.08 24.3722 11.1493C24.2247 11.2187 24.0521 11.288 23.8705 11.3858C23.6871 11.4765 23.4857 11.5778 23.2772 11.7005C23.065 11.8142 22.8474 11.9547 22.6173 12.0969C22.1642 12.3938 21.6823 12.7458 21.2076 13.1511C20.7365 13.5618 20.3194 13.9867 19.9616 14.392C19.7872 14.5982 19.6181 14.792 19.4761 14.9858C19.3269 15.1742 19.1974 15.3573 19.0823 15.5244C18.9619 15.6897 18.8684 15.848 18.7785 15.9849C18.6886 16.12 18.6184 16.2409 18.5609 16.3404C18.5069 16.4311 18.462 16.5057 18.426 16.5662C18.3937 16.6177 18.3757 16.6444 18.3739 16.6426C18.3703 16.6426 18.3829 16.6124 18.4099 16.5573C18.4422 16.4933 18.4818 16.4169 18.5303 16.3226C18.5825 16.2195 18.649 16.0969 18.7335 15.9582C18.818 15.8195 18.9079 15.656 19.0266 15.4889C19.1399 15.3182 19.2657 15.1315 19.4132 14.9395C19.5534 14.7422 19.7224 14.5466 19.895 14.3369C20.2528 13.9262 20.67 13.496 21.1447 13.0818C21.623 12.6729 22.1102 12.3209 22.5687 12.0258C22.8025 11.8836 23.0218 11.7449 23.2376 11.6347C23.4498 11.5156 23.6529 11.416 23.8399 11.3289C24.0251 11.2365 24.1996 11.1689 24.3506 11.1049C24.5016 11.0391 24.6347 10.9911 24.7426 10.9538C24.8433 10.92 24.926 10.8916 24.9943 10.8685C25.0518 10.8489 25.0824 10.8418 25.0842 10.8436V10.8418Z" fill="#F9F9F9"/>
<path d="M25.6686 9.61375C25.6398 9.60486 25.8214 9.17108 25.8412 8.60576C25.8682 8.04043 25.7226 7.59421 25.7513 7.5871C25.7711 7.57643 25.9617 8.02443 25.9347 8.60931C25.9131 9.19597 25.6866 9.62619 25.6686 9.61375Z" fill="#F9F9F9"/>
<path d="M32.0732 7.94374C32.0965 7.95085 32.057 8.12507 31.9347 8.30285C31.8142 8.4824 31.6668 8.58551 31.6506 8.56596C31.6326 8.5464 31.7423 8.42018 31.8574 8.25129C31.9725 8.08241 32.0498 7.93485 32.075 7.94374H32.0732Z" fill="#F9F9F9"/>
<path d="M37.318 15.0335C37.3 15.0335 37.3414 14.7313 37.2838 14.2513C37.2299 13.7749 37.0465 13.1153 36.624 12.5073C36.2014 11.9011 35.6422 11.4958 35.2107 11.2754C34.7774 11.0514 34.4771 10.9838 34.4825 10.966C34.4825 10.9607 34.5598 10.9731 34.6929 11.0087C34.8259 11.0442 35.0165 11.11 35.2395 11.2167C35.6854 11.4247 36.2662 11.8318 36.6995 12.454C37.1328 13.0762 37.3108 13.7571 37.3486 14.2424C37.3702 14.4878 37.3648 14.6851 37.3504 14.822C37.3378 14.9589 37.3216 15.0318 37.3162 15.0318L37.318 15.0335Z" fill="#F9F9F9"/>
<g opacity="0.3">
<path d="M22.9875 9.93849C22.9588 10.7118 22.7358 11.3323 22.4931 11.3216C22.2485 11.3127 22.0759 10.678 22.1047 9.90472C22.1335 9.13139 22.3564 8.51095 22.5992 8.52162C22.8437 8.53051 23.0163 9.16517 22.9875 9.93849Z" fill="black"/>
</g>
<path d="M22.493 11.3222C22.493 11.3222 22.4499 11.3062 22.3887 11.2546C22.3294 11.2013 22.2395 11.1195 22.1891 10.9755C22.1028 10.7053 22.0309 10.3142 22.0453 9.88041C22.0633 9.44664 22.1442 9.05731 22.2772 8.79776C22.4121 8.53287 22.6045 8.46354 22.6045 8.47598C22.6153 8.48843 22.4481 8.57198 22.3366 8.8262C22.2269 9.07687 22.1568 9.46086 22.1388 9.88219C22.1244 10.3053 22.1855 10.6875 22.2521 10.956C22.288 11.0822 22.3654 11.1711 22.4139 11.228C22.466 11.2866 22.4966 11.3168 22.493 11.3222Z" fill="#263238"/>
<path d="M8.66278 26.5439C8.66278 26.5439 8.62322 26.471 8.56748 26.3305C8.53871 26.2612 8.50635 26.1741 8.47398 26.0727C8.44162 25.9714 8.40206 25.8559 8.3715 25.7243C8.30137 25.4648 8.24024 25.1483 8.19888 24.7945C8.16292 24.4408 8.14674 24.0479 8.17012 23.6372C8.19709 23.2266 8.26002 22.839 8.34093 22.4923C8.42544 22.1457 8.52433 21.8399 8.62502 21.591C8.67177 21.4648 8.72571 21.3546 8.76886 21.2568C8.81202 21.159 8.85517 21.0772 8.89293 21.0115C8.96485 20.8799 9.008 20.8088 9.0134 20.8106C9.02958 20.8195 8.86955 21.111 8.68615 21.6123C8.59266 21.863 8.50275 22.167 8.42364 22.5101C8.34992 22.855 8.29058 23.2372 8.26361 23.6426C8.24024 24.0479 8.25283 24.4354 8.28519 24.7857C8.32115 25.1359 8.37329 25.4488 8.43623 25.7083C8.55669 26.2274 8.68076 26.5367 8.66278 26.5439Z" fill="#F9F9F9"/>
</g>
<defs>
<filter id="filter0_d_940_12541" x="1.64062" y="2.91602" width="22.9497" height="32.1387" filterUnits="userSpaceOnUse" color-interpolation-filters="sRGB">
<feFlood flood-opacity="0" result="BackgroundImageFix"/>
<feColorMatrix in="SourceAlpha" type="matrix" values="0 0 0 0 0 0 0 0 0 0 0 0 0 0 0 0 0 0 127 0" result="hardAlpha"/>
<feOffset dx="-2" dy="2"/>
<feGaussianBlur stdDeviation="2"/>
<feComposite in2="hardAlpha" operator="out"/>
<feColorMatrix type="matrix" values="0 0 0 0 0 0 0 0 0 0 0 0 0 0 0 0 0 0 0.1 0"/>
<feBlend mode="normal" in2="BackgroundImageFix" result="effect1_dropShadow_940_12541"/>
<feBlend mode="normal" in="SourceGraphic" in2="effect1_dropShadow_940_12541" result="shape"/>
</filter>
<filter id="filter1_d_940_12541" x="7.9231" y="-1.87305" width="30.127" height="26.2788" filterUnits="userSpaceOnUse" color-interpolation-filters="sRGB">
<feFlood flood-opacity="0" result="BackgroundImageFix"/>
<feColorMatrix in="SourceAlpha" type="matrix" values="0 0 0 0 0 0 0 0 0 0 0 0 0 0 0 0 0 0 127 0" result="hardAlpha"/>
<feOffset dx="-4" dy="-4"/>
<feGaussianBlur stdDeviation="2"/>
<feComposite in2="hardAlpha" operator="out"/>
<feColorMatrix type="matrix" values="0 0 0 0 0 0 0 0 0 0 0 0 0 0 0 0 0 0 0.1 0"/>
<feBlend mode="normal" in2="BackgroundImageFix" result="effect1_dropShadow_940_12541"/>
<feBlend mode="normal" in="SourceGraphic" in2="effect1_dropShadow_940_12541" result="shape"/>
</filter>
<filter id="filter2_d_940_12541" x="4.22559" y="19.3145" width="41.4807" height="44.5" filterUnits="userSpaceOnUse" color-interpolation-filters="sRGB">
<feFlood flood-opacity="0" result="BackgroundImageFix"/>
<feColorMatrix in="SourceAlpha" type="matrix" values="0 0 0 0 0 0 0 0 0 0 0 0 0 0 0 0 0 0 127 0" result="hardAlpha"/>
<feOffset dx="1" dy="3"/>
<feGaussianBlur stdDeviation="2"/>
<feComposite in2="hardAlpha" operator="out"/>
<feColorMatrix type="matrix" values="0 0 0 0 0 0 0 0 0 0 0 0 0 0 0 0 0 0 0.15 0"/>
<feBlend mode="normal" in2="BackgroundImageFix" result="effect1_dropShadow_940_12541"/>
<feBlend mode="normal" in="SourceGraphic" in2="effect1_dropShadow_940_12541" result="shape"/>
</filter>
<filter id="filter3_d_940_12541" x="27.0581" y="22.0957" width="18.9658" height="16.012" filterUnits="userSpaceOnUse" color-interpolation-filters="sRGB">
<feFlood flood-opacity="0" result="BackgroundImageFix"/>
<feColorMatrix in="SourceAlpha" type="matrix" values="0 0 0 0 0 0 0 0 0 0 0 0 0 0 0 0 0 0 127 0" result="hardAlpha"/>
<feOffset dy="4"/>
<feGaussianBlur stdDeviation="2"/>
<feComposite in2="hardAlpha" operator="out"/>
<feColorMatrix type="matrix" values="0 0 0 0 0 0 0 0 0 0 0 0 0 0 0 0 0 0 0.25 0"/>
<feBlend mode="normal" in2="BackgroundImageFix" result="effect1_dropShadow_940_12541"/>
<feBlend mode="normal" in="SourceGraphic" in2="effect1_dropShadow_940_12541" result="shape"/>
</filter>
<clipPath id="clip0_940_12541">
<rect width="47" height="63" fill="white" transform="translate(0 0.5)"/>
</clipPath>
</defs>
</svg>
