<svg width="47" height="56" viewBox="0 0 47 56" fill="none" xmlns="http://www.w3.org/2000/svg">
<g clip-path="url(#clip0_700_3174)">
<path d="M30.6825 11.4565C30.6825 11.4565 30.1898 15.1358 25.95 15.3675L26.0584 17.0289C26.0584 17.0289 28.0292 16.8953 29.4485 15.9153C29.4485 15.9153 31.3243 15.6436 32.4137 16.1247L32.7346 14.8641C32.7346 14.8641 31.2249 14.6058 30.1853 14.775C30.1084 14.7884 30.0587 14.6948 30.1175 14.6414C30.5379 14.2271 31.4826 13.2116 31.5639 12.3608L30.6915 11.4565H30.6825Z" fill="#9090D4"/>
<path d="M32.2328 17.1179C32.2328 17.1179 30.1626 19.2827 26.9533 18.6369L26.3477 20.0801C26.3477 20.0801 28.2913 20.4052 29.7558 20.3295C31.2203 20.2538 32.6577 21.4475 32.6577 21.4475L33.0103 20.2271C33.0103 20.2271 31.6723 19.4787 30.8406 19.4787C30.0089 19.4787 32.8611 18.3607 32.8611 18.3607L32.2283 17.1179H32.2328Z" fill="#9090D4"/>
<path d="M26.9443 19.4745C26.7771 19.8709 26.5104 20.1426 26.3522 20.0758C26.1895 20.009 26.194 19.6348 26.3612 19.2384C26.5285 18.842 26.7952 18.5702 26.9534 18.6371C27.1161 18.7039 27.1116 19.078 26.9443 19.4745Z" fill="#7878B7"/>
<path d="M26.3477 16.1738C26.3703 16.6326 26.2482 17.0112 26.0719 17.0201C25.8957 17.029 25.7375 16.6637 25.7149 16.2005C25.6923 15.7417 25.8143 15.3631 25.9906 15.3542C26.1669 15.3453 26.3251 15.7105 26.3477 16.1738Z" fill="#7878B7"/>
<path d="M33.8781 21.8843C33.8781 21.8843 29.6518 22.7039 27.5997 25.1226C25.543 27.5413 27.0301 37.4789 26.5329 39.9422C26.5329 39.9422 27.1793 40.5792 28.2054 39.9422C28.2054 39.9422 25.9227 25.9867 33.8374 24.2094L33.8736 21.8843H33.8781Z" fill="#F17970"/>
<path d="M28.9422 23.6035C28.9422 23.6035 27.2698 29.991 32.6171 32.3652C37.9644 34.7349 47.2803 28.5077 46.9865 19.1892C46.548 5.26941 40.1024 -2.28516 33.2183 0.614622C26.3341 3.5144 30.009 10.1647 31.3469 13.0645C32.6849 15.9643 29.4756 17.2783 28.9422 23.6035Z" fill="#F17970"/>
<path d="M39.9305 10.4633C39.9305 10.4633 43.2619 9.029 42.7601 4.15594C42.3036 3.48779 41.8154 2.89537 41.3047 2.37866C41.5487 3.39425 42.516 8.13367 39.926 10.4633H39.9305Z" fill="#E66963"/>
<path d="M31.573 13.5546C31.573 13.5546 34.7371 13.9644 37.1192 12.4365" stroke="#DC5656" stroke-miterlimit="10" stroke-linecap="round"/>
<path d="M29.0054 23.1404C29.0054 23.1404 33.539 21.4923 36.224 23.8442" stroke="#DC5656" stroke-miterlimit="10" stroke-linecap="round"/>
<path d="M46.991 19.1893C46.8057 16.2494 46.3943 13.5902 45.7886 11.2561C45.6124 19.4298 43.054 30.4053 30.7231 31.1136C31.0396 31.412 31.4012 31.6926 31.8125 31.9421C31.8893 31.9866 31.9662 32.0312 32.043 32.0757C32.0566 32.0846 32.0701 32.0891 32.0837 32.098C32.1515 32.1336 32.2238 32.1692 32.2916 32.2049C32.3097 32.2138 32.3278 32.2227 32.3504 32.2361C32.4363 32.2806 32.5267 32.3207 32.6171 32.3608C37.9643 34.7305 47.2803 28.5033 46.9865 19.1893H46.991Z" fill="#E66963"/>
<path d="M23.6944 38.3564C23.6944 38.3564 28.8654 38.0045 30.5017 41.5324C32.1379 45.0647 31.374 48.4455 27.889 50.1604C24.4086 51.8753 26.4562 55.4566 23.7938 55.96C21.1315 56.4633 22.718 51.421 19.5947 50.3609C16.4713 49.3007 15.3458 45.2161 16.4713 41.8843C17.5968 38.5524 23.6899 38.352 23.6899 38.352L23.6944 38.3564Z" fill="#F17970"/>
<path d="M16.3131 11.4565C16.3131 11.4565 16.8058 15.1358 21.0457 15.3675L20.9372 17.0289C20.9372 17.0289 18.9664 16.8953 17.5471 15.9153C17.5471 15.9153 15.6713 15.6436 14.5819 16.1247L14.261 14.8641C14.261 14.8641 15.7707 14.6058 16.8103 14.775C16.8872 14.7884 16.9369 14.6948 16.8826 14.6414C16.4623 14.2271 15.5176 13.2116 15.4362 12.3608L16.3086 11.4565H16.3131Z" fill="#9090D4"/>
<path d="M14.7672 17.1179C14.7672 17.1179 16.8374 19.2827 20.0467 18.6369L20.6524 20.0801C20.6524 20.0801 18.7087 20.4052 17.2442 20.3295C15.7797 20.2538 14.3423 21.4475 14.3423 21.4475L13.9897 20.2271C13.9897 20.2271 15.3277 19.4787 16.1594 19.4787C16.9911 19.4787 14.1389 18.3607 14.1389 18.3607L14.7717 17.1179H14.7672Z" fill="#9090D4"/>
<path d="M20.0558 19.4745C20.223 19.8709 20.4897 20.1426 20.6479 20.0758C20.8107 20.009 20.8061 19.6348 20.6389 19.2384C20.4717 18.842 20.205 18.5702 20.0468 18.6371C19.884 18.7039 19.8886 19.078 20.0558 19.4745Z" fill="#7878B7"/>
<path d="M20.6524 16.1738C20.6298 16.6326 20.7518 17.0112 20.9281 17.0201C21.1044 17.029 21.2626 16.6637 21.2852 16.2005C21.3078 15.7417 21.1857 15.3631 21.0094 15.3542C20.8332 15.3453 20.675 15.7105 20.6524 16.1738Z" fill="#7878B7"/>
<path d="M13.1218 21.8843C13.1218 21.8843 17.3481 22.7039 19.4002 25.1226C21.4569 27.5413 19.9698 37.4789 20.467 39.9422C20.467 39.9422 19.8206 40.5792 18.7946 39.9422C18.7946 39.9422 21.0772 25.9867 13.1625 24.2094L13.1263 21.8843H13.1218Z" fill="#F17970"/>
<path d="M18.0534 23.6035C18.0534 23.6035 19.7258 29.991 14.3785 32.3652C9.03127 34.7349 -0.284658 28.5033 0.00462845 19.1892C0.443078 5.26941 6.89326 -2.28516 13.7774 0.614622C20.6615 3.5144 16.9866 10.1647 15.6487 13.0645C14.3107 15.9643 17.52 17.2783 18.0534 23.6035Z" fill="#F17970"/>
<path d="M7.06953 10.4633C7.06953 10.4633 3.73822 9.029 4.23995 4.15594C4.69648 3.48779 5.18465 2.89537 5.69542 2.37866C5.45134 3.39425 4.48404 8.13367 7.07405 10.4633H7.06953Z" fill="#E66963"/>
<path d="M15.427 13.5546C15.427 13.5546 12.263 13.9644 9.88086 12.4365" stroke="#DC5656" stroke-miterlimit="10" stroke-linecap="round"/>
<path d="M17.9945 23.1404C17.9945 23.1404 13.4608 21.4923 10.7759 23.8442" stroke="#DC5656" stroke-miterlimit="10" stroke-linecap="round"/>
<path d="M0.00462845 19.1893C0.189953 16.2494 0.601282 13.5902 1.20697 11.2561C1.38326 19.4298 3.94164 30.4053 16.2725 31.1136C15.9561 31.412 15.5945 31.6926 15.1831 31.9421C15.1063 31.9866 15.0294 32.0312 14.9526 32.0757C14.939 32.0846 14.9255 32.0891 14.9119 32.098C14.8441 32.1336 14.7718 32.1692 14.704 32.2049C14.6859 32.2138 14.6678 32.2227 14.6452 32.2361C14.5594 32.2806 14.4689 32.3207 14.3785 32.3608C9.03127 34.7349 -0.284658 28.5033 0.00462845 19.1893Z" fill="#E66963"/>
<path d="M23.7937 55.9644C26.4561 55.461 24.4085 51.8797 27.8889 50.1648C31.3694 48.4499 32.1378 45.069 30.5016 41.5368C30.158 40.8018 29.6653 40.2361 29.0958 39.7996C28.3184 42.8953 26.1577 48.2005 20.2771 50.7038C22.4919 52.2183 21.3574 56.4276 23.7983 55.9644H23.7937Z" fill="#EB6863"/>
<path d="M17.9539 41.47C17.1448 42.5658 16.8419 43.7105 17.2804 44.0268C17.7188 44.3431 18.7313 43.7061 19.545 42.6103C20.3541 41.5146 20.6569 40.3698 20.2185 40.0535C19.78 39.7373 18.7675 40.3742 17.9539 41.47Z" fill="#F4999C"/>
<path d="M16.8012 45.176C16.7198 45.6036 16.8645 45.9867 17.1311 46.0401C17.3978 46.0891 17.6826 45.7862 17.764 45.3586C17.8453 44.931 17.7007 44.5479 17.434 44.4945C17.1673 44.4455 16.8825 44.7484 16.8012 45.176Z" fill="#F4999C"/>
</g>
<defs>
<clipPath id="clip0_700_3174">
<rect width="47" height="56" fill="white"/>
</clipPath>
</defs>
</svg>
