<svg width="210" height="198" viewBox="0 0 210 198" fill="none" xmlns="http://www.w3.org/2000/svg">
<path d="M29.1073 42.6379C27.7867 35.7571 32.2941 29.1085 39.1749 27.7879L166.525 3.34558C173.405 2.02495 180.054 6.53235 181.375 13.4131L203.825 130.384L196.649 139.856L183.241 157.555L175.173 168.205L69.9996 188.391C63.1188 189.712 56.4702 185.205 55.1496 178.324L29.1073 42.6379Z" fill="#61D3D3"/>
<path d="M23.5577 46.2983C23.5577 39.2919 29.2375 33.6121 36.2439 33.6121H166.297C173.304 33.6121 178.983 39.2919 178.983 46.2982V165.404L170.129 173.354L153.585 188.209L143.63 197.147H36.2439C29.2375 197.147 23.5577 191.467 23.5577 184.461V46.2983Z" fill="white"/>
<path d="M31.4306 23.0497C32.2933 24.4612 34.1369 24.9063 35.5484 24.0436C36.96 23.181 37.405 21.3374 36.5424 19.9259L31.4306 23.0497ZM15.3429 8.06987L15.7466 11.0379L15.3429 8.06987ZM4.24012 24.6516L7.08247 23.7065L4.24012 24.6516ZM26.209 58.3236L23.7953 60.0973V60.0973L26.209 58.3236ZM44.2198 60.1155L45.9755 62.5424L44.2198 60.1155ZM49.7596 38.8058C48.6871 37.5462 46.7966 37.3946 45.5371 38.467C44.2775 39.5395 44.1258 41.43 45.1983 42.6895L49.7596 38.8058ZM36.5424 19.9259C34.7144 16.9345 32.4148 12.7756 29.1814 9.69523C25.7559 6.43185 21.1871 4.2521 14.9393 5.10185L15.7466 11.0379C19.9176 10.4706 22.7285 11.8218 25.0492 14.0326C27.5618 16.4264 29.3745 19.685 31.4306 23.0497L36.5424 19.9259ZM14.9393 5.10185C4.27138 6.55274 -1.405 17.1672 1.39777 25.5967L7.08247 23.7065C5.44909 18.7941 8.84193 11.977 15.7466 11.0379L14.9393 5.10185ZM1.39777 25.5967C2.66111 29.3962 6.37067 35.3819 10.5118 41.4985C14.7422 47.7472 19.7126 54.5414 23.7953 60.0973L28.6228 56.5498C24.5342 50.9861 19.6292 44.2797 15.4725 38.14C11.2265 31.8684 8.0372 26.5779 7.08247 23.7065L1.39777 25.5967ZM23.7953 60.0973C25.387 62.2633 28.7291 64.3733 32.558 65.2501C36.5474 66.1636 41.4349 65.8271 45.9755 62.5424L42.4642 57.6886C39.5636 59.787 36.5157 60.0106 33.8952 59.4105C31.1139 58.7737 29.1712 57.2962 28.6228 56.5498L23.7953 60.0973ZM45.9755 62.5424C50.8502 59.016 52.5705 53.9295 52.7324 49.4892C52.813 47.2782 52.5147 45.171 52.0062 43.3795C51.5136 41.6439 50.7589 39.9795 49.7596 38.8058L45.1983 42.6895C45.437 42.9699 45.881 43.7393 46.2432 45.0154C46.5895 46.2355 46.8023 47.7174 46.7457 49.2709C46.6331 52.3595 45.4857 55.5028 42.4642 57.6886L45.9755 62.5424Z" fill="#55A8A8"/>
<path d="M46.9852 84.9963H151.621" stroke="#61D3D3" stroke-width="6.34309" stroke-linecap="round"/>
<path d="M46.9852 106.964H151.621" stroke="#61D3D3" stroke-width="6.34309" stroke-linecap="round"/>
<path d="M46.9852 129.931H151.621" stroke="#61D3D3" stroke-width="6.34309" stroke-linecap="round"/>
<path d="M143.539 162.628L179.415 165.68L143.539 197.156L143.539 162.628Z" fill="#55A8A8"/>
</svg>
