<svg width="68" height="64" viewBox="0 0 68 64" fill="none" xmlns="http://www.w3.org/2000/svg">
<g clip-path="url(#clip0_5403_52166)">
<path d="M33.4171 44.8976C32.9812 44.5915 32.6282 44.2463 32.256 43.9248C31.8682 43.5903 31.4828 43.2522 31.0962 42.9153C30.7227 42.5903 30.3517 42.2629 29.9759 41.9413C29.6037 41.6222 29.2519 41.277 28.8089 40.9579C28.7572 41.1021 28.6996 41.1908 28.6972 41.2806C28.6816 41.8586 28.684 42.4366 28.672 43.0134C28.6384 44.6056 28.6011 46.199 28.5627 47.7912C28.5591 47.926 28.5291 48.0607 28.5147 48.1766C28.2998 48.3054 28.0993 48.2605 27.9083 48.2605C26.1818 48.264 24.4552 48.2629 22.7286 48.2629C20.7175 48.2629 18.7051 48.2629 16.694 48.2629C16.5007 48.2629 16.3086 48.2522 16.0961 48.2451C16.0624 48.1198 16.024 48.0241 16.0132 47.926C15.9988 47.7877 16.0048 47.6458 16.0048 47.5064C16.0024 41.1659 16.006 34.8279 16 28.4886C16 27.3432 16.1297 26.2227 16.4647 25.1222C17.5993 21.4059 20.7739 18.4886 24.6245 17.6352C25.4602 17.4496 26.3042 17.3598 27.1603 17.3326C27.4929 17.322 27.7294 17.4142 27.9468 17.6683C28.4979 18.3101 29.073 18.9319 29.6385 19.5619C30.7576 20.809 31.8778 22.0548 32.9968 23.303C33.1253 23.4461 33.2466 23.5962 33.3835 23.7569C33.1685 24.1116 32.8215 24.3066 32.5442 24.5678C32.2764 24.8208 31.9859 25.0501 31.7229 25.2735C31.5008 25.2451 31.4347 25.082 31.3339 24.9697C29.9279 23.4106 28.5291 21.8468 27.1243 20.2877C26.949 20.0926 26.7473 19.9201 26.5576 19.738C26.3114 19.7546 26.0641 19.7569 25.8204 19.7889C24.9139 19.9094 24.0494 20.173 23.2389 20.5867C20.601 21.9319 19.0089 24.0525 18.465 26.9236C18.3773 27.3858 18.3437 27.8633 18.3437 28.3338C18.3353 33.9721 18.3377 39.6104 18.3401 45.2487C18.3401 45.4543 18.3005 45.6707 18.4542 45.8964C18.5875 45.9059 18.7424 45.9248 18.8984 45.9272C22.6662 45.9768 25.7363 45.9496 26.153 45.8645C26.2826 45.6612 26.2574 45.4272 26.261 45.2038C26.279 44.2061 26.285 43.2073 26.3042 42.2097C26.3379 40.4768 26.3775 38.7439 26.4195 37.0111C26.4267 36.6967 26.4543 36.3822 26.4771 36.0678C26.4807 36.0217 26.5132 35.9768 26.542 35.9094C26.7521 35.9614 26.8734 36.121 27.0138 36.2428C28.0824 37.1695 29.1463 38.0997 30.2113 39.0288C31.1166 39.8184 32.0231 40.608 32.9308 41.3964C33.0617 41.5099 33.2021 41.6127 33.3174 41.7049C33.5648 41.6423 33.686 41.4815 33.8265 41.3515C37.1212 38.3314 40.4146 35.3101 43.7093 32.29C44.4909 31.5737 45.2738 30.8586 46.0518 30.1399C47.2801 29.0075 48.2034 27.6742 48.7582 26.1045C49.0883 25.1718 49.3069 24.2156 49.2504 23.2238C49.14 21.2617 48.3499 19.6447 46.681 18.4981C45.8369 17.9177 44.9064 17.517 43.8858 17.3952C42.8352 17.2699 41.7918 17.3657 40.788 17.7451C40.0028 18.0418 39.2704 18.4307 38.5812 18.9035C37.82 19.4272 37.1272 20.0288 36.4752 20.6777C36.3527 20.7995 36.2219 20.9142 36.1006 21.0264C35.7332 20.7912 34.7606 19.9153 34.4124 19.5075C34.4497 19.4449 34.4785 19.3598 34.5349 19.3007C35.8701 17.9212 37.3505 16.7286 39.1119 15.9047C40.1013 15.4425 41.1386 15.1328 42.2265 15.0383C44.2448 14.8633 46.1071 15.3397 47.8084 16.4272C49.9216 17.7782 51.1079 19.7191 51.5209 22.1305C51.7647 23.5525 51.581 24.9567 51.1679 26.3326C50.5868 28.2676 49.5674 29.9532 48.1326 31.3905C47.5467 31.9768 46.9235 32.5288 46.3124 33.0903C42.134 36.9248 37.9544 40.7569 33.7749 44.5891C33.6716 44.6837 33.5624 44.7747 33.4159 44.9023L33.4171 44.8976Z" fill="white"/>
<path d="M38.8449 48.9299C38.7705 48.4382 38.7741 44.606 38.8497 44.1604C38.917 44.1379 38.9974 44.0883 39.0779 44.0871C39.665 44.0788 40.2509 44.0741 40.8381 44.0835C41.0794 44.0871 41.1575 44.1698 41.1611 44.4062C41.1707 44.9311 41.1611 45.4559 41.1683 45.9807C41.1707 46.1509 41.1286 46.3318 41.2451 46.4866C41.4 46.5658 41.5585 46.5327 41.7146 46.5043C45.5736 45.7821 48.478 42.9216 49.3197 39.3412C49.4758 38.6769 49.5598 38.0008 49.5742 37.3152C49.5958 36.301 49.6343 35.288 49.6679 34.2739C49.6715 34.1533 49.6919 34.0327 49.7075 33.8885C49.812 33.8625 49.9104 33.8164 50.0089 33.8164C50.56 33.8164 51.1111 33.8211 51.6622 33.833C51.9167 33.8389 51.9792 33.9062 51.996 34.1415C51.9996 34.1935 51.9996 34.2467 51.9984 34.2987C51.9672 35.7148 51.9924 37.1356 51.8471 38.5445C51.6862 40.1095 51.2119 41.5918 50.4111 42.9571C48.6077 46.0327 45.941 47.9689 42.4158 48.7431C41.3003 48.9878 40.1633 49.0268 39.0226 48.9795C38.9722 48.9772 38.923 48.9512 38.8425 48.9275L38.8449 48.9299Z" fill="white"/>
</g>
<defs>
<clipPath id="clip0_5403_52166">
<rect width="36" height="34" fill="white" transform="translate(16 15)"/>
</clipPath>
</defs>
</svg>
