<svg width="20" height="20" viewBox="0 0 20 20" fill="none" xmlns="http://www.w3.org/2000/svg" >
<path d="M7.61693 10.5938H1.75788C0.788734 10.5938 0 11.3431 0 12.2638V17.83C0 18.7507 0.788734 19.5 1.75788 19.5H7.61693C8.58607 19.5 9.37481 18.7507 9.37481 17.83V12.2638C9.37481 11.3431 8.58607 10.5938 7.61693 10.5938ZM8.20316 17.83C8.20316 18.1367 7.94025 18.3865 7.61734 18.3865H1.75788C1.43497 18.3865 1.17206 18.1367 1.17206 17.83V12.2638C1.17206 11.957 1.43497 11.7072 1.75788 11.7072H7.61693C7.93984 11.7072 8.20275 11.957 8.20275 12.2638L8.20316 17.83ZM6.03071 4.00313L4.10158 5.83583L3.3441 5.11621C3.11535 4.8989 2.74453 4.8989 2.51536 5.11621C2.28662 5.33352 2.28662 5.68581 2.51536 5.90352L3.68701 7.0166C3.797 7.1211 3.94617 7.17969 4.10158 7.17969C4.25699 7.17969 4.40574 7.1211 4.51574 7.0166L6.85944 4.79004C7.08819 4.57273 7.08819 4.22044 6.85944 4.00273C6.63069 3.78542 6.25945 3.78542 6.03071 4.00313ZM18.2417 10.5938H12.3827C11.4135 10.5938 10.6248 11.3431 10.6248 12.2638V17.83C10.6248 18.7507 11.4135 19.5 12.3827 19.5H18.2421C19.2113 19.5 20 18.7507 20 17.83V12.2638C19.9996 11.3431 19.2108 10.5938 18.2417 10.5938ZM18.8279 17.83C18.8279 18.1367 18.565 18.3865 18.2421 18.3865H12.3827C12.0597 18.3865 11.7968 18.1367 11.7968 17.83V12.2638C11.7968 11.957 12.0597 11.7072 12.3827 11.7072H18.2421C18.565 11.7072 18.8279 11.957 18.8279 12.2638V17.83ZM16.6555 14.0969L14.7264 15.9296L13.9689 15.21C13.7401 14.9926 13.3693 14.9926 13.1401 15.21C12.9114 15.4273 12.9114 15.7796 13.1401 15.9973L14.3118 17.1104C14.4218 17.2149 14.5709 17.2734 14.7264 17.2734C14.8818 17.2734 15.0305 17.2149 15.1405 17.1104L17.4842 14.8838C17.713 14.6665 17.713 14.3142 17.4842 14.0965C17.2555 13.8792 16.8842 13.8792 16.6555 14.0969ZM18.2417 0.5H12.3827C11.4135 0.5 10.6248 1.24931 10.6248 2.17002V7.73623C10.6248 8.65694 11.4135 9.40625 12.3827 9.40625H18.2421C19.2113 9.40625 20 8.65694 20 7.73623V2.17002C19.9996 1.24931 19.2108 0.5 18.2417 0.5ZM18.8279 7.73623C18.8279 8.043 18.565 8.29277 18.2421 8.29277H12.3827C12.0597 8.29277 11.7968 8.043 11.7968 7.73623V2.17002C11.7968 1.86325 12.0597 1.61348 12.3827 1.61348H18.2421C18.565 1.61348 18.8279 1.86325 18.8279 2.17002V7.73623ZM7.61693 0.5H1.75788C0.788734 0.5 0 1.24931 0 2.17002V7.73623C0 8.65694 0.788734 9.40625 1.75788 9.40625H7.61693C8.58607 9.40625 9.37481 8.65694 9.37481 7.73623V2.17002C9.37481 1.24931 8.58607 0.5 7.61693 0.5ZM8.20316 7.73623C8.20316 8.043 7.94025 8.29277 7.61734 8.29277H1.75788C1.43497 8.29277 1.17206 8.043 1.17206 7.73623V2.17002C1.17206 1.86325 1.43497 1.61348 1.75788 1.61348H7.61693C7.93984 1.61348 8.20275 1.86325 8.20275 2.17002L8.20316 7.73623Z" fill="none" stroke-width="0.75" />
</svg>
