<svg width="346" height="228" viewBox="0 0 346 228" fill="none" xmlns="http://www.w3.org/2000/svg">
<g clip-path="url(#clip0_5471_35753)">
<path d="M331.876 0H14.1236C6.32334 0 0 6.32354 0 14.124V213.876C0 221.676 6.32334 228 14.1236 228H331.876C339.677 228 346 221.676 346 213.876V14.124C346 6.32354 339.677 0 331.876 0Z" fill="#E9E4FF"/>
<path d="M331.876 0H14.1236C6.32503 0 0 6.32522 0 14.124V27.9978H346V14.124C346 6.32522 339.675 0 331.876 0Z" fill="#5840BA"/>
<path d="M288.602 19.4486C291.366 19.4486 293.607 17.208 293.607 14.444C293.607 11.6801 291.366 9.43945 288.602 9.43945C285.838 9.43945 283.598 11.6801 283.598 14.444C283.598 17.208 285.838 19.4486 288.602 19.4486Z" stroke="black" stroke-linejoin="round"/>
<path d="M307.299 19.4486C310.063 19.4486 312.304 17.208 312.304 14.444C312.304 11.6801 310.063 9.43945 307.299 9.43945C304.535 9.43945 302.295 11.6801 302.295 14.444C302.295 17.208 304.535 19.4486 307.299 19.4486Z" stroke="black" stroke-linejoin="round"/>
<path d="M325.996 19.4486C328.76 19.4486 331.001 17.208 331.001 14.444C331.001 11.6801 328.76 9.43945 325.996 9.43945C323.232 9.43945 320.992 11.6801 320.992 14.444C320.992 17.208 323.232 19.4486 325.996 19.4486Z" stroke="black" stroke-linejoin="round"/>
<path d="M141.875 69.8835C137.927 69.8835 134.119 67.2422 131.088 64.726L127.404 61.6537C125.124 59.7492 122.414 58.7344 119.633 58.7344H88.1891C85.3393 58.7344 83.0178 61.042 83.0178 63.9058V179.748C83.0178 183.585 86.1178 186.685 89.9545 186.685H248.72C252.556 186.685 255.656 183.585 255.656 179.748V76.8203C255.656 72.9835 252.556 69.8835 248.72 69.8835H141.875Z" fill="#7584F1"/>
<path d="M100.56 134.14C100.293 134.14 100.08 134.06 99.92 133.9C99.7733 133.74 99.7 133.52 99.7 133.24V120.7C99.7 120.393 99.7733 120.16 99.92 120C100.067 119.84 100.26 119.76 100.5 119.76C100.727 119.76 100.9 119.8 101.02 119.88C101.14 119.96 101.273 120.1 101.42 120.3L109.9 131.54H109.4V120.66C109.4 120.367 109.473 120.147 109.62 120C109.78 119.84 110 119.76 110.28 119.76C110.56 119.76 110.773 119.84 110.92 120C111.067 120.147 111.14 120.367 111.14 120.66V133.24C111.14 133.52 111.067 133.74 110.92 133.9C110.787 134.06 110.607 134.14 110.38 134.14C110.167 134.14 109.987 134.093 109.84 134C109.707 133.92 109.567 133.78 109.42 133.58L100.96 122.34H101.42V133.24C101.42 133.52 101.347 133.74 101.2 133.9C101.053 134.06 100.84 134.14 100.56 134.14ZM118.424 134.18C117.464 134.18 116.631 133.973 115.924 133.56C115.218 133.147 114.671 132.56 114.284 131.8C113.898 131.04 113.704 130.147 113.704 129.12C113.704 128.347 113.811 127.653 114.024 127.04C114.251 126.413 114.571 125.88 114.984 125.44C115.398 125 115.891 124.667 116.464 124.44C117.051 124.2 117.704 124.08 118.424 124.08C119.384 124.08 120.218 124.287 120.924 124.7C121.631 125.113 122.178 125.7 122.564 126.46C122.951 127.207 123.144 128.093 123.144 129.12C123.144 129.893 123.031 130.593 122.804 131.22C122.591 131.847 122.278 132.38 121.864 132.82C121.451 133.26 120.951 133.6 120.364 133.84C119.791 134.067 119.144 134.18 118.424 134.18ZM118.424 132.74C119.011 132.74 119.518 132.6 119.944 132.32C120.384 132.04 120.718 131.633 120.944 131.1C121.184 130.567 121.304 129.907 121.304 129.12C121.304 127.947 121.044 127.053 120.524 126.44C120.004 125.827 119.304 125.52 118.424 125.52C117.851 125.52 117.344 125.66 116.904 125.94C116.478 126.207 116.144 126.607 115.904 127.14C115.664 127.673 115.544 128.333 115.544 129.12C115.544 130.293 115.804 131.193 116.324 131.82C116.858 132.433 117.558 132.74 118.424 132.74ZM131.93 134C131.61 134 131.364 133.913 131.19 133.74C131.017 133.567 130.93 133.32 130.93 133V120.9C130.93 120.58 131.017 120.333 131.19 120.16C131.364 119.987 131.61 119.9 131.93 119.9H135.79C138.097 119.9 139.87 120.507 141.11 121.72C142.364 122.92 142.99 124.66 142.99 126.94C142.99 128.073 142.83 129.08 142.51 129.96C142.19 130.84 141.724 131.58 141.11 132.18C140.497 132.767 139.744 133.22 138.85 133.54C137.97 133.847 136.95 134 135.79 134H131.93ZM132.79 132.42H135.67C136.577 132.42 137.364 132.307 138.03 132.08C138.697 131.853 139.25 131.513 139.69 131.06C140.144 130.607 140.484 130.04 140.71 129.36C140.937 128.667 141.05 127.86 141.05 126.94C141.05 125.113 140.597 123.747 139.69 122.84C138.797 121.933 137.457 121.48 135.67 121.48H132.79V132.42ZM148.732 134.18C148.065 134.18 147.459 134.047 146.912 133.78C146.379 133.513 145.959 133.153 145.652 132.7C145.359 132.247 145.212 131.74 145.212 131.18C145.212 130.46 145.392 129.893 145.752 129.48C146.112 129.067 146.719 128.773 147.572 128.6C148.425 128.413 149.572 128.32 151.012 128.32H151.952V129.48H151.052C150.025 129.48 149.212 129.527 148.612 129.62C148.025 129.713 147.612 129.88 147.372 130.12C147.132 130.347 147.012 130.667 147.012 131.08C147.012 131.6 147.192 132.027 147.552 132.36C147.925 132.693 148.432 132.86 149.072 132.86C149.579 132.86 150.025 132.74 150.412 132.5C150.799 132.247 151.105 131.913 151.332 131.5C151.559 131.073 151.672 130.587 151.672 130.04V127.74C151.672 126.953 151.512 126.387 151.192 126.04C150.872 125.68 150.332 125.5 149.572 125.5C149.132 125.5 148.679 125.56 148.212 125.68C147.745 125.8 147.259 125.987 146.752 126.24C146.552 126.333 146.379 126.367 146.232 126.34C146.085 126.3 145.965 126.22 145.872 126.1C145.792 125.967 145.745 125.827 145.732 125.68C145.732 125.52 145.765 125.367 145.832 125.22C145.912 125.073 146.045 124.967 146.232 124.9C146.819 124.607 147.399 124.4 147.972 124.28C148.559 124.147 149.105 124.08 149.612 124.08C150.479 124.08 151.192 124.22 151.752 124.5C152.312 124.767 152.732 125.187 153.012 125.76C153.292 126.32 153.432 127.04 153.432 127.92V133.2C153.432 133.507 153.359 133.74 153.212 133.9C153.065 134.06 152.852 134.14 152.572 134.14C152.305 134.14 152.092 134.06 151.932 133.9C151.785 133.74 151.712 133.507 151.712 133.2V131.78H151.892C151.785 132.273 151.585 132.7 151.292 133.06C150.999 133.42 150.632 133.7 150.192 133.9C149.765 134.087 149.279 134.18 148.732 134.18ZM160.336 134.18C159.549 134.18 158.889 134.04 158.356 133.76C157.836 133.48 157.443 133.073 157.176 132.54C156.923 132.007 156.796 131.353 156.796 130.58V125.66H155.516C155.276 125.66 155.089 125.6 154.956 125.48C154.823 125.347 154.756 125.173 154.756 124.96C154.756 124.733 154.823 124.56 154.956 124.44C155.089 124.32 155.276 124.26 155.516 124.26H156.796V122.08C156.796 121.773 156.876 121.547 157.036 121.4C157.196 121.24 157.423 121.16 157.716 121.16C158.009 121.16 158.229 121.24 158.376 121.4C158.536 121.547 158.616 121.773 158.616 122.08V124.26H161.036C161.289 124.26 161.483 124.32 161.616 124.44C161.749 124.56 161.816 124.733 161.816 124.96C161.816 125.173 161.749 125.347 161.616 125.48C161.483 125.6 161.289 125.66 161.036 125.66H158.616V130.42C158.616 131.153 158.769 131.707 159.076 132.08C159.383 132.453 159.889 132.64 160.596 132.64C160.849 132.64 161.063 132.62 161.236 132.58C161.409 132.527 161.563 132.5 161.696 132.5C161.816 132.487 161.916 132.527 161.996 132.62C162.089 132.713 162.136 132.887 162.136 133.14C162.136 133.327 162.103 133.5 162.036 133.66C161.983 133.807 161.869 133.907 161.696 133.96C161.536 134.013 161.323 134.06 161.056 134.1C160.789 134.153 160.549 134.18 160.336 134.18ZM166.564 134.18C165.897 134.18 165.291 134.047 164.744 133.78C164.211 133.513 163.791 133.153 163.484 132.7C163.191 132.247 163.044 131.74 163.044 131.18C163.044 130.46 163.224 129.893 163.584 129.48C163.944 129.067 164.551 128.773 165.404 128.6C166.257 128.413 167.404 128.32 168.844 128.32H169.784V129.48H168.884C167.857 129.48 167.044 129.527 166.444 129.62C165.857 129.713 165.444 129.88 165.204 130.12C164.964 130.347 164.844 130.667 164.844 131.08C164.844 131.6 165.024 132.027 165.384 132.36C165.757 132.693 166.264 132.86 166.904 132.86C167.411 132.86 167.857 132.74 168.244 132.5C168.631 132.247 168.937 131.913 169.164 131.5C169.391 131.073 169.504 130.587 169.504 130.04V127.74C169.504 126.953 169.344 126.387 169.024 126.04C168.704 125.68 168.164 125.5 167.404 125.5C166.964 125.5 166.511 125.56 166.044 125.68C165.577 125.8 165.091 125.987 164.584 126.24C164.384 126.333 164.211 126.367 164.064 126.34C163.917 126.3 163.797 126.22 163.704 126.1C163.624 125.967 163.577 125.827 163.564 125.68C163.564 125.52 163.597 125.367 163.664 125.22C163.744 125.073 163.877 124.967 164.064 124.9C164.651 124.607 165.231 124.4 165.804 124.28C166.391 124.147 166.937 124.08 167.444 124.08C168.311 124.08 169.024 124.22 169.584 124.5C170.144 124.767 170.564 125.187 170.844 125.76C171.124 126.32 171.264 127.04 171.264 127.92V133.2C171.264 133.507 171.191 133.74 171.044 133.9C170.897 134.06 170.684 134.14 170.404 134.14C170.137 134.14 169.924 134.06 169.764 133.9C169.617 133.74 169.544 133.507 169.544 133.2V131.78H169.724C169.617 132.273 169.417 132.7 169.124 133.06C168.831 133.42 168.464 133.7 168.024 133.9C167.597 134.087 167.111 134.18 166.564 134.18ZM180.563 134.14C180.256 134.14 180.016 134.053 179.843 133.88C179.669 133.707 179.583 133.46 179.583 133.14V120.9C179.583 120.58 179.669 120.333 179.843 120.16C180.016 119.987 180.263 119.9 180.583 119.9H187.763C188.029 119.9 188.229 119.967 188.363 120.1C188.496 120.22 188.563 120.4 188.563 120.64C188.563 120.893 188.496 121.087 188.363 121.22C188.229 121.353 188.029 121.42 187.763 121.42H181.443V126.14H187.363C187.616 126.14 187.809 126.207 187.943 126.34C188.076 126.473 188.143 126.653 188.143 126.88C188.143 127.133 188.076 127.327 187.943 127.46C187.809 127.593 187.616 127.66 187.363 127.66H181.443V133.14C181.443 133.807 181.149 134.14 180.563 134.14ZM194.127 134.18C193.167 134.18 192.334 133.973 191.627 133.56C190.921 133.147 190.374 132.56 189.987 131.8C189.601 131.04 189.407 130.147 189.407 129.12C189.407 128.347 189.514 127.653 189.727 127.04C189.954 126.413 190.274 125.88 190.687 125.44C191.101 125 191.594 124.667 192.167 124.44C192.754 124.2 193.407 124.08 194.127 124.08C195.087 124.08 195.921 124.287 196.627 124.7C197.334 125.113 197.881 125.7 198.267 126.46C198.654 127.207 198.847 128.093 198.847 129.12C198.847 129.893 198.734 130.593 198.507 131.22C198.294 131.847 197.981 132.38 197.567 132.82C197.154 133.26 196.654 133.6 196.067 133.84C195.494 134.067 194.847 134.18 194.127 134.18ZM194.127 132.74C194.714 132.74 195.221 132.6 195.647 132.32C196.087 132.04 196.421 131.633 196.647 131.1C196.887 130.567 197.007 129.907 197.007 129.12C197.007 127.947 196.747 127.053 196.227 126.44C195.707 125.827 195.007 125.52 194.127 125.52C193.554 125.52 193.047 125.66 192.607 125.94C192.181 126.207 191.847 126.607 191.607 127.14C191.367 127.673 191.247 128.333 191.247 129.12C191.247 130.293 191.507 131.193 192.027 131.82C192.561 132.433 193.261 132.74 194.127 132.74ZM204.659 134.18C203.872 134.18 203.212 134.033 202.679 133.74C202.159 133.447 201.772 133.013 201.519 132.44C201.265 131.867 201.139 131.147 201.139 130.28V125.04C201.139 124.733 201.212 124.507 201.359 124.36C201.519 124.2 201.745 124.12 202.039 124.12C202.332 124.12 202.559 124.2 202.719 124.36C202.879 124.507 202.959 124.733 202.959 125.04V130.28C202.959 131.107 203.125 131.72 203.459 132.12C203.792 132.507 204.319 132.7 205.039 132.7C205.839 132.7 206.485 132.433 206.979 131.9C207.485 131.367 207.739 130.66 207.739 129.78V125.04C207.739 124.733 207.812 124.507 207.959 124.36C208.119 124.2 208.345 124.12 208.639 124.12C208.932 124.12 209.159 124.2 209.319 124.36C209.479 124.507 209.559 124.733 209.559 125.04V133.2C209.559 133.827 209.265 134.14 208.679 134.14C208.385 134.14 208.159 134.06 207.999 133.9C207.852 133.74 207.779 133.507 207.779 133.2V131.46L208.039 131.8C207.772 132.573 207.339 133.167 206.739 133.58C206.152 133.98 205.459 134.18 204.659 134.18ZM213.387 134.14C213.107 134.14 212.887 134.06 212.727 133.9C212.567 133.74 212.487 133.507 212.487 133.2V125.04C212.487 124.733 212.567 124.507 212.727 124.36C212.887 124.2 213.107 124.12 213.387 124.12C213.667 124.12 213.881 124.2 214.027 124.36C214.187 124.507 214.267 124.733 214.267 125.04V126.68L214.047 126.38C214.327 125.62 214.781 125.047 215.407 124.66C216.047 124.273 216.774 124.08 217.587 124.08C218.374 124.08 219.021 124.22 219.527 124.5C220.034 124.78 220.414 125.207 220.667 125.78C220.921 126.353 221.047 127.08 221.047 127.96V133.2C221.047 133.507 220.967 133.74 220.807 133.9C220.661 134.06 220.441 134.14 220.147 134.14C219.854 134.14 219.627 134.06 219.467 133.9C219.307 133.74 219.227 133.507 219.227 133.2V128.06C219.227 127.193 219.061 126.56 218.727 126.16C218.394 125.76 217.861 125.56 217.127 125.56C216.274 125.56 215.587 125.827 215.067 126.36C214.561 126.88 214.307 127.587 214.307 128.48V133.2C214.307 133.827 214.001 134.14 213.387 134.14ZM227.653 134.18C226.799 134.18 226.046 133.98 225.393 133.58C224.753 133.167 224.253 132.58 223.893 131.82C223.533 131.047 223.353 130.147 223.353 129.12C223.353 128.08 223.526 127.187 223.873 126.44C224.233 125.68 224.733 125.1 225.373 124.7C226.026 124.287 226.786 124.08 227.653 124.08C228.519 124.08 229.266 124.3 229.893 124.74C230.519 125.167 230.939 125.74 231.153 126.46H230.933V120.68C230.933 120.373 231.006 120.147 231.153 120C231.313 119.84 231.539 119.76 231.833 119.76C232.126 119.76 232.353 119.84 232.513 120C232.673 120.147 232.753 120.373 232.753 120.68V133.2C232.753 133.507 232.673 133.74 232.513 133.9C232.353 134.06 232.126 134.14 231.833 134.14C231.553 134.14 231.333 134.06 231.173 133.9C231.013 133.74 230.933 133.507 230.933 133.2V131.38L231.153 131.74C230.953 132.487 230.533 133.08 229.893 133.52C229.266 133.96 228.519 134.18 227.653 134.18ZM228.073 132.74C228.659 132.74 229.166 132.6 229.593 132.32C230.033 132.04 230.366 131.633 230.593 131.1C230.833 130.567 230.953 129.907 230.953 129.12C230.953 127.947 230.693 127.053 230.173 126.44C229.653 125.827 228.953 125.52 228.073 125.52C227.499 125.52 226.993 125.66 226.553 125.94C226.126 126.207 225.793 126.607 225.553 127.14C225.313 127.673 225.193 128.333 225.193 129.12C225.193 130.293 225.453 131.193 225.973 131.82C226.506 132.433 227.206 132.74 228.073 132.74ZM236.551 130.3C236.378 130.3 236.231 130.247 236.111 130.14C236.004 130.02 235.944 129.84 235.931 129.6L235.491 120.94C235.464 120.58 235.544 120.293 235.731 120.08C235.918 119.867 236.191 119.76 236.551 119.76C236.898 119.76 237.164 119.867 237.351 120.08C237.538 120.293 237.618 120.58 237.591 120.94L237.151 129.6C237.138 129.84 237.078 130.02 236.971 130.14C236.864 130.247 236.724 130.3 236.551 130.3ZM236.551 134.08C236.204 134.08 235.918 133.967 235.691 133.74C235.464 133.513 235.351 133.227 235.351 132.88C235.351 132.533 235.464 132.253 235.691 132.04C235.918 131.827 236.204 131.72 236.551 131.72C236.924 131.72 237.211 131.827 237.411 132.04C237.624 132.253 237.731 132.533 237.731 132.88C237.731 133.227 237.624 133.513 237.411 133.74C237.211 133.967 236.924 134.08 236.551 134.08Z" fill="white"/>
<path d="M243.006 92.1121H198.092C196.09 92.1121 194.463 90.4856 194.463 88.4838C194.463 86.482 196.09 84.8555 198.092 84.8555H243.006C245.008 84.8555 246.634 86.482 246.634 88.4838C246.634 90.4856 245.008 92.1121 243.006 92.1121Z" stroke="black" stroke-miterlimit="10"/>
</g>
<defs>
<clipPath id="clip0_5471_35753">
<rect width="346" height="228" fill="white"/>
</clipPath>
</defs>
</svg>
