<svg width="368" height="325" viewBox="0 0 368 325" fill="none" xmlns="http://www.w3.org/2000/svg">
<path d="M250.385 0.239478C234.201 -1.8198 219.413 9.62962 217.353 25.8085C216.637 31.4321 217.555 36.8857 219.737 41.6961L211.25 56.3416L230.324 54.1408C233.995 56.5803 238.26 58.235 242.926 58.8298C259.111 60.889 273.899 49.4396 275.959 33.2607C278.019 17.0819 266.565 2.29876 250.381 0.239478H250.385Z" fill="#9D9EF1"/>
<path d="M240.32 23.3042V39.1999H234.76C232.141 39.1999 230.016 37.0759 230.016 34.4583V28.0539C230.016 25.4363 232.141 23.3042 234.76 23.3042H240.32Z" fill="white"/>
<path d="M260.446 38.8438C258.54 41.0042 242.413 39.1998 242.413 39.1998V23.3041C242.413 23.3041 245.047 21.872 245.84 19.2341C246.618 16.6166 247.787 13.2586 249.811 13.7926C251.838 14.3307 252.583 19.7884 250.086 23.3001C250.086 23.3001 257.966 21.168 260.102 23.4983C262.13 25.6992 262.235 36.8169 260.446 38.8398V38.8438Z" fill="white"/>
<path d="M247.269 53.7199C246.435 53.7199 245.594 53.6754 244.752 53.5904C244.529 53.5661 244.367 53.3679 244.392 53.1454C244.416 52.9229 244.614 52.761 244.837 52.7853C251.049 53.4245 257.14 51.604 261.984 47.6634C266.829 43.7229 269.848 38.1317 270.487 31.9215C271.806 19.1006 262.442 7.59855 249.616 6.27964C236.787 4.96073 225.285 14.3226 223.966 27.1435C223.942 27.366 223.743 27.5197 223.521 27.5035C223.298 27.4793 223.136 27.281 223.161 27.0585C224.524 13.7926 236.431 4.11517 249.697 5.47454C262.968 6.83795 272.652 18.7405 271.288 32.0064C270.629 38.4311 267.504 44.2165 262.49 48.2946C258.135 51.8386 252.805 53.7239 247.265 53.7239L247.269 53.7199Z" fill="white"/>
<path d="M330.86 120.12C330.31 120.12 329.78 120.19 329.27 120.31C328.96 115.12 324.66 111 319.39 111C314.51 111 310.46 114.54 309.64 119.19C309.3 119.15 308.96 119.11 308.62 119.11C304.41 119.11 301 122.52 301 126.73C301 130.94 304.41 134.35 308.62 134.35H330.86C334.79 134.35 337.98 131.16 337.98 127.23C337.98 123.3 334.79 120.11 330.86 120.11V120.12Z" fill="#E5E6FF" stroke="#BCAEF5" stroke-linecap="round" stroke-linejoin="round"/>
<path d="M30.86 60.63C30.31 60.63 29.78 60.7 29.27 60.82C28.96 55.63 24.66 51.51 19.39 51.51C14.51 51.51 10.46 55.05 9.64 59.7C9.3 59.66 8.96 59.62 8.62 59.62C4.41 59.62 1 63.03 1 67.24C1 71.45 4.41 74.86 8.62 74.86H30.86C34.79 74.86 37.98 71.67 37.98 67.74C37.98 63.81 34.79 60.62 30.86 60.62V60.63Z" fill="#E5E6FF" stroke="#BCAEF5" stroke-linecap="round" stroke-linejoin="round"/>
<g clip-path="url(#clip0_2164_11318)">
<path d="M50.7701 325C49.042 325 47.3665 324.66 45.7841 323.993C45.6668 323.944 45.5777 323.839 45.5494 323.718C44.6105 319.919 45.9298 316.205 49.0825 313.781C52.5023 311.152 57.035 310.731 60.6369 312.705C63.7896 314.186 66.6185 317.083 68.6137 320.877C70.0464 320.064 71.9849 320.194 73.3528 320.441C72.9805 318.648 73.8506 317.022 74.9878 316.128C76.1615 315.201 77.5739 314.991 78.8164 315.517C78.5128 307.304 83.8793 301.879 89.4764 300.107C95.7655 298.116 102.043 300.43 105.644 306.001C106.547 304.881 107.878 304.132 109.384 303.918C110.796 303.715 112.18 304.015 113.293 304.743C114.042 299.69 117.49 295.604 122.432 293.977C127.114 292.436 131.999 293.625 135.249 297.08C136.131 296.777 137.135 296.898 137.952 297.372C137.418 293.824 138.466 290.551 140.858 288.451C143.375 286.246 146.868 285.724 150.498 286.994C152.129 279.348 156.014 260.705 155.901 259.099C155.893 258.986 155.933 258.877 156.01 258.796C156.087 258.715 156.192 258.666 156.306 258.666H173.364C173.502 258.666 173.631 258.735 173.704 258.852C173.943 259.225 174.097 260.62 174.497 264.836C175.185 272.037 176.327 283.968 178.678 286.885C181.155 285.676 183.466 285.465 185.554 286.258C188.537 287.391 190.208 290.239 190.823 291.505C194 287.889 200.103 286.497 205.656 288.204C211.925 290.13 215.826 295.187 216.457 302.154C218.024 300.928 220.084 300.718 222.018 301.636C223.677 302.425 225.223 304.156 225.438 306.458C229.756 300.879 238.174 300.216 244.524 302.085C250.696 303.898 257.778 309.015 258.025 317.564C260.008 315.986 262.752 315.306 265.399 315.776C267.803 316.205 269.737 317.532 270.773 319.445C275.877 316.99 280.709 324.07 280.915 324.377C281.041 324.563 280.992 324.814 280.806 324.939C280.62 325.065 280.369 325.016 280.243 324.83C280.195 324.757 275.383 317.71 270.798 320.347C270.7 320.404 270.583 320.416 270.474 320.384C270.365 320.347 270.275 320.271 270.231 320.165C269.369 318.292 267.556 316.981 265.261 316.573C262.55 316.091 259.733 316.925 257.912 318.753C257.794 318.871 257.616 318.907 257.466 318.838C257.313 318.774 257.216 318.62 257.224 318.454C257.462 309.825 250.708 304.739 244.301 302.858C237.83 300.956 229.137 301.757 225.353 308.016C225.252 308.182 225.049 308.251 224.871 308.186C224.689 308.121 224.58 307.939 224.604 307.749C224.989 304.986 223.265 303.125 221.674 302.368C220.201 301.668 218.044 301.543 216.413 303.295C216.304 303.412 216.13 303.457 215.98 303.4C215.826 303.343 215.721 303.202 215.713 303.04C215.345 296 211.593 290.874 205.421 288.981C199.921 287.294 193.875 288.779 191.046 292.517C190.957 292.634 190.811 292.691 190.665 292.675C190.52 292.654 190.398 292.557 190.346 292.42C190.33 292.379 188.731 288.334 185.263 287.015C183.32 286.278 181.135 286.525 178.771 287.747C178.613 287.828 178.423 287.8 178.298 287.674C175.61 284.984 174.457 272.907 173.692 264.917C173.461 262.502 173.243 260.208 173.077 259.479H156.694C156.366 263.424 151.413 286.59 151.194 287.622C151.17 287.739 151.093 287.836 150.992 287.893C150.887 287.949 150.765 287.957 150.652 287.913C147.151 286.553 143.776 286.97 141.392 289.062C138.972 291.182 138.066 294.653 138.968 298.339C139.013 298.525 138.924 298.715 138.75 298.8C138.58 298.885 138.373 298.836 138.256 298.687C137.564 297.801 136.297 297.473 135.31 297.93C135.148 298.007 134.957 297.967 134.84 297.833C131.764 294.41 127.219 293.257 122.687 294.75C117.826 296.348 114.503 300.483 114.014 305.532C113.998 305.682 113.9 305.815 113.759 305.868C113.617 305.924 113.455 305.896 113.342 305.795C112.334 304.905 110.934 304.512 109.501 304.719C108.012 304.933 106.725 305.742 105.968 306.948C105.895 307.065 105.766 307.142 105.62 307.138C105.479 307.138 105.349 307.061 105.276 306.94C101.937 301.328 95.8343 298.95 89.7232 300.879C84.2678 302.607 79.043 308.008 79.6663 316.188C79.6784 316.342 79.6015 316.492 79.4639 316.569C79.3304 316.646 79.1604 316.642 79.0349 316.553C77.7399 315.667 76.3558 316.079 75.4897 316.759C74.4455 317.58 73.6725 319.158 74.3079 320.825C74.3605 320.966 74.3322 321.124 74.2351 321.233C74.138 321.347 73.9842 321.395 73.8385 321.363C72.5313 321.06 70.1313 320.708 68.7027 321.78C68.6056 321.852 68.4842 321.877 68.3668 321.848C68.2495 321.82 68.1523 321.743 68.0957 321.638C66.1693 317.807 63.3889 314.886 60.2686 313.421C56.9783 311.617 52.6925 312.021 49.5762 314.416C46.7433 316.597 45.5211 319.911 46.286 323.321C47.7105 323.896 49.2201 324.187 50.7701 324.187C50.9927 324.187 51.1748 324.369 51.1748 324.591C51.1748 324.814 50.9927 324.996 50.7701 324.996V325Z" fill="#8740CA"/>
<path d="M177.027 235.148C177.027 235.148 196.902 238.789 206.975 250.312C206.975 250.312 210.86 223.327 184.299 211.635L177.031 235.144L177.027 235.148Z" fill="#5D5FEF"/>
<path d="M150.794 235.148C150.794 235.148 130.918 238.789 120.845 250.312C120.845 250.312 116.96 223.327 143.521 211.635L150.79 235.144L150.794 235.148Z" fill="#5D5FEF"/>
<path d="M163.501 282.775C182.28 258.751 178.492 248.091 172.478 243.41H154.525C148.511 248.087 144.723 258.751 163.501 282.775Z" fill="#D7C4D4"/>
<path d="M163.501 272.304C176.173 256.093 175.61 247.714 172.186 243.414H154.82C151.393 247.714 150.834 256.093 163.505 272.304H163.501Z" fill="#FFA600"/>
<path d="M137.892 222.724H137.896C140.692 230.775 145.229 238.656 152.186 245.805H174.813C181.09 239.352 185.396 232.308 188.233 225.083H188.237C192.037 215.397 193.203 205.392 192.944 196.075C192.313 173.249 183.134 154.493 183.134 154.493H143.865C143.865 154.493 134.601 173.419 134.047 196.386C133.84 204.862 134.824 213.892 137.892 222.724Z" fill="#C4BCE8"/>
<path d="M153.497 135.312C158.022 137.622 165.578 138.585 173.465 135.19C172.789 134.163 172.085 133.147 171.349 132.16C167.783 133.641 161.64 134.588 155.508 132.411C154.812 133.358 154.141 134.333 153.497 135.316V135.312Z" fill="#D7C4D4"/>
<path d="M146.771 147.655C154.545 152.247 172.239 152.648 180.196 147.485C179.398 145.77 178.455 143.832 177.375 141.817C166.565 145.531 158.422 144.916 149.422 142.266C148.406 144.188 147.516 146.021 146.767 147.655H146.771Z" fill="#D7C4D4"/>
<path d="M164.331 183.533C169.559 183.533 173.797 179.296 173.797 174.07C173.797 168.844 169.559 164.607 164.331 164.607C159.103 164.607 154.865 168.844 154.865 174.07C154.865 179.296 159.103 183.533 164.331 183.533Z" fill="white"/>
<path d="M156.986 174.07C156.986 174.41 157.01 174.749 157.054 175.077C157.548 178.658 160.616 181.413 164.327 181.413C168.382 181.413 171.672 178.124 171.672 174.07C171.672 171.311 170.143 168.899 167.888 167.649C166.836 167.059 165.618 166.727 164.327 166.727C160.272 166.727 156.986 170.016 156.986 174.07Z" fill="#5D5FEF"/>
<path d="M164.331 203.499C167.554 203.499 170.167 200.887 170.167 197.665C170.167 194.443 167.554 191.831 164.331 191.831C161.108 191.831 158.495 194.443 158.495 197.665C158.495 200.887 161.108 203.499 164.331 203.499Z" fill="white"/>
<path d="M159.94 197.665C159.94 197.867 159.952 198.069 159.98 198.268C160.276 200.408 162.109 202.054 164.327 202.054C166.751 202.054 168.718 200.088 168.718 197.665C168.718 196.014 167.803 194.574 166.456 193.825C165.824 193.473 165.1 193.275 164.327 193.275C161.903 193.275 159.94 195.241 159.94 197.665Z" fill="#5D5FEF"/>
<path d="M164.598 213.123C169.965 236.346 166.553 255.806 164.598 263.833C164.376 264.747 162.631 264.747 162.409 263.833C160.454 255.806 157.038 236.346 162.409 213.123C162.623 212.201 164.392 212.201 164.606 213.123H164.598Z" fill="#5D5FEF"/>
<path d="M143.885 154.561C152.696 159.857 173.656 159.667 183.162 154.561C183.162 154.561 182.114 151.632 180.2 147.481C179.402 145.766 178.459 143.828 177.379 141.813C176.229 139.653 174.918 137.395 173.469 135.186C172.794 134.159 172.089 133.143 171.353 132.156C169.022 129.001 166.387 126.12 163.526 124C160.588 126.177 157.896 129.154 155.513 132.407C154.816 133.354 154.145 134.329 153.501 135.312C151.983 137.634 150.62 140.009 149.43 142.262C148.414 144.184 147.524 146.017 146.775 147.651C144.909 151.709 143.885 154.561 143.885 154.561Z" fill="#D7C4D4"/>
<path d="M162.251 154.339C157.208 154.339 152.166 153.538 147.366 151.932C147.155 151.863 147.038 151.632 147.111 151.418C147.184 151.207 147.41 151.094 147.625 151.163C157.107 154.331 167.549 154.315 177.023 151.118C177.233 151.046 177.464 151.159 177.537 151.373C177.61 151.584 177.496 151.814 177.282 151.887C172.437 153.522 167.346 154.339 162.255 154.339H162.251Z" fill="white"/>
<path d="M274.007 199.137H214.612C211.856 199.137 209.614 196.896 209.614 194.141V164.061C209.614 161.306 211.856 159.064 214.612 159.064H274.007C276.763 159.064 279.005 161.306 279.005 164.061V194.141C279.005 196.896 276.763 199.137 274.007 199.137ZM214.612 159.874C212.301 159.874 210.423 161.751 210.423 164.061V194.141C210.423 196.451 212.301 198.328 214.612 198.328H274.007C276.318 198.328 278.196 196.451 278.196 194.141V164.061C278.196 161.751 276.318 159.874 274.007 159.874H214.612Z" fill="#8364B3"/>
<path d="M264.654 168.107H220.153C219.93 168.107 219.748 167.925 219.748 167.702C219.748 167.48 219.93 167.298 220.153 167.298H264.654C264.877 167.298 265.059 167.48 265.059 167.702C265.059 167.925 264.877 168.107 264.654 168.107Z" fill="#8364B3"/>
<path d="M244.31 177.764H220.157C219.934 177.764 219.752 177.582 219.752 177.359C219.752 177.137 219.934 176.955 220.157 176.955H244.31C244.532 176.955 244.714 177.137 244.714 177.359C244.714 177.582 244.532 177.764 244.31 177.764Z" fill="#8364B3"/>
<path d="M223.856 192.34C221.593 192.34 219.752 190.5 219.752 188.238C219.752 185.977 221.593 184.136 223.856 184.136C226.118 184.136 227.959 185.977 227.959 188.238C227.959 190.5 226.118 192.34 223.856 192.34ZM223.856 184.941C222.039 184.941 220.561 186.418 220.561 188.234C220.561 190.051 222.039 191.527 223.856 191.527C225.673 191.527 227.15 190.051 227.15 188.234C227.15 186.418 225.673 184.941 223.856 184.941Z" fill="#8364B3"/>
<path d="M241.319 192.34C239.057 192.34 237.215 190.5 237.215 188.238C237.215 185.977 239.057 184.136 241.319 184.136C243.581 184.136 245.423 185.977 245.423 188.238C245.423 190.5 243.581 192.34 241.319 192.34ZM241.319 184.941C239.502 184.941 238.025 186.418 238.025 188.234C238.025 190.051 239.502 191.527 241.319 191.527C243.136 191.527 244.613 190.051 244.613 188.234C244.613 186.418 243.136 184.941 241.319 184.941Z" fill="#8364B3"/>
<path d="M103.896 249.737H49.6329C47.8684 249.737 46.4316 248.301 46.4316 246.537V231.762C46.4316 229.998 47.8684 228.562 49.6329 228.562H103.9C105.665 228.562 107.101 229.998 107.101 231.762V246.537C107.101 248.301 105.665 249.737 103.9 249.737H103.896ZM49.6329 229.371C48.3135 229.371 47.2411 230.443 47.2411 231.762V246.537C47.2411 247.856 48.3135 248.928 49.6329 248.928H103.9C105.219 248.928 106.292 247.856 106.292 246.537V231.762C106.292 230.443 105.219 229.371 103.9 229.371H49.6329Z" fill="#8364B3"/>
<path d="M82.3779 236.091H55.4567C55.2341 236.091 55.052 235.909 55.052 235.687C55.052 235.464 55.2341 235.282 55.4567 235.282H82.3779C82.6005 235.282 82.7826 235.464 82.7826 235.687C82.7826 235.909 82.6005 236.091 82.3779 236.091Z" fill="#8364B3"/>
<path d="M92.358 243.462H55.4567C55.2341 243.462 55.052 243.28 55.052 243.058C55.052 242.835 55.2341 242.653 55.4567 242.653H92.3539C92.5765 242.653 92.7586 242.835 92.7586 243.058C92.7586 243.28 92.5765 243.462 92.3539 243.462H92.358Z" fill="#8364B3"/>
</g>
<g clip-path="url(#clip1_2164_11318)">
<path d="M76.5304 126.387C76.1811 126.387 75.8445 126.433 75.5206 126.511C75.3238 123.126 72.593 120.439 69.2463 120.439C66.1472 120.439 63.5752 122.748 63.0545 125.781C62.8386 125.754 62.6227 125.728 62.4067 125.728C59.7332 125.728 57.5676 127.952 57.5676 130.698C57.5676 133.444 59.7332 135.667 62.4067 135.667H76.5304C79.0261 135.667 81.052 133.587 81.052 131.024C81.052 128.461 79.0261 126.381 76.5304 126.381V126.387Z" fill="white" stroke="#C3C4FF" stroke-linecap="round" stroke-linejoin="round"/>
</g>
<g clip-path="url(#clip2_2164_11318)">
<path d="M356.53 46.387C356.181 46.387 355.845 46.4327 355.521 46.5109C355.324 43.1262 352.593 40.4392 349.246 40.4392C346.147 40.4392 343.575 42.7479 343.055 45.7805C342.839 45.7544 342.623 45.7283 342.407 45.7283C339.733 45.7283 337.568 47.9523 337.568 50.6979C337.568 53.4436 339.733 55.6675 342.407 55.6675H356.53C359.026 55.6675 361.052 53.587 361.052 51.024C361.052 48.4609 359.026 46.3805 356.53 46.3805V46.387Z" fill="white" stroke="#C3C4FF" stroke-linecap="round" stroke-linejoin="round"/>
</g>
<defs>
<clipPath id="clip0_2164_11318">
<rect width="272" height="201" fill="white" transform="translate(45.25 124)"/>
</clipPath>
<clipPath id="clip1_2164_11318">
<rect width="30" height="18" fill="white" transform="translate(57.25 118)"/>
</clipPath>
<clipPath id="clip2_2164_11318">
<rect width="30" height="18" fill="white" transform="translate(337.25 38)"/>
</clipPath>
</defs>
</svg>
