<svg width="272" height="201" viewBox="0 0 272 201" fill="none" xmlns="http://www.w3.org/2000/svg">
<g clip-path="url(#clip0_1860_30850)">
<path d="M5.52013 201C3.79203 201 2.11654 200.66 0.534132 199.993C0.416767 199.944 0.327731 199.839 0.299402 199.718C-0.63952 195.919 0.679827 192.205 3.8325 189.781C7.25228 187.152 11.785 186.731 15.3869 188.705C18.5396 190.186 21.3685 193.083 23.3637 196.877C24.7964 196.064 26.7349 196.194 28.1028 196.441C27.7305 194.648 28.6006 193.022 29.7378 192.128C30.9115 191.201 32.3239 190.991 33.5664 191.517C33.2628 183.304 38.6293 177.879 44.2264 176.107C50.5155 174.116 56.7925 176.43 60.3944 182.001C61.2969 180.881 62.6284 180.132 64.1339 179.918C65.5464 179.715 66.9305 180.015 68.0434 180.743C68.7921 175.69 72.2402 171.604 77.1817 169.977C81.8642 168.436 86.749 169.625 89.9988 173.08C90.8811 172.777 91.8847 172.898 92.7023 173.372C92.168 169.824 93.2162 166.551 95.6081 164.451C98.1253 162.246 101.618 161.724 105.248 162.994C106.879 155.348 110.764 136.705 110.651 135.099C110.643 134.986 110.683 134.877 110.76 134.796C110.837 134.715 110.942 134.666 111.056 134.666H128.114C128.252 134.666 128.381 134.735 128.454 134.852C128.693 135.225 128.847 136.62 129.247 140.836C129.935 148.037 131.077 159.968 133.428 162.885C135.905 161.676 138.216 161.465 140.304 162.258C143.287 163.391 144.958 166.239 145.573 167.505C148.75 163.889 154.853 162.497 160.406 164.204C166.675 166.13 170.576 171.187 171.207 178.154C172.774 176.928 174.834 176.718 176.768 177.636C178.427 178.425 179.973 180.156 180.188 182.458C184.506 176.879 192.924 176.216 199.274 178.085C205.446 179.898 212.528 185.015 212.775 193.564C214.758 191.986 217.502 191.306 220.149 191.776C222.553 192.205 224.487 193.532 225.523 195.445C230.627 192.99 235.459 200.07 235.665 200.377C235.791 200.563 235.742 200.814 235.556 200.939C235.37 201.065 235.119 201.016 234.993 200.83C234.945 200.757 230.133 193.71 225.548 196.347C225.45 196.404 225.333 196.416 225.224 196.384C225.115 196.347 225.025 196.271 224.981 196.165C224.119 194.292 222.306 192.981 220.011 192.573C217.3 192.091 214.483 192.925 212.662 194.753C212.544 194.871 212.366 194.907 212.216 194.838C212.063 194.774 211.966 194.62 211.974 194.454C212.212 185.825 205.458 180.739 199.051 178.858C192.58 176.956 183.887 177.757 180.103 184.016C180.002 184.182 179.799 184.251 179.621 184.186C179.439 184.121 179.33 183.939 179.354 183.749C179.739 180.986 178.015 179.125 176.424 178.368C174.951 177.668 172.794 177.543 171.163 179.295C171.054 179.412 170.88 179.457 170.73 179.4C170.576 179.343 170.471 179.202 170.463 179.04C170.095 172 166.343 166.874 160.171 164.981C154.671 163.294 148.625 164.779 145.796 168.517C145.707 168.634 145.561 168.691 145.415 168.675C145.27 168.654 145.148 168.557 145.096 168.42C145.08 168.379 143.481 164.334 140.013 163.015C138.07 162.278 135.885 162.525 133.521 163.747C133.363 163.828 133.173 163.8 133.048 163.674C130.36 160.984 129.207 148.907 128.442 140.917C128.211 138.502 127.993 136.208 127.827 135.479H111.444C111.116 139.424 106.163 162.59 105.944 163.622C105.92 163.739 105.843 163.836 105.742 163.893C105.637 163.949 105.515 163.957 105.402 163.913C101.901 162.553 98.526 162.97 96.1423 165.062C93.7221 167.182 92.8156 170.653 93.7181 174.339C93.7626 174.525 93.6736 174.715 93.4995 174.8C93.3296 174.885 93.1232 174.836 93.0058 174.687C92.3137 173.801 91.047 173.473 90.0595 173.93C89.8976 174.007 89.7074 173.967 89.5901 173.833C86.5143 170.41 81.9694 169.257 77.4367 170.75C72.5761 172.348 69.2535 176.483 68.7638 181.532C68.7476 181.682 68.6505 181.815 68.5088 181.868C68.3672 181.924 68.2053 181.896 68.092 181.795C67.0843 180.905 65.684 180.512 64.2513 180.719C62.762 180.933 61.475 181.742 60.7182 182.948C60.6454 183.065 60.5159 183.142 60.3702 183.138C60.2285 183.138 60.099 183.061 60.0262 182.94C56.6873 177.328 50.5843 174.95 44.4732 176.879C39.0178 178.607 33.793 184.008 34.4163 192.188C34.4284 192.342 34.3515 192.492 34.2139 192.569C34.0804 192.646 33.9104 192.642 33.7849 192.553C32.4899 191.667 31.1058 192.079 30.2397 192.759C29.1955 193.58 28.4225 195.158 29.0579 196.825C29.1105 196.966 29.0822 197.124 28.9851 197.233C28.888 197.347 28.7342 197.395 28.5885 197.363C27.2813 197.06 24.8813 196.708 23.4527 197.78C23.3556 197.852 23.2342 197.877 23.1168 197.848C22.9995 197.82 22.9023 197.743 22.8457 197.638C20.9193 193.807 18.1389 190.886 15.0186 189.421C11.7283 187.617 7.44249 188.021 4.32624 190.416C1.49329 192.597 0.271072 195.911 1.03597 199.321C2.46054 199.896 3.9701 200.187 5.52013 200.187C5.74272 200.187 5.92484 200.369 5.92484 200.591C5.92484 200.814 5.74272 200.996 5.52013 200.996V201Z" fill="#8740CA"/>
<path d="M131.777 111.148C131.777 111.148 151.652 114.789 161.725 126.312C161.725 126.312 165.61 99.3267 139.049 87.6345L131.781 111.144L131.777 111.148Z" fill="#5D5FEF"/>
<path d="M105.544 111.148C105.544 111.148 85.6684 114.789 75.5953 126.312C75.5953 126.312 71.7101 99.3267 98.271 87.6345L105.54 111.144L105.544 111.148Z" fill="#5D5FEF"/>
<path d="M118.251 158.775C137.03 134.751 133.242 124.091 127.228 119.41H109.275C103.261 124.087 99.4729 134.751 118.251 158.775Z" fill="#D7C4D4"/>
<path d="M118.251 148.304C130.923 132.093 130.36 123.714 126.936 119.414H109.57C106.143 123.714 105.584 132.093 118.255 148.304H118.251Z" fill="#FFA600"/>
<path d="M92.6415 98.7239H92.6456C95.4421 106.775 99.9789 114.656 106.936 121.805H129.563C135.84 115.352 140.146 108.308 142.983 101.083H142.987C146.787 91.3971 147.953 81.392 147.694 72.0747C147.063 49.2487 137.884 30.4927 137.884 30.4927H98.615C98.615 30.4927 89.3513 49.4186 88.7968 72.3862C88.5904 80.862 89.5738 89.8921 92.6415 98.7239Z" fill="#C4BCE8"/>
<path d="M108.247 11.3118C112.772 13.6219 120.328 14.5848 128.215 11.1904C127.539 10.1628 126.835 9.14731 126.099 8.16016C122.533 9.64089 116.39 10.5876 110.258 8.41099C109.562 9.35769 108.891 10.3327 108.247 11.3158V11.3118Z" fill="#D7C4D4"/>
<path d="M101.521 23.6554C109.295 28.2473 126.989 28.6478 134.946 23.4855C134.148 21.7701 133.205 19.8322 132.125 17.8174C121.315 21.5314 113.172 20.9164 104.172 18.2665C103.156 20.1882 102.266 22.0209 101.517 23.6554H101.521Z" fill="#D7C4D4"/>
<path d="M119.081 59.5329C124.309 59.5329 128.547 55.2961 128.547 50.0699C128.547 44.8436 124.309 40.6069 119.081 40.6069C113.853 40.6069 109.615 44.8436 109.615 50.0699C109.615 55.2961 113.853 59.5329 119.081 59.5329Z" fill="white"/>
<path d="M111.736 50.0698C111.736 50.4097 111.76 50.7495 111.804 51.0772C112.298 54.6577 115.366 57.4128 119.077 57.4128C123.132 57.4128 126.422 54.1236 126.422 50.0698C126.422 47.3106 124.893 44.8994 122.638 43.6492C121.586 43.0586 120.368 42.7268 119.077 42.7268C115.022 42.7268 111.736 46.016 111.736 50.0698Z" fill="#5D5FEF"/>
<path d="M119.081 79.4987C122.304 79.4987 124.917 76.8868 124.917 73.6648C124.917 70.4428 122.304 67.8308 119.081 67.8308C115.858 67.8308 113.245 70.4428 113.245 73.6648C113.245 76.8868 115.858 79.4987 119.081 79.4987Z" fill="white"/>
<path d="M114.69 73.6648C114.69 73.8671 114.702 74.0693 114.73 74.2676C115.026 76.4078 116.859 78.0544 119.077 78.0544C121.501 78.0544 123.468 76.0882 123.468 73.6648C123.468 72.0141 122.553 70.5738 121.206 69.8254C120.574 69.4734 119.85 69.2751 119.077 69.2751C116.653 69.2751 114.69 71.2414 114.69 73.6648Z" fill="#5D5FEF"/>
<path d="M119.348 89.1235C124.715 112.346 121.303 131.806 119.348 139.833C119.126 140.747 117.381 140.747 117.159 139.833C115.204 131.806 111.788 112.346 117.159 89.1235C117.373 88.201 119.142 88.201 119.356 89.1235H119.348Z" fill="#5D5FEF"/>
<path d="M98.6353 30.5614C107.446 35.8573 128.406 35.6672 137.912 30.5614C137.912 30.5614 136.864 27.6323 134.95 23.4814C134.152 21.766 133.209 19.8281 132.129 17.8134C130.979 15.6529 129.668 13.3954 128.219 11.1864C127.544 10.1588 126.839 9.14335 126.103 8.15619C123.772 5.00052 121.137 2.11996 118.276 0C115.338 2.1766 112.646 5.15426 110.263 8.40703C109.566 9.35373 108.895 10.3287 108.251 11.3119C106.733 13.6341 105.37 16.009 104.18 18.2624C103.164 20.1841 102.274 22.0169 101.525 23.6513C99.6592 27.7092 98.6353 30.5614 98.6353 30.5614Z" fill="#D7C4D4"/>
<path d="M117.001 30.3389C111.958 30.3389 106.916 29.5378 102.116 27.9317C101.905 27.8629 101.788 27.6323 101.861 27.4179C101.934 27.2075 102.16 27.0942 102.375 27.163C111.857 30.3308 122.299 30.3146 131.773 27.1185C131.983 27.0457 132.214 27.1589 132.287 27.3734C132.36 27.5838 132.246 27.8144 132.032 27.8872C127.187 29.5217 122.096 30.3389 117.005 30.3389H117.001Z" fill="white"/>
<path d="M246.184 91.7287C229.999 89.6695 215.211 101.119 213.151 117.298C212.435 122.921 213.354 128.375 215.535 133.185L207.048 147.831L226.122 145.63C229.793 148.07 234.059 149.724 238.725 150.319C254.909 152.378 269.697 140.929 271.757 124.75C273.817 108.571 262.364 93.788 246.18 91.7287H246.184Z" fill="#9D9EF1"/>
<path d="M236.119 114.793V130.689H230.558C227.939 130.689 225.815 128.565 225.815 125.948V119.543C225.815 116.926 227.939 114.793 230.558 114.793H236.119Z" fill="white"/>
<path d="M256.245 130.333C254.339 132.493 238.211 130.689 238.211 130.689V114.793C238.211 114.793 240.846 113.361 241.639 110.723C242.416 108.106 243.585 104.748 245.609 105.282C247.637 105.82 248.381 111.278 245.884 114.789C245.884 114.789 253.764 112.657 255.901 114.988C257.928 117.188 258.034 128.306 256.245 130.329V130.333Z" fill="white"/>
<path d="M243.067 145.209C242.234 145.209 241.392 145.165 240.55 145.08C240.328 145.055 240.166 144.857 240.19 144.635C240.214 144.412 240.413 144.25 240.635 144.275C246.847 144.914 252.938 143.093 257.783 139.153C262.627 135.212 265.646 129.621 266.285 123.411C267.605 110.59 258.24 99.0878 245.415 97.7689C232.585 96.45 221.084 105.812 219.764 118.633C219.74 118.855 219.542 119.009 219.319 118.993C219.097 118.969 218.935 118.77 218.959 118.548C220.323 105.282 232.229 95.6044 245.496 96.9638C258.766 98.3272 268.451 110.23 267.087 123.496C266.427 129.92 263.303 135.706 258.288 139.784C253.934 143.328 248.604 145.213 243.063 145.213L243.067 145.209Z" fill="white"/>
<path d="M228.757 75.1374H169.362C166.606 75.1374 164.364 72.8961 164.364 70.1409V40.0609C164.364 37.3058 166.606 35.0645 169.362 35.0645H228.757C231.513 35.0645 233.755 37.3058 233.755 40.0609V70.1409C233.755 72.8961 231.513 75.1374 228.757 75.1374ZM169.362 35.8736C167.051 35.8736 165.173 37.7508 165.173 40.0609V70.1409C165.173 72.451 167.051 74.3283 169.362 74.3283H228.757C231.068 74.3283 232.946 72.451 232.946 70.1409V40.0609C232.946 37.7508 231.068 35.8736 228.757 35.8736H169.362Z" fill="#8364B3"/>
<path d="M219.404 44.1068H174.903C174.68 44.1068 174.498 43.9247 174.498 43.7022C174.498 43.4797 174.68 43.2976 174.903 43.2976H219.404C219.627 43.2976 219.809 43.4797 219.809 43.7022C219.809 43.9247 219.627 44.1068 219.404 44.1068Z" fill="#8364B3"/>
<path d="M199.06 53.7637H174.907C174.684 53.7637 174.502 53.5817 174.502 53.3592C174.502 53.1366 174.684 52.9546 174.907 52.9546H199.06C199.282 52.9546 199.464 53.1366 199.464 53.3592C199.464 53.5817 199.282 53.7637 199.06 53.7637Z" fill="#8364B3"/>
<path d="M178.606 68.3405C176.343 68.3405 174.502 66.4997 174.502 64.2381C174.502 61.9765 176.343 60.1357 178.606 60.1357C180.868 60.1357 182.709 61.9765 182.709 64.2381C182.709 66.4997 180.868 68.3405 178.606 68.3405ZM178.606 60.9408C176.789 60.9408 175.311 62.4175 175.311 64.2341C175.311 66.0506 176.789 67.5273 178.606 67.5273C180.423 67.5273 181.9 66.0506 181.9 64.2341C181.9 62.4175 180.423 60.9408 178.606 60.9408Z" fill="#8364B3"/>
<path d="M196.069 68.3405C193.807 68.3405 191.965 66.4997 191.965 64.2381C191.965 61.9765 193.807 60.1357 196.069 60.1357C198.331 60.1357 200.173 61.9765 200.173 64.2381C200.173 66.4997 198.331 68.3405 196.069 68.3405ZM196.069 60.9408C194.252 60.9408 192.775 62.4175 192.775 64.2341C192.775 66.0506 194.252 67.5273 196.069 67.5273C197.886 67.5273 199.363 66.0506 199.363 64.2341C199.363 62.4175 197.886 60.9408 196.069 60.9408Z" fill="#8364B3"/>
<path d="M58.6461 125.737H4.38288C2.61835 125.737 1.18164 124.301 1.18164 122.537V107.762C1.18164 105.998 2.61835 104.562 4.38288 104.562H58.6501C60.4147 104.562 61.8514 105.998 61.8514 107.762V122.537C61.8514 124.301 60.4147 125.737 58.6501 125.737H58.6461ZM4.38288 105.371C3.06353 105.371 1.99106 106.443 1.99106 107.762V122.537C1.99106 123.856 3.06353 124.928 4.38288 124.928H58.6501C59.9695 124.928 61.042 123.856 61.042 122.537V107.762C61.042 106.443 59.9695 105.371 58.6501 105.371H4.38288Z" fill="#8364B3"/>
<path d="M37.1279 112.091H10.2067C9.98412 112.091 9.802 111.909 9.802 111.687C9.802 111.464 9.98412 111.282 10.2067 111.282H37.1279C37.3505 111.282 37.5326 111.464 37.5326 111.687C37.5326 111.909 37.3505 112.091 37.1279 112.091Z" fill="#8364B3"/>
<path d="M47.108 119.462H10.2067C9.98412 119.462 9.802 119.28 9.802 119.058C9.802 118.835 9.98412 118.653 10.2067 118.653H47.1039C47.3265 118.653 47.5086 118.835 47.5086 119.058C47.5086 119.28 47.3265 119.462 47.1039 119.462H47.108Z" fill="#8364B3"/>
</g>
<defs>
<clipPath id="clip0_1860_30850">
<rect width="272" height="201" fill="white"/>
</clipPath>
</defs>
</svg>
