<svg width="20" height="20" viewBox="0 0 20 20" fill="none" xmlns="http://www.w3.org/2000/svg">
<path d="M16.9272 10.5396L17.358 8.92963C17.8614 7.05046 18.1139 6.1113 17.9247 5.29796C17.7748 4.65587 17.4378 4.07267 16.9564 3.62213C16.3472 3.0513 15.4072 2.79963 13.528 2.2963C11.6489 1.79213 10.7089 1.54046 9.89638 1.72963C9.25429 1.87956 8.67109 2.21654 8.22054 2.69796C7.73138 3.21963 7.47638 3.9838 7.09721 5.37213L6.89388 6.1263L6.46304 7.7363C5.95888 9.61546 5.70721 10.5546 5.89638 11.368C6.0463 12.0101 6.38329 12.5933 6.86471 13.0438C7.47388 13.6146 8.41388 13.8663 10.293 14.3705C11.9864 14.8238 12.9172 15.073 13.6797 14.9788C13.763 14.9688 13.8447 14.9538 13.9247 14.9355C14.5666 14.786 15.1498 14.4496 15.6005 13.9688C16.1714 13.3588 16.423 12.4188 16.9272 10.5396Z" stroke="white"/>
<path d="M13.6796 14.9788C13.5054 15.5125 13.1993 15.9934 12.7896 16.3772C12.1805 16.948 11.2405 17.1997 9.36129 17.703C7.48213 18.2063 6.54213 18.4588 5.72963 18.2688C5.08764 18.1191 4.50445 17.7825 4.0538 17.3013C3.48296 16.6922 3.23046 15.7522 2.72713 13.873L2.2963 12.263C1.79213 10.3838 1.54046 9.44384 1.72963 8.63134C1.87956 7.98925 2.21654 7.40605 2.69796 6.9555C3.30713 6.38467 4.24713 6.133 6.12629 5.62884C6.48129 5.53384 6.80379 5.44717 7.09713 5.37134" stroke="white"/>
<path d="M9.81425 8.3335L13.8392 9.41183M9.16675 10.7485L11.5817 11.3952" stroke="white" stroke-linecap="round"/>
</svg>
