<svg width="40" height="40" viewBox="0 0 40 40" fill="none" xmlns="http://www.w3.org/2000/svg">
<g clip-path="url(#clip0_56_13413)">
<path d="M0 20C0 8.95431 8.95431 0 20 0C31.0457 0 40 8.95431 40 20C40 31.0457 31.0457 40 20 40C8.95431 40 0 31.0457 0 20Z" fill="#BCB2E1"/>
<g clip-path="url(#clip1_56_13413)">
<path d="M18 15.5C18 15.3674 18.0527 15.2402 18.1464 15.1464C18.2402 15.0527 18.3674 15 18.5 15H22.5C22.6326 15 22.7598 15.0527 22.8536 15.1464C22.9473 15.2402 23 15.3674 23 15.5C23 15.6326 22.9473 15.7598 22.8536 15.8536C22.7598 15.9473 22.6326 16 22.5 16H18.5C18.3674 16 18.2402 15.9473 18.1464 15.8536C18.0527 15.7598 18 15.6326 18 15.5ZM18.5 17C18.3674 17 18.2402 17.0527 18.1464 17.1464C18.0527 17.2402 18 17.3674 18 17.5C18 17.6326 18.0527 17.7598 18.1464 17.8536C18.2402 17.9473 18.3674 18 18.5 18H22.5C22.6326 18 22.7598 17.9473 22.8536 17.8536C22.9473 17.7598 23 17.6326 23 17.5C23 17.3674 22.9473 17.2402 22.8536 17.1464C22.7598 17.0527 22.6326 17 22.5 17H18.5ZM18 22C18 21.8674 18.0527 21.7402 18.1464 21.6464C18.2402 21.5527 18.3674 21.5 18.5 21.5H22.5C22.6326 21.5 22.7598 21.5527 22.8536 21.6464C22.9473 21.7402 23 21.8674 23 22C23 22.1326 22.9473 22.2598 22.8536 22.3536C22.7598 22.4473 22.6326 22.5 22.5 22.5H18.5C18.3674 22.5 18.2402 22.4473 18.1464 22.3536C18.0527 22.2598 18 22.1326 18 22ZM18.5 23.5C18.3674 23.5 18.2402 23.5527 18.1464 23.6464C18.0527 23.7402 18 23.8674 18 24C18 24.1326 18.0527 24.2598 18.1464 24.3536C18.2402 24.4473 18.3674 24.5 18.5 24.5H22.5C22.6326 24.5 22.7598 24.4473 22.8536 24.3536C22.9473 24.2598 23 24.1326 23 24C23 23.8674 22.9473 23.7402 22.8536 23.6464C22.7598 23.5527 22.6326 23.5 22.5 23.5H18.5Z" fill="white"/>
<path fill-rule="evenodd" clip-rule="evenodd" d="M13 21.5C13 21.3674 13.0527 21.2402 13.1464 21.1464C13.2402 21.0527 13.3674 21 13.5 21H16C16.1326 21 16.2598 21.0527 16.3536 21.1464C16.4473 21.2402 16.5 21.3674 16.5 21.5V24C16.5 24.1326 16.4473 24.2598 16.3536 24.3536C16.2598 24.4473 16.1326 24.5 16 24.5H13.5C13.3674 24.5 13.2402 24.4473 13.1464 24.3536C13.0527 24.2598 13 24.1326 13 24V21.5ZM14 22V23.5H15.5V22H14Z" fill="white"/>
<path d="M16.8535 15.8535C16.9445 15.7592 16.9949 15.6329 16.9938 15.5018C16.9927 15.3707 16.9401 15.2453 16.8474 15.1526C16.7547 15.0598 16.6293 15.0073 16.4982 15.0061C16.3671 15.005 16.2408 15.0554 16.1465 15.1465L14.5 16.793L13.8535 16.1465C13.7592 16.0554 13.6329 16.005 13.5018 16.0061C13.3707 16.0073 13.2453 16.0598 13.1526 16.1526C13.0598 16.2453 13.0073 16.3707 13.0061 16.5018C13.005 16.6329 13.0554 16.7592 13.1465 16.8535L14.5 18.207L16.8535 15.8535Z" fill="white"/>
<path fill-rule="evenodd" clip-rule="evenodd" d="M13 11C12.4696 11 11.9609 11.2107 11.5858 11.5858C11.2107 11.9609 11 12.4696 11 13V27C11 27.5304 11.2107 28.0391 11.5858 28.4142C11.9609 28.7893 12.4696 29 13 29H23C23.5304 29 24.0391 28.7893 24.4142 28.4142C24.7893 28.0391 25 27.5304 25 27V13C25 12.4696 24.7893 11.9609 24.4142 11.5858C24.0391 11.2107 23.5304 11 23 11H13ZM12 13C12 12.7348 12.1054 12.4804 12.2929 12.2929C12.4804 12.1054 12.7348 12 13 12H23C23.2652 12 23.5196 12.1054 23.7071 12.2929C23.8946 12.4804 24 12.7348 24 13V27C24 27.2652 23.8946 27.5196 23.7071 27.7071C23.5196 27.8946 23.2652 28 23 28H13C12.7348 28 12.4804 27.8946 12.2929 27.7071C12.1054 27.5196 12 27.2652 12 27V13ZM26 16C26 15.6022 26.158 15.2206 26.4393 14.9393C26.7206 14.658 27.1022 14.5 27.5 14.5C27.8978 14.5 28.2794 14.658 28.5607 14.9393C28.842 15.2206 29 15.6022 29 16V26.1515L27.5 28.4015L26 26.1515V16ZM27.5 15.5C27.3674 15.5 27.2402 15.5527 27.1464 15.6464C27.0527 15.7402 27 15.8674 27 16V17H28V16C28 15.8674 27.9473 15.7402 27.8536 15.6464C27.7598 15.5527 27.6326 15.5 27.5 15.5ZM27.5 26.5985L27 25.8485V18H28V25.8485L27.5 26.5985Z" fill="white"/>
</g>
</g>
<defs>
<clipPath id="clip0_56_13413">
<path d="M0 20C0 8.95431 8.95431 0 20 0C31.0457 0 40 8.95431 40 20C40 31.0457 31.0457 40 20 40C8.95431 40 0 31.0457 0 20Z" fill="white"/>
</clipPath>
<clipPath id="clip1_56_13413">
<rect width="24" height="24" fill="white" transform="translate(8 8)"/>
</clipPath>
</defs>
</svg>
