<svg width="28" height="28" viewBox="0 0 28 28" fill="none" xmlns="http://www.w3.org/2000/svg">
<g id="Iconsax">
<path id="Vector" d="M18.8296 3.45338L8.29465 6.95338C1.21298 9.32172 1.21298 13.1834 8.29465 15.54L11.4213 16.5784L12.4596 19.705C14.8163 26.7867 18.6896 26.7867 21.0463 19.705L24.558 9.18172C26.1213 4.45672 23.5546 1.87838 18.8296 3.45338ZM19.203 9.73005L14.7696 14.1867C14.5946 14.3617 14.373 14.4434 14.1513 14.4434C13.9296 14.4434 13.708 14.3617 13.533 14.1867C13.3703 14.0221 13.279 13.7999 13.279 13.5684C13.279 13.3369 13.3703 13.1147 13.533 12.9501L17.9663 8.49338C18.3046 8.15505 18.8646 8.15505 19.203 8.49338C19.5413 8.83172 19.5413 9.39172 19.203 9.73005Z" fill="#5840BA"/>
</g>
</svg>
