<svg xmlns="http://www.w3.org/2000/svg" width="24" height="24" viewBox="0 0 24 24" fill="none">
  <g filter="url(#filter0_i_11240_286723)">
    <path d="M12.6278 3.29056C13.6992 2.21912 15.1524 1.61719 16.6676 1.61719C18.1829 1.61719 19.6361 2.21912 20.7075 3.29056C21.779 4.362 22.3809 5.81519 22.3809 7.33043C22.3809 8.84568 21.779 10.2989 20.7075 11.3703L11.3723 20.7056C10.8417 21.2361 10.2119 21.6569 9.51875 21.944C8.82559 22.2311 8.08266 22.3789 7.33239 22.3789C5.81714 22.3789 4.36395 21.777 3.29251 20.7056C2.22107 19.6341 1.61914 18.1809 1.61914 16.6657C1.61914 15.1504 2.22107 13.6972 3.29251 12.6258L12.6278 3.29056Z" fill="url(#paint0_linear_11240_286723)"/>
    <path d="M12.6278 3.29056C13.6992 2.21912 15.1524 1.61719 16.6676 1.61719C18.1829 1.61719 19.6361 2.21912 20.7075 3.29056C21.779 4.362 22.3809 5.81519 22.3809 7.33043C22.3809 8.84568 21.779 10.2989 20.7075 11.3703L11.3723 20.7056C10.8417 21.2361 10.2119 21.6569 9.51875 21.944C8.82559 22.2311 8.08266 22.3789 7.33239 22.3789C5.81714 22.3789 4.36395 21.777 3.29251 20.7056C2.22107 19.6341 1.61914 18.1809 1.61914 16.6657C1.61914 15.1504 2.22107 13.6972 3.29251 12.6258L12.6278 3.29056Z" fill="url(#paint1_radial_11240_286723)"/>
    <path d="M12.6278 3.29056C13.6992 2.21912 15.1524 1.61719 16.6676 1.61719C18.1829 1.61719 19.6361 2.21912 20.7075 3.29056C21.779 4.362 22.3809 5.81519 22.3809 7.33043C22.3809 8.84568 21.779 10.2989 20.7075 11.3703L11.3723 20.7056C10.8417 21.2361 10.2119 21.6569 9.51875 21.944C8.82559 22.2311 8.08266 22.3789 7.33239 22.3789C5.81714 22.3789 4.36395 21.777 3.29251 20.7056C2.22107 19.6341 1.61914 18.1809 1.61914 16.6657C1.61914 15.1504 2.22107 13.6972 3.29251 12.6258L12.6278 3.29056Z" fill="url(#paint2_radial_11240_286723)"/>
  </g>
  <path d="M12.6278 3.29056C13.6992 2.21912 15.1524 1.61719 16.6676 1.61719C18.1829 1.61719 19.6361 2.21912 20.7075 3.29056C21.779 4.362 22.3809 5.81519 22.3809 7.33043C22.3809 8.84568 21.779 10.2989 20.7075 11.3703L11.3723 20.7056C10.8417 21.2361 10.2119 21.6569 9.51875 21.944C8.82559 22.2311 8.08266 22.3789 7.33239 22.3789C5.81714 22.3789 4.36395 21.777 3.29251 20.7056C2.22107 19.6341 1.61914 18.1809 1.61914 16.6657C1.61914 15.1504 2.22107 13.6972 3.29251 12.6258L12.6278 3.29056Z" fill="url(#paint3_radial_11240_286723)"/>
  <path d="M16.0275 16.0485L7.94922 7.96954L12.6277 3.29029C13.6992 2.21895 15.1523 1.61712 16.6675 1.61719C18.1827 1.61726 19.6358 2.21923 20.7071 3.29067C21.7784 4.36211 22.3803 5.81526 22.3802 7.33043C22.3801 8.84561 21.7782 10.2987 20.7067 11.37L16.0275 16.0485Z" fill="url(#paint4_linear_11240_286723)"/>
  <path d="M16.0275 16.0485L7.94922 7.96954L12.6277 3.29029C13.6992 2.21895 15.1523 1.61712 16.6675 1.61719C18.1827 1.61726 19.6358 2.21923 20.7071 3.29067C21.7784 4.36211 22.3803 5.81526 22.3802 7.33043C22.3801 8.84561 21.7782 10.2987 20.7067 11.37L16.0275 16.0485Z" fill="url(#paint5_linear_11240_286723)"/>
  <path d="M16.0275 16.0485L7.94922 7.96954L12.6277 3.29029C13.6992 2.21895 15.1523 1.61712 16.6675 1.61719C18.1827 1.61726 19.6358 2.21923 20.7071 3.29067C21.7784 4.36211 22.3803 5.81526 22.3802 7.33043C22.3801 8.84561 21.7782 10.2987 20.7067 11.37L16.0275 16.0485Z" fill="url(#paint6_radial_11240_286723)"/>
  <path d="M16.0275 16.0485L7.94922 7.96954L12.6277 3.29029C13.6992 2.21895 15.1523 1.61712 16.6675 1.61719C18.1827 1.61726 19.6358 2.21923 20.7071 3.29067C21.7784 4.36211 22.3803 5.81526 22.3802 7.33043C22.3801 8.84561 21.7782 10.2987 20.7067 11.37L16.0275 16.0485Z" fill="url(#paint7_linear_11240_286723)"/>
  <g filter="url(#filter1_f_11240_286723)">
    <path d="M19.3711 8.86794C20.1477 8.86794 20.7773 8.09126 20.7773 7.13319C20.7773 6.17511 20.1477 5.39844 19.3711 5.39844C18.5944 5.39844 17.9648 6.17511 17.9648 7.13319C17.9648 8.09126 18.5944 8.86794 19.3711 8.86794Z" fill="url(#paint8_linear_11240_286723)"/>
  </g>
  <defs>
    <filter id="filter0_i_11240_286723" x="1.61914" y="1.61719" width="21.8867" height="21.8867" filterUnits="userSpaceOnUse" color-interpolation-filters="sRGB">
      <feFlood flood-opacity="0" result="BackgroundImageFix"/>
      <feBlend mode="normal" in="SourceGraphic" in2="BackgroundImageFix" result="shape"/>
      <feColorMatrix in="SourceAlpha" type="matrix" values="0 0 0 0 0 0 0 0 0 0 0 0 0 0 0 0 0 0 127 0" result="hardAlpha"/>
      <feOffset dx="1.125" dy="1.125"/>
      <feGaussianBlur stdDeviation="1.5"/>
      <feComposite in2="hardAlpha" operator="arithmetic" k2="-1" k3="1"/>
      <feColorMatrix type="matrix" values="0 0 0 0 0.733333 0 0 0 0 0.490196 0 0 0 0 0.266667 0 0 0 1 0"/>
      <feBlend mode="normal" in2="shape" result="effect1_innerShadow_11240_286723"/>
    </filter>
    <filter id="filter1_f_11240_286723" x="17.2648" y="4.69844" width="4.2125" height="4.86875" filterUnits="userSpaceOnUse" color-interpolation-filters="sRGB">
      <feFlood flood-opacity="0" result="BackgroundImageFix"/>
      <feBlend mode="normal" in="SourceGraphic" in2="BackgroundImageFix" result="shape"/>
      <feGaussianBlur stdDeviation="0.35" result="effect1_foregroundBlur_11240_286723"/>
    </filter>
    <linearGradient id="paint0_linear_11240_286723" x1="6.19876" y1="11.5511" x2="13.23" y2="19.0976" gradientUnits="userSpaceOnUse">
      <stop stop-color="#FAA74C"/>
      <stop offset="1" stop-color="#FF9E70"/>
    </linearGradient>
    <radialGradient id="paint1_radial_11240_286723" cx="0" cy="0" r="1" gradientUnits="userSpaceOnUse" gradientTransform="translate(10.5576 10.051) rotate(115.907) scale(12.7674 14.9202)">
      <stop offset="0.628" stop-color="#FF7A5B" stop-opacity="0"/>
      <stop offset="1" stop-color="#FF7A5B"/>
    </radialGradient>
    <radialGradient id="paint2_radial_11240_286723" cx="0" cy="0" r="1" gradientUnits="userSpaceOnUse" gradientTransform="translate(13.2728 11.9981) rotate(132.752) scale(8.27722 4.89444)">
      <stop stop-color="#FFB266"/>
      <stop offset="1" stop-color="#FFB266" stop-opacity="0"/>
    </radialGradient>
    <radialGradient id="paint3_radial_11240_286723" cx="0" cy="0" r="1" gradientUnits="userSpaceOnUse" gradientTransform="translate(8.16528 11.6399) rotate(90.771) scale(11.3918 11.9367)">
      <stop offset="0.743" stop-color="#FF78A3" stop-opacity="0"/>
      <stop offset="0.968" stop-color="#FF78A3"/>
    </radialGradient>
    <linearGradient id="paint4_linear_11240_286723" x1="20.2132" y1="12.3008" x2="12.1042" y2="4.19179" gradientUnits="userSpaceOnUse">
      <stop stop-color="#FD227A"/>
      <stop offset="1" stop-color="#D91E4F"/>
    </linearGradient>
    <linearGradient id="paint5_linear_11240_286723" x1="7.94847" y1="6.32779" x2="11.5867" y2="10.056" gradientUnits="userSpaceOnUse">
      <stop stop-color="#AC3F4D"/>
      <stop offset="1" stop-color="#AC3F4D" stop-opacity="0"/>
    </linearGradient>
    <radialGradient id="paint6_radial_11240_286723" cx="0" cy="0" r="1" gradientUnits="userSpaceOnUse" gradientTransform="translate(21.8541 5.71495) rotate(158.839) scale(5.09391 5.44779)">
      <stop stop-color="#FF588F"/>
      <stop offset="1" stop-color="#FF588F" stop-opacity="0"/>
    </radialGradient>
    <linearGradient id="paint7_linear_11240_286723" x1="19.299" y1="13.989" x2="16.5412" y2="11.1285" gradientUnits="userSpaceOnUse">
      <stop offset="0.095" stop-color="#E43A89"/>
      <stop offset="1" stop-color="#E43A89" stop-opacity="0"/>
    </linearGradient>
    <linearGradient id="paint8_linear_11240_286723" x1="19.3711" y1="5.39919" x2="19.3711" y2="9.20769" gradientUnits="userSpaceOnUse">
      <stop offset="0.077" stop-color="#FFFBFF"/>
      <stop offset="1" stop-color="#FFFBFF" stop-opacity="0"/>
    </linearGradient>
  </defs>
</svg>