<svg xmlns="http://www.w3.org/2000/svg" width="24" height="24" viewBox="0 0 24 24" fill="none">
  <g clip-path="url(#clip0_11240_286797)">
    <path d="M19.1937 12.8184C19.4013 12.7896 19.6088 12.8572 19.7646 12.9978C20.0022 13.2112 20.3155 13.3411 20.6595 13.3411C21.4127 13.3411 22.0206 12.7203 21.9995 11.9624C21.9801 11.2721 21.4256 10.7012 20.7365 10.663C20.3585 10.6418 20.0122 10.7776 19.7564 11.0116C19.6029 11.1522 19.3913 11.211 19.1855 11.1821C18.888 11.141 18.6504 10.9158 18.5887 10.6212C18.4088 9.75869 18.0642 8.9573 17.5892 8.25057L18.4482 7.11404C18.6187 6.88885 18.8803 6.75421 19.1625 6.73951C19.6259 6.7154 20.0815 6.51491 20.4202 6.13626C21.0299 5.45422 21.0393 4.44117 20.4414 3.74913C19.7452 2.94363 18.5264 2.91011 17.7867 3.64977C17.458 3.97844 17.2822 4.40236 17.2593 4.83334C17.244 5.11615 17.1106 5.37955 16.8848 5.55006L15.7477 6.40966C15.0415 5.93518 14.2407 5.59122 13.3799 5.41189C13.0854 5.35074 12.8602 5.1132 12.819 4.81511L12.8179 4.80688C12.789 4.59933 12.8567 4.39178 12.9972 4.23597C13.2106 3.99843 13.3406 3.68505 13.3406 3.3405C13.3406 2.58732 12.7191 1.97937 11.9612 2.00054C11.2709 2.01994 10.7 2.57439 10.6618 3.26348C10.6406 3.64154 10.7765 3.98785 11.0105 4.24361C11.151 4.39707 11.2098 4.60873 11.181 4.81452C11.1398 5.11262 10.9146 5.34957 10.6201 5.4113C9.7581 5.59122 8.95612 5.93518 8.24939 6.41025L7.11051 5.54889C6.88473 5.37779 6.75127 5.11497 6.73598 4.83216C6.71305 4.40177 6.53725 3.97785 6.20858 3.64859C5.48421 2.92422 4.29888 2.94127 3.59626 3.70092C2.96715 4.38119 2.95774 5.44423 3.5751 6.13508C3.91612 6.51667 4.37649 6.71775 4.84392 6.73892C5.12202 6.75127 5.37896 6.89061 5.54653 7.11286L6.40848 8.25233C5.93459 8.95847 5.59063 9.75869 5.4113 10.6201C5.35015 10.9146 5.11262 11.1398 4.81452 11.181L4.80629 11.1821C4.59874 11.211 4.39119 11.1433 4.23538 11.0028C3.99784 10.7894 3.68446 10.6594 3.3405 10.6594C2.58732 10.6594 1.97937 11.2803 2.00054 12.0388C2.01994 12.7291 2.57439 13.3 3.26348 13.3382C3.64154 13.3594 3.98785 13.2235 4.24361 12.9895C4.39707 12.849 4.60873 12.7902 4.81452 12.819C5.11203 12.8602 5.34957 13.0854 5.41071 13.3794C5.59416 14.2613 5.95046 15.0797 6.44259 15.7982L5.24844 17.3781C5.09909 17.5756 4.8692 17.6938 4.62226 17.7062C4.21598 17.7273 3.81616 17.9031 3.51924 18.2353C2.9742 18.8445 2.98655 19.7834 3.54629 20.3796C4.16306 21.037 5.1967 21.0493 5.82934 20.4167C6.11803 20.128 6.27208 19.7564 6.29207 19.3783C6.305 19.1302 6.4226 18.8991 6.62074 18.7492L8.2 17.5551C8.91908 18.0478 9.7387 18.4047 10.6218 18.5887C10.9158 18.6498 11.1404 18.8874 11.1816 19.1849L11.1827 19.1931C11.2115 19.4007 11.1439 19.6082 11.0034 19.764C10.79 20.0016 10.66 20.315 10.66 20.6595C10.66 21.4127 11.2809 22.0206 12.0388 21.9995C12.7291 21.9801 13.3 21.4256 13.3382 20.7365C13.3594 20.3585 13.2235 20.0122 12.9901 19.7564C12.8496 19.6029 12.7908 19.3913 12.8196 19.1849C12.8608 18.8874 13.0854 18.6498 13.3799 18.5887C14.2619 18.4053 15.0803 18.0489 15.7988 17.5568L17.3757 18.7492C17.5739 18.8991 17.6909 19.1302 17.7044 19.3783C17.7244 19.7558 17.8784 20.128 18.1671 20.4167C18.7998 21.0493 19.8334 21.037 20.4502 20.3796C21.0099 19.7834 21.0217 18.8445 20.4766 18.2353C20.1797 17.9037 19.7799 17.7273 19.3736 17.7062C19.1261 17.6932 18.8968 17.5751 18.7474 17.3781L17.5556 15.8018C18.0489 15.0827 18.4058 14.2631 18.5899 13.3799C18.651 13.086 18.8886 12.8614 19.1861 12.8202L19.1943 12.819L19.1937 12.8184Z" fill="url(#paint0_linear_11240_286797)"/>
    <path d="M11.9958 18.7339C15.7139 18.7339 18.728 15.7198 18.728 12.0017C18.728 8.28362 15.7139 5.26953 11.9958 5.26953C8.27776 5.26953 5.26367 8.28362 5.26367 12.0017C5.26367 15.7198 8.27776 18.7339 11.9958 18.7339Z" fill="url(#paint1_radial_11240_286797)"/>
    <path d="M9.12157 12.9911C9.15763 12.4848 8.77639 12.0451 8.27005 12.009C7.76371 11.9729 7.324 12.3542 7.28795 12.8605C7.25189 13.3669 7.63313 13.8066 8.13947 13.8426C8.64581 13.8787 9.08551 13.4975 9.12157 12.9911Z" fill="url(#paint2_linear_11240_286797)"/>
    <path d="M10.7725 9.50981C11.4343 9.50981 11.9707 8.97333 11.9707 8.31155C11.9707 7.64976 11.4343 7.11328 10.7725 7.11328C10.1107 7.11328 9.57422 7.64976 9.57422 8.31155C9.57422 8.97333 10.1107 9.50981 10.7725 9.50981Z" fill="url(#paint3_linear_11240_286797)"/>
    <path d="M16.2362 14.2058C16.5731 12.7805 15.6909 11.352 14.2656 11.0151C12.8403 10.6782 11.4118 11.5605 11.0749 12.9857C10.738 14.411 11.6203 15.8395 13.0455 16.1764C14.4708 16.5133 15.8993 15.631 16.2362 14.2058Z" fill="url(#paint4_linear_11240_286797)"/>
  </g>
  <defs>
    <linearGradient id="paint0_linear_11240_286797" x1="20.3814" y1="20.4496" x2="3.6139" y2="3.68152" gradientUnits="userSpaceOnUse">
      <stop stop-color="#CE1D26"/>
      <stop offset="0.54" stop-color="#CE1D26"/>
      <stop offset="1" stop-color="#FF8C8B"/>
    </linearGradient>
    <radialGradient id="paint1_radial_11240_286797" cx="0" cy="0" r="1" gradientUnits="userSpaceOnUse" gradientTransform="translate(7.58612 7.84833) scale(24.3181)">
      <stop stop-color="#FF8C8B"/>
      <stop offset="0.389428" stop-color="#EF3739"/>
      <stop offset="1" stop-color="#EF3739"/>
    </radialGradient>
    <linearGradient id="paint2_linear_11240_286797" x1="8.85162" y1="13.5672" x2="7.5517" y2="12.2672" gradientUnits="userSpaceOnUse">
      <stop stop-color="#CE1D26"/>
      <stop offset="0.54" stop-color="#CE1D26"/>
      <stop offset="1" stop-color="#F95353"/>
    </linearGradient>
    <linearGradient id="paint3_linear_11240_286797" x1="12.2153" y1="16.0476" x2="13.7838" y2="14.2379" gradientUnits="userSpaceOnUse">
      <stop stop-color="#CE1D26"/>
      <stop offset="0.54" stop-color="#CE1D26"/>
      <stop offset="1" stop-color="#F95353"/>
    </linearGradient>
    <linearGradient id="paint4_linear_11240_286797" x1="15.5316" y1="15.462" x2="11.7835" y2="11.714" gradientUnits="userSpaceOnUse">
      <stop stop-color="#C0040E"/>
      <stop offset="0.54" stop-color="#CE1D26"/>
      <stop offset="1" stop-color="#F95353"/>
    </linearGradient>
    <clipPath id="clip0_11240_286797">
      <rect width="24" height="24" fill="white"/>
    </clipPath>
  </defs>
</svg>