<svg width="28" height="29" viewBox="0 0 28 29" fill="none" xmlns="http://www.w3.org/2000/svg">
<path fill-rule="evenodd" clip-rule="evenodd" d="M20.3423 13.4699C20.1872 12.8959 19.8091 12.4063 19.3041 12.1115C18.7938 11.8085 18.2016 11.7222 17.6363 11.8522H17.5652L17.5291 11.8633C16.946 12.0437 16.4541 12.4341 16.1711 12.97C15.878 13.5015 15.8078 14.131 15.9761 14.7066C16.145 15.2967 16.5518 15.7874 17.0846 16.0684C17.6169 16.3617 18.2339 16.4315 18.8212 16.2638L18.8297 16.261C19.3887 16.0794 19.8645 15.6887 20.1456 15.1703C20.4395 14.6512 20.5105 14.0338 20.3423 13.4699ZM18.0104 13.2993C18.192 13.2358 18.4074 13.2531 18.5861 13.3471C18.7676 13.4425 18.9097 13.6038 18.9765 13.8009C19.0022 13.8882 19.0123 13.9873 19.0045 14.0896C18.9828 14.1934 18.9519 14.2918 18.9037 14.3881L18.9009 14.3942C18.8351 14.5351 18.7206 14.6581 18.5909 14.7322L18.5799 14.7393C18.4544 14.8199 18.2982 14.8582 18.15 14.8504C17.9792 14.8292 17.8259 14.7691 17.7054 14.6765C17.6406 14.6267 17.5853 14.5645 17.5404 14.4919L17.5713 14.4765L17.5027 14.2709C17.4378 14.0761 17.4544 13.8707 17.5505 13.6772C17.6472 13.4948 17.8074 13.3582 17.9966 13.3042L18.0104 13.2993Z" fill="#373737"/>
<path fill-rule="evenodd" clip-rule="evenodd" d="M12.9372 14.8294C12.6117 14.6531 12.267 14.5416 11.8922 14.5131C11.5316 14.4723 11.1633 14.5144 10.8267 14.6086L10.8193 14.6109C10.1209 14.8299 9.53192 15.3088 9.17593 15.9521L9.17127 15.9614C9.00982 16.2842 8.90003 16.6247 8.85891 16.9947L8.85826 17.0031C8.83146 17.3514 8.85732 17.721 8.96846 18.0697C9.17543 18.7703 9.6563 19.3589 10.3118 19.7141C10.9571 20.0706 11.7128 20.1531 12.4139 19.947C13.1113 19.742 13.7158 19.2765 14.0739 18.6293C14.4313 17.9835 14.5133 17.2281 14.3077 16.5159L14.3074 16.5147C14.1033 15.8211 13.6422 15.2343 13.0046 14.8765L12.9534 14.8382L12.9372 14.8294ZM11.6204 16.0467C11.9116 16.0155 12.2011 16.0884 12.4381 16.2532L12.4422 16.256C12.6899 16.421 12.8675 16.6695 12.9522 16.9516C13.0359 17.28 13.0034 17.6255 12.848 17.9279C12.7012 18.188 12.4723 18.3842 12.2037 18.4875L12.1961 18.4907C11.9294 18.6035 11.6284 18.6157 11.3439 18.5324C11.0579 18.4362 10.8217 18.2584 10.6688 18.0138L10.6647 18.0077C10.4964 17.7553 10.4243 17.4638 10.4554 17.1738C10.4864 16.8841 10.6215 16.6114 10.8334 16.3996C11.0396 16.1935 11.32 16.0685 11.6116 16.0476L11.6204 16.0467Z" fill="#373737"/>
<path fill-rule="evenodd" clip-rule="evenodd" d="M14.2755 9.44861C13.7395 9.15257 13.1084 9.09763 12.5359 9.26493C12.241 9.34925 11.976 9.48924 11.7413 9.66864L11.7286 9.67907C11.513 9.86765 11.3162 10.09 11.1734 10.3604C10.8803 10.892 10.8101 11.5214 10.9784 12.097C11.1473 12.6871 11.5541 13.1778 12.0868 13.4589C12.6192 13.7522 13.2362 13.8218 13.8234 13.6541L13.825 13.6536C14.404 13.4842 14.893 13.077 15.1854 12.5481C15.4819 12.0118 15.5362 11.3937 15.3694 10.81L15.369 10.8085C15.2004 10.2328 14.8075 9.74253 14.2755 9.44861ZM13.0563 10.7024C13.234 10.6837 13.4089 10.7309 13.5445 10.8303L13.5507 10.8347C13.6992 10.9367 13.806 11.0876 13.8663 11.2662C13.8937 11.3591 13.8998 11.453 13.8846 11.529L13.8797 11.5533V11.578C13.8797 11.6537 13.853 11.7339 13.7965 11.8478C13.7128 11.9936 13.5724 12.1157 13.4018 12.182L13.3972 12.1838C13.2385 12.2492 13.0504 12.2582 12.8842 12.2028L12.8721 12.1991C12.708 12.1535 12.5596 12.0427 12.4674 11.8952C12.3691 11.7382 12.3229 11.5561 12.3415 11.3794C12.3597 11.2073 12.4413 11.0461 12.5821 10.9054C12.7 10.7876 12.8662 10.7128 13.0432 10.7035L13.0563 10.7024Z" fill="#373737"/>
<path fill-rule="evenodd" clip-rule="evenodd" d="M14.0061 0.5C13.4609 0.5 12.914 0.695167 12.4913 1.07459C12.0704 1.43998 11.8042 1.94591 11.7341 2.49221C11.6647 3.04668 11.7882 3.60918 12.1139 4.06413C12.3861 4.47058 12.7788 4.78033 13.244 4.94372V5.63753C11.4051 5.79223 9.67324 6.5104 8.27035 7.70163L7.60251 7.03409C7.9427 6.45431 8.06779 5.77657 7.98183 5.11374L7.98117 5.10925C7.87283 4.37832 7.50682 3.69631 6.93052 3.22937C6.35787 2.75295 5.62326 2.50861 4.88852 2.53582L4.88416 2.53605C4.13509 2.57689 3.44112 2.89012 2.91165 3.40579L2.90712 3.41043C2.39122 3.93968 2.07776 4.63328 2.03691 5.38202L2.03674 5.38638C2.00952 6.12113 2.25411 6.85466 2.71693 7.42613L2.71921 7.42886C3.19774 8.00285 3.87887 8.36922 4.61126 8.47768C5.27989 8.57669 5.959 8.44014 6.53713 8.09937L7.20481 8.76676C6.01318 10.1697 5.29489 11.9106 5.1399 13.7382H4.44567C4.28172 13.2719 3.97047 12.8783 3.56205 12.6062C3.10238 12.2999 2.55454 12.1588 1.9923 12.2291C1.44576 12.2991 0.940393 12.5651 0.574845 12.9859C0.195778 13.4077 0 13.9417 0 14.5C0 15.0568 0.19487 15.5921 0.57623 16.0032C0.941669 16.423 1.44723 16.6886 1.99308 16.7586C2.55093 16.8283 3.09865 16.7026 3.56205 16.3938C3.97105 16.1213 4.28077 15.7187 4.44445 15.2618H5.1399C5.29489 17.0894 6.01318 18.8303 7.20481 20.2332L6.53713 20.9006C5.95965 20.5602 5.28141 20.4236 4.6135 20.522C3.87561 20.6182 3.19525 21.0001 2.71919 21.5711L2.71695 21.5739C2.25442 22.145 2.0095 22.8659 2.03669 23.6134L2.03696 23.6182C2.0778 24.353 2.39046 25.0607 2.9094 25.5794C3.42591 26.0957 4.13363 26.4236 4.88627 26.4516C5.62407 26.4919 6.35975 26.2461 6.93189 25.7695C7.50492 25.2922 7.87247 24.6244 7.98121 23.8908L7.98179 23.8863C8.06775 23.2234 7.9427 22.5457 7.60251 21.9659L8.27112 21.2976C9.67369 22.4777 11.4052 23.1953 13.244 23.35V24.0558C12.7809 24.2162 12.3867 24.5153 12.1129 24.9249C11.7896 25.3897 11.6644 25.951 11.7341 26.4957C11.8042 27.0549 12.0707 27.561 12.4931 27.9269C12.9108 28.2888 13.443 28.5 14.0061 28.5C14.5678 28.5 15.1011 28.2897 15.5082 27.9256C15.9297 27.5598 16.1957 27.0542 16.2656 26.4957C16.3355 25.9504 16.2098 25.3903 15.9008 24.927C15.6265 24.5158 15.2227 24.2174 14.7683 24.057V23.3513C16.5971 23.2069 18.3387 22.4891 19.7419 21.2983L20.4095 21.9657C20.069 22.543 19.9323 23.2209 20.0308 23.8885C20.1272 24.6276 20.5103 25.2947 21.0804 25.7695C21.6522 26.2458 22.3753 26.4919 23.1259 26.4516C23.8629 26.4237 24.5715 26.1105 25.0904 25.5794C25.6217 25.0608 25.9351 24.3525 25.9629 23.6158C26.0033 22.8655 25.7571 22.1427 25.2805 21.5711C24.8055 21.0014 24.1382 20.6184 23.3987 20.522C22.7308 20.4236 22.0526 20.5602 21.4751 20.9006L20.8067 20.2325C21.9875 18.8295 22.7054 17.0888 22.8709 15.2618H23.5681C23.733 15.7169 24.0443 16.0979 24.4487 16.3679C24.9009 16.678 25.4623 16.8034 25.9952 16.7334C26.5419 16.6633 27.0464 16.3973 27.4112 15.9906C27.776 15.5838 27.986 15.0523 28 14.5064L27.9997 14.4936C27.9857 13.9477 27.776 13.4162 27.4112 13.0094C27.0464 12.6027 26.5419 12.3367 25.9952 12.2666C25.4631 12.1967 24.9027 12.3216 24.4509 12.6306C24.0419 12.892 23.7319 13.2835 23.568 13.7382H22.8723C22.7164 11.9098 21.9875 10.1695 20.8067 8.7675L21.4751 8.09937C22.0532 8.44014 22.7324 8.57669 23.401 8.47768C24.135 8.36898 24.803 8.00163 25.2805 7.42886C25.7573 6.85697 26.0033 6.12161 25.9629 5.38414C25.935 4.63268 25.6199 3.93749 25.0904 3.40813C24.5714 2.88942 23.8635 2.57684 23.1283 2.53602L23.1236 2.53585C22.376 2.50867 21.654 2.75325 21.0817 3.22937C20.5084 3.69392 20.1269 4.37499 20.0307 5.11148C19.9323 5.7791 20.069 6.45704 20.4095 7.03427L19.7419 7.70166C18.3383 6.51055 16.5967 5.79257 14.7683 5.63765V4.9425C15.2248 4.77909 15.6271 4.47006 15.8998 4.06198C16.2111 3.60853 16.335 3.04654 16.2656 2.49143C16.1956 1.94582 15.93 1.44125 15.51 1.07597C15.0981 0.694253 14.5498 0.5 14.0061 0.5ZM13.4581 2.2627C13.6103 2.11058 13.7963 2.03613 14.0061 2.03613C14.2175 2.03613 14.3994 2.11144 14.5359 2.25701L14.5416 2.2627C14.6853 2.40635 14.7683 2.59377 14.7683 2.79795C14.7683 3.00213 14.6853 3.18955 14.5416 3.33319C14.3991 3.47562 14.1995 3.55977 14.0061 3.55977C13.8151 3.55977 13.6136 3.47736 13.4554 3.33039C13.3202 3.19363 13.244 2.99788 13.244 2.79795C13.244 2.59664 13.3212 2.39959 13.4581 2.2627ZM3.99713 6.56502C3.64904 6.22796 3.53298 5.85488 3.55864 5.50605C3.58485 5.14984 3.76089 4.79961 4.03119 4.52943C4.30149 4.25925 4.65187 4.08328 5.00824 4.05709C5.35711 4.03145 5.73024 4.14737 6.06737 4.49506C6.3373 4.77584 6.49507 5.14945 6.48455 5.53874V5.54549C6.48455 5.93847 6.32559 6.31194 6.04713 6.59112C5.75647 6.87007 5.38408 7.01728 4.99198 7.00669H4.98523C4.72276 7.00669 4.4598 6.93133 4.23524 6.7956L3.99713 6.56502ZM21.9446 4.49538C22.2818 4.14745 22.655 4.03144 23.004 4.05709C23.3604 4.08328 23.7108 4.25925 23.9811 4.52943C24.2514 4.79961 24.4274 5.14984 24.4536 5.50605C24.4793 5.85488 24.3632 6.22796 24.0151 6.56502L24.0123 6.5678C23.7354 6.84456 23.3622 6.9942 22.977 6.9942C22.589 6.9942 22.2064 6.8427 21.9452 6.57127L21.9418 6.5678C21.6649 6.29105 21.5152 5.91795 21.5152 5.53301C21.5152 5.14806 21.6649 4.77496 21.9418 4.49821L21.9446 4.49538ZM6.93909 16.874C6.31544 15.1548 6.35891 13.1045 7.47827 10.9237C8.71594 8.81751 10.4217 7.67984 12.2082 7.27889C14.0015 6.8764 15.8937 7.21267 17.4972 8.08766C19.1008 8.96264 20.4037 10.3697 21.0276 12.0931C21.6244 13.7415 21.6061 15.6954 20.6126 17.7792L20.5766 17.7522L20.4361 17.9978C19.2195 20.126 17.5262 21.2761 15.7477 21.6839C13.9638 22.0929 12.0757 21.7592 10.4729 20.8843C8.87011 20.0093 7.56518 18.5999 6.93909 16.874ZM2.30797 13.7632L2.35352 13.7404C2.52807 13.7545 2.70138 13.8356 2.82883 13.9715C2.96989 14.1219 3.04723 14.3201 3.04859 14.5318C3.03772 14.741 2.95241 14.9267 2.80265 15.067L2.79695 15.0727C2.6621 15.2075 2.45361 15.2868 2.24898 15.2868C2.05797 15.2868 1.85648 15.2044 1.69822 15.0574C1.56301 14.9207 1.48682 14.7249 1.48682 14.525C1.48682 14.3237 1.56406 14.1266 1.701 13.9897C1.85319 13.8376 2.03915 13.7632 2.24898 13.7632H2.30797ZM25.1028 13.9772C25.255 13.8251 25.441 13.7507 25.6508 13.7507H25.7133C25.9041 13.7507 26.1008 13.8325 26.2429 13.9714C26.3744 14.1248 26.4505 14.3259 26.4505 14.5375C26.4505 14.7211 26.3617 14.9183 26.2077 15.0642C26.0528 15.1982 25.85 15.2743 25.6508 15.2743C25.4598 15.2743 25.2583 15.1919 25.1001 15.045C24.9649 14.9082 24.8887 14.7124 24.8887 14.5125C24.8887 14.3112 24.9659 14.1141 25.1028 13.9772ZM22.0202 22.4287C22.2819 22.1566 22.6525 22.0058 23.052 22.0058C23.358 22.0058 23.6428 22.0945 23.8844 22.2624L23.9872 22.4029C24.1892 22.6792 24.2859 23.0208 24.2644 23.364C24.2433 23.702 24.0948 24.0331 23.8605 24.2789C23.611 24.5274 23.29 24.6855 22.9537 24.717C22.6163 24.7486 22.2715 24.666 22.0009 24.4857C21.7341 24.2106 21.5902 23.8445 21.5902 23.467C21.5902 23.0821 21.7399 22.709 22.0168 22.4322L22.0202 22.4287ZM3.97562 22.4536C4.25212 22.241 4.6023 22.1355 4.95011 22.1671C5.30602 22.1995 5.63828 22.3499 5.89554 22.607C6.13817 22.8496 6.28658 23.1889 6.29713 23.537L6.29759 23.5445C6.3187 23.8926 6.21457 24.2404 6.00765 24.5149C5.67308 24.8548 5.30378 24.9683 4.95826 24.9429C4.60189 24.9167 4.25151 24.7407 3.98121 24.4706C3.71092 24.2004 3.53487 23.8502 3.50867 23.4939C3.48478 23.1692 3.5837 22.8235 3.87828 22.5054H3.90825L3.97562 22.4536ZM13.4762 25.6485C13.6106 25.5052 13.8039 25.4277 14.0186 25.4277C14.2284 25.4277 14.4144 25.5022 14.5666 25.6543C14.7079 25.7956 14.7933 25.9946 14.7933 26.202C14.7933 26.4062 14.7103 26.5937 14.5666 26.7373C14.4241 26.8797 14.2245 26.9639 14.0311 26.9639C13.8401 26.9639 13.6386 26.8815 13.4803 26.7345C13.3451 26.5977 13.269 26.402 13.269 26.202V25.9976C13.3024 25.8661 13.3692 25.7502 13.4652 25.6603L13.4762 25.6485Z" fill="#373737"/>
</svg>
