<svg width="24" height="24" viewBox="0 0 24 24" fill="none" xmlns="http://www.w3.org/2000/svg">
<g clip-path="url(#clip0_1860_31251)">
<ellipse cx="12" cy="12" rx="12" ry="12" transform="rotate(-90 12 12)" fill="#A21CAF"/>
<g clip-path="url(#clip1_1860_31251)">
<path d="M5.80364 14.9996C5.69304 14.9996 5.60364 14.9102 5.60364 14.7996C5.60364 14.1378 6.14184 13.5996 6.80364 13.5996C6.91424 13.5996 7.00364 13.689 7.00364 13.7996C7.00364 13.9102 6.91424 13.9996 6.80364 13.9996C6.36244 13.9996 6.00364 14.3584 6.00364 14.7996C6.00364 14.9102 5.91404 14.9996 5.80364 14.9996Z" fill="white"/>
<path d="M7.40364 13.9996H6.80364C6.69304 13.9996 6.60364 13.9102 6.60364 13.7996C6.60364 13.689 6.69304 13.5996 6.80364 13.5996H7.40364C7.51424 13.5996 7.60364 13.689 7.60364 13.7996C7.60364 13.9102 7.51404 13.9996 7.40364 13.9996Z" fill="white"/>
<path d="M5.80364 15.5996C5.69304 15.5996 5.60364 15.5102 5.60364 15.3996V14.7996C5.60364 14.689 5.69304 14.5996 5.80364 14.5996C5.91424 14.5996 6.00364 14.689 6.00364 14.7996V15.3996C6.00364 15.5102 5.91404 15.5996 5.80364 15.5996Z" fill="white"/>
<path d="M6.00364 15.799C5.78304 15.799 5.60364 15.6196 5.60364 15.399C5.60364 15.2928 5.68724 15.2162 5.79324 15.2104C5.90484 15.203 5.99164 15.2936 6.00364 15.3988C6.11404 15.3988 6.20364 15.4884 6.20364 15.5988C6.20364 15.7094 6.11404 15.799 6.00364 15.799Z" fill="white"/>
<path d="M10.6037 14.9996C10.4931 14.9996 10.4037 14.9102 10.4037 14.7996C10.4037 14.3584 10.0449 13.9996 9.60369 13.9996C9.49309 13.9996 9.40369 13.9102 9.40369 13.7996C9.40369 13.689 9.49309 13.5996 9.60369 13.5996C10.2655 13.5996 10.8037 14.1378 10.8037 14.7996C10.8037 14.9102 10.7141 14.9996 10.6037 14.9996Z" fill="white"/>
<path d="M9.60365 13.9996H9.00365C8.89305 13.9996 8.80365 13.9102 8.80365 13.7996C8.80365 13.689 8.89305 13.5996 9.00365 13.5996H9.60365C9.71425 13.5996 9.80365 13.689 9.80365 13.7996C9.80365 13.9102 9.71405 13.9996 9.60365 13.9996Z" fill="white"/>
<path d="M10.6037 15.5996C10.4931 15.5996 10.4037 15.5102 10.4037 15.3996V14.7996C10.4037 14.689 10.4931 14.5996 10.6037 14.5996C10.7143 14.5996 10.8037 14.689 10.8037 14.7996V15.3996C10.8037 15.5102 10.7141 15.5996 10.6037 15.5996Z" fill="white"/>
<path d="M10.4036 15.7992C10.293 15.7992 10.2036 15.7098 10.2036 15.5992C10.2036 15.4886 10.293 15.3992 10.4036 15.3992C10.4036 15.2886 10.493 15.1992 10.6036 15.1992C10.7142 15.1992 10.8036 15.2886 10.8036 15.3992C10.8036 15.6198 10.624 15.7992 10.4036 15.7992Z" fill="white"/>
<path d="M10.4036 15.7984H6.00365C5.89305 15.7984 5.80365 15.709 5.80365 15.5984C5.80365 15.4878 5.89305 15.3984 6.00365 15.3984H10.4036C10.5142 15.3984 10.6037 15.4878 10.6037 15.5984C10.6037 15.709 10.5141 15.7984 10.4036 15.7984Z" fill="white"/>
<path d="M7.40361 13.9997C7.29301 13.9997 7.20361 13.9103 7.20361 13.7997V13.0125C7.20361 12.9019 7.29301 12.8125 7.40361 12.8125C7.51421 12.8125 7.60361 12.9019 7.60361 13.0125V13.7997C7.60361 13.9103 7.51401 13.9997 7.40361 13.9997Z" fill="white"/>
<path d="M9.00365 13.9997C8.89305 13.9997 8.80365 13.9103 8.80365 13.7997V13.0125C8.80365 12.9019 8.89305 12.8125 9.00365 12.8125C9.11425 12.8125 9.20365 12.9019 9.20365 13.0125V13.7997C9.20365 13.9103 9.11405 13.9997 9.00365 13.9997Z" fill="white"/>
<path d="M8.20341 13.3988C7.10061 13.3988 6.20361 12.5018 6.20361 11.3992C6.20361 11.2886 6.29301 11.1992 6.40361 11.1992C6.51421 11.1992 6.60361 11.2886 6.60361 11.3992C6.60361 12.2812 7.32121 12.9988 8.20341 12.9988C9.08581 12.9988 9.80361 12.2812 9.80361 11.3992C9.80361 11.2886 9.89301 11.1992 10.0036 11.1992C10.1142 11.1992 10.2036 11.2886 10.2036 11.3992C10.2036 12.5018 9.30621 13.3988 8.20341 13.3988Z" fill="white"/>
<path d="M6.40361 11.6092C6.29301 11.6092 6.20361 11.5198 6.20361 11.4092V10.199C6.20361 10.0886 6.29301 9.99902 6.40361 9.99902C6.51421 9.99902 6.60361 10.0886 6.60361 10.199V11.4092C6.60361 11.5198 6.51401 11.6092 6.40361 11.6092Z" fill="white"/>
<path d="M10.0036 11.5994C9.89305 11.5994 9.80365 11.51 9.80365 11.3994V10.199C9.80365 10.0886 9.89305 9.99902 10.0036 9.99902C10.1142 9.99902 10.2036 10.0886 10.2036 10.199V11.3994C10.2036 11.51 10.114 11.5994 10.0036 11.5994Z" fill="white"/>
<path d="M10.0037 10.399C9.89306 10.399 9.80366 10.3096 9.80366 10.199C9.80366 9.86822 9.53446 9.59922 9.20366 9.59922C9.09306 9.59922 9.00366 9.50962 9.00366 9.39922C9.00366 9.28882 9.09306 9.19922 9.20366 9.19922C9.75506 9.19922 10.2037 9.64782 10.2037 10.199C10.2037 10.3096 10.1141 10.399 10.0037 10.399Z" fill="white"/>
<path d="M9.2036 9.59844C9.093 9.59844 9.0036 9.50884 9.0036 9.39844V8.59844C9.0036 8.48804 9.093 8.39844 9.2036 8.39844C9.3142 8.39844 9.4036 8.48804 9.4036 8.59844V9.39844C9.4036 9.50884 9.314 9.59844 9.2036 9.59844Z" fill="white"/>
<path d="M9.20365 8.79844H8.00365C7.89305 8.79844 7.80365 8.70884 7.80365 8.59844C7.80365 8.48804 7.89305 8.39844 8.00365 8.39844H9.20365C9.31425 8.39844 9.40365 8.48804 9.40365 8.59844C9.40365 8.70884 9.31405 8.79844 9.20365 8.79844Z" fill="white"/>
<path d="M6.40361 10.3984C6.29301 10.3984 6.20361 10.309 6.20361 10.1984C6.20361 9.20604 7.01101 8.39844 8.00361 8.39844C8.11421 8.39844 8.20361 8.48804 8.20361 8.59844C8.20361 8.70884 8.11421 8.79844 8.00361 8.79844C7.23181 8.79844 6.60361 9.42644 6.60361 10.1984C6.60361 10.309 6.51401 10.3984 6.40361 10.3984Z" fill="white"/>
<path d="M10.0034 11.0043C9.96503 11.0043 9.92603 10.9931 9.89163 10.9701L9.29163 10.5651C9.20003 10.5031 9.17603 10.3789 9.23763 10.2873C9.29943 10.1959 9.42383 10.1715 9.51543 10.2335L10.1154 10.6385C10.207 10.7005 10.231 10.8247 10.1694 10.9163C10.1306 10.9735 10.0676 11.0043 10.0034 11.0043Z" fill="white"/>
<path d="M8.30365 10.7996C7.58125 10.7996 6.96625 10.598 6.94065 10.5894C6.83605 10.5544 6.77925 10.4414 6.81385 10.3366C6.84865 10.2318 6.96165 10.1744 7.06665 10.2096C7.07245 10.2116 7.64825 10.3994 8.30385 10.3994C8.93945 10.3994 9.31185 10.2218 9.31565 10.22C9.41445 10.1716 9.53445 10.2124 9.58305 10.3114C9.63165 10.4102 9.59165 10.5294 9.49325 10.5786C9.47465 10.5876 9.04065 10.7996 8.30365 10.7996Z" fill="white"/>
<path d="M6.40384 11.0043C6.33964 11.0043 6.27644 10.9735 6.23784 10.9163C6.17604 10.8247 6.20004 10.7005 6.29164 10.6385L6.89164 10.2335C6.98344 10.1715 7.10764 10.1959 7.16944 10.2873C7.23124 10.3789 7.20704 10.5031 7.11544 10.5651L6.51544 10.9701C6.48104 10.9933 6.44224 11.0043 6.40384 11.0043Z" fill="white"/>
<path d="M7.80344 14.1993C7.77344 14.1993 7.74284 14.1925 7.71424 14.1783L7.31424 13.9783C7.21544 13.9289 7.17544 13.8087 7.22484 13.7099C7.27424 13.6111 7.39444 13.5717 7.49324 13.6205L7.89324 13.8205C7.99204 13.8699 8.03204 13.9901 7.98264 14.0889C7.94724 14.1589 7.87684 14.1993 7.80344 14.1993Z" fill="white"/>
<path d="M7.80388 14.1995C7.73048 14.1995 7.65988 14.1591 7.62468 14.0889C7.57528 13.9901 7.61528 13.8699 7.71408 13.8205L8.11408 13.6205C8.21288 13.5717 8.33308 13.6111 8.38248 13.7099C8.43188 13.8087 8.39188 13.9289 8.29308 13.9783L7.89308 14.1783C7.86428 14.1927 7.83388 14.1995 7.80388 14.1995Z" fill="white"/>
<path d="M8.60381 14.1995C8.53041 14.1995 8.45981 14.1591 8.42461 14.0889C8.37521 13.9901 8.41521 13.8699 8.51401 13.8205L8.91401 13.6205C9.01261 13.5717 9.13281 13.6111 9.18241 13.7099C9.23181 13.8087 9.19181 13.9289 9.09301 13.9783L8.69301 14.1783C8.66421 14.1927 8.63381 14.1995 8.60381 14.1995Z" fill="white"/>
<path d="M8.60343 14.1993C8.57343 14.1993 8.54283 14.1925 8.51423 14.1783L8.11423 13.9783C8.01543 13.9289 7.97543 13.8087 8.02483 13.7099C8.07443 13.6111 8.19423 13.5717 8.29323 13.6205L8.69323 13.8205C8.79203 13.8699 8.83203 13.9901 8.78263 14.0889C8.74723 14.1589 8.67683 14.1993 8.60343 14.1993Z" fill="white"/>
<path d="M13.9964 11.5911C13.8858 11.5911 13.7964 11.5017 13.7964 11.3911V10.5271C13.7964 10.4165 13.8858 10.3271 13.9964 10.3271C14.107 10.3271 14.1964 10.4165 14.1964 10.5271V11.3911C14.1964 11.5017 14.107 11.5911 13.9964 11.5911Z" fill="white"/>
<path d="M17.5964 11.599C17.4858 11.599 17.3964 11.5096 17.3964 11.399V10.4988C17.3964 10.3882 17.4858 10.2988 17.5964 10.2988C17.707 10.2988 17.7964 10.3882 17.7964 10.4988V11.399C17.7964 11.5096 17.707 11.599 17.5964 11.599Z" fill="white"/>
<path d="M17.5964 10.6982C17.4858 10.6982 17.3964 10.6088 17.3964 10.4982C17.3964 9.56084 16.6338 8.79844 15.6962 8.79844C14.7588 8.79844 13.9964 9.56104 13.9964 10.4982C13.9964 10.6088 13.907 10.6982 13.7964 10.6982C13.6858 10.6982 13.5964 10.6088 13.5964 10.4982C13.5964 9.34044 14.5384 8.39844 15.6962 8.39844C16.8542 8.39844 17.7964 9.34044 17.7964 10.4982C17.7964 10.6088 17.707 10.6982 17.5964 10.6982Z" fill="white"/>
<path d="M17.5966 10.9983C17.5364 10.9983 17.477 10.9713 17.4376 10.9199C16.9456 10.2773 16.7242 10.3433 16.1328 10.5197C15.6238 10.6713 14.9264 10.8793 13.7652 10.6955C13.6562 10.6783 13.5816 10.5759 13.599 10.4667C13.6162 10.3577 13.7182 10.2823 13.8278 10.3005C14.899 10.4693 15.546 10.2767 16.0186 10.1363C16.6448 9.95006 17.0966 9.81586 17.7554 10.6765C17.8226 10.7641 17.806 10.8897 17.7182 10.9569C17.6818 10.9849 17.639 10.9983 17.5966 10.9983Z" fill="white"/>
<path d="M16.6006 10.4048C16.5618 10.4048 16.5224 10.3934 16.488 10.37C16.3968 10.3076 16.3734 10.1832 16.4356 10.092L17.0314 9.22002C17.094 9.12882 17.2184 9.10542 17.3096 9.16762C17.4008 9.22982 17.4242 9.35442 17.362 9.44562L16.7662 10.3178C16.7272 10.3744 16.6644 10.4048 16.6006 10.4048Z" fill="white"/>
<path d="M13.3964 14.9996C13.2858 14.9996 13.1964 14.9102 13.1964 14.7996C13.1964 14.1378 13.7346 13.5996 14.3964 13.5996C14.507 13.5996 14.5964 13.689 14.5964 13.7996C14.5964 13.9102 14.507 13.9996 14.3964 13.9996C13.9552 13.9996 13.5964 14.3584 13.5964 14.7996C13.5964 14.9102 13.507 14.9996 13.3964 14.9996Z" fill="white"/>
<path d="M14.9964 13.9996H14.3964C14.2858 13.9996 14.1964 13.9102 14.1964 13.7996C14.1964 13.689 14.2858 13.5996 14.3964 13.5996H14.9964C15.107 13.5996 15.1964 13.689 15.1964 13.7996C15.1964 13.9102 15.107 13.9996 14.9964 13.9996Z" fill="white"/>
<path d="M13.3964 15.5996C13.2858 15.5996 13.1964 15.5102 13.1964 15.3996V14.7996C13.1964 14.689 13.2858 14.5996 13.3964 14.5996C13.507 14.5996 13.5964 14.689 13.5964 14.7996V15.3996C13.5964 15.5102 13.507 15.5996 13.3964 15.5996Z" fill="white"/>
<path d="M13.5964 15.799C13.3758 15.799 13.1964 15.6196 13.1964 15.399C13.1964 15.2928 13.28 15.2162 13.386 15.2104C13.4954 15.203 13.5846 15.2936 13.5964 15.3988C13.7068 15.3988 13.7964 15.4884 13.7964 15.5988C13.7964 15.7094 13.707 15.799 13.5964 15.799Z" fill="white"/>
<path d="M18.1963 14.9996C18.0857 14.9996 17.9963 14.9102 17.9963 14.7996C17.9963 14.3584 17.6375 13.9996 17.1963 13.9996C17.0857 13.9996 16.9963 13.9102 16.9963 13.7996C16.9963 13.689 17.0857 13.5996 17.1963 13.5996C17.8581 13.5996 18.3963 14.1378 18.3963 14.7996C18.3963 14.9102 18.3069 14.9996 18.1963 14.9996Z" fill="white"/>
<path d="M17.1964 13.9996H16.5964C16.4858 13.9996 16.3964 13.9102 16.3964 13.7996C16.3964 13.689 16.4858 13.5996 16.5964 13.5996H17.1964C17.307 13.5996 17.3964 13.689 17.3964 13.7996C17.3964 13.9102 17.307 13.9996 17.1964 13.9996Z" fill="white"/>
<path d="M18.1963 15.5996C18.0857 15.5996 17.9963 15.5102 17.9963 15.3996V14.7996C17.9963 14.689 18.0857 14.5996 18.1963 14.5996C18.3069 14.5996 18.3963 14.689 18.3963 14.7996V15.3996C18.3963 15.5102 18.3069 15.5996 18.1963 15.5996Z" fill="white"/>
<path d="M17.9964 15.7992C17.8858 15.7992 17.7964 15.7098 17.7964 15.5992C17.7964 15.4886 17.8858 15.3992 17.9964 15.3992C17.9964 15.2886 18.0858 15.1992 18.1964 15.1992C18.307 15.1992 18.3964 15.2886 18.3964 15.3992C18.3964 15.6198 18.217 15.7992 17.9964 15.7992Z" fill="white"/>
<path d="M17.9964 15.7984H13.5964C13.4858 15.7984 13.3964 15.709 13.3964 15.5984C13.3964 15.4878 13.4858 15.3984 13.5964 15.3984H17.9964C18.107 15.3984 18.1964 15.4878 18.1964 15.5984C18.1964 15.709 18.107 15.7984 17.9964 15.7984Z" fill="white"/>
<path d="M14.9964 13.9997C14.8858 13.9997 14.7964 13.9103 14.7964 13.7997V13.0125C14.7964 12.9019 14.8858 12.8125 14.9964 12.8125C15.107 12.8125 15.1964 12.9019 15.1964 13.0125V13.7997C15.1964 13.9103 15.107 13.9997 14.9964 13.9997Z" fill="white"/>
<path d="M16.5964 13.9997C16.4858 13.9997 16.3964 13.9103 16.3964 13.7997V13.0125C16.3964 12.9019 16.4858 12.8125 16.5964 12.8125C16.707 12.8125 16.7964 12.9019 16.7964 13.0125V13.7997C16.7964 13.9103 16.707 13.9997 16.5964 13.9997Z" fill="white"/>
<path d="M15.7962 13.3988C14.6934 13.3988 13.7964 12.5018 13.7964 11.3992C13.7964 11.2886 13.8858 11.1992 13.9964 11.1992C14.107 11.1992 14.1964 11.2886 14.1964 11.3992C14.1964 12.2812 14.914 12.9988 15.7962 12.9988C16.6786 12.9988 17.3964 12.2812 17.3964 11.3992C17.3964 11.2886 17.4858 11.1992 17.5964 11.1992C17.707 11.1992 17.7964 11.2886 17.7964 11.3992C17.7964 12.5018 16.8992 13.3988 15.7962 13.3988Z" fill="white"/>
<path d="M15.3962 14.1993C15.3662 14.1993 15.3356 14.1925 15.307 14.1783L14.907 13.9783C14.8082 13.9289 14.7682 13.8087 14.8176 13.7099C14.867 13.6111 14.9872 13.5717 15.086 13.6205L15.486 13.8205C15.5848 13.8699 15.6248 13.9901 15.5754 14.0889C15.5402 14.1589 15.4698 14.1993 15.3962 14.1993Z" fill="white"/>
<path d="M15.3965 14.1995C15.3231 14.1995 15.2525 14.1591 15.2173 14.0889C15.1679 13.9901 15.2079 13.8699 15.3067 13.8205L15.7067 13.6205C15.8055 13.5717 15.9257 13.6111 15.9751 13.7099C16.0245 13.8087 15.9845 13.9289 15.8857 13.9783L15.4857 14.1783C15.4571 14.1927 15.4267 14.1995 15.3965 14.1995Z" fill="white"/>
<path d="M16.1966 14.1995C16.1232 14.1995 16.0526 14.1591 16.0174 14.0889C15.968 13.9901 16.008 13.8699 16.1068 13.8205L16.5068 13.6205C16.6054 13.5717 16.7256 13.6111 16.7752 13.7099C16.8246 13.8087 16.7846 13.9289 16.6858 13.9783L16.2858 14.1783C16.2572 14.1927 16.2268 14.1995 16.1966 14.1995Z" fill="white"/>
<path d="M16.1961 14.1993C16.1661 14.1993 16.1355 14.1925 16.1069 14.1783L15.7069 13.9783C15.6081 13.9289 15.5681 13.8087 15.6175 13.7099C15.6671 13.6111 15.7869 13.5717 15.8859 13.6205L16.2859 13.8205C16.3847 13.8699 16.4247 13.9901 16.3753 14.0889C16.3401 14.1589 16.2697 14.1993 16.1961 14.1993Z" fill="white"/>
<path d="M10.6258 11.4212C10.5746 11.4212 10.5234 11.4016 10.4844 11.3626C10.4062 11.2844 10.4062 11.158 10.4844 11.0798C10.56 11.0042 10.6016 10.9038 10.6016 10.797C10.6016 10.6902 10.56 10.5898 10.4844 10.5142C10.4062 10.4362 10.4062 10.3096 10.4844 10.2314C10.5626 10.1532 10.689 10.1534 10.7672 10.2314C10.9184 10.3824 11.0016 10.5832 11.0016 10.7972C11.0016 11.0108 10.9184 11.2116 10.7672 11.3628C10.7282 11.4018 10.677 11.4212 10.6258 11.4212Z" fill="white"/>
<path d="M11.1914 11.9875C11.1402 11.9875 11.089 11.9679 11.05 11.9289C10.9718 11.8507 10.9718 11.7243 11.05 11.6461C11.518 11.1781 11.518 10.4169 11.05 9.94887C10.9718 9.87067 10.9718 9.74427 11.05 9.66607C11.1282 9.58787 11.2546 9.58787 11.3328 9.66607C11.9566 10.2899 11.9566 11.3051 11.3328 11.9289C11.2938 11.9681 11.2426 11.9875 11.1914 11.9875Z" fill="white"/>
<path d="M11.7572 12.5525C11.706 12.5525 11.6548 12.5329 11.6158 12.4939C11.5376 12.4157 11.5376 12.2893 11.6158 12.2111C12.3956 11.4313 12.3956 10.1623 11.6158 9.38247C11.5376 9.30427 11.5376 9.17787 11.6158 9.09967C11.694 9.02147 11.8204 9.02147 11.8986 9.09967C12.8344 10.0355 12.8344 11.5581 11.8986 12.4939C11.8596 12.5329 11.8084 12.5525 11.7572 12.5525Z" fill="white"/>
</g>
</g>
<defs>
<clipPath id="clip0_1860_31251">
<rect width="24" height="24" fill="white"/>
</clipPath>
<clipPath id="clip1_1860_31251">
<rect width="12.8" height="12.8" fill="white" transform="translate(5.59998 5.59961)"/>
</clipPath>
</defs>
</svg>
