<svg width="60" height="60" viewBox="0 0 60 60" fill="none" xmlns="http://www.w3.org/2000/svg">
<g clip-path="url(#clip0_1293_8771)">
<ellipse cx="30" cy="30" rx="30" ry="30" transform="rotate(-90 30 30)" fill="#14B8A6"/>
<path d="M33.4598 46H21.1354C21.0391 45.9999 20.944 45.9787 20.857 45.9379C20.77 45.8971 20.6934 45.8377 20.6325 45.764C20.5717 45.6903 20.5283 45.6042 20.5054 45.5119C20.4824 45.4196 20.4806 45.3234 20.5001 45.2303C20.8005 43.7324 20.7213 42.1844 20.2696 40.7239C19.8178 39.2634 19.0075 37.9356 17.9106 36.8584C16.6595 35.6107 15.6701 34.1318 14.9991 32.5064C14.3281 30.8809 13.9887 29.1409 14.0003 27.3858C14.0539 23.9708 15.4074 20.7005 17.7919 18.2246C20.1764 15.7486 23.4176 14.248 26.8716 14.0209C28.7059 13.9198 30.5419 14.1862 32.269 14.8038C33.9962 15.4214 35.5788 16.3776 36.9215 17.6147C38.2642 18.8518 39.3392 20.3442 40.0817 22.0021C40.8243 23.66 41.2191 25.4491 41.2423 27.2615L45.043 33.511C45.1019 33.6081 45.1337 33.7189 45.1351 33.8321C45.1365 33.9454 45.1074 34.0569 45.0509 34.1554C44.9944 34.2539 44.9124 34.3359 44.8133 34.393C44.7142 34.4501 44.6015 34.4802 44.4868 34.4803H41.2435V38.3202C41.2428 38.9989 40.9692 39.6496 40.4827 40.1295C39.9963 40.6094 39.3368 40.8794 38.649 40.8802H34.7571C34.5851 40.8804 34.4202 40.9479 34.2986 41.0679C34.177 41.1878 34.1086 41.3505 34.1084 41.5201V45.36C34.1084 45.5298 34.0401 45.6925 33.9184 45.8126C33.7968 45.9326 33.6318 46 33.4598 46ZM21.9009 44.72H32.8111V41.5201C32.8117 41.0111 33.0169 40.5231 33.3817 40.1631C33.7465 39.8032 34.2411 39.6007 34.7571 39.6002H38.649C38.9929 39.5998 39.3227 39.4649 39.5659 39.2249C39.8091 38.9849 39.9459 38.6596 39.9463 38.3202V33.8403C39.9463 33.6706 40.0146 33.5078 40.1362 33.3878C40.2579 33.2678 40.4229 33.2004 40.5949 33.2004H43.3412L40.0387 27.7699C39.9783 27.6704 39.9463 27.5565 39.9463 27.4405C39.9474 25.7868 39.6064 24.1502 38.9442 22.6311C38.2819 21.1119 37.3124 19.742 36.0949 18.6054C34.8775 17.4688 33.4377 16.5893 31.8637 16.0207C30.2898 15.4522 28.6148 15.2066 26.9413 15.299C23.8165 15.5047 20.8844 16.8624 18.7273 19.1025C16.5702 21.3426 15.3459 24.3012 15.2976 27.3908C15.2871 28.9786 15.5942 30.5528 16.2013 32.0233C16.8083 33.4937 17.7035 34.8316 18.8354 35.9603C19.9859 37.0956 20.8598 38.4742 21.3909 39.9918C21.9219 41.5093 22.0964 43.1262 21.9009 44.72Z" fill="white"/>
<path d="M26.3246 38.3203C26.1525 38.3203 25.9876 38.2529 25.8659 38.1329C25.7443 38.0128 25.6759 37.85 25.6759 37.6803C25.6759 37.5106 25.7443 37.3478 25.8659 37.2278C25.9876 37.1078 26.1525 37.0403 26.3246 37.0403C28.9042 37.0375 31.3773 36.0251 33.2013 34.2255C35.0254 32.4258 36.0514 29.9857 36.0543 27.4406C36.0543 25.2341 35.1659 23.1179 33.5845 21.5576C32.0031 19.9974 29.8583 19.1208 27.6219 19.1208C25.3855 19.1208 23.2406 19.9974 21.6592 21.5576C20.0779 23.1179 19.1894 25.2341 19.1894 27.4406C19.1894 29.3077 19.9412 31.0983 21.2793 32.4185C22.6174 33.7387 24.4322 34.4804 26.3246 34.4804C28.2169 34.4804 30.0318 33.7387 31.3699 32.4185C32.708 31.0983 33.4597 29.3077 33.4597 27.4406C33.4597 25.913 32.8447 24.448 31.7499 23.3678C30.655 22.2876 29.1702 21.6808 27.6219 21.6808C26.0736 21.6808 24.5887 22.2876 23.4939 23.3678C22.3991 24.448 21.784 25.913 21.784 27.4406C21.784 28.6287 22.2624 29.7682 23.1139 30.6084C23.9654 31.4485 25.1204 31.9205 26.3246 31.9205C27.5288 31.9205 28.6837 31.4485 29.5352 30.6084C30.3867 29.7682 30.8651 28.6287 30.8651 27.4406C30.8651 26.5919 30.5234 25.778 29.9152 25.1779C29.307 24.5778 28.482 24.2407 27.6219 24.2407C26.7617 24.2407 25.9368 24.5778 25.3286 25.1779C24.7203 25.778 24.3786 26.5919 24.3786 27.4406C24.3786 27.9498 24.5837 28.4381 24.9486 28.7982C25.3135 29.1583 25.8085 29.3605 26.3246 29.3605C26.8407 29.3605 27.3356 29.1583 27.7006 28.7982C28.0655 28.4381 28.2705 27.9498 28.2705 27.4406C28.2705 27.2709 28.2022 27.1081 28.0805 26.9881C27.9589 26.868 27.7939 26.8006 27.6219 26.8006C27.4498 26.8006 27.2849 26.868 27.1632 26.9881C27.0416 27.1081 26.9732 27.2709 26.9732 27.4406C26.9732 27.6103 26.9049 27.7731 26.7832 27.8931C26.6616 28.0132 26.4966 28.0806 26.3246 28.0806C26.1525 28.0806 25.9876 28.0132 25.8659 27.8931C25.7443 27.7731 25.6759 27.6103 25.6759 27.4406C25.6759 26.9314 25.8809 26.4431 26.2459 26.083C26.6108 25.7229 27.1058 25.5207 27.6219 25.5207C28.138 25.5207 28.6329 25.7229 28.9979 26.083C29.3628 26.4431 29.5678 26.9314 29.5678 27.4406C29.5678 28.2893 29.2261 29.1032 28.6179 29.7033C28.0097 30.3034 27.1847 30.6405 26.3246 30.6405C25.4644 30.6405 24.6395 30.3034 24.0313 29.7033C23.423 29.1032 23.0813 28.2893 23.0813 27.4406C23.0813 26.2525 23.5597 25.113 24.4112 24.2728C25.2627 23.4327 26.4176 22.9607 27.6219 22.9607C28.8261 22.9607 29.981 23.4327 30.8325 24.2728C31.684 25.113 32.1624 26.2525 32.1624 27.4406C32.1624 28.9682 31.5474 30.4332 30.4526 31.5134C29.3577 32.5936 27.8729 33.2004 26.3246 33.2004C24.7763 33.2004 23.2914 32.5936 22.1966 31.5134C21.1018 30.4332 20.4867 28.9682 20.4867 27.4406C20.4867 25.5735 21.2385 23.7829 22.5766 22.4627C23.9147 21.1425 25.7295 20.4008 27.6219 20.4008C29.5142 20.4008 31.3291 21.1425 32.6672 22.4627C34.0053 23.7829 34.757 25.5735 34.757 27.4406C34.757 29.6471 33.8686 31.7633 32.2872 33.3236C30.7058 34.8838 28.561 35.7604 26.3246 35.7604C24.0882 35.7604 21.9433 34.8838 20.3619 33.3236C18.7806 31.7633 17.8921 29.6471 17.8921 27.4406C17.8921 24.8946 18.9172 22.4529 20.7419 20.6526C22.5666 18.8523 25.0414 17.8409 27.6219 17.8409C30.2024 17.8409 32.6772 18.8523 34.5018 20.6526C36.3265 22.4529 37.3516 24.8946 37.3516 27.4406C37.3484 30.3251 36.1855 33.0905 34.1183 35.1302C32.051 37.1698 29.2481 38.3171 26.3246 38.3203Z" fill="white"/>
</g>
<defs>
<clipPath id="clip0_1293_8771">
<rect width="60" height="60" fill="white"/>
</clipPath>
</defs>
</svg>
