<svg width="60" height="60" viewBox="0 0 60 60" fill="none" xmlns="http://www.w3.org/2000/svg">
<g clip-path="url(#clip0_1293_8724)">
<ellipse cx="30" cy="30" rx="30" ry="30" transform="rotate(-90 30 30)" fill="#A855F7"/>
<path d="M22.2577 30.995H19.8993C19.7908 30.995 19.6868 31.0381 19.6101 31.1149C19.5333 31.1916 19.4902 31.2958 19.4902 31.4043V33.7629C19.4902 33.8166 19.5008 33.8699 19.5214 33.9196C19.5419 33.9692 19.572 34.0144 19.61 34.0524C19.648 34.0904 19.6931 34.1206 19.7428 34.1412C19.7924 34.1617 19.8456 34.1723 19.8993 34.1723H22.2577C22.3662 34.1723 22.4703 34.1292 22.547 34.0524C22.6237 33.9756 22.6668 33.8715 22.6668 33.7629V31.4043C22.6668 31.2958 22.6237 31.1916 22.547 31.1149C22.4703 31.0381 22.3662 30.995 22.2577 30.995ZM21.8486 33.3535H20.3084V31.8137H21.8486V33.3535ZM22.2577 35.7137H19.8993C19.7908 35.7137 19.6868 35.7568 19.6101 35.8336C19.5333 35.9104 19.4902 36.0145 19.4902 36.1231V38.4817C19.4902 38.5354 19.5008 38.5887 19.5214 38.6383C19.5419 38.688 19.5721 38.7331 19.6101 38.7711C19.648 38.8092 19.6931 38.8393 19.7428 38.8599C19.7924 38.8805 19.8456 38.8911 19.8993 38.8911H22.2577C22.3662 38.8911 22.4703 38.8479 22.547 38.7711C22.6237 38.6944 22.6668 38.5902 22.6668 38.4817V36.1231C22.6668 36.0145 22.6237 35.9104 22.547 35.8336C22.4703 35.7568 22.3662 35.7137 22.2577 35.7137ZM21.8486 38.0722H20.3084V36.5325H21.8486V38.0722ZM27.3887 16.7285C27.3888 16.7823 27.3782 16.8355 27.3576 16.8852C27.3371 16.9349 27.3069 16.98 27.269 17.0181C27.231 17.0561 27.1859 17.0862 27.1362 17.1068C27.0866 17.1274 27.0334 17.138 26.9797 17.138H26.9731C26.9189 17.1386 26.8652 17.1285 26.815 17.1082C26.7648 17.088 26.7191 17.0579 26.6806 17.0198C26.6421 16.9817 26.6115 16.9364 26.5906 16.8864C26.5698 16.8364 26.559 16.7827 26.559 16.7286C26.559 16.6744 26.5698 16.6207 26.5906 16.5707C26.6115 16.5207 26.6421 16.4754 26.6806 16.4373C26.7191 16.3992 26.7648 16.3692 26.815 16.3489C26.8652 16.3286 26.9189 16.3185 26.9731 16.3191H26.9797C27.0882 16.3191 27.1922 16.3623 27.2689 16.439C27.3456 16.5158 27.3887 16.62 27.3887 16.7285ZM22.2577 26.2762H19.8993C19.8456 26.2762 19.7924 26.2868 19.7428 26.3074C19.6931 26.3279 19.648 26.3581 19.61 26.3961C19.572 26.4341 19.5419 26.4793 19.5214 26.5289C19.5008 26.5786 19.4902 26.6318 19.4902 26.6856V29.0458C19.4902 29.1544 19.5333 29.2585 19.6101 29.3353C19.6868 29.4121 19.7908 29.4552 19.8993 29.4552H22.2577C22.3662 29.4552 22.4703 29.4121 22.547 29.3353C22.6237 29.2585 22.6668 29.1544 22.6668 29.0458V26.6856C22.6668 26.6318 22.6562 26.5786 22.6357 26.5289C22.6151 26.4793 22.585 26.4341 22.547 26.3961C22.509 26.3581 22.4639 26.3279 22.4143 26.3074C22.3646 26.2868 22.3114 26.2762 22.2577 26.2762ZM21.8486 28.6364H20.3084V27.095H21.8486V28.6364ZM23.5481 29.0458C23.5481 28.9921 23.5587 28.9388 23.5792 28.8891C23.5998 28.8395 23.6299 28.7943 23.6679 28.7563C23.7059 28.7183 23.751 28.6881 23.8006 28.6675C23.8503 28.647 23.9035 28.6364 23.9572 28.6364H28.1961C28.3037 28.6377 28.4065 28.6814 28.4822 28.758C28.5579 28.8347 28.6003 28.9381 28.6003 29.0458C28.6003 29.1535 28.5579 29.2569 28.4822 29.3336C28.4065 29.4102 28.3037 29.4539 28.1961 29.4552H23.9572C23.9034 29.4552 23.8502 29.4447 23.8006 29.4241C23.7509 29.4035 23.7058 29.3734 23.6678 29.3354C23.6298 29.2973 23.5997 29.2522 23.5791 29.2025C23.5586 29.1528 23.548 29.0996 23.548 29.0458H23.5481ZM23.5481 31.4043C23.5481 31.3506 23.5587 31.2973 23.5792 31.2477C23.5998 31.198 23.6299 31.1529 23.6679 31.1149C23.7059 31.0768 23.751 31.0467 23.8006 31.0261C23.8503 31.0055 23.9035 30.995 23.9572 30.995H28.493C28.6015 30.995 28.7056 31.0381 28.7823 31.1149C28.859 31.1916 28.9021 31.2958 28.9021 31.4043C28.9021 31.5129 28.859 31.6171 28.7823 31.6938C28.7056 31.7706 28.6015 31.8137 28.493 31.8137H23.9572C23.9034 31.8138 23.8502 31.8032 23.8006 31.7826C23.7509 31.762 23.7058 31.7319 23.6678 31.6939C23.6298 31.6559 23.5997 31.6107 23.5791 31.561C23.5586 31.5114 23.548 31.4581 23.548 31.4043H23.5481ZM23.9572 38.0723H33.6411C33.7487 38.0736 33.8515 38.1173 33.9272 38.194C34.0029 38.2706 34.0453 38.374 34.0453 38.4817C34.0453 38.5895 34.0029 38.6929 33.9272 38.7695C33.8515 38.8462 33.7487 38.8899 33.6411 38.8912H23.9572C23.8495 38.8899 23.7467 38.8462 23.671 38.7695C23.5954 38.6929 23.5529 38.5895 23.5529 38.4817C23.5529 38.374 23.5954 38.2706 23.671 38.194C23.7467 38.1173 23.8495 38.0736 23.9572 38.0723ZM23.548 26.6856C23.548 26.6318 23.5586 26.5786 23.5791 26.5289C23.5997 26.4793 23.6298 26.4341 23.6678 26.3961C23.7058 26.3581 23.7509 26.3279 23.8005 26.3074C23.8501 26.2868 23.9033 26.2762 23.9571 26.2762H28.5644C28.6729 26.2762 28.7769 26.3194 28.8537 26.3961C28.9304 26.4729 28.9735 26.577 28.9735 26.6856C28.9735 26.7942 28.9304 26.8983 28.8537 26.9751C28.7769 27.0519 28.6729 27.095 28.5644 27.095H23.9572C23.9034 27.095 23.8502 27.0844 23.8006 27.0639C23.7509 27.0433 23.7058 27.0132 23.6678 26.9751C23.6298 26.9371 23.5997 26.892 23.5791 26.8423C23.5586 26.7926 23.548 26.7394 23.548 26.6856ZM22.0843 22.7899L22.5138 21.6153C22.5426 21.5365 22.5949 21.4684 22.6636 21.4204C22.7323 21.3723 22.8141 21.3465 22.898 21.3465H22.8989C22.9828 21.3467 23.0647 21.3727 23.1334 21.4211C23.2021 21.4694 23.2542 21.5378 23.2828 21.6168L23.928 23.4035L24.618 21.2363C24.6443 21.1536 24.6963 21.0814 24.7663 21.0301C24.8364 20.9789 24.9209 20.9512 25.0077 20.9512H25.0136C25.1014 20.9525 25.1864 20.982 25.2562 21.0354C25.3259 21.0888 25.3767 21.1632 25.4009 21.2477C25.6298 22.0466 25.8413 22.7418 26.0551 23.3945L26.1742 23.0614C26.2025 22.9819 26.2548 22.9131 26.3237 22.8645C26.3927 22.8159 26.475 22.7898 26.5594 22.7898H29.5948C29.649 22.7892 29.7027 22.7993 29.7529 22.8196C29.8031 22.8399 29.8488 22.8699 29.8873 22.908C29.9258 22.9461 29.9564 22.9914 29.9773 23.0414C29.9981 23.0914 30.0089 23.1451 30.0089 23.1993C30.0089 23.2534 29.9981 23.3071 29.9773 23.3571C29.9564 23.4071 29.9258 23.4524 29.8873 23.4905C29.8488 23.5286 29.8031 23.5586 29.7529 23.5789C29.7027 23.5992 29.649 23.6093 29.5948 23.6087H26.8477L26.432 24.7721C26.4036 24.8516 26.3514 24.9204 26.2824 24.969C26.2135 25.0176 26.1312 25.0437 26.0468 25.0437C25.9624 25.0437 25.8801 25.0175 25.8112 24.9689C25.7422 24.9202 25.69 24.8514 25.6616 24.7719C25.4315 24.1268 25.2159 23.4758 24.9942 22.7534L24.3425 24.8001C24.3166 24.8816 24.2658 24.9529 24.1973 25.004C24.1287 25.0552 24.046 25.0835 23.9605 25.0852H23.952C23.8679 25.0852 23.7858 25.0592 23.717 25.0108C23.6481 24.9625 23.5958 24.8941 23.5672 24.8149L22.8958 22.9541L22.7548 23.34C22.7259 23.4188 22.6736 23.4868 22.6049 23.5349C22.5362 23.5829 22.4544 23.6087 22.3706 23.6087H19.8993C19.7917 23.6074 19.6889 23.5637 19.6132 23.4871C19.5375 23.4105 19.4951 23.3071 19.4951 23.1993C19.4951 23.0916 19.5375 22.9882 19.6132 22.9115C19.6889 22.8349 19.7917 22.7912 19.8993 22.7899H22.0843ZM23.9568 33.3535H29.5499C29.6575 33.3548 29.7603 33.3985 29.836 33.4751C29.9117 33.5517 29.9541 33.6552 29.9541 33.7629C29.9541 33.8706 29.9117 33.974 29.836 34.0507C29.7603 34.1273 29.6575 34.171 29.5499 34.1723H23.9572C23.8495 34.171 23.7467 34.1273 23.671 34.0507C23.5954 33.974 23.5529 33.8706 23.5529 33.7629C23.5529 33.6552 23.5954 33.5517 23.671 33.4751C23.7467 33.3985 23.8495 33.3548 23.9572 33.3535H23.9568ZM23.9568 35.7137H31.8406C31.9482 35.715 32.051 35.7587 32.1267 35.8353C32.2024 35.912 32.2448 36.0154 32.2448 36.1231C32.2448 36.2309 32.2024 36.3343 32.1267 36.4109C32.051 36.4875 31.9482 36.5312 31.8406 36.5325H23.9572C23.8495 36.5312 23.7467 36.4875 23.671 36.4109C23.5954 36.3343 23.5529 36.2309 23.5529 36.1231C23.5529 36.0154 23.5954 35.912 23.671 35.8353C23.7467 35.7587 23.8495 35.715 23.9572 35.7137H23.9568ZM43.9996 29.1671C43.9996 25.5548 41.3872 22.5417 37.9535 21.9195V18.7679C37.953 18.3066 37.7697 17.8644 37.4438 17.5382C37.1179 17.2121 36.676 17.0286 36.2151 17.0281H31.5564C31.5439 16.8413 31.4611 16.6663 31.3246 16.5383C31.1881 16.4104 31.0082 16.3391 30.8212 16.3388H28.6604C28.5722 15.9581 28.3577 15.6186 28.052 15.3754C27.7463 15.1323 27.3674 15 26.9769 15C26.5865 15 26.2075 15.1323 25.9018 15.3754C25.5961 15.6186 25.3817 15.9581 25.2935 16.3388H23.1323C22.9453 16.3391 22.7654 16.4104 22.6289 16.5383C22.4924 16.6663 22.4095 16.8413 22.397 17.0281H17.7385C17.2776 17.0286 16.8357 17.212 16.5098 17.5382C16.1838 17.8644 16.0005 18.3066 16 18.7679V41.7554C16.0007 42.2164 16.1842 42.6583 16.5101 42.9842C16.836 43.3101 17.2778 43.4932 17.7385 43.4935H34.7702C34.8706 43.955 35.1381 44.363 35.521 44.6391C35.9039 44.9151 36.3753 45.0397 36.8445 44.9889C37.3137 44.9381 37.7476 44.7155 38.0626 44.3638C38.3777 44.0122 38.5517 43.5564 38.5513 43.0841V37.6711C38.5513 37.5625 38.5081 37.4584 38.4314 37.3816C38.3547 37.3048 38.2506 37.2617 38.1421 37.2617H37.9239V36.4216C41.3724 35.8113 44 32.7906 44 29.1671H43.9996ZM31.5592 17.8469H36.2154C36.4594 17.8471 36.6933 17.9443 36.8658 18.1169C37.0384 18.2896 37.1354 18.5237 37.1357 18.7679V21.8188C36.9713 21.8077 36.8057 21.8016 36.6386 21.8016C36.5109 21.8016 36.3839 21.8048 36.2577 21.8114V19.8492C36.2573 19.5513 36.1389 19.2657 35.9285 19.055C35.718 18.8444 35.4326 18.7259 35.135 18.7255H31.5592V17.8469ZM23.2129 17.1576H25.6584C25.7121 17.1576 25.7653 17.147 25.8149 17.1264C25.8646 17.1059 25.9096 17.0757 25.9476 17.0377C25.9856 16.9997 26.0158 16.9545 26.0363 16.9048C26.0569 16.8552 26.0674 16.8019 26.0674 16.7482V16.7285C26.0652 16.4871 26.1588 16.2547 26.3278 16.0824C26.4968 15.9101 26.7272 15.8121 26.9684 15.8098C27.2096 15.8076 27.4419 15.9013 27.614 16.0704C27.7862 16.2395 27.8842 16.4701 27.8864 16.7115C27.8855 16.7238 27.8849 16.736 27.8849 16.7482C27.8849 16.8019 27.8955 16.8552 27.9161 16.9048C27.9366 16.9545 27.9668 16.9997 28.0047 17.0377C28.0427 17.0757 28.0878 17.1059 28.1375 17.1264C28.1871 17.147 28.2403 17.1576 28.294 17.1576H30.7413V19.3003H23.2129V17.1576ZM22.8037 20.1191H31.1501C31.2038 20.1191 31.257 20.1085 31.3067 20.0879C31.3563 20.0673 31.4014 20.0372 31.4394 19.9992C31.4774 19.9611 31.5075 19.916 31.5281 19.8663C31.5486 19.8167 31.5592 19.7634 31.5592 19.7097V19.5444H35.135C35.2157 19.5445 35.293 19.5766 35.3501 19.6338C35.4072 19.6909 35.4393 19.7683 35.4394 19.8491V21.8998C31.9496 22.4746 29.2787 25.5143 29.2787 29.167C29.2808 30.8971 29.8903 32.5714 31.0006 33.8974C32.1109 35.2234 33.6515 36.1168 35.3532 36.4215V37.2617H35.135C35.0265 37.2617 34.9224 37.3048 34.8457 37.3816C34.769 37.4584 34.7259 37.5625 34.7258 37.6711V40.9789H18.8173C18.7371 40.9776 18.6605 40.9451 18.6039 40.8881C18.5474 40.8312 18.5152 40.7545 18.5144 40.6742V19.8492C18.5142 19.7686 18.5461 19.6912 18.6028 19.6341C18.6596 19.5769 18.7368 19.5447 18.8173 19.5444H22.3946V19.7097C22.3946 19.7634 22.4052 19.8167 22.4257 19.8663C22.4463 19.916 22.4764 19.9612 22.5144 19.9992C22.5524 20.0372 22.5975 20.0673 22.6472 20.0879C22.6968 20.1085 22.75 20.1191 22.8037 20.1191ZM16.8182 41.7554V18.7679C16.8185 18.5237 16.9155 18.2896 17.0881 18.1169C17.2606 17.9443 17.4945 17.8471 17.7385 17.8469H22.3946V18.7258H18.8173C18.5199 18.7263 18.2348 18.8449 18.0246 19.0555C17.8144 19.2661 17.6963 19.5515 17.6961 19.8492V40.6741C17.6963 40.9718 17.8144 41.2573 18.0246 41.4679C18.2348 41.6786 18.5198 41.7972 18.8173 41.7977H34.7258V42.6747H17.7385C17.4947 42.6746 17.2609 42.5778 17.0884 42.4055C16.9159 42.2331 16.8187 41.9993 16.8182 41.7554ZM37.7332 43.084C37.7365 43.23 37.7107 43.3752 37.6572 43.5111C37.6037 43.6469 37.5237 43.7707 37.4217 43.8751C37.3197 43.9796 37.1979 44.0626 37.0634 44.1192C36.929 44.1759 36.7845 44.2051 36.6386 44.2051C36.4927 44.2051 36.3483 44.1759 36.2138 44.1192C36.0793 44.0626 35.9575 43.9796 35.8555 43.8751C35.7536 43.7707 35.6735 43.6469 35.62 43.5111C35.5665 43.3752 35.5407 43.23 35.5441 43.084V38.0805H37.7332V43.084ZM36.1714 37.2616V36.5189C36.326 36.5286 36.4817 36.5342 36.6386 36.5342C36.7955 36.5342 36.9513 36.5287 37.1058 36.5189V37.2617L36.1714 37.2616ZM36.6386 35.7153C35.3447 35.7151 34.0799 35.331 33.0042 34.6115C31.9284 33.892 31.09 32.8694 30.5949 31.673C30.0998 30.4767 29.9704 29.1603 30.2228 27.8903C30.4753 26.6203 31.0984 25.4537 32.0133 24.5381C32.9282 23.6224 34.0939 22.9989 35.3629 22.7462C36.6319 22.4936 37.9473 22.6232 39.1427 23.1186C40.3382 23.6141 41.3599 24.4532 42.0789 25.5298C42.7978 26.6064 43.1816 27.8722 43.1818 29.1671C43.18 30.9032 42.4901 32.5678 41.2634 33.7954C40.0367 35.0231 38.3734 35.7135 36.6386 35.7153ZM39.5894 27.5816H38.2244V26.2156C38.2244 26.107 38.1813 26.0029 38.1046 25.9261C38.0279 25.8493 37.9238 25.8062 37.8153 25.8062H35.4636C35.3551 25.8062 35.2511 25.8493 35.1743 25.9261C35.0976 26.0029 35.0545 26.107 35.0545 26.2156V27.5817H33.6894C33.5809 27.5817 33.4769 27.6248 33.4001 27.7016C33.3234 27.7784 33.2803 27.8825 33.2803 27.9911V30.3447C33.2803 30.4533 33.3234 30.5574 33.4001 30.6342C33.4769 30.7109 33.5809 30.7541 33.6894 30.7541H35.0545V32.1202C35.0545 32.2288 35.0976 32.333 35.1743 32.4097C35.2511 32.4865 35.3551 32.5296 35.4636 32.5296H37.8153C37.869 32.5296 37.9222 32.5191 37.9719 32.4985C38.0215 32.4779 38.0666 32.4477 38.1046 32.4097C38.1426 32.3717 38.1727 32.3266 38.1933 32.2769C38.2138 32.2272 38.2244 32.174 38.2244 32.1202V30.7541H39.5895C39.6432 30.7541 39.6964 30.7435 39.746 30.7229C39.7957 30.7023 39.8408 30.6722 39.8788 30.6342C39.9167 30.5961 39.9469 30.551 39.9674 30.5013C39.988 30.4517 39.9986 30.3984 39.9986 30.3447V27.9911C39.9986 27.8825 39.9555 27.7784 39.8788 27.7016C39.802 27.6248 39.698 27.5817 39.5895 27.5817L39.5894 27.5816ZM39.1804 29.9356H37.8153C37.7616 29.9356 37.7084 29.9462 37.6587 29.9667C37.6091 29.9873 37.564 30.0174 37.526 30.0555C37.488 30.0935 37.4579 30.1386 37.4373 30.1883C37.4168 30.238 37.4062 30.2912 37.4062 30.345V31.711H35.8727V30.3447C35.8727 30.2909 35.8621 30.2377 35.8416 30.188C35.821 30.1383 35.7909 30.0932 35.7529 30.0552C35.7149 30.0172 35.6698 29.987 35.6202 29.9664C35.5705 29.9459 35.5173 29.9353 35.4636 29.9353H34.0984V28.4004H35.4635C35.5172 28.4004 35.5704 28.3898 35.6201 28.3693C35.6697 28.3487 35.7148 28.3185 35.7528 28.2805C35.7908 28.2425 35.8209 28.1973 35.8414 28.1477C35.862 28.098 35.8726 28.0447 35.8726 27.991V26.625H37.4064V27.9911C37.4064 28.0449 37.4169 28.0981 37.4375 28.1478C37.4581 28.1975 37.4882 28.2426 37.5262 28.2806C37.5642 28.3186 37.6093 28.3488 37.6589 28.3694C37.7086 28.3899 37.7618 28.4005 37.8155 28.4005H39.1804V29.9356ZM36.6386 23.4094C35.5006 23.4096 34.3881 23.7474 33.442 24.3803C32.4958 25.0132 31.7585 25.9127 31.3231 26.965C30.8878 28.0173 30.774 29.1751 30.9961 30.2921C31.2183 31.4091 31.7665 32.4351 32.5713 33.2403C33.3761 34.0455 34.4015 34.5938 35.5177 34.8159C36.6339 35.0379 37.7908 34.9237 38.8421 34.4877C39.8935 34.0517 40.792 33.3135 41.4242 32.3664C42.0563 31.4194 42.3936 30.306 42.3934 29.1671C42.3917 27.6403 41.7848 26.1765 40.7059 25.0971C39.627 24.0177 38.1642 23.4107 36.6386 23.4094ZM36.6386 34.1075C35.6625 34.1073 34.7084 33.8175 33.8969 33.2746C33.0854 32.7318 32.453 31.9603 32.0795 31.0578C31.7061 30.1553 31.6085 29.1622 31.7989 28.2041C31.9894 27.2461 32.4595 26.366 33.1497 25.6753C33.8399 24.9846 34.7192 24.5142 35.6765 24.3236C36.6339 24.1329 37.6262 24.2307 38.528 24.6044C39.4298 24.9781 40.2007 25.6111 40.7431 26.4232C41.2855 27.2354 41.5751 28.1902 41.5753 29.1671C41.574 30.477 41.0534 31.7328 40.1279 32.659C39.2024 33.5853 37.9475 34.1062 36.6386 34.1075V34.1075Z" fill="white"/>
</g>
<defs>
<clipPath id="clip0_1293_8724">
<rect width="60" height="60" fill="white"/>
</clipPath>
</defs>
</svg>
