<svg width="60" height="60" viewBox="0 0 60 60" fill="none" xmlns="http://www.w3.org/2000/svg">
<g clip-path="url(#clip0_1296_8717)">
<ellipse cx="30" cy="30" rx="30" ry="30" transform="rotate(-90 30 30)" fill="#FF0000"/>
<path d="M22.1901 41V39.4783H24.0051L26.7611 28.0658H33.2389L35.9949 39.4783H37.8099V41H22.1901ZM25.3188 39.4783H34.6812L32.3103 29.5875H27.691L25.3188 39.4783ZM29.381 24.0867V18H30.619V24.0867H29.381ZM36.1286 27.5302L35.2458 26.4453L38.7595 22.1633L39.6126 23.2117L36.1286 27.5302ZM38.0476 34.7383V33.2167H43V34.7383H38.0476ZM23.8714 27.5287L20.3887 23.2117L21.2405 22.1633L24.7554 26.4453L23.8714 27.5287ZM17 34.7383V33.2167H21.9524V34.7383H17Z" fill="white"/>
</g>
<defs>
<clipPath id="clip0_1296_8717">
<rect width="60" height="60" fill="white"/>
</clipPath>
</defs>
</svg>
