<svg width="29" height="29" viewBox="0 0 29 29" fill="none" xmlns="http://www.w3.org/2000/svg">
<path fill-rule="evenodd" clip-rule="evenodd" d="M2.9186 0.5C2.75347 0.5 2.56349 0.549027 2.41776 0.690076C2.26886 0.810575 2.183 0.980648 2.14923 1.15368L2.14438 1.17853V1.41184C1.96864 1.40184 1.79142 1.41532 1.61965 1.45226C1.33457 1.51088 1.07552 1.62856 0.845618 1.80528L0.839523 1.81027C0.634493 1.97837 0.432332 2.19678 0.298955 2.46888C0.173005 2.71348 0.0860087 2.99196 0.0714722 3.28992V9.70162L0.0714789 9.7035C0.084417 11.5068 0.74434 13.2452 1.94901 14.5727C3.09905 15.8401 4.65197 16.6483 6.31517 16.8333L6.31513 22.9985L6.31521 23.0032C6.34766 24.8186 7.03238 26.1988 8.0564 27.123C9.07616 28.0433 10.4184 28.4992 11.7533 28.5C13.0881 28.5008 14.4305 28.0466 15.4504 27.1266C16.4746 26.2027 17.1593 24.8217 17.1917 23.0032V11.309C17.2521 10.289 17.686 9.3293 18.4121 8.62078C19.1408 7.9225 20.1037 7.526 21.1003 7.526C22.0968 7.526 23.0597 7.9225 23.7884 8.62078C24.5149 9.32963 24.9479 10.2889 24.9963 11.3071L24.9875 13.2529C24.9827 14.4066 24.9768 15.9373 24.9729 17.4676C24.969 18.9979 24.9671 20.5281 24.97 21.6808C24.9714 22.257 24.9741 22.7397 24.9784 23.081C24.9802 23.2269 24.9824 23.348 24.9849 23.44C24.5227 23.6083 24.1233 23.9236 23.8424 24.3367L23.8404 24.3397C23.5206 24.8241 23.3796 25.3979 23.4498 25.9738C23.5195 26.5453 23.7847 27.0764 24.2188 27.4646C24.6388 27.8513 25.1846 28.0665 25.7456 28.0665C26.3056 28.0665 26.8649 27.8519 27.2863 27.4633C27.7035 27.0784 27.9836 26.5495 28.0538 25.9738C28.124 25.3979 27.983 24.8241 27.6632 24.3397L27.6612 24.3367C27.3771 23.9189 26.972 23.6013 26.4948 23.4345L26.4951 11.3013L26.4945 11.2894C26.4291 9.85371 25.8267 8.51241 24.8197 7.5206L24.8173 7.51829C23.799 6.54155 22.465 5.97746 21.0628 5.97746C19.6615 5.97746 18.3141 6.54095 17.3071 7.51942L17.3059 7.52062C16.2988 8.51249 15.6967 9.85307 15.6183 11.287V22.9965C15.597 24.325 15.1018 25.3034 14.3827 25.9523C13.6588 26.6054 12.6937 26.9371 11.7207 26.9371C10.7476 26.9371 9.78161 26.6054 9.05613 25.9521C8.33536 25.3031 7.83794 24.3245 7.81366 22.9962V16.8334C9.4882 16.6488 11.0418 15.8406 12.1923 14.5727L12.1932 14.5717C13.3837 13.2455 14.0574 11.5074 14.0574 9.70162L14.0577 3.30272L14.057 3.28994C14.0428 2.99842 13.9715 2.72063 13.8437 2.45875L13.841 2.45349C13.7105 2.20084 13.5233 1.98037 13.2956 1.80538C13.0722 1.63366 12.8141 1.49963 12.5217 1.43946C12.3433 1.40112 12.1625 1.39416 11.9845 1.40865V1.19111L11.9832 1.17841C11.9645 0.986482 11.8724 0.810572 11.7236 0.69009C11.5778 0.54903 11.3879 0.5 11.2227 0.5C11.0576 0.5 10.8676 0.549027 10.7219 0.690076C10.573 0.810575 10.4871 0.980649 10.4534 1.15368L10.4485 1.17853V3.35366L10.4534 3.37851C10.4887 3.55977 10.5784 3.7257 10.7211 3.85369L10.723 3.85539C10.8537 3.97017 11.0356 4.04499 11.2227 4.04499C11.4098 4.04499 11.5918 3.97018 11.7224 3.8554L11.7243 3.85368C11.866 3.72667 11.9637 3.55404 11.9832 3.35378L11.9845 3.34108V3.04249C12.1082 3.04401 12.2271 3.05384 12.3271 3.08421C12.4048 3.10778 12.4501 3.13812 12.4757 3.16812C12.4974 3.19352 12.5214 3.23739 12.5214 3.32832V9.72722C12.5214 11.2086 11.9479 12.64 10.9223 13.6789L10.9202 13.681C9.90637 14.7323 8.52208 15.3199 7.06442 15.3199C5.60759 15.3199 4.23495 14.7328 3.20759 13.6799L3.20655 13.6789C2.18098 12.64 1.60742 11.2086 1.60742 9.72722L1.60749 3.32832L1.60735 3.32222C1.60557 3.24572 1.62573 3.20969 1.64507 3.18733C1.66958 3.15899 1.71532 3.12798 1.79556 3.1024C1.89695 3.07007 2.01816 3.0565 2.14438 3.05082V3.35366L2.14923 3.37851C2.1846 3.55978 2.27424 3.7257 2.41697 3.85369L2.41891 3.85539C2.54956 3.97017 2.7315 4.04499 2.9186 4.04499C3.1057 4.04499 3.28764 3.97018 3.4183 3.8554L3.42022 3.85368C3.56186 3.72667 3.65955 3.55404 3.67909 3.35378L3.68033 3.34108V1.19111L3.67909 1.17841C3.66036 0.986482 3.56827 0.810572 3.41945 0.69009C3.27372 0.54903 3.08373 0.5 2.9186 0.5ZM25.1979 25.112C25.3391 24.9673 25.5382 24.8798 25.7456 24.8798C25.9504 24.8798 26.1515 24.9654 26.3085 25.1149C26.4566 25.2681 26.5323 25.4692 26.5323 25.6861C26.5323 25.903 26.4566 26.104 26.3085 26.2573C26.1515 26.4068 25.9504 26.4923 25.7456 26.4923C25.5382 26.4923 25.3391 26.4049 25.1979 26.2602C25.0426 26.101 24.9589 25.8964 24.9589 25.6861C24.9589 25.4758 25.0426 25.2712 25.1979 25.112Z" fill="#373737"/>
</svg>
