<svg width="24" height="24" viewBox="0 0 24 24" fill="none" xmlns="http://www.w3.org/2000/svg">
<g clip-path="url(#clip0_1860_31243)">
<ellipse cx="12" cy="12" rx="12" ry="12" transform="rotate(-90 12 12)" fill="#6D28D9"/>
<path d="M10.9938 9.40022C10.9938 9.3236 11.0242 9.25012 11.0784 9.19594C11.1326 9.14176 11.206 9.11133 11.2827 9.11133H13.5938C13.6704 9.11133 13.7439 9.14176 13.798 9.19594C13.8522 9.25012 13.8827 9.3236 13.8827 9.40022C13.8827 9.47684 13.8522 9.55032 13.798 9.60449C13.7439 9.65867 13.6704 9.68911 13.5938 9.68911H11.2827C11.206 9.68911 11.1326 9.65867 11.0784 9.60449C11.0242 9.55032 10.9938 9.47684 10.9938 9.40022ZM11.2827 10.2669C11.206 10.2669 11.1326 10.2973 11.0784 10.3515C11.0242 10.4057 10.9938 10.4792 10.9938 10.5558C10.9938 10.6324 11.0242 10.7059 11.0784 10.76C11.1326 10.8142 11.206 10.8447 11.2827 10.8447H13.5938C13.6704 10.8447 13.7439 10.8142 13.798 10.76C13.8522 10.7059 13.8827 10.6324 13.8827 10.5558C13.8827 10.4792 13.8522 10.4057 13.798 10.3515C13.7439 10.2973 13.6704 10.2669 13.5938 10.2669H11.2827ZM10.9938 13.1558C10.9938 13.0792 11.0242 13.0057 11.0784 12.9515C11.1326 12.8973 11.206 12.8669 11.2827 12.8669H13.5938C13.6704 12.8669 13.7439 12.8973 13.798 12.9515C13.8522 13.0057 13.8827 13.0792 13.8827 13.1558C13.8827 13.2324 13.8522 13.3059 13.798 13.36C13.7439 13.4142 13.6704 13.4447 13.5938 13.4447H11.2827C11.206 13.4447 11.1326 13.4142 11.0784 13.36C11.0242 13.3059 10.9938 13.2324 10.9938 13.1558ZM11.2827 14.0224C11.206 14.0224 11.1326 14.0529 11.0784 14.1071C11.0242 14.1612 10.9938 14.2347 10.9938 14.3113C10.9938 14.3879 11.0242 14.4614 11.0784 14.5156C11.1326 14.5698 11.206 14.6002 11.2827 14.6002H13.5938C13.6704 14.6002 13.7439 14.5698 13.798 14.5156C13.8522 14.4614 13.8827 14.3879 13.8827 14.3113C13.8827 14.2347 13.8522 14.1612 13.798 14.1071C13.7439 14.0529 13.6704 14.0224 13.5938 14.0224H11.2827Z" fill="white"/>
<path fill-rule="evenodd" clip-rule="evenodd" d="M8.1048 12.867C8.1048 12.7904 8.13523 12.7169 8.18941 12.6627C8.24359 12.6086 8.31707 12.5781 8.39369 12.5781H9.83813C9.91475 12.5781 9.98823 12.6086 10.0424 12.6627C10.0966 12.7169 10.127 12.7904 10.127 12.867V14.3115C10.127 14.3881 10.0966 14.4616 10.0424 14.5157C9.98823 14.5699 9.91475 14.6003 9.83813 14.6003H8.39369C8.31707 14.6003 8.24359 14.5699 8.18941 14.5157C8.13523 14.4616 8.1048 14.3881 8.1048 14.3115V12.867ZM8.68258 13.1559V14.0226H9.54924V13.1559H8.68258Z" fill="white"/>
<path d="M10.3311 9.60482C10.3838 9.55033 10.4129 9.47736 10.4122 9.40161C10.4116 9.32587 10.3812 9.25341 10.3276 9.19985C10.2741 9.14629 10.2016 9.1159 10.1258 9.11525C10.0501 9.11459 9.97713 9.14371 9.92264 9.19633L8.97133 10.1476L8.5978 9.77411C8.54331 9.72148 8.47034 9.69236 8.39459 9.69302C8.31885 9.69368 8.24639 9.72406 8.19283 9.77763C8.13927 9.83119 8.10888 9.90365 8.10823 9.97939C8.10757 10.0551 8.13669 10.1281 8.18931 10.1826L8.97133 10.9646L10.3311 9.60482Z" fill="white"/>
<path fill-rule="evenodd" clip-rule="evenodd" d="M8.10477 6.80078C7.7983 6.80078 7.50438 6.92253 7.28767 7.13924C7.07096 7.35594 6.94922 7.64986 6.94922 7.95634V16.0452C6.94922 16.3517 7.07096 16.6456 7.28767 16.8623C7.50438 17.079 7.7983 17.2008 8.10477 17.2008H13.8826C14.189 17.2008 14.4829 17.079 14.6997 16.8623C14.9164 16.6456 15.0381 16.3517 15.0381 16.0452V7.95634C15.0381 7.64986 14.9164 7.35594 14.6997 7.13924C14.4829 6.92253 14.189 6.80078 13.8826 6.80078H8.10477ZM7.527 7.95634C7.527 7.8031 7.58787 7.65614 7.69622 7.54779C7.80458 7.43943 7.95154 7.37856 8.10477 7.37856H13.8826C14.0358 7.37856 14.1827 7.43943 14.2911 7.54779C14.3995 7.65614 14.4603 7.8031 14.4603 7.95634V16.0452C14.4603 16.1985 14.3995 16.3454 14.2911 16.4538C14.1827 16.5621 14.0358 16.623 13.8826 16.623H8.10477C7.95154 16.623 7.80458 16.5621 7.69622 16.4538C7.58787 16.3454 7.527 16.1985 7.527 16.0452V7.95634ZM15.6159 9.68967C15.6159 9.45982 15.7072 9.23938 15.8697 9.07684C16.0323 8.91431 16.2527 8.823 16.4826 8.823C16.7124 8.823 16.9328 8.91431 17.0954 9.07684C17.2579 9.23938 17.3492 9.45982 17.3492 9.68967V15.555L16.4826 16.855L15.6159 15.555V9.68967ZM16.4826 9.40078C16.4059 9.40078 16.3325 9.43122 16.2783 9.48539C16.2241 9.53957 16.1937 9.61305 16.1937 9.68967V10.2674H16.7714V9.68967C16.7714 9.61305 16.741 9.53957 16.6868 9.48539C16.6326 9.43122 16.5592 9.40078 16.4826 9.40078ZM16.4826 15.8132L16.1937 15.3799V10.8452H16.7714V15.3799L16.4826 15.8132Z" fill="white"/>
</g>
<defs>
<clipPath id="clip0_1860_31243">
<rect width="24" height="24" fill="white"/>
</clipPath>
</defs>
</svg>
