<svg width="24" height="29" viewBox="0 0 24 29" fill="none" xmlns="http://www.w3.org/2000/svg">
<path d="M8.51363 9.91949C8.07894 9.91949 7.72973 10.2687 7.72973 10.7034C7.72973 11.1381 8.07894 11.4873 8.51363 11.4873H12.7492C13.1839 11.4873 13.5331 11.1381 13.5331 10.7034C13.5331 10.2687 13.1839 9.91949 12.7492 9.91949H8.51363Z" fill="#373737"/>
<path d="M8.51363 14.3093C8.07894 14.3093 7.72973 14.6585 7.72973 15.0932C7.72973 15.5279 8.07894 15.8771 8.51363 15.8771H18.6814C19.1161 15.8771 19.4653 15.5279 19.4653 15.0932C19.4653 14.6585 19.1161 14.3093 18.6814 14.3093H8.51363Z" fill="#373737"/>
<path d="M8.51363 18.6992C8.07894 18.6992 7.72973 19.0484 7.72973 19.483C7.72973 19.9177 8.07894 20.2669 8.51363 20.2669H18.6814C19.1161 20.2669 19.4653 19.9177 19.4653 19.483C19.4653 19.0484 19.1161 18.6992 18.6814 18.6992H8.51363Z" fill="#373737"/>
<path fill-rule="evenodd" clip-rule="evenodd" d="M6.0696 0.25C4.66195 0.25 3.47638 1.38243 3.47638 2.80169V3.39407H2.58147C1.16299 3.39407 0.0357056 4.56696 0.0357056 5.97542V26.1983C0.0357056 27.611 1.16713 28.75 2.58147 28.75H17.7205C19.1314 28.75 20.2899 27.6143 20.2899 26.1983V25.25H20.8882C22.3009 25.25 23.434 24.1245 23.434 22.7102V5.70254C23.434 5.51534 23.3763 5.31925 23.2296 5.1634L18.7559 0.487933C18.6043 0.327743 18.4005 0.25 18.195 0.25H6.0696ZM5.04418 2.80169C5.04418 2.26225 5.50867 1.8178 6.0696 1.8178H17.4171V5.70847C17.4171 6.13224 17.7497 6.50424 18.195 6.50424H21.8662V22.7102C21.8662 23.2586 21.4399 23.6822 20.8882 23.6822H6.0696C5.50625 23.6822 5.04418 23.2414 5.04418 22.7102V2.80169ZM18.9849 4.93644V2.98306L20.84 4.93644H18.9849ZM1.6035 5.97542C1.6035 5.41597 2.04061 4.96186 2.58147 4.96186H3.47638V22.7102C3.47638 24.1311 4.66366 25.25 6.0696 25.25H18.7221V26.1983C18.7221 26.7437 18.2752 27.1822 17.7205 27.1822H2.58147C2.03376 27.1822 1.6035 26.7448 1.6035 26.1983V5.97542Z" fill="#373737"/>
</svg>
