<svg width="24" height="24" viewBox="0 0 24 24" fill="none" xmlns="http://www.w3.org/2000/svg">
<ellipse cx="12" cy="12" rx="12" ry="12" transform="rotate(-90 12 12)" fill="#26C6DA"/>
<path fill-rule="evenodd" clip-rule="evenodd" d="M6.96259 9.45836C7.88065 7.62224 9.76769 6.40039 11.9533 6.40039C15.0577 6.40039 17.5533 8.89599 17.5533 12.0004V12.4671C17.5533 12.4809 17.5527 12.4948 17.5515 12.5085C17.2965 15.3641 14.8535 17.6004 11.9533 17.6004C9.04785 17.6004 6.65632 15.3588 6.40184 12.5085C6.37892 12.2518 6.56845 12.0252 6.82516 12.0023C7.08187 11.9793 7.30856 12.1689 7.33148 12.4256C7.54366 14.802 9.5388 16.6671 11.9533 16.6671C14.3663 16.6671 16.3986 14.8073 16.62 12.4458V12.0004C16.62 9.41145 14.5422 7.33372 11.9533 7.33372C10.1256 7.33372 8.55933 8.35187 7.79739 9.87576C7.68213 10.1063 7.40181 10.1997 7.17129 10.0845C6.94077 9.9692 6.84733 9.68888 6.96259 9.45836Z" fill="white"/>
<path fill-rule="evenodd" clip-rule="evenodd" d="M7.28666 6.40039C7.54439 6.40039 7.75333 6.60932 7.75333 6.86706V9.20039H10.0867C10.3444 9.20039 10.5533 9.40933 10.5533 9.66706C10.5533 9.92479 10.3444 10.1337 10.0867 10.1337H7.28666C7.02892 10.1337 6.81999 9.92479 6.81999 9.66706V6.86706C6.81999 6.60932 7.02892 6.40039 7.28666 6.40039Z" fill="white"/>
<path fill-rule="evenodd" clip-rule="evenodd" d="M11.9533 8.73372C12.2111 8.73372 12.42 8.94266 12.42 9.20039V11.8071L13.6833 13.0704C13.8655 13.2526 13.8655 13.5481 13.6833 13.7304C13.5011 13.9126 13.2056 13.9126 13.0233 13.7304L11.6233 12.3304C11.5358 12.2429 11.4867 12.1242 11.4867 12.0004V9.20039C11.4867 8.94266 11.6956 8.73372 11.9533 8.73372Z" fill="white"/>
</svg>
