<svg width="29" height="29" viewBox="0 0 29 29" fill="none" xmlns="http://www.w3.org/2000/svg">
<path d="M14.3571 26.3462C7.81481 26.3462 2.51096 21.0423 2.51096 14.5C2.51096 14.2006 2.52173 13.9034 2.54327 13.6094C2.59389 12.9492 2.09635 12.3462 1.43296 12.3462C0.909578 12.3462 0.459424 12.7274 0.413117 13.2497C0.375424 13.66 0.357117 14.0789 0.357117 14.5C0.357117 22.2323 6.62481 28.5 14.3571 28.5C22.0894 28.5 28.3571 22.2323 28.3571 14.5C28.3571 6.7677 22.0894 0.500012 14.3571 0.500012C10.7434 0.495316 7.26882 1.89287 4.66481 4.39847V2.1154C4.66481 1.82978 4.55135 1.55586 4.34939 1.3539C4.14742 1.15193 3.8735 1.03847 3.58789 1.03847C3.30227 1.03847 3.02835 1.15193 2.82639 1.3539C2.62442 1.55586 2.51096 1.82978 2.51096 2.1154V6.96155C2.51096 7.24717 2.62442 7.52108 2.82639 7.72305C3.02835 7.92501 3.30227 8.03847 3.58789 8.03847H8.9725C9.25812 8.03847 9.53204 7.92501 9.734 7.72305C9.93596 7.52108 10.0494 7.24717 10.0494 6.96155C10.0494 6.67593 9.93596 6.40201 9.734 6.20005C9.53204 5.99809 9.25812 5.88462 8.9725 5.88462H6.22635C8.34789 3.88155 11.2093 2.65386 14.3571 2.65386C20.8994 2.65386 26.2033 7.9577 26.2033 14.5C26.2033 21.0423 20.8994 26.3462 14.3571 26.3462ZM15.434 6.96155C15.434 6.67593 15.3206 6.40201 15.1186 6.20005C14.9167 5.99809 14.6427 5.88462 14.3571 5.88462C14.0715 5.88462 13.7976 5.99809 13.5956 6.20005C13.3937 6.40201 13.2802 6.67593 13.2802 6.96155V14.5C13.2802 14.7856 13.3937 15.0595 13.5956 15.2615C13.7976 15.4635 14.0715 15.5769 14.3571 15.5769H18.6648C18.9504 15.5769 19.2243 15.4635 19.4263 15.2615C19.6283 15.0595 19.7417 14.7856 19.7417 14.5C19.7417 14.2144 19.6283 13.9405 19.4263 13.7385C19.2243 13.5365 18.9504 13.4231 18.6648 13.4231H15.434V6.96155Z" fill="#373737"/>
</svg>
