<svg width="60" height="60" viewBox="0 0 60 60" fill="none" xmlns="http://www.w3.org/2000/svg">
<g clip-path="url(#clip0_1296_8729)">
<ellipse cx="30" cy="30" rx="30" ry="30" transform="rotate(-90 30 30)" fill="#334155"/>
<path d="M31.229 26.5683H28.7716C28.0555 26.5683 27.4735 27.1222 27.4735 27.8025V28.4541H25.3441C24.4977 28.4541 23.8091 29.1089 23.8091 29.9137V35.1201C23.8091 35.9249 24.4977 36.5797 25.3441 36.5797H34.6572C35.5036 36.5797 36.1923 35.9249 36.1923 35.1201V29.9137C36.1923 29.1089 35.5036 28.4541 34.6572 28.4541H32.5271V27.8025C32.5271 27.1222 31.9452 26.5683 31.229 26.5683ZM28.2591 27.8025C28.2591 27.5336 28.4888 27.3151 28.7716 27.3151H31.229C31.5118 27.3151 31.7416 27.5336 31.7416 27.8025V28.4541H28.2591V27.8025ZM34.6565 35.8334H25.3434C24.9297 35.8334 24.5939 35.5135 24.5939 35.1207V31.6365C25.2459 32.4021 26.2403 32.8907 27.3374 32.8907H28.6374V33.5728C28.6374 33.7788 28.8135 33.9463 29.0302 33.9463H30.9705C31.1871 33.9463 31.3632 33.7788 31.3632 33.5728V32.8907H32.6633C33.7604 32.8907 34.7554 32.4015 35.4067 31.6365V35.1207C35.4067 35.5135 35.0703 35.8334 34.6565 35.8334ZM29.423 33.1994V31.8351H30.5777V33.1994H29.423ZM35.3936 29.7836C35.2601 31.1106 34.07 32.1438 32.6633 32.1438H31.3632V31.4616C31.3632 31.2556 31.1871 31.0882 30.9705 31.0882H29.0302C28.8135 31.0882 28.6374 31.2556 28.6374 31.4616V32.1438H27.3374C25.9313 32.1438 24.7406 31.1106 24.607 29.7836C24.6718 29.4525 24.9769 29.201 25.3434 29.201H34.6565C35.0231 29.201 35.3288 29.4525 35.3936 29.7836ZM30.0003 18.1303C31.1983 18.1303 32.1723 17.2035 32.1723 16.0651C32.1723 14.9268 31.1983 14 30.0003 14C28.8024 14 27.8283 14.9268 27.8283 16.0651C27.8283 17.2035 28.8024 18.1303 30.0003 18.1303ZM30.0003 14.7469C30.7649 14.7469 31.3868 15.3382 31.3868 16.0651C31.3868 16.7921 30.7649 17.3834 30.0003 17.3834C29.2357 17.3834 28.6139 16.7921 28.6139 16.0651C28.6139 15.3382 29.2357 14.7469 30.0003 14.7469ZM19.0363 38.0734C20.2342 38.0734 21.2083 37.1467 21.2083 36.0083C21.2083 34.8699 20.2336 33.9432 19.0363 33.9432C18.6717 33.9432 18.328 34.0297 18.0262 34.1809C17.8227 33.3301 17.7173 32.4556 17.7173 31.5749C17.7173 26.2956 21.3994 21.7465 26.6337 20.3398C26.2108 20.9461 25.964 21.6724 25.964 22.4529V22.6315C25.964 23.2483 26.4916 23.75 27.1403 23.75H32.859C33.5077 23.75 34.0353 23.2483 34.0353 22.6315V22.4529C34.0353 21.6724 33.7885 20.9461 33.3657 20.3398C38.6006 21.7465 42.2821 26.2956 42.2821 31.5749C42.2821 32.4562 42.1773 33.3301 41.9737 34.1809C41.672 34.0297 41.3283 33.9432 40.9637 33.9432C39.7658 33.9432 38.7917 34.8699 38.7917 36.0083C38.7917 37.1467 39.7664 38.0734 40.9637 38.0734C42.1616 38.0734 43.1357 37.1467 43.1357 36.0083C43.1357 35.5154 42.953 35.0622 42.6486 34.7068C42.9269 33.6886 43.0676 32.6361 43.0676 31.5743C43.0676 28.6353 41.9685 25.7834 39.9726 23.544C38.0212 21.355 35.3269 19.8705 32.3772 19.3546C31.7095 18.8902 30.888 18.6151 29.999 18.6151C29.1101 18.6151 28.2885 18.8902 27.6208 19.3546C24.6712 19.8705 21.9768 21.3556 20.0254 23.544C18.0295 25.7828 16.9304 28.6346 16.9304 31.5743C16.9304 32.6361 17.0712 33.6886 17.3494 34.7068C17.045 35.0622 16.8624 35.5154 16.8624 36.0077C16.8637 37.1467 17.8384 38.0734 19.0363 38.0734ZM40.9643 37.3266C40.1998 37.3266 39.5779 36.7353 39.5779 36.0083C39.5779 35.2813 40.1998 34.69 40.9643 34.69C41.7289 34.69 42.3508 35.2813 42.3508 36.0083C42.3508 36.7353 41.7289 37.3266 40.9643 37.3266ZM33.2505 22.4523V22.6309C33.2505 22.8357 33.075 23.0025 32.8597 23.0025H27.141C26.9256 23.0025 26.7502 22.8357 26.7502 22.6309V22.4523C26.7502 20.7481 28.208 19.362 30.0003 19.362C31.7926 19.362 33.2505 20.7481 33.2505 22.4523ZM20.4228 36.0083C20.4228 36.7353 19.8009 37.3266 19.0363 37.3266C18.2717 37.3266 17.6499 36.7353 17.6499 36.0083C17.6499 35.2813 18.2717 34.69 19.0363 34.69C19.8009 34.69 20.4228 35.2813 20.4228 36.0083ZM40.9643 38.5583C39.2381 38.5583 37.7627 39.594 37.1873 41.0461C35.0866 42.49 32.6044 43.2531 30.0003 43.2531C27.3963 43.2531 24.914 42.49 22.8134 41.0454C22.238 39.5934 20.7619 38.5577 19.0357 38.5577C16.81 38.5577 15 40.2793 15 42.3948V42.5734C15 43.1902 15.5276 43.6919 16.1763 43.6919H21.895C22.5437 43.6919 23.0713 43.1902 23.0713 42.5734V42.3948C23.0713 42.2971 23.0661 42.2 23.0582 42.1035C25.1359 43.3471 27.5161 44 30.0003 44C32.4846 44 34.8647 43.3471 36.9418 42.1041C36.9339 42.2006 36.9287 42.2971 36.9287 42.3954V42.5741C36.9287 43.1909 37.4563 43.6925 38.105 43.6925H43.8237C44.4724 43.6925 45 43.1909 45 42.5741V42.3954C45.0007 40.2793 43.19 38.5583 40.9643 38.5583ZM22.2864 42.5734C22.2864 42.7782 22.111 42.945 21.8956 42.945H16.177C15.9616 42.945 15.7862 42.7782 15.7862 42.5734V42.3948C15.7862 40.6907 17.244 39.3046 19.0363 39.3046C20.8286 39.3046 22.2864 40.6907 22.2864 42.3948V42.5734ZM44.2151 42.5734C44.2151 42.7782 44.0397 42.945 43.8243 42.945H38.1057C37.8903 42.945 37.7149 42.7782 37.7149 42.5734V42.3948C37.7149 40.6907 39.1727 39.3046 40.965 39.3046C42.7573 39.3046 44.2151 40.6907 44.2151 42.3948V42.5734Z" fill="white"/>
</g>
<defs>
<clipPath id="clip0_1296_8729">
<rect width="60" height="60" fill="white"/>
</clipPath>
</defs>
</svg>
