<svg width="21" height="29" viewBox="0 0 21 29" fill="none" xmlns="http://www.w3.org/2000/svg">
<path d="M7.48648 2.56471H7.5355V2.76194" fill="#373737"/>
<path d="M18.9076 2.60422H15.2997C15.1919 2.29852 15.0056 2.07171 14.7801 1.91393C14.5154 1.72657 14.2017 1.62795 13.8782 1.57865C13.4076 1.49976 12.888 1.50962 12.4566 1.52934C12.3586 1.52934 12.2605 1.52934 12.1723 1.5392C11.9762 1.11517 11.6331 0.779881 11.1919 0.612239C10.3194 0.286816 9.36837 0.691129 8.99582 1.5392C8.88798 1.5392 8.77033 1.52934 8.65269 1.52934C8.53504 1.52934 8.40759 1.51948 8.27033 1.51948C7.94681 1.51948 7.61347 1.52934 7.28994 1.57865C6.96641 1.62795 6.65269 1.72657 6.38798 1.91393C6.16249 2.07171 5.97622 2.29852 5.86837 2.60422H2.32916C1.38798 2.63381 0.642883 3.41285 0.642883 4.3694V26.7447C0.642883 27.7111 1.38798 28.4704 2.32916 28.5H18.9762C19.9076 28.4704 20.6331 27.6914 20.6429 26.7546V4.35953C20.6331 3.38326 19.8586 2.60422 18.9076 2.60422ZM7.5355 2.76194L9.55465 2.762C9.81935 2.75214 10.0546 2.52533 10.0546 2.23935C10.0546 1.95338 10.2899 1.68712 10.5939 1.68712C10.8978 1.68712 11.1331 1.93365 11.1331 2.23935C11.1331 2.33797 11.1625 2.43658 11.2115 2.51547V2.53519L11.3586 2.66339C11.437 2.72256 11.535 2.75214 11.6331 2.75214H13.7115C14.0056 2.75214 14.2507 2.99867 14.2507 3.30437C14.2507 3.61007 14.0056 3.85661 13.7115 3.85661H7.53504C7.24092 3.8073 7.02524 3.53118 7.07426 3.22548C7.11347 2.98881 7.30021 2.80138 7.5355 2.76194ZM19.3096 26.7447C19.3096 26.9419 19.1527 27.0997 18.9664 27.0997H2.39779C2.20171 27.0997 2.04484 26.9518 2.04484 26.7447V4.3694C2.04484 4.18203 2.20171 4.01439 2.39779 4.01439H5.937C6.21151 4.66523 6.82916 5.07941 7.53504 5.07941H13.7605C14.4468 5.07941 15.0743 4.65537 15.3488 4.01439H18.9664C19.1527 4.01439 19.3096 4.17217 19.3096 4.3694V26.7447Z" fill="#373737"/>
<path d="M18.6126 21.6663C18.5929 21.5283 18.6027 21.331 18.6126 21.0944V21.0352C18.6224 20.7887 18.6322 20.4928 18.6126 20.2167C18.5831 19.9505 18.5243 19.6743 18.3675 19.4574C18.2008 19.2306 17.9459 19.1024 17.6027 19.1221H15.9655V18.4811C15.9655 18.4811 15.9753 18.4121 15.9753 18.3727C15.9753 18.1656 15.9851 17.9881 15.9753 17.8204C15.9753 17.4457 15.9459 17.1301 15.7988 16.8836C15.642 16.6272 15.3675 16.5187 15.0047 16.4596C14.6322 16.4103 14.1322 16.4103 13.4459 16.4398C13.2792 16.4398 13.1322 16.4793 12.9949 16.5483C12.8675 16.6173 12.7694 16.7258 12.691 16.8441C12.5537 17.0907 12.4949 17.3964 12.4851 17.7021C12.4655 17.9979 12.4753 18.3135 12.4949 18.5995C12.5047 18.8065 12.5145 18.9841 12.5047 19.1221C12.2792 19.1221 12.0733 19.1122 11.8773 19.1122H11.7792C11.5831 19.1024 11.3969 19.1024 11.24 19.1024C10.8773 19.1024 10.5635 19.132 10.3282 19.2898C10.0733 19.4475 9.96549 19.7236 9.90667 20.0984C9.85765 20.4731 9.86745 20.9859 9.89687 21.686C9.89687 22.0509 10.0439 22.3073 10.289 22.4651C10.5243 22.613 10.8282 22.6623 11.1224 22.682C11.4165 22.7018 11.7302 22.682 11.9949 22.6623H12.0145C12.2008 22.6525 12.3675 22.6525 12.4949 22.6525V23.4118C12.4851 23.609 12.4851 23.7964 12.4851 23.9541C12.4949 24.3289 12.5243 24.6543 12.6714 24.891C12.8282 25.1474 13.1027 25.2657 13.4655 25.315C13.8282 25.3643 14.3282 25.3545 15.0145 25.3249C15.1812 25.3249 15.338 25.2953 15.4655 25.2263C15.5929 25.1474 15.7008 25.0389 15.7694 24.9206C15.9165 24.6839 15.9655 24.3683 15.9851 24.0725C16.0047 23.7766 15.9851 23.4512 15.9655 23.1751C15.9557 22.9582 15.9459 22.7807 15.9459 22.6525C16.0831 22.6525 16.2498 22.6525 16.4459 22.6623H16.4851C16.7498 22.6722 17.0537 22.6919 17.3282 22.6722C17.6224 22.6623 17.9263 22.6031 18.1616 22.4552C18.3577 22.3369 18.4949 22.1397 18.5439 21.8833H18.6322L18.6126 21.6663ZM17.3773 21.4395C14.5439 21.4395 14.74 21.2127 14.7792 24.1021H13.7008C13.7008 21.2028 13.9165 21.4099 11.1027 21.4395V20.3351C13.9263 20.3351 13.7204 20.5619 13.7008 17.6725H14.7792C14.789 20.5619 14.5929 20.3745 17.3773 20.3351V21.4395Z" fill="#373737"/>
<path d="M9.25946 17.1597C9.25946 17.5542 8.93593 17.8698 8.56338 17.8698H4.40652C4.01436 17.8698 3.71044 17.5542 3.71044 17.1597C3.71044 16.7653 4.01436 16.4596 4.39671 16.4399H8.56338C8.93593 16.4399 9.25946 16.7554 9.25946 17.1597Z" fill="#373737"/>
<path d="M17.583 13.9642C17.5634 14.3587 17.2693 14.6742 16.8869 14.6742H4.40652C4.01436 14.6742 3.71044 14.3587 3.71044 13.9642C3.71044 13.5698 4.01436 13.2542 4.40652 13.2542H16.8869C17.2595 13.2542 17.583 13.5698 17.583 13.9642Z" fill="#373737"/>
<path d="M17.6538 10.6507C17.7028 11.0452 17.4577 11.4199 17.0557 11.4692L4.42827 11.4791C4.03611 11.5284 3.69297 11.2523 3.63415 10.8776C3.57533 10.493 3.84984 10.138 4.21258 10.0689L16.8694 10.0591C17.242 10.0196 17.5851 10.276 17.6538 10.6507Z" fill="#373737"/>
<path d="M17.583 7.5746C17.5634 7.96905 17.2693 8.28461 16.8869 8.28461H4.40652C4.01436 8.28461 3.71044 7.96905 3.71044 7.5746C3.71044 7.18015 4.01436 6.86458 4.40652 6.86458H16.8869C17.2595 6.86458 17.583 7.18015 17.583 7.5746Z" fill="#373737"/>
</svg>
