<svg width="16" height="31" viewBox="0 0 16 31" fill="none" xmlns="http://www.w3.org/2000/svg">
<path d="M8.01494 0.539062H7.52084C4.81082 0.539062 2.61391 2.73597 2.61391 5.44599V17.7789C2.61391 20.4889 4.81082 22.6858 7.52084 22.6858H8.01494C10.725 22.6858 12.9219 20.4889 12.9219 17.7789V5.44599C12.9219 2.73597 10.725 0.539062 8.01494 0.539062Z" fill="white"/>
<path d="M7.02296 24.0801H8.46036V29.9803C8.46036 30.1947 8.13839 30.3687 7.74166 30.3687C7.34494 30.3687 7.02296 30.1947 7.02296 29.9803V24.0801Z" fill="white"/>
<path d="M0.721773 10.3188H2.62812V11.0105H0.721773C0.52952 11.0123 0.375 10.856 0.375 10.6655C0.375 10.4751 0.52952 10.3188 0.721773 10.3188Z" fill="white"/>
<path d="M14.83 11.0123H12.9236V10.3205H14.83C15.0205 10.3205 15.1768 10.4751 15.1768 10.6673C15.1768 10.8578 15.0223 11.0141 14.83 11.0141V11.0123Z" fill="white"/>
<path d="M14.706 10.0151C14.7186 9.7851 14.5497 9.58567 14.318 9.56051C14.0808 9.53536 13.867 9.70784 13.8418 9.94681C13.8382 9.98993 13.831 10.0474 13.8364 18.2855C13.8364 19.7229 13.2776 21.0759 12.2607 22.0928C11.2437 23.1098 9.89256 23.6704 8.45516 23.6704H7.08064C5.64324 23.6704 4.29029 23.1098 3.27333 22.0928C2.25637 21.0759 1.69758 19.7247 1.69758 18.2855C1.70117 10.051 1.69578 9.98814 1.69219 9.94861C1.66703 9.71144 1.45682 9.53715 1.21785 9.56231C0.987863 9.58566 0.817172 9.7869 0.829749 10.0169C0.83514 10.2037 0.83514 13.2133 0.833343 18.2873C0.833343 19.9565 1.48197 21.5269 2.66243 22.7073C3.8429 23.8878 5.41146 24.5382 7.08064 24.5382H8.45516C10.1243 24.5382 11.6947 23.8878 12.8734 22.7073C14.0538 21.5269 14.7025 19.9565 14.7025 18.2873C14.6989 11.7058 14.7025 10.1498 14.706 10.0187V10.0151Z" fill="white"/>
</svg>
