<svg width="25" height="29" viewBox="0 0 25 29" fill="none" xmlns="http://www.w3.org/2000/svg">
<path d="M18.1734 28.5H11.907C11.4091 28.5 11.005 28.1089 11.005 27.627C11.005 27.1451 11.4091 26.754 11.907 26.754H18.1734C18.6713 26.754 19.0754 27.1451 19.0754 27.627C19.0754 28.1089 18.6713 28.5 18.1734 28.5ZM1.47345 24.1575C0.975497 24.1575 0.571411 23.7664 0.571411 23.2845C0.571411 18.971 3.33828 15.2716 7.24444 13.7602C5.09961 12.5098 3.662 10.234 3.662 7.63938C3.662 3.70289 6.97119 0.5 11.039 0.5C15.1069 0.5 18.4161 3.70289 18.4161 7.63938C18.4161 10.193 17.0235 12.4383 14.934 13.7004C17.5861 14.6752 19.7746 16.6622 20.9251 19.2939C21.119 19.7379 20.9046 20.25 20.4452 20.4382C19.9858 20.6258 19.4567 20.4176 19.2628 19.9737C17.8837 16.8181 14.7047 14.7788 11.1644 14.7788C6.31797 14.7788 2.37549 18.5942 2.37549 23.2845C2.37581 23.7664 1.97173 24.1575 1.47345 24.1575ZM11.039 2.24596C7.96646 2.24596 5.46608 4.66547 5.46608 7.63938C5.46608 10.6133 7.96614 13.0328 11.039 13.0328C14.112 13.0328 16.612 10.6133 16.612 7.63938C16.612 4.66547 14.1116 2.24596 11.039 2.24596ZM23.1532 23.8063H11.907C11.4091 23.8063 11.005 23.4152 11.005 22.9333C11.005 22.4514 11.4091 22.0603 11.907 22.0603H23.1532C23.6512 22.0603 24.0553 22.4514 24.0553 22.9333C24.0553 23.4152 23.6512 23.8063 23.1532 23.8063Z" fill="#373737"/>
</svg>
