<svg width="24" height="24" viewBox="0 0 24 24" fill="none" xmlns="http://www.w3.org/2000/svg">
<g clip-path="url(#clip0_1860_31358)">
<ellipse cx="12" cy="12" rx="12" ry="12" transform="rotate(-90 12 12)" fill="#3B82F6"/>
<path d="M12.1619 10.0107H14.3745" stroke="white" stroke-width="0.347155" stroke-linecap="square"/>
<path d="M9.31012 13.0762H12.4569" stroke="white" stroke-width="0.347155" stroke-linecap="square"/>
<path d="M12.1619 10.7402H14.3745" stroke="white" stroke-width="0.347155" stroke-linecap="square"/>
<path d="M9.31012 13.8545H12.4569" stroke="white" stroke-width="0.347155" stroke-linecap="square"/>
<path d="M12.1619 11.4219H14.3745" stroke="white" stroke-width="0.347155" stroke-linecap="square"/>
<path d="M9.31012 14.5352H12.4569" stroke="white" stroke-width="0.347155" stroke-linecap="square"/>
<path d="M12.1619 12.2012H14.3745" stroke="white" stroke-width="0.347155" stroke-linecap="square"/>
<path d="M9.31012 15.3145H12.4569" stroke="white" stroke-width="0.347155" stroke-linecap="square"/>
<path d="M8.17914 8.45417H6.45823C6.3435 8.11362 6.32055 7.37414 7.14659 7.14062C7.55633 7.14062 8.35614 7.35468 8.27748 8.21092V16.822C8.41725 17.2138 8.77555 17.7268 9.31003 17.5439M9.31003 17.5439C9.52763 17.4694 9.77442 17.2796 10.0476 16.9193V16.3355H17.1771C17.2426 16.676 17.2066 17.4058 16.5379 17.6004L9.31003 17.5439Z" stroke="white" stroke-width="0.347155" stroke-linecap="round"/>
<path d="M7.44153 7.18945H9.89998" stroke="white" stroke-width="0.347155" stroke-linecap="round"/>
<path d="M13.5877 7.18945H14.5711C14.8169 7.2381 15.3185 7.48135 15.3578 8.06515V12.2004" stroke="white" stroke-width="0.347155" stroke-linecap="round"/>
<path d="M11.0309 11.0806C11.0309 11.5081 10.6802 11.8573 10.2443 11.8573C9.80844 11.8573 9.45776 11.5081 9.45776 11.0806C9.45776 10.6531 9.80844 10.3039 10.2443 10.3039C10.6802 10.3039 11.0309 10.6531 11.0309 11.0806Z" stroke="white" stroke-width="0.295282"/>
<path d="M10.2443 10.0289V9.79492" stroke="white" stroke-width="0.347155" stroke-linecap="square"/>
<path d="M10.0968 9.76855L10.4902 9.76855" stroke="white" stroke-width="0.347155" stroke-linecap="square"/>
<path d="M10.91 10.4864L11.2042 10.1953" stroke="white" stroke-width="0.347155" stroke-linecap="square"/>
<path d="M11.1327 10.0596L11.4108 10.3348" stroke="white" stroke-width="0.347155" stroke-linecap="square"/>
<path d="M11.1787 11.0801L11.6212 11.0801" stroke="white" stroke-width="0.347155" stroke-linecap="square"/>
<path d="M11.6703 10.9346L11.6703 11.3238" stroke="white" stroke-width="0.347155" stroke-linecap="square"/>
<path d="M10.9589 11.7187L11.2718 12.0283" stroke="white" stroke-width="0.347155" stroke-linecap="round"/>
<path d="M11.4109 11.96L11.1327 12.2352" stroke="white" stroke-width="0.347155" stroke-linecap="square"/>
<path d="M10.3424 12.0144L10.3424 12.3574" stroke="white" stroke-width="0.347155" stroke-linecap="square"/>
<path d="M10.4901 12.3955L10.0967 12.3955" stroke="white" stroke-width="0.347155" stroke-linecap="square"/>
<path d="M9.66042 11.763L9.41302 12.0078" stroke="white" stroke-width="0.347155" stroke-linecap="square"/>
<path d="M9.48999 12.1377L9.21185 11.8625" stroke="white" stroke-width="0.347155" stroke-linecap="square"/>
<path d="M9.41094 11.1787L8.96582 11.1787" stroke="white" stroke-width="0.347155" stroke-linecap="square"/>
<path d="M8.91656 11.3242L8.91656 10.935" stroke="white" stroke-width="0.347155" stroke-linecap="square"/>
<path d="M9.62375 10.4381L9.3468 10.1641" stroke="white" stroke-width="0.347155" stroke-linecap="square"/>
<path d="M9.21185 10.2373L9.49 9.9621" stroke="white" stroke-width="0.347155" stroke-linecap="square"/>
<path d="M16.1185 14.2913C16.1185 15.0267 15.5155 15.6259 14.7678 15.6259C14.0201 15.6259 13.4172 15.0267 13.4172 14.2913C13.4172 13.556 14.0201 12.9568 14.7678 12.9568C15.5155 12.9568 16.1185 13.556 16.1185 14.2913Z" stroke="white" stroke-width="0.347155"/>
<path d="M14.7679 13.5615V14.9724" stroke="white" stroke-width="0.347155" stroke-linecap="square"/>
<path d="M14.0303 14.2432H15.5054" stroke="white" stroke-width="0.347155" stroke-linecap="square"/>
<path d="M11.3752 9.0377V8.2593H10.6377V7.52955H11.3752V6.7998H12.1619V7.5782H12.8995V8.2593H12.1619V9.0377H11.3752Z" stroke="white" stroke-width="0.347155" stroke-linecap="square" stroke-linejoin="round"/>
</g>
<defs>
<clipPath id="clip0_1860_31358">
<rect width="24" height="24" fill="white"/>
</clipPath>
</defs>
</svg>
