<svg width="250" height="270" viewBox="0 0 270 369" fill="none" xmlns="http://www.w3.org/2000/svg">
<g clip-path="url(#clip0_644_29004)">
<path d="M68.4255 344.003C70.5399 332.306 74.4186 314.097 76.3011 298.123C72.0251 297.352 74.253 240.141 69.9581 239.478C57.83 237.605 51.8039 244.72 39.6191 243.529C39.0183 250.253 36.0242 275.778 30.9015 304.188C25.6132 333.539 21.0297 356.863 14.4312 391.008C9.63484 415.833 -3.5953 470.22 0.92196 475.48C5.43449 480.74 15.188 490.428 18.887 491.407C22.5859 492.386 31.8286 500.926 34.5815 500.38C37.3344 499.834 44.089 503.401 45.6074 502.53C47.1258 501.66 48.9327 499.594 43.6586 494.771C38.3845 489.949 27.0228 481.131 27.6046 478.346C28.1864 475.56 30.8542 461.652 32.4104 461.172C33.9666 460.692 41.2604 482.317 45.6452 482.077C50.0301 481.837 49.7226 480.816 48.4691 476.713C47.892 474.817 47.8164 450.496 46.2791 447.042C44.7418 443.588 36.5871 433.806 38.0912 428.612C39.5954 423.417 64.7597 364.264 68.4208 344.003H68.4255Z" fill="#E5A185"/>
<path d="M149.339 120.71C136.767 120.54 127.605 126.478 127.439 134.919L122.822 173.252C122.657 181.694 135.357 182.955 147.93 183.124C160.503 183.293 170.795 181.863 170.961 173.422L171.06 137.145C171.226 128.704 161.912 120.879 149.339 120.705V120.71Z" fill="#D78C74"/>
<path opacity="0.36" d="M69.9582 239.476C57.8301 237.603 51.804 244.718 39.6192 243.527C39.3164 246.953 38.3846 255.257 36.871 266.338C36.871 266.338 54.0271 264.743 58.5586 280.679C62.1913 293.459 59.9965 351.901 58.9843 374.552C63.4306 362.305 67.1721 350.904 68.4161 344.006C70.5305 332.309 74.4092 314.1 76.2918 298.126C72.0158 297.354 74.2437 240.144 69.9487 239.481L69.9582 239.476Z" fill="#D78C74"/>
<path d="M217.826 254.94C231.321 252.79 246.585 247.097 260.184 245.704C244.291 173.569 197.027 171.424 179.862 167.1L192.07 223.722C195.656 230.742 200.968 242.801 206.086 256.804C210.016 256.286 213.923 255.562 217.83 254.936L217.826 254.94Z" fill="#FFDEC7"/>
<path d="M188.282 201.425V169.754C162.484 162.165 127.226 162.236 102.246 172.625V201.425H188.282Z" fill="#D78C74"/>
<path d="M222.453 214.875C222.453 210.137 223.29 178.26 193.06 170.539C192.932 170.506 192.804 170.473 192.677 170.44C192.487 170.393 192.298 170.346 192.104 170.303C191.698 170.209 191.286 170.115 190.865 170.026C190.78 170.002 190.676 169.974 190.572 169.941C188.424 169.334 186.215 168.737 183.931 168.144C183.931 168.153 183.931 168.158 183.931 168.167C180.634 167.301 177.214 166.407 175.96 166.078C174.248 176.222 156.33 186.786 143.446 186.48C128.602 186.127 119.483 173.959 118.026 167.664C68.3124 172.792 47.8924 195.081 34.1041 245.699C39.2931 247.162 56.856 252.258 68.2461 255.185C67.9529 263.776 63.3457 334.297 60.6685 434.631C60.6685 434.631 84.8394 441.128 134.908 441.994C186.963 442.893 220.272 431.553 220.272 431.553C221.124 370.913 222.325 265.55 222.458 214.866L222.453 214.875Z" fill="#FFDEC7"/>
<path d="M158.535 122.344C158.535 122.344 158.535 122.364 158.545 122.389C158.545 122.359 158.535 122.344 158.535 122.344Z" fill="#6C332E"/>
<path d="M88.1686 94.5122C82.7668 96.399 80.4774 104.346 83.0601 112.26C85.638 120.179 92.1088 125.068 97.5106 123.181C102.912 121.294 105.202 113.347 102.619 105.433C100.041 97.5141 93.5704 92.6255 88.1686 94.5122Z" fill="#D68B74"/>
<path d="M119.856 20.337C119.856 20.337 119.846 20.2471 119.823 20.0957C119.842 20.2518 119.856 20.337 119.856 20.337Z" fill="#381911"/>
<path d="M188.188 101.777C187.866 82.401 184.536 57.9483 180.284 43.5975C176.845 24.8944 123.456 17.0697 108.291 43.1411C103.533 55.1863 95.8465 77.6488 93.576 99.8478C93.5713 99.6126 93.576 99.4667 93.576 99.4667C93.576 99.4667 80.2513 158.662 133.02 161.297C185.79 163.932 191.111 136.172 188.193 101.772L188.188 101.777Z" fill="url(#paint0_linear_644_29004)"/>
<g opacity="0.49">
<path d="M130.525 117.849C136.081 107.92 133.189 95.7758 124.065 90.7245C114.941 85.6731 103.041 89.6274 97.4854 99.5567C91.9296 109.486 94.8218 121.63 103.945 126.681C113.069 131.733 124.969 127.779 130.525 117.849Z" fill="#E4A084"/>
<path d="M130.417 117.787C135.939 107.919 133.067 95.8508 124.003 90.8323C114.938 85.8138 103.114 89.745 97.5927 99.613C92.0712 109.481 94.9431 121.549 104.007 126.567C113.072 131.586 124.896 127.655 130.417 117.787Z" fill="#E49F83"/>
<path d="M130.315 117.725C135.801 107.92 132.946 95.9297 123.939 90.9428C114.932 85.9559 103.183 89.8612 97.6969 99.6656C92.2109 109.47 95.0655 121.461 104.073 126.448C113.08 131.434 124.829 127.529 130.315 117.725Z" fill="#E49E82"/>
<path d="M130.211 117.671C135.661 107.93 132.824 96.0165 123.874 91.0612C114.924 86.1058 103.25 89.9852 97.7995 99.726C92.3491 109.467 95.1862 121.38 104.136 126.336C113.086 131.291 124.76 127.412 130.211 117.671Z" fill="#E39D82"/>
<path d="M130.104 117.614C135.52 107.935 132.703 96.0973 123.812 91.1748C114.922 86.2524 103.324 90.1087 97.9075 99.7882C92.4914 109.468 95.3082 121.305 104.199 126.227C113.09 131.15 124.688 127.293 130.104 117.614Z" fill="#E39C81"/>
<path d="M130.005 117.554C135.385 107.938 132.586 96.1782 123.752 91.2873C114.918 86.3965 103.395 90.2269 98.0149 99.8428C92.6344 109.459 95.4337 121.219 104.267 126.11C113.101 131 124.624 127.17 130.005 117.554Z" fill="#E39B80"/>
<path d="M129.897 117.498C135.242 107.946 132.46 96.263 123.683 91.4037C114.906 86.5444 103.458 90.3489 98.1134 99.9012C92.7685 109.454 95.5504 121.136 104.327 125.996C113.104 130.855 124.552 127.051 129.897 117.498Z" fill="#E39A7F"/>
<path d="M129.79 117.439C135.1 107.948 132.339 96.3418 123.621 91.5154C114.904 86.689 103.532 90.4704 98.2216 99.9615C92.911 109.452 95.6726 121.059 104.39 125.885C113.107 130.712 124.479 126.93 129.79 117.439Z" fill="#E2997F"/>
<path d="M129.691 117.382C134.966 107.954 132.222 96.4247 123.562 91.6299C114.902 86.8351 103.605 90.5905 98.3297 100.018C93.0546 109.445 95.7988 120.975 104.459 125.77C113.119 130.564 124.416 126.809 129.691 117.382Z" fill="#E2987E"/>
<path d="M129.583 117.326C134.823 107.962 132.096 96.5095 123.493 91.7462C114.89 86.983 103.668 90.7126 98.4284 100.076C93.1889 109.44 95.9157 120.893 104.519 125.656C113.122 130.419 124.344 126.689 129.583 117.326Z" fill="#E2977D"/>
<path d="M129.479 117.268C134.684 107.965 131.976 96.588 123.43 91.8564C114.884 87.1247 103.736 90.8302 98.5308 100.133C93.3256 109.435 96.034 120.812 104.58 125.544C113.126 130.276 124.274 126.57 129.479 117.268Z" fill="#E2967C"/>
<path d="M129.371 117.211C134.541 107.972 131.852 96.6731 123.365 91.9743C114.878 87.2756 103.808 90.9562 98.6381 100.195C93.4685 109.434 96.1576 120.733 104.644 125.432C113.131 130.13 124.202 126.45 129.371 117.211Z" fill="#E2957C"/>
<path d="M129.268 117.151C134.402 107.976 131.731 96.754 123.301 92.0868C114.871 87.4197 103.876 91.0743 98.7416 100.25C93.6075 109.425 96.2792 120.647 104.709 125.314C113.139 129.981 124.134 126.326 129.268 117.151Z" fill="#E1947B"/>
<path d="M129.171 117.093C134.27 107.979 131.617 96.8325 123.244 92.1969C114.872 87.5614 103.95 91.1919 98.8505 100.306C93.7507 109.42 96.4039 120.566 104.777 125.202C113.149 129.838 124.071 126.207 129.171 117.093Z" fill="#E1937A"/>
<path d="M129.058 117.029C134.122 107.978 131.488 96.9098 123.175 92.3071C114.862 87.7044 104.017 91.3101 98.9531 100.361C93.8889 109.411 96.5228 120.479 104.836 125.082C113.149 129.685 123.994 126.079 129.058 117.029Z" fill="#E19279"/>
<path d="M128.96 116.978C133.988 107.991 131.372 97.0005 123.115 92.4294C114.859 87.8583 104.09 91.438 99.0611 100.425C94.0325 109.412 96.6491 120.403 104.905 124.974C113.162 129.545 123.931 125.965 128.96 116.978Z" fill="#E19178"/>
<path d="M128.851 116.92C133.846 107.995 131.248 97.079 123.049 92.5395C114.849 88 104.154 91.5556 99.1597 100.481C94.1654 109.407 96.7634 120.323 104.963 124.862C113.162 129.402 123.857 125.846 128.851 116.92Z" fill="#E19078"/>
<path d="M128.752 116.864C133.711 108.002 131.13 97.1638 122.988 92.6559C114.846 88.1479 104.226 91.6777 99.267 100.54C94.3083 109.402 96.8889 120.24 105.031 124.748C113.173 129.256 123.793 125.726 128.752 116.864Z" fill="#E08F77"/>
<path d="M128.641 116.798C133.564 108 131.002 97.2392 122.92 92.7641C114.837 88.289 104.294 91.7939 99.3704 100.592C94.4473 109.391 97.0087 120.151 105.091 124.626C113.174 129.101 123.718 125.597 128.641 116.798Z" fill="#E08E76"/>
<path d="M128.537 116.748C133.426 108.011 130.883 97.3255 122.858 92.882C114.832 88.4385 104.363 91.9193 99.4737 100.656C94.5849 109.394 97.1278 120.079 105.154 124.522C113.179 128.966 123.648 125.485 128.537 116.748Z" fill="#E08D75"/>
<path d="M128.433 116.688C133.287 108.014 130.761 97.4064 122.792 92.9945C114.824 88.5826 104.43 92.0374 99.5763 100.711C94.723 109.385 97.2485 119.993 105.217 124.404C113.186 128.816 123.58 125.362 128.433 116.688Z" fill="#E08C75"/>
<path d="M128.327 116.629C133.144 108.019 130.638 97.4896 122.729 93.1105C114.819 88.7315 104.502 92.1614 99.6845 100.771C94.8668 109.382 97.373 119.911 105.282 124.29C113.192 128.669 123.509 125.239 128.327 116.629Z" fill="#DF8B74"/>
<path d="M128.222 116.568C133.005 108.021 130.516 97.5685 122.664 93.2211C114.811 88.8736 104.569 92.2776 99.7871 100.824C95.005 109.371 97.4938 119.823 105.346 124.171C113.198 128.518 123.44 125.114 128.222 116.568Z" fill="#DF8A73"/>
<path d="M128.119 116.511C132.867 108.026 130.397 97.649 122.601 93.3331C114.806 89.0173 104.638 92.3972 99.8904 100.882C95.1426 109.368 97.6129 119.745 105.408 124.061C113.203 128.376 123.371 124.997 128.119 116.511Z" fill="#DF8972"/>
<path d="M128.012 116.451C132.725 108.029 130.273 97.7302 122.538 93.4472C114.802 89.1643 104.711 92.5192 99.9985 100.941C95.2862 109.362 97.7373 119.661 105.473 123.944C113.209 128.227 123.3 124.872 128.012 116.451Z" fill="#DF8871"/>
<path d="M127.909 116.397C132.586 108.039 130.152 97.817 122.473 93.5656C114.795 89.3142 104.779 92.6433 100.102 101.001C95.4252 109.359 97.8589 119.581 105.538 123.833C113.216 128.084 123.232 124.755 127.909 116.397Z" fill="#DF8771"/>
<path d="M115.221 91.8535C106.324 91.8677 98.5661 99.4242 97.8945 108.731C97.2228 118.038 103.897 125.571 112.794 125.557C121.692 125.543 129.449 117.986 130.121 108.679C130.792 99.3724 124.118 91.8394 115.221 91.8535Z" fill="#DE8670"/>
<path d="M127.702 116.277C132.309 108.044 129.911 97.9744 122.347 93.7862C114.782 89.598 104.915 92.8771 100.309 101.11C95.7017 109.343 98.0995 119.413 105.664 123.601C113.229 127.789 123.096 124.51 127.702 116.277Z" fill="#DE856F"/>
<path d="M127.596 116.218C132.167 108.049 129.788 98.0576 122.283 93.9022C114.778 89.7469 104.988 93.0011 100.417 101.171C95.8455 109.34 98.224 119.331 105.729 123.487C113.234 127.642 123.024 124.388 127.596 116.218Z" fill="#DE846E"/>
<path d="M127.492 116.164C132.028 108.056 129.668 98.14 122.22 94.0163C114.772 89.8925 105.056 93.1226 100.519 101.231C95.9823 109.339 98.3424 119.255 105.791 123.379C113.239 127.503 122.955 124.272 127.492 116.164Z" fill="#DE836E"/>
<path d="M127.387 116.104C131.889 108.06 129.546 98.2209 122.155 94.1287C114.764 90.0366 105.123 93.2407 100.622 101.285C96.1205 109.33 98.4631 119.169 105.854 123.261C113.245 127.353 122.886 124.149 127.387 116.104Z" fill="#DE826D"/>
<path d="M127.281 116.05C131.746 108.069 129.423 98.308 122.091 94.2487C114.759 90.1894 105.196 93.3687 100.73 101.35C96.2641 109.331 98.5875 119.091 105.919 123.151C113.251 127.21 122.815 124.031 127.281 116.05Z" fill="#DD816C"/>
<path d="M127.177 115.99C131.609 108.07 129.304 98.3845 122.029 94.3568C114.754 90.3292 105.265 93.4843 100.833 101.404C96.4017 109.324 98.7066 119.009 105.981 123.037C113.256 127.065 122.746 123.909 127.177 115.99Z" fill="#DD806B"/>
<path d="M127.074 115.932C131.47 108.076 129.182 98.4674 121.965 94.4713C114.747 90.4752 105.333 93.6044 100.937 101.461C96.5408 109.317 98.8282 118.925 106.046 122.921C113.264 126.917 122.678 123.788 127.074 115.932Z" fill="#DD7F6B"/>
<path d="M126.971 115.872C131.331 108.079 129.061 98.5483 121.9 94.5838C114.74 90.6193 105.4 93.7226 101.04 101.515C96.6796 109.308 98.9497 118.839 106.11 122.803C113.271 126.768 122.61 123.665 126.971 115.872Z" fill="#DD7E6A"/>
<path d="M126.862 115.817C131.188 108.086 128.939 98.631 121.837 94.6994C114.736 90.7678 105.472 93.848 101.146 101.579C96.8204 109.311 99.0702 118.765 106.171 122.697C113.273 126.629 122.536 123.548 126.862 115.817Z" fill="#DC7D69"/>
<path d="M126.761 115.763C131.051 108.095 128.819 98.7178 121.775 94.8177C114.73 90.9177 105.542 93.972 101.251 101.64C96.961 109.307 99.1933 118.685 106.237 122.585C113.282 126.485 122.47 123.431 126.761 115.763Z" fill="#DC7C68"/>
<path d="M126.656 115.699C130.911 108.095 128.696 98.7948 121.709 94.9263C114.722 91.0578 105.608 94.0862 101.353 101.69C97.0984 109.295 99.3133 118.595 106.3 122.463C113.288 126.332 122.401 123.304 126.656 115.699Z" fill="#DC7B67"/>
<path d="M126.549 115.646C130.77 108.104 128.575 98.8795 121.647 95.0439C114.719 91.2083 105.682 94.2136 101.461 101.756C97.2408 109.299 99.4354 118.523 106.363 122.359C113.291 126.195 122.328 123.189 126.549 115.646Z" fill="#DC7A67"/>
<path d="M126.446 115.585C130.631 108.105 128.453 98.9584 121.583 95.1544C114.712 91.3504 105.75 94.3298 101.565 101.809C97.3797 109.288 99.5569 118.435 106.428 122.239C113.298 126.043 122.261 123.064 126.446 115.585Z" fill="#DC7966"/>
<path d="M126.342 115.531C130.492 108.115 128.332 99.0452 121.518 95.2727C114.705 91.5003 105.818 94.4538 101.668 101.87C97.5187 109.285 99.6784 118.355 106.492 122.127C113.306 125.9 122.193 122.946 126.342 115.531Z" fill="#DB7965"/>
<path d="M126.236 115.466C130.351 108.112 128.211 99.1182 121.457 95.3786C114.703 91.6391 105.891 94.5695 101.776 101.924C97.661 109.278 99.8005 118.272 106.555 122.011C113.309 125.751 122.12 122.82 126.236 115.466Z" fill="#DB7864"/>
<path d="M126.131 115.412C130.211 108.121 128.089 99.2049 121.392 95.4969C114.695 91.789 105.958 94.6935 101.879 101.984C97.7992 109.275 99.9212 118.191 106.618 121.899C113.316 125.607 122.052 122.703 126.131 115.412Z" fill="#DB7764"/>
<path d="M126.029 115.352C130.073 108.125 127.968 99.2858 121.328 95.6094C114.688 91.9331 106.027 94.8116 101.983 102.039C97.9389 109.266 100.044 118.105 106.684 121.782C113.324 125.458 121.985 122.579 126.029 115.352Z" fill="#DB7663"/>
<path d="M125.925 115.294C129.934 108.128 127.848 99.3643 121.265 95.7195C114.682 92.0748 106.095 94.9293 102.085 102.095C98.0757 109.261 100.162 118.025 106.745 121.67C113.328 125.315 121.915 122.46 125.925 115.294Z" fill="#DB7562"/>
<path d="M125.817 115.234C129.791 108.131 127.725 99.4455 121.201 95.8336C114.677 92.2217 106.167 95.0513 102.193 102.154C98.2187 109.256 100.286 117.942 106.809 121.554C113.333 125.166 121.843 122.336 125.817 115.234Z" fill="#DA7461"/>
<path d="M125.714 115.176C129.652 108.137 127.603 99.5284 121.136 95.9481C114.67 92.3678 106.235 95.1714 102.296 102.21C98.3576 109.249 100.407 117.857 106.874 121.438C113.34 125.018 121.775 122.214 125.714 115.176Z" fill="#DA7360"/>
<path d="M125.61 115.124C129.513 108.148 127.481 99.6171 121.071 96.0684C114.662 92.5196 106.302 95.2974 102.399 102.273C98.4957 109.248 100.528 117.779 106.937 121.328C113.347 124.877 121.707 122.099 125.61 115.124Z" fill="#DA7260"/>
<path d="M125.504 115.061C129.373 108.147 127.361 99.692 121.011 96.1762C114.66 92.6603 106.376 95.415 102.508 102.329C98.639 109.243 100.651 117.698 107.001 121.214C113.351 124.73 121.635 121.975 125.504 115.061Z" fill="#DA715F"/>
<path d="M125.4 115.003C129.233 108.153 127.239 99.7749 120.945 96.2906C114.652 92.8063 106.443 95.5351 102.61 102.385C98.7771 109.236 100.771 117.614 107.065 121.098C113.358 124.582 121.567 121.853 125.4 115.003Z" fill="#D9705E"/>
<path d="M125.297 114.943C129.094 108.156 127.117 99.8557 120.881 96.4031C114.645 92.9504 106.511 95.6532 102.714 102.44C98.9161 109.227 100.893 117.527 107.129 120.98C113.365 124.433 121.499 121.73 125.297 114.943Z" fill="#D96F5D"/>
<path d="M125.189 114.888C128.952 108.163 126.995 99.9385 120.819 96.5187C114.642 93.0989 106.584 95.7787 102.821 102.504C99.0576 109.23 101.014 117.454 107.191 120.874C113.368 124.294 121.426 121.614 125.189 114.888Z" fill="#D96E5D"/>
<path d="M125.086 114.832C128.814 108.171 126.875 100.023 120.755 96.6351C114.635 93.2469 106.653 95.9007 102.925 102.563C99.1974 109.224 101.137 117.372 107.256 120.76C113.376 124.148 121.359 121.494 125.086 114.832Z" fill="#D96D5C"/>
<path d="M124.983 114.773C128.675 108.174 126.753 100.104 120.691 96.7476C114.628 93.391 106.72 96.0189 103.028 102.617C99.3364 109.215 101.258 117.286 107.321 120.642C113.383 123.999 121.291 121.371 124.983 114.773Z" fill="#D96C5B"/>
<path d="M124.879 114.716C128.537 108.179 126.633 100.185 120.628 96.8596C114.622 93.5346 106.789 96.1384 103.131 102.675C99.4731 109.212 101.376 117.207 107.382 120.532C113.388 123.857 121.221 121.253 124.879 114.716Z" fill="#D86B5A"/>
<path d="M124.772 114.652C128.394 108.179 126.51 100.262 120.564 96.9698C114.618 93.6777 106.861 96.2566 103.239 102.73C99.6169 109.203 101.501 117.12 107.447 120.412C113.393 123.704 121.15 121.125 124.772 114.652Z" fill="#D86A5A"/>
<path d="M124.668 114.6C128.255 108.19 126.388 100.351 120.499 97.0901C114.61 93.8295 106.928 96.3825 103.342 102.792C99.755 109.202 101.622 117.042 107.511 120.302C113.4 123.563 121.082 121.01 124.668 114.6Z" fill="#D86959"/>
<path d="M124.565 114.542C128.117 108.193 126.269 100.429 120.437 97.2002C114.605 93.9713 106.997 96.5002 103.445 102.849C99.8926 109.197 101.741 116.961 107.573 120.19C113.405 123.419 121.013 120.89 124.565 114.542Z" fill="#D86858"/>
<path d="M124.458 114.483C127.975 108.198 126.146 100.512 120.373 97.3163C114.6 94.1202 107.07 96.6242 103.553 102.909C100.036 109.194 101.865 116.88 107.638 120.076C113.411 123.272 120.941 120.768 124.458 114.483Z" fill="#D86757"/>
<path d="M124.354 114.427C127.835 108.206 126.024 100.597 120.308 97.4327C114.592 94.2681 107.137 96.7462 103.656 102.968C100.175 109.189 101.986 116.798 107.702 119.962C113.417 123.127 120.873 120.649 124.354 114.427Z" fill="#D76656"/>
<path d="M124.251 114.365C127.697 108.205 125.904 100.672 120.246 97.5389C114.587 94.4059 107.206 96.8599 103.759 103.02C100.312 109.18 102.105 116.714 107.764 119.847C113.422 122.979 120.804 120.525 124.251 114.365Z" fill="#D76556"/>
<path d="M124.148 114.309C127.559 108.213 125.784 100.757 120.182 97.6552C114.581 94.5539 107.274 96.982 103.863 103.078C100.452 109.175 102.227 116.631 107.829 119.733C113.431 122.834 120.737 120.406 124.148 114.309Z" fill="#D76455"/>
<path d="M114.891 96.4434C108.42 96.4528 102.777 101.948 102.29 108.719C101.802 115.49 106.656 120.967 113.126 120.957C119.597 120.948 125.24 115.452 125.727 108.682C126.215 101.911 121.362 96.434 114.891 96.4434Z" fill="#D76354"/>
<path d="M114.881 96.5742C108.476 96.5836 102.895 102.023 102.412 108.723C101.93 115.423 106.731 120.844 113.136 120.834C119.54 120.825 125.122 115.386 125.604 108.685C126.087 101.985 121.286 96.5648 114.881 96.5742Z" fill="#D66253"/>
<path d="M123.833 114.137C127.139 108.229 125.419 101.003 119.99 97.9978C114.562 94.9925 107.482 97.3456 104.176 103.254C100.871 109.162 102.591 116.387 108.019 119.393C113.447 122.398 120.527 120.045 123.833 114.137Z" fill="#D66153"/>
<path d="M123.726 114.076C126.997 108.232 125.296 101.084 119.927 98.1119C114.558 95.1395 107.555 97.4677 104.285 103.312C101.014 109.157 102.715 116.304 108.084 119.277C113.453 122.249 120.456 119.921 123.726 114.076Z" fill="#D66052"/>
<path d="M114.852 96.961C108.651 96.9704 103.244 102.235 102.776 108.724C102.308 115.212 106.957 120.463 113.163 120.454C119.364 120.444 124.771 115.179 125.239 108.691C125.708 102.203 121.058 96.9515 114.852 96.961Z" fill="#D65F51"/>
<path d="M114.842 97.0879C108.707 97.0973 103.362 102.306 102.899 108.724C102.435 115.142 107.037 120.336 113.172 120.327C119.307 120.317 124.652 115.109 125.116 108.691C125.58 102.273 120.977 97.0785 114.842 97.0879Z" fill="#D65E50"/>
<path d="M114.833 97.2129C108.765 97.2223 103.476 102.374 103.022 108.722C102.568 115.069 107.114 120.202 113.183 120.198C119.251 120.188 124.54 115.036 124.994 108.689C125.448 102.342 120.902 97.2082 114.833 97.2176V97.2129Z" fill="#D55D4F"/>
<path d="M114.825 97.3399C108.827 97.3493 103.595 102.445 103.146 108.722C102.697 114.998 107.195 120.075 113.193 120.066C119.191 120.056 124.422 114.961 124.871 108.684C125.321 102.407 120.822 97.3304 114.825 97.3399Z" fill="#D55C4F"/>
<path d="M114.814 97.4668C108.882 97.4762 103.712 102.515 103.263 108.717C102.818 114.923 107.265 119.943 113.196 119.934C119.128 119.925 124.298 114.885 124.747 108.684C125.192 102.478 120.746 97.4574 114.814 97.4668Z" fill="#D55B4E"/>
<path d="M114.805 97.5977C108.94 97.6071 103.826 102.585 103.387 108.721C102.947 114.856 107.341 119.82 113.206 119.811C119.072 119.801 124.185 114.823 124.625 108.688C125.065 102.552 120.67 97.5883 114.805 97.5977Z" fill="#D55A4D"/>
<path d="M114.8 97.7266C109.001 97.736 103.949 102.658 103.514 108.723C103.079 114.788 107.426 119.695 113.22 119.686C119.019 119.676 124.071 114.755 124.506 108.69C124.942 102.625 120.595 97.7172 114.8 97.7266Z" fill="#D5594C"/>
<path d="M114.791 97.8535C109.062 97.8629 104.067 102.728 103.637 108.722C103.206 114.717 107.501 119.568 113.23 119.558C118.958 119.549 123.953 114.684 124.383 108.69C124.814 102.695 120.519 97.8441 114.791 97.8535Z" fill="#D4584C"/>
<path d="M114.782 97.9785C109.12 97.9879 104.181 102.797 103.756 108.72C103.33 114.644 107.573 119.439 113.24 119.429C118.901 119.42 123.84 114.611 124.265 108.687C124.691 102.764 120.448 97.9691 114.782 97.9785Z" fill="#D4574B"/>
<path d="M114.772 98.1094C109.176 98.1188 104.299 102.871 103.878 108.724C103.457 114.577 107.653 119.316 113.249 119.306C118.844 119.297 123.721 114.545 124.142 108.691C124.563 102.838 120.368 98.1 114.772 98.1094Z" fill="#D4564A"/>
<path d="M114.762 98.2363C109.233 98.2458 104.417 102.937 104.001 108.719C103.585 114.502 107.728 119.184 113.258 119.174C118.787 119.165 123.603 114.474 124.019 108.691C124.435 102.909 120.292 98.2269 114.762 98.2363Z" fill="#D45549"/>
<path d="M114.753 98.3594C109.295 98.3688 104.531 103.003 104.12 108.715C103.708 114.428 107.805 119.048 113.263 119.043C118.722 119.034 123.485 114.399 123.896 108.687C124.308 102.975 120.212 98.3547 114.753 98.3594Z" fill="#D35449"/>
<path d="M114.743 98.4883C109.351 98.4977 104.649 103.076 104.243 108.717C103.836 114.359 107.88 118.923 113.272 118.918C118.665 118.909 123.366 114.331 123.773 108.689C124.18 103.048 120.136 98.4836 114.743 98.4883Z" fill="#D35348"/>
<path d="M114.734 98.6211C109.408 98.6305 104.767 103.152 104.365 108.723C103.963 114.294 107.955 118.802 113.282 118.792C118.608 118.783 123.248 114.261 123.65 108.69C124.052 103.119 120.06 98.6117 114.734 98.6211Z" fill="#D35247"/>
</g>
<g opacity="0.49">
<path d="M173.431 128.7C182.649 123.562 185.25 110.747 179.24 100.076C173.23 89.4048 160.885 84.9192 151.666 90.0568C142.447 95.1945 139.846 108.01 145.856 118.681C151.866 129.352 164.212 133.837 173.431 128.7Z" fill="#E4A084"/>
<path d="M173.361 128.574C182.521 123.469 185.105 110.736 179.133 100.133C173.161 89.5298 160.895 85.0725 151.735 90.1772C142.576 95.2818 139.991 108.015 145.963 118.618C151.935 129.221 164.202 133.679 173.361 128.574Z" fill="#E49F83"/>
<path d="M173.292 128.455C182.394 123.383 184.963 110.73 179.03 100.195C173.096 89.66 160.907 85.2321 151.804 90.305C142.702 95.3779 140.133 108.03 146.066 118.565C152 129.1 164.189 133.528 173.292 128.455Z" fill="#E49E82"/>
<path d="M173.222 128.322C182.266 123.282 184.818 110.711 178.922 100.244C173.027 89.7772 160.917 85.3777 151.874 90.4175C142.83 95.4574 140.278 108.028 146.174 118.495C152.069 128.962 164.179 133.361 173.222 128.322Z" fill="#E39D82"/>
<path d="M173.153 128.207C182.139 123.199 184.676 110.709 178.819 100.31C172.962 89.9112 160.93 85.5411 151.943 90.5492C142.957 95.5573 140.42 108.047 146.277 118.446C152.134 128.845 164.167 133.215 173.153 128.207Z" fill="#E39C81"/>
<path d="M173.086 128.089C182.013 123.114 184.532 110.704 178.712 100.371C172.892 90.0381 160.937 85.6945 152.01 90.6696C143.083 95.6446 140.564 108.054 146.384 118.388C152.204 128.721 164.159 133.064 173.086 128.089Z" fill="#E39B80"/>
<path d="M173.016 127.963C181.884 123.021 184.386 110.693 178.605 100.428C172.823 90.1631 160.947 85.8478 152.079 90.7899C143.212 95.732 140.71 108.06 146.491 118.325C152.273 128.59 164.149 132.905 173.016 127.963Z" fill="#E39A7F"/>
<path d="M172.947 127.841C181.758 122.931 184.245 110.684 178.501 100.486C172.758 90.2893 160.96 86.0035 152.149 90.9138C143.338 95.8241 140.851 108.071 146.594 118.268C152.338 128.465 164.136 132.751 172.947 127.841Z" fill="#E2997F"/>
<path d="M172.878 127.719C181.629 122.842 184.099 110.677 178.394 100.547C172.689 90.4183 160.97 86.1608 152.218 91.0381C143.467 95.9153 140.997 108.08 146.702 118.21C152.407 128.339 164.126 132.596 172.878 127.719Z" fill="#E2987E"/>
<path d="M172.808 127.595C181.503 122.749 183.958 110.665 178.291 100.604C172.624 90.5426 160.982 86.3145 152.287 91.16C143.593 96.0055 141.138 108.09 146.805 118.151C152.472 128.212 164.114 132.44 172.808 127.595Z" fill="#E2977D"/>
<path d="M172.741 127.469C181.377 122.657 183.813 110.652 178.183 100.657C172.554 90.6616 160.99 86.46 152.354 91.2725C143.719 96.085 141.282 108.089 146.912 118.085C152.542 128.08 164.106 132.282 172.741 127.469Z" fill="#E2967C"/>
<path d="M172.672 127.351C181.248 122.571 183.668 110.649 178.076 100.722C172.485 90.7944 161 86.6212 152.424 91.4007C143.848 96.1802 141.428 108.102 147.019 118.03C152.611 127.957 164.096 132.13 172.672 127.351Z" fill="#E2957C"/>
<path d="M172.603 127.225C181.122 122.477 183.526 110.635 177.973 100.776C172.42 90.9168 161.012 86.7729 152.493 91.5207C143.974 96.2684 141.57 108.11 147.123 117.969C152.676 127.829 164.083 131.972 172.603 127.225Z" fill="#E1947B"/>
<path d="M172.533 127.108C180.993 122.394 183.38 110.634 177.866 100.843C172.351 91.0515 161.022 86.9361 152.562 91.6508C144.102 96.3655 141.715 108.125 147.23 117.916C152.744 127.708 164.073 131.823 172.533 127.108Z" fill="#E1937A"/>
<path d="M172.464 126.984C180.867 122.301 183.239 110.623 177.763 100.899C172.286 91.1758 161.035 87.0898 152.632 91.7727C144.229 96.4557 141.857 108.134 147.333 117.858C152.809 127.581 164.061 131.667 172.464 126.984Z" fill="#E19279"/>
<path d="M172.397 126.866C180.74 122.216 183.095 110.618 177.655 100.96C172.216 91.3027 161.042 87.2431 152.699 91.8931C144.355 96.543 142.001 108.142 147.44 117.799C152.88 127.457 164.053 131.516 172.397 126.866Z" fill="#E19178"/>
<path d="M172.327 126.74C180.611 122.123 182.949 110.607 177.548 101.017C172.147 91.4277 161.052 87.3965 152.768 92.0134C144.484 96.6303 142.146 108.147 147.547 117.737C152.948 127.326 164.043 131.357 172.327 126.74Z" fill="#E19078"/>
<path d="M172.258 126.618C180.485 122.033 182.807 110.597 177.445 101.075C172.082 91.5539 161.065 87.5522 152.837 92.1373C144.61 96.7225 142.288 108.158 147.651 117.68C153.013 127.201 164.03 131.203 172.258 126.618Z" fill="#E08F77"/>
<path d="M172.188 126.496C180.357 121.944 182.662 110.59 177.337 101.136C172.013 91.6828 161.075 87.7094 152.907 92.2616C144.739 96.8137 142.433 108.168 147.758 117.621C153.082 127.075 164.02 131.048 172.188 126.496Z" fill="#E08E76"/>
<path d="M172.122 126.376C180.233 121.856 182.522 110.581 177.235 101.193C171.947 91.8051 161.086 87.8592 152.975 92.3796C144.863 96.9 142.574 108.175 147.862 117.563C153.149 126.95 164.011 130.896 172.122 126.376Z" fill="#E08D75"/>
<path d="M172.052 126.254C180.104 121.767 182.376 110.574 177.127 101.254C171.878 91.934 161.095 88.0165 153.043 92.5038C144.991 96.9912 142.719 108.184 147.968 117.504C153.217 126.824 164 130.741 172.052 126.254Z" fill="#E08C75"/>
<path d="M171.982 126.128C179.975 121.674 182.23 110.563 177.019 101.311C171.809 92.059 161.105 88.1699 153.112 92.6242C145.12 97.0785 142.864 108.19 148.075 117.441C153.286 126.693 163.99 130.582 171.982 126.128Z" fill="#DF8B74"/>
<path d="M171.913 126.007C179.849 121.585 182.089 110.555 176.916 101.371C171.744 92.1872 161.117 88.3275 153.182 92.75C145.246 97.1726 143.006 108.203 148.179 117.387C153.351 126.57 163.978 130.43 171.913 126.007Z" fill="#DF8A73"/>
<path d="M171.845 125.882C179.721 121.492 181.944 110.544 176.81 101.428C171.675 92.3122 161.128 88.4808 153.252 92.8704C145.375 97.2599 143.152 108.208 148.287 117.324C153.421 126.44 163.968 130.271 171.845 125.882Z" fill="#DF8972"/>
<path d="M171.777 125.765C179.597 121.408 181.804 110.538 176.707 101.488C171.609 92.4383 161.138 88.6345 153.319 92.9923C145.499 97.3501 143.293 108.219 148.39 117.269C153.487 126.319 163.958 130.123 171.777 125.765Z" fill="#DF8871"/>
<path d="M171.707 125.643C179.467 121.319 181.657 110.531 176.598 101.549C171.539 92.5672 161.147 88.7918 153.387 93.1166C145.627 97.4413 143.437 108.229 148.496 117.211C153.555 126.193 163.947 129.968 171.707 125.643Z" fill="#DF8771"/>
<path d="M171.639 125.517C179.34 121.226 181.512 110.52 176.492 101.606C171.471 92.6922 161.158 88.9452 153.457 93.2369C145.756 97.5287 143.584 108.234 148.604 117.148C153.625 126.062 163.938 129.809 171.639 125.517Z" fill="#DE8670"/>
<path d="M171.569 125.395C179.213 121.135 181.37 110.51 176.388 101.664C171.406 92.8185 161.17 89.1008 153.526 93.3608C145.882 97.6208 143.724 108.245 148.707 117.091C153.689 125.937 163.925 129.655 171.569 125.395Z" fill="#DE856F"/>
<path d="M171.5 125.269C179.085 121.042 181.225 110.499 176.281 101.721C171.337 92.9435 161.181 89.2542 153.596 93.4812C146.011 97.7081 143.871 108.251 148.815 117.029C153.759 125.807 163.915 129.496 171.5 125.269Z" fill="#DE846E"/>
<path d="M171.433 125.145C178.961 120.95 181.085 110.486 176.178 101.774C171.271 93.0618 161.191 89.4001 153.663 93.5953C146.135 97.7905 144.011 108.254 148.918 116.966C153.825 125.679 163.905 129.34 171.433 125.145Z" fill="#DE836E"/>
<path d="M171.363 125.033C178.832 120.871 180.939 110.489 176.071 101.845C171.202 93.2005 161.201 89.5671 153.732 93.7293C146.264 97.8915 144.156 108.273 149.025 116.917C153.894 125.562 163.895 129.195 171.363 125.033Z" fill="#DE826D"/>
<path d="M171.294 124.901C178.703 120.772 180.794 110.472 175.963 101.896C171.133 93.3197 161.211 89.7146 153.802 93.8438C146.392 97.973 144.302 108.273 149.132 116.849C153.963 125.425 163.885 129.03 171.294 124.901Z" fill="#DD816C"/>
<path d="M171.225 124.784C178.578 120.687 180.653 110.468 175.861 101.96C171.069 93.4518 161.224 89.8761 153.872 93.9735C146.52 98.071 144.444 108.29 149.236 116.798C154.028 125.306 163.873 128.882 171.225 124.784Z" fill="#DD806B"/>
<path d="M171.158 124.665C178.451 120.6 180.508 110.462 175.753 102.019C170.998 93.5767 161.231 90.0275 153.938 94.0919C146.645 98.1563 144.588 108.295 149.343 116.738C154.098 125.18 163.865 128.729 171.158 124.665Z" fill="#DD7F6B"/>
<path d="M171.088 124.542C178.324 120.51 180.366 110.452 175.65 102.077C170.933 93.7029 161.243 90.1832 154.007 94.2158C146.771 98.2485 144.729 108.306 149.446 116.681C154.162 125.055 163.852 128.575 171.088 124.542Z" fill="#DD7E6A"/>
<path d="M171.02 124.416C178.196 120.417 180.222 110.441 175.543 102.134C170.865 93.8279 161.254 90.3366 154.078 94.3362C146.901 98.3358 144.875 108.312 149.554 116.618C154.232 124.925 163.843 128.416 171.02 124.416Z" fill="#DC7D69"/>
<path d="M170.95 124.294C178.068 120.328 180.076 110.434 175.436 102.195C170.796 93.9568 161.264 90.4938 154.147 94.4604C147.029 98.427 145.021 108.321 149.661 116.56C154.301 124.798 163.833 128.261 170.95 124.294Z" fill="#DC7C68"/>
<path d="M170.881 124.172C177.941 120.237 179.935 110.424 175.333 102.254C170.731 94.0831 161.277 90.6495 154.216 94.5843C147.156 98.5192 145.163 108.332 149.764 116.503C154.366 124.673 163.82 128.107 170.881 124.172Z" fill="#DC7B67"/>
<path d="M170.813 124.05C177.814 120.149 179.789 110.415 175.224 102.311C170.66 94.206 161.284 90.7989 154.282 94.7008C147.281 98.6026 145.306 108.336 149.871 116.44C154.435 124.545 163.812 127.952 170.813 124.05Z" fill="#DC7A67"/>
<path d="M170.744 123.93C177.688 120.06 179.648 110.408 175.121 102.371C170.595 94.3342 161.296 90.9565 154.352 94.8266C147.407 98.6967 145.447 108.349 149.974 116.386C154.5 124.422 163.799 127.8 170.744 123.93Z" fill="#DC7966"/>
<path d="M170.675 123.804C177.56 119.967 179.503 110.397 175.015 102.428C170.527 94.4592 161.307 91.1099 154.422 94.9469C147.537 98.784 145.594 108.354 150.082 116.323C154.57 124.292 163.79 127.641 170.675 123.804Z" fill="#DB7965"/>
<path d="M170.605 123.684C177.431 119.88 179.357 110.391 174.908 102.491C170.458 94.5901 161.317 91.2691 154.491 95.0731C147.665 98.8772 145.739 108.366 150.189 116.266C154.639 124.167 163.78 127.488 170.605 123.684Z" fill="#DB7864"/>
<path d="M170.536 123.562C177.305 119.789 179.216 110.382 174.804 102.549C170.393 94.7164 161.329 91.4248 154.561 95.1971C147.792 98.9693 145.881 108.377 150.292 116.21C154.704 124.042 163.767 127.334 170.536 123.562Z" fill="#DB7764"/>
<path d="M170.469 123.442C177.178 119.703 179.071 110.375 174.697 102.608C170.322 94.8412 161.337 91.5762 154.627 95.3154C147.918 99.0547 146.025 108.382 150.399 116.149C154.774 123.916 163.759 127.181 170.469 123.442Z" fill="#DB7663"/>
<path d="M170.399 123.319C177.051 119.612 178.929 110.365 174.593 102.666C170.257 94.9675 161.349 91.7318 154.696 95.4393C148.043 99.1468 146.166 108.394 150.502 116.092C154.838 123.791 163.746 127.027 170.399 123.319Z" fill="#DB7562"/>
<path d="M170.33 123.19C176.924 119.515 178.784 110.35 174.486 102.719C170.189 95.0886 161.359 91.8813 154.766 95.5558C148.173 99.2302 146.312 108.395 150.61 116.026C154.908 123.657 163.737 126.864 170.33 123.19Z" fill="#DA7461"/>
<path d="M161.076 94.1725C153.318 93.9702 147.69 100.609 148.503 108.998C149.317 117.393 156.27 124.361 164.027 124.563C171.785 124.766 177.414 118.127 176.6 109.737C175.786 101.343 168.833 94.3748 161.076 94.1725Z" fill="#DA7360"/>
<path d="M161.089 94.3092C153.402 94.1069 147.821 100.685 148.63 109.003C149.439 117.322 156.326 124.225 164.017 124.427C171.708 124.629 177.285 118.052 176.476 109.733C175.667 101.414 168.78 94.5116 161.089 94.3092Z" fill="#DA7260"/>
<path d="M170.124 122.825C176.542 119.249 178.353 110.327 174.169 102.898C169.984 95.4686 161.39 92.3456 154.972 95.9223C148.554 99.499 146.743 108.421 150.927 115.85C155.112 123.279 163.706 126.402 170.124 122.825Z" fill="#DA715F"/>
<path d="M170.055 122.705C176.416 119.16 178.211 110.319 174.065 102.958C169.919 95.5969 161.402 92.5032 155.041 96.0482C148.68 99.5931 146.885 108.434 151.031 115.795C155.177 123.156 163.694 126.25 170.055 122.705Z" fill="#D9705E"/>
<path d="M169.986 122.579C176.287 119.067 178.066 110.308 173.958 103.015C169.85 95.7219 161.412 92.6566 155.11 96.1685C148.809 99.6804 147.03 108.44 151.138 115.733C155.246 123.026 163.684 126.091 169.986 122.579Z" fill="#D96F5D"/>
<path d="M169.917 122.453C176.159 118.974 177.921 110.297 173.852 103.072C169.782 95.8469 161.423 92.81 155.181 96.2888C148.938 99.7677 147.177 108.445 151.246 115.67C155.315 122.895 163.675 125.932 169.917 122.453Z" fill="#D96E5D"/>
<path d="M169.85 122.341C176.035 118.894 177.781 110.296 173.748 103.136C169.716 95.9769 161.433 92.9676 155.248 96.4147C149.062 99.8618 147.317 108.46 151.349 115.619C155.381 122.779 163.665 125.788 169.85 122.341Z" fill="#D96D5C"/>
<path d="M169.78 122.217C175.906 118.803 177.634 110.286 173.64 103.195C169.646 96.1039 161.442 93.1229 155.316 96.537C149.19 99.9511 147.462 108.467 151.456 115.559C155.45 122.65 163.654 125.631 169.78 122.217Z" fill="#D96C5B"/>
<path d="M169.71 122.096C175.78 118.714 177.493 110.279 173.537 103.255C169.581 96.2321 161.455 93.2805 155.386 96.6628C149.316 100.045 147.603 108.481 151.559 115.504C155.515 122.527 163.641 125.479 169.71 122.096Z" fill="#D86B5A"/>
<path d="M161.194 95.391C154.061 95.2027 148.882 101.31 149.634 109.027C150.386 116.743 156.776 123.151 163.909 123.34C171.042 123.528 176.222 117.421 175.47 109.704C174.717 101.988 168.327 95.5792 161.194 95.391Z" fill="#D86A5A"/>
<path d="M169.572 121.847C175.523 118.53 177.202 110.259 173.323 103.371C169.444 96.484 161.475 93.5892 155.525 96.9055C149.574 100.222 147.895 108.493 151.774 115.381C155.653 122.268 163.622 125.163 169.572 121.847Z" fill="#D86959"/>
<path d="M169.505 121.726C175.399 118.442 177.062 110.249 173.22 103.428C169.378 96.6063 161.485 93.739 155.592 97.0235C149.698 100.308 148.035 108.501 151.877 115.322C155.719 122.144 163.612 125.011 169.505 121.726Z" fill="#D86858"/>
<path d="M169.435 121.601C175.269 118.349 176.916 110.238 173.112 103.485C169.308 96.7313 161.495 93.8923 155.66 97.1439C149.826 100.395 148.18 108.506 151.984 115.26C155.787 122.013 163.601 124.852 169.435 121.601Z" fill="#D86757"/>
<path d="M169.366 121.486C175.143 118.266 176.774 110.236 173.009 103.551C169.243 96.8653 161.507 94.0558 155.73 97.2756C149.952 100.495 148.321 108.525 152.087 115.211C155.852 121.896 163.588 124.706 169.366 121.486Z" fill="#D76656"/>
<path d="M169.297 121.36C175.015 118.173 176.629 110.225 172.902 103.608C169.175 96.9903 161.518 94.2092 155.8 97.3959C150.082 100.583 148.468 108.531 152.195 115.148C155.922 121.766 163.579 124.547 169.297 121.36Z" fill="#D76556"/>
<path d="M169.228 121.238C174.887 118.084 176.484 110.218 172.795 103.669C169.106 97.1192 161.528 94.3664 155.869 97.5202C150.21 100.674 148.613 108.54 152.302 115.089C155.991 121.639 163.569 124.392 169.228 121.238Z" fill="#D76455"/>
<path d="M169.161 121.118C174.763 117.996 176.343 110.209 172.692 103.725C169.04 97.2415 161.538 94.5162 155.936 97.6382C150.334 100.76 148.753 108.547 152.405 115.031C156.057 121.515 163.559 124.24 169.161 121.118Z" fill="#D76354"/>
<path d="M161.302 96.4766C154.723 96.3025 149.95 101.935 150.641 109.054C151.331 116.172 157.23 122.082 163.809 122.256C170.389 122.43 175.162 116.798 174.471 109.679C173.78 102.56 167.882 96.6507 161.302 96.4766Z" fill="#D66253"/>
<path d="M169.022 120.873C174.508 117.816 176.056 110.192 172.481 103.844C168.906 97.4967 161.561 94.8292 156.075 97.8863C150.589 100.944 149.04 108.568 152.616 114.915C156.191 121.263 163.536 123.931 169.022 120.873Z" fill="#D66153"/>
<path d="M168.952 120.748C174.379 117.723 175.911 110.181 172.374 103.901C168.837 97.6217 161.571 94.9825 156.144 98.0067C150.718 101.031 149.186 108.573 152.723 114.853C156.26 121.133 163.526 123.772 168.952 120.748Z" fill="#D66052"/>
<path d="M161.34 96.8825C154.969 96.7179 150.343 102.166 151.015 109.064C151.686 115.957 157.395 121.684 163.767 121.848C170.138 122.013 174.764 116.564 174.093 109.666C173.421 102.773 167.712 97.0472 161.34 96.8825Z" fill="#D65F51"/>
<path d="M168.816 120.503C174.126 117.544 175.625 110.163 172.163 104.017C168.702 97.8708 161.591 95.2876 156.281 98.247C150.97 101.206 149.472 108.588 152.933 114.734C156.395 120.88 163.506 123.463 168.816 120.503Z" fill="#D65E50"/>
<path d="M161.368 97.1541C155.133 96.9894 150.611 102.325 151.264 109.068C151.917 115.81 157.503 121.409 163.737 121.574C169.972 121.739 174.494 116.403 173.841 109.66C173.183 102.918 167.602 97.3188 161.368 97.1541Z" fill="#D55D4F"/>
<path d="M161.378 97.2926C155.214 97.1326 150.74 102.407 151.388 109.074C152.036 115.742 157.561 121.28 163.724 121.44C169.887 121.6 174.362 116.325 173.714 109.658C173.066 102.991 167.541 97.4526 161.378 97.2926Z" fill="#D55C4F"/>
<path d="M161.392 97.4313C155.295 97.2713 150.872 102.489 151.515 109.081C152.154 115.673 157.617 121.15 163.714 121.31C169.811 121.47 174.234 116.252 173.591 109.66C172.952 103.068 167.489 97.5913 161.392 97.4313Z" fill="#D55B4E"/>
<path d="M161.406 97.5642C155.38 97.4042 151.009 102.561 151.643 109.082C152.277 115.599 157.674 121.015 163.7 121.17C169.726 121.33 174.097 116.173 173.463 109.652C172.829 103.135 167.432 97.7194 161.406 97.5642Z" fill="#D55A4D"/>
<path d="M161.421 97.7007C155.465 97.5455 151.142 102.641 151.766 109.087C152.391 115.533 157.731 120.883 163.686 121.038C169.641 121.194 173.965 116.098 173.34 109.652C172.716 103.206 167.376 97.856 161.421 97.7007Z" fill="#D5594C"/>
<path d="M161.43 97.8316C155.541 97.6763 151.27 102.716 151.889 109.086C152.509 115.457 157.783 120.746 163.672 120.896C169.561 121.052 173.832 116.012 173.213 109.642C172.593 103.271 167.319 97.9822 161.43 97.8316Z" fill="#D4584C"/>
<path d="M161.443 97.9682C155.625 97.8176 151.401 102.796 152.016 109.086C152.626 115.382 157.839 120.605 163.657 120.76C169.475 120.911 173.699 115.933 173.084 109.642C172.474 103.346 167.261 98.1234 161.443 97.9682Z" fill="#D4574B"/>
<path d="M161.458 98.1069C155.711 97.9563 151.539 102.878 152.144 109.093C152.75 115.314 157.901 120.475 163.648 120.626C169.395 120.776 173.567 115.855 172.962 109.639C172.356 103.419 167.205 98.2574 161.458 98.1069Z" fill="#D4564A"/>
<path d="M161.472 98.2397C155.791 98.0892 151.671 102.95 152.267 109.095C152.863 115.24 157.953 120.34 163.634 120.49C169.315 120.641 173.434 115.781 172.838 109.636C172.242 103.491 167.153 98.3903 161.472 98.2397Z" fill="#D45549"/>
<path d="M161.487 98.3763C155.877 98.2304 151.804 103.03 152.395 109.099C152.987 115.169 158.01 120.208 163.625 120.354C169.235 120.5 173.307 115.701 172.716 109.631C172.125 103.561 167.101 98.5221 161.487 98.3763Z" fill="#D35449"/>
<path d="M161.496 98.5169C155.952 98.3711 151.936 103.114 152.518 109.108C153.1 115.103 158.067 120.081 163.606 120.227C169.149 120.372 173.165 115.63 172.583 109.635C172.002 103.641 167.035 98.6628 161.496 98.5169Z" fill="#D35348"/>
<path d="M161.511 98.6457C156.038 98.5045 152.069 103.186 152.642 109.105C153.219 115.024 158.119 119.941 163.592 120.082C169.065 120.224 173.033 115.542 172.461 109.623C171.884 103.704 166.984 98.7868 161.511 98.6457Z" fill="#D35247"/>
</g>
<path d="M199.327 92.0716C193.902 90.2507 187.492 95.2147 185.004 103.157C182.516 111.104 184.9 119.023 190.326 120.844C195.751 122.665 202.161 117.701 204.649 109.758C207.137 101.811 204.753 93.8925 199.327 92.0716Z" fill="#E4A084"/>
<path d="M200.268 110.699C195.103 114.119 189.517 113.146 185.43 109.951C185.657 116.594 184.46 129.228 175.113 142.261C167.607 152.725 151.042 156.438 138.682 156.207C109.194 155.661 101.276 146.844 94.9994 134.86C99.3984 148.048 109.819 160.141 133.02 161.298C176.012 163.444 187.511 145.414 188.717 120.057C189.219 120.377 189.753 120.655 190.325 120.848C195.751 122.669 202.16 117.705 204.648 109.762C205.287 107.716 205.599 105.674 205.627 103.73C204.719 106.455 202.988 108.901 200.273 110.699H200.268Z" fill="#D68B74"/>
<path d="M209.72 253.349L211.773 275.412L260.181 269.592C260.181 269.592 260.294 248.767 257.679 246.146C255.068 243.525 209.72 253.345 209.72 253.345V253.349Z" fill="#E5A185"/>
<path d="M190.68 106.57L195.623 107.182C195.434 99.4463 201.158 96.7691 201.158 96.7691C191.73 93.5743 190.68 106.57 190.68 106.57Z" fill="#D68B74"/>
<path d="M158.719 121.672C158.719 121.672 158.719 121.692 158.729 121.717C158.729 121.687 158.719 121.672 158.719 121.672Z" fill="#6C332E"/>
<path d="M142.656 17.963C88.1364 22.6306 97.2609 82.6639 97.2609 82.6639C100.156 64.6995 110.964 42.2841 119.549 41.6771C119.549 41.6771 127.136 47.6056 138.318 47.615C148.323 47.6197 162.045 40.1103 162.045 40.1103C172.016 39.6821 184.03 70.181 185.856 94.9067C186.272 100.562 191.092 93.928 191.092 93.928C191.092 93.928 196.087 13.3896 142.661 17.963H142.656Z" fill="#4F372D"/>
<path d="M171.282 22.098C154.656 -2.09133 102.194 6.05332 102.194 6.05332C97.6391 33.9597 117.307 39.8412 117.307 39.8412C117.307 39.8412 162.688 30.8778 169.674 35.583C176.661 40.2882 190.884 78.9035 190.884 78.9035C190.884 78.9035 201.725 38.0955 192.847 23.3401C186.329 12.5088 171.282 22.1027 171.282 22.1027V22.098Z" fill="#4F372D"/>
<path d="M122.435 0C122.695 3.67945 125.963 7.35889 125.963 7.35889C125.963 7.35889 181.859 43.5558 171.287 22.0955C160.711 0.635198 122.435 0 122.435 0Z" fill="#4F372D"/>
<path d="M180.071 14.4703C176.978 15.0067 176.278 16.4841 176.278 16.4841C178.43 12.3812 176.784 6.88086 176.784 6.88086C170.791 10.4521 171.486 15.2561 171.486 15.2561C168.393 9.12523 159.211 7.38431 159.211 7.38431C159.609 12.4941 165.195 17.6039 165.498 17.7592L170.384 24.864L180.194 23.1325L179.135 18.7849C180.696 16.4794 180.076 14.4797 180.076 14.4797L180.071 14.4703Z" fill="#4F372D"/>
<path d="M104.087 27.1816C88.1413 32.3479 94.0397 95.8207 94.0397 95.8207C96.9346 77.8563 110.959 42.2852 119.545 41.6783C119.545 41.6783 111.494 37.1096 104.087 27.1816Z" fill="#422E26"/>
<path opacity="0.12" d="M166.425 21.7233H166.435C166.461 21.7233 166.528 21.713 166.425 21.7233Z" fill="white"/>
<path opacity="0.11" d="M186.542 18.5231C184.583 18.8713 182.516 19.3983 180.388 19.9252C175.308 21.1815 169.948 22.0614 164.703 21.4685C158.606 20.7769 153.218 18.1749 147.769 15.5682C145.016 14.2508 142.273 12.9098 139.439 11.7665C133.375 9.31978 126.233 6.94366 119.606 7.28714C116.323 7.45653 113.13 8.51519 110.136 9.80911C107.359 10.9901 105.094 12.7263 103.429 14.4625C102.724 15.1918 102.142 15.9258 101.627 16.6457C101.773 18.8195 102.081 20.8098 102.535 22.6072C102.738 22.4331 102.951 22.259 103.178 22.0755C104.247 21.2474 105.619 20.4099 107.194 19.6947C108.793 19.0171 110.567 18.4102 112.6 18.2173C120.476 17.4597 127.865 20.4663 135.045 23.2565C137.987 24.3999 140.976 25.7361 144.141 26.9689C147.296 28.2346 150.579 29.4297 154.013 30.3989C159.793 32.0316 166.822 32.4222 172.64 30.6907C173.425 30.4554 174.206 30.2578 174.958 30.0131C177.961 28.9921 180.568 27.717 182.824 26.5172C185.08 25.3032 187.015 24.2022 188.718 23.3647C189.891 22.7672 190.95 22.3249 191.92 22.0143C190.387 20.0899 188.519 19.0124 186.537 18.5184L186.542 18.5231Z" fill="#E4902F"/>
<path opacity="0.73" d="M105.52 82.7127C105.52 82.7127 102.369 89.1353 102.076 95.1626C102.989 89.3941 109.238 83.075 119.422 85.1641C126.096 86.5381 126.247 95.7273 124.819 98.6821H124.838C124.838 98.6821 135.655 88.5472 131.285 69.8535L105.529 82.7127H105.52Z" fill="#D68B74"/>
<path opacity="0.73" d="M147.868 69.5312C147.868 69.5312 142.935 83.0304 150.522 97.2165C148.062 90.3375 155.644 85.7312 160.833 85.8582C168.577 86.0464 174.707 89.707 175.416 96.8165C175.416 96.8165 178.146 91.3209 176.66 85.4488C174.731 77.8406 147.873 69.5312 147.873 69.5312H147.868Z" fill="#D68B74"/>
<path d="M162.484 89.0919C152.409 88.4332 150.527 97.2177 150.527 97.2177C150.527 97.2177 152.532 102.328 164.05 101.946C175.374 101.575 175.417 96.8131 175.417 96.8131C175.417 96.8131 170.753 89.6236 162.484 89.0872V89.0919Z" fill="white"/>
<path d="M118.665 89.1102C114.46 86.4094 108.198 88.2538 102.077 95.1657C102.077 95.1657 101.098 100.243 112.157 100.299C123.859 100.356 124.838 98.6946 124.838 98.6946C124.838 98.6946 123.306 92.0932 118.67 89.1149L118.665 89.1102Z" fill="white"/>
<path d="M113.873 74.5691C105.453 79.1331 104.644 84.7323 104.644 84.7323C112.321 79.6601 127.079 82.5914 130.901 77.1946C133.044 74.1692 130.674 66.9844 130.674 66.9844C125.424 72.4471 117.936 72.3671 113.877 74.5691H113.873Z" fill="#422E26"/>
<path d="M162.499 73.0838C157.613 71.8228 153.308 69.2255 149.245 65.4473C149.245 65.4473 146.161 73.1732 147.434 75.154C151.393 81.3319 169.925 80.0333 176.661 85.4489C176.661 85.4489 175.365 76.4009 162.499 73.0838Z" fill="#422E26"/>
<path d="M149.619 133.298C148.715 134.215 147.287 134.394 146.204 133.693C144.255 132.437 140.726 130.72 135.916 130.668C131.205 130.611 127.718 132.277 125.789 133.51C124.71 134.197 123.3 134.032 122.397 133.133C121.153 131.896 121.385 129.84 122.865 128.899C125.491 127.228 129.506 124.829 135.514 124.876C141.521 124.942 146.497 127.398 149.132 129.082C150.598 130.018 150.844 132.051 149.624 133.289L149.619 133.298Z" fill="#C67967"/>
<path opacity="0.11" d="M222.103 270.27C209.938 273.136 198.259 276.378 189.546 278.928C161.288 287.204 132.813 297.353 124.72 302.04C123.22 302.91 121.853 304.049 120.623 305.456C119.904 305.197 118.902 304.891 117.7 304.637C113.85 303.239 108.571 301.282 104.437 302.425C99.4751 303.799 94.0922 304.75 89.2627 306.862C88.3971 307.244 87.4984 307.686 86.9733 308.472C86.1692 309.676 86.9592 311.069 87.418 312.231C87.9146 313.483 88.2268 314.701 88.0849 316.061C87.7254 319.552 83.9177 323.425 85.1191 326.991C85.6536 328.572 87.2288 329.301 88.0849 330.647C89.31 332.567 88.8701 334.882 89.3668 336.999C89.6979 338.425 90.3601 339.733 91.6798 340.49C93.6239 341.605 94.5699 341.836 94.9673 344.231C95.1186 345.144 95.3315 346.066 95.7761 346.88C96.6796 348.536 98.1317 348.691 99.7352 349.327C102.275 350.338 103.737 352.738 105.326 354.803C108.283 358.643 112.729 361.155 117.45 362.148C119.871 362.661 122.383 362.769 124.838 362.421C127.591 362.031 130.211 360.845 133.002 360.384C136.942 359.73 140.868 360.412 144.799 360.887C162.301 362.995 179.551 366.726 197.076 368.707C205.037 369.611 213.045 370.246 221.053 370.396C221.446 337.394 221.834 301.522 222.099 270.266L222.103 270.27Z" fill="#603813"/>
<path d="M185.78 94.0304C183.718 121.4 161.732 122.774 156.047 123.457C163.057 129.347 155.385 141.012 147.66 137.864C144.737 136.673 141.45 134.66 136.062 134.768C130.868 134.871 127.657 136.622 126.02 137.694C121.181 140.861 110.453 137.144 117.771 123.979C117.771 123.979 108.343 122.591 105.411 121.071C99.8198 118.177 96.9486 112.018 95.4681 106.207C94.8579 103.812 94.4511 101.361 94.2193 98.9003C94.1342 97.9969 93.8362 96.7265 94.0396 95.8231C87.9708 122.619 84.2624 165.86 140.641 163.86C197.019 161.86 189.314 119.321 189.314 119.321C186.424 109.92 191.083 93.9316 191.083 93.9316L185.78 94.0304Z" fill="#4F372D"/>
<path d="M133.73 113.682C133.73 113.682 127.212 111.076 117.633 116.924C110.302 121.399 107.965 130.028 107.965 130.028C107.965 130.028 118.036 131.637 135.177 125.173C152.603 132.908 165.569 130.136 165.569 130.136C165.569 130.136 159.263 109.636 133.73 113.678V113.682Z" fill="#4F372D"/>
<path opacity="0.16" d="M137.088 141.402C133.418 141.473 130.48 143.36 130.528 145.614C130.575 147.867 133.583 149.636 137.249 149.566C140.92 149.495 143.857 147.609 143.81 145.355C143.767 143.101 140.754 141.332 137.088 141.402Z" fill="black"/>
<path d="M118.665 89.1118C117.449 88.3308 116.054 87.945 114.549 87.9355C113.31 88.8578 112.274 90.3822 111.773 92.2549C110.831 95.7744 112.123 99.1715 114.653 99.8443C117.189 100.517 120.008 98.2069 120.949 94.6875C121.257 93.5441 121.323 92.4102 121.19 91.3797C120.476 90.5281 119.644 89.7376 118.669 89.1118H118.665Z" fill="url(#paint1_linear_644_29004)"/>
<path d="M167.669 96.4083C168.341 93.8911 167.839 91.4397 166.543 90.0234C165.252 89.5576 163.852 89.2235 162.371 89.0918C160.659 89.7788 159.131 91.5902 158.492 93.9758C157.565 97.4435 158.866 100.798 161.401 101.466C163.937 102.139 166.742 99.8713 167.669 96.4036V96.4083Z" fill="url(#paint2_linear_644_29004)"/>
<path d="M156.95 96.6495L156.647 98.5881C156.647 98.5881 163.166 98.8045 162.437 95.6897C161.713 92.5702 156.945 96.6542 156.945 96.6542L156.95 96.6495Z" fill="white"/>
<path d="M110.359 96.919L110.382 98.3494C110.382 98.3494 116.3 99.1304 115.552 96.0156C114.805 92.9008 110.359 96.919 110.359 96.919Z" fill="white"/>
<path d="M111.74 87.9799C109.02 88.4599 106.442 89.6503 104.678 91.3347C103.869 92.1064 103.174 93.0051 102.639 93.9837C102.492 94.2519 102.076 95.1694 102.076 95.2165C102.076 95.2165 105.468 92.5251 112.889 91.9229C121.309 91.2406 124.838 98.7924 124.838 98.7971C124.838 98.6889 124.729 97.3103 124.644 96.7598C124.412 95.2824 124.01 93.8049 123.319 92.4734C121.176 88.3516 116.271 87.1801 111.74 87.9799Z" fill="#381911"/>
<path d="M164.972 88.8658C161.08 88.2023 157.163 88.7575 154.15 91.2231C150.446 94.2485 150.527 97.2174 150.527 97.2174C150.527 97.2174 154.826 92.4511 162.745 92.4229C169.319 92.3993 175.417 96.8128 175.421 96.8175C175.421 96.8175 175.062 95.7541 174.958 95.533C173.179 91.7547 168.95 89.548 164.972 88.8705V88.8658Z" fill="#381911"/>
<path d="M132.401 103.345C132.401 103.345 124.558 97.7973 121.914 107.688C119.27 117.578 139.094 123.224 144.406 112.863C149.723 102.503 135.352 83.4277 135.352 83.4277C135.352 83.4277 138.276 95.233 132.401 103.345Z" fill="#E4A084"/>
<path opacity="0.2" d="M132.402 103.343C132.402 103.343 124.791 98.1252 122.109 107.018C126.125 107.917 130.335 108.575 134.469 108.749C136.772 103.084 137.51 96.9677 137.699 90.3711C137.16 90.3852 136.621 90.3852 136.077 90.3758C136.115 94.3281 135.424 99.1745 132.402 103.343Z" fill="white"/>
<path d="M68.1364 257.247L70.1467 235.245C70.1988 233.932 69.1676 232.822 67.8432 232.775C66.5187 232.728 65.4071 233.749 65.3598 235.066L64.6219 254.249C65.6247 254.518 66.5991 254.772 67.5357 255.012L68.1364 257.247Z" fill="#EFC5A8"/>
<path d="M121.749 110.445C122.993 118.524 139.605 122.218 144.406 112.864C144.699 112.294 144.921 111.692 145.101 111.076C137.334 112.807 129.227 112.436 121.753 110.445H121.749Z" fill="#D68B74"/>
<path d="M68.7003 251.075C56.0472 248.774 40.381 243.9 34.3218 241.877C34.2224 241.844 34.1184 241.9 34.0853 241.999C33.7447 243.171 32.6662 246.196 32.2736 247.203C32.2358 247.302 32.2831 247.41 32.3824 247.443C38.9857 249.758 54.7275 254.938 68.1374 257.248L68.7003 251.08V251.075Z" fill="#FFEDE1"/>
<path d="M120.296 299.59C120.296 299.59 108.272 294.344 103.173 296.791C98.0737 299.238 92.9131 302.959 88.9398 303.34C87.0005 303.529 87.0714 307.716 91.2481 309.537C94.3606 310.892 105.207 309.556 105.207 309.556L120.296 299.59Z" fill="#E5A185"/>
<path d="M96.9525 311.15C94.7435 313.63 91.5176 315.14 89.5735 317.855C88.443 319.431 87.8943 321.568 88.5045 323.426C89.0721 325.153 91.3095 325.628 92.2886 327.068C93.7171 329.171 92.1183 331.863 91.9764 334.097C91.896 335.326 92.0758 336.375 93.0407 337.241C94.1949 338.28 95.9828 337.984 97.1039 338.967C98.3668 340.082 97.4634 341.823 98.0452 343.183C99.0669 345.564 101.564 345.013 103.3 346.265C103.598 346.482 103.792 346.801 104.01 347.093C107.685 352.029 116.772 349.625 121.989 349.192C122.363 349.159 122.765 349.116 123.03 348.862C123.233 348.669 122.538 313.748 122.391 306.775C122.382 306.238 121.79 299.872 121.79 299.872C121.166 299.524 114.099 296.564 107.155 299.11C103.854 300.324 101.635 303.203 100.183 306.182C99.3176 307.96 98.2628 309.659 96.9431 311.141L96.9525 311.15Z" fill="#E5A185"/>
<path d="M122.254 300.09C122.254 300.09 121.989 299.751 121.894 299.709C120.906 301.615 112.477 306.273 110.107 306.993C106.815 307.99 96.4651 311.157 96.4651 311.157C95.2353 312.54 93.5845 313.622 92.1182 314.78C94.1521 316.53 102.023 323.757 105.963 335.793C107.657 340.964 110.041 348.52 109.861 350.026C114.038 350.77 123.933 349.222 124.198 348.967C124.401 348.775 122.717 300.288 122.249 300.085L122.254 300.09Z" fill="#CED0D8"/>
<path d="M95.2074 311.229C95.1507 310.805 95.4581 310.419 95.898 310.358C110.717 308.198 119.052 301.23 121.138 299.268C121.441 298.981 121.918 298.967 122.235 299.235H122.24C122.59 299.536 122.604 300.054 122.273 300.369C120.031 302.51 111.55 309.648 96.1156 311.892C95.671 311.958 95.2642 311.657 95.2074 311.229Z" fill="#E9EAF2"/>
<path d="M110.338 350.927C109.913 350.988 109.511 350.706 109.435 350.292C109.061 348.231 107.784 342.015 104.582 333.311C101.233 324.202 93.7783 316.909 91.6686 314.97C91.3564 314.683 91.3328 314.203 91.6166 313.888C91.9146 313.554 92.4349 313.521 92.766 313.822C94.9892 315.845 102.586 323.246 106.086 332.774C109.359 341.677 110.632 347.887 111.01 350.014C111.086 350.447 110.778 350.861 110.329 350.922L110.338 350.927Z" fill="#E9EAF2"/>
<path d="M92.2882 327.068C92.5531 327.454 92.7092 327.863 92.7943 328.282C93.1775 328.357 93.6032 328.423 94.0715 328.475C94.5208 328.522 94.9229 328.197 94.9513 327.76C94.9797 327.341 94.6627 326.979 94.2323 326.931C93.0167 326.8 92.1511 326.55 91.6307 326.357C91.8814 326.574 92.1038 326.804 92.2835 327.073L92.2882 327.068Z" fill="#D78C74"/>
<path d="M99.4452 339.146C99.3175 338.737 98.8965 338.478 98.4566 338.549C97.7329 338.671 97.0612 338.657 96.5646 338.61C96.7538 338.709 96.9335 338.822 97.0991 338.967C97.4964 339.32 97.6809 339.734 97.7613 340.177C97.9363 340.167 98.1113 340.153 98.2958 340.134C98.4897 340.111 98.6837 340.083 98.8871 340.045C99.308 339.965 99.5682 339.541 99.4405 339.146H99.4452Z" fill="#D78C74"/>
<path d="M103.457 345.451C102.97 345.63 102.568 345.701 102.274 345.729C102.634 345.865 102.979 346.035 103.301 346.27C103.547 346.449 103.722 346.698 103.901 346.943C104.034 346.896 104.171 346.844 104.313 346.788C104.677 346.637 104.829 346.214 104.644 345.88C104.422 345.466 103.911 345.287 103.457 345.451Z" fill="#D78C74"/>
<path d="M264.697 261.964C265.998 274.184 273.396 342.15 250.781 344.752C210.925 349.339 117.822 350.826 117.822 350.826C117.822 350.826 111.56 311.872 121.914 303.172C132.268 294.472 263.614 251.74 264.697 261.964Z" fill="#5C62AA"/>
<path d="M174.376 165.173C173.454 166.961 171.685 169.874 168.78 172.744C162.627 178.828 154.476 181.91 144.557 181.91C135.594 181.91 128.442 179.138 123.296 173.676C120.661 170.876 119.228 168.034 118.575 166.477C116.678 167.032 114.753 167.484 112.814 167.884C113.485 169.672 115.221 173.568 118.783 177.43C123.125 182.14 131.119 187.754 144.557 187.754C159.074 187.754 168.113 181.726 173.146 176.668C177.285 172.504 179.447 168.317 180.294 166.416C178.307 166.053 176.33 165.658 174.381 165.164L174.376 165.173Z" fill="#FFEDE1"/>
<path d="M207.855 273.277C206.531 273.277 205.462 272.209 205.462 270.896V241.658C205.462 240.341 206.536 239.277 207.855 239.277C209.18 239.277 210.249 240.345 210.249 241.658L211.294 270.275C211.294 271.592 209.175 273.282 207.855 273.282V273.277Z" fill="#EFC5A8"/>
<path d="M116.385 354.327C114.909 354.52 113.566 353.471 113.41 351.998C112.97 347.82 112.246 339.304 112.487 330.124C112.686 322.525 113.518 316.032 114.952 310.828C116.957 303.563 120.245 298.561 124.719 295.974C132.808 291.287 161.283 281.133 189.546 272.862C209.814 266.929 246.071 257.269 267.351 257.25C268.86 257.25 270.066 258.492 270 259.993L269.821 264.058C269.759 265.456 268.605 266.562 267.195 266.566C252.343 266.627 225.31 272.1 192.185 281.802C162.688 290.436 135.925 300.269 129.431 304.029C124.994 306.598 122.231 316.163 121.848 330.27C121.616 338.814 122.302 346.945 122.714 350.921C122.86 352.332 121.853 353.607 120.439 353.795L116.385 354.332V354.327Z" fill="#F7F7F7"/>
<path d="M209.805 256.19C208.783 256.242 207.922 255.451 207.889 254.435L207.856 253.348L207.818 252.21C207.785 251.226 208.551 250.393 209.54 250.342C216.011 249.979 238.985 248.271 259.4 241.444C260.341 241.129 261.363 241.628 261.694 242.559L262.437 244.653C262.777 245.608 262.262 246.657 261.297 246.977C239.912 254.139 216.521 255.833 209.805 256.185V256.19Z" fill="#FFEDE1"/>
<path d="M132.529 287.125C132.085 287.116 131.645 287.008 131.238 286.801C130.543 286.443 130.032 285.841 129.795 285.097L128.419 280.877C128.182 280.138 128.248 279.348 128.608 278.656C128.967 277.964 129.573 277.456 130.32 277.221L141.053 273.814C142.59 273.325 144.241 274.172 144.728 275.701L146.105 279.922C146.341 280.661 146.275 281.451 145.915 282.143C145.556 282.834 144.95 283.342 144.203 283.582L133.47 286.989C133.163 287.088 132.846 287.135 132.529 287.13V287.125ZM141.956 275.41C141.829 275.41 141.701 275.424 141.578 275.466L130.845 278.873C130.543 278.967 130.297 279.174 130.155 279.456C130.008 279.734 129.984 280.054 130.079 280.355L131.455 284.575C131.55 284.876 131.758 285.121 132.042 285.262C132.321 285.408 132.643 285.432 132.945 285.337L143.678 281.931C144.298 281.733 144.643 281.07 144.444 280.449L143.068 276.228C142.973 275.927 142.765 275.682 142.481 275.541C142.316 275.457 142.141 275.414 141.961 275.41H141.956Z" fill="#F2F2F2"/>
<path d="M131.218 280.558C115.396 236.245 98.4191 181.434 95.354 171.474C95.0844 170.598 95.5811 169.671 96.4609 169.408L104.204 167.065C105.145 166.783 106.139 167.305 106.427 168.241C109.573 178.447 126.412 232.791 142.092 276.719L131.218 280.558Z" fill="#F7F7F7"/>
<path d="M137.264 296.779L132.765 284.324L143.186 280.678L148.091 292.808L137.264 296.779Z" fill="#F7F7F7"/>
<ellipse cx="241.84" cy="312.733" rx="11.5951" ry="11.5217" fill="#FF6868"/>
</g>
<defs>
<linearGradient id="paint0_linear_644_29004" x1="91.6582" y1="94.9471" x2="188.408" y2="93.0456" gradientUnits="userSpaceOnUse">
<stop stop-color="#E4A084"/>
<stop offset="1" stop-color="#E4A084"/>
</linearGradient>
<linearGradient id="paint1_linear_644_29004" x1="112.409" y1="99.5285" x2="118.38" y2="90.2764" gradientUnits="userSpaceOnUse">
<stop stop-color="#5C3333"/>
<stop offset="1"/>
</linearGradient>
<linearGradient id="paint2_linear_644_29004" x1="160.123" y1="100.816" x2="165.383" y2="90.7083" gradientUnits="userSpaceOnUse">
<stop stop-color="#5C3333"/>
<stop offset="1"/>
</linearGradient>
<clipPath id="clip0_644_29004">
<rect width="270" height="795" fill="white"/>
</clipPath>
</defs>
</svg>
