<svg width="29" height="26" viewBox="0 0 29 26" fill="none" xmlns="http://www.w3.org/2000/svg">
<path d="M1.1654 13.7041H5.53032C5.69353 13.7041 5.85212 13.6499 5.98118 13.5499C6.11025 13.45 6.20249 13.31 6.24342 13.1519L7.04646 10.0553L10.7667 24.9413C10.8064 25.1008 10.8983 25.2425 11.0278 25.3438C11.1572 25.445 11.3169 25.5 11.4812 25.5C11.6455 25.5 11.8051 25.445 11.9346 25.3438C12.0641 25.2425 12.156 25.1008 12.1957 24.9413L17.3759 4.21068L21.0824 19.0434C21.1377 19.1882 21.2356 19.3128 21.3632 19.4008C21.4908 19.4887 21.642 19.5358 21.797 19.5358C21.9519 19.5358 22.1032 19.4887 22.2308 19.4008C22.3584 19.3128 22.4563 19.1882 22.5115 19.0434L23.8463 13.7041H27.6917C27.8871 13.7041 28.0746 13.6264 28.2127 13.4882C28.3509 13.3499 28.4286 13.1624 28.4286 12.9669C28.4286 12.7713 28.3509 12.5838 28.2127 12.4456C28.0746 12.3073 27.8871 12.2296 27.6917 12.2296H23.2707C23.1063 12.2297 22.9467 12.2847 22.8173 12.3859C22.6878 12.4871 22.5959 12.6288 22.5561 12.7883L21.797 15.8251L18.0905 0.992451C18.0352 0.847609 17.9373 0.722966 17.8097 0.635027C17.6821 0.547087 17.5309 0.5 17.3759 0.5C17.221 0.5 17.0697 0.547087 16.9421 0.635027C16.8145 0.722966 16.7166 0.847609 16.6614 0.992451L11.4812 21.7231L7.77467 6.89039C7.73134 6.73282 7.63846 6.59341 7.50977 6.49278C7.38108 6.39216 7.22342 6.33567 7.06014 6.33169C6.89693 6.33169 6.73834 6.38592 6.60927 6.48587C6.48021 6.58582 6.38797 6.72582 6.34704 6.8839L4.96043 12.2296H1.1654C0.969978 12.2296 0.782559 12.3073 0.644375 12.4456C0.50619 12.5838 0.428558 12.7713 0.428558 12.9669C0.428558 13.1624 0.50619 13.3499 0.644375 13.4882C0.782559 13.6264 0.969978 13.7041 1.1654 13.7041Z" fill="#373737"/>
</svg>
